%TF.GenerationSoftware,KiCad,Pcbnew,5.1.10*%
%TF.CreationDate,2021-11-30T18:31:43+01:00*%
%TF.ProjectId,Speichermodul_C,53706569-6368-4657-926d-6f64756c5f43,1*%
%TF.SameCoordinates,Original*%
%TF.FileFunction,Copper,L2,Bot*%
%TF.FilePolarity,Positive*%
%FSLAX46Y46*%
G04 Gerber Fmt 4.6, Leading zero omitted, Abs format (unit mm)*
G04 Created by KiCad (PCBNEW 5.1.10) date 2021-11-30 18:31:43*
%MOMM*%
%LPD*%
G01*
G04 APERTURE LIST*
%TA.AperFunction,NonConductor*%
%ADD10C,0.300000*%
%TD*%
%TA.AperFunction,ComponentPad*%
%ADD11O,2.400000X2.400000*%
%TD*%
%TA.AperFunction,ComponentPad*%
%ADD12R,2.400000X2.400000*%
%TD*%
%TA.AperFunction,ComponentPad*%
%ADD13C,1.600000*%
%TD*%
%TA.AperFunction,SMDPad,CuDef*%
%ADD14C,0.100000*%
%TD*%
%TA.AperFunction,SMDPad,CuDef*%
%ADD15R,5.080000X0.500000*%
%TD*%
%TA.AperFunction,SMDPad,CuDef*%
%ADD16R,0.500000X5.080000*%
%TD*%
%TA.AperFunction,SMDPad,CuDef*%
%ADD17C,2.000000*%
%TD*%
%TA.AperFunction,ComponentPad*%
%ADD18O,1.600000X1.600000*%
%TD*%
%TA.AperFunction,ComponentPad*%
%ADD19R,1.600000X1.600000*%
%TD*%
%TA.AperFunction,ComponentPad*%
%ADD20O,1.700000X1.700000*%
%TD*%
%TA.AperFunction,ComponentPad*%
%ADD21R,1.700000X1.700000*%
%TD*%
%TA.AperFunction,ViaPad*%
%ADD22C,2.000000*%
%TD*%
%TA.AperFunction,Conductor*%
%ADD23C,0.500000*%
%TD*%
%TA.AperFunction,Conductor*%
%ADD24C,0.254000*%
%TD*%
%TA.AperFunction,Conductor*%
%ADD25C,0.100000*%
%TD*%
G04 APERTURE END LIST*
D10*
X114380952Y-135704761D02*
X115333333Y-135704761D01*
X115333333Y-133704761D01*
D11*
%TO.P,C5,2*%
%TO.N,GND*%
X120650000Y-126440000D03*
D12*
%TO.P,C5,1*%
%TO.N,U2*%
X120650000Y-91440000D03*
%TD*%
D13*
%TO.P,C3,2*%
%TO.N,GND*%
X187960000Y-91520000D03*
%TO.P,C3,1*%
%TO.N,+5P*%
X187960000Y-96520000D03*
%TD*%
%TA.AperFunction,SMDPad,CuDef*%
D14*
%TO.P,REF\u002A\u002A,2*%
%TO.N,N/C*%
G36*
X120891903Y-98948350D02*
G01*
X125841650Y-103898097D01*
X125488097Y-104251650D01*
X120538350Y-99301903D01*
X120891903Y-98948350D01*
G37*
%TD.AperFunction*%
%TA.AperFunction,SMDPad,CuDef*%
G36*
X120538350Y-103898097D02*
G01*
X125488097Y-98948350D01*
X125841650Y-99301903D01*
X120891903Y-104251650D01*
X120538350Y-103898097D01*
G37*
%TD.AperFunction*%
D15*
X123190000Y-101600000D03*
D16*
X123190000Y-101600000D03*
D17*
%TO.P,REF\u002A\u002A,1*%
X120650000Y-101600000D03*
X120650000Y-99060000D03*
X123190000Y-99060000D03*
X125730000Y-99060000D03*
X125730000Y-101600000D03*
X125730000Y-104140000D03*
X123190000Y-104140000D03*
X120650000Y-104140000D03*
X123190000Y-101600000D03*
%TD*%
D18*
%TO.P,U3,28*%
%TO.N,U2*%
X157940000Y-91440000D03*
%TO.P,U3,14*%
%TO.N,GND*%
X142700000Y-124460000D03*
%TO.P,U3,27*%
%TO.N,R~W*%
X157940000Y-93980000D03*
%TO.P,U3,13*%
%TO.N,/D2*%
X142700000Y-121920000D03*
%TO.P,U3,26*%
%TO.N,U1*%
X157940000Y-96520000D03*
%TO.P,U3,12*%
%TO.N,/D1*%
X142700000Y-119380000D03*
%TO.P,U3,25*%
%TO.N,/A8*%
X157940000Y-99060000D03*
%TO.P,U3,11*%
%TO.N,/D0*%
X142700000Y-116840000D03*
%TO.P,U3,24*%
%TO.N,/A9*%
X157940000Y-101600000D03*
%TO.P,U3,10*%
%TO.N,/A0*%
X142700000Y-114300000D03*
%TO.P,U3,23*%
%TO.N,/A11*%
X157940000Y-104140000D03*
%TO.P,U3,9*%
%TO.N,/A1*%
X142700000Y-111760000D03*
%TO.P,U3,22*%
%TO.N,/~CSA*%
X157940000Y-106680000D03*
%TO.P,U3,8*%
%TO.N,/A2*%
X142700000Y-109220000D03*
%TO.P,U3,21*%
%TO.N,/A10*%
X157940000Y-109220000D03*
%TO.P,U3,7*%
%TO.N,/A3*%
X142700000Y-106680000D03*
%TO.P,U3,20*%
%TO.N,/~CSA*%
X157940000Y-111760000D03*
%TO.P,U3,6*%
%TO.N,/A4*%
X142700000Y-104140000D03*
%TO.P,U3,19*%
%TO.N,/D7*%
X157940000Y-114300000D03*
%TO.P,U3,5*%
%TO.N,/A5*%
X142700000Y-101600000D03*
%TO.P,U3,18*%
%TO.N,/D6*%
X157940000Y-116840000D03*
%TO.P,U3,4*%
%TO.N,/A6*%
X142700000Y-99060000D03*
%TO.P,U3,17*%
%TO.N,/D5*%
X157940000Y-119380000D03*
%TO.P,U3,3*%
%TO.N,/A7*%
X142700000Y-96520000D03*
%TO.P,U3,16*%
%TO.N,/D4*%
X157940000Y-121920000D03*
%TO.P,U3,2*%
%TO.N,/A12*%
X142700000Y-93980000D03*
%TO.P,U3,15*%
%TO.N,/D3*%
X157940000Y-124460000D03*
D19*
%TO.P,U3,1*%
%TO.N,Net-(U3-Pad1)*%
X142700000Y-91440000D03*
%TD*%
D18*
%TO.P,U2,28*%
%TO.N,+5P*%
X182880000Y-91440000D03*
%TO.P,U2,14*%
%TO.N,GND*%
X167640000Y-124460000D03*
%TO.P,U2,27*%
%TO.N,+5P*%
X182880000Y-93980000D03*
%TO.P,U2,13*%
%TO.N,/D2*%
X167640000Y-121920000D03*
%TO.P,U2,26*%
%TO.N,Net-(U2-Pad26)*%
X182880000Y-96520000D03*
%TO.P,U2,12*%
%TO.N,/D1*%
X167640000Y-119380000D03*
%TO.P,U2,25*%
%TO.N,/A8*%
X182880000Y-99060000D03*
%TO.P,U2,11*%
%TO.N,/D0*%
X167640000Y-116840000D03*
%TO.P,U2,24*%
%TO.N,/A9*%
X182880000Y-101600000D03*
%TO.P,U2,10*%
%TO.N,/A0*%
X167640000Y-114300000D03*
%TO.P,U2,23*%
%TO.N,/A11*%
X182880000Y-104140000D03*
%TO.P,U2,9*%
%TO.N,/A1*%
X167640000Y-111760000D03*
%TO.P,U2,22*%
%TO.N,/~CSB*%
X182880000Y-106680000D03*
%TO.P,U2,8*%
%TO.N,/A2*%
X167640000Y-109220000D03*
%TO.P,U2,21*%
%TO.N,/A10*%
X182880000Y-109220000D03*
%TO.P,U2,7*%
%TO.N,/A3*%
X167640000Y-106680000D03*
%TO.P,U2,20*%
%TO.N,/~CSB*%
X182880000Y-111760000D03*
%TO.P,U2,6*%
%TO.N,/A4*%
X167640000Y-104140000D03*
%TO.P,U2,19*%
%TO.N,/D7*%
X182880000Y-114300000D03*
%TO.P,U2,5*%
%TO.N,/A5*%
X167640000Y-101600000D03*
%TO.P,U2,18*%
%TO.N,/D6*%
X182880000Y-116840000D03*
%TO.P,U2,4*%
%TO.N,/A6*%
X167640000Y-99060000D03*
%TO.P,U2,17*%
%TO.N,/D5*%
X182880000Y-119380000D03*
%TO.P,U2,3*%
%TO.N,/A7*%
X167640000Y-96520000D03*
%TO.P,U2,16*%
%TO.N,/D4*%
X182880000Y-121920000D03*
%TO.P,U2,2*%
%TO.N,/A12*%
X167640000Y-93980000D03*
%TO.P,U2,15*%
%TO.N,/D3*%
X182880000Y-124460000D03*
D19*
%TO.P,U2,1*%
%TO.N,+5P*%
X167640000Y-91440000D03*
%TD*%
D20*
%TO.P,X10,29*%
%TO.N,Net-(X10-Pad29)*%
X117470000Y-135160000D03*
%TO.P,X10,28*%
%TO.N,+5P*%
X120010000Y-135160000D03*
%TO.P,X10,27*%
%TO.N,U2*%
X122550000Y-135160000D03*
%TO.P,X10,26*%
%TO.N,U1*%
X125090000Y-135160000D03*
%TO.P,X10,25*%
%TO.N,GND*%
X127630000Y-135160000D03*
%TO.P,X10,24*%
%TO.N,/A7*%
X130170000Y-135160000D03*
%TO.P,X10,23*%
%TO.N,/A6*%
X132710000Y-135160000D03*
%TO.P,X10,22*%
%TO.N,/A5*%
X135250000Y-135160000D03*
%TO.P,X10,21*%
%TO.N,/A4*%
X137790000Y-135160000D03*
%TO.P,X10,20*%
%TO.N,/A3*%
X140330000Y-135160000D03*
%TO.P,X10,19*%
%TO.N,/A2*%
X142870000Y-135160000D03*
%TO.P,X10,18*%
%TO.N,/A1*%
X145410000Y-135160000D03*
%TO.P,X10,17*%
%TO.N,/A0*%
X147950000Y-135160000D03*
%TO.P,X10,16*%
%TO.N,/D0*%
X150490000Y-135160000D03*
%TO.P,X10,15*%
%TO.N,/D1*%
X153030000Y-135160000D03*
%TO.P,X10,14*%
%TO.N,/D2*%
X155570000Y-135160000D03*
%TO.P,X10,13*%
%TO.N,/D3*%
X158110000Y-135160000D03*
%TO.P,X10,12*%
%TO.N,/D4*%
X160650000Y-135160000D03*
%TO.P,X10,11*%
%TO.N,/D5*%
X163190000Y-135160000D03*
%TO.P,X10,10*%
%TO.N,/D6*%
X165730000Y-135160000D03*
%TO.P,X10,9*%
%TO.N,/D7*%
X168270000Y-135160000D03*
%TO.P,X10,8*%
%TO.N,/A12*%
X170810000Y-135160000D03*
%TO.P,X10,7*%
%TO.N,/A11*%
X173350000Y-135160000D03*
%TO.P,X10,6*%
%TO.N,/A10*%
X175890000Y-135160000D03*
%TO.P,X10,5*%
%TO.N,/A9*%
X178430000Y-135160000D03*
%TO.P,X10,4*%
%TO.N,/A8*%
X180970000Y-135160000D03*
%TO.P,X10,3*%
%TO.N,R~W*%
X183510000Y-135160000D03*
%TO.P,X10,2*%
%TO.N,/~CSB*%
X186050000Y-135160000D03*
D21*
%TO.P,X10,1*%
%TO.N,/~CSA*%
X188590000Y-135160000D03*
%TD*%
D22*
%TO.N,GND*%
X173500000Y-127700000D03*
%TO.N,/A8*%
X188500000Y-99000000D03*
%TO.N,/A9*%
X188600000Y-101600000D03*
%TO.N,/A10*%
X188600000Y-109400000D03*
%TO.N,R~W*%
X155400000Y-130300000D03*
%TO.N,/~CSA*%
X160900000Y-88500000D03*
%TO.N,/A12*%
X163000000Y-93800000D03*
%TO.N,/A11*%
X188600000Y-104300000D03*
%TD*%
D23*
%TO.N,GND*%
X127630000Y-135160000D02*
X128800000Y-133000000D01*
X128800000Y-133000000D02*
X142700000Y-124460000D01*
X173500000Y-127700000D02*
X167640000Y-124460000D01*
X167640000Y-124460000D02*
X157900000Y-126800000D01*
X157900000Y-126800000D02*
X142700000Y-124460000D01*
%TO.N,+5P*%
X187960000Y-96520000D02*
X182880000Y-93980000D01*
X182880000Y-93980000D02*
X182880000Y-91440000D01*
X182880000Y-91440000D02*
X167640000Y-91440000D01*
X142100000Y-88200000D02*
X120010000Y-135160000D01*
X158000000Y-88100000D02*
X142100000Y-88200000D01*
X161100000Y-91300000D02*
X158000000Y-88100000D01*
X167640000Y-91440000D02*
X161100000Y-91300000D01*
%TO.N,/A8*%
X188500000Y-99000000D02*
X182880000Y-99060000D01*
X168350000Y-97800000D02*
X182880000Y-99060000D01*
X167250000Y-97800000D02*
X168350000Y-97800000D01*
X157940000Y-99060000D02*
X167250000Y-97800000D01*
%TO.N,/D2*%
X167640000Y-121920000D02*
X158300000Y-123200000D01*
X158300000Y-123200000D02*
X157600000Y-123200000D01*
X157600000Y-123200000D02*
X142700000Y-121920000D01*
%TO.N,/A9*%
X188600000Y-101600000D02*
X182880000Y-101600000D01*
X168150000Y-100350000D02*
X182880000Y-101600000D01*
X167000000Y-100350000D02*
X168150000Y-100350000D01*
X157940000Y-101600000D02*
X167000000Y-100350000D01*
%TO.N,/D1*%
X157500000Y-120650000D02*
X142700000Y-119380000D01*
X158550000Y-120650000D02*
X157500000Y-120650000D01*
X167640000Y-119380000D02*
X158550000Y-120650000D01*
%TO.N,/D0*%
X167640000Y-116840000D02*
X158650000Y-118150000D01*
X158650000Y-118150000D02*
X157500000Y-118100000D01*
X157500000Y-118100000D02*
X142700000Y-116840000D01*
%TO.N,/A0*%
X167640000Y-114300000D02*
X158700000Y-115600000D01*
X158700000Y-115600000D02*
X157200000Y-115550000D01*
X157200000Y-115550000D02*
X142700000Y-114300000D01*
%TO.N,/A10*%
X188600000Y-109400000D02*
X182880000Y-109220000D01*
X157940000Y-109220000D02*
X167050000Y-107950000D01*
X167050000Y-107950000D02*
X168250000Y-107950000D01*
X168250000Y-107950000D02*
X182880000Y-109220000D01*
%TO.N,/A1*%
X167640000Y-111760000D02*
X158600000Y-113050000D01*
X158600000Y-113050000D02*
X157350000Y-113050000D01*
X157350000Y-113050000D02*
X142700000Y-111760000D01*
%TO.N,/A2*%
X167640000Y-109220000D02*
X158700000Y-110450000D01*
X158700000Y-110450000D02*
X157300000Y-110500000D01*
X157300000Y-110500000D02*
X142700000Y-109220000D01*
%TO.N,/D7*%
X157940000Y-114300000D02*
X167100000Y-113050000D01*
X167100000Y-113050000D02*
X168250000Y-113050000D01*
X168250000Y-113050000D02*
X182880000Y-114300000D01*
%TO.N,/A3*%
X167640000Y-106680000D02*
X158450000Y-107950000D01*
X158450000Y-107950000D02*
X157500000Y-107950000D01*
X157500000Y-107950000D02*
X142700000Y-106680000D01*
%TO.N,/D6*%
X157940000Y-116840000D02*
X167150000Y-115600000D01*
X167150000Y-115600000D02*
X168100000Y-115550000D01*
X168100000Y-115550000D02*
X182880000Y-116840000D01*
%TO.N,/A4*%
X167640000Y-104140000D02*
X158650000Y-105400000D01*
X158650000Y-105400000D02*
X157500000Y-105400000D01*
X157500000Y-105400000D02*
X142700000Y-104140000D01*
%TO.N,/D5*%
X157940000Y-119380000D02*
X167000000Y-118150000D01*
X167000000Y-118150000D02*
X168200000Y-118100000D01*
X168200000Y-118100000D02*
X182880000Y-119380000D01*
%TO.N,/A5*%
X157550000Y-102850000D02*
X142700000Y-101600000D01*
X158350000Y-102850000D02*
X157550000Y-102850000D01*
X167640000Y-101600000D02*
X158350000Y-102850000D01*
%TO.N,/D4*%
X157940000Y-121920000D02*
X167200000Y-120650000D01*
X167200000Y-120650000D02*
X167950000Y-120650000D01*
X167950000Y-120650000D02*
X182880000Y-121920000D01*
%TO.N,/A6*%
X157550000Y-100350000D02*
X142700000Y-99060000D01*
X158300000Y-100350000D02*
X157550000Y-100350000D01*
X167640000Y-99060000D02*
X158300000Y-100350000D01*
%TO.N,/D3*%
X157940000Y-124460000D02*
X167150000Y-123200000D01*
X167150000Y-123200000D02*
X168300000Y-123200000D01*
X168300000Y-123200000D02*
X182880000Y-124460000D01*
%TO.N,/A7*%
X157300000Y-97800000D02*
X142700000Y-96520000D01*
X158650000Y-97800000D02*
X157300000Y-97800000D01*
X167640000Y-96520000D02*
X158650000Y-97800000D01*
%TO.N,R~W*%
X181700000Y-133600000D02*
X183510000Y-135160000D01*
X155400000Y-130300000D02*
X181700000Y-133600000D01*
%TO.N,/~CSA*%
X160900000Y-88500000D02*
X188300000Y-88700000D01*
X188300000Y-88700000D02*
X189800000Y-90500000D01*
X189800000Y-90500000D02*
X191500000Y-108600000D01*
X191500000Y-108600000D02*
X188590000Y-135160000D01*
%TO.N,/A12*%
X163000000Y-93800000D02*
X167640000Y-93980000D01*
X157250000Y-95250000D02*
X142700000Y-93980000D01*
X158550000Y-95250000D02*
X157250000Y-95250000D01*
X163000000Y-93800000D02*
X158550000Y-95250000D01*
%TO.N,/A11*%
X188600000Y-104300000D02*
X182880000Y-104140000D01*
X168150000Y-102850000D02*
X182880000Y-104140000D01*
X167150000Y-102850000D02*
X168150000Y-102850000D01*
X157940000Y-104140000D02*
X167150000Y-102850000D01*
%TO.N,U2*%
X142240000Y-91440000D02*
X157940000Y-91440000D01*
X122500000Y-135300000D02*
X142240000Y-91440000D01*
%TO.N,U1*%
X157940000Y-96520000D02*
X143600000Y-95200000D01*
X143600000Y-95200000D02*
X141600000Y-95300000D01*
X141600000Y-95300000D02*
X125090000Y-135160000D01*
%TO.N,/~CSB*%
X189300000Y-106700000D02*
X190500000Y-109500000D01*
X190500000Y-109500000D02*
X189300000Y-112000000D01*
X182880000Y-106680000D02*
X189300000Y-106700000D01*
X186050000Y-135160000D02*
X186311711Y-111888289D01*
X186311711Y-111888289D02*
X182880000Y-111760000D01*
X189300000Y-112000000D02*
X186311711Y-111888289D01*
%TD*%
D24*
%TO.N,GND*%
X142847000Y-124546363D02*
X142847000Y-124587000D01*
X142827000Y-124587000D01*
X142827000Y-125730624D01*
X143049040Y-125851909D01*
X143313881Y-125757070D01*
X143555131Y-125612385D01*
X143763519Y-125423414D01*
X143931037Y-125197420D01*
X144051246Y-124943087D01*
X144091904Y-124809039D01*
X144028746Y-124694081D01*
X157884248Y-126426019D01*
X157909135Y-126426671D01*
X157922943Y-126424910D01*
X166273023Y-124891222D01*
X166288754Y-124943087D01*
X166408963Y-125197420D01*
X166576481Y-125423414D01*
X166784869Y-125612385D01*
X167026119Y-125757070D01*
X167290960Y-125851909D01*
X167513000Y-125730624D01*
X167513000Y-124663471D01*
X167678043Y-124633157D01*
X167767000Y-124682740D01*
X167767000Y-125730624D01*
X167989040Y-125851909D01*
X168253881Y-125757070D01*
X168495131Y-125612385D01*
X168703519Y-125423414D01*
X168818224Y-125268668D01*
X173334046Y-127785683D01*
X155496531Y-128273047D01*
X155474174Y-128275654D01*
X129474174Y-133675654D01*
X129450412Y-133683081D01*
X129428555Y-133695002D01*
X129410197Y-133710197D01*
X128831364Y-134289030D01*
X128825178Y-134278645D01*
X128630269Y-134062412D01*
X128396920Y-133888359D01*
X128134099Y-133763175D01*
X127986890Y-133718524D01*
X127757002Y-133839844D01*
X127757002Y-133675000D01*
X127752575Y-133675000D01*
X128488293Y-132595947D01*
X141492894Y-125229705D01*
X141636481Y-125423414D01*
X141844869Y-125612385D01*
X142086119Y-125757070D01*
X142350960Y-125851909D01*
X142573000Y-125730624D01*
X142573000Y-124617896D01*
X142725991Y-124531237D01*
X142847000Y-124546363D01*
%TA.AperFunction,Conductor*%
D25*
G36*
X142847000Y-124546363D02*
G01*
X142847000Y-124587000D01*
X142827000Y-124587000D01*
X142827000Y-125730624D01*
X143049040Y-125851909D01*
X143313881Y-125757070D01*
X143555131Y-125612385D01*
X143763519Y-125423414D01*
X143931037Y-125197420D01*
X144051246Y-124943087D01*
X144091904Y-124809039D01*
X144028746Y-124694081D01*
X157884248Y-126426019D01*
X157909135Y-126426671D01*
X157922943Y-126424910D01*
X166273023Y-124891222D01*
X166288754Y-124943087D01*
X166408963Y-125197420D01*
X166576481Y-125423414D01*
X166784869Y-125612385D01*
X167026119Y-125757070D01*
X167290960Y-125851909D01*
X167513000Y-125730624D01*
X167513000Y-124663471D01*
X167678043Y-124633157D01*
X167767000Y-124682740D01*
X167767000Y-125730624D01*
X167989040Y-125851909D01*
X168253881Y-125757070D01*
X168495131Y-125612385D01*
X168703519Y-125423414D01*
X168818224Y-125268668D01*
X173334046Y-127785683D01*
X155496531Y-128273047D01*
X155474174Y-128275654D01*
X129474174Y-133675654D01*
X129450412Y-133683081D01*
X129428555Y-133695002D01*
X129410197Y-133710197D01*
X128831364Y-134289030D01*
X128825178Y-134278645D01*
X128630269Y-134062412D01*
X128396920Y-133888359D01*
X128134099Y-133763175D01*
X127986890Y-133718524D01*
X127757002Y-133839844D01*
X127757002Y-133675000D01*
X127752575Y-133675000D01*
X128488293Y-132595947D01*
X141492894Y-125229705D01*
X141636481Y-125423414D01*
X141844869Y-125612385D01*
X142086119Y-125757070D01*
X142350960Y-125851909D01*
X142573000Y-125730624D01*
X142573000Y-124617896D01*
X142725991Y-124531237D01*
X142847000Y-124546363D01*
G37*
%TD.AperFunction*%
%TD*%
D24*
%TO.N,+5P*%
X181528754Y-90956913D02*
X181488096Y-91090961D01*
X181610085Y-91313000D01*
X182753000Y-91313000D01*
X182753000Y-91293000D01*
X183007000Y-91293000D01*
X183007000Y-91313000D01*
X183027000Y-91313000D01*
X183027000Y-91567000D01*
X183007000Y-91567000D01*
X183007000Y-93853000D01*
X184149915Y-93853000D01*
X184271904Y-93630961D01*
X184231246Y-93496913D01*
X184111037Y-93242580D01*
X183943519Y-93016586D01*
X183735131Y-92827615D01*
X183539018Y-92710000D01*
X183735131Y-92592385D01*
X183943519Y-92403414D01*
X184111037Y-92177420D01*
X184187343Y-92015974D01*
X187465594Y-95172808D01*
X187343708Y-95216397D01*
X187218486Y-95283329D01*
X187146903Y-95527298D01*
X187960000Y-96340395D01*
X187974143Y-96326253D01*
X187986570Y-96338680D01*
X187882625Y-96650515D01*
X187766253Y-96534143D01*
X187780395Y-96520000D01*
X186967298Y-95706903D01*
X186723329Y-95778486D01*
X186602429Y-96033996D01*
X186533700Y-96308184D01*
X186519783Y-96590512D01*
X186561213Y-96870130D01*
X186656397Y-97136292D01*
X186676018Y-97173000D01*
X184162751Y-97173000D01*
X184259853Y-96938574D01*
X184315000Y-96661335D01*
X184315000Y-96378665D01*
X184259853Y-96101426D01*
X184151680Y-95840273D01*
X183994637Y-95605241D01*
X183794759Y-95405363D01*
X183559727Y-95248320D01*
X183549135Y-95243933D01*
X183735131Y-95132385D01*
X183943519Y-94943414D01*
X184111037Y-94717420D01*
X184231246Y-94463087D01*
X184271904Y-94329039D01*
X184149915Y-94107000D01*
X183007000Y-94107000D01*
X183007000Y-94127000D01*
X182753000Y-94127000D01*
X182753000Y-94107000D01*
X181610085Y-94107000D01*
X181488096Y-94329039D01*
X181528754Y-94463087D01*
X181648963Y-94717420D01*
X181816481Y-94943414D01*
X182024869Y-95132385D01*
X182210865Y-95243933D01*
X182200273Y-95248320D01*
X181965241Y-95405363D01*
X181765363Y-95605241D01*
X181608320Y-95840273D01*
X181500147Y-96101426D01*
X181445000Y-96378665D01*
X181445000Y-96658166D01*
X169067978Y-92342493D01*
X169078072Y-92240000D01*
X169075379Y-91789039D01*
X181488096Y-91789039D01*
X181528754Y-91923087D01*
X181648963Y-92177420D01*
X181816481Y-92403414D01*
X182024869Y-92592385D01*
X182220982Y-92710000D01*
X182024869Y-92827615D01*
X181816481Y-93016586D01*
X181648963Y-93242580D01*
X181528754Y-93496913D01*
X181488096Y-93630961D01*
X181610085Y-93853000D01*
X182753000Y-93853000D01*
X182753000Y-91567000D01*
X181610085Y-91567000D01*
X181488096Y-91789039D01*
X169075379Y-91789039D01*
X169075000Y-91725750D01*
X168916250Y-91567000D01*
X167794068Y-91567000D01*
X167774529Y-91313000D01*
X168916250Y-91313000D01*
X169075000Y-91154250D01*
X169077013Y-90817349D01*
X181633507Y-90735280D01*
X181528754Y-90956913D01*
%TA.AperFunction,Conductor*%
D25*
G36*
X181528754Y-90956913D02*
G01*
X181488096Y-91090961D01*
X181610085Y-91313000D01*
X182753000Y-91313000D01*
X182753000Y-91293000D01*
X183007000Y-91293000D01*
X183007000Y-91313000D01*
X183027000Y-91313000D01*
X183027000Y-91567000D01*
X183007000Y-91567000D01*
X183007000Y-93853000D01*
X184149915Y-93853000D01*
X184271904Y-93630961D01*
X184231246Y-93496913D01*
X184111037Y-93242580D01*
X183943519Y-93016586D01*
X183735131Y-92827615D01*
X183539018Y-92710000D01*
X183735131Y-92592385D01*
X183943519Y-92403414D01*
X184111037Y-92177420D01*
X184187343Y-92015974D01*
X187465594Y-95172808D01*
X187343708Y-95216397D01*
X187218486Y-95283329D01*
X187146903Y-95527298D01*
X187960000Y-96340395D01*
X187974143Y-96326253D01*
X187986570Y-96338680D01*
X187882625Y-96650515D01*
X187766253Y-96534143D01*
X187780395Y-96520000D01*
X186967298Y-95706903D01*
X186723329Y-95778486D01*
X186602429Y-96033996D01*
X186533700Y-96308184D01*
X186519783Y-96590512D01*
X186561213Y-96870130D01*
X186656397Y-97136292D01*
X186676018Y-97173000D01*
X184162751Y-97173000D01*
X184259853Y-96938574D01*
X184315000Y-96661335D01*
X184315000Y-96378665D01*
X184259853Y-96101426D01*
X184151680Y-95840273D01*
X183994637Y-95605241D01*
X183794759Y-95405363D01*
X183559727Y-95248320D01*
X183549135Y-95243933D01*
X183735131Y-95132385D01*
X183943519Y-94943414D01*
X184111037Y-94717420D01*
X184231246Y-94463087D01*
X184271904Y-94329039D01*
X184149915Y-94107000D01*
X183007000Y-94107000D01*
X183007000Y-94127000D01*
X182753000Y-94127000D01*
X182753000Y-94107000D01*
X181610085Y-94107000D01*
X181488096Y-94329039D01*
X181528754Y-94463087D01*
X181648963Y-94717420D01*
X181816481Y-94943414D01*
X182024869Y-95132385D01*
X182210865Y-95243933D01*
X182200273Y-95248320D01*
X181965241Y-95405363D01*
X181765363Y-95605241D01*
X181608320Y-95840273D01*
X181500147Y-96101426D01*
X181445000Y-96378665D01*
X181445000Y-96658166D01*
X169067978Y-92342493D01*
X169078072Y-92240000D01*
X169075379Y-91789039D01*
X181488096Y-91789039D01*
X181528754Y-91923087D01*
X181648963Y-92177420D01*
X181816481Y-92403414D01*
X182024869Y-92592385D01*
X182220982Y-92710000D01*
X182024869Y-92827615D01*
X181816481Y-93016586D01*
X181648963Y-93242580D01*
X181528754Y-93496913D01*
X181488096Y-93630961D01*
X181610085Y-93853000D01*
X182753000Y-93853000D01*
X182753000Y-91567000D01*
X181610085Y-91567000D01*
X181488096Y-91789039D01*
X169075379Y-91789039D01*
X169075000Y-91725750D01*
X168916250Y-91567000D01*
X167794068Y-91567000D01*
X167774529Y-91313000D01*
X168916250Y-91313000D01*
X169075000Y-91154250D01*
X169077013Y-90817349D01*
X181633507Y-90735280D01*
X181528754Y-90956913D01*
G37*
%TD.AperFunction*%
%TD*%
M02*
