%TF.GenerationSoftware,KiCad,Pcbnew,5.1.10*%
%TF.CreationDate,2021-11-30T18:31:43+01:00*%
%TF.ProjectId,Speichermodul_C,53706569-6368-4657-926d-6f64756c5f43,1*%
%TF.SameCoordinates,Original*%
%TF.FileFunction,Copper,L1,Top*%
%TF.FilePolarity,Positive*%
%FSLAX46Y46*%
G04 Gerber Fmt 4.6, Leading zero omitted, Abs format (unit mm)*
G04 Created by KiCad (PCBNEW 5.1.10) date 2021-11-30 18:31:43*
%MOMM*%
%LPD*%
G01*
G04 APERTURE LIST*
%TA.AperFunction,NonConductor*%
%ADD10C,0.300000*%
%TD*%
%TA.AperFunction,ComponentPad*%
%ADD11O,2.400000X2.400000*%
%TD*%
%TA.AperFunction,ComponentPad*%
%ADD12R,2.400000X2.400000*%
%TD*%
%TA.AperFunction,ComponentPad*%
%ADD13C,1.600000*%
%TD*%
%TA.AperFunction,SMDPad,CuDef*%
%ADD14C,0.100000*%
%TD*%
%TA.AperFunction,SMDPad,CuDef*%
%ADD15R,5.080000X0.500000*%
%TD*%
%TA.AperFunction,SMDPad,CuDef*%
%ADD16R,0.500000X5.080000*%
%TD*%
%TA.AperFunction,SMDPad,CuDef*%
%ADD17C,2.000000*%
%TD*%
%TA.AperFunction,ComponentPad*%
%ADD18O,1.600000X1.600000*%
%TD*%
%TA.AperFunction,ComponentPad*%
%ADD19R,1.600000X1.600000*%
%TD*%
%TA.AperFunction,ComponentPad*%
%ADD20O,1.700000X1.700000*%
%TD*%
%TA.AperFunction,ComponentPad*%
%ADD21R,1.700000X1.700000*%
%TD*%
%TA.AperFunction,ViaPad*%
%ADD22C,2.000000*%
%TD*%
%TA.AperFunction,Conductor*%
%ADD23C,0.500000*%
%TD*%
G04 APERTURE END LIST*
D10*
X117000000Y-88809523D02*
X117285714Y-88904761D01*
X117761904Y-88904761D01*
X117952380Y-88809523D01*
X118047619Y-88714285D01*
X118142857Y-88523809D01*
X118142857Y-88333333D01*
X118047619Y-88142857D01*
X117952380Y-88047619D01*
X117761904Y-87952380D01*
X117380952Y-87857142D01*
X117190476Y-87761904D01*
X117095238Y-87666666D01*
X117000000Y-87476190D01*
X117000000Y-87285714D01*
X117095238Y-87095238D01*
X117190476Y-87000000D01*
X117380952Y-86904761D01*
X117857142Y-86904761D01*
X118142857Y-87000000D01*
X119000000Y-87571428D02*
X119000000Y-89571428D01*
X119000000Y-87666666D02*
X119190476Y-87571428D01*
X119571428Y-87571428D01*
X119761904Y-87666666D01*
X119857142Y-87761904D01*
X119952380Y-87952380D01*
X119952380Y-88523809D01*
X119857142Y-88714285D01*
X119761904Y-88809523D01*
X119571428Y-88904761D01*
X119190476Y-88904761D01*
X119000000Y-88809523D01*
X121571428Y-88809523D02*
X121380952Y-88904761D01*
X121000000Y-88904761D01*
X120809523Y-88809523D01*
X120714285Y-88619047D01*
X120714285Y-87857142D01*
X120809523Y-87666666D01*
X121000000Y-87571428D01*
X121380952Y-87571428D01*
X121571428Y-87666666D01*
X121666666Y-87857142D01*
X121666666Y-88047619D01*
X120714285Y-88238095D01*
X122523809Y-88904761D02*
X122523809Y-87571428D01*
X122523809Y-86904761D02*
X122428571Y-87000000D01*
X122523809Y-87095238D01*
X122619047Y-87000000D01*
X122523809Y-86904761D01*
X122523809Y-87095238D01*
X124333333Y-88809523D02*
X124142857Y-88904761D01*
X123761904Y-88904761D01*
X123571428Y-88809523D01*
X123476190Y-88714285D01*
X123380952Y-88523809D01*
X123380952Y-87952380D01*
X123476190Y-87761904D01*
X123571428Y-87666666D01*
X123761904Y-87571428D01*
X124142857Y-87571428D01*
X124333333Y-87666666D01*
X125190476Y-88904761D02*
X125190476Y-86904761D01*
X126047619Y-88904761D02*
X126047619Y-87857142D01*
X125952380Y-87666666D01*
X125761904Y-87571428D01*
X125476190Y-87571428D01*
X125285714Y-87666666D01*
X125190476Y-87761904D01*
X127761904Y-88809523D02*
X127571428Y-88904761D01*
X127190476Y-88904761D01*
X126999999Y-88809523D01*
X126904761Y-88619047D01*
X126904761Y-87857142D01*
X126999999Y-87666666D01*
X127190476Y-87571428D01*
X127571428Y-87571428D01*
X127761904Y-87666666D01*
X127857142Y-87857142D01*
X127857142Y-88047619D01*
X126904761Y-88238095D01*
X128714285Y-88904761D02*
X128714285Y-87571428D01*
X128714285Y-87952380D02*
X128809523Y-87761904D01*
X128904761Y-87666666D01*
X129095238Y-87571428D01*
X129285714Y-87571428D01*
X131190476Y-86904761D02*
X132333333Y-86904761D01*
X131761904Y-88904761D02*
X131761904Y-86904761D01*
X132809523Y-87571428D02*
X133285714Y-88904761D01*
X133761904Y-87571428D02*
X133285714Y-88904761D01*
X133095238Y-89380952D01*
X133000000Y-89476190D01*
X132809523Y-89571428D01*
X134523809Y-87571428D02*
X134523809Y-89571428D01*
X134523809Y-87666666D02*
X134714285Y-87571428D01*
X135095238Y-87571428D01*
X135285714Y-87666666D01*
X135380952Y-87761904D01*
X135476190Y-87952380D01*
X135476190Y-88523809D01*
X135380952Y-88714285D01*
X135285714Y-88809523D01*
X135095238Y-88904761D01*
X134714285Y-88904761D01*
X134523809Y-88809523D01*
X139000000Y-88714285D02*
X138904761Y-88809523D01*
X138619047Y-88904761D01*
X138428571Y-88904761D01*
X138142857Y-88809523D01*
X137952380Y-88619047D01*
X137857142Y-88428571D01*
X137761904Y-88047619D01*
X137761904Y-87761904D01*
X137857142Y-87380952D01*
X137952380Y-87190476D01*
X138142857Y-87000000D01*
X138428571Y-86904761D01*
X138619047Y-86904761D01*
X138904761Y-87000000D01*
X139000000Y-87095238D01*
X149219047Y-88904761D02*
X148552380Y-87952380D01*
X148076190Y-88904761D02*
X148076190Y-86904761D01*
X148838095Y-86904761D01*
X149028571Y-87000000D01*
X149123809Y-87095238D01*
X149219047Y-87285714D01*
X149219047Y-87571428D01*
X149123809Y-87761904D01*
X149028571Y-87857142D01*
X148838095Y-87952380D01*
X148076190Y-87952380D01*
X149980952Y-88333333D02*
X150933333Y-88333333D01*
X149790476Y-88904761D02*
X150457142Y-86904761D01*
X151123809Y-88904761D01*
X151790476Y-88904761D02*
X151790476Y-86904761D01*
X152457142Y-88333333D01*
X153123809Y-86904761D01*
X153123809Y-88904761D01*
X169980952Y-88157142D02*
X170647619Y-88157142D01*
X170933333Y-89204761D02*
X169980952Y-89204761D01*
X169980952Y-87204761D01*
X170933333Y-87204761D01*
X171790476Y-89204761D02*
X171790476Y-87204761D01*
X172552380Y-87204761D01*
X172742857Y-87300000D01*
X172838095Y-87395238D01*
X172933333Y-87585714D01*
X172933333Y-87871428D01*
X172838095Y-88061904D01*
X172742857Y-88157142D01*
X172552380Y-88252380D01*
X171790476Y-88252380D01*
X174933333Y-89204761D02*
X174266666Y-88252380D01*
X173790476Y-89204761D02*
X173790476Y-87204761D01*
X174552380Y-87204761D01*
X174742857Y-87300000D01*
X174838095Y-87395238D01*
X174933333Y-87585714D01*
X174933333Y-87871428D01*
X174838095Y-88061904D01*
X174742857Y-88157142D01*
X174552380Y-88252380D01*
X173790476Y-88252380D01*
X176171428Y-87204761D02*
X176552380Y-87204761D01*
X176742857Y-87300000D01*
X176933333Y-87490476D01*
X177028571Y-87871428D01*
X177028571Y-88538095D01*
X176933333Y-88919047D01*
X176742857Y-89109523D01*
X176552380Y-89204761D01*
X176171428Y-89204761D01*
X175980952Y-89109523D01*
X175790476Y-88919047D01*
X175695238Y-88538095D01*
X175695238Y-87871428D01*
X175790476Y-87490476D01*
X175980952Y-87300000D01*
X176171428Y-87204761D01*
X177885714Y-89204761D02*
X177885714Y-87204761D01*
X178552380Y-88633333D01*
X179219047Y-87204761D01*
X179219047Y-89204761D01*
X191142857Y-135157142D02*
X191428571Y-135252380D01*
X191523809Y-135347619D01*
X191619047Y-135538095D01*
X191619047Y-135823809D01*
X191523809Y-136014285D01*
X191428571Y-136109523D01*
X191238095Y-136204761D01*
X190476190Y-136204761D01*
X190476190Y-134204761D01*
X191142857Y-134204761D01*
X191333333Y-134300000D01*
X191428571Y-134395238D01*
X191523809Y-134585714D01*
X191523809Y-134776190D01*
X191428571Y-134966666D01*
X191333333Y-135061904D01*
X191142857Y-135157142D01*
X190476190Y-135157142D01*
D11*
%TO.P,C5,2*%
%TO.N,GND*%
X120650000Y-126440000D03*
D12*
%TO.P,C5,1*%
%TO.N,U2*%
X120650000Y-91440000D03*
%TD*%
D13*
%TO.P,C3,2*%
%TO.N,GND*%
X187960000Y-91520000D03*
%TO.P,C3,1*%
%TO.N,+5P*%
X187960000Y-96520000D03*
%TD*%
%TA.AperFunction,SMDPad,CuDef*%
D14*
%TO.P,REF\u002A\u002A,2*%
%TO.N,N/C*%
G36*
X125841650Y-99301903D02*
G01*
X120891903Y-104251650D01*
X120538350Y-103898097D01*
X125488097Y-98948350D01*
X125841650Y-99301903D01*
G37*
%TD.AperFunction*%
%TA.AperFunction,SMDPad,CuDef*%
G36*
X125488097Y-104251650D02*
G01*
X120538350Y-99301903D01*
X120891903Y-98948350D01*
X125841650Y-103898097D01*
X125488097Y-104251650D01*
G37*
%TD.AperFunction*%
D15*
X123190000Y-101600000D03*
D16*
X123190000Y-101600000D03*
D17*
%TO.P,REF\u002A\u002A,1*%
X120650000Y-101600000D03*
X120650000Y-104140000D03*
X123190000Y-104140000D03*
X125730000Y-104140000D03*
X125730000Y-101600000D03*
X125730000Y-99060000D03*
X123190000Y-99060000D03*
X120650000Y-99060000D03*
X123190000Y-101600000D03*
%TD*%
D18*
%TO.P,U3,28*%
%TO.N,U2*%
X157940000Y-91440000D03*
%TO.P,U3,14*%
%TO.N,GND*%
X142700000Y-124460000D03*
%TO.P,U3,27*%
%TO.N,R~W*%
X157940000Y-93980000D03*
%TO.P,U3,13*%
%TO.N,/D2*%
X142700000Y-121920000D03*
%TO.P,U3,26*%
%TO.N,U1*%
X157940000Y-96520000D03*
%TO.P,U3,12*%
%TO.N,/D1*%
X142700000Y-119380000D03*
%TO.P,U3,25*%
%TO.N,/A8*%
X157940000Y-99060000D03*
%TO.P,U3,11*%
%TO.N,/D0*%
X142700000Y-116840000D03*
%TO.P,U3,24*%
%TO.N,/A9*%
X157940000Y-101600000D03*
%TO.P,U3,10*%
%TO.N,/A0*%
X142700000Y-114300000D03*
%TO.P,U3,23*%
%TO.N,/A11*%
X157940000Y-104140000D03*
%TO.P,U3,9*%
%TO.N,/A1*%
X142700000Y-111760000D03*
%TO.P,U3,22*%
%TO.N,/~CSA*%
X157940000Y-106680000D03*
%TO.P,U3,8*%
%TO.N,/A2*%
X142700000Y-109220000D03*
%TO.P,U3,21*%
%TO.N,/A10*%
X157940000Y-109220000D03*
%TO.P,U3,7*%
%TO.N,/A3*%
X142700000Y-106680000D03*
%TO.P,U3,20*%
%TO.N,/~CSA*%
X157940000Y-111760000D03*
%TO.P,U3,6*%
%TO.N,/A4*%
X142700000Y-104140000D03*
%TO.P,U3,19*%
%TO.N,/D7*%
X157940000Y-114300000D03*
%TO.P,U3,5*%
%TO.N,/A5*%
X142700000Y-101600000D03*
%TO.P,U3,18*%
%TO.N,/D6*%
X157940000Y-116840000D03*
%TO.P,U3,4*%
%TO.N,/A6*%
X142700000Y-99060000D03*
%TO.P,U3,17*%
%TO.N,/D5*%
X157940000Y-119380000D03*
%TO.P,U3,3*%
%TO.N,/A7*%
X142700000Y-96520000D03*
%TO.P,U3,16*%
%TO.N,/D4*%
X157940000Y-121920000D03*
%TO.P,U3,2*%
%TO.N,/A12*%
X142700000Y-93980000D03*
%TO.P,U3,15*%
%TO.N,/D3*%
X157940000Y-124460000D03*
D19*
%TO.P,U3,1*%
%TO.N,Net-(U3-Pad1)*%
X142700000Y-91440000D03*
%TD*%
D18*
%TO.P,U2,28*%
%TO.N,+5P*%
X182880000Y-91440000D03*
%TO.P,U2,14*%
%TO.N,GND*%
X167640000Y-124460000D03*
%TO.P,U2,27*%
%TO.N,+5P*%
X182880000Y-93980000D03*
%TO.P,U2,13*%
%TO.N,/D2*%
X167640000Y-121920000D03*
%TO.P,U2,26*%
%TO.N,Net-(U2-Pad26)*%
X182880000Y-96520000D03*
%TO.P,U2,12*%
%TO.N,/D1*%
X167640000Y-119380000D03*
%TO.P,U2,25*%
%TO.N,/A8*%
X182880000Y-99060000D03*
%TO.P,U2,11*%
%TO.N,/D0*%
X167640000Y-116840000D03*
%TO.P,U2,24*%
%TO.N,/A9*%
X182880000Y-101600000D03*
%TO.P,U2,10*%
%TO.N,/A0*%
X167640000Y-114300000D03*
%TO.P,U2,23*%
%TO.N,/A11*%
X182880000Y-104140000D03*
%TO.P,U2,9*%
%TO.N,/A1*%
X167640000Y-111760000D03*
%TO.P,U2,22*%
%TO.N,/~CSB*%
X182880000Y-106680000D03*
%TO.P,U2,8*%
%TO.N,/A2*%
X167640000Y-109220000D03*
%TO.P,U2,21*%
%TO.N,/A10*%
X182880000Y-109220000D03*
%TO.P,U2,7*%
%TO.N,/A3*%
X167640000Y-106680000D03*
%TO.P,U2,20*%
%TO.N,/~CSB*%
X182880000Y-111760000D03*
%TO.P,U2,6*%
%TO.N,/A4*%
X167640000Y-104140000D03*
%TO.P,U2,19*%
%TO.N,/D7*%
X182880000Y-114300000D03*
%TO.P,U2,5*%
%TO.N,/A5*%
X167640000Y-101600000D03*
%TO.P,U2,18*%
%TO.N,/D6*%
X182880000Y-116840000D03*
%TO.P,U2,4*%
%TO.N,/A6*%
X167640000Y-99060000D03*
%TO.P,U2,17*%
%TO.N,/D5*%
X182880000Y-119380000D03*
%TO.P,U2,3*%
%TO.N,/A7*%
X167640000Y-96520000D03*
%TO.P,U2,16*%
%TO.N,/D4*%
X182880000Y-121920000D03*
%TO.P,U2,2*%
%TO.N,/A12*%
X167640000Y-93980000D03*
%TO.P,U2,15*%
%TO.N,/D3*%
X182880000Y-124460000D03*
D19*
%TO.P,U2,1*%
%TO.N,+5P*%
X167640000Y-91440000D03*
%TD*%
D20*
%TO.P,X10,29*%
%TO.N,Net-(X10-Pad29)*%
X117470000Y-135160000D03*
%TO.P,X10,28*%
%TO.N,+5P*%
X120010000Y-135160000D03*
%TO.P,X10,27*%
%TO.N,U2*%
X122550000Y-135160000D03*
%TO.P,X10,26*%
%TO.N,U1*%
X125090000Y-135160000D03*
%TO.P,X10,25*%
%TO.N,GND*%
X127630000Y-135160000D03*
%TO.P,X10,24*%
%TO.N,/A7*%
X130170000Y-135160000D03*
%TO.P,X10,23*%
%TO.N,/A6*%
X132710000Y-135160000D03*
%TO.P,X10,22*%
%TO.N,/A5*%
X135250000Y-135160000D03*
%TO.P,X10,21*%
%TO.N,/A4*%
X137790000Y-135160000D03*
%TO.P,X10,20*%
%TO.N,/A3*%
X140330000Y-135160000D03*
%TO.P,X10,19*%
%TO.N,/A2*%
X142870000Y-135160000D03*
%TO.P,X10,18*%
%TO.N,/A1*%
X145410000Y-135160000D03*
%TO.P,X10,17*%
%TO.N,/A0*%
X147950000Y-135160000D03*
%TO.P,X10,16*%
%TO.N,/D0*%
X150490000Y-135160000D03*
%TO.P,X10,15*%
%TO.N,/D1*%
X153030000Y-135160000D03*
%TO.P,X10,14*%
%TO.N,/D2*%
X155570000Y-135160000D03*
%TO.P,X10,13*%
%TO.N,/D3*%
X158110000Y-135160000D03*
%TO.P,X10,12*%
%TO.N,/D4*%
X160650000Y-135160000D03*
%TO.P,X10,11*%
%TO.N,/D5*%
X163190000Y-135160000D03*
%TO.P,X10,10*%
%TO.N,/D6*%
X165730000Y-135160000D03*
%TO.P,X10,9*%
%TO.N,/D7*%
X168270000Y-135160000D03*
%TO.P,X10,8*%
%TO.N,/A12*%
X170810000Y-135160000D03*
%TO.P,X10,7*%
%TO.N,/A11*%
X173350000Y-135160000D03*
%TO.P,X10,6*%
%TO.N,/A10*%
X175890000Y-135160000D03*
%TO.P,X10,5*%
%TO.N,/A9*%
X178430000Y-135160000D03*
%TO.P,X10,4*%
%TO.N,/A8*%
X180970000Y-135160000D03*
%TO.P,X10,3*%
%TO.N,R~W*%
X183510000Y-135160000D03*
%TO.P,X10,2*%
%TO.N,/~CSB*%
X186050000Y-135160000D03*
D21*
%TO.P,X10,1*%
%TO.N,/~CSA*%
X188590000Y-135160000D03*
%TD*%
D22*
%TO.N,GND*%
X173500000Y-127700000D03*
%TO.N,/A8*%
X188500000Y-99000000D03*
%TO.N,/A9*%
X188600000Y-101600000D03*
%TO.N,/A10*%
X188600000Y-109400000D03*
%TO.N,R~W*%
X155400000Y-130300000D03*
%TO.N,/~CSA*%
X160900000Y-88500000D03*
%TO.N,/A12*%
X163000000Y-93800000D03*
%TO.N,/A11*%
X188600000Y-104300000D03*
%TD*%
D23*
%TO.N,GND*%
X120650000Y-126440000D02*
X127630000Y-135160000D01*
X181600000Y-88900000D02*
X173500000Y-127700000D01*
X186100000Y-88900000D02*
X181600000Y-88900000D01*
X187960000Y-91520000D02*
X186100000Y-88900000D01*
%TO.N,/A8*%
X191800000Y-102300000D02*
X188500000Y-99000000D01*
X191800000Y-108700000D02*
X191800000Y-102300000D01*
X189800000Y-126600000D02*
X191800000Y-108700000D01*
X180970000Y-135160000D02*
X189800000Y-126600000D01*
%TO.N,/D2*%
X142700000Y-121920000D02*
X155570000Y-135160000D01*
%TO.N,/A9*%
X190400000Y-103400000D02*
X188600000Y-101600000D01*
X190400000Y-109200000D02*
X190400000Y-103400000D01*
X188400000Y-126100000D02*
X190400000Y-109200000D01*
X178430000Y-135160000D02*
X188400000Y-126100000D01*
%TO.N,/D1*%
X141100000Y-125500000D02*
X151400000Y-133800000D01*
X141100000Y-121200000D02*
X141100000Y-125500000D01*
X151400000Y-133800000D02*
X153030000Y-135160000D01*
X142700000Y-119380000D02*
X141100000Y-121200000D01*
%TO.N,/D0*%
X149100000Y-133900000D02*
X150490000Y-135160000D01*
X140100000Y-126100000D02*
X149100000Y-133900000D01*
X140100000Y-120000000D02*
X140100000Y-126100000D01*
X142700000Y-116840000D02*
X140100000Y-120000000D01*
%TO.N,/A0*%
X139000000Y-126700000D02*
X147950000Y-135160000D01*
X139000000Y-119100000D02*
X139000000Y-126700000D01*
X142700000Y-114300000D02*
X139000000Y-119100000D01*
%TO.N,/A10*%
X175890000Y-135160000D02*
X187200000Y-125700000D01*
X187200000Y-125700000D02*
X188600000Y-109400000D01*
%TO.N,/A1*%
X138000000Y-127200000D02*
X145410000Y-135160000D01*
X138000000Y-117911764D02*
X138000000Y-127200000D01*
X142700000Y-111760000D02*
X138000000Y-117911764D01*
%TO.N,/A2*%
X136900000Y-128000000D02*
X142870000Y-135160000D01*
X136900000Y-116500000D02*
X136900000Y-128000000D01*
X142700000Y-109220000D02*
X136900000Y-116500000D01*
%TO.N,/D7*%
X157940000Y-114300000D02*
X162500000Y-120100000D01*
X162500000Y-120100000D02*
X168270000Y-135160000D01*
%TO.N,/A3*%
X135900000Y-128800000D02*
X140330000Y-135160000D01*
X135900000Y-114600000D02*
X135900000Y-128800000D01*
X142700000Y-106680000D02*
X135900000Y-114600000D01*
%TO.N,/D6*%
X157940000Y-116840000D02*
X161400000Y-121300000D01*
X161400000Y-121300000D02*
X165730000Y-135160000D01*
%TO.N,/A4*%
X142700000Y-104140000D02*
X134900000Y-113900000D01*
X134900000Y-113900000D02*
X134800000Y-129300000D01*
X134800000Y-129300000D02*
X137790000Y-135160000D01*
%TO.N,/D5*%
X157940000Y-119380000D02*
X160900000Y-123100000D01*
X160900000Y-123100000D02*
X163190000Y-135160000D01*
%TO.N,/A5*%
X133800000Y-129700000D02*
X135250000Y-135160000D01*
X133800000Y-112300000D02*
X133800000Y-129700000D01*
X142700000Y-101600000D02*
X133800000Y-112300000D01*
%TO.N,/D4*%
X157940000Y-121920000D02*
X160000000Y-124500000D01*
X160000000Y-124500000D02*
X160650000Y-135160000D01*
%TO.N,/A6*%
X142700000Y-99060000D02*
X132700000Y-110600000D01*
X132700000Y-110600000D02*
X132710000Y-135160000D01*
%TO.N,/D3*%
X158110000Y-135160000D02*
X157940000Y-124460000D01*
%TO.N,/A7*%
X142700000Y-96520000D02*
X131600000Y-109600000D01*
X131600000Y-109600000D02*
X130170000Y-135160000D01*
%TO.N,R~W*%
X157940000Y-93980000D02*
X156200000Y-96000000D01*
X156200000Y-96000000D02*
X155400000Y-130300000D01*
%TO.N,/~CSA*%
X157940000Y-111760000D02*
X160700000Y-109400000D01*
X160724644Y-106824644D02*
X160900000Y-88500000D01*
X157940000Y-106680000D02*
X160724644Y-106824644D01*
X160700000Y-109400000D02*
X160724644Y-106824644D01*
%TO.N,/A12*%
X170810000Y-135160000D02*
X162900000Y-118400000D01*
X162900000Y-118400000D02*
X163000000Y-93800000D01*
%TO.N,/A11*%
X173350000Y-135160000D02*
X186000000Y-124900000D01*
X186000000Y-124900000D02*
X186400000Y-106700000D01*
X186400000Y-106700000D02*
X188600000Y-104300000D01*
%TO.N,U2*%
X157940000Y-91440000D02*
X120650000Y-91440000D01*
%TD*%
M02*
