%TF.GenerationSoftware,KiCad,Pcbnew,5.1.10*%
%TF.CreationDate,2021-11-30T18:31:46+01:00*%
%TF.ProjectId,Speichermodul_C,53706569-6368-4657-926d-6f64756c5f43,1*%
%TF.SameCoordinates,Original*%
%TF.FileFunction,Plated,1,2,PTH,Drill*%
%TF.FilePolarity,Positive*%
%FSLAX46Y46*%
G04 Gerber Fmt 4.6, Leading zero omitted, Abs format (unit mm)*
G04 Created by KiCad (PCBNEW 5.1.10) date 2021-11-30 18:31:46*
%MOMM*%
%LPD*%
G01*
G04 APERTURE LIST*
%TA.AperFunction,ComponentDrill*%
%ADD10C,0.800000*%
%TD*%
%TA.AperFunction,ViaDrill*%
%ADD11C,0.800000*%
%TD*%
%TA.AperFunction,ComponentDrill*%
%ADD12C,1.000000*%
%TD*%
%TA.AperFunction,ComponentDrill*%
%ADD13C,1.200000*%
%TD*%
G04 APERTURE END LIST*
D10*
%TO.C,U3*%
X142700000Y-91440000D03*
X142700000Y-93980000D03*
X142700000Y-96520000D03*
X142700000Y-99060000D03*
X142700000Y-101600000D03*
X142700000Y-104140000D03*
X142700000Y-106680000D03*
X142700000Y-109220000D03*
X142700000Y-111760000D03*
X142700000Y-114300000D03*
X142700000Y-116840000D03*
X142700000Y-119380000D03*
X142700000Y-121920000D03*
X142700000Y-124460000D03*
%TD*%
D11*
X155400000Y-130300000D03*
D10*
%TO.C,U3*%
X157940000Y-91440000D03*
X157940000Y-93980000D03*
X157940000Y-96520000D03*
X157940000Y-99060000D03*
X157940000Y-101600000D03*
X157940000Y-104140000D03*
X157940000Y-106680000D03*
X157940000Y-109220000D03*
X157940000Y-111760000D03*
X157940000Y-114300000D03*
X157940000Y-116840000D03*
X157940000Y-119380000D03*
X157940000Y-121920000D03*
X157940000Y-124460000D03*
%TD*%
D11*
X160900000Y-88500000D03*
X163000000Y-93800000D03*
D10*
%TO.C,U2*%
X167640000Y-91440000D03*
X167640000Y-93980000D03*
X167640000Y-96520000D03*
X167640000Y-99060000D03*
X167640000Y-101600000D03*
X167640000Y-104140000D03*
X167640000Y-106680000D03*
X167640000Y-109220000D03*
X167640000Y-111760000D03*
X167640000Y-114300000D03*
X167640000Y-116840000D03*
X167640000Y-119380000D03*
X167640000Y-121920000D03*
X167640000Y-124460000D03*
%TD*%
D11*
X173500000Y-127700000D03*
D10*
%TO.C,U2*%
X182880000Y-91440000D03*
X182880000Y-93980000D03*
X182880000Y-96520000D03*
X182880000Y-99060000D03*
X182880000Y-101600000D03*
X182880000Y-104140000D03*
X182880000Y-106680000D03*
X182880000Y-109220000D03*
X182880000Y-111760000D03*
X182880000Y-114300000D03*
X182880000Y-116840000D03*
X182880000Y-119380000D03*
X182880000Y-121920000D03*
X182880000Y-124460000D03*
%TO.C,C3*%
X187960000Y-91520000D03*
X187960000Y-96520000D03*
%TD*%
D11*
X188500000Y-99000000D03*
X188600000Y-101600000D03*
X188600000Y-104300000D03*
X188600000Y-109400000D03*
D12*
%TO.C,X10*%
X117470000Y-135160000D03*
X120010000Y-135160000D03*
X122550000Y-135160000D03*
X125090000Y-135160000D03*
X127630000Y-135160000D03*
X130170000Y-135160000D03*
X132710000Y-135160000D03*
X135250000Y-135160000D03*
X137790000Y-135160000D03*
X140330000Y-135160000D03*
X142870000Y-135160000D03*
X145410000Y-135160000D03*
X147950000Y-135160000D03*
X150490000Y-135160000D03*
X153030000Y-135160000D03*
X155570000Y-135160000D03*
X158110000Y-135160000D03*
X160650000Y-135160000D03*
X163190000Y-135160000D03*
X165730000Y-135160000D03*
X168270000Y-135160000D03*
X170810000Y-135160000D03*
X173350000Y-135160000D03*
X175890000Y-135160000D03*
X178430000Y-135160000D03*
X180970000Y-135160000D03*
X183510000Y-135160000D03*
X186050000Y-135160000D03*
X188590000Y-135160000D03*
D13*
%TO.C,C5*%
X120650000Y-91440000D03*
X120650000Y-126440000D03*
M02*
