%TF.GenerationSoftware,KiCad,Pcbnew,5.1.10*%
%TF.CreationDate,2021-12-04T10:06:50+01:00*%
%TF.ProjectId,Speichermodul_D,53706569-6368-4657-926d-6f64756c5f44,1*%
%TF.SameCoordinates,Original*%
%TF.FileFunction,Copper,L2,Bot*%
%TF.FilePolarity,Positive*%
%FSLAX46Y46*%
G04 Gerber Fmt 4.6, Leading zero omitted, Abs format (unit mm)*
G04 Created by KiCad (PCBNEW 5.1.10) date 2021-12-04 10:06:50*
%MOMM*%
%LPD*%
G01*
G04 APERTURE LIST*
%TA.AperFunction,NonConductor*%
%ADD10C,0.300000*%
%TD*%
%TA.AperFunction,ComponentPad*%
%ADD11O,1.600000X1.600000*%
%TD*%
%TA.AperFunction,ComponentPad*%
%ADD12R,1.600000X1.600000*%
%TD*%
%TA.AperFunction,SMDPad,CuDef*%
%ADD13C,0.100000*%
%TD*%
%TA.AperFunction,SMDPad,CuDef*%
%ADD14R,5.080000X0.500000*%
%TD*%
%TA.AperFunction,SMDPad,CuDef*%
%ADD15R,0.500000X5.080000*%
%TD*%
%TA.AperFunction,SMDPad,CuDef*%
%ADD16C,2.000000*%
%TD*%
%TA.AperFunction,ComponentPad*%
%ADD17C,1.600000*%
%TD*%
%TA.AperFunction,ComponentPad*%
%ADD18O,1.700000X1.700000*%
%TD*%
%TA.AperFunction,ComponentPad*%
%ADD19R,1.700000X1.700000*%
%TD*%
%TA.AperFunction,ViaPad*%
%ADD20C,2.000000*%
%TD*%
%TA.AperFunction,Conductor*%
%ADD21C,0.500000*%
%TD*%
%TA.AperFunction,Conductor*%
%ADD22C,0.254000*%
%TD*%
%TA.AperFunction,Conductor*%
%ADD23C,0.100000*%
%TD*%
G04 APERTURE END LIST*
D10*
X187035714Y-106904761D02*
X187035714Y-108523809D01*
X186964285Y-108714285D01*
X186892857Y-108809523D01*
X186750000Y-108904761D01*
X186464285Y-108904761D01*
X186321428Y-108809523D01*
X186250000Y-108714285D01*
X186178571Y-108523809D01*
X186178571Y-106904761D01*
X185535714Y-107095238D02*
X185464285Y-107000000D01*
X185321428Y-106904761D01*
X184964285Y-106904761D01*
X184821428Y-107000000D01*
X184750000Y-107095238D01*
X184678571Y-107285714D01*
X184678571Y-107476190D01*
X184750000Y-107761904D01*
X185607142Y-108904761D01*
X184678571Y-108904761D01*
X184178571Y-106904761D02*
X183178571Y-106904761D01*
X183821428Y-108904761D01*
X181821428Y-108904761D02*
X182678571Y-108904761D01*
X182250000Y-108904761D02*
X182250000Y-106904761D01*
X182392857Y-107190476D01*
X182535714Y-107380952D01*
X182678571Y-107476190D01*
X180535714Y-106904761D02*
X180821428Y-106904761D01*
X180964285Y-107000000D01*
X181035714Y-107095238D01*
X181178571Y-107380952D01*
X181250000Y-107761904D01*
X181250000Y-108523809D01*
X181178571Y-108714285D01*
X181107142Y-108809523D01*
X180964285Y-108904761D01*
X180678571Y-108904761D01*
X180535714Y-108809523D01*
X180464285Y-108714285D01*
X180392857Y-108523809D01*
X180392857Y-108047619D01*
X180464285Y-107857142D01*
X180535714Y-107761904D01*
X180678571Y-107666666D01*
X180964285Y-107666666D01*
X181107142Y-107761904D01*
X181178571Y-107857142D01*
X181250000Y-108047619D01*
X178892857Y-108714285D02*
X178964285Y-108809523D01*
X179178571Y-108904761D01*
X179321428Y-108904761D01*
X179535714Y-108809523D01*
X179678571Y-108619047D01*
X179750000Y-108428571D01*
X179821428Y-108047619D01*
X179821428Y-107761904D01*
X179750000Y-107380952D01*
X179678571Y-107190476D01*
X179535714Y-107000000D01*
X179321428Y-106904761D01*
X179178571Y-106904761D01*
X178964285Y-107000000D01*
X178892857Y-107095238D01*
D11*
%TO.P,U3,24*%
%TO.N,+5P*%
X130175000Y-114300000D03*
%TO.P,U3,12*%
%TO.N,GND*%
X158115000Y-129540000D03*
%TO.P,U3,23*%
%TO.N,/A8*%
X132715000Y-114300000D03*
%TO.P,U3,11*%
%TO.N,/D2*%
X155575000Y-129540000D03*
%TO.P,U3,22*%
%TO.N,/A9*%
X135255000Y-114300000D03*
%TO.P,U3,10*%
%TO.N,/D1*%
X153035000Y-129540000D03*
%TO.P,U3,21*%
%TO.N,+5P*%
X137795000Y-114300000D03*
%TO.P,U3,9*%
%TO.N,/D0*%
X150495000Y-129540000D03*
%TO.P,U3,20*%
%TO.N,/~CSB*%
X140335000Y-114300000D03*
%TO.P,U3,8*%
%TO.N,/A0*%
X147955000Y-129540000D03*
%TO.P,U3,19*%
%TO.N,/A10*%
X142875000Y-114300000D03*
%TO.P,U3,7*%
%TO.N,/A1*%
X145415000Y-129540000D03*
%TO.P,U3,18*%
%TO.N,/~CSB*%
X145415000Y-114300000D03*
%TO.P,U3,6*%
%TO.N,/A2*%
X142875000Y-129540000D03*
%TO.P,U3,17*%
%TO.N,/D7*%
X147955000Y-114300000D03*
%TO.P,U3,5*%
%TO.N,/A3*%
X140335000Y-129540000D03*
%TO.P,U3,16*%
%TO.N,/D6*%
X150495000Y-114300000D03*
%TO.P,U3,4*%
%TO.N,/A4*%
X137795000Y-129540000D03*
%TO.P,U3,15*%
%TO.N,/D5*%
X153035000Y-114300000D03*
%TO.P,U3,3*%
%TO.N,/A5*%
X135255000Y-129540000D03*
%TO.P,U3,14*%
%TO.N,/D4*%
X155575000Y-114300000D03*
%TO.P,U3,2*%
%TO.N,/A6*%
X132715000Y-129540000D03*
%TO.P,U3,13*%
%TO.N,/D3*%
X158115000Y-114300000D03*
D12*
%TO.P,U3,1*%
%TO.N,/A7*%
X130175000Y-129540000D03*
%TD*%
%TA.AperFunction,SMDPad,CuDef*%
D13*
%TO.P,REF\u002A\u002A,2*%
%TO.N,N/C*%
G36*
X120301903Y-106548350D02*
G01*
X125251650Y-111498097D01*
X124898097Y-111851650D01*
X119948350Y-106901903D01*
X120301903Y-106548350D01*
G37*
%TD.AperFunction*%
%TA.AperFunction,SMDPad,CuDef*%
G36*
X119948350Y-111498097D02*
G01*
X124898097Y-106548350D01*
X125251650Y-106901903D01*
X120301903Y-111851650D01*
X119948350Y-111498097D01*
G37*
%TD.AperFunction*%
D14*
X122600000Y-109200000D03*
D15*
X122600000Y-109200000D03*
D16*
%TO.P,REF\u002A\u002A,1*%
X120060000Y-109200000D03*
X120060000Y-106660000D03*
X122600000Y-106660000D03*
X125140000Y-106660000D03*
X125140000Y-109200000D03*
X125140000Y-111740000D03*
X122600000Y-111740000D03*
X120060000Y-111740000D03*
X122600000Y-109200000D03*
%TD*%
D17*
%TO.P,C3,2*%
%TO.N,GND*%
X125095000Y-124380000D03*
%TO.P,C3,1*%
%TO.N,+5P*%
X125095000Y-119380000D03*
%TD*%
D18*
%TO.P,X10,29*%
%TO.N,Net-(X10-Pad29)*%
X117470000Y-135160000D03*
%TO.P,X10,28*%
%TO.N,+5P*%
X120010000Y-135160000D03*
%TO.P,X10,27*%
%TO.N,Net-(X10-Pad27)*%
X122550000Y-135160000D03*
%TO.P,X10,26*%
%TO.N,Net-(X10-Pad26)*%
X125090000Y-135160000D03*
%TO.P,X10,25*%
%TO.N,GND*%
X127630000Y-135160000D03*
%TO.P,X10,24*%
%TO.N,/A7*%
X130170000Y-135160000D03*
%TO.P,X10,23*%
%TO.N,/A6*%
X132710000Y-135160000D03*
%TO.P,X10,22*%
%TO.N,/A5*%
X135250000Y-135160000D03*
%TO.P,X10,21*%
%TO.N,/A4*%
X137790000Y-135160000D03*
%TO.P,X10,20*%
%TO.N,/A3*%
X140330000Y-135160000D03*
%TO.P,X10,19*%
%TO.N,/A2*%
X142870000Y-135160000D03*
%TO.P,X10,18*%
%TO.N,/A1*%
X145410000Y-135160000D03*
%TO.P,X10,17*%
%TO.N,/A0*%
X147950000Y-135160000D03*
%TO.P,X10,16*%
%TO.N,/D0*%
X150490000Y-135160000D03*
%TO.P,X10,15*%
%TO.N,/D1*%
X153030000Y-135160000D03*
%TO.P,X10,14*%
%TO.N,/D2*%
X155570000Y-135160000D03*
%TO.P,X10,13*%
%TO.N,/D3*%
X158110000Y-135160000D03*
%TO.P,X10,12*%
%TO.N,/D4*%
X160650000Y-135160000D03*
%TO.P,X10,11*%
%TO.N,/D5*%
X163190000Y-135160000D03*
%TO.P,X10,10*%
%TO.N,/D6*%
X165730000Y-135160000D03*
%TO.P,X10,9*%
%TO.N,/D7*%
X168270000Y-135160000D03*
%TO.P,X10,8*%
%TO.N,Net-(X10-Pad8)*%
X170810000Y-135160000D03*
%TO.P,X10,7*%
%TO.N,Net-(X10-Pad7)*%
X173350000Y-135160000D03*
%TO.P,X10,6*%
%TO.N,/A10*%
X175890000Y-135160000D03*
%TO.P,X10,5*%
%TO.N,/A9*%
X178430000Y-135160000D03*
%TO.P,X10,4*%
%TO.N,/A8*%
X180970000Y-135160000D03*
%TO.P,X10,3*%
%TO.N,Net-(X10-Pad3)*%
X183510000Y-135160000D03*
%TO.P,X10,2*%
%TO.N,/~CSB*%
X186050000Y-135160000D03*
D19*
%TO.P,X10,1*%
%TO.N,Net-(X10-Pad1)*%
X188590000Y-135160000D03*
%TD*%
D20*
%TO.N,/~CSB*%
X142875000Y-109220000D03*
X175895000Y-109220000D03*
%TD*%
D21*
%TO.N,GND*%
X158115000Y-129540000D02*
X154305000Y-125730000D01*
X126445000Y-125730000D02*
X125095000Y-124380000D01*
X154305000Y-125730000D02*
X126445000Y-125730000D01*
X127630000Y-135160000D02*
X127630000Y-125735000D01*
%TO.N,+5P*%
X137795000Y-114300000D02*
X135255000Y-116840000D01*
X127635000Y-116840000D02*
X125095000Y-119380000D01*
X130175000Y-114300000D02*
X130175000Y-116840000D01*
X130175000Y-116840000D02*
X127635000Y-116840000D01*
X135255000Y-116840000D02*
X130175000Y-116840000D01*
X120010000Y-124465000D02*
X120010000Y-135160000D01*
X125095000Y-119380000D02*
X120010000Y-124465000D01*
%TO.N,/A8*%
X132715000Y-114300000D02*
X142970020Y-104044980D01*
X142970020Y-104044980D02*
X165639980Y-104044980D01*
X180970000Y-119375000D02*
X180970000Y-135160000D01*
X165639980Y-104044980D02*
X180970000Y-119375000D01*
%TO.N,/D2*%
X155575000Y-135155000D02*
X155570000Y-135160000D01*
X155575000Y-129540000D02*
X155575000Y-135155000D01*
%TO.N,/A9*%
X178430000Y-135160000D02*
X178430000Y-119375000D01*
X164099990Y-105044990D02*
X143875010Y-105044990D01*
X178430000Y-119375000D02*
X164099990Y-105044990D01*
X135255000Y-113665000D02*
X135255000Y-114300000D01*
X143875010Y-105044990D02*
X135255000Y-113665000D01*
%TO.N,/D1*%
X153030000Y-129545000D02*
X153035000Y-129540000D01*
X153030000Y-135160000D02*
X153030000Y-129545000D01*
%TO.N,/D0*%
X150495000Y-135155000D02*
X150490000Y-135160000D01*
X150495000Y-129540000D02*
X150495000Y-135155000D01*
%TO.N,/A0*%
X147950000Y-129545000D02*
X147955000Y-129540000D01*
X147950000Y-135160000D02*
X147950000Y-129545000D01*
%TO.N,/A10*%
X142875000Y-114300000D02*
X151130000Y-106045000D01*
X151130000Y-106045000D02*
X162560000Y-106045000D01*
X175890000Y-119375000D02*
X175890000Y-135160000D01*
X162560000Y-106045000D02*
X175890000Y-119375000D01*
%TO.N,/A1*%
X145410000Y-129545000D02*
X145415000Y-129540000D01*
X145410000Y-135160000D02*
X145410000Y-129545000D01*
%TO.N,/A2*%
X142870000Y-129545000D02*
X142875000Y-129540000D01*
X142870000Y-135160000D02*
X142870000Y-129545000D01*
%TO.N,/D7*%
X154305000Y-107950000D02*
X147955000Y-114300000D01*
X161925000Y-107950000D02*
X154305000Y-107950000D01*
X168270000Y-114295000D02*
X161925000Y-107950000D01*
X168270000Y-135160000D02*
X168270000Y-114295000D01*
%TO.N,/A3*%
X140330000Y-129545000D02*
X140335000Y-129540000D01*
X140330000Y-135160000D02*
X140330000Y-129545000D01*
%TO.N,/D6*%
X150495000Y-114300000D02*
X155575000Y-109220000D01*
X155575000Y-109220000D02*
X160655000Y-109220000D01*
X165730000Y-114295000D02*
X165730000Y-135160000D01*
X160655000Y-109220000D02*
X165730000Y-114295000D01*
%TO.N,/A4*%
X137790000Y-129545000D02*
X137795000Y-129540000D01*
X137790000Y-135160000D02*
X137790000Y-129545000D01*
%TO.N,/D5*%
X156845000Y-110490000D02*
X153035000Y-114300000D01*
X159385000Y-110490000D02*
X156845000Y-110490000D01*
X163190000Y-114295000D02*
X159385000Y-110490000D01*
X163190000Y-135160000D02*
X163190000Y-114295000D01*
%TO.N,/A5*%
X135255000Y-135155000D02*
X135250000Y-135160000D01*
X135255000Y-129540000D02*
X135255000Y-135155000D01*
%TO.N,/D4*%
X155575000Y-114300000D02*
X158115000Y-111760000D01*
X161655010Y-115300010D02*
X161655010Y-131714990D01*
X158115000Y-111760000D02*
X161655010Y-115300010D01*
X160650000Y-132720000D02*
X160650000Y-135160000D01*
X161655010Y-131714990D02*
X160650000Y-132720000D01*
%TO.N,/A6*%
X132710000Y-129545000D02*
X132715000Y-129540000D01*
X132710000Y-135160000D02*
X132710000Y-129545000D01*
%TO.N,/D3*%
X158110000Y-135160000D02*
X158110000Y-132720000D01*
X158110000Y-132720000D02*
X160655000Y-130175000D01*
X160655000Y-116840000D02*
X158115000Y-114300000D01*
X160655000Y-130175000D02*
X160655000Y-116840000D01*
%TO.N,/A7*%
X130175000Y-135155000D02*
X130170000Y-135160000D01*
X130175000Y-129540000D02*
X130175000Y-135155000D01*
%TO.N,/~CSB*%
X141885001Y-115850001D02*
X140335000Y-114300000D01*
X143864999Y-115850001D02*
X141885001Y-115850001D01*
X145415000Y-114300000D02*
X143864999Y-115850001D01*
X140335000Y-111760000D02*
X140335000Y-114300000D01*
X142875000Y-109220000D02*
X140335000Y-111760000D01*
X186050000Y-119375000D02*
X186050000Y-135160000D01*
X175895000Y-109220000D02*
X186050000Y-119375000D01*
%TD*%
D22*
%TO.N,GND*%
X154973691Y-126239864D02*
X131699274Y-126373002D01*
X131674511Y-126375584D01*
X131650729Y-126382947D01*
X131628840Y-126394809D01*
X131614794Y-126405825D01*
X129740154Y-128101928D01*
X129375000Y-128101928D01*
X129250518Y-128114188D01*
X129130820Y-128150498D01*
X129020506Y-128209463D01*
X128923815Y-128288815D01*
X128844463Y-128385506D01*
X128785498Y-128495820D01*
X128749188Y-128615518D01*
X128736928Y-128740000D01*
X128736928Y-129009608D01*
X127530032Y-130101562D01*
X124987745Y-125811454D01*
X125165512Y-125820217D01*
X125445130Y-125778787D01*
X125711292Y-125683603D01*
X125836514Y-125616671D01*
X125908097Y-125372702D01*
X125095000Y-124559605D01*
X125080858Y-124573748D01*
X125016321Y-124509211D01*
X125251327Y-124328437D01*
X125288748Y-124365858D01*
X125274605Y-124380000D01*
X126087702Y-125193097D01*
X126331671Y-125121514D01*
X126452571Y-124866004D01*
X126521300Y-124591816D01*
X126534417Y-124325717D01*
X152651291Y-124127373D01*
X154973691Y-126239864D01*
%TA.AperFunction,Conductor*%
D23*
G36*
X154973691Y-126239864D02*
G01*
X131699274Y-126373002D01*
X131674511Y-126375584D01*
X131650729Y-126382947D01*
X131628840Y-126394809D01*
X131614794Y-126405825D01*
X129740154Y-128101928D01*
X129375000Y-128101928D01*
X129250518Y-128114188D01*
X129130820Y-128150498D01*
X129020506Y-128209463D01*
X128923815Y-128288815D01*
X128844463Y-128385506D01*
X128785498Y-128495820D01*
X128749188Y-128615518D01*
X128736928Y-128740000D01*
X128736928Y-129009608D01*
X127530032Y-130101562D01*
X124987745Y-125811454D01*
X125165512Y-125820217D01*
X125445130Y-125778787D01*
X125711292Y-125683603D01*
X125836514Y-125616671D01*
X125908097Y-125372702D01*
X125095000Y-124559605D01*
X125080858Y-124573748D01*
X125016321Y-124509211D01*
X125251327Y-124328437D01*
X125288748Y-124365858D01*
X125274605Y-124380000D01*
X126087702Y-125193097D01*
X126331671Y-125121514D01*
X126452571Y-124866004D01*
X126521300Y-124591816D01*
X126534417Y-124325717D01*
X152651291Y-124127373D01*
X154973691Y-126239864D01*
G37*
%TD.AperFunction*%
%TD*%
M02*
