%TF.GenerationSoftware,KiCad,Pcbnew,5.1.10*%
%TF.CreationDate,2021-12-04T10:06:52+01:00*%
%TF.ProjectId,Speichermodul_D,53706569-6368-4657-926d-6f64756c5f44,1*%
%TF.SameCoordinates,Original*%
%TF.FileFunction,Plated,1,2,PTH,Drill*%
%TF.FilePolarity,Positive*%
%FSLAX46Y46*%
G04 Gerber Fmt 4.6, Leading zero omitted, Abs format (unit mm)*
G04 Created by KiCad (PCBNEW 5.1.10) date 2021-12-04 10:06:52*
%MOMM*%
%LPD*%
G01*
G04 APERTURE LIST*
%TA.AperFunction,ComponentDrill*%
%ADD10C,0.800000*%
%TD*%
%TA.AperFunction,ViaDrill*%
%ADD11C,0.800000*%
%TD*%
%TA.AperFunction,ComponentDrill*%
%ADD12C,1.000000*%
%TD*%
G04 APERTURE END LIST*
D10*
%TO.C,C3*%
X125095000Y-119380000D03*
X125095000Y-124380000D03*
%TO.C,U3*%
X130175000Y-114300000D03*
X130175000Y-129540000D03*
X132715000Y-114300000D03*
X132715000Y-129540000D03*
X135255000Y-114300000D03*
X135255000Y-129540000D03*
X137795000Y-114300000D03*
X137795000Y-129540000D03*
X140335000Y-114300000D03*
X140335000Y-129540000D03*
%TD*%
D11*
X142875000Y-109220000D03*
D10*
%TO.C,U3*%
X142875000Y-114300000D03*
X142875000Y-129540000D03*
X145415000Y-114300000D03*
X145415000Y-129540000D03*
X147955000Y-114300000D03*
X147955000Y-129540000D03*
X150495000Y-114300000D03*
X150495000Y-129540000D03*
X153035000Y-114300000D03*
X153035000Y-129540000D03*
X155575000Y-114300000D03*
X155575000Y-129540000D03*
X158115000Y-114300000D03*
X158115000Y-129540000D03*
%TD*%
D11*
X175895000Y-109220000D03*
D12*
%TO.C,X10*%
X117470000Y-135160000D03*
X120010000Y-135160000D03*
X122550000Y-135160000D03*
X125090000Y-135160000D03*
X127630000Y-135160000D03*
X130170000Y-135160000D03*
X132710000Y-135160000D03*
X135250000Y-135160000D03*
X137790000Y-135160000D03*
X140330000Y-135160000D03*
X142870000Y-135160000D03*
X145410000Y-135160000D03*
X147950000Y-135160000D03*
X150490000Y-135160000D03*
X153030000Y-135160000D03*
X155570000Y-135160000D03*
X158110000Y-135160000D03*
X160650000Y-135160000D03*
X163190000Y-135160000D03*
X165730000Y-135160000D03*
X168270000Y-135160000D03*
X170810000Y-135160000D03*
X173350000Y-135160000D03*
X175890000Y-135160000D03*
X178430000Y-135160000D03*
X180970000Y-135160000D03*
X183510000Y-135160000D03*
X186050000Y-135160000D03*
X188590000Y-135160000D03*
M02*
