%TF.GenerationSoftware,KiCad,Pcbnew,5.1.10*%
%TF.CreationDate,2021-12-04T10:07:26+01:00*%
%TF.ProjectId,Speichermodul_VRAM,53706569-6368-4657-926d-6f64756c5f56,1*%
%TF.SameCoordinates,Original*%
%TF.FileFunction,Copper,L2,Bot*%
%TF.FilePolarity,Positive*%
%FSLAX46Y46*%
G04 Gerber Fmt 4.6, Leading zero omitted, Abs format (unit mm)*
G04 Created by KiCad (PCBNEW 5.1.10) date 2021-12-04 10:07:26*
%MOMM*%
%LPD*%
G01*
G04 APERTURE LIST*
%TA.AperFunction,NonConductor*%
%ADD10C,0.300000*%
%TD*%
%TA.AperFunction,ComponentPad*%
%ADD11O,1.600000X1.600000*%
%TD*%
%TA.AperFunction,ComponentPad*%
%ADD12R,1.600000X1.600000*%
%TD*%
%TA.AperFunction,ComponentPad*%
%ADD13C,1.600000*%
%TD*%
%TA.AperFunction,SMDPad,CuDef*%
%ADD14C,0.100000*%
%TD*%
%TA.AperFunction,SMDPad,CuDef*%
%ADD15R,5.080000X0.500000*%
%TD*%
%TA.AperFunction,SMDPad,CuDef*%
%ADD16R,0.500000X5.080000*%
%TD*%
%TA.AperFunction,SMDPad,CuDef*%
%ADD17C,2.000000*%
%TD*%
%TA.AperFunction,ComponentPad*%
%ADD18O,1.700000X1.700000*%
%TD*%
%TA.AperFunction,ComponentPad*%
%ADD19R,1.700000X1.700000*%
%TD*%
%TA.AperFunction,ViaPad*%
%ADD20C,1.100000*%
%TD*%
%TA.AperFunction,Conductor*%
%ADD21C,0.250000*%
%TD*%
%TA.AperFunction,Conductor*%
%ADD22C,0.500000*%
%TD*%
%TA.AperFunction,Conductor*%
%ADD23C,0.254000*%
%TD*%
%TA.AperFunction,Conductor*%
%ADD24C,0.100000*%
%TD*%
G04 APERTURE END LIST*
D10*
X190515952Y-136159761D02*
X191468333Y-136159761D01*
X191468333Y-134159761D01*
D11*
%TO.P,U3,28*%
%TO.N,U2*%
X125095000Y-116205000D03*
%TO.P,U3,14*%
%TO.N,GND*%
X158115000Y-131445000D03*
%TO.P,U3,27*%
%TO.N,R~W*%
X127635000Y-116205000D03*
%TO.P,U3,13*%
%TO.N,/D2*%
X155575000Y-131445000D03*
%TO.P,U3,26*%
%TO.N,U1*%
X130175000Y-116205000D03*
%TO.P,U3,12*%
%TO.N,/D1*%
X153035000Y-131445000D03*
%TO.P,U3,25*%
%TO.N,/A8*%
X132715000Y-116205000D03*
%TO.P,U3,11*%
%TO.N,/D0*%
X150495000Y-131445000D03*
%TO.P,U3,24*%
%TO.N,/A9*%
X135255000Y-116205000D03*
%TO.P,U3,10*%
%TO.N,/A0*%
X147955000Y-131445000D03*
%TO.P,U3,23*%
%TO.N,/A11*%
X137795000Y-116205000D03*
%TO.P,U3,9*%
%TO.N,/A1*%
X145415000Y-131445000D03*
%TO.P,U3,22*%
%TO.N,/~CSA*%
X140335000Y-116205000D03*
%TO.P,U3,8*%
%TO.N,/A2*%
X142875000Y-131445000D03*
%TO.P,U3,21*%
%TO.N,/A10*%
X142875000Y-116205000D03*
%TO.P,U3,7*%
%TO.N,/A3*%
X140335000Y-131445000D03*
%TO.P,U3,20*%
%TO.N,/~CSA*%
X145415000Y-116205000D03*
%TO.P,U3,6*%
%TO.N,/A4*%
X137795000Y-131445000D03*
%TO.P,U3,19*%
%TO.N,/D7*%
X147955000Y-116205000D03*
%TO.P,U3,5*%
%TO.N,/A5*%
X135255000Y-131445000D03*
%TO.P,U3,18*%
%TO.N,/D6*%
X150495000Y-116205000D03*
%TO.P,U3,4*%
%TO.N,/A6*%
X132715000Y-131445000D03*
%TO.P,U3,17*%
%TO.N,/D5*%
X153035000Y-116205000D03*
%TO.P,U3,3*%
%TO.N,/A7*%
X130175000Y-131445000D03*
%TO.P,U3,16*%
%TO.N,/D4*%
X155575000Y-116205000D03*
%TO.P,U3,2*%
%TO.N,/A12*%
X127635000Y-131445000D03*
%TO.P,U3,15*%
%TO.N,/D3*%
X158115000Y-116205000D03*
D12*
%TO.P,U3,1*%
%TO.N,Net-(U3-Pad1)*%
X125095000Y-131445000D03*
%TD*%
D13*
%TO.P,C5,2*%
%TO.N,GND*%
X116840000Y-129500000D03*
D12*
%TO.P,C5,1*%
%TO.N,U2*%
X116840000Y-127000000D03*
%TD*%
%TA.AperFunction,SMDPad,CuDef*%
D14*
%TO.P,REF\u002A\u002A,2*%
%TO.N,N/C*%
G36*
X180581903Y-119268350D02*
G01*
X185531650Y-124218097D01*
X185178097Y-124571650D01*
X180228350Y-119621903D01*
X180581903Y-119268350D01*
G37*
%TD.AperFunction*%
%TA.AperFunction,SMDPad,CuDef*%
G36*
X180228350Y-124218097D02*
G01*
X185178097Y-119268350D01*
X185531650Y-119621903D01*
X180581903Y-124571650D01*
X180228350Y-124218097D01*
G37*
%TD.AperFunction*%
D15*
X182880000Y-121920000D03*
D16*
X182880000Y-121920000D03*
D17*
%TO.P,REF\u002A\u002A,1*%
X180340000Y-121920000D03*
X180340000Y-119380000D03*
X182880000Y-119380000D03*
X185420000Y-119380000D03*
X185420000Y-121920000D03*
X185420000Y-124460000D03*
X182880000Y-124460000D03*
X180340000Y-124460000D03*
X182880000Y-121920000D03*
%TD*%
D13*
%TO.P,C3,2*%
%TO.N,GND*%
X121285000Y-123745000D03*
%TO.P,C3,1*%
%TO.N,U2*%
X121285000Y-118745000D03*
%TD*%
D18*
%TO.P,X10,29*%
%TO.N,Net-(X10-Pad29)*%
X117470000Y-135160000D03*
%TO.P,X10,28*%
%TO.N,+5P*%
X120010000Y-135160000D03*
%TO.P,X10,27*%
%TO.N,U2*%
X122550000Y-135160000D03*
%TO.P,X10,26*%
%TO.N,U1*%
X125090000Y-135160000D03*
%TO.P,X10,25*%
%TO.N,GND*%
X127630000Y-135160000D03*
%TO.P,X10,24*%
%TO.N,/A7*%
X130170000Y-135160000D03*
%TO.P,X10,23*%
%TO.N,/A6*%
X132710000Y-135160000D03*
%TO.P,X10,22*%
%TO.N,/A5*%
X135250000Y-135160000D03*
%TO.P,X10,21*%
%TO.N,/A4*%
X137790000Y-135160000D03*
%TO.P,X10,20*%
%TO.N,/A3*%
X140330000Y-135160000D03*
%TO.P,X10,19*%
%TO.N,/A2*%
X142870000Y-135160000D03*
%TO.P,X10,18*%
%TO.N,/A1*%
X145410000Y-135160000D03*
%TO.P,X10,17*%
%TO.N,/A0*%
X147950000Y-135160000D03*
%TO.P,X10,16*%
%TO.N,/D0*%
X150490000Y-135160000D03*
%TO.P,X10,15*%
%TO.N,/D1*%
X153030000Y-135160000D03*
%TO.P,X10,14*%
%TO.N,/D2*%
X155570000Y-135160000D03*
%TO.P,X10,13*%
%TO.N,/D3*%
X158110000Y-135160000D03*
%TO.P,X10,12*%
%TO.N,/D4*%
X160650000Y-135160000D03*
%TO.P,X10,11*%
%TO.N,/D5*%
X163190000Y-135160000D03*
%TO.P,X10,10*%
%TO.N,/D6*%
X165730000Y-135160000D03*
%TO.P,X10,9*%
%TO.N,/D7*%
X168270000Y-135160000D03*
%TO.P,X10,8*%
%TO.N,/A12*%
X170810000Y-135160000D03*
%TO.P,X10,7*%
%TO.N,/A11*%
X173350000Y-135160000D03*
%TO.P,X10,6*%
%TO.N,/A10*%
X175890000Y-135160000D03*
%TO.P,X10,5*%
%TO.N,/A9*%
X178430000Y-135160000D03*
%TO.P,X10,4*%
%TO.N,/A8*%
X180970000Y-135160000D03*
%TO.P,X10,3*%
%TO.N,R~W*%
X183510000Y-135160000D03*
%TO.P,X10,2*%
%TO.N,Net-(X10-Pad2)*%
X186050000Y-135160000D03*
D19*
%TO.P,X10,1*%
%TO.N,/~CSA*%
X188590000Y-135160000D03*
%TD*%
D20*
%TO.N,*%
X182880000Y-121920000D03*
%TO.N,GND*%
X172720000Y-123825000D03*
%TO.N,/A8*%
X168275000Y-122555000D03*
%TO.N,/A9*%
X167005000Y-121285000D03*
%TO.N,/A10*%
X165735000Y-120015000D03*
%TO.N,/D7*%
X163195000Y-117475000D03*
%TO.N,R~W*%
X169545000Y-123825000D03*
%TO.N,/~CSA*%
X164465000Y-118745000D03*
%TO.N,/A11*%
X161925000Y-116205000D03*
%TD*%
D21*
%TO.N,GND*%
X126365000Y-118110000D02*
X126365000Y-114300000D01*
X120015000Y-130810000D02*
X118150000Y-130810000D01*
X123825000Y-134620000D02*
X120015000Y-130810000D01*
X123825000Y-135890000D02*
X123825000Y-134620000D01*
X124460000Y-136525000D02*
X123825000Y-135890000D01*
X118150000Y-130810000D02*
X116840000Y-129500000D01*
X126365000Y-136525000D02*
X124460000Y-136525000D01*
X127630000Y-135160000D02*
X126365000Y-136525000D01*
%TO.N,/A8*%
X179160000Y-133350000D02*
X180970000Y-135160000D01*
X177800000Y-133350000D02*
X179160000Y-133350000D01*
X168275000Y-123825000D02*
X177800000Y-133350000D01*
X168275000Y-122555000D02*
X168275000Y-123825000D01*
%TO.N,/D2*%
X155570000Y-131450000D02*
X155575000Y-131445000D01*
X155570000Y-135160000D02*
X155570000Y-131450000D01*
%TO.N,/A9*%
X178314998Y-135160000D02*
X178430000Y-135160000D01*
X167005000Y-123825000D02*
X178314998Y-135160000D01*
X167005000Y-121285000D02*
X167005000Y-123825000D01*
%TO.N,/D1*%
X153030000Y-131450000D02*
X153035000Y-131445000D01*
X153030000Y-135160000D02*
X153030000Y-131450000D01*
%TO.N,/D0*%
X150490000Y-131450000D02*
X150495000Y-131445000D01*
X150490000Y-135160000D02*
X150490000Y-131450000D01*
%TO.N,/A0*%
X147950000Y-131450000D02*
X147955000Y-131445000D01*
X147950000Y-135160000D02*
X147950000Y-131450000D01*
%TO.N,/A10*%
X165735000Y-120015000D02*
X165735000Y-125005000D01*
X165735000Y-125005000D02*
X166415000Y-125685000D01*
X175890000Y-135160000D02*
X166415000Y-125685000D01*
%TO.N,/A1*%
X145410000Y-131450000D02*
X145415000Y-131445000D01*
X145410000Y-135160000D02*
X145410000Y-131450000D01*
%TO.N,/A2*%
X142870000Y-131450000D02*
X142875000Y-131445000D01*
X142870000Y-135160000D02*
X142870000Y-131450000D01*
%TO.N,/D7*%
X162560000Y-129450000D02*
X168270000Y-135160000D01*
X162560000Y-118110000D02*
X162560000Y-129450000D01*
X163195000Y-117475000D02*
X162560000Y-118110000D01*
%TO.N,/A3*%
X140330000Y-131450000D02*
X140335000Y-131445000D01*
X140330000Y-135160000D02*
X140330000Y-131450000D01*
%TO.N,/D6*%
X161925000Y-131355000D02*
X165730000Y-135160000D01*
X161925000Y-117574002D02*
X161925000Y-131355000D01*
X160655000Y-116304002D02*
X161925000Y-117574002D01*
X160655000Y-114935000D02*
X160655000Y-116304002D01*
X153035000Y-113665000D02*
X159385000Y-113665000D01*
X159385000Y-113665000D02*
X160655000Y-114935000D01*
X150495000Y-116205000D02*
X153035000Y-113665000D01*
%TO.N,/A4*%
X137790000Y-131450000D02*
X137795000Y-131445000D01*
X137790000Y-135160000D02*
X137790000Y-131450000D01*
%TO.N,/D5*%
X161290000Y-133260000D02*
X163190000Y-135160000D01*
X160056061Y-115043181D02*
X160056061Y-116876061D01*
X160056061Y-116876061D02*
X161290000Y-118110000D01*
X159312880Y-114300000D02*
X160056061Y-115043181D01*
X161290000Y-118110000D02*
X161290000Y-133260000D01*
X154940000Y-114300000D02*
X159312880Y-114300000D01*
X153035000Y-116205000D02*
X154940000Y-114300000D01*
%TO.N,/A5*%
X135250000Y-131450000D02*
X135255000Y-131445000D01*
X135250000Y-135160000D02*
X135250000Y-131450000D01*
%TO.N,/D4*%
X155575000Y-116205000D02*
X156700001Y-115079999D01*
X159385000Y-117475000D02*
X160650000Y-118740000D01*
X160650000Y-118740000D02*
X160650000Y-135160000D01*
X159385000Y-115570000D02*
X159385000Y-117475000D01*
X158750000Y-114935000D02*
X159385000Y-115570000D01*
X156845000Y-114935000D02*
X158750000Y-114935000D01*
X155575000Y-116205000D02*
X156845000Y-114935000D01*
%TO.N,/A6*%
X132710000Y-131450000D02*
X132715000Y-131445000D01*
X132710000Y-135160000D02*
X132710000Y-131450000D01*
%TO.N,/D3*%
X160020000Y-133250000D02*
X158110000Y-135160000D01*
X160020000Y-119380000D02*
X160020000Y-133250000D01*
X158115000Y-117475000D02*
X160020000Y-119380000D01*
X158115000Y-116205000D02*
X158115000Y-117475000D01*
%TO.N,/A7*%
X130170000Y-131450000D02*
X130175000Y-131445000D01*
X130170000Y-135160000D02*
X130170000Y-131450000D01*
%TO.N,R~W*%
X183510000Y-135160000D02*
X181065000Y-132715000D01*
X181065000Y-132715000D02*
X178435000Y-132715000D01*
X178435000Y-132715000D02*
X169545000Y-123825000D01*
%TO.N,/~CSA*%
X140335000Y-116205000D02*
X142240000Y-114300000D01*
X143510000Y-114300000D02*
X145415000Y-116205000D01*
X142240000Y-114300000D02*
X143510000Y-114300000D01*
X185510000Y-132080000D02*
X188590000Y-135160000D01*
X179070000Y-132080000D02*
X185510000Y-132080000D01*
X166370000Y-118745000D02*
X179070000Y-132080000D01*
X164465000Y-118745000D02*
X166370000Y-118745000D01*
%TO.N,/A11*%
X163195000Y-125005000D02*
X173350000Y-135160000D01*
X163195000Y-118745000D02*
X163195000Y-125005000D01*
X164465000Y-116840000D02*
X164465000Y-117475000D01*
X163830000Y-116205000D02*
X164465000Y-116840000D01*
X161925000Y-116205000D02*
X163830000Y-116205000D01*
X164465000Y-117475000D02*
X163195000Y-118745000D01*
D22*
%TO.N,U2*%
X116840000Y-123190000D02*
X121285000Y-118745000D01*
X116840000Y-127000000D02*
X116840000Y-123190000D01*
X121285000Y-118745000D02*
X123825000Y-116205000D01*
X123825000Y-116205000D02*
X125095000Y-116205000D01*
X115570000Y-128270000D02*
X116840000Y-127000000D01*
X115570000Y-131445000D02*
X115570000Y-128270000D01*
X116205000Y-132080000D02*
X115570000Y-131445000D01*
X119470000Y-132080000D02*
X116205000Y-132080000D01*
X122550000Y-135160000D02*
X119470000Y-132080000D01*
D21*
%TO.N,U1*%
X123725001Y-133795001D02*
X125090000Y-135160000D01*
X123725001Y-122654999D02*
X123725001Y-133795001D01*
X130175000Y-116205000D02*
X123725001Y-122654999D01*
%TD*%
D23*
%TO.N,GND*%
X123936525Y-136106632D02*
X124134893Y-136305000D01*
X123505107Y-136305000D01*
X123703475Y-136106632D01*
X123820000Y-135932240D01*
X123936525Y-136106632D01*
%TA.AperFunction,Conductor*%
D24*
G36*
X123936525Y-136106632D02*
G01*
X124134893Y-136305000D01*
X123505107Y-136305000D01*
X123703475Y-136106632D01*
X123820000Y-135932240D01*
X123936525Y-136106632D01*
G37*
%TD.AperFunction*%
D23*
X141699999Y-113759999D02*
X141676201Y-113788997D01*
X140658886Y-114806312D01*
X140476335Y-114770000D01*
X140193665Y-114770000D01*
X139916426Y-114825147D01*
X139655273Y-114933320D01*
X139420241Y-115090363D01*
X139220363Y-115290241D01*
X139065000Y-115522759D01*
X138909637Y-115290241D01*
X138709759Y-115090363D01*
X138474727Y-114933320D01*
X138213574Y-114825147D01*
X137936335Y-114770000D01*
X137653665Y-114770000D01*
X137376426Y-114825147D01*
X137115273Y-114933320D01*
X136880241Y-115090363D01*
X136680363Y-115290241D01*
X136525000Y-115522759D01*
X136369637Y-115290241D01*
X136169759Y-115090363D01*
X135934727Y-114933320D01*
X135673574Y-114825147D01*
X135396335Y-114770000D01*
X135113665Y-114770000D01*
X134836426Y-114825147D01*
X134575273Y-114933320D01*
X134340241Y-115090363D01*
X134140363Y-115290241D01*
X133985000Y-115522759D01*
X133829637Y-115290241D01*
X133629759Y-115090363D01*
X133394727Y-114933320D01*
X133133574Y-114825147D01*
X132856335Y-114770000D01*
X132573665Y-114770000D01*
X132296426Y-114825147D01*
X132035273Y-114933320D01*
X131800241Y-115090363D01*
X131600363Y-115290241D01*
X131445000Y-115522759D01*
X131289637Y-115290241D01*
X131089759Y-115090363D01*
X130854727Y-114933320D01*
X130593574Y-114825147D01*
X130316335Y-114770000D01*
X130033665Y-114770000D01*
X129756426Y-114825147D01*
X129495273Y-114933320D01*
X129260241Y-115090363D01*
X129060363Y-115290241D01*
X128905000Y-115522759D01*
X128749637Y-115290241D01*
X128549759Y-115090363D01*
X128314727Y-114933320D01*
X128053574Y-114825147D01*
X127776335Y-114770000D01*
X127493665Y-114770000D01*
X127216426Y-114825147D01*
X126955273Y-114933320D01*
X126720241Y-115090363D01*
X126520363Y-115290241D01*
X126365000Y-115522759D01*
X126209637Y-115290241D01*
X126009759Y-115090363D01*
X125774727Y-114933320D01*
X125513574Y-114825147D01*
X125236335Y-114770000D01*
X124953665Y-114770000D01*
X124676426Y-114825147D01*
X124415273Y-114933320D01*
X124180241Y-115090363D01*
X123980363Y-115290241D01*
X123960479Y-115320000D01*
X123868465Y-115320000D01*
X123824999Y-115315719D01*
X123781533Y-115320000D01*
X123781523Y-115320000D01*
X123651510Y-115332805D01*
X123484687Y-115383411D01*
X123330941Y-115465589D01*
X123330939Y-115465590D01*
X123330940Y-115465590D01*
X123229953Y-115548468D01*
X123229951Y-115548470D01*
X123196183Y-115576183D01*
X123168470Y-115609951D01*
X121461439Y-117316983D01*
X121426335Y-117310000D01*
X121143665Y-117310000D01*
X120866426Y-117365147D01*
X120605273Y-117473320D01*
X120370241Y-117630363D01*
X120170363Y-117830241D01*
X120013320Y-118065273D01*
X119905147Y-118326426D01*
X119850000Y-118603665D01*
X119850000Y-118886335D01*
X119856983Y-118921439D01*
X116244951Y-122533470D01*
X116211184Y-122561183D01*
X116183471Y-122594951D01*
X116183468Y-122594954D01*
X116100590Y-122695941D01*
X116018412Y-122849687D01*
X115967805Y-123016510D01*
X115950719Y-123190000D01*
X115955001Y-123233479D01*
X115955000Y-125570299D01*
X115915518Y-125574188D01*
X115795820Y-125610498D01*
X115685506Y-125669463D01*
X115588815Y-125748815D01*
X115509463Y-125845506D01*
X115450498Y-125955820D01*
X115414188Y-126075518D01*
X115401928Y-126200000D01*
X115401928Y-127186494D01*
X114974951Y-127613471D01*
X114941184Y-127641183D01*
X114913471Y-127674951D01*
X114913468Y-127674954D01*
X114830590Y-127775941D01*
X114748412Y-127929687D01*
X114697805Y-128096510D01*
X114680719Y-128270000D01*
X114685001Y-128313479D01*
X114685000Y-131401531D01*
X114680719Y-131445000D01*
X114685000Y-131488469D01*
X114685000Y-131488476D01*
X114697805Y-131618489D01*
X114748411Y-131785312D01*
X114830589Y-131939058D01*
X114941183Y-132073817D01*
X114974956Y-132101534D01*
X115548470Y-132675049D01*
X115576183Y-132708817D01*
X115609951Y-132736530D01*
X115609953Y-132736532D01*
X115710941Y-132819411D01*
X115864686Y-132901589D01*
X115944248Y-132925724D01*
X116031510Y-132952195D01*
X116161523Y-132965000D01*
X116161531Y-132965000D01*
X116205000Y-132969281D01*
X116248469Y-132965000D01*
X119103422Y-132965000D01*
X119821770Y-133683348D01*
X119576842Y-133732068D01*
X119306589Y-133844010D01*
X119063368Y-134006525D01*
X118856525Y-134213368D01*
X118740000Y-134387760D01*
X118623475Y-134213368D01*
X118416632Y-134006525D01*
X118173411Y-133844010D01*
X117903158Y-133732068D01*
X117616260Y-133675000D01*
X117323740Y-133675000D01*
X117036842Y-133732068D01*
X116766589Y-133844010D01*
X116523368Y-134006525D01*
X116316525Y-134213368D01*
X116154010Y-134456589D01*
X116042068Y-134726842D01*
X115985000Y-135013740D01*
X115985000Y-135306260D01*
X116042068Y-135593158D01*
X116154010Y-135863411D01*
X116316525Y-136106632D01*
X116514893Y-136305000D01*
X113695000Y-136305000D01*
X113695000Y-113695000D01*
X141779201Y-113695000D01*
X141699999Y-113759999D01*
%TA.AperFunction,Conductor*%
D24*
G36*
X141699999Y-113759999D02*
G01*
X141676201Y-113788997D01*
X140658886Y-114806312D01*
X140476335Y-114770000D01*
X140193665Y-114770000D01*
X139916426Y-114825147D01*
X139655273Y-114933320D01*
X139420241Y-115090363D01*
X139220363Y-115290241D01*
X139065000Y-115522759D01*
X138909637Y-115290241D01*
X138709759Y-115090363D01*
X138474727Y-114933320D01*
X138213574Y-114825147D01*
X137936335Y-114770000D01*
X137653665Y-114770000D01*
X137376426Y-114825147D01*
X137115273Y-114933320D01*
X136880241Y-115090363D01*
X136680363Y-115290241D01*
X136525000Y-115522759D01*
X136369637Y-115290241D01*
X136169759Y-115090363D01*
X135934727Y-114933320D01*
X135673574Y-114825147D01*
X135396335Y-114770000D01*
X135113665Y-114770000D01*
X134836426Y-114825147D01*
X134575273Y-114933320D01*
X134340241Y-115090363D01*
X134140363Y-115290241D01*
X133985000Y-115522759D01*
X133829637Y-115290241D01*
X133629759Y-115090363D01*
X133394727Y-114933320D01*
X133133574Y-114825147D01*
X132856335Y-114770000D01*
X132573665Y-114770000D01*
X132296426Y-114825147D01*
X132035273Y-114933320D01*
X131800241Y-115090363D01*
X131600363Y-115290241D01*
X131445000Y-115522759D01*
X131289637Y-115290241D01*
X131089759Y-115090363D01*
X130854727Y-114933320D01*
X130593574Y-114825147D01*
X130316335Y-114770000D01*
X130033665Y-114770000D01*
X129756426Y-114825147D01*
X129495273Y-114933320D01*
X129260241Y-115090363D01*
X129060363Y-115290241D01*
X128905000Y-115522759D01*
X128749637Y-115290241D01*
X128549759Y-115090363D01*
X128314727Y-114933320D01*
X128053574Y-114825147D01*
X127776335Y-114770000D01*
X127493665Y-114770000D01*
X127216426Y-114825147D01*
X126955273Y-114933320D01*
X126720241Y-115090363D01*
X126520363Y-115290241D01*
X126365000Y-115522759D01*
X126209637Y-115290241D01*
X126009759Y-115090363D01*
X125774727Y-114933320D01*
X125513574Y-114825147D01*
X125236335Y-114770000D01*
X124953665Y-114770000D01*
X124676426Y-114825147D01*
X124415273Y-114933320D01*
X124180241Y-115090363D01*
X123980363Y-115290241D01*
X123960479Y-115320000D01*
X123868465Y-115320000D01*
X123824999Y-115315719D01*
X123781533Y-115320000D01*
X123781523Y-115320000D01*
X123651510Y-115332805D01*
X123484687Y-115383411D01*
X123330941Y-115465589D01*
X123330939Y-115465590D01*
X123330940Y-115465590D01*
X123229953Y-115548468D01*
X123229951Y-115548470D01*
X123196183Y-115576183D01*
X123168470Y-115609951D01*
X121461439Y-117316983D01*
X121426335Y-117310000D01*
X121143665Y-117310000D01*
X120866426Y-117365147D01*
X120605273Y-117473320D01*
X120370241Y-117630363D01*
X120170363Y-117830241D01*
X120013320Y-118065273D01*
X119905147Y-118326426D01*
X119850000Y-118603665D01*
X119850000Y-118886335D01*
X119856983Y-118921439D01*
X116244951Y-122533470D01*
X116211184Y-122561183D01*
X116183471Y-122594951D01*
X116183468Y-122594954D01*
X116100590Y-122695941D01*
X116018412Y-122849687D01*
X115967805Y-123016510D01*
X115950719Y-123190000D01*
X115955001Y-123233479D01*
X115955000Y-125570299D01*
X115915518Y-125574188D01*
X115795820Y-125610498D01*
X115685506Y-125669463D01*
X115588815Y-125748815D01*
X115509463Y-125845506D01*
X115450498Y-125955820D01*
X115414188Y-126075518D01*
X115401928Y-126200000D01*
X115401928Y-127186494D01*
X114974951Y-127613471D01*
X114941184Y-127641183D01*
X114913471Y-127674951D01*
X114913468Y-127674954D01*
X114830590Y-127775941D01*
X114748412Y-127929687D01*
X114697805Y-128096510D01*
X114680719Y-128270000D01*
X114685001Y-128313479D01*
X114685000Y-131401531D01*
X114680719Y-131445000D01*
X114685000Y-131488469D01*
X114685000Y-131488476D01*
X114697805Y-131618489D01*
X114748411Y-131785312D01*
X114830589Y-131939058D01*
X114941183Y-132073817D01*
X114974956Y-132101534D01*
X115548470Y-132675049D01*
X115576183Y-132708817D01*
X115609951Y-132736530D01*
X115609953Y-132736532D01*
X115710941Y-132819411D01*
X115864686Y-132901589D01*
X115944248Y-132925724D01*
X116031510Y-132952195D01*
X116161523Y-132965000D01*
X116161531Y-132965000D01*
X116205000Y-132969281D01*
X116248469Y-132965000D01*
X119103422Y-132965000D01*
X119821770Y-133683348D01*
X119576842Y-133732068D01*
X119306589Y-133844010D01*
X119063368Y-134006525D01*
X118856525Y-134213368D01*
X118740000Y-134387760D01*
X118623475Y-134213368D01*
X118416632Y-134006525D01*
X118173411Y-133844010D01*
X117903158Y-133732068D01*
X117616260Y-133675000D01*
X117323740Y-133675000D01*
X117036842Y-133732068D01*
X116766589Y-133844010D01*
X116523368Y-134006525D01*
X116316525Y-134213368D01*
X116154010Y-134456589D01*
X116042068Y-134726842D01*
X115985000Y-135013740D01*
X115985000Y-135306260D01*
X116042068Y-135593158D01*
X116154010Y-135863411D01*
X116316525Y-136106632D01*
X116514893Y-136305000D01*
X113695000Y-136305000D01*
X113695000Y-113695000D01*
X141779201Y-113695000D01*
X141699999Y-113759999D01*
G37*
%TD.AperFunction*%
D23*
X129060363Y-132359759D02*
X129260241Y-132559637D01*
X129410001Y-132659703D01*
X129410000Y-133881821D01*
X129223368Y-134006525D01*
X129016525Y-134213368D01*
X128894805Y-134395534D01*
X128825178Y-134278645D01*
X128630269Y-134062412D01*
X128396920Y-133888359D01*
X128134099Y-133763175D01*
X127986890Y-133718524D01*
X127757000Y-133839845D01*
X127757000Y-135033000D01*
X127777000Y-135033000D01*
X127777000Y-135287000D01*
X127757000Y-135287000D01*
X127757000Y-135307000D01*
X127503000Y-135307000D01*
X127503000Y-135287000D01*
X127483000Y-135287000D01*
X127483000Y-135033000D01*
X127503000Y-135033000D01*
X127503000Y-133839845D01*
X127273110Y-133718524D01*
X127125901Y-133763175D01*
X126863080Y-133888359D01*
X126629731Y-134062412D01*
X126434822Y-134278645D01*
X126365195Y-134395534D01*
X126243475Y-134213368D01*
X126036632Y-134006525D01*
X125793411Y-133844010D01*
X125523158Y-133732068D01*
X125236260Y-133675000D01*
X124943740Y-133675000D01*
X124723592Y-133718791D01*
X124485001Y-133480200D01*
X124485001Y-132883072D01*
X125895000Y-132883072D01*
X126019482Y-132870812D01*
X126139180Y-132834502D01*
X126249494Y-132775537D01*
X126346185Y-132696185D01*
X126425537Y-132599494D01*
X126484502Y-132489180D01*
X126520812Y-132369482D01*
X126521643Y-132361039D01*
X126720241Y-132559637D01*
X126955273Y-132716680D01*
X127216426Y-132824853D01*
X127493665Y-132880000D01*
X127776335Y-132880000D01*
X128053574Y-132824853D01*
X128314727Y-132716680D01*
X128549759Y-132559637D01*
X128749637Y-132359759D01*
X128905000Y-132127241D01*
X129060363Y-132359759D01*
%TA.AperFunction,Conductor*%
D24*
G36*
X129060363Y-132359759D02*
G01*
X129260241Y-132559637D01*
X129410001Y-132659703D01*
X129410000Y-133881821D01*
X129223368Y-134006525D01*
X129016525Y-134213368D01*
X128894805Y-134395534D01*
X128825178Y-134278645D01*
X128630269Y-134062412D01*
X128396920Y-133888359D01*
X128134099Y-133763175D01*
X127986890Y-133718524D01*
X127757000Y-133839845D01*
X127757000Y-135033000D01*
X127777000Y-135033000D01*
X127777000Y-135287000D01*
X127757000Y-135287000D01*
X127757000Y-135307000D01*
X127503000Y-135307000D01*
X127503000Y-135287000D01*
X127483000Y-135287000D01*
X127483000Y-135033000D01*
X127503000Y-135033000D01*
X127503000Y-133839845D01*
X127273110Y-133718524D01*
X127125901Y-133763175D01*
X126863080Y-133888359D01*
X126629731Y-134062412D01*
X126434822Y-134278645D01*
X126365195Y-134395534D01*
X126243475Y-134213368D01*
X126036632Y-134006525D01*
X125793411Y-133844010D01*
X125523158Y-133732068D01*
X125236260Y-133675000D01*
X124943740Y-133675000D01*
X124723592Y-133718791D01*
X124485001Y-133480200D01*
X124485001Y-132883072D01*
X125895000Y-132883072D01*
X126019482Y-132870812D01*
X126139180Y-132834502D01*
X126249494Y-132775537D01*
X126346185Y-132696185D01*
X126425537Y-132599494D01*
X126484502Y-132489180D01*
X126520812Y-132369482D01*
X126521643Y-132361039D01*
X126720241Y-132559637D01*
X126955273Y-132716680D01*
X127216426Y-132824853D01*
X127493665Y-132880000D01*
X127776335Y-132880000D01*
X128053574Y-132824853D01*
X128314727Y-132716680D01*
X128549759Y-132559637D01*
X128749637Y-132359759D01*
X128905000Y-132127241D01*
X129060363Y-132359759D01*
G37*
%TD.AperFunction*%
D23*
X157000363Y-117119759D02*
X157200241Y-117319637D01*
X157355001Y-117423044D01*
X157355001Y-117437668D01*
X157351324Y-117475000D01*
X157355001Y-117512333D01*
X157365998Y-117623986D01*
X157370776Y-117639738D01*
X157409454Y-117767246D01*
X157480026Y-117899276D01*
X157543258Y-117976323D01*
X157575000Y-118015001D01*
X157603998Y-118038799D01*
X159260000Y-119694802D01*
X159260001Y-130581726D01*
X159078414Y-130381481D01*
X158852420Y-130213963D01*
X158598087Y-130093754D01*
X158464039Y-130053096D01*
X158242000Y-130175085D01*
X158242000Y-131318000D01*
X158262000Y-131318000D01*
X158262000Y-131572000D01*
X158242000Y-131572000D01*
X158242000Y-132714915D01*
X158464039Y-132836904D01*
X158598087Y-132796246D01*
X158852420Y-132676037D01*
X159078414Y-132508519D01*
X159260001Y-132308274D01*
X159260001Y-132935197D01*
X158476408Y-133718791D01*
X158256260Y-133675000D01*
X157963740Y-133675000D01*
X157676842Y-133732068D01*
X157406589Y-133844010D01*
X157163368Y-134006525D01*
X156956525Y-134213368D01*
X156840000Y-134387760D01*
X156723475Y-134213368D01*
X156516632Y-134006525D01*
X156330000Y-133881822D01*
X156330000Y-132666384D01*
X156489759Y-132559637D01*
X156689637Y-132359759D01*
X156846680Y-132124727D01*
X156851067Y-132114135D01*
X156962615Y-132300131D01*
X157151586Y-132508519D01*
X157377580Y-132676037D01*
X157631913Y-132796246D01*
X157765961Y-132836904D01*
X157988000Y-132714915D01*
X157988000Y-131572000D01*
X157968000Y-131572000D01*
X157968000Y-131318000D01*
X157988000Y-131318000D01*
X157988000Y-130175085D01*
X157765961Y-130053096D01*
X157631913Y-130093754D01*
X157377580Y-130213963D01*
X157151586Y-130381481D01*
X156962615Y-130589869D01*
X156851067Y-130775865D01*
X156846680Y-130765273D01*
X156689637Y-130530241D01*
X156489759Y-130330363D01*
X156254727Y-130173320D01*
X155993574Y-130065147D01*
X155716335Y-130010000D01*
X155433665Y-130010000D01*
X155156426Y-130065147D01*
X154895273Y-130173320D01*
X154660241Y-130330363D01*
X154460363Y-130530241D01*
X154305000Y-130762759D01*
X154149637Y-130530241D01*
X153949759Y-130330363D01*
X153714727Y-130173320D01*
X153453574Y-130065147D01*
X153176335Y-130010000D01*
X152893665Y-130010000D01*
X152616426Y-130065147D01*
X152355273Y-130173320D01*
X152120241Y-130330363D01*
X151920363Y-130530241D01*
X151765000Y-130762759D01*
X151609637Y-130530241D01*
X151409759Y-130330363D01*
X151174727Y-130173320D01*
X150913574Y-130065147D01*
X150636335Y-130010000D01*
X150353665Y-130010000D01*
X150076426Y-130065147D01*
X149815273Y-130173320D01*
X149580241Y-130330363D01*
X149380363Y-130530241D01*
X149225000Y-130762759D01*
X149069637Y-130530241D01*
X148869759Y-130330363D01*
X148634727Y-130173320D01*
X148373574Y-130065147D01*
X148096335Y-130010000D01*
X147813665Y-130010000D01*
X147536426Y-130065147D01*
X147275273Y-130173320D01*
X147040241Y-130330363D01*
X146840363Y-130530241D01*
X146685000Y-130762759D01*
X146529637Y-130530241D01*
X146329759Y-130330363D01*
X146094727Y-130173320D01*
X145833574Y-130065147D01*
X145556335Y-130010000D01*
X145273665Y-130010000D01*
X144996426Y-130065147D01*
X144735273Y-130173320D01*
X144500241Y-130330363D01*
X144300363Y-130530241D01*
X144145000Y-130762759D01*
X143989637Y-130530241D01*
X143789759Y-130330363D01*
X143554727Y-130173320D01*
X143293574Y-130065147D01*
X143016335Y-130010000D01*
X142733665Y-130010000D01*
X142456426Y-130065147D01*
X142195273Y-130173320D01*
X141960241Y-130330363D01*
X141760363Y-130530241D01*
X141605000Y-130762759D01*
X141449637Y-130530241D01*
X141249759Y-130330363D01*
X141014727Y-130173320D01*
X140753574Y-130065147D01*
X140476335Y-130010000D01*
X140193665Y-130010000D01*
X139916426Y-130065147D01*
X139655273Y-130173320D01*
X139420241Y-130330363D01*
X139220363Y-130530241D01*
X139065000Y-130762759D01*
X138909637Y-130530241D01*
X138709759Y-130330363D01*
X138474727Y-130173320D01*
X138213574Y-130065147D01*
X137936335Y-130010000D01*
X137653665Y-130010000D01*
X137376426Y-130065147D01*
X137115273Y-130173320D01*
X136880241Y-130330363D01*
X136680363Y-130530241D01*
X136525000Y-130762759D01*
X136369637Y-130530241D01*
X136169759Y-130330363D01*
X135934727Y-130173320D01*
X135673574Y-130065147D01*
X135396335Y-130010000D01*
X135113665Y-130010000D01*
X134836426Y-130065147D01*
X134575273Y-130173320D01*
X134340241Y-130330363D01*
X134140363Y-130530241D01*
X133985000Y-130762759D01*
X133829637Y-130530241D01*
X133629759Y-130330363D01*
X133394727Y-130173320D01*
X133133574Y-130065147D01*
X132856335Y-130010000D01*
X132573665Y-130010000D01*
X132296426Y-130065147D01*
X132035273Y-130173320D01*
X131800241Y-130330363D01*
X131600363Y-130530241D01*
X131445000Y-130762759D01*
X131289637Y-130530241D01*
X131089759Y-130330363D01*
X130854727Y-130173320D01*
X130593574Y-130065147D01*
X130316335Y-130010000D01*
X130033665Y-130010000D01*
X129756426Y-130065147D01*
X129495273Y-130173320D01*
X129260241Y-130330363D01*
X129060363Y-130530241D01*
X128905000Y-130762759D01*
X128749637Y-130530241D01*
X128549759Y-130330363D01*
X128314727Y-130173320D01*
X128053574Y-130065147D01*
X127776335Y-130010000D01*
X127493665Y-130010000D01*
X127216426Y-130065147D01*
X126955273Y-130173320D01*
X126720241Y-130330363D01*
X126521643Y-130528961D01*
X126520812Y-130520518D01*
X126484502Y-130400820D01*
X126425537Y-130290506D01*
X126346185Y-130193815D01*
X126249494Y-130114463D01*
X126139180Y-130055498D01*
X126019482Y-130019188D01*
X125895000Y-130006928D01*
X124485001Y-130006928D01*
X124485001Y-122969800D01*
X129851114Y-117603688D01*
X130033665Y-117640000D01*
X130316335Y-117640000D01*
X130593574Y-117584853D01*
X130854727Y-117476680D01*
X131089759Y-117319637D01*
X131289637Y-117119759D01*
X131445000Y-116887241D01*
X131600363Y-117119759D01*
X131800241Y-117319637D01*
X132035273Y-117476680D01*
X132296426Y-117584853D01*
X132573665Y-117640000D01*
X132856335Y-117640000D01*
X133133574Y-117584853D01*
X133394727Y-117476680D01*
X133629759Y-117319637D01*
X133829637Y-117119759D01*
X133985000Y-116887241D01*
X134140363Y-117119759D01*
X134340241Y-117319637D01*
X134575273Y-117476680D01*
X134836426Y-117584853D01*
X135113665Y-117640000D01*
X135396335Y-117640000D01*
X135673574Y-117584853D01*
X135934727Y-117476680D01*
X136169759Y-117319637D01*
X136369637Y-117119759D01*
X136525000Y-116887241D01*
X136680363Y-117119759D01*
X136880241Y-117319637D01*
X137115273Y-117476680D01*
X137376426Y-117584853D01*
X137653665Y-117640000D01*
X137936335Y-117640000D01*
X138213574Y-117584853D01*
X138474727Y-117476680D01*
X138709759Y-117319637D01*
X138909637Y-117119759D01*
X139065000Y-116887241D01*
X139220363Y-117119759D01*
X139420241Y-117319637D01*
X139655273Y-117476680D01*
X139916426Y-117584853D01*
X140193665Y-117640000D01*
X140476335Y-117640000D01*
X140753574Y-117584853D01*
X141014727Y-117476680D01*
X141249759Y-117319637D01*
X141449637Y-117119759D01*
X141605000Y-116887241D01*
X141760363Y-117119759D01*
X141960241Y-117319637D01*
X142195273Y-117476680D01*
X142456426Y-117584853D01*
X142733665Y-117640000D01*
X143016335Y-117640000D01*
X143293574Y-117584853D01*
X143554727Y-117476680D01*
X143789759Y-117319637D01*
X143989637Y-117119759D01*
X144145000Y-116887241D01*
X144300363Y-117119759D01*
X144500241Y-117319637D01*
X144735273Y-117476680D01*
X144996426Y-117584853D01*
X145273665Y-117640000D01*
X145556335Y-117640000D01*
X145833574Y-117584853D01*
X146094727Y-117476680D01*
X146329759Y-117319637D01*
X146529637Y-117119759D01*
X146685000Y-116887241D01*
X146840363Y-117119759D01*
X147040241Y-117319637D01*
X147275273Y-117476680D01*
X147536426Y-117584853D01*
X147813665Y-117640000D01*
X148096335Y-117640000D01*
X148373574Y-117584853D01*
X148634727Y-117476680D01*
X148869759Y-117319637D01*
X149069637Y-117119759D01*
X149225000Y-116887241D01*
X149380363Y-117119759D01*
X149580241Y-117319637D01*
X149815273Y-117476680D01*
X150076426Y-117584853D01*
X150353665Y-117640000D01*
X150636335Y-117640000D01*
X150913574Y-117584853D01*
X151174727Y-117476680D01*
X151409759Y-117319637D01*
X151609637Y-117119759D01*
X151765000Y-116887241D01*
X151920363Y-117119759D01*
X152120241Y-117319637D01*
X152355273Y-117476680D01*
X152616426Y-117584853D01*
X152893665Y-117640000D01*
X153176335Y-117640000D01*
X153453574Y-117584853D01*
X153714727Y-117476680D01*
X153949759Y-117319637D01*
X154149637Y-117119759D01*
X154305000Y-116887241D01*
X154460363Y-117119759D01*
X154660241Y-117319637D01*
X154895273Y-117476680D01*
X155156426Y-117584853D01*
X155433665Y-117640000D01*
X155716335Y-117640000D01*
X155993574Y-117584853D01*
X156254727Y-117476680D01*
X156489759Y-117319637D01*
X156689637Y-117119759D01*
X156845000Y-116887241D01*
X157000363Y-117119759D01*
%TA.AperFunction,Conductor*%
D24*
G36*
X157000363Y-117119759D02*
G01*
X157200241Y-117319637D01*
X157355001Y-117423044D01*
X157355001Y-117437668D01*
X157351324Y-117475000D01*
X157355001Y-117512333D01*
X157365998Y-117623986D01*
X157370776Y-117639738D01*
X157409454Y-117767246D01*
X157480026Y-117899276D01*
X157543258Y-117976323D01*
X157575000Y-118015001D01*
X157603998Y-118038799D01*
X159260000Y-119694802D01*
X159260001Y-130581726D01*
X159078414Y-130381481D01*
X158852420Y-130213963D01*
X158598087Y-130093754D01*
X158464039Y-130053096D01*
X158242000Y-130175085D01*
X158242000Y-131318000D01*
X158262000Y-131318000D01*
X158262000Y-131572000D01*
X158242000Y-131572000D01*
X158242000Y-132714915D01*
X158464039Y-132836904D01*
X158598087Y-132796246D01*
X158852420Y-132676037D01*
X159078414Y-132508519D01*
X159260001Y-132308274D01*
X159260001Y-132935197D01*
X158476408Y-133718791D01*
X158256260Y-133675000D01*
X157963740Y-133675000D01*
X157676842Y-133732068D01*
X157406589Y-133844010D01*
X157163368Y-134006525D01*
X156956525Y-134213368D01*
X156840000Y-134387760D01*
X156723475Y-134213368D01*
X156516632Y-134006525D01*
X156330000Y-133881822D01*
X156330000Y-132666384D01*
X156489759Y-132559637D01*
X156689637Y-132359759D01*
X156846680Y-132124727D01*
X156851067Y-132114135D01*
X156962615Y-132300131D01*
X157151586Y-132508519D01*
X157377580Y-132676037D01*
X157631913Y-132796246D01*
X157765961Y-132836904D01*
X157988000Y-132714915D01*
X157988000Y-131572000D01*
X157968000Y-131572000D01*
X157968000Y-131318000D01*
X157988000Y-131318000D01*
X157988000Y-130175085D01*
X157765961Y-130053096D01*
X157631913Y-130093754D01*
X157377580Y-130213963D01*
X157151586Y-130381481D01*
X156962615Y-130589869D01*
X156851067Y-130775865D01*
X156846680Y-130765273D01*
X156689637Y-130530241D01*
X156489759Y-130330363D01*
X156254727Y-130173320D01*
X155993574Y-130065147D01*
X155716335Y-130010000D01*
X155433665Y-130010000D01*
X155156426Y-130065147D01*
X154895273Y-130173320D01*
X154660241Y-130330363D01*
X154460363Y-130530241D01*
X154305000Y-130762759D01*
X154149637Y-130530241D01*
X153949759Y-130330363D01*
X153714727Y-130173320D01*
X153453574Y-130065147D01*
X153176335Y-130010000D01*
X152893665Y-130010000D01*
X152616426Y-130065147D01*
X152355273Y-130173320D01*
X152120241Y-130330363D01*
X151920363Y-130530241D01*
X151765000Y-130762759D01*
X151609637Y-130530241D01*
X151409759Y-130330363D01*
X151174727Y-130173320D01*
X150913574Y-130065147D01*
X150636335Y-130010000D01*
X150353665Y-130010000D01*
X150076426Y-130065147D01*
X149815273Y-130173320D01*
X149580241Y-130330363D01*
X149380363Y-130530241D01*
X149225000Y-130762759D01*
X149069637Y-130530241D01*
X148869759Y-130330363D01*
X148634727Y-130173320D01*
X148373574Y-130065147D01*
X148096335Y-130010000D01*
X147813665Y-130010000D01*
X147536426Y-130065147D01*
X147275273Y-130173320D01*
X147040241Y-130330363D01*
X146840363Y-130530241D01*
X146685000Y-130762759D01*
X146529637Y-130530241D01*
X146329759Y-130330363D01*
X146094727Y-130173320D01*
X145833574Y-130065147D01*
X145556335Y-130010000D01*
X145273665Y-130010000D01*
X144996426Y-130065147D01*
X144735273Y-130173320D01*
X144500241Y-130330363D01*
X144300363Y-130530241D01*
X144145000Y-130762759D01*
X143989637Y-130530241D01*
X143789759Y-130330363D01*
X143554727Y-130173320D01*
X143293574Y-130065147D01*
X143016335Y-130010000D01*
X142733665Y-130010000D01*
X142456426Y-130065147D01*
X142195273Y-130173320D01*
X141960241Y-130330363D01*
X141760363Y-130530241D01*
X141605000Y-130762759D01*
X141449637Y-130530241D01*
X141249759Y-130330363D01*
X141014727Y-130173320D01*
X140753574Y-130065147D01*
X140476335Y-130010000D01*
X140193665Y-130010000D01*
X139916426Y-130065147D01*
X139655273Y-130173320D01*
X139420241Y-130330363D01*
X139220363Y-130530241D01*
X139065000Y-130762759D01*
X138909637Y-130530241D01*
X138709759Y-130330363D01*
X138474727Y-130173320D01*
X138213574Y-130065147D01*
X137936335Y-130010000D01*
X137653665Y-130010000D01*
X137376426Y-130065147D01*
X137115273Y-130173320D01*
X136880241Y-130330363D01*
X136680363Y-130530241D01*
X136525000Y-130762759D01*
X136369637Y-130530241D01*
X136169759Y-130330363D01*
X135934727Y-130173320D01*
X135673574Y-130065147D01*
X135396335Y-130010000D01*
X135113665Y-130010000D01*
X134836426Y-130065147D01*
X134575273Y-130173320D01*
X134340241Y-130330363D01*
X134140363Y-130530241D01*
X133985000Y-130762759D01*
X133829637Y-130530241D01*
X133629759Y-130330363D01*
X133394727Y-130173320D01*
X133133574Y-130065147D01*
X132856335Y-130010000D01*
X132573665Y-130010000D01*
X132296426Y-130065147D01*
X132035273Y-130173320D01*
X131800241Y-130330363D01*
X131600363Y-130530241D01*
X131445000Y-130762759D01*
X131289637Y-130530241D01*
X131089759Y-130330363D01*
X130854727Y-130173320D01*
X130593574Y-130065147D01*
X130316335Y-130010000D01*
X130033665Y-130010000D01*
X129756426Y-130065147D01*
X129495273Y-130173320D01*
X129260241Y-130330363D01*
X129060363Y-130530241D01*
X128905000Y-130762759D01*
X128749637Y-130530241D01*
X128549759Y-130330363D01*
X128314727Y-130173320D01*
X128053574Y-130065147D01*
X127776335Y-130010000D01*
X127493665Y-130010000D01*
X127216426Y-130065147D01*
X126955273Y-130173320D01*
X126720241Y-130330363D01*
X126521643Y-130528961D01*
X126520812Y-130520518D01*
X126484502Y-130400820D01*
X126425537Y-130290506D01*
X126346185Y-130193815D01*
X126249494Y-130114463D01*
X126139180Y-130055498D01*
X126019482Y-130019188D01*
X125895000Y-130006928D01*
X124485001Y-130006928D01*
X124485001Y-122969800D01*
X129851114Y-117603688D01*
X130033665Y-117640000D01*
X130316335Y-117640000D01*
X130593574Y-117584853D01*
X130854727Y-117476680D01*
X131089759Y-117319637D01*
X131289637Y-117119759D01*
X131445000Y-116887241D01*
X131600363Y-117119759D01*
X131800241Y-117319637D01*
X132035273Y-117476680D01*
X132296426Y-117584853D01*
X132573665Y-117640000D01*
X132856335Y-117640000D01*
X133133574Y-117584853D01*
X133394727Y-117476680D01*
X133629759Y-117319637D01*
X133829637Y-117119759D01*
X133985000Y-116887241D01*
X134140363Y-117119759D01*
X134340241Y-117319637D01*
X134575273Y-117476680D01*
X134836426Y-117584853D01*
X135113665Y-117640000D01*
X135396335Y-117640000D01*
X135673574Y-117584853D01*
X135934727Y-117476680D01*
X136169759Y-117319637D01*
X136369637Y-117119759D01*
X136525000Y-116887241D01*
X136680363Y-117119759D01*
X136880241Y-117319637D01*
X137115273Y-117476680D01*
X137376426Y-117584853D01*
X137653665Y-117640000D01*
X137936335Y-117640000D01*
X138213574Y-117584853D01*
X138474727Y-117476680D01*
X138709759Y-117319637D01*
X138909637Y-117119759D01*
X139065000Y-116887241D01*
X139220363Y-117119759D01*
X139420241Y-117319637D01*
X139655273Y-117476680D01*
X139916426Y-117584853D01*
X140193665Y-117640000D01*
X140476335Y-117640000D01*
X140753574Y-117584853D01*
X141014727Y-117476680D01*
X141249759Y-117319637D01*
X141449637Y-117119759D01*
X141605000Y-116887241D01*
X141760363Y-117119759D01*
X141960241Y-117319637D01*
X142195273Y-117476680D01*
X142456426Y-117584853D01*
X142733665Y-117640000D01*
X143016335Y-117640000D01*
X143293574Y-117584853D01*
X143554727Y-117476680D01*
X143789759Y-117319637D01*
X143989637Y-117119759D01*
X144145000Y-116887241D01*
X144300363Y-117119759D01*
X144500241Y-117319637D01*
X144735273Y-117476680D01*
X144996426Y-117584853D01*
X145273665Y-117640000D01*
X145556335Y-117640000D01*
X145833574Y-117584853D01*
X146094727Y-117476680D01*
X146329759Y-117319637D01*
X146529637Y-117119759D01*
X146685000Y-116887241D01*
X146840363Y-117119759D01*
X147040241Y-117319637D01*
X147275273Y-117476680D01*
X147536426Y-117584853D01*
X147813665Y-117640000D01*
X148096335Y-117640000D01*
X148373574Y-117584853D01*
X148634727Y-117476680D01*
X148869759Y-117319637D01*
X149069637Y-117119759D01*
X149225000Y-116887241D01*
X149380363Y-117119759D01*
X149580241Y-117319637D01*
X149815273Y-117476680D01*
X150076426Y-117584853D01*
X150353665Y-117640000D01*
X150636335Y-117640000D01*
X150913574Y-117584853D01*
X151174727Y-117476680D01*
X151409759Y-117319637D01*
X151609637Y-117119759D01*
X151765000Y-116887241D01*
X151920363Y-117119759D01*
X152120241Y-117319637D01*
X152355273Y-117476680D01*
X152616426Y-117584853D01*
X152893665Y-117640000D01*
X153176335Y-117640000D01*
X153453574Y-117584853D01*
X153714727Y-117476680D01*
X153949759Y-117319637D01*
X154149637Y-117119759D01*
X154305000Y-116887241D01*
X154460363Y-117119759D01*
X154660241Y-117319637D01*
X154895273Y-117476680D01*
X155156426Y-117584853D01*
X155433665Y-117640000D01*
X155716335Y-117640000D01*
X155993574Y-117584853D01*
X156254727Y-117476680D01*
X156489759Y-117319637D01*
X156689637Y-117119759D01*
X156845000Y-116887241D01*
X157000363Y-117119759D01*
G37*
%TD.AperFunction*%
D23*
X126520363Y-117119759D02*
X126720241Y-117319637D01*
X126955273Y-117476680D01*
X127216426Y-117584853D01*
X127493665Y-117640000D01*
X127665198Y-117640000D01*
X123214004Y-122091195D01*
X123185000Y-122114998D01*
X123129872Y-122182173D01*
X123090027Y-122230723D01*
X123043002Y-122318700D01*
X123019455Y-122362753D01*
X122975998Y-122506014D01*
X122965001Y-122617667D01*
X122965001Y-122617677D01*
X122961325Y-122654999D01*
X122965001Y-122692321D01*
X122965002Y-133728457D01*
X122696260Y-133675000D01*
X122403740Y-133675000D01*
X122331040Y-133689461D01*
X120126534Y-131484956D01*
X120098817Y-131451183D01*
X119964059Y-131340589D01*
X119810313Y-131258411D01*
X119643490Y-131207805D01*
X119513477Y-131195000D01*
X119513469Y-131195000D01*
X119470000Y-131190719D01*
X119426531Y-131195000D01*
X116571579Y-131195000D01*
X116455000Y-131078422D01*
X116455000Y-130882889D01*
X116628184Y-130926300D01*
X116910512Y-130940217D01*
X117190130Y-130898787D01*
X117456292Y-130803603D01*
X117581514Y-130736671D01*
X117653097Y-130492702D01*
X116840000Y-129679605D01*
X116825858Y-129693748D01*
X116646253Y-129514143D01*
X116660395Y-129500000D01*
X117019605Y-129500000D01*
X117832702Y-130313097D01*
X118076671Y-130241514D01*
X118197571Y-129986004D01*
X118266300Y-129711816D01*
X118280217Y-129429488D01*
X118238787Y-129149870D01*
X118143603Y-128883708D01*
X118076671Y-128758486D01*
X117832702Y-128686903D01*
X117019605Y-129500000D01*
X116660395Y-129500000D01*
X116646253Y-129485858D01*
X116825858Y-129306253D01*
X116840000Y-129320395D01*
X117653097Y-128507298D01*
X117632785Y-128438072D01*
X117640000Y-128438072D01*
X117764482Y-128425812D01*
X117884180Y-128389502D01*
X117994494Y-128330537D01*
X118091185Y-128251185D01*
X118170537Y-128154494D01*
X118229502Y-128044180D01*
X118265812Y-127924482D01*
X118278072Y-127800000D01*
X118278072Y-126200000D01*
X118265812Y-126075518D01*
X118229502Y-125955820D01*
X118170537Y-125845506D01*
X118091185Y-125748815D01*
X117994494Y-125669463D01*
X117884180Y-125610498D01*
X117764482Y-125574188D01*
X117725000Y-125570299D01*
X117725000Y-124737702D01*
X120471903Y-124737702D01*
X120543486Y-124981671D01*
X120798996Y-125102571D01*
X121073184Y-125171300D01*
X121355512Y-125185217D01*
X121635130Y-125143787D01*
X121901292Y-125048603D01*
X122026514Y-124981671D01*
X122098097Y-124737702D01*
X121285000Y-123924605D01*
X120471903Y-124737702D01*
X117725000Y-124737702D01*
X117725000Y-123815512D01*
X119844783Y-123815512D01*
X119886213Y-124095130D01*
X119981397Y-124361292D01*
X120048329Y-124486514D01*
X120292298Y-124558097D01*
X121105395Y-123745000D01*
X121464605Y-123745000D01*
X122277702Y-124558097D01*
X122521671Y-124486514D01*
X122642571Y-124231004D01*
X122711300Y-123956816D01*
X122725217Y-123674488D01*
X122683787Y-123394870D01*
X122588603Y-123128708D01*
X122521671Y-123003486D01*
X122277702Y-122931903D01*
X121464605Y-123745000D01*
X121105395Y-123745000D01*
X120292298Y-122931903D01*
X120048329Y-123003486D01*
X119927429Y-123258996D01*
X119858700Y-123533184D01*
X119844783Y-123815512D01*
X117725000Y-123815512D01*
X117725000Y-123556578D01*
X118529280Y-122752298D01*
X120471903Y-122752298D01*
X121285000Y-123565395D01*
X122098097Y-122752298D01*
X122026514Y-122508329D01*
X121771004Y-122387429D01*
X121496816Y-122318700D01*
X121214488Y-122304783D01*
X120934870Y-122346213D01*
X120668708Y-122441397D01*
X120543486Y-122508329D01*
X120471903Y-122752298D01*
X118529280Y-122752298D01*
X121108561Y-120173017D01*
X121143665Y-120180000D01*
X121426335Y-120180000D01*
X121703574Y-120124853D01*
X121964727Y-120016680D01*
X122199759Y-119859637D01*
X122399637Y-119659759D01*
X122556680Y-119424727D01*
X122664853Y-119163574D01*
X122720000Y-118886335D01*
X122720000Y-118603665D01*
X122713017Y-118568561D01*
X124071091Y-117210487D01*
X124180241Y-117319637D01*
X124415273Y-117476680D01*
X124676426Y-117584853D01*
X124953665Y-117640000D01*
X125236335Y-117640000D01*
X125513574Y-117584853D01*
X125774727Y-117476680D01*
X126009759Y-117319637D01*
X126209637Y-117119759D01*
X126365000Y-116887241D01*
X126520363Y-117119759D01*
%TA.AperFunction,Conductor*%
D24*
G36*
X126520363Y-117119759D02*
G01*
X126720241Y-117319637D01*
X126955273Y-117476680D01*
X127216426Y-117584853D01*
X127493665Y-117640000D01*
X127665198Y-117640000D01*
X123214004Y-122091195D01*
X123185000Y-122114998D01*
X123129872Y-122182173D01*
X123090027Y-122230723D01*
X123043002Y-122318700D01*
X123019455Y-122362753D01*
X122975998Y-122506014D01*
X122965001Y-122617667D01*
X122965001Y-122617677D01*
X122961325Y-122654999D01*
X122965001Y-122692321D01*
X122965002Y-133728457D01*
X122696260Y-133675000D01*
X122403740Y-133675000D01*
X122331040Y-133689461D01*
X120126534Y-131484956D01*
X120098817Y-131451183D01*
X119964059Y-131340589D01*
X119810313Y-131258411D01*
X119643490Y-131207805D01*
X119513477Y-131195000D01*
X119513469Y-131195000D01*
X119470000Y-131190719D01*
X119426531Y-131195000D01*
X116571579Y-131195000D01*
X116455000Y-131078422D01*
X116455000Y-130882889D01*
X116628184Y-130926300D01*
X116910512Y-130940217D01*
X117190130Y-130898787D01*
X117456292Y-130803603D01*
X117581514Y-130736671D01*
X117653097Y-130492702D01*
X116840000Y-129679605D01*
X116825858Y-129693748D01*
X116646253Y-129514143D01*
X116660395Y-129500000D01*
X117019605Y-129500000D01*
X117832702Y-130313097D01*
X118076671Y-130241514D01*
X118197571Y-129986004D01*
X118266300Y-129711816D01*
X118280217Y-129429488D01*
X118238787Y-129149870D01*
X118143603Y-128883708D01*
X118076671Y-128758486D01*
X117832702Y-128686903D01*
X117019605Y-129500000D01*
X116660395Y-129500000D01*
X116646253Y-129485858D01*
X116825858Y-129306253D01*
X116840000Y-129320395D01*
X117653097Y-128507298D01*
X117632785Y-128438072D01*
X117640000Y-128438072D01*
X117764482Y-128425812D01*
X117884180Y-128389502D01*
X117994494Y-128330537D01*
X118091185Y-128251185D01*
X118170537Y-128154494D01*
X118229502Y-128044180D01*
X118265812Y-127924482D01*
X118278072Y-127800000D01*
X118278072Y-126200000D01*
X118265812Y-126075518D01*
X118229502Y-125955820D01*
X118170537Y-125845506D01*
X118091185Y-125748815D01*
X117994494Y-125669463D01*
X117884180Y-125610498D01*
X117764482Y-125574188D01*
X117725000Y-125570299D01*
X117725000Y-124737702D01*
X120471903Y-124737702D01*
X120543486Y-124981671D01*
X120798996Y-125102571D01*
X121073184Y-125171300D01*
X121355512Y-125185217D01*
X121635130Y-125143787D01*
X121901292Y-125048603D01*
X122026514Y-124981671D01*
X122098097Y-124737702D01*
X121285000Y-123924605D01*
X120471903Y-124737702D01*
X117725000Y-124737702D01*
X117725000Y-123815512D01*
X119844783Y-123815512D01*
X119886213Y-124095130D01*
X119981397Y-124361292D01*
X120048329Y-124486514D01*
X120292298Y-124558097D01*
X121105395Y-123745000D01*
X121464605Y-123745000D01*
X122277702Y-124558097D01*
X122521671Y-124486514D01*
X122642571Y-124231004D01*
X122711300Y-123956816D01*
X122725217Y-123674488D01*
X122683787Y-123394870D01*
X122588603Y-123128708D01*
X122521671Y-123003486D01*
X122277702Y-122931903D01*
X121464605Y-123745000D01*
X121105395Y-123745000D01*
X120292298Y-122931903D01*
X120048329Y-123003486D01*
X119927429Y-123258996D01*
X119858700Y-123533184D01*
X119844783Y-123815512D01*
X117725000Y-123815512D01*
X117725000Y-123556578D01*
X118529280Y-122752298D01*
X120471903Y-122752298D01*
X121285000Y-123565395D01*
X122098097Y-122752298D01*
X122026514Y-122508329D01*
X121771004Y-122387429D01*
X121496816Y-122318700D01*
X121214488Y-122304783D01*
X120934870Y-122346213D01*
X120668708Y-122441397D01*
X120543486Y-122508329D01*
X120471903Y-122752298D01*
X118529280Y-122752298D01*
X121108561Y-120173017D01*
X121143665Y-120180000D01*
X121426335Y-120180000D01*
X121703574Y-120124853D01*
X121964727Y-120016680D01*
X122199759Y-119859637D01*
X122399637Y-119659759D01*
X122556680Y-119424727D01*
X122664853Y-119163574D01*
X122720000Y-118886335D01*
X122720000Y-118603665D01*
X122713017Y-118568561D01*
X124071091Y-117210487D01*
X124180241Y-117319637D01*
X124415273Y-117476680D01*
X124676426Y-117584853D01*
X124953665Y-117640000D01*
X125236335Y-117640000D01*
X125513574Y-117584853D01*
X125774727Y-117476680D01*
X126009759Y-117319637D01*
X126209637Y-117119759D01*
X126365000Y-116887241D01*
X126520363Y-117119759D01*
G37*
%TD.AperFunction*%
D23*
X192305000Y-133105000D02*
X189540476Y-133105000D01*
X189540476Y-133681824D01*
X189440000Y-133671928D01*
X188176730Y-133671928D01*
X186073804Y-131569003D01*
X186050001Y-131539999D01*
X185934276Y-131445026D01*
X185802247Y-131374454D01*
X185658986Y-131330997D01*
X185547333Y-131320000D01*
X185547322Y-131320000D01*
X185510000Y-131316324D01*
X185472678Y-131320000D01*
X179395714Y-131320000D01*
X167870920Y-119218967D01*
X178705000Y-119218967D01*
X178705000Y-119541033D01*
X178767832Y-119856912D01*
X178891082Y-120154463D01*
X179070013Y-120422252D01*
X179297748Y-120649987D01*
X179297767Y-120650000D01*
X179297748Y-120650013D01*
X179070013Y-120877748D01*
X178891082Y-121145537D01*
X178767832Y-121443088D01*
X178705000Y-121758967D01*
X178705000Y-122081033D01*
X178767832Y-122396912D01*
X178891082Y-122694463D01*
X179070013Y-122962252D01*
X179297748Y-123189987D01*
X179297767Y-123190000D01*
X179297748Y-123190013D01*
X179070013Y-123417748D01*
X178891082Y-123685537D01*
X178767832Y-123983088D01*
X178705000Y-124298967D01*
X178705000Y-124621033D01*
X178767832Y-124936912D01*
X178891082Y-125234463D01*
X179070013Y-125502252D01*
X179297748Y-125729987D01*
X179565537Y-125908918D01*
X179863088Y-126032168D01*
X180178967Y-126095000D01*
X180501033Y-126095000D01*
X180816912Y-126032168D01*
X181114463Y-125908918D01*
X181382252Y-125729987D01*
X181609987Y-125502252D01*
X181610000Y-125502233D01*
X181610013Y-125502252D01*
X181837748Y-125729987D01*
X182105537Y-125908918D01*
X182403088Y-126032168D01*
X182718967Y-126095000D01*
X183041033Y-126095000D01*
X183356912Y-126032168D01*
X183654463Y-125908918D01*
X183922252Y-125729987D01*
X184149987Y-125502252D01*
X184150000Y-125502233D01*
X184150013Y-125502252D01*
X184377748Y-125729987D01*
X184645537Y-125908918D01*
X184943088Y-126032168D01*
X185258967Y-126095000D01*
X185581033Y-126095000D01*
X185896912Y-126032168D01*
X186194463Y-125908918D01*
X186462252Y-125729987D01*
X186689987Y-125502252D01*
X186868918Y-125234463D01*
X186992168Y-124936912D01*
X187055000Y-124621033D01*
X187055000Y-124298967D01*
X186992168Y-123983088D01*
X186868918Y-123685537D01*
X186689987Y-123417748D01*
X186462252Y-123190013D01*
X186462233Y-123190000D01*
X186462252Y-123189987D01*
X186689987Y-122962252D01*
X186868918Y-122694463D01*
X186992168Y-122396912D01*
X187055000Y-122081033D01*
X187055000Y-121758967D01*
X186992168Y-121443088D01*
X186868918Y-121145537D01*
X186689987Y-120877748D01*
X186462252Y-120650013D01*
X186462233Y-120650000D01*
X186462252Y-120649987D01*
X186689987Y-120422252D01*
X186868918Y-120154463D01*
X186992168Y-119856912D01*
X187055000Y-119541033D01*
X187055000Y-119218967D01*
X186992168Y-118903088D01*
X186868918Y-118605537D01*
X186689987Y-118337748D01*
X186462252Y-118110013D01*
X186194463Y-117931082D01*
X185896912Y-117807832D01*
X185581033Y-117745000D01*
X185258967Y-117745000D01*
X184943088Y-117807832D01*
X184645537Y-117931082D01*
X184377748Y-118110013D01*
X184150013Y-118337748D01*
X184150000Y-118337767D01*
X184149987Y-118337748D01*
X183922252Y-118110013D01*
X183654463Y-117931082D01*
X183356912Y-117807832D01*
X183041033Y-117745000D01*
X182718967Y-117745000D01*
X182403088Y-117807832D01*
X182105537Y-117931082D01*
X181837748Y-118110013D01*
X181610013Y-118337748D01*
X181610000Y-118337767D01*
X181609987Y-118337748D01*
X181382252Y-118110013D01*
X181114463Y-117931082D01*
X180816912Y-117807832D01*
X180501033Y-117745000D01*
X180178967Y-117745000D01*
X179863088Y-117807832D01*
X179565537Y-117931082D01*
X179297748Y-118110013D01*
X179070013Y-118337748D01*
X178891082Y-118605537D01*
X178767832Y-118903088D01*
X178705000Y-119218967D01*
X167870920Y-119218967D01*
X166939693Y-118241179D01*
X166910001Y-118204999D01*
X166859288Y-118163380D01*
X166809632Y-118120560D01*
X166801502Y-118115956D01*
X166794276Y-118110026D01*
X166736412Y-118079097D01*
X166679362Y-118046790D01*
X166670493Y-118043862D01*
X166662247Y-118039454D01*
X166599450Y-118020405D01*
X166537204Y-117999853D01*
X166527933Y-117998711D01*
X166518986Y-117995997D01*
X166453680Y-117989565D01*
X166388620Y-117981551D01*
X166341965Y-117985000D01*
X165380844Y-117985000D01*
X165220394Y-117824550D01*
X165161095Y-117784928D01*
X165170546Y-117767247D01*
X165214003Y-117623986D01*
X165225000Y-117512333D01*
X165225000Y-117512324D01*
X165228676Y-117475001D01*
X165225000Y-117437678D01*
X165225000Y-116877333D01*
X165228677Y-116840000D01*
X165214003Y-116691014D01*
X165170546Y-116547753D01*
X165099974Y-116415724D01*
X165028799Y-116328997D01*
X165005001Y-116299999D01*
X164976004Y-116276202D01*
X164393803Y-115694002D01*
X164370001Y-115664999D01*
X164254276Y-115570026D01*
X164122247Y-115499454D01*
X163978986Y-115455997D01*
X163867333Y-115445000D01*
X163867322Y-115445000D01*
X163830000Y-115441324D01*
X163792678Y-115445000D01*
X162840844Y-115445000D01*
X162680394Y-115284550D01*
X162486308Y-115154866D01*
X162270652Y-115065539D01*
X162041712Y-115020000D01*
X161808288Y-115020000D01*
X161579348Y-115065539D01*
X161415000Y-115133614D01*
X161415000Y-114972322D01*
X161418676Y-114934999D01*
X161415000Y-114897676D01*
X161415000Y-114897667D01*
X161404003Y-114786014D01*
X161360546Y-114642753D01*
X161289974Y-114510724D01*
X161195001Y-114394999D01*
X161166003Y-114371201D01*
X160489801Y-113695000D01*
X192305001Y-113695000D01*
X192305000Y-133105000D01*
%TA.AperFunction,Conductor*%
D24*
G36*
X192305000Y-133105000D02*
G01*
X189540476Y-133105000D01*
X189540476Y-133681824D01*
X189440000Y-133671928D01*
X188176730Y-133671928D01*
X186073804Y-131569003D01*
X186050001Y-131539999D01*
X185934276Y-131445026D01*
X185802247Y-131374454D01*
X185658986Y-131330997D01*
X185547333Y-131320000D01*
X185547322Y-131320000D01*
X185510000Y-131316324D01*
X185472678Y-131320000D01*
X179395714Y-131320000D01*
X167870920Y-119218967D01*
X178705000Y-119218967D01*
X178705000Y-119541033D01*
X178767832Y-119856912D01*
X178891082Y-120154463D01*
X179070013Y-120422252D01*
X179297748Y-120649987D01*
X179297767Y-120650000D01*
X179297748Y-120650013D01*
X179070013Y-120877748D01*
X178891082Y-121145537D01*
X178767832Y-121443088D01*
X178705000Y-121758967D01*
X178705000Y-122081033D01*
X178767832Y-122396912D01*
X178891082Y-122694463D01*
X179070013Y-122962252D01*
X179297748Y-123189987D01*
X179297767Y-123190000D01*
X179297748Y-123190013D01*
X179070013Y-123417748D01*
X178891082Y-123685537D01*
X178767832Y-123983088D01*
X178705000Y-124298967D01*
X178705000Y-124621033D01*
X178767832Y-124936912D01*
X178891082Y-125234463D01*
X179070013Y-125502252D01*
X179297748Y-125729987D01*
X179565537Y-125908918D01*
X179863088Y-126032168D01*
X180178967Y-126095000D01*
X180501033Y-126095000D01*
X180816912Y-126032168D01*
X181114463Y-125908918D01*
X181382252Y-125729987D01*
X181609987Y-125502252D01*
X181610000Y-125502233D01*
X181610013Y-125502252D01*
X181837748Y-125729987D01*
X182105537Y-125908918D01*
X182403088Y-126032168D01*
X182718967Y-126095000D01*
X183041033Y-126095000D01*
X183356912Y-126032168D01*
X183654463Y-125908918D01*
X183922252Y-125729987D01*
X184149987Y-125502252D01*
X184150000Y-125502233D01*
X184150013Y-125502252D01*
X184377748Y-125729987D01*
X184645537Y-125908918D01*
X184943088Y-126032168D01*
X185258967Y-126095000D01*
X185581033Y-126095000D01*
X185896912Y-126032168D01*
X186194463Y-125908918D01*
X186462252Y-125729987D01*
X186689987Y-125502252D01*
X186868918Y-125234463D01*
X186992168Y-124936912D01*
X187055000Y-124621033D01*
X187055000Y-124298967D01*
X186992168Y-123983088D01*
X186868918Y-123685537D01*
X186689987Y-123417748D01*
X186462252Y-123190013D01*
X186462233Y-123190000D01*
X186462252Y-123189987D01*
X186689987Y-122962252D01*
X186868918Y-122694463D01*
X186992168Y-122396912D01*
X187055000Y-122081033D01*
X187055000Y-121758967D01*
X186992168Y-121443088D01*
X186868918Y-121145537D01*
X186689987Y-120877748D01*
X186462252Y-120650013D01*
X186462233Y-120650000D01*
X186462252Y-120649987D01*
X186689987Y-120422252D01*
X186868918Y-120154463D01*
X186992168Y-119856912D01*
X187055000Y-119541033D01*
X187055000Y-119218967D01*
X186992168Y-118903088D01*
X186868918Y-118605537D01*
X186689987Y-118337748D01*
X186462252Y-118110013D01*
X186194463Y-117931082D01*
X185896912Y-117807832D01*
X185581033Y-117745000D01*
X185258967Y-117745000D01*
X184943088Y-117807832D01*
X184645537Y-117931082D01*
X184377748Y-118110013D01*
X184150013Y-118337748D01*
X184150000Y-118337767D01*
X184149987Y-118337748D01*
X183922252Y-118110013D01*
X183654463Y-117931082D01*
X183356912Y-117807832D01*
X183041033Y-117745000D01*
X182718967Y-117745000D01*
X182403088Y-117807832D01*
X182105537Y-117931082D01*
X181837748Y-118110013D01*
X181610013Y-118337748D01*
X181610000Y-118337767D01*
X181609987Y-118337748D01*
X181382252Y-118110013D01*
X181114463Y-117931082D01*
X180816912Y-117807832D01*
X180501033Y-117745000D01*
X180178967Y-117745000D01*
X179863088Y-117807832D01*
X179565537Y-117931082D01*
X179297748Y-118110013D01*
X179070013Y-118337748D01*
X178891082Y-118605537D01*
X178767832Y-118903088D01*
X178705000Y-119218967D01*
X167870920Y-119218967D01*
X166939693Y-118241179D01*
X166910001Y-118204999D01*
X166859288Y-118163380D01*
X166809632Y-118120560D01*
X166801502Y-118115956D01*
X166794276Y-118110026D01*
X166736412Y-118079097D01*
X166679362Y-118046790D01*
X166670493Y-118043862D01*
X166662247Y-118039454D01*
X166599450Y-118020405D01*
X166537204Y-117999853D01*
X166527933Y-117998711D01*
X166518986Y-117995997D01*
X166453680Y-117989565D01*
X166388620Y-117981551D01*
X166341965Y-117985000D01*
X165380844Y-117985000D01*
X165220394Y-117824550D01*
X165161095Y-117784928D01*
X165170546Y-117767247D01*
X165214003Y-117623986D01*
X165225000Y-117512333D01*
X165225000Y-117512324D01*
X165228676Y-117475001D01*
X165225000Y-117437678D01*
X165225000Y-116877333D01*
X165228677Y-116840000D01*
X165214003Y-116691014D01*
X165170546Y-116547753D01*
X165099974Y-116415724D01*
X165028799Y-116328997D01*
X165005001Y-116299999D01*
X164976004Y-116276202D01*
X164393803Y-115694002D01*
X164370001Y-115664999D01*
X164254276Y-115570026D01*
X164122247Y-115499454D01*
X163978986Y-115455997D01*
X163867333Y-115445000D01*
X163867322Y-115445000D01*
X163830000Y-115441324D01*
X163792678Y-115445000D01*
X162840844Y-115445000D01*
X162680394Y-115284550D01*
X162486308Y-115154866D01*
X162270652Y-115065539D01*
X162041712Y-115020000D01*
X161808288Y-115020000D01*
X161579348Y-115065539D01*
X161415000Y-115133614D01*
X161415000Y-114972322D01*
X161418676Y-114934999D01*
X161415000Y-114897676D01*
X161415000Y-114897667D01*
X161404003Y-114786014D01*
X161360546Y-114642753D01*
X161289974Y-114510724D01*
X161195001Y-114394999D01*
X161166003Y-114371201D01*
X160489801Y-113695000D01*
X192305001Y-113695000D01*
X192305000Y-133105000D01*
G37*
%TD.AperFunction*%
%TD*%
M02*
