%TF.GenerationSoftware,KiCad,Pcbnew,5.1.10*%
%TF.CreationDate,2021-12-12T21:50:47+01:00*%
%TF.ProjectId,Magnetbandinterface_4k-System,4d61676e-6574-4626-916e-64696e746572,rev?*%
%TF.SameCoordinates,Original*%
%TF.FileFunction,Copper,L1,Top*%
%TF.FilePolarity,Positive*%
%FSLAX46Y46*%
G04 Gerber Fmt 4.6, Leading zero omitted, Abs format (unit mm)*
G04 Created by KiCad (PCBNEW 5.1.10) date 2021-12-12 21:50:47*
%MOMM*%
%LPD*%
G01*
G04 APERTURE LIST*
%TA.AperFunction,ComponentPad*%
%ADD10C,1.600000*%
%TD*%
%TA.AperFunction,ComponentPad*%
%ADD11C,3.000000*%
%TD*%
%TA.AperFunction,ComponentPad*%
%ADD12C,1.800000*%
%TD*%
%TA.AperFunction,ComponentPad*%
%ADD13R,1.500000X1.500000*%
%TD*%
%TA.AperFunction,ComponentPad*%
%ADD14C,1.500000*%
%TD*%
%TA.AperFunction,ComponentPad*%
%ADD15O,1.600000X1.600000*%
%TD*%
%TA.AperFunction,ComponentPad*%
%ADD16R,1.600000X1.600000*%
%TD*%
%TA.AperFunction,ViaPad*%
%ADD17C,1.200000*%
%TD*%
G04 APERTURE END LIST*
D10*
%TO.P,C14,2*%
%TO.N,Net-(C13-Pad1)*%
X119500000Y-118500000D03*
%TO.P,C14,1*%
%TO.N,Net-(C14-Pad1)*%
X119500000Y-126000000D03*
%TD*%
%TO.P,C13,2*%
%TO.N,GND*%
X117000000Y-128500000D03*
%TO.P,C13,1*%
%TO.N,Net-(C13-Pad1)*%
X117000000Y-121000000D03*
%TD*%
%TO.P,C2,2*%
%TO.N,GND*%
X112000000Y-123500000D03*
%TO.P,C2,1*%
%TO.N,Net-(C2-Pad1)*%
X112000000Y-116000000D03*
%TD*%
D11*
%TO.P,TP10,1*%
%TO.N,/L*%
X132000000Y-103500000D03*
%TD*%
%TO.P,TP9,1*%
%TO.N,+5P*%
X102000000Y-106000000D03*
%TD*%
%TO.P,TP8,1*%
%TO.N,Net-(R4-Pad1)*%
X104500000Y-116000000D03*
%TD*%
%TO.P,TP7,1*%
%TO.N,Net-(C1-Pad1)*%
X102000000Y-101000000D03*
%TD*%
%TO.P,TP6,1*%
%TO.N,GND*%
X104500000Y-121000000D03*
%TD*%
%TO.P,TP5,1*%
%TO.N,/P30*%
X104500000Y-126000000D03*
%TD*%
%TO.P,TP4,1*%
%TO.N,/P36*%
X104500000Y-111500000D03*
%TD*%
%TO.P,TP3,1*%
%TO.N,/A*%
X132000000Y-118500000D03*
%TD*%
%TO.P,TP2,1*%
%TO.N,GND*%
X132000000Y-123500000D03*
%TD*%
%TO.P,TP1,1*%
%TO.N,/E*%
X132000000Y-136000000D03*
%TD*%
D12*
%TO.P,R19,2*%
%TO.N,GND*%
X124500000Y-128500000D03*
%TO.P,R19,1*%
%TO.N,/A*%
X124500000Y-116000000D03*
%TD*%
%TO.P,R18,2*%
%TO.N,GND*%
X129500000Y-116000000D03*
%TO.P,R18,1*%
%TO.N,Net-(C16-Pad1)*%
X129500000Y-128500000D03*
%TD*%
%TO.P,R17,2*%
%TO.N,Net-(C16-Pad1)*%
X129500000Y-131000000D03*
%TO.P,R17,1*%
%TO.N,+5P*%
X129500000Y-143500000D03*
%TD*%
%TO.P,R15,2*%
%TO.N,Net-(C3-Pad2)*%
X104500000Y-131000000D03*
%TO.P,R15,1*%
%TO.N,+5P*%
X104500000Y-143500000D03*
%TD*%
%TO.P,R14,2*%
%TO.N,/P36*%
X107000000Y-106000000D03*
%TO.P,R14,1*%
%TO.N,Net-(C13-Pad1)*%
X107000000Y-118500000D03*
%TD*%
%TO.P,R13,2*%
%TO.N,Net-(C18-Pad1)*%
X117000000Y-103500000D03*
%TO.P,R13,1*%
%TO.N,+5P*%
X104500000Y-103500000D03*
%TD*%
%TO.P,R8,2*%
%TO.N,GND*%
X127000000Y-113500000D03*
%TO.P,R8,1*%
%TO.N,Net-(C3-Pad1)*%
X127000000Y-126000000D03*
%TD*%
%TO.P,R7,2*%
%TO.N,Net-(C3-Pad1)*%
X127000000Y-128500000D03*
%TO.P,R7,1*%
%TO.N,+5P*%
X127000000Y-141000000D03*
%TD*%
%TO.P,R6,2*%
%TO.N,/A*%
X122000000Y-113500000D03*
%TO.P,R6,1*%
%TO.N,Net-(C14-Pad1)*%
X122000000Y-126000000D03*
%TD*%
%TO.P,R5,2*%
%TO.N,GND*%
X114500000Y-126000000D03*
%TO.P,R5,1*%
%TO.N,Net-(C2-Pad1)*%
X114500000Y-113500000D03*
%TD*%
%TO.P,R4,2*%
%TO.N,GND*%
X109500000Y-121000000D03*
%TO.P,R4,1*%
%TO.N,Net-(R4-Pad1)*%
X109500000Y-108500000D03*
%TD*%
%TO.P,R3,2*%
%TO.N,/P36*%
X109500000Y-106000000D03*
%TO.P,R3,1*%
%TO.N,Net-(R3-Pad1)*%
X122000000Y-106000000D03*
%TD*%
%TO.P,R2,2*%
%TO.N,/P36*%
X117000000Y-109500000D03*
%TO.P,R2,1*%
%TO.N,+5P*%
X129500000Y-109500000D03*
%TD*%
%TO.P,R1,2*%
%TO.N,Net-(C1-Pad2)*%
X119500000Y-111500000D03*
%TO.P,R1,1*%
%TO.N,+5P*%
X132000000Y-111500000D03*
%TD*%
D13*
%TO.P,T2,1*%
%TO.N,Net-(C2-Pad1)*%
X112000000Y-111500000D03*
D14*
%TO.P,T2,3*%
%TO.N,Net-(C1-Pad2)*%
X117080000Y-111500000D03*
%TO.P,T2,2*%
%TO.N,Net-(R4-Pad1)*%
X114540000Y-111500000D03*
%TD*%
D13*
%TO.P,T1,1*%
%TO.N,GND*%
X124500000Y-106000000D03*
D14*
%TO.P,T1,3*%
%TO.N,Net-(C18-Pad1)*%
X129580000Y-106000000D03*
%TO.P,T1,2*%
%TO.N,Net-(R3-Pad1)*%
X127040000Y-106000000D03*
%TD*%
D15*
%TO.P,U18,6*%
%TO.N,Net-(U18-Pad6)*%
X116880000Y-136000000D03*
%TO.P,U18,3*%
%TO.N,Net-(C3-Pad1)*%
X124500000Y-130920000D03*
%TO.P,U18,5*%
%TO.N,Net-(C3-Pad2)*%
X116880000Y-133460000D03*
%TO.P,U18,2*%
%TO.N,Net-(C16-Pad1)*%
X124500000Y-133460000D03*
%TO.P,U18,4*%
%TO.N,GND*%
X116880000Y-130920000D03*
D16*
%TO.P,U18,1*%
%TO.N,+5P*%
X124500000Y-136000000D03*
%TD*%
D15*
%TO.P,U17,8*%
%TO.N,+5P*%
X106880000Y-136000000D03*
%TO.P,U17,4*%
X114500000Y-128380000D03*
%TO.P,U17,7*%
%TO.N,Net-(U17-Pad7)*%
X106880000Y-133460000D03*
%TO.P,U17,3*%
%TO.N,/P30*%
X114500000Y-130920000D03*
%TO.P,U17,6*%
%TO.N,Net-(C3-Pad2)*%
X106880000Y-130920000D03*
%TO.P,U17,2*%
X114500000Y-133460000D03*
%TO.P,U17,5*%
%TO.N,Net-(U17-Pad5)*%
X106880000Y-128380000D03*
D16*
%TO.P,U17,1*%
%TO.N,GND*%
X114500000Y-136000000D03*
%TD*%
D10*
%TO.P,C18,2*%
%TO.N,/L*%
X127000000Y-101000000D03*
D16*
%TO.P,C18,1*%
%TO.N,Net-(C18-Pad1)*%
X124500000Y-101000000D03*
%TD*%
D10*
%TO.P,C17,2*%
%TO.N,GND*%
X109500000Y-141000000D03*
D16*
%TO.P,C17,1*%
%TO.N,+5P*%
X109500000Y-143500000D03*
%TD*%
D10*
%TO.P,C16,2*%
%TO.N,/E*%
X132000000Y-131000000D03*
D16*
%TO.P,C16,1*%
%TO.N,Net-(C16-Pad1)*%
X132000000Y-128500000D03*
%TD*%
D10*
%TO.P,C3,2*%
%TO.N,Net-(C3-Pad2)*%
X114000000Y-141000000D03*
%TO.P,C3,1*%
%TO.N,Net-(C3-Pad1)*%
X119000000Y-141000000D03*
%TD*%
%TO.P,C1,2*%
%TO.N,Net-(C1-Pad2)*%
X112000000Y-101000000D03*
D16*
%TO.P,C1,1*%
%TO.N,Net-(C1-Pad1)*%
X109500000Y-101000000D03*
%TD*%
D17*
%TO.N,Net-(C3-Pad1)*%
X124500000Y-141000000D03*
%TO.N,Net-(C13-Pad1)*%
X119500000Y-122500000D03*
X117000000Y-125000000D03*
%TD*%
M02*
