%TF.GenerationSoftware,KiCad,Pcbnew,5.1.10*%
%TF.CreationDate,2021-12-12T21:50:47+01:00*%
%TF.ProjectId,Magnetbandinterface_4k-System,4d61676e-6574-4626-916e-64696e746572,rev?*%
%TF.SameCoordinates,Original*%
%TF.FileFunction,Legend,Top*%
%TF.FilePolarity,Positive*%
%FSLAX46Y46*%
G04 Gerber Fmt 4.6, Leading zero omitted, Abs format (unit mm)*
G04 Created by KiCad (PCBNEW 5.1.10) date 2021-12-12 21:50:47*
%MOMM*%
%LPD*%
G01*
G04 APERTURE LIST*
%ADD10C,0.150000*%
%ADD11C,0.120000*%
G04 APERTURE END LIST*
D10*
X101047619Y-124547619D02*
X102047619Y-124547619D01*
X102047619Y-124928571D01*
X102000000Y-125023809D01*
X101952380Y-125071428D01*
X101857142Y-125119047D01*
X101714285Y-125119047D01*
X101619047Y-125071428D01*
X101571428Y-125023809D01*
X101523809Y-124928571D01*
X101523809Y-124547619D01*
X102047619Y-125452380D02*
X102047619Y-126071428D01*
X101666666Y-125738095D01*
X101666666Y-125880952D01*
X101619047Y-125976190D01*
X101571428Y-126023809D01*
X101476190Y-126071428D01*
X101238095Y-126071428D01*
X101142857Y-126023809D01*
X101095238Y-125976190D01*
X101047619Y-125880952D01*
X101047619Y-125595238D01*
X101095238Y-125500000D01*
X101142857Y-125452380D01*
X101142857Y-126500000D02*
X101095238Y-126547619D01*
X101047619Y-126500000D01*
X101095238Y-126452380D01*
X101142857Y-126500000D01*
X101047619Y-126500000D01*
X102047619Y-127166666D02*
X102047619Y-127261904D01*
X102000000Y-127357142D01*
X101952380Y-127404761D01*
X101857142Y-127452380D01*
X101666666Y-127500000D01*
X101428571Y-127500000D01*
X101238095Y-127452380D01*
X101142857Y-127404761D01*
X101095238Y-127357142D01*
X101047619Y-127261904D01*
X101047619Y-127166666D01*
X101095238Y-127071428D01*
X101142857Y-127023809D01*
X101238095Y-126976190D01*
X101428571Y-126928571D01*
X101666666Y-126928571D01*
X101857142Y-126976190D01*
X101952380Y-127023809D01*
X102000000Y-127071428D01*
X102047619Y-127166666D01*
X102047619Y-120476190D02*
X102047619Y-120571428D01*
X102000000Y-120666666D01*
X101952380Y-120714285D01*
X101857142Y-120761904D01*
X101666666Y-120809523D01*
X101428571Y-120809523D01*
X101238095Y-120761904D01*
X101142857Y-120714285D01*
X101095238Y-120666666D01*
X101047619Y-120571428D01*
X101047619Y-120476190D01*
X101095238Y-120380952D01*
X101142857Y-120333333D01*
X101238095Y-120285714D01*
X101428571Y-120238095D01*
X101666666Y-120238095D01*
X101857142Y-120285714D01*
X101952380Y-120333333D01*
X102000000Y-120380952D01*
X102047619Y-120476190D01*
X102047619Y-121428571D02*
X102047619Y-121523809D01*
X102000000Y-121619047D01*
X101952380Y-121666666D01*
X101857142Y-121714285D01*
X101666666Y-121761904D01*
X101428571Y-121761904D01*
X101238095Y-121714285D01*
X101142857Y-121666666D01*
X101095238Y-121619047D01*
X101047619Y-121523809D01*
X101047619Y-121428571D01*
X101095238Y-121333333D01*
X101142857Y-121285714D01*
X101238095Y-121238095D01*
X101428571Y-121190476D01*
X101666666Y-121190476D01*
X101857142Y-121238095D01*
X101952380Y-121285714D01*
X102000000Y-121333333D01*
X102047619Y-121428571D01*
X102047619Y-115666666D02*
X101047619Y-116000000D01*
X102047619Y-116333333D01*
X101047619Y-110047619D02*
X102047619Y-110047619D01*
X102047619Y-110428571D01*
X102000000Y-110523809D01*
X101952380Y-110571428D01*
X101857142Y-110619047D01*
X101714285Y-110619047D01*
X101619047Y-110571428D01*
X101571428Y-110523809D01*
X101523809Y-110428571D01*
X101523809Y-110047619D01*
X102047619Y-110952380D02*
X102047619Y-111571428D01*
X101666666Y-111238095D01*
X101666666Y-111380952D01*
X101619047Y-111476190D01*
X101571428Y-111523809D01*
X101476190Y-111571428D01*
X101238095Y-111571428D01*
X101142857Y-111523809D01*
X101095238Y-111476190D01*
X101047619Y-111380952D01*
X101047619Y-111095238D01*
X101095238Y-111000000D01*
X101142857Y-110952380D01*
X101142857Y-112000000D02*
X101095238Y-112047619D01*
X101047619Y-112000000D01*
X101095238Y-111952380D01*
X101142857Y-112000000D01*
X101047619Y-112000000D01*
X102047619Y-112904761D02*
X102047619Y-112714285D01*
X102000000Y-112619047D01*
X101952380Y-112571428D01*
X101809523Y-112476190D01*
X101619047Y-112428571D01*
X101238095Y-112428571D01*
X101142857Y-112476190D01*
X101095238Y-112523809D01*
X101047619Y-112619047D01*
X101047619Y-112809523D01*
X101095238Y-112904761D01*
X101142857Y-112952380D01*
X101238095Y-113000000D01*
X101476190Y-113000000D01*
X101571428Y-112952380D01*
X101619047Y-112904761D01*
X101666666Y-112809523D01*
X101666666Y-112619047D01*
X101619047Y-112523809D01*
X101571428Y-112476190D01*
X101476190Y-112428571D01*
X105047619Y-105738095D02*
X105047619Y-105261904D01*
X104571428Y-105214285D01*
X104619047Y-105261904D01*
X104666666Y-105357142D01*
X104666666Y-105595238D01*
X104619047Y-105690476D01*
X104571428Y-105738095D01*
X104476190Y-105785714D01*
X104238095Y-105785714D01*
X104142857Y-105738095D01*
X104095238Y-105690476D01*
X104047619Y-105595238D01*
X104047619Y-105357142D01*
X104095238Y-105261904D01*
X104142857Y-105214285D01*
X104047619Y-106214285D02*
X105047619Y-106214285D01*
X105047619Y-106595238D01*
X105000000Y-106690476D01*
X104952380Y-106738095D01*
X104857142Y-106785714D01*
X104714285Y-106785714D01*
X104619047Y-106738095D01*
X104571428Y-106690476D01*
X104523809Y-106595238D01*
X104523809Y-106214285D01*
X104571428Y-100166666D02*
X104523809Y-100309523D01*
X104476190Y-100357142D01*
X104380952Y-100404761D01*
X104238095Y-100404761D01*
X104142857Y-100357142D01*
X104095238Y-100309523D01*
X104047619Y-100214285D01*
X104047619Y-99833333D01*
X105047619Y-99833333D01*
X105047619Y-100166666D01*
X105000000Y-100261904D01*
X104952380Y-100309523D01*
X104857142Y-100357142D01*
X104761904Y-100357142D01*
X104666666Y-100309523D01*
X104619047Y-100261904D01*
X104571428Y-100166666D01*
X104571428Y-99833333D01*
X104333333Y-100785714D02*
X104333333Y-101261904D01*
X104047619Y-100690476D02*
X105047619Y-101023809D01*
X104047619Y-101357142D01*
X104095238Y-101642857D02*
X104047619Y-101785714D01*
X104047619Y-102023809D01*
X104095238Y-102119047D01*
X104142857Y-102166666D01*
X104238095Y-102214285D01*
X104333333Y-102214285D01*
X104428571Y-102166666D01*
X104476190Y-102119047D01*
X104523809Y-102023809D01*
X104571428Y-101833333D01*
X104619047Y-101738095D01*
X104666666Y-101690476D01*
X104761904Y-101642857D01*
X104857142Y-101642857D01*
X104952380Y-101690476D01*
X105000000Y-101738095D01*
X105047619Y-101833333D01*
X105047619Y-102071428D01*
X105000000Y-102214285D01*
X131785714Y-138428571D02*
X132119047Y-138428571D01*
X132261904Y-138952380D02*
X131785714Y-138952380D01*
X131785714Y-137952380D01*
X132261904Y-137952380D01*
X132309523Y-100952380D02*
X131833333Y-100952380D01*
X131833333Y-99952380D01*
D11*
%TO.C,C14*%
X120165000Y-117630000D02*
X120870000Y-117630000D01*
X118130000Y-117630000D02*
X118835000Y-117630000D01*
X120165000Y-126870000D02*
X120870000Y-126870000D01*
X118130000Y-126870000D02*
X118835000Y-126870000D01*
X120870000Y-126870000D02*
X120870000Y-117630000D01*
X118130000Y-126870000D02*
X118130000Y-117630000D01*
%TO.C,C13*%
X116335000Y-129370000D02*
X115630000Y-129370000D01*
X118370000Y-129370000D02*
X117665000Y-129370000D01*
X116335000Y-120130000D02*
X115630000Y-120130000D01*
X118370000Y-120130000D02*
X117665000Y-120130000D01*
X115630000Y-120130000D02*
X115630000Y-129370000D01*
X118370000Y-120130000D02*
X118370000Y-129370000D01*
%TO.C,C2*%
X111335000Y-124370000D02*
X110630000Y-124370000D01*
X113370000Y-124370000D02*
X112665000Y-124370000D01*
X111335000Y-115130000D02*
X110630000Y-115130000D01*
X113370000Y-115130000D02*
X112665000Y-115130000D01*
X110630000Y-115130000D02*
X110630000Y-124370000D01*
X113370000Y-115130000D02*
X113370000Y-124370000D01*
%TO.C,TP10*%
X133700000Y-103500000D02*
G75*
G03*
X133700000Y-103500000I-1700000J0D01*
G01*
%TO.C,TP9*%
X103700000Y-106000000D02*
G75*
G03*
X103700000Y-106000000I-1700000J0D01*
G01*
%TO.C,TP8*%
X106200000Y-116000000D02*
G75*
G03*
X106200000Y-116000000I-1700000J0D01*
G01*
%TO.C,TP7*%
X103700000Y-101000000D02*
G75*
G03*
X103700000Y-101000000I-1700000J0D01*
G01*
%TO.C,TP6*%
X106200000Y-121000000D02*
G75*
G03*
X106200000Y-121000000I-1700000J0D01*
G01*
%TO.C,TP5*%
X106200000Y-126000000D02*
G75*
G03*
X106200000Y-126000000I-1700000J0D01*
G01*
%TO.C,TP4*%
X106200000Y-111500000D02*
G75*
G03*
X106200000Y-111500000I-1700000J0D01*
G01*
%TO.C,TP3*%
X133700000Y-118500000D02*
G75*
G03*
X133700000Y-118500000I-1700000J0D01*
G01*
%TO.C,TP2*%
X133700000Y-123500000D02*
G75*
G03*
X133700000Y-123500000I-1700000J0D01*
G01*
%TO.C,TP1*%
X133700000Y-136000000D02*
G75*
G03*
X133700000Y-136000000I-1700000J0D01*
G01*
%TO.C,R19*%
X125140000Y-119180000D02*
X125620000Y-119180000D01*
X125620000Y-119180000D02*
X125620000Y-125320000D01*
X125620000Y-125320000D02*
X125140000Y-125320000D01*
X123860000Y-119180000D02*
X123380000Y-119180000D01*
X123380000Y-119180000D02*
X123380000Y-125320000D01*
X123380000Y-125320000D02*
X123860000Y-125320000D01*
%TO.C,R18*%
X128860000Y-125320000D02*
X128380000Y-125320000D01*
X128380000Y-125320000D02*
X128380000Y-119180000D01*
X128380000Y-119180000D02*
X128860000Y-119180000D01*
X130140000Y-125320000D02*
X130620000Y-125320000D01*
X130620000Y-125320000D02*
X130620000Y-119180000D01*
X130620000Y-119180000D02*
X130140000Y-119180000D01*
%TO.C,R17*%
X128860000Y-140320000D02*
X128380000Y-140320000D01*
X128380000Y-140320000D02*
X128380000Y-134180000D01*
X128380000Y-134180000D02*
X128860000Y-134180000D01*
X130140000Y-140320000D02*
X130620000Y-140320000D01*
X130620000Y-140320000D02*
X130620000Y-134180000D01*
X130620000Y-134180000D02*
X130140000Y-134180000D01*
%TO.C,R15*%
X103860000Y-140320000D02*
X103380000Y-140320000D01*
X103380000Y-140320000D02*
X103380000Y-134180000D01*
X103380000Y-134180000D02*
X103860000Y-134180000D01*
X105140000Y-140320000D02*
X105620000Y-140320000D01*
X105620000Y-140320000D02*
X105620000Y-134180000D01*
X105620000Y-134180000D02*
X105140000Y-134180000D01*
%TO.C,R14*%
X106360000Y-115320000D02*
X105880000Y-115320000D01*
X105880000Y-115320000D02*
X105880000Y-109180000D01*
X105880000Y-109180000D02*
X106360000Y-109180000D01*
X107640000Y-115320000D02*
X108120000Y-115320000D01*
X108120000Y-115320000D02*
X108120000Y-109180000D01*
X108120000Y-109180000D02*
X107640000Y-109180000D01*
%TO.C,R13*%
X107680000Y-102860000D02*
X107680000Y-102380000D01*
X107680000Y-102380000D02*
X113820000Y-102380000D01*
X113820000Y-102380000D02*
X113820000Y-102860000D01*
X107680000Y-104140000D02*
X107680000Y-104620000D01*
X107680000Y-104620000D02*
X113820000Y-104620000D01*
X113820000Y-104620000D02*
X113820000Y-104140000D01*
%TO.C,R8*%
X126360000Y-122820000D02*
X125880000Y-122820000D01*
X125880000Y-122820000D02*
X125880000Y-116680000D01*
X125880000Y-116680000D02*
X126360000Y-116680000D01*
X127640000Y-122820000D02*
X128120000Y-122820000D01*
X128120000Y-122820000D02*
X128120000Y-116680000D01*
X128120000Y-116680000D02*
X127640000Y-116680000D01*
%TO.C,R7*%
X126360000Y-137820000D02*
X125880000Y-137820000D01*
X125880000Y-137820000D02*
X125880000Y-131680000D01*
X125880000Y-131680000D02*
X126360000Y-131680000D01*
X127640000Y-137820000D02*
X128120000Y-137820000D01*
X128120000Y-137820000D02*
X128120000Y-131680000D01*
X128120000Y-131680000D02*
X127640000Y-131680000D01*
%TO.C,R6*%
X121360000Y-122820000D02*
X120880000Y-122820000D01*
X120880000Y-122820000D02*
X120880000Y-116680000D01*
X120880000Y-116680000D02*
X121360000Y-116680000D01*
X122640000Y-122820000D02*
X123120000Y-122820000D01*
X123120000Y-122820000D02*
X123120000Y-116680000D01*
X123120000Y-116680000D02*
X122640000Y-116680000D01*
%TO.C,R5*%
X115140000Y-116680000D02*
X115620000Y-116680000D01*
X115620000Y-116680000D02*
X115620000Y-122820000D01*
X115620000Y-122820000D02*
X115140000Y-122820000D01*
X113860000Y-116680000D02*
X113380000Y-116680000D01*
X113380000Y-116680000D02*
X113380000Y-122820000D01*
X113380000Y-122820000D02*
X113860000Y-122820000D01*
%TO.C,R4*%
X110140000Y-111680000D02*
X110620000Y-111680000D01*
X110620000Y-111680000D02*
X110620000Y-117820000D01*
X110620000Y-117820000D02*
X110140000Y-117820000D01*
X108860000Y-111680000D02*
X108380000Y-111680000D01*
X108380000Y-111680000D02*
X108380000Y-117820000D01*
X108380000Y-117820000D02*
X108860000Y-117820000D01*
%TO.C,R3*%
X118820000Y-106640000D02*
X118820000Y-107120000D01*
X118820000Y-107120000D02*
X112680000Y-107120000D01*
X112680000Y-107120000D02*
X112680000Y-106640000D01*
X118820000Y-105360000D02*
X118820000Y-104880000D01*
X118820000Y-104880000D02*
X112680000Y-104880000D01*
X112680000Y-104880000D02*
X112680000Y-105360000D01*
%TO.C,R2*%
X126320000Y-110140000D02*
X126320000Y-110620000D01*
X126320000Y-110620000D02*
X120180000Y-110620000D01*
X120180000Y-110620000D02*
X120180000Y-110140000D01*
X126320000Y-108860000D02*
X126320000Y-108380000D01*
X126320000Y-108380000D02*
X120180000Y-108380000D01*
X120180000Y-108380000D02*
X120180000Y-108860000D01*
%TO.C,R1*%
X128820000Y-112140000D02*
X128820000Y-112620000D01*
X128820000Y-112620000D02*
X122680000Y-112620000D01*
X122680000Y-112620000D02*
X122680000Y-112140000D01*
X128820000Y-110860000D02*
X128820000Y-110380000D01*
X128820000Y-110380000D02*
X122680000Y-110380000D01*
X122680000Y-110380000D02*
X122680000Y-110860000D01*
%TO.C,T2*%
X112740000Y-113350000D02*
X116340000Y-113350000D01*
X116864184Y-112622795D02*
G75*
G02*
X116340000Y-113350000I-2324184J1122795D01*
G01*
X116896400Y-110401193D02*
G75*
G03*
X114540000Y-108900000I-2356400J-1098807D01*
G01*
X112183600Y-110401193D02*
G75*
G02*
X114540000Y-108900000I2356400J-1098807D01*
G01*
X112215816Y-112622795D02*
G75*
G03*
X112740000Y-113350000I2324184J1122795D01*
G01*
%TO.C,T1*%
X125240000Y-107850000D02*
X128840000Y-107850000D01*
X129364184Y-107122795D02*
G75*
G02*
X128840000Y-107850000I-2324184J1122795D01*
G01*
X129396400Y-104901193D02*
G75*
G03*
X127040000Y-103400000I-2356400J-1098807D01*
G01*
X124683600Y-104901193D02*
G75*
G02*
X127040000Y-103400000I2356400J-1098807D01*
G01*
X124715816Y-107122795D02*
G75*
G03*
X125240000Y-107850000I2324184J1122795D01*
G01*
%TO.C,U18*%
X118040000Y-137330000D02*
X119690000Y-137330000D01*
X118040000Y-129590000D02*
X118040000Y-137330000D01*
X123340000Y-129590000D02*
X118040000Y-129590000D01*
X123340000Y-137330000D02*
X123340000Y-129590000D01*
X121690000Y-137330000D02*
X123340000Y-137330000D01*
X119690000Y-137330000D02*
G75*
G02*
X121690000Y-137330000I1000000J0D01*
G01*
%TO.C,U17*%
X108040000Y-137330000D02*
X109690000Y-137330000D01*
X108040000Y-127050000D02*
X108040000Y-137330000D01*
X113340000Y-127050000D02*
X108040000Y-127050000D01*
X113340000Y-137330000D02*
X113340000Y-127050000D01*
X111690000Y-137330000D02*
X113340000Y-137330000D01*
X109690000Y-137330000D02*
G75*
G02*
X111690000Y-137330000I1000000J0D01*
G01*
%TO.C,C18*%
X122564759Y-98846000D02*
X122564759Y-99476000D01*
X122249759Y-99161000D02*
X122879759Y-99161000D01*
X128991000Y-100598000D02*
X128991000Y-101402000D01*
X128951000Y-100367000D02*
X128951000Y-101633000D01*
X128911000Y-100198000D02*
X128911000Y-101802000D01*
X128871000Y-100060000D02*
X128871000Y-101940000D01*
X128831000Y-99941000D02*
X128831000Y-102059000D01*
X128791000Y-99835000D02*
X128791000Y-102165000D01*
X128751000Y-99738000D02*
X128751000Y-102262000D01*
X128711000Y-99650000D02*
X128711000Y-102350000D01*
X128671000Y-99568000D02*
X128671000Y-102432000D01*
X128631000Y-99491000D02*
X128631000Y-102509000D01*
X128591000Y-99419000D02*
X128591000Y-102581000D01*
X128551000Y-99350000D02*
X128551000Y-102650000D01*
X128511000Y-99286000D02*
X128511000Y-102714000D01*
X128471000Y-99224000D02*
X128471000Y-102776000D01*
X128431000Y-99166000D02*
X128431000Y-102834000D01*
X128391000Y-99110000D02*
X128391000Y-102890000D01*
X128351000Y-99056000D02*
X128351000Y-102944000D01*
X128311000Y-99005000D02*
X128311000Y-102995000D01*
X128271000Y-98956000D02*
X128271000Y-103044000D01*
X128231000Y-98908000D02*
X128231000Y-103092000D01*
X128191000Y-98863000D02*
X128191000Y-103137000D01*
X128151000Y-98818000D02*
X128151000Y-103182000D01*
X128111000Y-98776000D02*
X128111000Y-103224000D01*
X128071000Y-98735000D02*
X128071000Y-103265000D01*
X128031000Y-102040000D02*
X128031000Y-103305000D01*
X128031000Y-98695000D02*
X128031000Y-99960000D01*
X127991000Y-102040000D02*
X127991000Y-103343000D01*
X127991000Y-98657000D02*
X127991000Y-99960000D01*
X127951000Y-102040000D02*
X127951000Y-103380000D01*
X127951000Y-98620000D02*
X127951000Y-99960000D01*
X127911000Y-102040000D02*
X127911000Y-103416000D01*
X127911000Y-98584000D02*
X127911000Y-99960000D01*
X127871000Y-102040000D02*
X127871000Y-103450000D01*
X127871000Y-98550000D02*
X127871000Y-99960000D01*
X127831000Y-102040000D02*
X127831000Y-103484000D01*
X127831000Y-98516000D02*
X127831000Y-99960000D01*
X127791000Y-102040000D02*
X127791000Y-103516000D01*
X127791000Y-98484000D02*
X127791000Y-99960000D01*
X127751000Y-102040000D02*
X127751000Y-103548000D01*
X127751000Y-98452000D02*
X127751000Y-99960000D01*
X127711000Y-102040000D02*
X127711000Y-103578000D01*
X127711000Y-98422000D02*
X127711000Y-99960000D01*
X127671000Y-102040000D02*
X127671000Y-103607000D01*
X127671000Y-98393000D02*
X127671000Y-99960000D01*
X127631000Y-102040000D02*
X127631000Y-103636000D01*
X127631000Y-98364000D02*
X127631000Y-99960000D01*
X127591000Y-102040000D02*
X127591000Y-103664000D01*
X127591000Y-98336000D02*
X127591000Y-99960000D01*
X127551000Y-102040000D02*
X127551000Y-103690000D01*
X127551000Y-98310000D02*
X127551000Y-99960000D01*
X127511000Y-102040000D02*
X127511000Y-103716000D01*
X127511000Y-98284000D02*
X127511000Y-99960000D01*
X127471000Y-102040000D02*
X127471000Y-103742000D01*
X127471000Y-98258000D02*
X127471000Y-99960000D01*
X127431000Y-102040000D02*
X127431000Y-103766000D01*
X127431000Y-98234000D02*
X127431000Y-99960000D01*
X127391000Y-102040000D02*
X127391000Y-103790000D01*
X127391000Y-98210000D02*
X127391000Y-99960000D01*
X127351000Y-102040000D02*
X127351000Y-103812000D01*
X127351000Y-98188000D02*
X127351000Y-99960000D01*
X127311000Y-102040000D02*
X127311000Y-103834000D01*
X127311000Y-98166000D02*
X127311000Y-99960000D01*
X127271000Y-102040000D02*
X127271000Y-103856000D01*
X127271000Y-98144000D02*
X127271000Y-99960000D01*
X127231000Y-102040000D02*
X127231000Y-103876000D01*
X127231000Y-98124000D02*
X127231000Y-99960000D01*
X127191000Y-102040000D02*
X127191000Y-103896000D01*
X127191000Y-98104000D02*
X127191000Y-99960000D01*
X127151000Y-102040000D02*
X127151000Y-103916000D01*
X127151000Y-98084000D02*
X127151000Y-99960000D01*
X127111000Y-102040000D02*
X127111000Y-103934000D01*
X127111000Y-98066000D02*
X127111000Y-99960000D01*
X127071000Y-102040000D02*
X127071000Y-103952000D01*
X127071000Y-98048000D02*
X127071000Y-99960000D01*
X127031000Y-102040000D02*
X127031000Y-103970000D01*
X127031000Y-98030000D02*
X127031000Y-99960000D01*
X126991000Y-102040000D02*
X126991000Y-103986000D01*
X126991000Y-98014000D02*
X126991000Y-99960000D01*
X126951000Y-102040000D02*
X126951000Y-104002000D01*
X126951000Y-97998000D02*
X126951000Y-99960000D01*
X126911000Y-102040000D02*
X126911000Y-104018000D01*
X126911000Y-97982000D02*
X126911000Y-99960000D01*
X126871000Y-102040000D02*
X126871000Y-104033000D01*
X126871000Y-97967000D02*
X126871000Y-99960000D01*
X126831000Y-102040000D02*
X126831000Y-104047000D01*
X126831000Y-97953000D02*
X126831000Y-99960000D01*
X126791000Y-102040000D02*
X126791000Y-104061000D01*
X126791000Y-97939000D02*
X126791000Y-99960000D01*
X126751000Y-102040000D02*
X126751000Y-104074000D01*
X126751000Y-97926000D02*
X126751000Y-99960000D01*
X126711000Y-102040000D02*
X126711000Y-104086000D01*
X126711000Y-97914000D02*
X126711000Y-99960000D01*
X126671000Y-102040000D02*
X126671000Y-104098000D01*
X126671000Y-97902000D02*
X126671000Y-99960000D01*
X126631000Y-102040000D02*
X126631000Y-104110000D01*
X126631000Y-97890000D02*
X126631000Y-99960000D01*
X126591000Y-102040000D02*
X126591000Y-104121000D01*
X126591000Y-97879000D02*
X126591000Y-99960000D01*
X126551000Y-102040000D02*
X126551000Y-104131000D01*
X126551000Y-97869000D02*
X126551000Y-99960000D01*
X126511000Y-102040000D02*
X126511000Y-104141000D01*
X126511000Y-97859000D02*
X126511000Y-99960000D01*
X126471000Y-102040000D02*
X126471000Y-104150000D01*
X126471000Y-97850000D02*
X126471000Y-99960000D01*
X126430000Y-102040000D02*
X126430000Y-104159000D01*
X126430000Y-97841000D02*
X126430000Y-99960000D01*
X126390000Y-102040000D02*
X126390000Y-104167000D01*
X126390000Y-97833000D02*
X126390000Y-99960000D01*
X126350000Y-102040000D02*
X126350000Y-104175000D01*
X126350000Y-97825000D02*
X126350000Y-99960000D01*
X126310000Y-102040000D02*
X126310000Y-104182000D01*
X126310000Y-97818000D02*
X126310000Y-99960000D01*
X126270000Y-102040000D02*
X126270000Y-104189000D01*
X126270000Y-97811000D02*
X126270000Y-99960000D01*
X126230000Y-102040000D02*
X126230000Y-104195000D01*
X126230000Y-97805000D02*
X126230000Y-99960000D01*
X126190000Y-102040000D02*
X126190000Y-104201000D01*
X126190000Y-97799000D02*
X126190000Y-99960000D01*
X126150000Y-102040000D02*
X126150000Y-104206000D01*
X126150000Y-97794000D02*
X126150000Y-99960000D01*
X126110000Y-102040000D02*
X126110000Y-104211000D01*
X126110000Y-97789000D02*
X126110000Y-99960000D01*
X126070000Y-102040000D02*
X126070000Y-104215000D01*
X126070000Y-97785000D02*
X126070000Y-99960000D01*
X126030000Y-102040000D02*
X126030000Y-104218000D01*
X126030000Y-97782000D02*
X126030000Y-99960000D01*
X125990000Y-102040000D02*
X125990000Y-104222000D01*
X125990000Y-97778000D02*
X125990000Y-99960000D01*
X125950000Y-97776000D02*
X125950000Y-104224000D01*
X125910000Y-97773000D02*
X125910000Y-104227000D01*
X125870000Y-97772000D02*
X125870000Y-104228000D01*
X125830000Y-97770000D02*
X125830000Y-104230000D01*
X125790000Y-97770000D02*
X125790000Y-104230000D01*
X125750000Y-97770000D02*
X125750000Y-104230000D01*
X129020000Y-101000000D02*
G75*
G03*
X129020000Y-101000000I-3270000J0D01*
G01*
%TO.C,C17*%
X107346000Y-145435241D02*
X107976000Y-145435241D01*
X107661000Y-145750241D02*
X107661000Y-145120241D01*
X109098000Y-139009000D02*
X109902000Y-139009000D01*
X108867000Y-139049000D02*
X110133000Y-139049000D01*
X108698000Y-139089000D02*
X110302000Y-139089000D01*
X108560000Y-139129000D02*
X110440000Y-139129000D01*
X108441000Y-139169000D02*
X110559000Y-139169000D01*
X108335000Y-139209000D02*
X110665000Y-139209000D01*
X108238000Y-139249000D02*
X110762000Y-139249000D01*
X108150000Y-139289000D02*
X110850000Y-139289000D01*
X108068000Y-139329000D02*
X110932000Y-139329000D01*
X107991000Y-139369000D02*
X111009000Y-139369000D01*
X107919000Y-139409000D02*
X111081000Y-139409000D01*
X107850000Y-139449000D02*
X111150000Y-139449000D01*
X107786000Y-139489000D02*
X111214000Y-139489000D01*
X107724000Y-139529000D02*
X111276000Y-139529000D01*
X107666000Y-139569000D02*
X111334000Y-139569000D01*
X107610000Y-139609000D02*
X111390000Y-139609000D01*
X107556000Y-139649000D02*
X111444000Y-139649000D01*
X107505000Y-139689000D02*
X111495000Y-139689000D01*
X107456000Y-139729000D02*
X111544000Y-139729000D01*
X107408000Y-139769000D02*
X111592000Y-139769000D01*
X107363000Y-139809000D02*
X111637000Y-139809000D01*
X107318000Y-139849000D02*
X111682000Y-139849000D01*
X107276000Y-139889000D02*
X111724000Y-139889000D01*
X107235000Y-139929000D02*
X111765000Y-139929000D01*
X110540000Y-139969000D02*
X111805000Y-139969000D01*
X107195000Y-139969000D02*
X108460000Y-139969000D01*
X110540000Y-140009000D02*
X111843000Y-140009000D01*
X107157000Y-140009000D02*
X108460000Y-140009000D01*
X110540000Y-140049000D02*
X111880000Y-140049000D01*
X107120000Y-140049000D02*
X108460000Y-140049000D01*
X110540000Y-140089000D02*
X111916000Y-140089000D01*
X107084000Y-140089000D02*
X108460000Y-140089000D01*
X110540000Y-140129000D02*
X111950000Y-140129000D01*
X107050000Y-140129000D02*
X108460000Y-140129000D01*
X110540000Y-140169000D02*
X111984000Y-140169000D01*
X107016000Y-140169000D02*
X108460000Y-140169000D01*
X110540000Y-140209000D02*
X112016000Y-140209000D01*
X106984000Y-140209000D02*
X108460000Y-140209000D01*
X110540000Y-140249000D02*
X112048000Y-140249000D01*
X106952000Y-140249000D02*
X108460000Y-140249000D01*
X110540000Y-140289000D02*
X112078000Y-140289000D01*
X106922000Y-140289000D02*
X108460000Y-140289000D01*
X110540000Y-140329000D02*
X112107000Y-140329000D01*
X106893000Y-140329000D02*
X108460000Y-140329000D01*
X110540000Y-140369000D02*
X112136000Y-140369000D01*
X106864000Y-140369000D02*
X108460000Y-140369000D01*
X110540000Y-140409000D02*
X112164000Y-140409000D01*
X106836000Y-140409000D02*
X108460000Y-140409000D01*
X110540000Y-140449000D02*
X112190000Y-140449000D01*
X106810000Y-140449000D02*
X108460000Y-140449000D01*
X110540000Y-140489000D02*
X112216000Y-140489000D01*
X106784000Y-140489000D02*
X108460000Y-140489000D01*
X110540000Y-140529000D02*
X112242000Y-140529000D01*
X106758000Y-140529000D02*
X108460000Y-140529000D01*
X110540000Y-140569000D02*
X112266000Y-140569000D01*
X106734000Y-140569000D02*
X108460000Y-140569000D01*
X110540000Y-140609000D02*
X112290000Y-140609000D01*
X106710000Y-140609000D02*
X108460000Y-140609000D01*
X110540000Y-140649000D02*
X112312000Y-140649000D01*
X106688000Y-140649000D02*
X108460000Y-140649000D01*
X110540000Y-140689000D02*
X112334000Y-140689000D01*
X106666000Y-140689000D02*
X108460000Y-140689000D01*
X110540000Y-140729000D02*
X112356000Y-140729000D01*
X106644000Y-140729000D02*
X108460000Y-140729000D01*
X110540000Y-140769000D02*
X112376000Y-140769000D01*
X106624000Y-140769000D02*
X108460000Y-140769000D01*
X110540000Y-140809000D02*
X112396000Y-140809000D01*
X106604000Y-140809000D02*
X108460000Y-140809000D01*
X110540000Y-140849000D02*
X112416000Y-140849000D01*
X106584000Y-140849000D02*
X108460000Y-140849000D01*
X110540000Y-140889000D02*
X112434000Y-140889000D01*
X106566000Y-140889000D02*
X108460000Y-140889000D01*
X110540000Y-140929000D02*
X112452000Y-140929000D01*
X106548000Y-140929000D02*
X108460000Y-140929000D01*
X110540000Y-140969000D02*
X112470000Y-140969000D01*
X106530000Y-140969000D02*
X108460000Y-140969000D01*
X110540000Y-141009000D02*
X112486000Y-141009000D01*
X106514000Y-141009000D02*
X108460000Y-141009000D01*
X110540000Y-141049000D02*
X112502000Y-141049000D01*
X106498000Y-141049000D02*
X108460000Y-141049000D01*
X110540000Y-141089000D02*
X112518000Y-141089000D01*
X106482000Y-141089000D02*
X108460000Y-141089000D01*
X110540000Y-141129000D02*
X112533000Y-141129000D01*
X106467000Y-141129000D02*
X108460000Y-141129000D01*
X110540000Y-141169000D02*
X112547000Y-141169000D01*
X106453000Y-141169000D02*
X108460000Y-141169000D01*
X110540000Y-141209000D02*
X112561000Y-141209000D01*
X106439000Y-141209000D02*
X108460000Y-141209000D01*
X110540000Y-141249000D02*
X112574000Y-141249000D01*
X106426000Y-141249000D02*
X108460000Y-141249000D01*
X110540000Y-141289000D02*
X112586000Y-141289000D01*
X106414000Y-141289000D02*
X108460000Y-141289000D01*
X110540000Y-141329000D02*
X112598000Y-141329000D01*
X106402000Y-141329000D02*
X108460000Y-141329000D01*
X110540000Y-141369000D02*
X112610000Y-141369000D01*
X106390000Y-141369000D02*
X108460000Y-141369000D01*
X110540000Y-141409000D02*
X112621000Y-141409000D01*
X106379000Y-141409000D02*
X108460000Y-141409000D01*
X110540000Y-141449000D02*
X112631000Y-141449000D01*
X106369000Y-141449000D02*
X108460000Y-141449000D01*
X110540000Y-141489000D02*
X112641000Y-141489000D01*
X106359000Y-141489000D02*
X108460000Y-141489000D01*
X110540000Y-141529000D02*
X112650000Y-141529000D01*
X106350000Y-141529000D02*
X108460000Y-141529000D01*
X110540000Y-141570000D02*
X112659000Y-141570000D01*
X106341000Y-141570000D02*
X108460000Y-141570000D01*
X110540000Y-141610000D02*
X112667000Y-141610000D01*
X106333000Y-141610000D02*
X108460000Y-141610000D01*
X110540000Y-141650000D02*
X112675000Y-141650000D01*
X106325000Y-141650000D02*
X108460000Y-141650000D01*
X110540000Y-141690000D02*
X112682000Y-141690000D01*
X106318000Y-141690000D02*
X108460000Y-141690000D01*
X110540000Y-141730000D02*
X112689000Y-141730000D01*
X106311000Y-141730000D02*
X108460000Y-141730000D01*
X110540000Y-141770000D02*
X112695000Y-141770000D01*
X106305000Y-141770000D02*
X108460000Y-141770000D01*
X110540000Y-141810000D02*
X112701000Y-141810000D01*
X106299000Y-141810000D02*
X108460000Y-141810000D01*
X110540000Y-141850000D02*
X112706000Y-141850000D01*
X106294000Y-141850000D02*
X108460000Y-141850000D01*
X110540000Y-141890000D02*
X112711000Y-141890000D01*
X106289000Y-141890000D02*
X108460000Y-141890000D01*
X110540000Y-141930000D02*
X112715000Y-141930000D01*
X106285000Y-141930000D02*
X108460000Y-141930000D01*
X110540000Y-141970000D02*
X112718000Y-141970000D01*
X106282000Y-141970000D02*
X108460000Y-141970000D01*
X110540000Y-142010000D02*
X112722000Y-142010000D01*
X106278000Y-142010000D02*
X108460000Y-142010000D01*
X106276000Y-142050000D02*
X112724000Y-142050000D01*
X106273000Y-142090000D02*
X112727000Y-142090000D01*
X106272000Y-142130000D02*
X112728000Y-142130000D01*
X106270000Y-142170000D02*
X112730000Y-142170000D01*
X106270000Y-142210000D02*
X112730000Y-142210000D01*
X106270000Y-142250000D02*
X112730000Y-142250000D01*
X112770000Y-142250000D02*
G75*
G03*
X112770000Y-142250000I-3270000J0D01*
G01*
%TO.C,C16*%
X134154000Y-126564759D02*
X133524000Y-126564759D01*
X133839000Y-126249759D02*
X133839000Y-126879759D01*
X132402000Y-132991000D02*
X131598000Y-132991000D01*
X132633000Y-132951000D02*
X131367000Y-132951000D01*
X132802000Y-132911000D02*
X131198000Y-132911000D01*
X132940000Y-132871000D02*
X131060000Y-132871000D01*
X133059000Y-132831000D02*
X130941000Y-132831000D01*
X133165000Y-132791000D02*
X130835000Y-132791000D01*
X133262000Y-132751000D02*
X130738000Y-132751000D01*
X133350000Y-132711000D02*
X130650000Y-132711000D01*
X133432000Y-132671000D02*
X130568000Y-132671000D01*
X133509000Y-132631000D02*
X130491000Y-132631000D01*
X133581000Y-132591000D02*
X130419000Y-132591000D01*
X133650000Y-132551000D02*
X130350000Y-132551000D01*
X133714000Y-132511000D02*
X130286000Y-132511000D01*
X133776000Y-132471000D02*
X130224000Y-132471000D01*
X133834000Y-132431000D02*
X130166000Y-132431000D01*
X133890000Y-132391000D02*
X130110000Y-132391000D01*
X133944000Y-132351000D02*
X130056000Y-132351000D01*
X133995000Y-132311000D02*
X130005000Y-132311000D01*
X134044000Y-132271000D02*
X129956000Y-132271000D01*
X134092000Y-132231000D02*
X129908000Y-132231000D01*
X134137000Y-132191000D02*
X129863000Y-132191000D01*
X134182000Y-132151000D02*
X129818000Y-132151000D01*
X134224000Y-132111000D02*
X129776000Y-132111000D01*
X134265000Y-132071000D02*
X129735000Y-132071000D01*
X130960000Y-132031000D02*
X129695000Y-132031000D01*
X134305000Y-132031000D02*
X133040000Y-132031000D01*
X130960000Y-131991000D02*
X129657000Y-131991000D01*
X134343000Y-131991000D02*
X133040000Y-131991000D01*
X130960000Y-131951000D02*
X129620000Y-131951000D01*
X134380000Y-131951000D02*
X133040000Y-131951000D01*
X130960000Y-131911000D02*
X129584000Y-131911000D01*
X134416000Y-131911000D02*
X133040000Y-131911000D01*
X130960000Y-131871000D02*
X129550000Y-131871000D01*
X134450000Y-131871000D02*
X133040000Y-131871000D01*
X130960000Y-131831000D02*
X129516000Y-131831000D01*
X134484000Y-131831000D02*
X133040000Y-131831000D01*
X130960000Y-131791000D02*
X129484000Y-131791000D01*
X134516000Y-131791000D02*
X133040000Y-131791000D01*
X130960000Y-131751000D02*
X129452000Y-131751000D01*
X134548000Y-131751000D02*
X133040000Y-131751000D01*
X130960000Y-131711000D02*
X129422000Y-131711000D01*
X134578000Y-131711000D02*
X133040000Y-131711000D01*
X130960000Y-131671000D02*
X129393000Y-131671000D01*
X134607000Y-131671000D02*
X133040000Y-131671000D01*
X130960000Y-131631000D02*
X129364000Y-131631000D01*
X134636000Y-131631000D02*
X133040000Y-131631000D01*
X130960000Y-131591000D02*
X129336000Y-131591000D01*
X134664000Y-131591000D02*
X133040000Y-131591000D01*
X130960000Y-131551000D02*
X129310000Y-131551000D01*
X134690000Y-131551000D02*
X133040000Y-131551000D01*
X130960000Y-131511000D02*
X129284000Y-131511000D01*
X134716000Y-131511000D02*
X133040000Y-131511000D01*
X130960000Y-131471000D02*
X129258000Y-131471000D01*
X134742000Y-131471000D02*
X133040000Y-131471000D01*
X130960000Y-131431000D02*
X129234000Y-131431000D01*
X134766000Y-131431000D02*
X133040000Y-131431000D01*
X130960000Y-131391000D02*
X129210000Y-131391000D01*
X134790000Y-131391000D02*
X133040000Y-131391000D01*
X130960000Y-131351000D02*
X129188000Y-131351000D01*
X134812000Y-131351000D02*
X133040000Y-131351000D01*
X130960000Y-131311000D02*
X129166000Y-131311000D01*
X134834000Y-131311000D02*
X133040000Y-131311000D01*
X130960000Y-131271000D02*
X129144000Y-131271000D01*
X134856000Y-131271000D02*
X133040000Y-131271000D01*
X130960000Y-131231000D02*
X129124000Y-131231000D01*
X134876000Y-131231000D02*
X133040000Y-131231000D01*
X130960000Y-131191000D02*
X129104000Y-131191000D01*
X134896000Y-131191000D02*
X133040000Y-131191000D01*
X130960000Y-131151000D02*
X129084000Y-131151000D01*
X134916000Y-131151000D02*
X133040000Y-131151000D01*
X130960000Y-131111000D02*
X129066000Y-131111000D01*
X134934000Y-131111000D02*
X133040000Y-131111000D01*
X130960000Y-131071000D02*
X129048000Y-131071000D01*
X134952000Y-131071000D02*
X133040000Y-131071000D01*
X130960000Y-131031000D02*
X129030000Y-131031000D01*
X134970000Y-131031000D02*
X133040000Y-131031000D01*
X130960000Y-130991000D02*
X129014000Y-130991000D01*
X134986000Y-130991000D02*
X133040000Y-130991000D01*
X130960000Y-130951000D02*
X128998000Y-130951000D01*
X135002000Y-130951000D02*
X133040000Y-130951000D01*
X130960000Y-130911000D02*
X128982000Y-130911000D01*
X135018000Y-130911000D02*
X133040000Y-130911000D01*
X130960000Y-130871000D02*
X128967000Y-130871000D01*
X135033000Y-130871000D02*
X133040000Y-130871000D01*
X130960000Y-130831000D02*
X128953000Y-130831000D01*
X135047000Y-130831000D02*
X133040000Y-130831000D01*
X130960000Y-130791000D02*
X128939000Y-130791000D01*
X135061000Y-130791000D02*
X133040000Y-130791000D01*
X130960000Y-130751000D02*
X128926000Y-130751000D01*
X135074000Y-130751000D02*
X133040000Y-130751000D01*
X130960000Y-130711000D02*
X128914000Y-130711000D01*
X135086000Y-130711000D02*
X133040000Y-130711000D01*
X130960000Y-130671000D02*
X128902000Y-130671000D01*
X135098000Y-130671000D02*
X133040000Y-130671000D01*
X130960000Y-130631000D02*
X128890000Y-130631000D01*
X135110000Y-130631000D02*
X133040000Y-130631000D01*
X130960000Y-130591000D02*
X128879000Y-130591000D01*
X135121000Y-130591000D02*
X133040000Y-130591000D01*
X130960000Y-130551000D02*
X128869000Y-130551000D01*
X135131000Y-130551000D02*
X133040000Y-130551000D01*
X130960000Y-130511000D02*
X128859000Y-130511000D01*
X135141000Y-130511000D02*
X133040000Y-130511000D01*
X130960000Y-130471000D02*
X128850000Y-130471000D01*
X135150000Y-130471000D02*
X133040000Y-130471000D01*
X130960000Y-130430000D02*
X128841000Y-130430000D01*
X135159000Y-130430000D02*
X133040000Y-130430000D01*
X130960000Y-130390000D02*
X128833000Y-130390000D01*
X135167000Y-130390000D02*
X133040000Y-130390000D01*
X130960000Y-130350000D02*
X128825000Y-130350000D01*
X135175000Y-130350000D02*
X133040000Y-130350000D01*
X130960000Y-130310000D02*
X128818000Y-130310000D01*
X135182000Y-130310000D02*
X133040000Y-130310000D01*
X130960000Y-130270000D02*
X128811000Y-130270000D01*
X135189000Y-130270000D02*
X133040000Y-130270000D01*
X130960000Y-130230000D02*
X128805000Y-130230000D01*
X135195000Y-130230000D02*
X133040000Y-130230000D01*
X130960000Y-130190000D02*
X128799000Y-130190000D01*
X135201000Y-130190000D02*
X133040000Y-130190000D01*
X130960000Y-130150000D02*
X128794000Y-130150000D01*
X135206000Y-130150000D02*
X133040000Y-130150000D01*
X130960000Y-130110000D02*
X128789000Y-130110000D01*
X135211000Y-130110000D02*
X133040000Y-130110000D01*
X130960000Y-130070000D02*
X128785000Y-130070000D01*
X135215000Y-130070000D02*
X133040000Y-130070000D01*
X130960000Y-130030000D02*
X128782000Y-130030000D01*
X135218000Y-130030000D02*
X133040000Y-130030000D01*
X130960000Y-129990000D02*
X128778000Y-129990000D01*
X135222000Y-129990000D02*
X133040000Y-129990000D01*
X135224000Y-129950000D02*
X128776000Y-129950000D01*
X135227000Y-129910000D02*
X128773000Y-129910000D01*
X135228000Y-129870000D02*
X128772000Y-129870000D01*
X135230000Y-129830000D02*
X128770000Y-129830000D01*
X135230000Y-129790000D02*
X128770000Y-129790000D01*
X135230000Y-129750000D02*
X128770000Y-129750000D01*
X135270000Y-129750000D02*
G75*
G03*
X135270000Y-129750000I-3270000J0D01*
G01*
%TO.C,C3*%
X114230000Y-139945000D02*
X114230000Y-139930000D01*
X114230000Y-142070000D02*
X114230000Y-142055000D01*
X118770000Y-139945000D02*
X118770000Y-139930000D01*
X118770000Y-142070000D02*
X118770000Y-142055000D01*
X118770000Y-139930000D02*
X114230000Y-139930000D01*
X118770000Y-142070000D02*
X114230000Y-142070000D01*
%TO.C,C1*%
X107564759Y-98846000D02*
X107564759Y-99476000D01*
X107249759Y-99161000D02*
X107879759Y-99161000D01*
X113991000Y-100598000D02*
X113991000Y-101402000D01*
X113951000Y-100367000D02*
X113951000Y-101633000D01*
X113911000Y-100198000D02*
X113911000Y-101802000D01*
X113871000Y-100060000D02*
X113871000Y-101940000D01*
X113831000Y-99941000D02*
X113831000Y-102059000D01*
X113791000Y-99835000D02*
X113791000Y-102165000D01*
X113751000Y-99738000D02*
X113751000Y-102262000D01*
X113711000Y-99650000D02*
X113711000Y-102350000D01*
X113671000Y-99568000D02*
X113671000Y-102432000D01*
X113631000Y-99491000D02*
X113631000Y-102509000D01*
X113591000Y-99419000D02*
X113591000Y-102581000D01*
X113551000Y-99350000D02*
X113551000Y-102650000D01*
X113511000Y-99286000D02*
X113511000Y-102714000D01*
X113471000Y-99224000D02*
X113471000Y-102776000D01*
X113431000Y-99166000D02*
X113431000Y-102834000D01*
X113391000Y-99110000D02*
X113391000Y-102890000D01*
X113351000Y-99056000D02*
X113351000Y-102944000D01*
X113311000Y-99005000D02*
X113311000Y-102995000D01*
X113271000Y-98956000D02*
X113271000Y-103044000D01*
X113231000Y-98908000D02*
X113231000Y-103092000D01*
X113191000Y-98863000D02*
X113191000Y-103137000D01*
X113151000Y-98818000D02*
X113151000Y-103182000D01*
X113111000Y-98776000D02*
X113111000Y-103224000D01*
X113071000Y-98735000D02*
X113071000Y-103265000D01*
X113031000Y-102040000D02*
X113031000Y-103305000D01*
X113031000Y-98695000D02*
X113031000Y-99960000D01*
X112991000Y-102040000D02*
X112991000Y-103343000D01*
X112991000Y-98657000D02*
X112991000Y-99960000D01*
X112951000Y-102040000D02*
X112951000Y-103380000D01*
X112951000Y-98620000D02*
X112951000Y-99960000D01*
X112911000Y-102040000D02*
X112911000Y-103416000D01*
X112911000Y-98584000D02*
X112911000Y-99960000D01*
X112871000Y-102040000D02*
X112871000Y-103450000D01*
X112871000Y-98550000D02*
X112871000Y-99960000D01*
X112831000Y-102040000D02*
X112831000Y-103484000D01*
X112831000Y-98516000D02*
X112831000Y-99960000D01*
X112791000Y-102040000D02*
X112791000Y-103516000D01*
X112791000Y-98484000D02*
X112791000Y-99960000D01*
X112751000Y-102040000D02*
X112751000Y-103548000D01*
X112751000Y-98452000D02*
X112751000Y-99960000D01*
X112711000Y-102040000D02*
X112711000Y-103578000D01*
X112711000Y-98422000D02*
X112711000Y-99960000D01*
X112671000Y-102040000D02*
X112671000Y-103607000D01*
X112671000Y-98393000D02*
X112671000Y-99960000D01*
X112631000Y-102040000D02*
X112631000Y-103636000D01*
X112631000Y-98364000D02*
X112631000Y-99960000D01*
X112591000Y-102040000D02*
X112591000Y-103664000D01*
X112591000Y-98336000D02*
X112591000Y-99960000D01*
X112551000Y-102040000D02*
X112551000Y-103690000D01*
X112551000Y-98310000D02*
X112551000Y-99960000D01*
X112511000Y-102040000D02*
X112511000Y-103716000D01*
X112511000Y-98284000D02*
X112511000Y-99960000D01*
X112471000Y-102040000D02*
X112471000Y-103742000D01*
X112471000Y-98258000D02*
X112471000Y-99960000D01*
X112431000Y-102040000D02*
X112431000Y-103766000D01*
X112431000Y-98234000D02*
X112431000Y-99960000D01*
X112391000Y-102040000D02*
X112391000Y-103790000D01*
X112391000Y-98210000D02*
X112391000Y-99960000D01*
X112351000Y-102040000D02*
X112351000Y-103812000D01*
X112351000Y-98188000D02*
X112351000Y-99960000D01*
X112311000Y-102040000D02*
X112311000Y-103834000D01*
X112311000Y-98166000D02*
X112311000Y-99960000D01*
X112271000Y-102040000D02*
X112271000Y-103856000D01*
X112271000Y-98144000D02*
X112271000Y-99960000D01*
X112231000Y-102040000D02*
X112231000Y-103876000D01*
X112231000Y-98124000D02*
X112231000Y-99960000D01*
X112191000Y-102040000D02*
X112191000Y-103896000D01*
X112191000Y-98104000D02*
X112191000Y-99960000D01*
X112151000Y-102040000D02*
X112151000Y-103916000D01*
X112151000Y-98084000D02*
X112151000Y-99960000D01*
X112111000Y-102040000D02*
X112111000Y-103934000D01*
X112111000Y-98066000D02*
X112111000Y-99960000D01*
X112071000Y-102040000D02*
X112071000Y-103952000D01*
X112071000Y-98048000D02*
X112071000Y-99960000D01*
X112031000Y-102040000D02*
X112031000Y-103970000D01*
X112031000Y-98030000D02*
X112031000Y-99960000D01*
X111991000Y-102040000D02*
X111991000Y-103986000D01*
X111991000Y-98014000D02*
X111991000Y-99960000D01*
X111951000Y-102040000D02*
X111951000Y-104002000D01*
X111951000Y-97998000D02*
X111951000Y-99960000D01*
X111911000Y-102040000D02*
X111911000Y-104018000D01*
X111911000Y-97982000D02*
X111911000Y-99960000D01*
X111871000Y-102040000D02*
X111871000Y-104033000D01*
X111871000Y-97967000D02*
X111871000Y-99960000D01*
X111831000Y-102040000D02*
X111831000Y-104047000D01*
X111831000Y-97953000D02*
X111831000Y-99960000D01*
X111791000Y-102040000D02*
X111791000Y-104061000D01*
X111791000Y-97939000D02*
X111791000Y-99960000D01*
X111751000Y-102040000D02*
X111751000Y-104074000D01*
X111751000Y-97926000D02*
X111751000Y-99960000D01*
X111711000Y-102040000D02*
X111711000Y-104086000D01*
X111711000Y-97914000D02*
X111711000Y-99960000D01*
X111671000Y-102040000D02*
X111671000Y-104098000D01*
X111671000Y-97902000D02*
X111671000Y-99960000D01*
X111631000Y-102040000D02*
X111631000Y-104110000D01*
X111631000Y-97890000D02*
X111631000Y-99960000D01*
X111591000Y-102040000D02*
X111591000Y-104121000D01*
X111591000Y-97879000D02*
X111591000Y-99960000D01*
X111551000Y-102040000D02*
X111551000Y-104131000D01*
X111551000Y-97869000D02*
X111551000Y-99960000D01*
X111511000Y-102040000D02*
X111511000Y-104141000D01*
X111511000Y-97859000D02*
X111511000Y-99960000D01*
X111471000Y-102040000D02*
X111471000Y-104150000D01*
X111471000Y-97850000D02*
X111471000Y-99960000D01*
X111430000Y-102040000D02*
X111430000Y-104159000D01*
X111430000Y-97841000D02*
X111430000Y-99960000D01*
X111390000Y-102040000D02*
X111390000Y-104167000D01*
X111390000Y-97833000D02*
X111390000Y-99960000D01*
X111350000Y-102040000D02*
X111350000Y-104175000D01*
X111350000Y-97825000D02*
X111350000Y-99960000D01*
X111310000Y-102040000D02*
X111310000Y-104182000D01*
X111310000Y-97818000D02*
X111310000Y-99960000D01*
X111270000Y-102040000D02*
X111270000Y-104189000D01*
X111270000Y-97811000D02*
X111270000Y-99960000D01*
X111230000Y-102040000D02*
X111230000Y-104195000D01*
X111230000Y-97805000D02*
X111230000Y-99960000D01*
X111190000Y-102040000D02*
X111190000Y-104201000D01*
X111190000Y-97799000D02*
X111190000Y-99960000D01*
X111150000Y-102040000D02*
X111150000Y-104206000D01*
X111150000Y-97794000D02*
X111150000Y-99960000D01*
X111110000Y-102040000D02*
X111110000Y-104211000D01*
X111110000Y-97789000D02*
X111110000Y-99960000D01*
X111070000Y-102040000D02*
X111070000Y-104215000D01*
X111070000Y-97785000D02*
X111070000Y-99960000D01*
X111030000Y-102040000D02*
X111030000Y-104218000D01*
X111030000Y-97782000D02*
X111030000Y-99960000D01*
X110990000Y-102040000D02*
X110990000Y-104222000D01*
X110990000Y-97778000D02*
X110990000Y-99960000D01*
X110950000Y-97776000D02*
X110950000Y-104224000D01*
X110910000Y-97773000D02*
X110910000Y-104227000D01*
X110870000Y-97772000D02*
X110870000Y-104228000D01*
X110830000Y-97770000D02*
X110830000Y-104230000D01*
X110790000Y-97770000D02*
X110790000Y-104230000D01*
X110750000Y-97770000D02*
X110750000Y-104230000D01*
X114020000Y-101000000D02*
G75*
G03*
X114020000Y-101000000I-3270000J0D01*
G01*
%TO.C,C14*%
D10*
X118857142Y-115357142D02*
X118809523Y-115404761D01*
X118666666Y-115452380D01*
X118571428Y-115452380D01*
X118428571Y-115404761D01*
X118333333Y-115309523D01*
X118285714Y-115214285D01*
X118238095Y-115023809D01*
X118238095Y-114880952D01*
X118285714Y-114690476D01*
X118333333Y-114595238D01*
X118428571Y-114500000D01*
X118571428Y-114452380D01*
X118666666Y-114452380D01*
X118809523Y-114500000D01*
X118857142Y-114547619D01*
X119809523Y-115452380D02*
X119238095Y-115452380D01*
X119523809Y-115452380D02*
X119523809Y-114452380D01*
X119428571Y-114595238D01*
X119333333Y-114690476D01*
X119238095Y-114738095D01*
X120666666Y-114785714D02*
X120666666Y-115452380D01*
X120428571Y-114404761D02*
X120190476Y-115119047D01*
X120809523Y-115119047D01*
%TO.C,C13*%
X115857142Y-119357142D02*
X115809523Y-119404761D01*
X115666666Y-119452380D01*
X115571428Y-119452380D01*
X115428571Y-119404761D01*
X115333333Y-119309523D01*
X115285714Y-119214285D01*
X115238095Y-119023809D01*
X115238095Y-118880952D01*
X115285714Y-118690476D01*
X115333333Y-118595238D01*
X115428571Y-118500000D01*
X115571428Y-118452380D01*
X115666666Y-118452380D01*
X115809523Y-118500000D01*
X115857142Y-118547619D01*
X116809523Y-119452380D02*
X116238095Y-119452380D01*
X116523809Y-119452380D02*
X116523809Y-118452380D01*
X116428571Y-118595238D01*
X116333333Y-118690476D01*
X116238095Y-118738095D01*
X117142857Y-118452380D02*
X117761904Y-118452380D01*
X117428571Y-118833333D01*
X117571428Y-118833333D01*
X117666666Y-118880952D01*
X117714285Y-118928571D01*
X117761904Y-119023809D01*
X117761904Y-119261904D01*
X117714285Y-119357142D01*
X117666666Y-119404761D01*
X117571428Y-119452380D01*
X117285714Y-119452380D01*
X117190476Y-119404761D01*
X117142857Y-119357142D01*
%TO.C,C2*%
X111833333Y-125857142D02*
X111785714Y-125904761D01*
X111642857Y-125952380D01*
X111547619Y-125952380D01*
X111404761Y-125904761D01*
X111309523Y-125809523D01*
X111261904Y-125714285D01*
X111214285Y-125523809D01*
X111214285Y-125380952D01*
X111261904Y-125190476D01*
X111309523Y-125095238D01*
X111404761Y-125000000D01*
X111547619Y-124952380D01*
X111642857Y-124952380D01*
X111785714Y-125000000D01*
X111833333Y-125047619D01*
X112214285Y-125047619D02*
X112261904Y-125000000D01*
X112357142Y-124952380D01*
X112595238Y-124952380D01*
X112690476Y-125000000D01*
X112738095Y-125047619D01*
X112785714Y-125142857D01*
X112785714Y-125238095D01*
X112738095Y-125380952D01*
X112166666Y-125952380D01*
X112785714Y-125952380D01*
%TO.C,R19*%
X123857142Y-118452380D02*
X123523809Y-117976190D01*
X123285714Y-118452380D02*
X123285714Y-117452380D01*
X123666666Y-117452380D01*
X123761904Y-117500000D01*
X123809523Y-117547619D01*
X123857142Y-117642857D01*
X123857142Y-117785714D01*
X123809523Y-117880952D01*
X123761904Y-117928571D01*
X123666666Y-117976190D01*
X123285714Y-117976190D01*
X124809523Y-118452380D02*
X124238095Y-118452380D01*
X124523809Y-118452380D02*
X124523809Y-117452380D01*
X124428571Y-117595238D01*
X124333333Y-117690476D01*
X124238095Y-117738095D01*
X125285714Y-118452380D02*
X125476190Y-118452380D01*
X125571428Y-118404761D01*
X125619047Y-118357142D01*
X125714285Y-118214285D01*
X125761904Y-118023809D01*
X125761904Y-117642857D01*
X125714285Y-117547619D01*
X125666666Y-117500000D01*
X125571428Y-117452380D01*
X125380952Y-117452380D01*
X125285714Y-117500000D01*
X125238095Y-117547619D01*
X125190476Y-117642857D01*
X125190476Y-117880952D01*
X125238095Y-117976190D01*
X125285714Y-118023809D01*
X125380952Y-118071428D01*
X125571428Y-118071428D01*
X125666666Y-118023809D01*
X125714285Y-117976190D01*
X125761904Y-117880952D01*
%TO.C,R18*%
X128857142Y-118452380D02*
X128523809Y-117976190D01*
X128285714Y-118452380D02*
X128285714Y-117452380D01*
X128666666Y-117452380D01*
X128761904Y-117500000D01*
X128809523Y-117547619D01*
X128857142Y-117642857D01*
X128857142Y-117785714D01*
X128809523Y-117880952D01*
X128761904Y-117928571D01*
X128666666Y-117976190D01*
X128285714Y-117976190D01*
X129809523Y-118452380D02*
X129238095Y-118452380D01*
X129523809Y-118452380D02*
X129523809Y-117452380D01*
X129428571Y-117595238D01*
X129333333Y-117690476D01*
X129238095Y-117738095D01*
X130380952Y-117880952D02*
X130285714Y-117833333D01*
X130238095Y-117785714D01*
X130190476Y-117690476D01*
X130190476Y-117642857D01*
X130238095Y-117547619D01*
X130285714Y-117500000D01*
X130380952Y-117452380D01*
X130571428Y-117452380D01*
X130666666Y-117500000D01*
X130714285Y-117547619D01*
X130761904Y-117642857D01*
X130761904Y-117690476D01*
X130714285Y-117785714D01*
X130666666Y-117833333D01*
X130571428Y-117880952D01*
X130380952Y-117880952D01*
X130285714Y-117928571D01*
X130238095Y-117976190D01*
X130190476Y-118071428D01*
X130190476Y-118261904D01*
X130238095Y-118357142D01*
X130285714Y-118404761D01*
X130380952Y-118452380D01*
X130571428Y-118452380D01*
X130666666Y-118404761D01*
X130714285Y-118357142D01*
X130761904Y-118261904D01*
X130761904Y-118071428D01*
X130714285Y-117976190D01*
X130666666Y-117928571D01*
X130571428Y-117880952D01*
%TO.C,R17*%
X128857142Y-141952380D02*
X128523809Y-141476190D01*
X128285714Y-141952380D02*
X128285714Y-140952380D01*
X128666666Y-140952380D01*
X128761904Y-141000000D01*
X128809523Y-141047619D01*
X128857142Y-141142857D01*
X128857142Y-141285714D01*
X128809523Y-141380952D01*
X128761904Y-141428571D01*
X128666666Y-141476190D01*
X128285714Y-141476190D01*
X129809523Y-141952380D02*
X129238095Y-141952380D01*
X129523809Y-141952380D02*
X129523809Y-140952380D01*
X129428571Y-141095238D01*
X129333333Y-141190476D01*
X129238095Y-141238095D01*
X130142857Y-140952380D02*
X130809523Y-140952380D01*
X130380952Y-141952380D01*
%TO.C,R15*%
X103857142Y-141952380D02*
X103523809Y-141476190D01*
X103285714Y-141952380D02*
X103285714Y-140952380D01*
X103666666Y-140952380D01*
X103761904Y-141000000D01*
X103809523Y-141047619D01*
X103857142Y-141142857D01*
X103857142Y-141285714D01*
X103809523Y-141380952D01*
X103761904Y-141428571D01*
X103666666Y-141476190D01*
X103285714Y-141476190D01*
X104809523Y-141952380D02*
X104238095Y-141952380D01*
X104523809Y-141952380D02*
X104523809Y-140952380D01*
X104428571Y-141095238D01*
X104333333Y-141190476D01*
X104238095Y-141238095D01*
X105714285Y-140952380D02*
X105238095Y-140952380D01*
X105190476Y-141428571D01*
X105238095Y-141380952D01*
X105333333Y-141333333D01*
X105571428Y-141333333D01*
X105666666Y-141380952D01*
X105714285Y-141428571D01*
X105761904Y-141523809D01*
X105761904Y-141761904D01*
X105714285Y-141857142D01*
X105666666Y-141904761D01*
X105571428Y-141952380D01*
X105333333Y-141952380D01*
X105238095Y-141904761D01*
X105190476Y-141857142D01*
%TO.C,R14*%
X105857142Y-108452380D02*
X105523809Y-107976190D01*
X105285714Y-108452380D02*
X105285714Y-107452380D01*
X105666666Y-107452380D01*
X105761904Y-107500000D01*
X105809523Y-107547619D01*
X105857142Y-107642857D01*
X105857142Y-107785714D01*
X105809523Y-107880952D01*
X105761904Y-107928571D01*
X105666666Y-107976190D01*
X105285714Y-107976190D01*
X106809523Y-108452380D02*
X106238095Y-108452380D01*
X106523809Y-108452380D02*
X106523809Y-107452380D01*
X106428571Y-107595238D01*
X106333333Y-107690476D01*
X106238095Y-107738095D01*
X107666666Y-107785714D02*
X107666666Y-108452380D01*
X107428571Y-107404761D02*
X107190476Y-108119047D01*
X107809523Y-108119047D01*
%TO.C,R13*%
X114857142Y-102452380D02*
X114523809Y-101976190D01*
X114285714Y-102452380D02*
X114285714Y-101452380D01*
X114666666Y-101452380D01*
X114761904Y-101500000D01*
X114809523Y-101547619D01*
X114857142Y-101642857D01*
X114857142Y-101785714D01*
X114809523Y-101880952D01*
X114761904Y-101928571D01*
X114666666Y-101976190D01*
X114285714Y-101976190D01*
X115809523Y-102452380D02*
X115238095Y-102452380D01*
X115523809Y-102452380D02*
X115523809Y-101452380D01*
X115428571Y-101595238D01*
X115333333Y-101690476D01*
X115238095Y-101738095D01*
X116142857Y-101452380D02*
X116761904Y-101452380D01*
X116428571Y-101833333D01*
X116571428Y-101833333D01*
X116666666Y-101880952D01*
X116714285Y-101928571D01*
X116761904Y-102023809D01*
X116761904Y-102261904D01*
X116714285Y-102357142D01*
X116666666Y-102404761D01*
X116571428Y-102452380D01*
X116285714Y-102452380D01*
X116190476Y-102404761D01*
X116142857Y-102357142D01*
%TO.C,R8*%
X126833333Y-115952380D02*
X126500000Y-115476190D01*
X126261904Y-115952380D02*
X126261904Y-114952380D01*
X126642857Y-114952380D01*
X126738095Y-115000000D01*
X126785714Y-115047619D01*
X126833333Y-115142857D01*
X126833333Y-115285714D01*
X126785714Y-115380952D01*
X126738095Y-115428571D01*
X126642857Y-115476190D01*
X126261904Y-115476190D01*
X127404761Y-115380952D02*
X127309523Y-115333333D01*
X127261904Y-115285714D01*
X127214285Y-115190476D01*
X127214285Y-115142857D01*
X127261904Y-115047619D01*
X127309523Y-115000000D01*
X127404761Y-114952380D01*
X127595238Y-114952380D01*
X127690476Y-115000000D01*
X127738095Y-115047619D01*
X127785714Y-115142857D01*
X127785714Y-115190476D01*
X127738095Y-115285714D01*
X127690476Y-115333333D01*
X127595238Y-115380952D01*
X127404761Y-115380952D01*
X127309523Y-115428571D01*
X127261904Y-115476190D01*
X127214285Y-115571428D01*
X127214285Y-115761904D01*
X127261904Y-115857142D01*
X127309523Y-115904761D01*
X127404761Y-115952380D01*
X127595238Y-115952380D01*
X127690476Y-115904761D01*
X127738095Y-115857142D01*
X127785714Y-115761904D01*
X127785714Y-115571428D01*
X127738095Y-115476190D01*
X127690476Y-115428571D01*
X127595238Y-115380952D01*
%TO.C,R7*%
X126833333Y-139452380D02*
X126500000Y-138976190D01*
X126261904Y-139452380D02*
X126261904Y-138452380D01*
X126642857Y-138452380D01*
X126738095Y-138500000D01*
X126785714Y-138547619D01*
X126833333Y-138642857D01*
X126833333Y-138785714D01*
X126785714Y-138880952D01*
X126738095Y-138928571D01*
X126642857Y-138976190D01*
X126261904Y-138976190D01*
X127166666Y-138452380D02*
X127833333Y-138452380D01*
X127404761Y-139452380D01*
%TO.C,R6*%
X121833333Y-115952380D02*
X121500000Y-115476190D01*
X121261904Y-115952380D02*
X121261904Y-114952380D01*
X121642857Y-114952380D01*
X121738095Y-115000000D01*
X121785714Y-115047619D01*
X121833333Y-115142857D01*
X121833333Y-115285714D01*
X121785714Y-115380952D01*
X121738095Y-115428571D01*
X121642857Y-115476190D01*
X121261904Y-115476190D01*
X122690476Y-114952380D02*
X122500000Y-114952380D01*
X122404761Y-115000000D01*
X122357142Y-115047619D01*
X122261904Y-115190476D01*
X122214285Y-115380952D01*
X122214285Y-115761904D01*
X122261904Y-115857142D01*
X122309523Y-115904761D01*
X122404761Y-115952380D01*
X122595238Y-115952380D01*
X122690476Y-115904761D01*
X122738095Y-115857142D01*
X122785714Y-115761904D01*
X122785714Y-115523809D01*
X122738095Y-115428571D01*
X122690476Y-115380952D01*
X122595238Y-115333333D01*
X122404761Y-115333333D01*
X122309523Y-115380952D01*
X122261904Y-115428571D01*
X122214285Y-115523809D01*
%TO.C,R5*%
X114333333Y-124452380D02*
X114000000Y-123976190D01*
X113761904Y-124452380D02*
X113761904Y-123452380D01*
X114142857Y-123452380D01*
X114238095Y-123500000D01*
X114285714Y-123547619D01*
X114333333Y-123642857D01*
X114333333Y-123785714D01*
X114285714Y-123880952D01*
X114238095Y-123928571D01*
X114142857Y-123976190D01*
X113761904Y-123976190D01*
X115238095Y-123452380D02*
X114761904Y-123452380D01*
X114714285Y-123928571D01*
X114761904Y-123880952D01*
X114857142Y-123833333D01*
X115095238Y-123833333D01*
X115190476Y-123880952D01*
X115238095Y-123928571D01*
X115285714Y-124023809D01*
X115285714Y-124261904D01*
X115238095Y-124357142D01*
X115190476Y-124404761D01*
X115095238Y-124452380D01*
X114857142Y-124452380D01*
X114761904Y-124404761D01*
X114714285Y-124357142D01*
%TO.C,R4*%
X109333333Y-110952380D02*
X109000000Y-110476190D01*
X108761904Y-110952380D02*
X108761904Y-109952380D01*
X109142857Y-109952380D01*
X109238095Y-110000000D01*
X109285714Y-110047619D01*
X109333333Y-110142857D01*
X109333333Y-110285714D01*
X109285714Y-110380952D01*
X109238095Y-110428571D01*
X109142857Y-110476190D01*
X108761904Y-110476190D01*
X110190476Y-110285714D02*
X110190476Y-110952380D01*
X109952380Y-109904761D02*
X109714285Y-110619047D01*
X110333333Y-110619047D01*
%TO.C,R3*%
X119833333Y-106452380D02*
X119500000Y-105976190D01*
X119261904Y-106452380D02*
X119261904Y-105452380D01*
X119642857Y-105452380D01*
X119738095Y-105500000D01*
X119785714Y-105547619D01*
X119833333Y-105642857D01*
X119833333Y-105785714D01*
X119785714Y-105880952D01*
X119738095Y-105928571D01*
X119642857Y-105976190D01*
X119261904Y-105976190D01*
X120166666Y-105452380D02*
X120785714Y-105452380D01*
X120452380Y-105833333D01*
X120595238Y-105833333D01*
X120690476Y-105880952D01*
X120738095Y-105928571D01*
X120785714Y-106023809D01*
X120785714Y-106261904D01*
X120738095Y-106357142D01*
X120690476Y-106404761D01*
X120595238Y-106452380D01*
X120309523Y-106452380D01*
X120214285Y-106404761D01*
X120166666Y-106357142D01*
%TO.C,R2*%
X127333333Y-109952380D02*
X127000000Y-109476190D01*
X126761904Y-109952380D02*
X126761904Y-108952380D01*
X127142857Y-108952380D01*
X127238095Y-109000000D01*
X127285714Y-109047619D01*
X127333333Y-109142857D01*
X127333333Y-109285714D01*
X127285714Y-109380952D01*
X127238095Y-109428571D01*
X127142857Y-109476190D01*
X126761904Y-109476190D01*
X127714285Y-109047619D02*
X127761904Y-109000000D01*
X127857142Y-108952380D01*
X128095238Y-108952380D01*
X128190476Y-109000000D01*
X128238095Y-109047619D01*
X128285714Y-109142857D01*
X128285714Y-109238095D01*
X128238095Y-109380952D01*
X127666666Y-109952380D01*
X128285714Y-109952380D01*
%TO.C,R1*%
X129833333Y-111952380D02*
X129500000Y-111476190D01*
X129261904Y-111952380D02*
X129261904Y-110952380D01*
X129642857Y-110952380D01*
X129738095Y-111000000D01*
X129785714Y-111047619D01*
X129833333Y-111142857D01*
X129833333Y-111285714D01*
X129785714Y-111380952D01*
X129738095Y-111428571D01*
X129642857Y-111476190D01*
X129261904Y-111476190D01*
X130785714Y-111952380D02*
X130214285Y-111952380D01*
X130500000Y-111952380D02*
X130500000Y-110952380D01*
X130404761Y-111095238D01*
X130309523Y-111190476D01*
X130214285Y-111238095D01*
%TO.C,T2*%
X112238095Y-107952380D02*
X112809523Y-107952380D01*
X112523809Y-108952380D02*
X112523809Y-107952380D01*
X113095238Y-108047619D02*
X113142857Y-108000000D01*
X113238095Y-107952380D01*
X113476190Y-107952380D01*
X113571428Y-108000000D01*
X113619047Y-108047619D01*
X113666666Y-108142857D01*
X113666666Y-108238095D01*
X113619047Y-108380952D01*
X113047619Y-108952380D01*
X113666666Y-108952380D01*
%TO.C,T1*%
X130238095Y-106952380D02*
X130809523Y-106952380D01*
X130523809Y-107952380D02*
X130523809Y-106952380D01*
X131666666Y-107952380D02*
X131095238Y-107952380D01*
X131380952Y-107952380D02*
X131380952Y-106952380D01*
X131285714Y-107095238D01*
X131190476Y-107190476D01*
X131095238Y-107238095D01*
%TO.C,U18*%
X119451904Y-137782380D02*
X119451904Y-138591904D01*
X119499523Y-138687142D01*
X119547142Y-138734761D01*
X119642380Y-138782380D01*
X119832857Y-138782380D01*
X119928095Y-138734761D01*
X119975714Y-138687142D01*
X120023333Y-138591904D01*
X120023333Y-137782380D01*
X121023333Y-138782380D02*
X120451904Y-138782380D01*
X120737619Y-138782380D02*
X120737619Y-137782380D01*
X120642380Y-137925238D01*
X120547142Y-138020476D01*
X120451904Y-138068095D01*
X121594761Y-138210952D02*
X121499523Y-138163333D01*
X121451904Y-138115714D01*
X121404285Y-138020476D01*
X121404285Y-137972857D01*
X121451904Y-137877619D01*
X121499523Y-137830000D01*
X121594761Y-137782380D01*
X121785238Y-137782380D01*
X121880476Y-137830000D01*
X121928095Y-137877619D01*
X121975714Y-137972857D01*
X121975714Y-138020476D01*
X121928095Y-138115714D01*
X121880476Y-138163333D01*
X121785238Y-138210952D01*
X121594761Y-138210952D01*
X121499523Y-138258571D01*
X121451904Y-138306190D01*
X121404285Y-138401428D01*
X121404285Y-138591904D01*
X121451904Y-138687142D01*
X121499523Y-138734761D01*
X121594761Y-138782380D01*
X121785238Y-138782380D01*
X121880476Y-138734761D01*
X121928095Y-138687142D01*
X121975714Y-138591904D01*
X121975714Y-138401428D01*
X121928095Y-138306190D01*
X121880476Y-138258571D01*
X121785238Y-138210952D01*
%TO.C,U17*%
X109451904Y-137782380D02*
X109451904Y-138591904D01*
X109499523Y-138687142D01*
X109547142Y-138734761D01*
X109642380Y-138782380D01*
X109832857Y-138782380D01*
X109928095Y-138734761D01*
X109975714Y-138687142D01*
X110023333Y-138591904D01*
X110023333Y-137782380D01*
X111023333Y-138782380D02*
X110451904Y-138782380D01*
X110737619Y-138782380D02*
X110737619Y-137782380D01*
X110642380Y-137925238D01*
X110547142Y-138020476D01*
X110451904Y-138068095D01*
X111356666Y-137782380D02*
X112023333Y-137782380D01*
X111594761Y-138782380D01*
%TO.C,C18*%
X129357142Y-99357142D02*
X129309523Y-99404761D01*
X129166666Y-99452380D01*
X129071428Y-99452380D01*
X128928571Y-99404761D01*
X128833333Y-99309523D01*
X128785714Y-99214285D01*
X128738095Y-99023809D01*
X128738095Y-98880952D01*
X128785714Y-98690476D01*
X128833333Y-98595238D01*
X128928571Y-98500000D01*
X129071428Y-98452380D01*
X129166666Y-98452380D01*
X129309523Y-98500000D01*
X129357142Y-98547619D01*
X130309523Y-99452380D02*
X129738095Y-99452380D01*
X130023809Y-99452380D02*
X130023809Y-98452380D01*
X129928571Y-98595238D01*
X129833333Y-98690476D01*
X129738095Y-98738095D01*
X130880952Y-98880952D02*
X130785714Y-98833333D01*
X130738095Y-98785714D01*
X130690476Y-98690476D01*
X130690476Y-98642857D01*
X130738095Y-98547619D01*
X130785714Y-98500000D01*
X130880952Y-98452380D01*
X131071428Y-98452380D01*
X131166666Y-98500000D01*
X131214285Y-98547619D01*
X131261904Y-98642857D01*
X131261904Y-98690476D01*
X131214285Y-98785714D01*
X131166666Y-98833333D01*
X131071428Y-98880952D01*
X130880952Y-98880952D01*
X130785714Y-98928571D01*
X130738095Y-98976190D01*
X130690476Y-99071428D01*
X130690476Y-99261904D01*
X130738095Y-99357142D01*
X130785714Y-99404761D01*
X130880952Y-99452380D01*
X131071428Y-99452380D01*
X131166666Y-99404761D01*
X131214285Y-99357142D01*
X131261904Y-99261904D01*
X131261904Y-99071428D01*
X131214285Y-98976190D01*
X131166666Y-98928571D01*
X131071428Y-98880952D01*
%TO.C,C17*%
X113357142Y-144357142D02*
X113309523Y-144404761D01*
X113166666Y-144452380D01*
X113071428Y-144452380D01*
X112928571Y-144404761D01*
X112833333Y-144309523D01*
X112785714Y-144214285D01*
X112738095Y-144023809D01*
X112738095Y-143880952D01*
X112785714Y-143690476D01*
X112833333Y-143595238D01*
X112928571Y-143500000D01*
X113071428Y-143452380D01*
X113166666Y-143452380D01*
X113309523Y-143500000D01*
X113357142Y-143547619D01*
X114309523Y-144452380D02*
X113738095Y-144452380D01*
X114023809Y-144452380D02*
X114023809Y-143452380D01*
X113928571Y-143595238D01*
X113833333Y-143690476D01*
X113738095Y-143738095D01*
X114642857Y-143452380D02*
X115309523Y-143452380D01*
X114880952Y-144452380D01*
%TO.C,C16*%
X132357142Y-133857142D02*
X132309523Y-133904761D01*
X132166666Y-133952380D01*
X132071428Y-133952380D01*
X131928571Y-133904761D01*
X131833333Y-133809523D01*
X131785714Y-133714285D01*
X131738095Y-133523809D01*
X131738095Y-133380952D01*
X131785714Y-133190476D01*
X131833333Y-133095238D01*
X131928571Y-133000000D01*
X132071428Y-132952380D01*
X132166666Y-132952380D01*
X132309523Y-133000000D01*
X132357142Y-133047619D01*
X133309523Y-133952380D02*
X132738095Y-133952380D01*
X133023809Y-133952380D02*
X133023809Y-132952380D01*
X132928571Y-133095238D01*
X132833333Y-133190476D01*
X132738095Y-133238095D01*
X134166666Y-132952380D02*
X133976190Y-132952380D01*
X133880952Y-133000000D01*
X133833333Y-133047619D01*
X133738095Y-133190476D01*
X133690476Y-133380952D01*
X133690476Y-133761904D01*
X133738095Y-133857142D01*
X133785714Y-133904761D01*
X133880952Y-133952380D01*
X134071428Y-133952380D01*
X134166666Y-133904761D01*
X134214285Y-133857142D01*
X134261904Y-133761904D01*
X134261904Y-133523809D01*
X134214285Y-133428571D01*
X134166666Y-133380952D01*
X134071428Y-133333333D01*
X133880952Y-133333333D01*
X133785714Y-133380952D01*
X133738095Y-133428571D01*
X133690476Y-133523809D01*
%TO.C,C3*%
X116333333Y-139357142D02*
X116285714Y-139404761D01*
X116142857Y-139452380D01*
X116047619Y-139452380D01*
X115904761Y-139404761D01*
X115809523Y-139309523D01*
X115761904Y-139214285D01*
X115714285Y-139023809D01*
X115714285Y-138880952D01*
X115761904Y-138690476D01*
X115809523Y-138595238D01*
X115904761Y-138500000D01*
X116047619Y-138452380D01*
X116142857Y-138452380D01*
X116285714Y-138500000D01*
X116333333Y-138547619D01*
X116666666Y-138452380D02*
X117285714Y-138452380D01*
X116952380Y-138833333D01*
X117095238Y-138833333D01*
X117190476Y-138880952D01*
X117238095Y-138928571D01*
X117285714Y-139023809D01*
X117285714Y-139261904D01*
X117238095Y-139357142D01*
X117190476Y-139404761D01*
X117095238Y-139452380D01*
X116809523Y-139452380D01*
X116714285Y-139404761D01*
X116666666Y-139357142D01*
%TO.C,C1*%
X114833333Y-99357142D02*
X114785714Y-99404761D01*
X114642857Y-99452380D01*
X114547619Y-99452380D01*
X114404761Y-99404761D01*
X114309523Y-99309523D01*
X114261904Y-99214285D01*
X114214285Y-99023809D01*
X114214285Y-98880952D01*
X114261904Y-98690476D01*
X114309523Y-98595238D01*
X114404761Y-98500000D01*
X114547619Y-98452380D01*
X114642857Y-98452380D01*
X114785714Y-98500000D01*
X114833333Y-98547619D01*
X115785714Y-99452380D02*
X115214285Y-99452380D01*
X115500000Y-99452380D02*
X115500000Y-98452380D01*
X115404761Y-98595238D01*
X115309523Y-98690476D01*
X115214285Y-98738095D01*
%TD*%
M02*
