%TF.GenerationSoftware,KiCad,Pcbnew,5.1.10*%
%TF.CreationDate,2021-12-12T21:50:50+01:00*%
%TF.ProjectId,Magnetbandinterface_4k-System,4d61676e-6574-4626-916e-64696e746572,rev?*%
%TF.SameCoordinates,Original*%
%TF.FileFunction,Plated,1,2,PTH,Drill*%
%TF.FilePolarity,Positive*%
%FSLAX46Y46*%
G04 Gerber Fmt 4.6, Leading zero omitted, Abs format (unit mm)*
G04 Created by KiCad (PCBNEW 5.1.10) date 2021-12-12 21:50:50*
%MOMM*%
%LPD*%
G01*
G04 APERTURE LIST*
%TA.AperFunction,ComponentDrill*%
%ADD10C,0.800000*%
%TD*%
%TA.AperFunction,ViaDrill*%
%ADD11C,0.800000*%
%TD*%
%TA.AperFunction,ComponentDrill*%
%ADD12C,1.000000*%
%TD*%
%TA.AperFunction,ComponentDrill*%
%ADD13C,1.500000*%
%TD*%
G04 APERTURE END LIST*
D10*
%TO.C,U17*%
X106880000Y-128380000D03*
X106880000Y-130920000D03*
X106880000Y-133460000D03*
X106880000Y-136000000D03*
%TO.C,C1*%
X109500000Y-101000000D03*
%TO.C,C17*%
X109500000Y-141000000D03*
X109500000Y-143500000D03*
%TO.C,C1*%
X112000000Y-101000000D03*
%TO.C,T2*%
X112000000Y-111500000D03*
%TO.C,C2*%
X112000000Y-116000000D03*
X112000000Y-123500000D03*
%TO.C,C3*%
X114000000Y-141000000D03*
%TO.C,U17*%
X114500000Y-128380000D03*
X114500000Y-130920000D03*
X114500000Y-133460000D03*
X114500000Y-136000000D03*
%TO.C,T2*%
X114540000Y-111500000D03*
%TO.C,U18*%
X116880000Y-130920000D03*
X116880000Y-133460000D03*
X116880000Y-136000000D03*
%TO.C,C13*%
X117000000Y-121000000D03*
%TD*%
D11*
X117000000Y-125000000D03*
D10*
%TO.C,C13*%
X117000000Y-128500000D03*
%TO.C,T2*%
X117080000Y-111500000D03*
%TO.C,C3*%
X119000000Y-141000000D03*
%TO.C,C14*%
X119500000Y-118500000D03*
%TD*%
D11*
X119500000Y-122500000D03*
D10*
%TO.C,C14*%
X119500000Y-126000000D03*
%TO.C,C18*%
X124500000Y-101000000D03*
%TO.C,T1*%
X124500000Y-106000000D03*
%TO.C,U18*%
X124500000Y-130920000D03*
X124500000Y-133460000D03*
X124500000Y-136000000D03*
%TD*%
D11*
X124500000Y-141000000D03*
D10*
%TO.C,C18*%
X127000000Y-101000000D03*
%TO.C,T1*%
X127040000Y-106000000D03*
X129580000Y-106000000D03*
%TO.C,C16*%
X132000000Y-128500000D03*
X132000000Y-131000000D03*
D12*
%TO.C,R13*%
X104500000Y-103500000D03*
%TO.C,R15*%
X104500000Y-131000000D03*
X104500000Y-143500000D03*
%TO.C,R14*%
X107000000Y-106000000D03*
X107000000Y-118500000D03*
%TO.C,R3*%
X109500000Y-106000000D03*
%TO.C,R4*%
X109500000Y-108500000D03*
X109500000Y-121000000D03*
%TO.C,R5*%
X114500000Y-113500000D03*
X114500000Y-126000000D03*
%TO.C,R13*%
X117000000Y-103500000D03*
%TO.C,R2*%
X117000000Y-109500000D03*
%TO.C,R1*%
X119500000Y-111500000D03*
%TO.C,R3*%
X122000000Y-106000000D03*
%TO.C,R6*%
X122000000Y-113500000D03*
X122000000Y-126000000D03*
%TO.C,R19*%
X124500000Y-116000000D03*
X124500000Y-128500000D03*
%TO.C,R8*%
X127000000Y-113500000D03*
X127000000Y-126000000D03*
%TO.C,R7*%
X127000000Y-128500000D03*
X127000000Y-141000000D03*
%TO.C,R2*%
X129500000Y-109500000D03*
%TO.C,R18*%
X129500000Y-116000000D03*
X129500000Y-128500000D03*
%TO.C,R17*%
X129500000Y-131000000D03*
X129500000Y-143500000D03*
%TO.C,R1*%
X132000000Y-111500000D03*
D13*
%TO.C,TP7*%
X102000000Y-101000000D03*
%TO.C,TP9*%
X102000000Y-106000000D03*
%TO.C,TP4*%
X104500000Y-111500000D03*
%TO.C,TP8*%
X104500000Y-116000000D03*
%TO.C,TP6*%
X104500000Y-121000000D03*
%TO.C,TP5*%
X104500000Y-126000000D03*
%TO.C,TP10*%
X132000000Y-103500000D03*
%TO.C,TP3*%
X132000000Y-118500000D03*
%TO.C,TP2*%
X132000000Y-123500000D03*
%TO.C,TP1*%
X132000000Y-136000000D03*
M02*
