%TF.GenerationSoftware,KiCad,Pcbnew,5.1.10*%
%TF.CreationDate,2021-12-10T20:41:03+01:00*%
%TF.ProjectId,Tastatur,54617374-6174-4757-922e-6b696361645f,rev?*%
%TF.SameCoordinates,Original*%
%TF.FileFunction,Legend,Top*%
%TF.FilePolarity,Positive*%
%FSLAX46Y46*%
G04 Gerber Fmt 4.6, Leading zero omitted, Abs format (unit mm)*
G04 Created by KiCad (PCBNEW 5.1.10) date 2021-12-10 20:41:03*
%MOMM*%
%LPD*%
G01*
G04 APERTURE LIST*
%ADD10C,0.120000*%
%ADD11C,0.150000*%
G04 APERTURE END LIST*
D10*
%TO.C,X11*%
X240160000Y-37390000D02*
X237630000Y-37390000D01*
X237630000Y-37390000D02*
X237630000Y-37520000D01*
X237630000Y-37520000D02*
X235820000Y-37520000D01*
X235820000Y-37520000D02*
X235820000Y-37390000D01*
X235820000Y-37390000D02*
X234840000Y-37390000D01*
X234840000Y-37390000D02*
X234840000Y-47510000D01*
X234840000Y-47510000D02*
X233340000Y-47510000D01*
X233340000Y-47510000D02*
X233340000Y-55350000D01*
X233340000Y-55350000D02*
X234840000Y-55350000D01*
X234840000Y-55350000D02*
X234840000Y-65470000D01*
X234840000Y-65470000D02*
X235820000Y-65470000D01*
X235820000Y-65470000D02*
X235820000Y-65340000D01*
X235820000Y-65340000D02*
X237630000Y-65340000D01*
X237630000Y-65340000D02*
X237630000Y-65470000D01*
X237630000Y-65470000D02*
X240160000Y-65470000D01*
X240160000Y-65470000D02*
X240160000Y-37390000D01*
X238050000Y-37090000D02*
X240460000Y-37090000D01*
X240460000Y-37090000D02*
X240460000Y-39500000D01*
%TO.C,U1*%
X148610000Y-43430000D02*
X148610000Y-61330000D01*
X179330000Y-43430000D02*
X148610000Y-43430000D01*
X179330000Y-61330000D02*
X179330000Y-43430000D01*
X148610000Y-61330000D02*
X179330000Y-61330000D01*
X148670000Y-45920000D02*
X148670000Y-51380000D01*
X179270000Y-45920000D02*
X148670000Y-45920000D01*
X179270000Y-58840000D02*
X179270000Y-45920000D01*
X148670000Y-58840000D02*
X179270000Y-58840000D01*
X148670000Y-53380000D02*
X148670000Y-58840000D01*
X148670000Y-51380000D02*
G75*
G02*
X148670000Y-53380000I0J-1000000D01*
G01*
%TO.C,SW48*%
X232700000Y-112700000D02*
X232700000Y-127300000D01*
X247300000Y-112700000D02*
X232700000Y-112700000D01*
X247300000Y-127300000D02*
X247300000Y-112700000D01*
X232700000Y-127300000D02*
X247300000Y-127300000D01*
%TO.C,SW47*%
X217700000Y-112700000D02*
X217700000Y-127300000D01*
X232300000Y-112700000D02*
X217700000Y-112700000D01*
X232300000Y-127300000D02*
X232300000Y-112700000D01*
X217700000Y-127300000D02*
X232300000Y-127300000D01*
%TO.C,SW46*%
X202700000Y-112700000D02*
X202700000Y-127300000D01*
X217300000Y-112700000D02*
X202700000Y-112700000D01*
X217300000Y-127300000D02*
X217300000Y-112700000D01*
X202700000Y-127300000D02*
X217300000Y-127300000D01*
%TO.C,SW45*%
X187700000Y-112700000D02*
X187700000Y-127300000D01*
X202300000Y-112700000D02*
X187700000Y-112700000D01*
X202300000Y-127300000D02*
X202300000Y-112700000D01*
X187700000Y-127300000D02*
X202300000Y-127300000D01*
%TO.C,SW44*%
X172700000Y-112700000D02*
X172700000Y-127300000D01*
X187300000Y-112700000D02*
X172700000Y-112700000D01*
X187300000Y-127300000D02*
X187300000Y-112700000D01*
X172700000Y-127300000D02*
X187300000Y-127300000D01*
%TO.C,SW43*%
X157700000Y-112700000D02*
X157700000Y-127300000D01*
X172300000Y-112700000D02*
X157700000Y-112700000D01*
X172300000Y-127300000D02*
X172300000Y-112700000D01*
X157700000Y-127300000D02*
X172300000Y-127300000D01*
%TO.C,SW42*%
X142700000Y-112700000D02*
X142700000Y-127300000D01*
X157300000Y-112700000D02*
X142700000Y-112700000D01*
X157300000Y-127300000D02*
X157300000Y-112700000D01*
X142700000Y-127300000D02*
X157300000Y-127300000D01*
%TO.C,SW41*%
X127700000Y-112700000D02*
X127700000Y-127300000D01*
X142300000Y-112700000D02*
X127700000Y-112700000D01*
X142300000Y-127300000D02*
X142300000Y-112700000D01*
X127700000Y-127300000D02*
X142300000Y-127300000D01*
%TO.C,SW40*%
X112700000Y-112700000D02*
X112700000Y-127300000D01*
X127300000Y-112700000D02*
X112700000Y-112700000D01*
X127300000Y-127300000D02*
X127300000Y-112700000D01*
X112700000Y-127300000D02*
X127300000Y-127300000D01*
%TO.C,SW39*%
X97700000Y-112700000D02*
X97700000Y-127300000D01*
X112300000Y-112700000D02*
X97700000Y-112700000D01*
X112300000Y-127300000D02*
X112300000Y-112700000D01*
X97700000Y-127300000D02*
X112300000Y-127300000D01*
%TO.C,SW38*%
X82700000Y-112700000D02*
X82700000Y-127300000D01*
X97300000Y-112700000D02*
X82700000Y-112700000D01*
X97300000Y-127300000D02*
X97300000Y-112700000D01*
X82700000Y-127300000D02*
X97300000Y-127300000D01*
%TO.C,SW37*%
X67700000Y-112700000D02*
X67700000Y-127300000D01*
X82300000Y-112700000D02*
X67700000Y-112700000D01*
X82300000Y-127300000D02*
X82300000Y-112700000D01*
X67700000Y-127300000D02*
X82300000Y-127300000D01*
%TO.C,SW36*%
X232700000Y-97700000D02*
X232700000Y-112300000D01*
X247300000Y-97700000D02*
X232700000Y-97700000D01*
X247300000Y-112300000D02*
X247300000Y-97700000D01*
X232700000Y-112300000D02*
X247300000Y-112300000D01*
%TO.C,SW35*%
X217700000Y-97700000D02*
X217700000Y-112300000D01*
X232300000Y-97700000D02*
X217700000Y-97700000D01*
X232300000Y-112300000D02*
X232300000Y-97700000D01*
X217700000Y-112300000D02*
X232300000Y-112300000D01*
%TO.C,SW34*%
X202700000Y-97700000D02*
X202700000Y-112300000D01*
X217300000Y-97700000D02*
X202700000Y-97700000D01*
X217300000Y-112300000D02*
X217300000Y-97700000D01*
X202700000Y-112300000D02*
X217300000Y-112300000D01*
%TO.C,SW33*%
X187700000Y-97700000D02*
X187700000Y-112300000D01*
X202300000Y-97700000D02*
X187700000Y-97700000D01*
X202300000Y-112300000D02*
X202300000Y-97700000D01*
X187700000Y-112300000D02*
X202300000Y-112300000D01*
%TO.C,SW32*%
X172700000Y-97700000D02*
X172700000Y-112300000D01*
X187300000Y-97700000D02*
X172700000Y-97700000D01*
X187300000Y-112300000D02*
X187300000Y-97700000D01*
X172700000Y-112300000D02*
X187300000Y-112300000D01*
%TO.C,SW31*%
X157700000Y-97700000D02*
X157700000Y-112300000D01*
X172300000Y-97700000D02*
X157700000Y-97700000D01*
X172300000Y-112300000D02*
X172300000Y-97700000D01*
X157700000Y-112300000D02*
X172300000Y-112300000D01*
%TO.C,SW30*%
X142700000Y-97700000D02*
X142700000Y-112300000D01*
X157300000Y-97700000D02*
X142700000Y-97700000D01*
X157300000Y-112300000D02*
X157300000Y-97700000D01*
X142700000Y-112300000D02*
X157300000Y-112300000D01*
%TO.C,SW29*%
X127700000Y-97700000D02*
X127700000Y-112300000D01*
X142300000Y-97700000D02*
X127700000Y-97700000D01*
X142300000Y-112300000D02*
X142300000Y-97700000D01*
X127700000Y-112300000D02*
X142300000Y-112300000D01*
%TO.C,SW28*%
X112700000Y-97700000D02*
X112700000Y-112300000D01*
X127300000Y-97700000D02*
X112700000Y-97700000D01*
X127300000Y-112300000D02*
X127300000Y-97700000D01*
X112700000Y-112300000D02*
X127300000Y-112300000D01*
%TO.C,SW27*%
X97700000Y-97700000D02*
X97700000Y-112300000D01*
X112300000Y-97700000D02*
X97700000Y-97700000D01*
X112300000Y-112300000D02*
X112300000Y-97700000D01*
X97700000Y-112300000D02*
X112300000Y-112300000D01*
%TO.C,SW26*%
X82700000Y-97700000D02*
X82700000Y-112300000D01*
X97300000Y-97700000D02*
X82700000Y-97700000D01*
X97300000Y-112300000D02*
X97300000Y-97700000D01*
X82700000Y-112300000D02*
X97300000Y-112300000D01*
%TO.C,SW25*%
X67700000Y-97700000D02*
X67700000Y-112300000D01*
X82300000Y-97700000D02*
X67700000Y-97700000D01*
X82300000Y-112300000D02*
X82300000Y-97700000D01*
X67700000Y-112300000D02*
X82300000Y-112300000D01*
%TO.C,SW24*%
X232700000Y-82700000D02*
X232700000Y-97300000D01*
X247300000Y-82700000D02*
X232700000Y-82700000D01*
X247300000Y-97300000D02*
X247300000Y-82700000D01*
X232700000Y-97300000D02*
X247300000Y-97300000D01*
%TO.C,SW23*%
X217700000Y-82700000D02*
X217700000Y-97300000D01*
X232300000Y-82700000D02*
X217700000Y-82700000D01*
X232300000Y-97300000D02*
X232300000Y-82700000D01*
X217700000Y-97300000D02*
X232300000Y-97300000D01*
%TO.C,SW22*%
X202700000Y-82700000D02*
X202700000Y-97300000D01*
X217300000Y-82700000D02*
X202700000Y-82700000D01*
X217300000Y-97300000D02*
X217300000Y-82700000D01*
X202700000Y-97300000D02*
X217300000Y-97300000D01*
%TO.C,SW21*%
X187700000Y-82700000D02*
X187700000Y-97300000D01*
X202300000Y-82700000D02*
X187700000Y-82700000D01*
X202300000Y-97300000D02*
X202300000Y-82700000D01*
X187700000Y-97300000D02*
X202300000Y-97300000D01*
%TO.C,SW20*%
X172700000Y-82700000D02*
X172700000Y-97300000D01*
X187300000Y-82700000D02*
X172700000Y-82700000D01*
X187300000Y-97300000D02*
X187300000Y-82700000D01*
X172700000Y-97300000D02*
X187300000Y-97300000D01*
%TO.C,SW19*%
X157700000Y-82700000D02*
X157700000Y-97300000D01*
X172300000Y-82700000D02*
X157700000Y-82700000D01*
X172300000Y-97300000D02*
X172300000Y-82700000D01*
X157700000Y-97300000D02*
X172300000Y-97300000D01*
%TO.C,SW18*%
X142700000Y-82700000D02*
X142700000Y-97300000D01*
X157300000Y-82700000D02*
X142700000Y-82700000D01*
X157300000Y-97300000D02*
X157300000Y-82700000D01*
X142700000Y-97300000D02*
X157300000Y-97300000D01*
%TO.C,SW17*%
X127700000Y-82700000D02*
X127700000Y-97300000D01*
X142300000Y-82700000D02*
X127700000Y-82700000D01*
X142300000Y-97300000D02*
X142300000Y-82700000D01*
X127700000Y-97300000D02*
X142300000Y-97300000D01*
%TO.C,SW16*%
X112700000Y-82700000D02*
X112700000Y-97300000D01*
X127300000Y-82700000D02*
X112700000Y-82700000D01*
X127300000Y-97300000D02*
X127300000Y-82700000D01*
X112700000Y-97300000D02*
X127300000Y-97300000D01*
%TO.C,SW15*%
X97700000Y-82700000D02*
X97700000Y-97300000D01*
X112300000Y-82700000D02*
X97700000Y-82700000D01*
X112300000Y-97300000D02*
X112300000Y-82700000D01*
X97700000Y-97300000D02*
X112300000Y-97300000D01*
%TO.C,SW14*%
X82700000Y-82700000D02*
X82700000Y-97300000D01*
X97300000Y-82700000D02*
X82700000Y-82700000D01*
X97300000Y-97300000D02*
X97300000Y-82700000D01*
X82700000Y-97300000D02*
X97300000Y-97300000D01*
%TO.C,SW13*%
X67700000Y-82700000D02*
X67700000Y-97300000D01*
X82300000Y-82700000D02*
X67700000Y-82700000D01*
X82300000Y-97300000D02*
X82300000Y-82700000D01*
X67700000Y-97300000D02*
X82300000Y-97300000D01*
%TO.C,SW12*%
X232700000Y-67700000D02*
X232700000Y-82300000D01*
X247300000Y-67700000D02*
X232700000Y-67700000D01*
X247300000Y-82300000D02*
X247300000Y-67700000D01*
X232700000Y-82300000D02*
X247300000Y-82300000D01*
%TO.C,SW11*%
X217700000Y-67700000D02*
X217700000Y-82300000D01*
X232300000Y-67700000D02*
X217700000Y-67700000D01*
X232300000Y-82300000D02*
X232300000Y-67700000D01*
X217700000Y-82300000D02*
X232300000Y-82300000D01*
%TO.C,SW10*%
X202700000Y-67700000D02*
X202700000Y-82300000D01*
X217300000Y-67700000D02*
X202700000Y-67700000D01*
X217300000Y-82300000D02*
X217300000Y-67700000D01*
X202700000Y-82300000D02*
X217300000Y-82300000D01*
%TO.C,SW9*%
X187700000Y-67700000D02*
X187700000Y-82300000D01*
X202300000Y-67700000D02*
X187700000Y-67700000D01*
X202300000Y-82300000D02*
X202300000Y-67700000D01*
X187700000Y-82300000D02*
X202300000Y-82300000D01*
%TO.C,SW8*%
X172700000Y-67700000D02*
X172700000Y-82300000D01*
X187300000Y-67700000D02*
X172700000Y-67700000D01*
X187300000Y-82300000D02*
X187300000Y-67700000D01*
X172700000Y-82300000D02*
X187300000Y-82300000D01*
%TO.C,SW7*%
X157700000Y-67700000D02*
X157700000Y-82300000D01*
X172300000Y-67700000D02*
X157700000Y-67700000D01*
X172300000Y-82300000D02*
X172300000Y-67700000D01*
X157700000Y-82300000D02*
X172300000Y-82300000D01*
%TO.C,SW6*%
X142700000Y-67700000D02*
X142700000Y-82300000D01*
X157300000Y-67700000D02*
X142700000Y-67700000D01*
X157300000Y-82300000D02*
X157300000Y-67700000D01*
X142700000Y-82300000D02*
X157300000Y-82300000D01*
%TO.C,SW5*%
X127700000Y-67700000D02*
X127700000Y-82300000D01*
X142300000Y-67700000D02*
X127700000Y-67700000D01*
X142300000Y-82300000D02*
X142300000Y-67700000D01*
X127700000Y-82300000D02*
X142300000Y-82300000D01*
%TO.C,SW4*%
X112700000Y-67700000D02*
X112700000Y-82300000D01*
X127300000Y-67700000D02*
X112700000Y-67700000D01*
X127300000Y-82300000D02*
X127300000Y-67700000D01*
X112700000Y-82300000D02*
X127300000Y-82300000D01*
%TO.C,SW3*%
X97700000Y-67700000D02*
X97700000Y-82300000D01*
X112300000Y-67700000D02*
X97700000Y-67700000D01*
X112300000Y-82300000D02*
X112300000Y-67700000D01*
X97700000Y-82300000D02*
X112300000Y-82300000D01*
%TO.C,SW2*%
X82700000Y-67700000D02*
X82700000Y-82300000D01*
X97300000Y-67700000D02*
X82700000Y-67700000D01*
X97300000Y-82300000D02*
X97300000Y-67700000D01*
X82700000Y-82300000D02*
X97300000Y-82300000D01*
%TO.C,SW1*%
X67700000Y-67700000D02*
X67700000Y-82300000D01*
X82300000Y-67700000D02*
X67700000Y-67700000D01*
X82300000Y-82300000D02*
X82300000Y-67700000D01*
X67700000Y-82300000D02*
X82300000Y-82300000D01*
%TO.C,C12*%
X143945000Y-49770000D02*
X143930000Y-49770000D01*
X146070000Y-49770000D02*
X146055000Y-49770000D01*
X143945000Y-45230000D02*
X143930000Y-45230000D01*
X146070000Y-45230000D02*
X146055000Y-45230000D01*
X143930000Y-45230000D02*
X143930000Y-49770000D01*
X146070000Y-45230000D02*
X146070000Y-49770000D01*
%TO.C,X11*%
D11*
X240702380Y-52715714D02*
X241702380Y-52049047D01*
X240702380Y-52049047D02*
X241702380Y-52715714D01*
X241702380Y-51144285D02*
X241702380Y-51715714D01*
X241702380Y-51430000D02*
X240702380Y-51430000D01*
X240845238Y-51525238D01*
X240940476Y-51620476D01*
X240988095Y-51715714D01*
X241702380Y-50191904D02*
X241702380Y-50763333D01*
X241702380Y-50477619D02*
X240702380Y-50477619D01*
X240845238Y-50572857D01*
X240940476Y-50668095D01*
X240988095Y-50763333D01*
%TO.C,H4*%
X244238095Y-130952380D02*
X244238095Y-129952380D01*
X244238095Y-130428571D02*
X244809523Y-130428571D01*
X244809523Y-130952380D02*
X244809523Y-129952380D01*
X245714285Y-130285714D02*
X245714285Y-130952380D01*
X245476190Y-129904761D02*
X245238095Y-130619047D01*
X245857142Y-130619047D01*
%TO.C,H3*%
X244238095Y-35952380D02*
X244238095Y-34952380D01*
X244238095Y-35428571D02*
X244809523Y-35428571D01*
X244809523Y-35952380D02*
X244809523Y-34952380D01*
X245190476Y-34952380D02*
X245809523Y-34952380D01*
X245476190Y-35333333D01*
X245619047Y-35333333D01*
X245714285Y-35380952D01*
X245761904Y-35428571D01*
X245809523Y-35523809D01*
X245809523Y-35761904D01*
X245761904Y-35857142D01*
X245714285Y-35904761D01*
X245619047Y-35952380D01*
X245333333Y-35952380D01*
X245238095Y-35904761D01*
X245190476Y-35857142D01*
%TO.C,H2*%
X69238095Y-35952380D02*
X69238095Y-34952380D01*
X69238095Y-35428571D02*
X69809523Y-35428571D01*
X69809523Y-35952380D02*
X69809523Y-34952380D01*
X70238095Y-35047619D02*
X70285714Y-35000000D01*
X70380952Y-34952380D01*
X70619047Y-34952380D01*
X70714285Y-35000000D01*
X70761904Y-35047619D01*
X70809523Y-35142857D01*
X70809523Y-35238095D01*
X70761904Y-35380952D01*
X70190476Y-35952380D01*
X70809523Y-35952380D01*
%TO.C,H1*%
X69238095Y-130952380D02*
X69238095Y-129952380D01*
X69238095Y-130428571D02*
X69809523Y-130428571D01*
X69809523Y-130952380D02*
X69809523Y-129952380D01*
X70809523Y-130952380D02*
X70238095Y-130952380D01*
X70523809Y-130952380D02*
X70523809Y-129952380D01*
X70428571Y-130095238D01*
X70333333Y-130190476D01*
X70238095Y-130238095D01*
%TO.C,U1*%
X147122380Y-53141904D02*
X147931904Y-53141904D01*
X148027142Y-53094285D01*
X148074761Y-53046666D01*
X148122380Y-52951428D01*
X148122380Y-52760952D01*
X148074761Y-52665714D01*
X148027142Y-52618095D01*
X147931904Y-52570476D01*
X147122380Y-52570476D01*
X148122380Y-51570476D02*
X148122380Y-52141904D01*
X148122380Y-51856190D02*
X147122380Y-51856190D01*
X147265238Y-51951428D01*
X147360476Y-52046666D01*
X147408095Y-52141904D01*
%TO.C,SW48*%
X238190476Y-120904761D02*
X238333333Y-120952380D01*
X238571428Y-120952380D01*
X238666666Y-120904761D01*
X238714285Y-120857142D01*
X238761904Y-120761904D01*
X238761904Y-120666666D01*
X238714285Y-120571428D01*
X238666666Y-120523809D01*
X238571428Y-120476190D01*
X238380952Y-120428571D01*
X238285714Y-120380952D01*
X238238095Y-120333333D01*
X238190476Y-120238095D01*
X238190476Y-120142857D01*
X238238095Y-120047619D01*
X238285714Y-120000000D01*
X238380952Y-119952380D01*
X238619047Y-119952380D01*
X238761904Y-120000000D01*
X239095238Y-119952380D02*
X239333333Y-120952380D01*
X239523809Y-120238095D01*
X239714285Y-120952380D01*
X239952380Y-119952380D01*
X240761904Y-120285714D02*
X240761904Y-120952380D01*
X240523809Y-119904761D02*
X240285714Y-120619047D01*
X240904761Y-120619047D01*
X241428571Y-120380952D02*
X241333333Y-120333333D01*
X241285714Y-120285714D01*
X241238095Y-120190476D01*
X241238095Y-120142857D01*
X241285714Y-120047619D01*
X241333333Y-120000000D01*
X241428571Y-119952380D01*
X241619047Y-119952380D01*
X241714285Y-120000000D01*
X241761904Y-120047619D01*
X241809523Y-120142857D01*
X241809523Y-120190476D01*
X241761904Y-120285714D01*
X241714285Y-120333333D01*
X241619047Y-120380952D01*
X241428571Y-120380952D01*
X241333333Y-120428571D01*
X241285714Y-120476190D01*
X241238095Y-120571428D01*
X241238095Y-120761904D01*
X241285714Y-120857142D01*
X241333333Y-120904761D01*
X241428571Y-120952380D01*
X241619047Y-120952380D01*
X241714285Y-120904761D01*
X241761904Y-120857142D01*
X241809523Y-120761904D01*
X241809523Y-120571428D01*
X241761904Y-120476190D01*
X241714285Y-120428571D01*
X241619047Y-120380952D01*
%TO.C,SW47*%
X223190476Y-120904761D02*
X223333333Y-120952380D01*
X223571428Y-120952380D01*
X223666666Y-120904761D01*
X223714285Y-120857142D01*
X223761904Y-120761904D01*
X223761904Y-120666666D01*
X223714285Y-120571428D01*
X223666666Y-120523809D01*
X223571428Y-120476190D01*
X223380952Y-120428571D01*
X223285714Y-120380952D01*
X223238095Y-120333333D01*
X223190476Y-120238095D01*
X223190476Y-120142857D01*
X223238095Y-120047619D01*
X223285714Y-120000000D01*
X223380952Y-119952380D01*
X223619047Y-119952380D01*
X223761904Y-120000000D01*
X224095238Y-119952380D02*
X224333333Y-120952380D01*
X224523809Y-120238095D01*
X224714285Y-120952380D01*
X224952380Y-119952380D01*
X225761904Y-120285714D02*
X225761904Y-120952380D01*
X225523809Y-119904761D02*
X225285714Y-120619047D01*
X225904761Y-120619047D01*
X226190476Y-119952380D02*
X226857142Y-119952380D01*
X226428571Y-120952380D01*
%TO.C,SW46*%
X208190476Y-120904761D02*
X208333333Y-120952380D01*
X208571428Y-120952380D01*
X208666666Y-120904761D01*
X208714285Y-120857142D01*
X208761904Y-120761904D01*
X208761904Y-120666666D01*
X208714285Y-120571428D01*
X208666666Y-120523809D01*
X208571428Y-120476190D01*
X208380952Y-120428571D01*
X208285714Y-120380952D01*
X208238095Y-120333333D01*
X208190476Y-120238095D01*
X208190476Y-120142857D01*
X208238095Y-120047619D01*
X208285714Y-120000000D01*
X208380952Y-119952380D01*
X208619047Y-119952380D01*
X208761904Y-120000000D01*
X209095238Y-119952380D02*
X209333333Y-120952380D01*
X209523809Y-120238095D01*
X209714285Y-120952380D01*
X209952380Y-119952380D01*
X210761904Y-120285714D02*
X210761904Y-120952380D01*
X210523809Y-119904761D02*
X210285714Y-120619047D01*
X210904761Y-120619047D01*
X211714285Y-119952380D02*
X211523809Y-119952380D01*
X211428571Y-120000000D01*
X211380952Y-120047619D01*
X211285714Y-120190476D01*
X211238095Y-120380952D01*
X211238095Y-120761904D01*
X211285714Y-120857142D01*
X211333333Y-120904761D01*
X211428571Y-120952380D01*
X211619047Y-120952380D01*
X211714285Y-120904761D01*
X211761904Y-120857142D01*
X211809523Y-120761904D01*
X211809523Y-120523809D01*
X211761904Y-120428571D01*
X211714285Y-120380952D01*
X211619047Y-120333333D01*
X211428571Y-120333333D01*
X211333333Y-120380952D01*
X211285714Y-120428571D01*
X211238095Y-120523809D01*
%TO.C,SW45*%
X193190476Y-120904761D02*
X193333333Y-120952380D01*
X193571428Y-120952380D01*
X193666666Y-120904761D01*
X193714285Y-120857142D01*
X193761904Y-120761904D01*
X193761904Y-120666666D01*
X193714285Y-120571428D01*
X193666666Y-120523809D01*
X193571428Y-120476190D01*
X193380952Y-120428571D01*
X193285714Y-120380952D01*
X193238095Y-120333333D01*
X193190476Y-120238095D01*
X193190476Y-120142857D01*
X193238095Y-120047619D01*
X193285714Y-120000000D01*
X193380952Y-119952380D01*
X193619047Y-119952380D01*
X193761904Y-120000000D01*
X194095238Y-119952380D02*
X194333333Y-120952380D01*
X194523809Y-120238095D01*
X194714285Y-120952380D01*
X194952380Y-119952380D01*
X195761904Y-120285714D02*
X195761904Y-120952380D01*
X195523809Y-119904761D02*
X195285714Y-120619047D01*
X195904761Y-120619047D01*
X196761904Y-119952380D02*
X196285714Y-119952380D01*
X196238095Y-120428571D01*
X196285714Y-120380952D01*
X196380952Y-120333333D01*
X196619047Y-120333333D01*
X196714285Y-120380952D01*
X196761904Y-120428571D01*
X196809523Y-120523809D01*
X196809523Y-120761904D01*
X196761904Y-120857142D01*
X196714285Y-120904761D01*
X196619047Y-120952380D01*
X196380952Y-120952380D01*
X196285714Y-120904761D01*
X196238095Y-120857142D01*
%TO.C,SW44*%
X178190476Y-120904761D02*
X178333333Y-120952380D01*
X178571428Y-120952380D01*
X178666666Y-120904761D01*
X178714285Y-120857142D01*
X178761904Y-120761904D01*
X178761904Y-120666666D01*
X178714285Y-120571428D01*
X178666666Y-120523809D01*
X178571428Y-120476190D01*
X178380952Y-120428571D01*
X178285714Y-120380952D01*
X178238095Y-120333333D01*
X178190476Y-120238095D01*
X178190476Y-120142857D01*
X178238095Y-120047619D01*
X178285714Y-120000000D01*
X178380952Y-119952380D01*
X178619047Y-119952380D01*
X178761904Y-120000000D01*
X179095238Y-119952380D02*
X179333333Y-120952380D01*
X179523809Y-120238095D01*
X179714285Y-120952380D01*
X179952380Y-119952380D01*
X180761904Y-120285714D02*
X180761904Y-120952380D01*
X180523809Y-119904761D02*
X180285714Y-120619047D01*
X180904761Y-120619047D01*
X181714285Y-120285714D02*
X181714285Y-120952380D01*
X181476190Y-119904761D02*
X181238095Y-120619047D01*
X181857142Y-120619047D01*
%TO.C,SW43*%
X163190476Y-120904761D02*
X163333333Y-120952380D01*
X163571428Y-120952380D01*
X163666666Y-120904761D01*
X163714285Y-120857142D01*
X163761904Y-120761904D01*
X163761904Y-120666666D01*
X163714285Y-120571428D01*
X163666666Y-120523809D01*
X163571428Y-120476190D01*
X163380952Y-120428571D01*
X163285714Y-120380952D01*
X163238095Y-120333333D01*
X163190476Y-120238095D01*
X163190476Y-120142857D01*
X163238095Y-120047619D01*
X163285714Y-120000000D01*
X163380952Y-119952380D01*
X163619047Y-119952380D01*
X163761904Y-120000000D01*
X164095238Y-119952380D02*
X164333333Y-120952380D01*
X164523809Y-120238095D01*
X164714285Y-120952380D01*
X164952380Y-119952380D01*
X165761904Y-120285714D02*
X165761904Y-120952380D01*
X165523809Y-119904761D02*
X165285714Y-120619047D01*
X165904761Y-120619047D01*
X166190476Y-119952380D02*
X166809523Y-119952380D01*
X166476190Y-120333333D01*
X166619047Y-120333333D01*
X166714285Y-120380952D01*
X166761904Y-120428571D01*
X166809523Y-120523809D01*
X166809523Y-120761904D01*
X166761904Y-120857142D01*
X166714285Y-120904761D01*
X166619047Y-120952380D01*
X166333333Y-120952380D01*
X166238095Y-120904761D01*
X166190476Y-120857142D01*
%TO.C,SW42*%
X148190476Y-120904761D02*
X148333333Y-120952380D01*
X148571428Y-120952380D01*
X148666666Y-120904761D01*
X148714285Y-120857142D01*
X148761904Y-120761904D01*
X148761904Y-120666666D01*
X148714285Y-120571428D01*
X148666666Y-120523809D01*
X148571428Y-120476190D01*
X148380952Y-120428571D01*
X148285714Y-120380952D01*
X148238095Y-120333333D01*
X148190476Y-120238095D01*
X148190476Y-120142857D01*
X148238095Y-120047619D01*
X148285714Y-120000000D01*
X148380952Y-119952380D01*
X148619047Y-119952380D01*
X148761904Y-120000000D01*
X149095238Y-119952380D02*
X149333333Y-120952380D01*
X149523809Y-120238095D01*
X149714285Y-120952380D01*
X149952380Y-119952380D01*
X150761904Y-120285714D02*
X150761904Y-120952380D01*
X150523809Y-119904761D02*
X150285714Y-120619047D01*
X150904761Y-120619047D01*
X151238095Y-120047619D02*
X151285714Y-120000000D01*
X151380952Y-119952380D01*
X151619047Y-119952380D01*
X151714285Y-120000000D01*
X151761904Y-120047619D01*
X151809523Y-120142857D01*
X151809523Y-120238095D01*
X151761904Y-120380952D01*
X151190476Y-120952380D01*
X151809523Y-120952380D01*
%TO.C,SW41*%
X133190476Y-120904761D02*
X133333333Y-120952380D01*
X133571428Y-120952380D01*
X133666666Y-120904761D01*
X133714285Y-120857142D01*
X133761904Y-120761904D01*
X133761904Y-120666666D01*
X133714285Y-120571428D01*
X133666666Y-120523809D01*
X133571428Y-120476190D01*
X133380952Y-120428571D01*
X133285714Y-120380952D01*
X133238095Y-120333333D01*
X133190476Y-120238095D01*
X133190476Y-120142857D01*
X133238095Y-120047619D01*
X133285714Y-120000000D01*
X133380952Y-119952380D01*
X133619047Y-119952380D01*
X133761904Y-120000000D01*
X134095238Y-119952380D02*
X134333333Y-120952380D01*
X134523809Y-120238095D01*
X134714285Y-120952380D01*
X134952380Y-119952380D01*
X135761904Y-120285714D02*
X135761904Y-120952380D01*
X135523809Y-119904761D02*
X135285714Y-120619047D01*
X135904761Y-120619047D01*
X136809523Y-120952380D02*
X136238095Y-120952380D01*
X136523809Y-120952380D02*
X136523809Y-119952380D01*
X136428571Y-120095238D01*
X136333333Y-120190476D01*
X136238095Y-120238095D01*
%TO.C,SW40*%
X118190476Y-120904761D02*
X118333333Y-120952380D01*
X118571428Y-120952380D01*
X118666666Y-120904761D01*
X118714285Y-120857142D01*
X118761904Y-120761904D01*
X118761904Y-120666666D01*
X118714285Y-120571428D01*
X118666666Y-120523809D01*
X118571428Y-120476190D01*
X118380952Y-120428571D01*
X118285714Y-120380952D01*
X118238095Y-120333333D01*
X118190476Y-120238095D01*
X118190476Y-120142857D01*
X118238095Y-120047619D01*
X118285714Y-120000000D01*
X118380952Y-119952380D01*
X118619047Y-119952380D01*
X118761904Y-120000000D01*
X119095238Y-119952380D02*
X119333333Y-120952380D01*
X119523809Y-120238095D01*
X119714285Y-120952380D01*
X119952380Y-119952380D01*
X120761904Y-120285714D02*
X120761904Y-120952380D01*
X120523809Y-119904761D02*
X120285714Y-120619047D01*
X120904761Y-120619047D01*
X121476190Y-119952380D02*
X121571428Y-119952380D01*
X121666666Y-120000000D01*
X121714285Y-120047619D01*
X121761904Y-120142857D01*
X121809523Y-120333333D01*
X121809523Y-120571428D01*
X121761904Y-120761904D01*
X121714285Y-120857142D01*
X121666666Y-120904761D01*
X121571428Y-120952380D01*
X121476190Y-120952380D01*
X121380952Y-120904761D01*
X121333333Y-120857142D01*
X121285714Y-120761904D01*
X121238095Y-120571428D01*
X121238095Y-120333333D01*
X121285714Y-120142857D01*
X121333333Y-120047619D01*
X121380952Y-120000000D01*
X121476190Y-119952380D01*
%TO.C,SW39*%
X103190476Y-120904761D02*
X103333333Y-120952380D01*
X103571428Y-120952380D01*
X103666666Y-120904761D01*
X103714285Y-120857142D01*
X103761904Y-120761904D01*
X103761904Y-120666666D01*
X103714285Y-120571428D01*
X103666666Y-120523809D01*
X103571428Y-120476190D01*
X103380952Y-120428571D01*
X103285714Y-120380952D01*
X103238095Y-120333333D01*
X103190476Y-120238095D01*
X103190476Y-120142857D01*
X103238095Y-120047619D01*
X103285714Y-120000000D01*
X103380952Y-119952380D01*
X103619047Y-119952380D01*
X103761904Y-120000000D01*
X104095238Y-119952380D02*
X104333333Y-120952380D01*
X104523809Y-120238095D01*
X104714285Y-120952380D01*
X104952380Y-119952380D01*
X105238095Y-119952380D02*
X105857142Y-119952380D01*
X105523809Y-120333333D01*
X105666666Y-120333333D01*
X105761904Y-120380952D01*
X105809523Y-120428571D01*
X105857142Y-120523809D01*
X105857142Y-120761904D01*
X105809523Y-120857142D01*
X105761904Y-120904761D01*
X105666666Y-120952380D01*
X105380952Y-120952380D01*
X105285714Y-120904761D01*
X105238095Y-120857142D01*
X106333333Y-120952380D02*
X106523809Y-120952380D01*
X106619047Y-120904761D01*
X106666666Y-120857142D01*
X106761904Y-120714285D01*
X106809523Y-120523809D01*
X106809523Y-120142857D01*
X106761904Y-120047619D01*
X106714285Y-120000000D01*
X106619047Y-119952380D01*
X106428571Y-119952380D01*
X106333333Y-120000000D01*
X106285714Y-120047619D01*
X106238095Y-120142857D01*
X106238095Y-120380952D01*
X106285714Y-120476190D01*
X106333333Y-120523809D01*
X106428571Y-120571428D01*
X106619047Y-120571428D01*
X106714285Y-120523809D01*
X106761904Y-120476190D01*
X106809523Y-120380952D01*
%TO.C,SW38*%
X88190476Y-120904761D02*
X88333333Y-120952380D01*
X88571428Y-120952380D01*
X88666666Y-120904761D01*
X88714285Y-120857142D01*
X88761904Y-120761904D01*
X88761904Y-120666666D01*
X88714285Y-120571428D01*
X88666666Y-120523809D01*
X88571428Y-120476190D01*
X88380952Y-120428571D01*
X88285714Y-120380952D01*
X88238095Y-120333333D01*
X88190476Y-120238095D01*
X88190476Y-120142857D01*
X88238095Y-120047619D01*
X88285714Y-120000000D01*
X88380952Y-119952380D01*
X88619047Y-119952380D01*
X88761904Y-120000000D01*
X89095238Y-119952380D02*
X89333333Y-120952380D01*
X89523809Y-120238095D01*
X89714285Y-120952380D01*
X89952380Y-119952380D01*
X90238095Y-119952380D02*
X90857142Y-119952380D01*
X90523809Y-120333333D01*
X90666666Y-120333333D01*
X90761904Y-120380952D01*
X90809523Y-120428571D01*
X90857142Y-120523809D01*
X90857142Y-120761904D01*
X90809523Y-120857142D01*
X90761904Y-120904761D01*
X90666666Y-120952380D01*
X90380952Y-120952380D01*
X90285714Y-120904761D01*
X90238095Y-120857142D01*
X91428571Y-120380952D02*
X91333333Y-120333333D01*
X91285714Y-120285714D01*
X91238095Y-120190476D01*
X91238095Y-120142857D01*
X91285714Y-120047619D01*
X91333333Y-120000000D01*
X91428571Y-119952380D01*
X91619047Y-119952380D01*
X91714285Y-120000000D01*
X91761904Y-120047619D01*
X91809523Y-120142857D01*
X91809523Y-120190476D01*
X91761904Y-120285714D01*
X91714285Y-120333333D01*
X91619047Y-120380952D01*
X91428571Y-120380952D01*
X91333333Y-120428571D01*
X91285714Y-120476190D01*
X91238095Y-120571428D01*
X91238095Y-120761904D01*
X91285714Y-120857142D01*
X91333333Y-120904761D01*
X91428571Y-120952380D01*
X91619047Y-120952380D01*
X91714285Y-120904761D01*
X91761904Y-120857142D01*
X91809523Y-120761904D01*
X91809523Y-120571428D01*
X91761904Y-120476190D01*
X91714285Y-120428571D01*
X91619047Y-120380952D01*
%TO.C,SW37*%
X73190476Y-120904761D02*
X73333333Y-120952380D01*
X73571428Y-120952380D01*
X73666666Y-120904761D01*
X73714285Y-120857142D01*
X73761904Y-120761904D01*
X73761904Y-120666666D01*
X73714285Y-120571428D01*
X73666666Y-120523809D01*
X73571428Y-120476190D01*
X73380952Y-120428571D01*
X73285714Y-120380952D01*
X73238095Y-120333333D01*
X73190476Y-120238095D01*
X73190476Y-120142857D01*
X73238095Y-120047619D01*
X73285714Y-120000000D01*
X73380952Y-119952380D01*
X73619047Y-119952380D01*
X73761904Y-120000000D01*
X74095238Y-119952380D02*
X74333333Y-120952380D01*
X74523809Y-120238095D01*
X74714285Y-120952380D01*
X74952380Y-119952380D01*
X75238095Y-119952380D02*
X75857142Y-119952380D01*
X75523809Y-120333333D01*
X75666666Y-120333333D01*
X75761904Y-120380952D01*
X75809523Y-120428571D01*
X75857142Y-120523809D01*
X75857142Y-120761904D01*
X75809523Y-120857142D01*
X75761904Y-120904761D01*
X75666666Y-120952380D01*
X75380952Y-120952380D01*
X75285714Y-120904761D01*
X75238095Y-120857142D01*
X76190476Y-119952380D02*
X76857142Y-119952380D01*
X76428571Y-120952380D01*
%TO.C,SW36*%
X238190476Y-105904761D02*
X238333333Y-105952380D01*
X238571428Y-105952380D01*
X238666666Y-105904761D01*
X238714285Y-105857142D01*
X238761904Y-105761904D01*
X238761904Y-105666666D01*
X238714285Y-105571428D01*
X238666666Y-105523809D01*
X238571428Y-105476190D01*
X238380952Y-105428571D01*
X238285714Y-105380952D01*
X238238095Y-105333333D01*
X238190476Y-105238095D01*
X238190476Y-105142857D01*
X238238095Y-105047619D01*
X238285714Y-105000000D01*
X238380952Y-104952380D01*
X238619047Y-104952380D01*
X238761904Y-105000000D01*
X239095238Y-104952380D02*
X239333333Y-105952380D01*
X239523809Y-105238095D01*
X239714285Y-105952380D01*
X239952380Y-104952380D01*
X240238095Y-104952380D02*
X240857142Y-104952380D01*
X240523809Y-105333333D01*
X240666666Y-105333333D01*
X240761904Y-105380952D01*
X240809523Y-105428571D01*
X240857142Y-105523809D01*
X240857142Y-105761904D01*
X240809523Y-105857142D01*
X240761904Y-105904761D01*
X240666666Y-105952380D01*
X240380952Y-105952380D01*
X240285714Y-105904761D01*
X240238095Y-105857142D01*
X241714285Y-104952380D02*
X241523809Y-104952380D01*
X241428571Y-105000000D01*
X241380952Y-105047619D01*
X241285714Y-105190476D01*
X241238095Y-105380952D01*
X241238095Y-105761904D01*
X241285714Y-105857142D01*
X241333333Y-105904761D01*
X241428571Y-105952380D01*
X241619047Y-105952380D01*
X241714285Y-105904761D01*
X241761904Y-105857142D01*
X241809523Y-105761904D01*
X241809523Y-105523809D01*
X241761904Y-105428571D01*
X241714285Y-105380952D01*
X241619047Y-105333333D01*
X241428571Y-105333333D01*
X241333333Y-105380952D01*
X241285714Y-105428571D01*
X241238095Y-105523809D01*
%TO.C,SW35*%
X223190476Y-105904761D02*
X223333333Y-105952380D01*
X223571428Y-105952380D01*
X223666666Y-105904761D01*
X223714285Y-105857142D01*
X223761904Y-105761904D01*
X223761904Y-105666666D01*
X223714285Y-105571428D01*
X223666666Y-105523809D01*
X223571428Y-105476190D01*
X223380952Y-105428571D01*
X223285714Y-105380952D01*
X223238095Y-105333333D01*
X223190476Y-105238095D01*
X223190476Y-105142857D01*
X223238095Y-105047619D01*
X223285714Y-105000000D01*
X223380952Y-104952380D01*
X223619047Y-104952380D01*
X223761904Y-105000000D01*
X224095238Y-104952380D02*
X224333333Y-105952380D01*
X224523809Y-105238095D01*
X224714285Y-105952380D01*
X224952380Y-104952380D01*
X225238095Y-104952380D02*
X225857142Y-104952380D01*
X225523809Y-105333333D01*
X225666666Y-105333333D01*
X225761904Y-105380952D01*
X225809523Y-105428571D01*
X225857142Y-105523809D01*
X225857142Y-105761904D01*
X225809523Y-105857142D01*
X225761904Y-105904761D01*
X225666666Y-105952380D01*
X225380952Y-105952380D01*
X225285714Y-105904761D01*
X225238095Y-105857142D01*
X226761904Y-104952380D02*
X226285714Y-104952380D01*
X226238095Y-105428571D01*
X226285714Y-105380952D01*
X226380952Y-105333333D01*
X226619047Y-105333333D01*
X226714285Y-105380952D01*
X226761904Y-105428571D01*
X226809523Y-105523809D01*
X226809523Y-105761904D01*
X226761904Y-105857142D01*
X226714285Y-105904761D01*
X226619047Y-105952380D01*
X226380952Y-105952380D01*
X226285714Y-105904761D01*
X226238095Y-105857142D01*
%TO.C,SW34*%
X208190476Y-105904761D02*
X208333333Y-105952380D01*
X208571428Y-105952380D01*
X208666666Y-105904761D01*
X208714285Y-105857142D01*
X208761904Y-105761904D01*
X208761904Y-105666666D01*
X208714285Y-105571428D01*
X208666666Y-105523809D01*
X208571428Y-105476190D01*
X208380952Y-105428571D01*
X208285714Y-105380952D01*
X208238095Y-105333333D01*
X208190476Y-105238095D01*
X208190476Y-105142857D01*
X208238095Y-105047619D01*
X208285714Y-105000000D01*
X208380952Y-104952380D01*
X208619047Y-104952380D01*
X208761904Y-105000000D01*
X209095238Y-104952380D02*
X209333333Y-105952380D01*
X209523809Y-105238095D01*
X209714285Y-105952380D01*
X209952380Y-104952380D01*
X210238095Y-104952380D02*
X210857142Y-104952380D01*
X210523809Y-105333333D01*
X210666666Y-105333333D01*
X210761904Y-105380952D01*
X210809523Y-105428571D01*
X210857142Y-105523809D01*
X210857142Y-105761904D01*
X210809523Y-105857142D01*
X210761904Y-105904761D01*
X210666666Y-105952380D01*
X210380952Y-105952380D01*
X210285714Y-105904761D01*
X210238095Y-105857142D01*
X211714285Y-105285714D02*
X211714285Y-105952380D01*
X211476190Y-104904761D02*
X211238095Y-105619047D01*
X211857142Y-105619047D01*
%TO.C,SW33*%
X193190476Y-105904761D02*
X193333333Y-105952380D01*
X193571428Y-105952380D01*
X193666666Y-105904761D01*
X193714285Y-105857142D01*
X193761904Y-105761904D01*
X193761904Y-105666666D01*
X193714285Y-105571428D01*
X193666666Y-105523809D01*
X193571428Y-105476190D01*
X193380952Y-105428571D01*
X193285714Y-105380952D01*
X193238095Y-105333333D01*
X193190476Y-105238095D01*
X193190476Y-105142857D01*
X193238095Y-105047619D01*
X193285714Y-105000000D01*
X193380952Y-104952380D01*
X193619047Y-104952380D01*
X193761904Y-105000000D01*
X194095238Y-104952380D02*
X194333333Y-105952380D01*
X194523809Y-105238095D01*
X194714285Y-105952380D01*
X194952380Y-104952380D01*
X195238095Y-104952380D02*
X195857142Y-104952380D01*
X195523809Y-105333333D01*
X195666666Y-105333333D01*
X195761904Y-105380952D01*
X195809523Y-105428571D01*
X195857142Y-105523809D01*
X195857142Y-105761904D01*
X195809523Y-105857142D01*
X195761904Y-105904761D01*
X195666666Y-105952380D01*
X195380952Y-105952380D01*
X195285714Y-105904761D01*
X195238095Y-105857142D01*
X196190476Y-104952380D02*
X196809523Y-104952380D01*
X196476190Y-105333333D01*
X196619047Y-105333333D01*
X196714285Y-105380952D01*
X196761904Y-105428571D01*
X196809523Y-105523809D01*
X196809523Y-105761904D01*
X196761904Y-105857142D01*
X196714285Y-105904761D01*
X196619047Y-105952380D01*
X196333333Y-105952380D01*
X196238095Y-105904761D01*
X196190476Y-105857142D01*
%TO.C,SW32*%
X178190476Y-105904761D02*
X178333333Y-105952380D01*
X178571428Y-105952380D01*
X178666666Y-105904761D01*
X178714285Y-105857142D01*
X178761904Y-105761904D01*
X178761904Y-105666666D01*
X178714285Y-105571428D01*
X178666666Y-105523809D01*
X178571428Y-105476190D01*
X178380952Y-105428571D01*
X178285714Y-105380952D01*
X178238095Y-105333333D01*
X178190476Y-105238095D01*
X178190476Y-105142857D01*
X178238095Y-105047619D01*
X178285714Y-105000000D01*
X178380952Y-104952380D01*
X178619047Y-104952380D01*
X178761904Y-105000000D01*
X179095238Y-104952380D02*
X179333333Y-105952380D01*
X179523809Y-105238095D01*
X179714285Y-105952380D01*
X179952380Y-104952380D01*
X180238095Y-104952380D02*
X180857142Y-104952380D01*
X180523809Y-105333333D01*
X180666666Y-105333333D01*
X180761904Y-105380952D01*
X180809523Y-105428571D01*
X180857142Y-105523809D01*
X180857142Y-105761904D01*
X180809523Y-105857142D01*
X180761904Y-105904761D01*
X180666666Y-105952380D01*
X180380952Y-105952380D01*
X180285714Y-105904761D01*
X180238095Y-105857142D01*
X181238095Y-105047619D02*
X181285714Y-105000000D01*
X181380952Y-104952380D01*
X181619047Y-104952380D01*
X181714285Y-105000000D01*
X181761904Y-105047619D01*
X181809523Y-105142857D01*
X181809523Y-105238095D01*
X181761904Y-105380952D01*
X181190476Y-105952380D01*
X181809523Y-105952380D01*
%TO.C,SW31*%
X163190476Y-105904761D02*
X163333333Y-105952380D01*
X163571428Y-105952380D01*
X163666666Y-105904761D01*
X163714285Y-105857142D01*
X163761904Y-105761904D01*
X163761904Y-105666666D01*
X163714285Y-105571428D01*
X163666666Y-105523809D01*
X163571428Y-105476190D01*
X163380952Y-105428571D01*
X163285714Y-105380952D01*
X163238095Y-105333333D01*
X163190476Y-105238095D01*
X163190476Y-105142857D01*
X163238095Y-105047619D01*
X163285714Y-105000000D01*
X163380952Y-104952380D01*
X163619047Y-104952380D01*
X163761904Y-105000000D01*
X164095238Y-104952380D02*
X164333333Y-105952380D01*
X164523809Y-105238095D01*
X164714285Y-105952380D01*
X164952380Y-104952380D01*
X165238095Y-104952380D02*
X165857142Y-104952380D01*
X165523809Y-105333333D01*
X165666666Y-105333333D01*
X165761904Y-105380952D01*
X165809523Y-105428571D01*
X165857142Y-105523809D01*
X165857142Y-105761904D01*
X165809523Y-105857142D01*
X165761904Y-105904761D01*
X165666666Y-105952380D01*
X165380952Y-105952380D01*
X165285714Y-105904761D01*
X165238095Y-105857142D01*
X166809523Y-105952380D02*
X166238095Y-105952380D01*
X166523809Y-105952380D02*
X166523809Y-104952380D01*
X166428571Y-105095238D01*
X166333333Y-105190476D01*
X166238095Y-105238095D01*
%TO.C,SW30*%
X148190476Y-105904761D02*
X148333333Y-105952380D01*
X148571428Y-105952380D01*
X148666666Y-105904761D01*
X148714285Y-105857142D01*
X148761904Y-105761904D01*
X148761904Y-105666666D01*
X148714285Y-105571428D01*
X148666666Y-105523809D01*
X148571428Y-105476190D01*
X148380952Y-105428571D01*
X148285714Y-105380952D01*
X148238095Y-105333333D01*
X148190476Y-105238095D01*
X148190476Y-105142857D01*
X148238095Y-105047619D01*
X148285714Y-105000000D01*
X148380952Y-104952380D01*
X148619047Y-104952380D01*
X148761904Y-105000000D01*
X149095238Y-104952380D02*
X149333333Y-105952380D01*
X149523809Y-105238095D01*
X149714285Y-105952380D01*
X149952380Y-104952380D01*
X150238095Y-104952380D02*
X150857142Y-104952380D01*
X150523809Y-105333333D01*
X150666666Y-105333333D01*
X150761904Y-105380952D01*
X150809523Y-105428571D01*
X150857142Y-105523809D01*
X150857142Y-105761904D01*
X150809523Y-105857142D01*
X150761904Y-105904761D01*
X150666666Y-105952380D01*
X150380952Y-105952380D01*
X150285714Y-105904761D01*
X150238095Y-105857142D01*
X151476190Y-104952380D02*
X151571428Y-104952380D01*
X151666666Y-105000000D01*
X151714285Y-105047619D01*
X151761904Y-105142857D01*
X151809523Y-105333333D01*
X151809523Y-105571428D01*
X151761904Y-105761904D01*
X151714285Y-105857142D01*
X151666666Y-105904761D01*
X151571428Y-105952380D01*
X151476190Y-105952380D01*
X151380952Y-105904761D01*
X151333333Y-105857142D01*
X151285714Y-105761904D01*
X151238095Y-105571428D01*
X151238095Y-105333333D01*
X151285714Y-105142857D01*
X151333333Y-105047619D01*
X151380952Y-105000000D01*
X151476190Y-104952380D01*
%TO.C,SW29*%
X133190476Y-105904761D02*
X133333333Y-105952380D01*
X133571428Y-105952380D01*
X133666666Y-105904761D01*
X133714285Y-105857142D01*
X133761904Y-105761904D01*
X133761904Y-105666666D01*
X133714285Y-105571428D01*
X133666666Y-105523809D01*
X133571428Y-105476190D01*
X133380952Y-105428571D01*
X133285714Y-105380952D01*
X133238095Y-105333333D01*
X133190476Y-105238095D01*
X133190476Y-105142857D01*
X133238095Y-105047619D01*
X133285714Y-105000000D01*
X133380952Y-104952380D01*
X133619047Y-104952380D01*
X133761904Y-105000000D01*
X134095238Y-104952380D02*
X134333333Y-105952380D01*
X134523809Y-105238095D01*
X134714285Y-105952380D01*
X134952380Y-104952380D01*
X135285714Y-105047619D02*
X135333333Y-105000000D01*
X135428571Y-104952380D01*
X135666666Y-104952380D01*
X135761904Y-105000000D01*
X135809523Y-105047619D01*
X135857142Y-105142857D01*
X135857142Y-105238095D01*
X135809523Y-105380952D01*
X135238095Y-105952380D01*
X135857142Y-105952380D01*
X136333333Y-105952380D02*
X136523809Y-105952380D01*
X136619047Y-105904761D01*
X136666666Y-105857142D01*
X136761904Y-105714285D01*
X136809523Y-105523809D01*
X136809523Y-105142857D01*
X136761904Y-105047619D01*
X136714285Y-105000000D01*
X136619047Y-104952380D01*
X136428571Y-104952380D01*
X136333333Y-105000000D01*
X136285714Y-105047619D01*
X136238095Y-105142857D01*
X136238095Y-105380952D01*
X136285714Y-105476190D01*
X136333333Y-105523809D01*
X136428571Y-105571428D01*
X136619047Y-105571428D01*
X136714285Y-105523809D01*
X136761904Y-105476190D01*
X136809523Y-105380952D01*
%TO.C,SW28*%
X118190476Y-105904761D02*
X118333333Y-105952380D01*
X118571428Y-105952380D01*
X118666666Y-105904761D01*
X118714285Y-105857142D01*
X118761904Y-105761904D01*
X118761904Y-105666666D01*
X118714285Y-105571428D01*
X118666666Y-105523809D01*
X118571428Y-105476190D01*
X118380952Y-105428571D01*
X118285714Y-105380952D01*
X118238095Y-105333333D01*
X118190476Y-105238095D01*
X118190476Y-105142857D01*
X118238095Y-105047619D01*
X118285714Y-105000000D01*
X118380952Y-104952380D01*
X118619047Y-104952380D01*
X118761904Y-105000000D01*
X119095238Y-104952380D02*
X119333333Y-105952380D01*
X119523809Y-105238095D01*
X119714285Y-105952380D01*
X119952380Y-104952380D01*
X120285714Y-105047619D02*
X120333333Y-105000000D01*
X120428571Y-104952380D01*
X120666666Y-104952380D01*
X120761904Y-105000000D01*
X120809523Y-105047619D01*
X120857142Y-105142857D01*
X120857142Y-105238095D01*
X120809523Y-105380952D01*
X120238095Y-105952380D01*
X120857142Y-105952380D01*
X121428571Y-105380952D02*
X121333333Y-105333333D01*
X121285714Y-105285714D01*
X121238095Y-105190476D01*
X121238095Y-105142857D01*
X121285714Y-105047619D01*
X121333333Y-105000000D01*
X121428571Y-104952380D01*
X121619047Y-104952380D01*
X121714285Y-105000000D01*
X121761904Y-105047619D01*
X121809523Y-105142857D01*
X121809523Y-105190476D01*
X121761904Y-105285714D01*
X121714285Y-105333333D01*
X121619047Y-105380952D01*
X121428571Y-105380952D01*
X121333333Y-105428571D01*
X121285714Y-105476190D01*
X121238095Y-105571428D01*
X121238095Y-105761904D01*
X121285714Y-105857142D01*
X121333333Y-105904761D01*
X121428571Y-105952380D01*
X121619047Y-105952380D01*
X121714285Y-105904761D01*
X121761904Y-105857142D01*
X121809523Y-105761904D01*
X121809523Y-105571428D01*
X121761904Y-105476190D01*
X121714285Y-105428571D01*
X121619047Y-105380952D01*
%TO.C,SW27*%
X103190476Y-105904761D02*
X103333333Y-105952380D01*
X103571428Y-105952380D01*
X103666666Y-105904761D01*
X103714285Y-105857142D01*
X103761904Y-105761904D01*
X103761904Y-105666666D01*
X103714285Y-105571428D01*
X103666666Y-105523809D01*
X103571428Y-105476190D01*
X103380952Y-105428571D01*
X103285714Y-105380952D01*
X103238095Y-105333333D01*
X103190476Y-105238095D01*
X103190476Y-105142857D01*
X103238095Y-105047619D01*
X103285714Y-105000000D01*
X103380952Y-104952380D01*
X103619047Y-104952380D01*
X103761904Y-105000000D01*
X104095238Y-104952380D02*
X104333333Y-105952380D01*
X104523809Y-105238095D01*
X104714285Y-105952380D01*
X104952380Y-104952380D01*
X105285714Y-105047619D02*
X105333333Y-105000000D01*
X105428571Y-104952380D01*
X105666666Y-104952380D01*
X105761904Y-105000000D01*
X105809523Y-105047619D01*
X105857142Y-105142857D01*
X105857142Y-105238095D01*
X105809523Y-105380952D01*
X105238095Y-105952380D01*
X105857142Y-105952380D01*
X106190476Y-104952380D02*
X106857142Y-104952380D01*
X106428571Y-105952380D01*
%TO.C,SW26*%
X88190476Y-105904761D02*
X88333333Y-105952380D01*
X88571428Y-105952380D01*
X88666666Y-105904761D01*
X88714285Y-105857142D01*
X88761904Y-105761904D01*
X88761904Y-105666666D01*
X88714285Y-105571428D01*
X88666666Y-105523809D01*
X88571428Y-105476190D01*
X88380952Y-105428571D01*
X88285714Y-105380952D01*
X88238095Y-105333333D01*
X88190476Y-105238095D01*
X88190476Y-105142857D01*
X88238095Y-105047619D01*
X88285714Y-105000000D01*
X88380952Y-104952380D01*
X88619047Y-104952380D01*
X88761904Y-105000000D01*
X89095238Y-104952380D02*
X89333333Y-105952380D01*
X89523809Y-105238095D01*
X89714285Y-105952380D01*
X89952380Y-104952380D01*
X90285714Y-105047619D02*
X90333333Y-105000000D01*
X90428571Y-104952380D01*
X90666666Y-104952380D01*
X90761904Y-105000000D01*
X90809523Y-105047619D01*
X90857142Y-105142857D01*
X90857142Y-105238095D01*
X90809523Y-105380952D01*
X90238095Y-105952380D01*
X90857142Y-105952380D01*
X91714285Y-104952380D02*
X91523809Y-104952380D01*
X91428571Y-105000000D01*
X91380952Y-105047619D01*
X91285714Y-105190476D01*
X91238095Y-105380952D01*
X91238095Y-105761904D01*
X91285714Y-105857142D01*
X91333333Y-105904761D01*
X91428571Y-105952380D01*
X91619047Y-105952380D01*
X91714285Y-105904761D01*
X91761904Y-105857142D01*
X91809523Y-105761904D01*
X91809523Y-105523809D01*
X91761904Y-105428571D01*
X91714285Y-105380952D01*
X91619047Y-105333333D01*
X91428571Y-105333333D01*
X91333333Y-105380952D01*
X91285714Y-105428571D01*
X91238095Y-105523809D01*
%TO.C,SW25*%
X73190476Y-105904761D02*
X73333333Y-105952380D01*
X73571428Y-105952380D01*
X73666666Y-105904761D01*
X73714285Y-105857142D01*
X73761904Y-105761904D01*
X73761904Y-105666666D01*
X73714285Y-105571428D01*
X73666666Y-105523809D01*
X73571428Y-105476190D01*
X73380952Y-105428571D01*
X73285714Y-105380952D01*
X73238095Y-105333333D01*
X73190476Y-105238095D01*
X73190476Y-105142857D01*
X73238095Y-105047619D01*
X73285714Y-105000000D01*
X73380952Y-104952380D01*
X73619047Y-104952380D01*
X73761904Y-105000000D01*
X74095238Y-104952380D02*
X74333333Y-105952380D01*
X74523809Y-105238095D01*
X74714285Y-105952380D01*
X74952380Y-104952380D01*
X75285714Y-105047619D02*
X75333333Y-105000000D01*
X75428571Y-104952380D01*
X75666666Y-104952380D01*
X75761904Y-105000000D01*
X75809523Y-105047619D01*
X75857142Y-105142857D01*
X75857142Y-105238095D01*
X75809523Y-105380952D01*
X75238095Y-105952380D01*
X75857142Y-105952380D01*
X76761904Y-104952380D02*
X76285714Y-104952380D01*
X76238095Y-105428571D01*
X76285714Y-105380952D01*
X76380952Y-105333333D01*
X76619047Y-105333333D01*
X76714285Y-105380952D01*
X76761904Y-105428571D01*
X76809523Y-105523809D01*
X76809523Y-105761904D01*
X76761904Y-105857142D01*
X76714285Y-105904761D01*
X76619047Y-105952380D01*
X76380952Y-105952380D01*
X76285714Y-105904761D01*
X76238095Y-105857142D01*
%TO.C,SW24*%
X238190476Y-90904761D02*
X238333333Y-90952380D01*
X238571428Y-90952380D01*
X238666666Y-90904761D01*
X238714285Y-90857142D01*
X238761904Y-90761904D01*
X238761904Y-90666666D01*
X238714285Y-90571428D01*
X238666666Y-90523809D01*
X238571428Y-90476190D01*
X238380952Y-90428571D01*
X238285714Y-90380952D01*
X238238095Y-90333333D01*
X238190476Y-90238095D01*
X238190476Y-90142857D01*
X238238095Y-90047619D01*
X238285714Y-90000000D01*
X238380952Y-89952380D01*
X238619047Y-89952380D01*
X238761904Y-90000000D01*
X239095238Y-89952380D02*
X239333333Y-90952380D01*
X239523809Y-90238095D01*
X239714285Y-90952380D01*
X239952380Y-89952380D01*
X240285714Y-90047619D02*
X240333333Y-90000000D01*
X240428571Y-89952380D01*
X240666666Y-89952380D01*
X240761904Y-90000000D01*
X240809523Y-90047619D01*
X240857142Y-90142857D01*
X240857142Y-90238095D01*
X240809523Y-90380952D01*
X240238095Y-90952380D01*
X240857142Y-90952380D01*
X241714285Y-90285714D02*
X241714285Y-90952380D01*
X241476190Y-89904761D02*
X241238095Y-90619047D01*
X241857142Y-90619047D01*
%TO.C,SW23*%
X223190476Y-90904761D02*
X223333333Y-90952380D01*
X223571428Y-90952380D01*
X223666666Y-90904761D01*
X223714285Y-90857142D01*
X223761904Y-90761904D01*
X223761904Y-90666666D01*
X223714285Y-90571428D01*
X223666666Y-90523809D01*
X223571428Y-90476190D01*
X223380952Y-90428571D01*
X223285714Y-90380952D01*
X223238095Y-90333333D01*
X223190476Y-90238095D01*
X223190476Y-90142857D01*
X223238095Y-90047619D01*
X223285714Y-90000000D01*
X223380952Y-89952380D01*
X223619047Y-89952380D01*
X223761904Y-90000000D01*
X224095238Y-89952380D02*
X224333333Y-90952380D01*
X224523809Y-90238095D01*
X224714285Y-90952380D01*
X224952380Y-89952380D01*
X225285714Y-90047619D02*
X225333333Y-90000000D01*
X225428571Y-89952380D01*
X225666666Y-89952380D01*
X225761904Y-90000000D01*
X225809523Y-90047619D01*
X225857142Y-90142857D01*
X225857142Y-90238095D01*
X225809523Y-90380952D01*
X225238095Y-90952380D01*
X225857142Y-90952380D01*
X226190476Y-89952380D02*
X226809523Y-89952380D01*
X226476190Y-90333333D01*
X226619047Y-90333333D01*
X226714285Y-90380952D01*
X226761904Y-90428571D01*
X226809523Y-90523809D01*
X226809523Y-90761904D01*
X226761904Y-90857142D01*
X226714285Y-90904761D01*
X226619047Y-90952380D01*
X226333333Y-90952380D01*
X226238095Y-90904761D01*
X226190476Y-90857142D01*
%TO.C,SW22*%
X208190476Y-90904761D02*
X208333333Y-90952380D01*
X208571428Y-90952380D01*
X208666666Y-90904761D01*
X208714285Y-90857142D01*
X208761904Y-90761904D01*
X208761904Y-90666666D01*
X208714285Y-90571428D01*
X208666666Y-90523809D01*
X208571428Y-90476190D01*
X208380952Y-90428571D01*
X208285714Y-90380952D01*
X208238095Y-90333333D01*
X208190476Y-90238095D01*
X208190476Y-90142857D01*
X208238095Y-90047619D01*
X208285714Y-90000000D01*
X208380952Y-89952380D01*
X208619047Y-89952380D01*
X208761904Y-90000000D01*
X209095238Y-89952380D02*
X209333333Y-90952380D01*
X209523809Y-90238095D01*
X209714285Y-90952380D01*
X209952380Y-89952380D01*
X210285714Y-90047619D02*
X210333333Y-90000000D01*
X210428571Y-89952380D01*
X210666666Y-89952380D01*
X210761904Y-90000000D01*
X210809523Y-90047619D01*
X210857142Y-90142857D01*
X210857142Y-90238095D01*
X210809523Y-90380952D01*
X210238095Y-90952380D01*
X210857142Y-90952380D01*
X211238095Y-90047619D02*
X211285714Y-90000000D01*
X211380952Y-89952380D01*
X211619047Y-89952380D01*
X211714285Y-90000000D01*
X211761904Y-90047619D01*
X211809523Y-90142857D01*
X211809523Y-90238095D01*
X211761904Y-90380952D01*
X211190476Y-90952380D01*
X211809523Y-90952380D01*
%TO.C,SW21*%
X193190476Y-90904761D02*
X193333333Y-90952380D01*
X193571428Y-90952380D01*
X193666666Y-90904761D01*
X193714285Y-90857142D01*
X193761904Y-90761904D01*
X193761904Y-90666666D01*
X193714285Y-90571428D01*
X193666666Y-90523809D01*
X193571428Y-90476190D01*
X193380952Y-90428571D01*
X193285714Y-90380952D01*
X193238095Y-90333333D01*
X193190476Y-90238095D01*
X193190476Y-90142857D01*
X193238095Y-90047619D01*
X193285714Y-90000000D01*
X193380952Y-89952380D01*
X193619047Y-89952380D01*
X193761904Y-90000000D01*
X194095238Y-89952380D02*
X194333333Y-90952380D01*
X194523809Y-90238095D01*
X194714285Y-90952380D01*
X194952380Y-89952380D01*
X195285714Y-90047619D02*
X195333333Y-90000000D01*
X195428571Y-89952380D01*
X195666666Y-89952380D01*
X195761904Y-90000000D01*
X195809523Y-90047619D01*
X195857142Y-90142857D01*
X195857142Y-90238095D01*
X195809523Y-90380952D01*
X195238095Y-90952380D01*
X195857142Y-90952380D01*
X196809523Y-90952380D02*
X196238095Y-90952380D01*
X196523809Y-90952380D02*
X196523809Y-89952380D01*
X196428571Y-90095238D01*
X196333333Y-90190476D01*
X196238095Y-90238095D01*
%TO.C,SW20*%
X178190476Y-90904761D02*
X178333333Y-90952380D01*
X178571428Y-90952380D01*
X178666666Y-90904761D01*
X178714285Y-90857142D01*
X178761904Y-90761904D01*
X178761904Y-90666666D01*
X178714285Y-90571428D01*
X178666666Y-90523809D01*
X178571428Y-90476190D01*
X178380952Y-90428571D01*
X178285714Y-90380952D01*
X178238095Y-90333333D01*
X178190476Y-90238095D01*
X178190476Y-90142857D01*
X178238095Y-90047619D01*
X178285714Y-90000000D01*
X178380952Y-89952380D01*
X178619047Y-89952380D01*
X178761904Y-90000000D01*
X179095238Y-89952380D02*
X179333333Y-90952380D01*
X179523809Y-90238095D01*
X179714285Y-90952380D01*
X179952380Y-89952380D01*
X180285714Y-90047619D02*
X180333333Y-90000000D01*
X180428571Y-89952380D01*
X180666666Y-89952380D01*
X180761904Y-90000000D01*
X180809523Y-90047619D01*
X180857142Y-90142857D01*
X180857142Y-90238095D01*
X180809523Y-90380952D01*
X180238095Y-90952380D01*
X180857142Y-90952380D01*
X181476190Y-89952380D02*
X181571428Y-89952380D01*
X181666666Y-90000000D01*
X181714285Y-90047619D01*
X181761904Y-90142857D01*
X181809523Y-90333333D01*
X181809523Y-90571428D01*
X181761904Y-90761904D01*
X181714285Y-90857142D01*
X181666666Y-90904761D01*
X181571428Y-90952380D01*
X181476190Y-90952380D01*
X181380952Y-90904761D01*
X181333333Y-90857142D01*
X181285714Y-90761904D01*
X181238095Y-90571428D01*
X181238095Y-90333333D01*
X181285714Y-90142857D01*
X181333333Y-90047619D01*
X181380952Y-90000000D01*
X181476190Y-89952380D01*
%TO.C,SW19*%
X163190476Y-90904761D02*
X163333333Y-90952380D01*
X163571428Y-90952380D01*
X163666666Y-90904761D01*
X163714285Y-90857142D01*
X163761904Y-90761904D01*
X163761904Y-90666666D01*
X163714285Y-90571428D01*
X163666666Y-90523809D01*
X163571428Y-90476190D01*
X163380952Y-90428571D01*
X163285714Y-90380952D01*
X163238095Y-90333333D01*
X163190476Y-90238095D01*
X163190476Y-90142857D01*
X163238095Y-90047619D01*
X163285714Y-90000000D01*
X163380952Y-89952380D01*
X163619047Y-89952380D01*
X163761904Y-90000000D01*
X164095238Y-89952380D02*
X164333333Y-90952380D01*
X164523809Y-90238095D01*
X164714285Y-90952380D01*
X164952380Y-89952380D01*
X165857142Y-90952380D02*
X165285714Y-90952380D01*
X165571428Y-90952380D02*
X165571428Y-89952380D01*
X165476190Y-90095238D01*
X165380952Y-90190476D01*
X165285714Y-90238095D01*
X166333333Y-90952380D02*
X166523809Y-90952380D01*
X166619047Y-90904761D01*
X166666666Y-90857142D01*
X166761904Y-90714285D01*
X166809523Y-90523809D01*
X166809523Y-90142857D01*
X166761904Y-90047619D01*
X166714285Y-90000000D01*
X166619047Y-89952380D01*
X166428571Y-89952380D01*
X166333333Y-90000000D01*
X166285714Y-90047619D01*
X166238095Y-90142857D01*
X166238095Y-90380952D01*
X166285714Y-90476190D01*
X166333333Y-90523809D01*
X166428571Y-90571428D01*
X166619047Y-90571428D01*
X166714285Y-90523809D01*
X166761904Y-90476190D01*
X166809523Y-90380952D01*
%TO.C,SW18*%
X148190476Y-90904761D02*
X148333333Y-90952380D01*
X148571428Y-90952380D01*
X148666666Y-90904761D01*
X148714285Y-90857142D01*
X148761904Y-90761904D01*
X148761904Y-90666666D01*
X148714285Y-90571428D01*
X148666666Y-90523809D01*
X148571428Y-90476190D01*
X148380952Y-90428571D01*
X148285714Y-90380952D01*
X148238095Y-90333333D01*
X148190476Y-90238095D01*
X148190476Y-90142857D01*
X148238095Y-90047619D01*
X148285714Y-90000000D01*
X148380952Y-89952380D01*
X148619047Y-89952380D01*
X148761904Y-90000000D01*
X149095238Y-89952380D02*
X149333333Y-90952380D01*
X149523809Y-90238095D01*
X149714285Y-90952380D01*
X149952380Y-89952380D01*
X150857142Y-90952380D02*
X150285714Y-90952380D01*
X150571428Y-90952380D02*
X150571428Y-89952380D01*
X150476190Y-90095238D01*
X150380952Y-90190476D01*
X150285714Y-90238095D01*
X151428571Y-90380952D02*
X151333333Y-90333333D01*
X151285714Y-90285714D01*
X151238095Y-90190476D01*
X151238095Y-90142857D01*
X151285714Y-90047619D01*
X151333333Y-90000000D01*
X151428571Y-89952380D01*
X151619047Y-89952380D01*
X151714285Y-90000000D01*
X151761904Y-90047619D01*
X151809523Y-90142857D01*
X151809523Y-90190476D01*
X151761904Y-90285714D01*
X151714285Y-90333333D01*
X151619047Y-90380952D01*
X151428571Y-90380952D01*
X151333333Y-90428571D01*
X151285714Y-90476190D01*
X151238095Y-90571428D01*
X151238095Y-90761904D01*
X151285714Y-90857142D01*
X151333333Y-90904761D01*
X151428571Y-90952380D01*
X151619047Y-90952380D01*
X151714285Y-90904761D01*
X151761904Y-90857142D01*
X151809523Y-90761904D01*
X151809523Y-90571428D01*
X151761904Y-90476190D01*
X151714285Y-90428571D01*
X151619047Y-90380952D01*
%TO.C,SW17*%
X133190476Y-90904761D02*
X133333333Y-90952380D01*
X133571428Y-90952380D01*
X133666666Y-90904761D01*
X133714285Y-90857142D01*
X133761904Y-90761904D01*
X133761904Y-90666666D01*
X133714285Y-90571428D01*
X133666666Y-90523809D01*
X133571428Y-90476190D01*
X133380952Y-90428571D01*
X133285714Y-90380952D01*
X133238095Y-90333333D01*
X133190476Y-90238095D01*
X133190476Y-90142857D01*
X133238095Y-90047619D01*
X133285714Y-90000000D01*
X133380952Y-89952380D01*
X133619047Y-89952380D01*
X133761904Y-90000000D01*
X134095238Y-89952380D02*
X134333333Y-90952380D01*
X134523809Y-90238095D01*
X134714285Y-90952380D01*
X134952380Y-89952380D01*
X135857142Y-90952380D02*
X135285714Y-90952380D01*
X135571428Y-90952380D02*
X135571428Y-89952380D01*
X135476190Y-90095238D01*
X135380952Y-90190476D01*
X135285714Y-90238095D01*
X136190476Y-89952380D02*
X136857142Y-89952380D01*
X136428571Y-90952380D01*
%TO.C,SW16*%
X118190476Y-90904761D02*
X118333333Y-90952380D01*
X118571428Y-90952380D01*
X118666666Y-90904761D01*
X118714285Y-90857142D01*
X118761904Y-90761904D01*
X118761904Y-90666666D01*
X118714285Y-90571428D01*
X118666666Y-90523809D01*
X118571428Y-90476190D01*
X118380952Y-90428571D01*
X118285714Y-90380952D01*
X118238095Y-90333333D01*
X118190476Y-90238095D01*
X118190476Y-90142857D01*
X118238095Y-90047619D01*
X118285714Y-90000000D01*
X118380952Y-89952380D01*
X118619047Y-89952380D01*
X118761904Y-90000000D01*
X119095238Y-89952380D02*
X119333333Y-90952380D01*
X119523809Y-90238095D01*
X119714285Y-90952380D01*
X119952380Y-89952380D01*
X120857142Y-90952380D02*
X120285714Y-90952380D01*
X120571428Y-90952380D02*
X120571428Y-89952380D01*
X120476190Y-90095238D01*
X120380952Y-90190476D01*
X120285714Y-90238095D01*
X121714285Y-89952380D02*
X121523809Y-89952380D01*
X121428571Y-90000000D01*
X121380952Y-90047619D01*
X121285714Y-90190476D01*
X121238095Y-90380952D01*
X121238095Y-90761904D01*
X121285714Y-90857142D01*
X121333333Y-90904761D01*
X121428571Y-90952380D01*
X121619047Y-90952380D01*
X121714285Y-90904761D01*
X121761904Y-90857142D01*
X121809523Y-90761904D01*
X121809523Y-90523809D01*
X121761904Y-90428571D01*
X121714285Y-90380952D01*
X121619047Y-90333333D01*
X121428571Y-90333333D01*
X121333333Y-90380952D01*
X121285714Y-90428571D01*
X121238095Y-90523809D01*
%TO.C,SW15*%
X103190476Y-90904761D02*
X103333333Y-90952380D01*
X103571428Y-90952380D01*
X103666666Y-90904761D01*
X103714285Y-90857142D01*
X103761904Y-90761904D01*
X103761904Y-90666666D01*
X103714285Y-90571428D01*
X103666666Y-90523809D01*
X103571428Y-90476190D01*
X103380952Y-90428571D01*
X103285714Y-90380952D01*
X103238095Y-90333333D01*
X103190476Y-90238095D01*
X103190476Y-90142857D01*
X103238095Y-90047619D01*
X103285714Y-90000000D01*
X103380952Y-89952380D01*
X103619047Y-89952380D01*
X103761904Y-90000000D01*
X104095238Y-89952380D02*
X104333333Y-90952380D01*
X104523809Y-90238095D01*
X104714285Y-90952380D01*
X104952380Y-89952380D01*
X105857142Y-90952380D02*
X105285714Y-90952380D01*
X105571428Y-90952380D02*
X105571428Y-89952380D01*
X105476190Y-90095238D01*
X105380952Y-90190476D01*
X105285714Y-90238095D01*
X106761904Y-89952380D02*
X106285714Y-89952380D01*
X106238095Y-90428571D01*
X106285714Y-90380952D01*
X106380952Y-90333333D01*
X106619047Y-90333333D01*
X106714285Y-90380952D01*
X106761904Y-90428571D01*
X106809523Y-90523809D01*
X106809523Y-90761904D01*
X106761904Y-90857142D01*
X106714285Y-90904761D01*
X106619047Y-90952380D01*
X106380952Y-90952380D01*
X106285714Y-90904761D01*
X106238095Y-90857142D01*
%TO.C,SW14*%
X88190476Y-90904761D02*
X88333333Y-90952380D01*
X88571428Y-90952380D01*
X88666666Y-90904761D01*
X88714285Y-90857142D01*
X88761904Y-90761904D01*
X88761904Y-90666666D01*
X88714285Y-90571428D01*
X88666666Y-90523809D01*
X88571428Y-90476190D01*
X88380952Y-90428571D01*
X88285714Y-90380952D01*
X88238095Y-90333333D01*
X88190476Y-90238095D01*
X88190476Y-90142857D01*
X88238095Y-90047619D01*
X88285714Y-90000000D01*
X88380952Y-89952380D01*
X88619047Y-89952380D01*
X88761904Y-90000000D01*
X89095238Y-89952380D02*
X89333333Y-90952380D01*
X89523809Y-90238095D01*
X89714285Y-90952380D01*
X89952380Y-89952380D01*
X90857142Y-90952380D02*
X90285714Y-90952380D01*
X90571428Y-90952380D02*
X90571428Y-89952380D01*
X90476190Y-90095238D01*
X90380952Y-90190476D01*
X90285714Y-90238095D01*
X91714285Y-90285714D02*
X91714285Y-90952380D01*
X91476190Y-89904761D02*
X91238095Y-90619047D01*
X91857142Y-90619047D01*
%TO.C,SW13*%
X73190476Y-90904761D02*
X73333333Y-90952380D01*
X73571428Y-90952380D01*
X73666666Y-90904761D01*
X73714285Y-90857142D01*
X73761904Y-90761904D01*
X73761904Y-90666666D01*
X73714285Y-90571428D01*
X73666666Y-90523809D01*
X73571428Y-90476190D01*
X73380952Y-90428571D01*
X73285714Y-90380952D01*
X73238095Y-90333333D01*
X73190476Y-90238095D01*
X73190476Y-90142857D01*
X73238095Y-90047619D01*
X73285714Y-90000000D01*
X73380952Y-89952380D01*
X73619047Y-89952380D01*
X73761904Y-90000000D01*
X74095238Y-89952380D02*
X74333333Y-90952380D01*
X74523809Y-90238095D01*
X74714285Y-90952380D01*
X74952380Y-89952380D01*
X75857142Y-90952380D02*
X75285714Y-90952380D01*
X75571428Y-90952380D02*
X75571428Y-89952380D01*
X75476190Y-90095238D01*
X75380952Y-90190476D01*
X75285714Y-90238095D01*
X76190476Y-89952380D02*
X76809523Y-89952380D01*
X76476190Y-90333333D01*
X76619047Y-90333333D01*
X76714285Y-90380952D01*
X76761904Y-90428571D01*
X76809523Y-90523809D01*
X76809523Y-90761904D01*
X76761904Y-90857142D01*
X76714285Y-90904761D01*
X76619047Y-90952380D01*
X76333333Y-90952380D01*
X76238095Y-90904761D01*
X76190476Y-90857142D01*
%TO.C,SW12*%
X238190476Y-75904761D02*
X238333333Y-75952380D01*
X238571428Y-75952380D01*
X238666666Y-75904761D01*
X238714285Y-75857142D01*
X238761904Y-75761904D01*
X238761904Y-75666666D01*
X238714285Y-75571428D01*
X238666666Y-75523809D01*
X238571428Y-75476190D01*
X238380952Y-75428571D01*
X238285714Y-75380952D01*
X238238095Y-75333333D01*
X238190476Y-75238095D01*
X238190476Y-75142857D01*
X238238095Y-75047619D01*
X238285714Y-75000000D01*
X238380952Y-74952380D01*
X238619047Y-74952380D01*
X238761904Y-75000000D01*
X239095238Y-74952380D02*
X239333333Y-75952380D01*
X239523809Y-75238095D01*
X239714285Y-75952380D01*
X239952380Y-74952380D01*
X240857142Y-75952380D02*
X240285714Y-75952380D01*
X240571428Y-75952380D02*
X240571428Y-74952380D01*
X240476190Y-75095238D01*
X240380952Y-75190476D01*
X240285714Y-75238095D01*
X241238095Y-75047619D02*
X241285714Y-75000000D01*
X241380952Y-74952380D01*
X241619047Y-74952380D01*
X241714285Y-75000000D01*
X241761904Y-75047619D01*
X241809523Y-75142857D01*
X241809523Y-75238095D01*
X241761904Y-75380952D01*
X241190476Y-75952380D01*
X241809523Y-75952380D01*
%TO.C,SW11*%
X223190476Y-75904761D02*
X223333333Y-75952380D01*
X223571428Y-75952380D01*
X223666666Y-75904761D01*
X223714285Y-75857142D01*
X223761904Y-75761904D01*
X223761904Y-75666666D01*
X223714285Y-75571428D01*
X223666666Y-75523809D01*
X223571428Y-75476190D01*
X223380952Y-75428571D01*
X223285714Y-75380952D01*
X223238095Y-75333333D01*
X223190476Y-75238095D01*
X223190476Y-75142857D01*
X223238095Y-75047619D01*
X223285714Y-75000000D01*
X223380952Y-74952380D01*
X223619047Y-74952380D01*
X223761904Y-75000000D01*
X224095238Y-74952380D02*
X224333333Y-75952380D01*
X224523809Y-75238095D01*
X224714285Y-75952380D01*
X224952380Y-74952380D01*
X225857142Y-75952380D02*
X225285714Y-75952380D01*
X225571428Y-75952380D02*
X225571428Y-74952380D01*
X225476190Y-75095238D01*
X225380952Y-75190476D01*
X225285714Y-75238095D01*
X226809523Y-75952380D02*
X226238095Y-75952380D01*
X226523809Y-75952380D02*
X226523809Y-74952380D01*
X226428571Y-75095238D01*
X226333333Y-75190476D01*
X226238095Y-75238095D01*
%TO.C,SW10*%
X208190476Y-75904761D02*
X208333333Y-75952380D01*
X208571428Y-75952380D01*
X208666666Y-75904761D01*
X208714285Y-75857142D01*
X208761904Y-75761904D01*
X208761904Y-75666666D01*
X208714285Y-75571428D01*
X208666666Y-75523809D01*
X208571428Y-75476190D01*
X208380952Y-75428571D01*
X208285714Y-75380952D01*
X208238095Y-75333333D01*
X208190476Y-75238095D01*
X208190476Y-75142857D01*
X208238095Y-75047619D01*
X208285714Y-75000000D01*
X208380952Y-74952380D01*
X208619047Y-74952380D01*
X208761904Y-75000000D01*
X209095238Y-74952380D02*
X209333333Y-75952380D01*
X209523809Y-75238095D01*
X209714285Y-75952380D01*
X209952380Y-74952380D01*
X210857142Y-75952380D02*
X210285714Y-75952380D01*
X210571428Y-75952380D02*
X210571428Y-74952380D01*
X210476190Y-75095238D01*
X210380952Y-75190476D01*
X210285714Y-75238095D01*
X211476190Y-74952380D02*
X211571428Y-74952380D01*
X211666666Y-75000000D01*
X211714285Y-75047619D01*
X211761904Y-75142857D01*
X211809523Y-75333333D01*
X211809523Y-75571428D01*
X211761904Y-75761904D01*
X211714285Y-75857142D01*
X211666666Y-75904761D01*
X211571428Y-75952380D01*
X211476190Y-75952380D01*
X211380952Y-75904761D01*
X211333333Y-75857142D01*
X211285714Y-75761904D01*
X211238095Y-75571428D01*
X211238095Y-75333333D01*
X211285714Y-75142857D01*
X211333333Y-75047619D01*
X211380952Y-75000000D01*
X211476190Y-74952380D01*
%TO.C,SW9*%
X193666666Y-75904761D02*
X193809523Y-75952380D01*
X194047619Y-75952380D01*
X194142857Y-75904761D01*
X194190476Y-75857142D01*
X194238095Y-75761904D01*
X194238095Y-75666666D01*
X194190476Y-75571428D01*
X194142857Y-75523809D01*
X194047619Y-75476190D01*
X193857142Y-75428571D01*
X193761904Y-75380952D01*
X193714285Y-75333333D01*
X193666666Y-75238095D01*
X193666666Y-75142857D01*
X193714285Y-75047619D01*
X193761904Y-75000000D01*
X193857142Y-74952380D01*
X194095238Y-74952380D01*
X194238095Y-75000000D01*
X194571428Y-74952380D02*
X194809523Y-75952380D01*
X195000000Y-75238095D01*
X195190476Y-75952380D01*
X195428571Y-74952380D01*
X195857142Y-75952380D02*
X196047619Y-75952380D01*
X196142857Y-75904761D01*
X196190476Y-75857142D01*
X196285714Y-75714285D01*
X196333333Y-75523809D01*
X196333333Y-75142857D01*
X196285714Y-75047619D01*
X196238095Y-75000000D01*
X196142857Y-74952380D01*
X195952380Y-74952380D01*
X195857142Y-75000000D01*
X195809523Y-75047619D01*
X195761904Y-75142857D01*
X195761904Y-75380952D01*
X195809523Y-75476190D01*
X195857142Y-75523809D01*
X195952380Y-75571428D01*
X196142857Y-75571428D01*
X196238095Y-75523809D01*
X196285714Y-75476190D01*
X196333333Y-75380952D01*
%TO.C,SW8*%
X178666666Y-75904761D02*
X178809523Y-75952380D01*
X179047619Y-75952380D01*
X179142857Y-75904761D01*
X179190476Y-75857142D01*
X179238095Y-75761904D01*
X179238095Y-75666666D01*
X179190476Y-75571428D01*
X179142857Y-75523809D01*
X179047619Y-75476190D01*
X178857142Y-75428571D01*
X178761904Y-75380952D01*
X178714285Y-75333333D01*
X178666666Y-75238095D01*
X178666666Y-75142857D01*
X178714285Y-75047619D01*
X178761904Y-75000000D01*
X178857142Y-74952380D01*
X179095238Y-74952380D01*
X179238095Y-75000000D01*
X179571428Y-74952380D02*
X179809523Y-75952380D01*
X180000000Y-75238095D01*
X180190476Y-75952380D01*
X180428571Y-74952380D01*
X180952380Y-75380952D02*
X180857142Y-75333333D01*
X180809523Y-75285714D01*
X180761904Y-75190476D01*
X180761904Y-75142857D01*
X180809523Y-75047619D01*
X180857142Y-75000000D01*
X180952380Y-74952380D01*
X181142857Y-74952380D01*
X181238095Y-75000000D01*
X181285714Y-75047619D01*
X181333333Y-75142857D01*
X181333333Y-75190476D01*
X181285714Y-75285714D01*
X181238095Y-75333333D01*
X181142857Y-75380952D01*
X180952380Y-75380952D01*
X180857142Y-75428571D01*
X180809523Y-75476190D01*
X180761904Y-75571428D01*
X180761904Y-75761904D01*
X180809523Y-75857142D01*
X180857142Y-75904761D01*
X180952380Y-75952380D01*
X181142857Y-75952380D01*
X181238095Y-75904761D01*
X181285714Y-75857142D01*
X181333333Y-75761904D01*
X181333333Y-75571428D01*
X181285714Y-75476190D01*
X181238095Y-75428571D01*
X181142857Y-75380952D01*
%TO.C,SW7*%
X163666666Y-75904761D02*
X163809523Y-75952380D01*
X164047619Y-75952380D01*
X164142857Y-75904761D01*
X164190476Y-75857142D01*
X164238095Y-75761904D01*
X164238095Y-75666666D01*
X164190476Y-75571428D01*
X164142857Y-75523809D01*
X164047619Y-75476190D01*
X163857142Y-75428571D01*
X163761904Y-75380952D01*
X163714285Y-75333333D01*
X163666666Y-75238095D01*
X163666666Y-75142857D01*
X163714285Y-75047619D01*
X163761904Y-75000000D01*
X163857142Y-74952380D01*
X164095238Y-74952380D01*
X164238095Y-75000000D01*
X164571428Y-74952380D02*
X164809523Y-75952380D01*
X165000000Y-75238095D01*
X165190476Y-75952380D01*
X165428571Y-74952380D01*
X165714285Y-74952380D02*
X166380952Y-74952380D01*
X165952380Y-75952380D01*
%TO.C,SW6*%
X148666666Y-75904761D02*
X148809523Y-75952380D01*
X149047619Y-75952380D01*
X149142857Y-75904761D01*
X149190476Y-75857142D01*
X149238095Y-75761904D01*
X149238095Y-75666666D01*
X149190476Y-75571428D01*
X149142857Y-75523809D01*
X149047619Y-75476190D01*
X148857142Y-75428571D01*
X148761904Y-75380952D01*
X148714285Y-75333333D01*
X148666666Y-75238095D01*
X148666666Y-75142857D01*
X148714285Y-75047619D01*
X148761904Y-75000000D01*
X148857142Y-74952380D01*
X149095238Y-74952380D01*
X149238095Y-75000000D01*
X149571428Y-74952380D02*
X149809523Y-75952380D01*
X150000000Y-75238095D01*
X150190476Y-75952380D01*
X150428571Y-74952380D01*
X151238095Y-74952380D02*
X151047619Y-74952380D01*
X150952380Y-75000000D01*
X150904761Y-75047619D01*
X150809523Y-75190476D01*
X150761904Y-75380952D01*
X150761904Y-75761904D01*
X150809523Y-75857142D01*
X150857142Y-75904761D01*
X150952380Y-75952380D01*
X151142857Y-75952380D01*
X151238095Y-75904761D01*
X151285714Y-75857142D01*
X151333333Y-75761904D01*
X151333333Y-75523809D01*
X151285714Y-75428571D01*
X151238095Y-75380952D01*
X151142857Y-75333333D01*
X150952380Y-75333333D01*
X150857142Y-75380952D01*
X150809523Y-75428571D01*
X150761904Y-75523809D01*
%TO.C,SW5*%
X133666666Y-75904761D02*
X133809523Y-75952380D01*
X134047619Y-75952380D01*
X134142857Y-75904761D01*
X134190476Y-75857142D01*
X134238095Y-75761904D01*
X134238095Y-75666666D01*
X134190476Y-75571428D01*
X134142857Y-75523809D01*
X134047619Y-75476190D01*
X133857142Y-75428571D01*
X133761904Y-75380952D01*
X133714285Y-75333333D01*
X133666666Y-75238095D01*
X133666666Y-75142857D01*
X133714285Y-75047619D01*
X133761904Y-75000000D01*
X133857142Y-74952380D01*
X134095238Y-74952380D01*
X134238095Y-75000000D01*
X134571428Y-74952380D02*
X134809523Y-75952380D01*
X135000000Y-75238095D01*
X135190476Y-75952380D01*
X135428571Y-74952380D01*
X136285714Y-74952380D02*
X135809523Y-74952380D01*
X135761904Y-75428571D01*
X135809523Y-75380952D01*
X135904761Y-75333333D01*
X136142857Y-75333333D01*
X136238095Y-75380952D01*
X136285714Y-75428571D01*
X136333333Y-75523809D01*
X136333333Y-75761904D01*
X136285714Y-75857142D01*
X136238095Y-75904761D01*
X136142857Y-75952380D01*
X135904761Y-75952380D01*
X135809523Y-75904761D01*
X135761904Y-75857142D01*
%TO.C,SW4*%
X118666666Y-75904761D02*
X118809523Y-75952380D01*
X119047619Y-75952380D01*
X119142857Y-75904761D01*
X119190476Y-75857142D01*
X119238095Y-75761904D01*
X119238095Y-75666666D01*
X119190476Y-75571428D01*
X119142857Y-75523809D01*
X119047619Y-75476190D01*
X118857142Y-75428571D01*
X118761904Y-75380952D01*
X118714285Y-75333333D01*
X118666666Y-75238095D01*
X118666666Y-75142857D01*
X118714285Y-75047619D01*
X118761904Y-75000000D01*
X118857142Y-74952380D01*
X119095238Y-74952380D01*
X119238095Y-75000000D01*
X119571428Y-74952380D02*
X119809523Y-75952380D01*
X120000000Y-75238095D01*
X120190476Y-75952380D01*
X120428571Y-74952380D01*
X121238095Y-75285714D02*
X121238095Y-75952380D01*
X121000000Y-74904761D02*
X120761904Y-75619047D01*
X121380952Y-75619047D01*
%TO.C,SW3*%
X103666666Y-75904761D02*
X103809523Y-75952380D01*
X104047619Y-75952380D01*
X104142857Y-75904761D01*
X104190476Y-75857142D01*
X104238095Y-75761904D01*
X104238095Y-75666666D01*
X104190476Y-75571428D01*
X104142857Y-75523809D01*
X104047619Y-75476190D01*
X103857142Y-75428571D01*
X103761904Y-75380952D01*
X103714285Y-75333333D01*
X103666666Y-75238095D01*
X103666666Y-75142857D01*
X103714285Y-75047619D01*
X103761904Y-75000000D01*
X103857142Y-74952380D01*
X104095238Y-74952380D01*
X104238095Y-75000000D01*
X104571428Y-74952380D02*
X104809523Y-75952380D01*
X105000000Y-75238095D01*
X105190476Y-75952380D01*
X105428571Y-74952380D01*
X105714285Y-74952380D02*
X106333333Y-74952380D01*
X106000000Y-75333333D01*
X106142857Y-75333333D01*
X106238095Y-75380952D01*
X106285714Y-75428571D01*
X106333333Y-75523809D01*
X106333333Y-75761904D01*
X106285714Y-75857142D01*
X106238095Y-75904761D01*
X106142857Y-75952380D01*
X105857142Y-75952380D01*
X105761904Y-75904761D01*
X105714285Y-75857142D01*
%TO.C,SW2*%
X88666666Y-75904761D02*
X88809523Y-75952380D01*
X89047619Y-75952380D01*
X89142857Y-75904761D01*
X89190476Y-75857142D01*
X89238095Y-75761904D01*
X89238095Y-75666666D01*
X89190476Y-75571428D01*
X89142857Y-75523809D01*
X89047619Y-75476190D01*
X88857142Y-75428571D01*
X88761904Y-75380952D01*
X88714285Y-75333333D01*
X88666666Y-75238095D01*
X88666666Y-75142857D01*
X88714285Y-75047619D01*
X88761904Y-75000000D01*
X88857142Y-74952380D01*
X89095238Y-74952380D01*
X89238095Y-75000000D01*
X89571428Y-74952380D02*
X89809523Y-75952380D01*
X90000000Y-75238095D01*
X90190476Y-75952380D01*
X90428571Y-74952380D01*
X90761904Y-75047619D02*
X90809523Y-75000000D01*
X90904761Y-74952380D01*
X91142857Y-74952380D01*
X91238095Y-75000000D01*
X91285714Y-75047619D01*
X91333333Y-75142857D01*
X91333333Y-75238095D01*
X91285714Y-75380952D01*
X90714285Y-75952380D01*
X91333333Y-75952380D01*
%TO.C,SW1*%
X73666666Y-75904761D02*
X73809523Y-75952380D01*
X74047619Y-75952380D01*
X74142857Y-75904761D01*
X74190476Y-75857142D01*
X74238095Y-75761904D01*
X74238095Y-75666666D01*
X74190476Y-75571428D01*
X74142857Y-75523809D01*
X74047619Y-75476190D01*
X73857142Y-75428571D01*
X73761904Y-75380952D01*
X73714285Y-75333333D01*
X73666666Y-75238095D01*
X73666666Y-75142857D01*
X73714285Y-75047619D01*
X73761904Y-75000000D01*
X73857142Y-74952380D01*
X74095238Y-74952380D01*
X74238095Y-75000000D01*
X74571428Y-74952380D02*
X74809523Y-75952380D01*
X75000000Y-75238095D01*
X75190476Y-75952380D01*
X75428571Y-74952380D01*
X76333333Y-75952380D02*
X75761904Y-75952380D01*
X76047619Y-75952380D02*
X76047619Y-74952380D01*
X75952380Y-75095238D01*
X75857142Y-75190476D01*
X75761904Y-75238095D01*
%TO.C,C12*%
X147557142Y-48142857D02*
X147604761Y-48190476D01*
X147652380Y-48333333D01*
X147652380Y-48428571D01*
X147604761Y-48571428D01*
X147509523Y-48666666D01*
X147414285Y-48714285D01*
X147223809Y-48761904D01*
X147080952Y-48761904D01*
X146890476Y-48714285D01*
X146795238Y-48666666D01*
X146700000Y-48571428D01*
X146652380Y-48428571D01*
X146652380Y-48333333D01*
X146700000Y-48190476D01*
X146747619Y-48142857D01*
X147652380Y-47190476D02*
X147652380Y-47761904D01*
X147652380Y-47476190D02*
X146652380Y-47476190D01*
X146795238Y-47571428D01*
X146890476Y-47666666D01*
X146938095Y-47761904D01*
X146747619Y-46809523D02*
X146700000Y-46761904D01*
X146652380Y-46666666D01*
X146652380Y-46428571D01*
X146700000Y-46333333D01*
X146747619Y-46285714D01*
X146842857Y-46238095D01*
X146938095Y-46238095D01*
X147080952Y-46285714D01*
X147652380Y-46857142D01*
X147652380Y-46238095D01*
%TD*%
M02*
