%TF.GenerationSoftware,KiCad,Pcbnew,5.1.10*%
%TF.CreationDate,2021-12-10T20:41:03+01:00*%
%TF.ProjectId,Tastatur,54617374-6174-4757-922e-6b696361645f,rev?*%
%TF.SameCoordinates,Original*%
%TF.FileFunction,Soldermask,Bot*%
%TF.FilePolarity,Negative*%
%FSLAX46Y46*%
G04 Gerber Fmt 4.6, Leading zero omitted, Abs format (unit mm)*
G04 Created by KiCad (PCBNEW 5.1.10) date 2021-12-10 20:41:03*
%MOMM*%
%LPD*%
G01*
G04 APERTURE LIST*
%ADD10C,1.740000*%
%ADD11C,3.500000*%
%ADD12O,1.600000X1.600000*%
%ADD13R,1.600000X1.600000*%
%ADD14C,2.000000*%
%ADD15C,1.600000*%
G04 APERTURE END LIST*
D10*
%TO.C,X11*%
X237500000Y-62860000D03*
X237500000Y-60320000D03*
X237500000Y-57780000D03*
X237500000Y-55240000D03*
X237500000Y-52700000D03*
X237500000Y-50160000D03*
X237500000Y-47620000D03*
X237500000Y-45080000D03*
X237500000Y-42540000D03*
G36*
G01*
X236879999Y-39130000D02*
X238120001Y-39130000D01*
G75*
G02*
X238370000Y-39379999I0J-249999D01*
G01*
X238370000Y-40620001D01*
G75*
G02*
X238120001Y-40870000I-249999J0D01*
G01*
X236879999Y-40870000D01*
G75*
G02*
X236630000Y-40620001I0J249999D01*
G01*
X236630000Y-39379999D01*
G75*
G02*
X236879999Y-39130000I249999J0D01*
G01*
G37*
%TD*%
D11*
%TO.C,H4*%
X245000000Y-135000000D03*
%TD*%
%TO.C,H3*%
X245000000Y-40000000D03*
%TD*%
%TO.C,H2*%
X70000000Y-40000000D03*
%TD*%
%TO.C,H1*%
X70000000Y-135000000D03*
%TD*%
D12*
%TO.C,U1*%
X150000000Y-44760000D03*
X177940000Y-60000000D03*
X152540000Y-44760000D03*
X175400000Y-60000000D03*
X155080000Y-44760000D03*
X172860000Y-60000000D03*
X157620000Y-44760000D03*
X170320000Y-60000000D03*
X160160000Y-44760000D03*
X167780000Y-60000000D03*
X162700000Y-44760000D03*
X165240000Y-60000000D03*
X165240000Y-44760000D03*
X162700000Y-60000000D03*
X167780000Y-44760000D03*
X160160000Y-60000000D03*
X170320000Y-44760000D03*
X157620000Y-60000000D03*
X172860000Y-44760000D03*
X155080000Y-60000000D03*
X175400000Y-44760000D03*
X152540000Y-60000000D03*
X177940000Y-44760000D03*
D13*
X150000000Y-60000000D03*
%TD*%
D14*
%TO.C,SW48*%
X240000000Y-113750000D03*
X246250000Y-125250000D03*
X233750000Y-125250000D03*
D15*
X245000000Y-116250000D03*
X235000000Y-116250000D03*
%TD*%
D14*
%TO.C,SW47*%
X225000000Y-113750000D03*
X231250000Y-125250000D03*
X218750000Y-125250000D03*
D15*
X230000000Y-116250000D03*
X220000000Y-116250000D03*
%TD*%
D14*
%TO.C,SW46*%
X210000000Y-113750000D03*
X216250000Y-125250000D03*
X203750000Y-125250000D03*
D15*
X215000000Y-116250000D03*
X205000000Y-116250000D03*
%TD*%
D14*
%TO.C,SW45*%
X195000000Y-113750000D03*
X201250000Y-125250000D03*
X188750000Y-125250000D03*
D15*
X200000000Y-116250000D03*
X190000000Y-116250000D03*
%TD*%
D14*
%TO.C,SW44*%
X180000000Y-113750000D03*
X186250000Y-125250000D03*
X173750000Y-125250000D03*
D15*
X185000000Y-116250000D03*
X175000000Y-116250000D03*
%TD*%
D14*
%TO.C,SW43*%
X165000000Y-113750000D03*
X171250000Y-125250000D03*
X158750000Y-125250000D03*
D15*
X170000000Y-116250000D03*
X160000000Y-116250000D03*
%TD*%
D14*
%TO.C,SW42*%
X150000000Y-113750000D03*
X156250000Y-125250000D03*
X143750000Y-125250000D03*
D15*
X155000000Y-116250000D03*
X145000000Y-116250000D03*
%TD*%
D14*
%TO.C,SW41*%
X135000000Y-113750000D03*
X141250000Y-125250000D03*
X128750000Y-125250000D03*
D15*
X140000000Y-116250000D03*
X130000000Y-116250000D03*
%TD*%
D14*
%TO.C,SW40*%
X120000000Y-113750000D03*
X126250000Y-125250000D03*
X113750000Y-125250000D03*
D15*
X125000000Y-116250000D03*
X115000000Y-116250000D03*
%TD*%
D14*
%TO.C,SW39*%
X105000000Y-113750000D03*
X111250000Y-125250000D03*
X98750000Y-125250000D03*
D15*
X110000000Y-116250000D03*
X100000000Y-116250000D03*
%TD*%
D14*
%TO.C,SW38*%
X90000000Y-113750000D03*
X96250000Y-125250000D03*
X83750000Y-125250000D03*
D15*
X95000000Y-116250000D03*
X85000000Y-116250000D03*
%TD*%
D14*
%TO.C,SW37*%
X75000000Y-113750000D03*
X81250000Y-125250000D03*
X68750000Y-125250000D03*
D15*
X80000000Y-116250000D03*
X70000000Y-116250000D03*
%TD*%
D14*
%TO.C,SW36*%
X240000000Y-98750000D03*
X246250000Y-110250000D03*
X233750000Y-110250000D03*
D15*
X245000000Y-101250000D03*
X235000000Y-101250000D03*
%TD*%
D14*
%TO.C,SW35*%
X225000000Y-98750000D03*
X231250000Y-110250000D03*
X218750000Y-110250000D03*
D15*
X230000000Y-101250000D03*
X220000000Y-101250000D03*
%TD*%
D14*
%TO.C,SW34*%
X210000000Y-98750000D03*
X216250000Y-110250000D03*
X203750000Y-110250000D03*
D15*
X215000000Y-101250000D03*
X205000000Y-101250000D03*
%TD*%
D14*
%TO.C,SW33*%
X195000000Y-98750000D03*
X201250000Y-110250000D03*
X188750000Y-110250000D03*
D15*
X200000000Y-101250000D03*
X190000000Y-101250000D03*
%TD*%
D14*
%TO.C,SW32*%
X180000000Y-98750000D03*
X186250000Y-110250000D03*
X173750000Y-110250000D03*
D15*
X185000000Y-101250000D03*
X175000000Y-101250000D03*
%TD*%
D14*
%TO.C,SW31*%
X165000000Y-98750000D03*
X171250000Y-110250000D03*
X158750000Y-110250000D03*
D15*
X170000000Y-101250000D03*
X160000000Y-101250000D03*
%TD*%
D14*
%TO.C,SW30*%
X150000000Y-98750000D03*
X156250000Y-110250000D03*
X143750000Y-110250000D03*
D15*
X155000000Y-101250000D03*
X145000000Y-101250000D03*
%TD*%
D14*
%TO.C,SW29*%
X135000000Y-98750000D03*
X141250000Y-110250000D03*
X128750000Y-110250000D03*
D15*
X140000000Y-101250000D03*
X130000000Y-101250000D03*
%TD*%
D14*
%TO.C,SW28*%
X120000000Y-98750000D03*
X126250000Y-110250000D03*
X113750000Y-110250000D03*
D15*
X125000000Y-101250000D03*
X115000000Y-101250000D03*
%TD*%
D14*
%TO.C,SW27*%
X105000000Y-98750000D03*
X111250000Y-110250000D03*
X98750000Y-110250000D03*
D15*
X110000000Y-101250000D03*
X100000000Y-101250000D03*
%TD*%
D14*
%TO.C,SW26*%
X90000000Y-98750000D03*
X96250000Y-110250000D03*
X83750000Y-110250000D03*
D15*
X95000000Y-101250000D03*
X85000000Y-101250000D03*
%TD*%
D14*
%TO.C,SW25*%
X75000000Y-98750000D03*
X81250000Y-110250000D03*
X68750000Y-110250000D03*
D15*
X80000000Y-101250000D03*
X70000000Y-101250000D03*
%TD*%
D14*
%TO.C,SW24*%
X240000000Y-83750000D03*
X246250000Y-95250000D03*
X233750000Y-95250000D03*
D15*
X245000000Y-86250000D03*
X235000000Y-86250000D03*
%TD*%
D14*
%TO.C,SW23*%
X225000000Y-83750000D03*
X231250000Y-95250000D03*
X218750000Y-95250000D03*
D15*
X230000000Y-86250000D03*
X220000000Y-86250000D03*
%TD*%
D14*
%TO.C,SW22*%
X210000000Y-83750000D03*
X216250000Y-95250000D03*
X203750000Y-95250000D03*
D15*
X215000000Y-86250000D03*
X205000000Y-86250000D03*
%TD*%
D14*
%TO.C,SW21*%
X195000000Y-83750000D03*
X201250000Y-95250000D03*
X188750000Y-95250000D03*
D15*
X200000000Y-86250000D03*
X190000000Y-86250000D03*
%TD*%
D14*
%TO.C,SW20*%
X180000000Y-83750000D03*
X186250000Y-95250000D03*
X173750000Y-95250000D03*
D15*
X185000000Y-86250000D03*
X175000000Y-86250000D03*
%TD*%
D14*
%TO.C,SW19*%
X165000000Y-83750000D03*
X171250000Y-95250000D03*
X158750000Y-95250000D03*
D15*
X170000000Y-86250000D03*
X160000000Y-86250000D03*
%TD*%
D14*
%TO.C,SW18*%
X150000000Y-83750000D03*
X156250000Y-95250000D03*
X143750000Y-95250000D03*
D15*
X155000000Y-86250000D03*
X145000000Y-86250000D03*
%TD*%
D14*
%TO.C,SW17*%
X135000000Y-83750000D03*
X141250000Y-95250000D03*
X128750000Y-95250000D03*
D15*
X140000000Y-86250000D03*
X130000000Y-86250000D03*
%TD*%
D14*
%TO.C,SW16*%
X120000000Y-83750000D03*
X126250000Y-95250000D03*
X113750000Y-95250000D03*
D15*
X125000000Y-86250000D03*
X115000000Y-86250000D03*
%TD*%
D14*
%TO.C,SW15*%
X105000000Y-83750000D03*
X111250000Y-95250000D03*
X98750000Y-95250000D03*
D15*
X110000000Y-86250000D03*
X100000000Y-86250000D03*
%TD*%
D14*
%TO.C,SW14*%
X90000000Y-83750000D03*
X96250000Y-95250000D03*
X83750000Y-95250000D03*
D15*
X95000000Y-86250000D03*
X85000000Y-86250000D03*
%TD*%
D14*
%TO.C,SW13*%
X75000000Y-83750000D03*
X81250000Y-95250000D03*
X68750000Y-95250000D03*
D15*
X80000000Y-86250000D03*
X70000000Y-86250000D03*
%TD*%
D14*
%TO.C,SW12*%
X240000000Y-68750000D03*
X246250000Y-80250000D03*
X233750000Y-80250000D03*
D15*
X245000000Y-71250000D03*
X235000000Y-71250000D03*
%TD*%
D14*
%TO.C,SW11*%
X225000000Y-68750000D03*
X231250000Y-80250000D03*
X218750000Y-80250000D03*
D15*
X230000000Y-71250000D03*
X220000000Y-71250000D03*
%TD*%
D14*
%TO.C,SW10*%
X210000000Y-68750000D03*
X216250000Y-80250000D03*
X203750000Y-80250000D03*
D15*
X215000000Y-71250000D03*
X205000000Y-71250000D03*
%TD*%
D14*
%TO.C,SW9*%
X195000000Y-68750000D03*
X201250000Y-80250000D03*
X188750000Y-80250000D03*
D15*
X200000000Y-71250000D03*
X190000000Y-71250000D03*
%TD*%
D14*
%TO.C,SW8*%
X180000000Y-68750000D03*
X186250000Y-80250000D03*
X173750000Y-80250000D03*
D15*
X185000000Y-71250000D03*
X175000000Y-71250000D03*
%TD*%
D14*
%TO.C,SW7*%
X165000000Y-68750000D03*
X171250000Y-80250000D03*
X158750000Y-80250000D03*
D15*
X170000000Y-71250000D03*
X160000000Y-71250000D03*
%TD*%
D14*
%TO.C,SW6*%
X150000000Y-68750000D03*
X156250000Y-80250000D03*
X143750000Y-80250000D03*
D15*
X155000000Y-71250000D03*
X145000000Y-71250000D03*
%TD*%
D14*
%TO.C,SW5*%
X135000000Y-68750000D03*
X141250000Y-80250000D03*
X128750000Y-80250000D03*
D15*
X140000000Y-71250000D03*
X130000000Y-71250000D03*
%TD*%
D14*
%TO.C,SW4*%
X120000000Y-68750000D03*
X126250000Y-80250000D03*
X113750000Y-80250000D03*
D15*
X125000000Y-71250000D03*
X115000000Y-71250000D03*
%TD*%
D14*
%TO.C,SW3*%
X105000000Y-68750000D03*
X111250000Y-80250000D03*
X98750000Y-80250000D03*
D15*
X110000000Y-71250000D03*
X100000000Y-71250000D03*
%TD*%
D14*
%TO.C,SW2*%
X90000000Y-68750000D03*
X96250000Y-80250000D03*
X83750000Y-80250000D03*
D15*
X95000000Y-71250000D03*
X85000000Y-71250000D03*
%TD*%
D14*
%TO.C,SW1*%
X75000000Y-68750000D03*
X81250000Y-80250000D03*
X68750000Y-80250000D03*
D15*
X80000000Y-71250000D03*
X70000000Y-71250000D03*
%TD*%
%TO.C,C12*%
X145000000Y-50000000D03*
X145000000Y-45000000D03*
%TD*%
M02*
