%TF.GenerationSoftware,KiCad,Pcbnew,5.1.10*%
%TF.CreationDate,2021-11-29T21:20:16+01:00*%
%TF.ProjectId,Speichermodul_B,53706569-6368-4657-926d-6f64756c5f42,1*%
%TF.SameCoordinates,Original*%
%TF.FileFunction,Copper,L2,Bot*%
%TF.FilePolarity,Positive*%
%FSLAX46Y46*%
G04 Gerber Fmt 4.6, Leading zero omitted, Abs format (unit mm)*
G04 Created by KiCad (PCBNEW 5.1.10) date 2021-11-29 21:20:16*
%MOMM*%
%LPD*%
G01*
G04 APERTURE LIST*
%TA.AperFunction,NonConductor*%
%ADD10C,0.300000*%
%TD*%
%TA.AperFunction,ComponentPad*%
%ADD11O,1.400000X1.400000*%
%TD*%
%TA.AperFunction,ComponentPad*%
%ADD12C,1.400000*%
%TD*%
%TA.AperFunction,SMDPad,CuDef*%
%ADD13C,0.100000*%
%TD*%
%TA.AperFunction,SMDPad,CuDef*%
%ADD14R,5.080000X0.500000*%
%TD*%
%TA.AperFunction,SMDPad,CuDef*%
%ADD15R,0.500000X5.080000*%
%TD*%
%TA.AperFunction,SMDPad,CuDef*%
%ADD16C,2.000000*%
%TD*%
%TA.AperFunction,ComponentPad*%
%ADD17C,1.600000*%
%TD*%
%TA.AperFunction,ComponentPad*%
%ADD18R,1.600000X1.600000*%
%TD*%
%TA.AperFunction,ComponentPad*%
%ADD19O,1.700000X1.700000*%
%TD*%
%TA.AperFunction,ComponentPad*%
%ADD20R,1.700000X1.700000*%
%TD*%
%TA.AperFunction,ComponentPad*%
%ADD21O,1.600000X1.600000*%
%TD*%
%TA.AperFunction,ComponentPad*%
%ADD22C,0.100000*%
%TD*%
%TA.AperFunction,ViaPad*%
%ADD23C,2.000000*%
%TD*%
%TA.AperFunction,Conductor*%
%ADD24C,0.500000*%
%TD*%
%TA.AperFunction,Conductor*%
%ADD25C,1.000000*%
%TD*%
%TA.AperFunction,Conductor*%
%ADD26C,0.254000*%
%TD*%
%TA.AperFunction,Conductor*%
%ADD27C,0.100000*%
%TD*%
G04 APERTURE END LIST*
D10*
X190280952Y-136204761D02*
X191233333Y-136204761D01*
X191233333Y-134204761D01*
X139585476Y-106904761D02*
X138442619Y-106904761D01*
X139014047Y-108904761D02*
X139014047Y-106904761D01*
X137966428Y-107571428D02*
X137490238Y-108904761D01*
X137014047Y-107571428D02*
X137490238Y-108904761D01*
X137680714Y-109380952D01*
X137775952Y-109476190D01*
X137966428Y-109571428D01*
X136252142Y-107571428D02*
X136252142Y-109571428D01*
X136252142Y-107666666D02*
X136061666Y-107571428D01*
X135680714Y-107571428D01*
X135490238Y-107666666D01*
X135395000Y-107761904D01*
X135299761Y-107952380D01*
X135299761Y-108523809D01*
X135395000Y-108714285D01*
X135490238Y-108809523D01*
X135680714Y-108904761D01*
X136061666Y-108904761D01*
X136252142Y-108809523D01*
X132252142Y-107857142D02*
X131966428Y-107952380D01*
X131871190Y-108047619D01*
X131775952Y-108238095D01*
X131775952Y-108523809D01*
X131871190Y-108714285D01*
X131966428Y-108809523D01*
X132156904Y-108904761D01*
X132918809Y-108904761D01*
X132918809Y-106904761D01*
X132252142Y-106904761D01*
X132061666Y-107000000D01*
X131966428Y-107095238D01*
X131871190Y-107285714D01*
X131871190Y-107476190D01*
X131966428Y-107666666D01*
X132061666Y-107761904D01*
X132252142Y-107857142D01*
X132918809Y-107857142D01*
D11*
%TO.P,R4,2*%
%TO.N,Net-(R4-Pad2)*%
X137680000Y-96540000D03*
D12*
%TO.P,R4,1*%
%TO.N,U2*%
X137680000Y-94000000D03*
%TD*%
D11*
%TO.P,R3,2*%
%TO.N,Net-(R3-Pad2)*%
X135080000Y-96540000D03*
D12*
%TO.P,R3,1*%
%TO.N,U2*%
X135080000Y-94000000D03*
%TD*%
D11*
%TO.P,R2,2*%
%TO.N,Net-(R2-Pad2)*%
X132540000Y-96540000D03*
D12*
%TO.P,R2,1*%
%TO.N,U2*%
X132540000Y-94000000D03*
%TD*%
D11*
%TO.P,R1,2*%
%TO.N,Net-(R1-Pad2)*%
X130000000Y-96540000D03*
D12*
%TO.P,R1,1*%
%TO.N,U2*%
X130000000Y-94000000D03*
%TD*%
%TA.AperFunction,SMDPad,CuDef*%
D13*
%TO.P,REF\u002A\u002A,2*%
%TO.N,N/C*%
G36*
X132901903Y-111848350D02*
G01*
X137851650Y-116798097D01*
X137498097Y-117151650D01*
X132548350Y-112201903D01*
X132901903Y-111848350D01*
G37*
%TD.AperFunction*%
%TA.AperFunction,SMDPad,CuDef*%
G36*
X132548350Y-116798097D02*
G01*
X137498097Y-111848350D01*
X137851650Y-112201903D01*
X132901903Y-117151650D01*
X132548350Y-116798097D01*
G37*
%TD.AperFunction*%
D14*
X135200000Y-114500000D03*
D15*
X135200000Y-114500000D03*
D16*
%TO.P,REF\u002A\u002A,1*%
X132660000Y-114500000D03*
X132660000Y-111960000D03*
X135200000Y-111960000D03*
X137740000Y-111960000D03*
X137740000Y-114500000D03*
X137740000Y-117040000D03*
X135200000Y-117040000D03*
X132660000Y-117040000D03*
X135200000Y-114500000D03*
%TD*%
D17*
%TO.P,C4,2*%
%TO.N,GND*%
X127500000Y-119500000D03*
D18*
%TO.P,C4,1*%
%TO.N,+5P*%
X127500000Y-117000000D03*
%TD*%
D17*
%TO.P,C3,2*%
%TO.N,GND*%
X173000000Y-91000000D03*
%TO.P,C3,1*%
%TO.N,+5P*%
X178000000Y-91000000D03*
%TD*%
D19*
%TO.P,X11,3*%
%TO.N,Net-(R3-Pad2)*%
X130000000Y-104140000D03*
%TO.P,X11,2*%
%TO.N,Net-(R2-Pad2)*%
X130000000Y-101600000D03*
D20*
%TO.P,X11,1*%
%TO.N,Net-(R1-Pad2)*%
X130000000Y-99060000D03*
%TD*%
D21*
%TO.P,U3,24*%
%TO.N,U2*%
X158240000Y-97000000D03*
%TO.P,U3,12*%
%TO.N,GND*%
X143000000Y-124940000D03*
%TO.P,U3,23*%
%TO.N,/A8*%
X158240000Y-99540000D03*
%TO.P,U3,11*%
%TO.N,/D2*%
X143000000Y-122400000D03*
%TO.P,U3,22*%
%TO.N,/A9*%
X158240000Y-102080000D03*
%TO.P,U3,10*%
%TO.N,/D1*%
X143000000Y-119860000D03*
%TO.P,U3,21*%
%TO.N,R~W*%
X158240000Y-104620000D03*
%TO.P,U3,9*%
%TO.N,/D0*%
X143000000Y-117320000D03*
%TO.P,U3,20*%
%TO.N,Net-(R4-Pad2)*%
X158240000Y-107160000D03*
%TO.P,U3,8*%
%TO.N,/A0*%
X143000000Y-114780000D03*
%TO.P,U3,19*%
%TO.N,/A10*%
X158240000Y-109700000D03*
%TO.P,U3,7*%
%TO.N,/A1*%
X143000000Y-112240000D03*
%TO.P,U3,18*%
%TO.N,Net-(R4-Pad2)*%
X158240000Y-112240000D03*
%TO.P,U3,6*%
%TO.N,/A2*%
X143000000Y-109700000D03*
%TO.P,U3,17*%
%TO.N,/D7*%
X158240000Y-114780000D03*
%TO.P,U3,5*%
%TO.N,/A3*%
X143000000Y-107160000D03*
%TO.P,U3,16*%
%TO.N,/D6*%
X158240000Y-117320000D03*
%TO.P,U3,4*%
%TO.N,/A4*%
X143000000Y-104620000D03*
%TO.P,U3,15*%
%TO.N,/D5*%
X158240000Y-119860000D03*
%TO.P,U3,3*%
%TO.N,/A5*%
X143000000Y-102080000D03*
%TO.P,U3,14*%
%TO.N,/D4*%
X158240000Y-122400000D03*
%TO.P,U3,2*%
%TO.N,/A6*%
X143000000Y-99540000D03*
%TO.P,U3,13*%
%TO.N,/D3*%
X158240000Y-124940000D03*
D18*
%TO.P,U3,1*%
%TO.N,/A7*%
X143000000Y-97000000D03*
%TD*%
D21*
%TO.P,U2,24*%
%TO.N,+5P*%
X183240000Y-97000000D03*
%TO.P,U2,12*%
%TO.N,GND*%
X168000000Y-124940000D03*
%TO.P,U2,23*%
%TO.N,/A8*%
X183240000Y-99540000D03*
%TO.P,U2,11*%
%TO.N,/D2*%
X168000000Y-122400000D03*
%TO.P,U2,22*%
%TO.N,/A9*%
X183240000Y-102080000D03*
%TO.P,U2,10*%
%TO.N,/D1*%
X168000000Y-119860000D03*
%TO.P,U2,21*%
%TO.N,/A11*%
X183240000Y-104620000D03*
%TO.P,U2,9*%
%TO.N,/D0*%
X168000000Y-117320000D03*
%TO.P,U2,20*%
%TO.N,~CSB*%
X183240000Y-107160000D03*
%TO.P,U2,8*%
%TO.N,/A0*%
X168000000Y-114780000D03*
%TO.P,U2,19*%
%TO.N,/A10*%
X183240000Y-109700000D03*
%TO.P,U2,7*%
%TO.N,/A1*%
X168000000Y-112240000D03*
%TO.P,U2,18*%
%TO.N,~CSB*%
X183240000Y-112240000D03*
%TO.P,U2,6*%
%TO.N,/A2*%
X168000000Y-109700000D03*
%TO.P,U2,17*%
%TO.N,/D7*%
X183240000Y-114780000D03*
%TO.P,U2,5*%
%TO.N,/A3*%
X168000000Y-107160000D03*
%TO.P,U2,16*%
%TO.N,/D6*%
X183240000Y-117320000D03*
%TO.P,U2,4*%
%TO.N,/A4*%
X168000000Y-104620000D03*
%TO.P,U2,15*%
%TO.N,/D5*%
X183240000Y-119860000D03*
%TO.P,U2,3*%
%TO.N,/A5*%
X168000000Y-102080000D03*
%TO.P,U2,14*%
%TO.N,/D4*%
X183240000Y-122400000D03*
%TO.P,U2,2*%
%TO.N,/A6*%
X168000000Y-99540000D03*
%TO.P,U2,13*%
%TO.N,/D3*%
X183240000Y-124940000D03*
D18*
%TO.P,U2,1*%
%TO.N,/A7*%
X168000000Y-97000000D03*
%TD*%
D17*
%TO.P,C5,2*%
%TO.N,GND*%
X124974874Y-124525126D03*
%TA.AperFunction,ComponentPad*%
D22*
%TO.P,C5,1*%
%TO.N,U2*%
G36*
X122500000Y-128131371D02*
G01*
X121368629Y-127000000D01*
X122500000Y-125868629D01*
X123631371Y-127000000D01*
X122500000Y-128131371D01*
G37*
%TD.AperFunction*%
%TD*%
D19*
%TO.P,X10,29*%
%TO.N,Net-(X10-Pad29)*%
X117470000Y-135160000D03*
%TO.P,X10,28*%
%TO.N,+5P*%
X120010000Y-135160000D03*
%TO.P,X10,27*%
%TO.N,U2*%
X122550000Y-135160000D03*
%TO.P,X10,26*%
%TO.N,U1*%
X125090000Y-135160000D03*
%TO.P,X10,25*%
%TO.N,GND*%
X127630000Y-135160000D03*
%TO.P,X10,24*%
%TO.N,/A7*%
X130170000Y-135160000D03*
%TO.P,X10,23*%
%TO.N,/A6*%
X132710000Y-135160000D03*
%TO.P,X10,22*%
%TO.N,/A5*%
X135250000Y-135160000D03*
%TO.P,X10,21*%
%TO.N,/A4*%
X137790000Y-135160000D03*
%TO.P,X10,20*%
%TO.N,/A3*%
X140330000Y-135160000D03*
%TO.P,X10,19*%
%TO.N,/A2*%
X142870000Y-135160000D03*
%TO.P,X10,18*%
%TO.N,/A1*%
X145410000Y-135160000D03*
%TO.P,X10,17*%
%TO.N,/A0*%
X147950000Y-135160000D03*
%TO.P,X10,16*%
%TO.N,/D0*%
X150490000Y-135160000D03*
%TO.P,X10,15*%
%TO.N,/D1*%
X153030000Y-135160000D03*
%TO.P,X10,14*%
%TO.N,/D2*%
X155570000Y-135160000D03*
%TO.P,X10,13*%
%TO.N,/D3*%
X158110000Y-135160000D03*
%TO.P,X10,12*%
%TO.N,/D4*%
X160650000Y-135160000D03*
%TO.P,X10,11*%
%TO.N,/D5*%
X163190000Y-135160000D03*
%TO.P,X10,10*%
%TO.N,/D6*%
X165730000Y-135160000D03*
%TO.P,X10,9*%
%TO.N,/D7*%
X168270000Y-135160000D03*
%TO.P,X10,8*%
%TO.N,/A12*%
X170810000Y-135160000D03*
%TO.P,X10,7*%
%TO.N,/A11*%
X173350000Y-135160000D03*
%TO.P,X10,6*%
%TO.N,/A10*%
X175890000Y-135160000D03*
%TO.P,X10,5*%
%TO.N,/A9*%
X178430000Y-135160000D03*
%TO.P,X10,4*%
%TO.N,/A8*%
X180970000Y-135160000D03*
%TO.P,X10,3*%
%TO.N,R~W*%
X183510000Y-135160000D03*
%TO.P,X10,2*%
%TO.N,~CSB*%
X186050000Y-135160000D03*
D20*
%TO.P,X10,1*%
%TO.N,/~CSA*%
X188590000Y-135160000D03*
%TD*%
D21*
%TO.P,U15,16*%
%TO.N,+5P*%
X127620000Y-94000000D03*
%TO.P,U15,8*%
%TO.N,GND*%
X120000000Y-111780000D03*
%TO.P,U15,15*%
%TO.N,Net-(R1-Pad2)*%
X127620000Y-96540000D03*
%TO.P,U15,7*%
%TO.N,Net-(U15-Pad7)*%
X120000000Y-109240000D03*
%TO.P,U15,14*%
%TO.N,Net-(R2-Pad2)*%
X127620000Y-99080000D03*
%TO.P,U15,6*%
%TO.N,U1*%
X120000000Y-106700000D03*
%TO.P,U15,13*%
%TO.N,Net-(R3-Pad2)*%
X127620000Y-101620000D03*
%TO.P,U15,5*%
%TO.N,/~CSA*%
X120000000Y-104160000D03*
%TO.P,U15,12*%
%TO.N,Net-(R4-Pad2)*%
X127620000Y-104160000D03*
%TO.P,U15,4*%
%TO.N,/~CSA*%
X120000000Y-101620000D03*
%TO.P,U15,11*%
%TO.N,Net-(U15-Pad11)*%
X127620000Y-106700000D03*
%TO.P,U15,3*%
%TO.N,GND*%
X120000000Y-99080000D03*
%TO.P,U15,10*%
%TO.N,Net-(U15-Pad10)*%
X127620000Y-109240000D03*
%TO.P,U15,2*%
%TO.N,/A12*%
X120000000Y-96540000D03*
%TO.P,U15,9*%
%TO.N,Net-(U15-Pad9)*%
X127620000Y-111780000D03*
D18*
%TO.P,U15,1*%
%TO.N,/A11*%
X120000000Y-94000000D03*
%TD*%
D23*
%TO.N,*%
X115300000Y-88500000D03*
X190700000Y-88700000D03*
%TO.N,GND*%
X173000000Y-127600000D03*
%TO.N,/A8*%
X188100000Y-99100000D03*
%TO.N,/A9*%
X188000000Y-101700000D03*
%TO.N,/A10*%
X188100000Y-109500000D03*
%TO.N,R~W*%
X155600000Y-132600000D03*
%TO.N,/A12*%
X175700000Y-93900000D03*
%TO.N,/A11*%
X188100000Y-104400000D03*
%TO.N,U2*%
X115400000Y-91100000D03*
%TO.N,Net-(R4-Pad2)*%
X160700000Y-94000000D03*
%TD*%
D24*
%TO.N,GND*%
X120000000Y-99080000D02*
X122500000Y-101400000D01*
X122500000Y-101400000D02*
X122500000Y-109700000D01*
X122500000Y-109700000D02*
X120000000Y-111780000D01*
X127500000Y-119500000D02*
X125800000Y-121200000D01*
%TO.N,+5P*%
X127620000Y-94000000D02*
X125200000Y-96400000D01*
X125200000Y-96400000D02*
X125200000Y-112000000D01*
X125200000Y-112000000D02*
X127500000Y-117000000D01*
D25*
X178000000Y-91000000D02*
X183240000Y-97000000D01*
X173200000Y-96500000D02*
X183240000Y-97000000D01*
X168000000Y-91500000D02*
X173200000Y-96500000D01*
X130400000Y-91200000D02*
X168000000Y-91500000D01*
X127620000Y-94000000D02*
X130400000Y-91200000D01*
D24*
%TO.N,/A8*%
X188100000Y-99100000D02*
X183240000Y-99540000D01*
X168900000Y-98250000D02*
X183240000Y-99540000D01*
X167000000Y-98300000D02*
X168900000Y-98250000D01*
X158240000Y-99540000D02*
X167000000Y-98300000D01*
%TO.N,/D2*%
X157200000Y-123700000D02*
X143000000Y-122400000D01*
X159150000Y-123650000D02*
X157200000Y-123700000D01*
X168000000Y-122400000D02*
X159150000Y-123650000D01*
%TO.N,/A9*%
X188000000Y-101700000D02*
X183240000Y-102080000D01*
X158240000Y-102080000D02*
X167700000Y-100800000D01*
X167700000Y-100800000D02*
X168600000Y-100800000D01*
X168600000Y-100800000D02*
X183240000Y-102080000D01*
%TO.N,/D1*%
X157400000Y-121150000D02*
X143000000Y-119860000D01*
X159400000Y-121100000D02*
X157400000Y-121150000D01*
X168000000Y-119860000D02*
X159400000Y-121100000D01*
%TO.N,/D0*%
X168000000Y-117320000D02*
X159400000Y-118600000D01*
X159400000Y-118600000D02*
X156900000Y-118600000D01*
X156900000Y-118600000D02*
X143000000Y-117320000D01*
%TO.N,~CSB*%
X186050000Y-135160000D02*
X186017600Y-112217600D01*
X186017600Y-112217600D02*
X183240000Y-112240000D01*
X188600000Y-112200000D02*
X186017600Y-112217600D01*
X188600000Y-107000000D02*
X190200000Y-109500000D01*
X190200000Y-109500000D02*
X188600000Y-112200000D01*
X183240000Y-107160000D02*
X188600000Y-107000000D01*
%TO.N,/A0*%
X168000000Y-114780000D02*
X159300000Y-116000000D01*
X159300000Y-116000000D02*
X157300000Y-116100000D01*
X157300000Y-116100000D02*
X143000000Y-114780000D01*
%TO.N,/A10*%
X188100000Y-109500000D02*
X183240000Y-109700000D01*
X168900000Y-108400000D02*
X183240000Y-109700000D01*
X167050000Y-108450000D02*
X168900000Y-108400000D01*
X158240000Y-109700000D02*
X167050000Y-108450000D01*
%TO.N,/A1*%
X168000000Y-112240000D02*
X159400000Y-113500000D01*
X159400000Y-113500000D02*
X157300000Y-113500000D01*
X157300000Y-113500000D02*
X143000000Y-112240000D01*
%TO.N,/A2*%
X168000000Y-109700000D02*
X159300000Y-111000000D01*
X159300000Y-111000000D02*
X157100000Y-110900000D01*
X157100000Y-110900000D02*
X143000000Y-109700000D01*
%TO.N,/D7*%
X158240000Y-114780000D02*
X167000000Y-113500000D01*
X167000000Y-113500000D02*
X169000000Y-113500000D01*
X169000000Y-113500000D02*
X183240000Y-114780000D01*
%TO.N,/A3*%
X168000000Y-107160000D02*
X158900000Y-108400000D01*
X158900000Y-108400000D02*
X157400000Y-108500000D01*
X157400000Y-108500000D02*
X143000000Y-107160000D01*
%TO.N,/D6*%
X158240000Y-117320000D02*
X166900000Y-116000000D01*
X166900000Y-116000000D02*
X169100000Y-116100000D01*
X169100000Y-116100000D02*
X183240000Y-117320000D01*
%TO.N,/A4*%
X168000000Y-104620000D02*
X159000000Y-105900000D01*
X159000000Y-105900000D02*
X157400000Y-105900000D01*
X157400000Y-105900000D02*
X143000000Y-104620000D01*
%TO.N,/D5*%
X158240000Y-119860000D02*
X166900000Y-118600000D01*
X166900000Y-118600000D02*
X168900000Y-118600000D01*
X168900000Y-118600000D02*
X183240000Y-119860000D01*
%TO.N,/A5*%
X168000000Y-102080000D02*
X159000000Y-103300000D01*
X159000000Y-103300000D02*
X157400000Y-103400000D01*
X157400000Y-103400000D02*
X143000000Y-102080000D01*
%TO.N,/D4*%
X169250000Y-121150000D02*
X183240000Y-122400000D01*
X167250000Y-121100000D02*
X169250000Y-121150000D01*
X158240000Y-122400000D02*
X167250000Y-121100000D01*
%TO.N,/A6*%
X168000000Y-99540000D02*
X158400000Y-100800000D01*
X158400000Y-100800000D02*
X157700000Y-100800000D01*
X157700000Y-100800000D02*
X143000000Y-99540000D01*
%TO.N,/D3*%
X168900000Y-123650000D02*
X183240000Y-124940000D01*
X167200000Y-123700000D02*
X168900000Y-123650000D01*
X158240000Y-124940000D02*
X167200000Y-123700000D01*
%TO.N,/A7*%
X168000000Y-97000000D02*
X158800000Y-98300000D01*
X158800000Y-98300000D02*
X157200000Y-98200000D01*
X157200000Y-98200000D02*
X143000000Y-97000000D01*
%TO.N,R~W*%
X181000000Y-132800000D02*
X183510000Y-135160000D01*
X155600000Y-132600000D02*
X181000000Y-132800000D01*
%TO.N,/~CSA*%
X117700000Y-99200000D02*
X117800000Y-90900000D01*
X117800000Y-90900000D02*
X121500000Y-87200000D01*
X121500000Y-87200000D02*
X186000000Y-87400000D01*
X186000000Y-87400000D02*
X190800000Y-92700000D01*
X190800000Y-92700000D02*
X192100000Y-108700000D01*
X192100000Y-108700000D02*
X188590000Y-135160000D01*
X120000000Y-104160000D02*
X117700000Y-101600000D01*
X117700000Y-101600000D02*
X117700000Y-99200000D01*
X120000000Y-101620000D02*
X117700000Y-101600000D01*
%TO.N,/A12*%
X120000000Y-96540000D02*
X121600000Y-95100000D01*
X121600000Y-95100000D02*
X126400000Y-89700000D01*
X126400000Y-89700000D02*
X169200000Y-90000000D01*
X169200000Y-90000000D02*
X173200000Y-93800000D01*
X173200000Y-93800000D02*
X175700000Y-93900000D01*
%TO.N,/A11*%
X188100000Y-104400000D02*
X183240000Y-104620000D01*
X188100000Y-104400000D02*
X190000000Y-102700000D01*
X190000000Y-102700000D02*
X190100000Y-98600000D01*
X190100000Y-98600000D02*
X184900000Y-90800000D01*
X184900000Y-90800000D02*
X178600000Y-88600000D01*
X178600000Y-88600000D02*
X125000000Y-88500000D01*
X125000000Y-88500000D02*
X120000000Y-94000000D01*
D25*
%TO.N,U2*%
X122550000Y-135160000D02*
X122500000Y-127000000D01*
X122500000Y-127000000D02*
X115300000Y-119700000D01*
X115300000Y-119700000D02*
X115300000Y-91100000D01*
D24*
%TO.N,Net-(R1-Pad2)*%
X127620000Y-96540000D02*
X130000000Y-96540000D01*
X130000000Y-96540000D02*
X130000000Y-99060000D01*
%TO.N,Net-(R2-Pad2)*%
X127620000Y-99080000D02*
X128500000Y-100300000D01*
X128500000Y-100300000D02*
X130000000Y-101600000D01*
X132450000Y-99300000D02*
X132540000Y-96540000D01*
X130000000Y-101600000D02*
X132450000Y-99300000D01*
%TO.N,Net-(R3-Pad2)*%
X127620000Y-101620000D02*
X130000000Y-104140000D01*
X130000000Y-104140000D02*
X135100000Y-98900000D01*
X135100000Y-98900000D02*
X135080000Y-96540000D01*
%TO.N,Net-(R4-Pad2)*%
X160700000Y-94000000D02*
X140300000Y-93700000D01*
X140300000Y-93700000D02*
X137680000Y-96540000D01*
X137680000Y-96540000D02*
X137600000Y-98800000D01*
X137600000Y-98800000D02*
X130300000Y-106600000D01*
X130300000Y-106600000D02*
X127620000Y-104160000D01*
%TO.N,U1*%
X125090000Y-135160000D02*
X124900000Y-127300000D01*
X124900000Y-127300000D02*
X117600000Y-118900000D01*
X117600000Y-118900000D02*
X117600000Y-109100000D01*
X117600000Y-109100000D02*
X120000000Y-106700000D01*
%TD*%
D26*
%TO.N,GND*%
X126061928Y-117707840D02*
X126061928Y-117800000D01*
X126074188Y-117924482D01*
X126110498Y-118044180D01*
X126169463Y-118154494D01*
X126248815Y-118251185D01*
X126329781Y-118317631D01*
X126425685Y-118535968D01*
X126391023Y-118570630D01*
X126479989Y-118659596D01*
X126493732Y-118690883D01*
X126263329Y-118758486D01*
X126142429Y-119013996D01*
X126073700Y-119288184D01*
X126059783Y-119570512D01*
X126101213Y-119850130D01*
X126196397Y-120116292D01*
X126263329Y-120241514D01*
X126507298Y-120313097D01*
X127259481Y-119560915D01*
X128001082Y-119821477D01*
X128492702Y-120313097D01*
X128736671Y-120241514D01*
X128802230Y-120102962D01*
X141615829Y-124605037D01*
X141730085Y-124813000D01*
X142843021Y-124813000D01*
X143147000Y-124862029D01*
X143147000Y-125067000D01*
X143127000Y-125067000D01*
X143127000Y-126210624D01*
X143349040Y-126331909D01*
X143613881Y-126237070D01*
X143855131Y-126092385D01*
X144063519Y-125903414D01*
X144231037Y-125677420D01*
X144351246Y-125423087D01*
X144391904Y-125289039D01*
X144269916Y-125067002D01*
X144417833Y-125067002D01*
X157179777Y-127125380D01*
X157204626Y-127126916D01*
X157227795Y-127123921D01*
X166565000Y-125029595D01*
X166565000Y-125067002D01*
X166730084Y-125067002D01*
X166608096Y-125289039D01*
X166648754Y-125423087D01*
X166768963Y-125677420D01*
X166936481Y-125903414D01*
X167144869Y-126092385D01*
X167386119Y-126237070D01*
X167650960Y-126331909D01*
X167873000Y-126210624D01*
X167873000Y-125067000D01*
X167853000Y-125067000D01*
X167853000Y-124813000D01*
X167873000Y-124813000D01*
X167873000Y-124793000D01*
X168009192Y-124793000D01*
X168147000Y-124858908D01*
X168147000Y-125067000D01*
X168127000Y-125067000D01*
X168127000Y-126210624D01*
X168349040Y-126331909D01*
X168613881Y-126237070D01*
X168855131Y-126092385D01*
X169063519Y-125903414D01*
X169231037Y-125677420D01*
X169346711Y-125432683D01*
X172413701Y-126899504D01*
X173137477Y-127985168D01*
X170046247Y-131173000D01*
X156407266Y-131173000D01*
X156374463Y-131151082D01*
X156076912Y-131027832D01*
X155761033Y-130965000D01*
X155438967Y-130965000D01*
X155123088Y-131027832D01*
X154825537Y-131151082D01*
X154792734Y-131173000D01*
X154500000Y-131173000D01*
X154475224Y-131175440D01*
X154451399Y-131182667D01*
X154429443Y-131194403D01*
X154410197Y-131210197D01*
X154399752Y-131222030D01*
X153038305Y-132972461D01*
X130001100Y-132773005D01*
X129976303Y-132775230D01*
X129952417Y-132782251D01*
X129930359Y-132793796D01*
X129904232Y-132816589D01*
X128726335Y-134168989D01*
X128630269Y-134062412D01*
X128396920Y-133888359D01*
X128134099Y-133763175D01*
X127986890Y-133718524D01*
X127757000Y-133839845D01*
X127757000Y-135033000D01*
X127777000Y-135033000D01*
X127777000Y-135258966D01*
X127735164Y-135307000D01*
X127503000Y-135307000D01*
X127503000Y-135287000D01*
X127483000Y-135287000D01*
X127483000Y-135033000D01*
X127503000Y-135033000D01*
X127503000Y-133839845D01*
X127273110Y-133718524D01*
X127269129Y-133719732D01*
X127526884Y-127705438D01*
X127525506Y-127680580D01*
X127519306Y-127656468D01*
X127508521Y-127634029D01*
X127488092Y-127608519D01*
X125621176Y-125810749D01*
X125833644Y-125683449D01*
X126043121Y-125493654D01*
X126194926Y-125289039D01*
X141608096Y-125289039D01*
X141648754Y-125423087D01*
X141768963Y-125677420D01*
X141936481Y-125903414D01*
X142144869Y-126092385D01*
X142386119Y-126237070D01*
X142650960Y-126331909D01*
X142873000Y-126210624D01*
X142873000Y-125067000D01*
X141730085Y-125067000D01*
X141608096Y-125289039D01*
X126194926Y-125289039D01*
X126211545Y-125266639D01*
X126332445Y-125011128D01*
X126373662Y-124875255D01*
X126251767Y-124652126D01*
X125101874Y-124652126D01*
X125101874Y-125310680D01*
X124847874Y-125066087D01*
X124847874Y-124831734D01*
X124960733Y-124718875D01*
X124781125Y-124539267D01*
X124668266Y-124652126D01*
X124655131Y-124652126D01*
X124551943Y-124398126D01*
X124668266Y-124398126D01*
X124781125Y-124510985D01*
X124960733Y-124331377D01*
X124847874Y-124218518D01*
X124847874Y-123248233D01*
X125101874Y-123248233D01*
X125101874Y-124398126D01*
X126251767Y-124398126D01*
X126373662Y-124174997D01*
X126278478Y-123908835D01*
X126133197Y-123666356D01*
X125943402Y-123456879D01*
X125716387Y-123288455D01*
X125460876Y-123167555D01*
X125325003Y-123126338D01*
X125101874Y-123248233D01*
X124847874Y-123248233D01*
X124624745Y-123126338D01*
X124358583Y-123221522D01*
X124129667Y-123358677D01*
X122965365Y-120492702D01*
X126686903Y-120492702D01*
X126758486Y-120736671D01*
X127013996Y-120857571D01*
X127288184Y-120926300D01*
X127570512Y-120940217D01*
X127850130Y-120898787D01*
X128116292Y-120803603D01*
X128241514Y-120736671D01*
X128313097Y-120492702D01*
X127500000Y-119679605D01*
X126686903Y-120492702D01*
X122965365Y-120492702D01*
X120008799Y-113215000D01*
X120127002Y-113215000D01*
X120127002Y-113050625D01*
X120349040Y-113171909D01*
X120613881Y-113077070D01*
X120855131Y-112932385D01*
X121063519Y-112743414D01*
X121231037Y-112517420D01*
X121351246Y-112263087D01*
X121391904Y-112129039D01*
X121269915Y-111907000D01*
X120127000Y-111907000D01*
X120127000Y-111927000D01*
X119929408Y-111927000D01*
X120129354Y-111653000D01*
X121269915Y-111653000D01*
X121391904Y-111430961D01*
X121351246Y-111296913D01*
X121231037Y-111042580D01*
X121063519Y-110816586D01*
X120868657Y-110639881D01*
X122172486Y-108853152D01*
X126061928Y-117707840D01*
%TA.AperFunction,Conductor*%
D27*
G36*
X126061928Y-117707840D02*
G01*
X126061928Y-117800000D01*
X126074188Y-117924482D01*
X126110498Y-118044180D01*
X126169463Y-118154494D01*
X126248815Y-118251185D01*
X126329781Y-118317631D01*
X126425685Y-118535968D01*
X126391023Y-118570630D01*
X126479989Y-118659596D01*
X126493732Y-118690883D01*
X126263329Y-118758486D01*
X126142429Y-119013996D01*
X126073700Y-119288184D01*
X126059783Y-119570512D01*
X126101213Y-119850130D01*
X126196397Y-120116292D01*
X126263329Y-120241514D01*
X126507298Y-120313097D01*
X127259481Y-119560915D01*
X128001082Y-119821477D01*
X128492702Y-120313097D01*
X128736671Y-120241514D01*
X128802230Y-120102962D01*
X141615829Y-124605037D01*
X141730085Y-124813000D01*
X142843021Y-124813000D01*
X143147000Y-124862029D01*
X143147000Y-125067000D01*
X143127000Y-125067000D01*
X143127000Y-126210624D01*
X143349040Y-126331909D01*
X143613881Y-126237070D01*
X143855131Y-126092385D01*
X144063519Y-125903414D01*
X144231037Y-125677420D01*
X144351246Y-125423087D01*
X144391904Y-125289039D01*
X144269916Y-125067002D01*
X144417833Y-125067002D01*
X157179777Y-127125380D01*
X157204626Y-127126916D01*
X157227795Y-127123921D01*
X166565000Y-125029595D01*
X166565000Y-125067002D01*
X166730084Y-125067002D01*
X166608096Y-125289039D01*
X166648754Y-125423087D01*
X166768963Y-125677420D01*
X166936481Y-125903414D01*
X167144869Y-126092385D01*
X167386119Y-126237070D01*
X167650960Y-126331909D01*
X167873000Y-126210624D01*
X167873000Y-125067000D01*
X167853000Y-125067000D01*
X167853000Y-124813000D01*
X167873000Y-124813000D01*
X167873000Y-124793000D01*
X168009192Y-124793000D01*
X168147000Y-124858908D01*
X168147000Y-125067000D01*
X168127000Y-125067000D01*
X168127000Y-126210624D01*
X168349040Y-126331909D01*
X168613881Y-126237070D01*
X168855131Y-126092385D01*
X169063519Y-125903414D01*
X169231037Y-125677420D01*
X169346711Y-125432683D01*
X172413701Y-126899504D01*
X173137477Y-127985168D01*
X170046247Y-131173000D01*
X156407266Y-131173000D01*
X156374463Y-131151082D01*
X156076912Y-131027832D01*
X155761033Y-130965000D01*
X155438967Y-130965000D01*
X155123088Y-131027832D01*
X154825537Y-131151082D01*
X154792734Y-131173000D01*
X154500000Y-131173000D01*
X154475224Y-131175440D01*
X154451399Y-131182667D01*
X154429443Y-131194403D01*
X154410197Y-131210197D01*
X154399752Y-131222030D01*
X153038305Y-132972461D01*
X130001100Y-132773005D01*
X129976303Y-132775230D01*
X129952417Y-132782251D01*
X129930359Y-132793796D01*
X129904232Y-132816589D01*
X128726335Y-134168989D01*
X128630269Y-134062412D01*
X128396920Y-133888359D01*
X128134099Y-133763175D01*
X127986890Y-133718524D01*
X127757000Y-133839845D01*
X127757000Y-135033000D01*
X127777000Y-135033000D01*
X127777000Y-135258966D01*
X127735164Y-135307000D01*
X127503000Y-135307000D01*
X127503000Y-135287000D01*
X127483000Y-135287000D01*
X127483000Y-135033000D01*
X127503000Y-135033000D01*
X127503000Y-133839845D01*
X127273110Y-133718524D01*
X127269129Y-133719732D01*
X127526884Y-127705438D01*
X127525506Y-127680580D01*
X127519306Y-127656468D01*
X127508521Y-127634029D01*
X127488092Y-127608519D01*
X125621176Y-125810749D01*
X125833644Y-125683449D01*
X126043121Y-125493654D01*
X126194926Y-125289039D01*
X141608096Y-125289039D01*
X141648754Y-125423087D01*
X141768963Y-125677420D01*
X141936481Y-125903414D01*
X142144869Y-126092385D01*
X142386119Y-126237070D01*
X142650960Y-126331909D01*
X142873000Y-126210624D01*
X142873000Y-125067000D01*
X141730085Y-125067000D01*
X141608096Y-125289039D01*
X126194926Y-125289039D01*
X126211545Y-125266639D01*
X126332445Y-125011128D01*
X126373662Y-124875255D01*
X126251767Y-124652126D01*
X125101874Y-124652126D01*
X125101874Y-125310680D01*
X124847874Y-125066087D01*
X124847874Y-124831734D01*
X124960733Y-124718875D01*
X124781125Y-124539267D01*
X124668266Y-124652126D01*
X124655131Y-124652126D01*
X124551943Y-124398126D01*
X124668266Y-124398126D01*
X124781125Y-124510985D01*
X124960733Y-124331377D01*
X124847874Y-124218518D01*
X124847874Y-123248233D01*
X125101874Y-123248233D01*
X125101874Y-124398126D01*
X126251767Y-124398126D01*
X126373662Y-124174997D01*
X126278478Y-123908835D01*
X126133197Y-123666356D01*
X125943402Y-123456879D01*
X125716387Y-123288455D01*
X125460876Y-123167555D01*
X125325003Y-123126338D01*
X125101874Y-123248233D01*
X124847874Y-123248233D01*
X124624745Y-123126338D01*
X124358583Y-123221522D01*
X124129667Y-123358677D01*
X122965365Y-120492702D01*
X126686903Y-120492702D01*
X126758486Y-120736671D01*
X127013996Y-120857571D01*
X127288184Y-120926300D01*
X127570512Y-120940217D01*
X127850130Y-120898787D01*
X128116292Y-120803603D01*
X128241514Y-120736671D01*
X128313097Y-120492702D01*
X127500000Y-119679605D01*
X126686903Y-120492702D01*
X122965365Y-120492702D01*
X120008799Y-113215000D01*
X120127002Y-113215000D01*
X120127002Y-113050625D01*
X120349040Y-113171909D01*
X120613881Y-113077070D01*
X120855131Y-112932385D01*
X121063519Y-112743414D01*
X121231037Y-112517420D01*
X121351246Y-112263087D01*
X121391904Y-112129039D01*
X121269915Y-111907000D01*
X120127000Y-111907000D01*
X120127000Y-111927000D01*
X119929408Y-111927000D01*
X120129354Y-111653000D01*
X121269915Y-111653000D01*
X121391904Y-111430961D01*
X121351246Y-111296913D01*
X121231037Y-111042580D01*
X121063519Y-110816586D01*
X120868657Y-110639881D01*
X122172486Y-108853152D01*
X126061928Y-117707840D01*
G37*
%TD.AperFunction*%
%TD*%
M02*
