%TF.GenerationSoftware,KiCad,Pcbnew,5.1.10*%
%TF.CreationDate,2021-11-29T17:51:52+01:00*%
%TF.ProjectId,Speichermodul_A,53706569-6368-4657-926d-6f64756c5f41,1*%
%TF.SameCoordinates,Original*%
%TF.FileFunction,Copper,L2,Bot*%
%TF.FilePolarity,Positive*%
%FSLAX46Y46*%
G04 Gerber Fmt 4.6, Leading zero omitted, Abs format (unit mm)*
G04 Created by KiCad (PCBNEW 5.1.10) date 2021-11-29 17:51:52*
%MOMM*%
%LPD*%
G01*
G04 APERTURE LIST*
%TA.AperFunction,NonConductor*%
%ADD10C,0.300000*%
%TD*%
%TA.AperFunction,ComponentPad*%
%ADD11C,2.000000*%
%TD*%
%TA.AperFunction,ComponentPad*%
%ADD12C,0.100000*%
%TD*%
%TA.AperFunction,SMDPad,CuDef*%
%ADD13C,0.100000*%
%TD*%
%TA.AperFunction,SMDPad,CuDef*%
%ADD14R,5.080000X0.500000*%
%TD*%
%TA.AperFunction,SMDPad,CuDef*%
%ADD15R,0.500000X5.080000*%
%TD*%
%TA.AperFunction,SMDPad,CuDef*%
%ADD16C,2.000000*%
%TD*%
%TA.AperFunction,ComponentPad*%
%ADD17C,1.600000*%
%TD*%
%TA.AperFunction,ComponentPad*%
%ADD18O,1.700000X1.700000*%
%TD*%
%TA.AperFunction,ComponentPad*%
%ADD19R,1.700000X1.700000*%
%TD*%
%TA.AperFunction,ComponentPad*%
%ADD20O,1.600000X1.600000*%
%TD*%
%TA.AperFunction,ComponentPad*%
%ADD21R,1.600000X1.600000*%
%TD*%
%TA.AperFunction,ViaPad*%
%ADD22C,2.000000*%
%TD*%
%TA.AperFunction,Conductor*%
%ADD23C,0.500000*%
%TD*%
%TA.AperFunction,Conductor*%
%ADD24C,2.500000*%
%TD*%
%TA.AperFunction,Conductor*%
%ADD25C,1.500000*%
%TD*%
%TA.AperFunction,Conductor*%
%ADD26C,0.254000*%
%TD*%
%TA.AperFunction,Conductor*%
%ADD27C,0.100000*%
%TD*%
G04 APERTURE END LIST*
D10*
X190023809Y-71511904D02*
X189666666Y-71630952D01*
X189071428Y-71630952D01*
X188833333Y-71511904D01*
X188714285Y-71392857D01*
X188595238Y-71154761D01*
X188595238Y-70916666D01*
X188714285Y-70678571D01*
X188833333Y-70559523D01*
X189071428Y-70440476D01*
X189547619Y-70321428D01*
X189785714Y-70202380D01*
X189904761Y-70083333D01*
X190023809Y-69845238D01*
X190023809Y-69607142D01*
X189904761Y-69369047D01*
X189785714Y-69250000D01*
X189547619Y-69130952D01*
X188952380Y-69130952D01*
X188595238Y-69250000D01*
X187523809Y-69964285D02*
X187523809Y-72464285D01*
X187523809Y-70083333D02*
X187285714Y-69964285D01*
X186809523Y-69964285D01*
X186571428Y-70083333D01*
X186452380Y-70202380D01*
X186333333Y-70440476D01*
X186333333Y-71154761D01*
X186452380Y-71392857D01*
X186571428Y-71511904D01*
X186809523Y-71630952D01*
X187285714Y-71630952D01*
X187523809Y-71511904D01*
X184309523Y-71511904D02*
X184547619Y-71630952D01*
X185023809Y-71630952D01*
X185261904Y-71511904D01*
X185380952Y-71273809D01*
X185380952Y-70321428D01*
X185261904Y-70083333D01*
X185023809Y-69964285D01*
X184547619Y-69964285D01*
X184309523Y-70083333D01*
X184190476Y-70321428D01*
X184190476Y-70559523D01*
X185380952Y-70797619D01*
X183119047Y-71630952D02*
X183119047Y-69964285D01*
X183119047Y-69130952D02*
X183238095Y-69250000D01*
X183119047Y-69369047D01*
X183000000Y-69250000D01*
X183119047Y-69130952D01*
X183119047Y-69369047D01*
X180857142Y-71511904D02*
X181095238Y-71630952D01*
X181571428Y-71630952D01*
X181809523Y-71511904D01*
X181928571Y-71392857D01*
X182047619Y-71154761D01*
X182047619Y-70440476D01*
X181928571Y-70202380D01*
X181809523Y-70083333D01*
X181571428Y-69964285D01*
X181095238Y-69964285D01*
X180857142Y-70083333D01*
X179785714Y-71630952D02*
X179785714Y-69130952D01*
X178714285Y-71630952D02*
X178714285Y-70321428D01*
X178833333Y-70083333D01*
X179071428Y-69964285D01*
X179428571Y-69964285D01*
X179666666Y-70083333D01*
X179785714Y-70202380D01*
X176571428Y-71511904D02*
X176809523Y-71630952D01*
X177285714Y-71630952D01*
X177523809Y-71511904D01*
X177642857Y-71273809D01*
X177642857Y-70321428D01*
X177523809Y-70083333D01*
X177285714Y-69964285D01*
X176809523Y-69964285D01*
X176571428Y-70083333D01*
X176452380Y-70321428D01*
X176452380Y-70559523D01*
X177642857Y-70797619D01*
X175380952Y-71630952D02*
X175380952Y-69964285D01*
X175380952Y-70440476D02*
X175261904Y-70202380D01*
X175142857Y-70083333D01*
X174904761Y-69964285D01*
X174666666Y-69964285D01*
X170738095Y-71630952D02*
X171928571Y-71630952D01*
X171928571Y-69130952D01*
D11*
%TO.P,C4,2*%
%TO.N,GND*%
X124474874Y-126970126D03*
%TA.AperFunction,ComponentPad*%
D12*
%TO.P,C4,1*%
%TO.N,+5P*%
G36*
X122000000Y-130859214D02*
G01*
X120585786Y-129445000D01*
X122000000Y-128030786D01*
X123414214Y-129445000D01*
X122000000Y-130859214D01*
G37*
%TD.AperFunction*%
%TD*%
%TA.AperFunction,SMDPad,CuDef*%
D13*
%TO.P,REF\u002A\u002A,2*%
%TO.N,N/C*%
G36*
X115701903Y-68848350D02*
G01*
X120651650Y-73798097D01*
X120298097Y-74151650D01*
X115348350Y-69201903D01*
X115701903Y-68848350D01*
G37*
%TD.AperFunction*%
%TA.AperFunction,SMDPad,CuDef*%
G36*
X115348350Y-73798097D02*
G01*
X120298097Y-68848350D01*
X120651650Y-69201903D01*
X115701903Y-74151650D01*
X115348350Y-73798097D01*
G37*
%TD.AperFunction*%
D14*
X118000000Y-71500000D03*
D15*
X118000000Y-71500000D03*
D16*
%TO.P,REF\u002A\u002A,1*%
X115460000Y-71500000D03*
X115460000Y-68960000D03*
X118000000Y-68960000D03*
X120540000Y-68960000D03*
X120540000Y-71500000D03*
X120540000Y-74040000D03*
X118000000Y-74040000D03*
X115460000Y-74040000D03*
X118000000Y-71500000D03*
%TD*%
D17*
%TO.P,C3,2*%
%TO.N,GND*%
X182875000Y-81900000D03*
%TO.P,C3,1*%
%TO.N,+5P*%
X182875000Y-86900000D03*
%TD*%
D18*
%TO.P,X11,7*%
%TO.N,Net-(U15-Pad9)*%
X168270000Y-81820000D03*
%TO.P,X11,6*%
%TO.N,Net-(U15-Pad10)*%
X168270000Y-84360000D03*
%TO.P,X11,5*%
%TO.N,Net-(U15-Pad11)*%
X168270000Y-86900000D03*
%TO.P,X11,4*%
%TO.N,Net-(U15-Pad12)*%
X168270000Y-89440000D03*
%TO.P,X11,3*%
%TO.N,Net-(U15-Pad13)*%
X168270000Y-91980000D03*
%TO.P,X11,2*%
%TO.N,Net-(U15-Pad14)*%
X168270000Y-94520000D03*
D19*
%TO.P,X11,1*%
%TO.N,Net-(U15-Pad15)*%
X168270000Y-97060000D03*
%TD*%
D18*
%TO.P,X10,29*%
%TO.N,Net-(X10-Pad29)*%
X117470000Y-135160000D03*
%TO.P,X10,28*%
%TO.N,+5P*%
X120010000Y-135160000D03*
%TO.P,X10,27*%
%TO.N,Net-(X10-Pad27)*%
X122550000Y-135160000D03*
%TO.P,X10,26*%
%TO.N,Net-(X10-Pad26)*%
X125090000Y-135160000D03*
%TO.P,X10,25*%
%TO.N,GND*%
X127630000Y-135160000D03*
%TO.P,X10,24*%
%TO.N,/A7*%
X130170000Y-135160000D03*
%TO.P,X10,23*%
%TO.N,/A6*%
X132710000Y-135160000D03*
%TO.P,X10,22*%
%TO.N,/A5*%
X135250000Y-135160000D03*
%TO.P,X10,21*%
%TO.N,/A4*%
X137790000Y-135160000D03*
%TO.P,X10,20*%
%TO.N,/A3*%
X140330000Y-135160000D03*
%TO.P,X10,19*%
%TO.N,/A2*%
X142870000Y-135160000D03*
%TO.P,X10,18*%
%TO.N,/A1*%
X145410000Y-135160000D03*
%TO.P,X10,17*%
%TO.N,/A0*%
X147950000Y-135160000D03*
%TO.P,X10,16*%
%TO.N,/D0*%
X150490000Y-135160000D03*
%TO.P,X10,15*%
%TO.N,/D1*%
X153030000Y-135160000D03*
%TO.P,X10,14*%
%TO.N,/D2*%
X155570000Y-135160000D03*
%TO.P,X10,13*%
%TO.N,/D3*%
X158110000Y-135160000D03*
%TO.P,X10,12*%
%TO.N,/D4*%
X160650000Y-135160000D03*
%TO.P,X10,11*%
%TO.N,/D5*%
X163190000Y-135160000D03*
%TO.P,X10,10*%
%TO.N,/D6*%
X165730000Y-135160000D03*
%TO.P,X10,9*%
%TO.N,/D7*%
X168270000Y-135160000D03*
%TO.P,X10,8*%
%TO.N,/A12*%
X170810000Y-135160000D03*
%TO.P,X10,7*%
%TO.N,/A11*%
X173350000Y-135160000D03*
%TO.P,X10,6*%
%TO.N,/A10*%
X175890000Y-135160000D03*
%TO.P,X10,5*%
%TO.N,/A9*%
X178430000Y-135160000D03*
%TO.P,X10,4*%
%TO.N,/A8*%
X180970000Y-135160000D03*
%TO.P,X10,3*%
%TO.N,R~W*%
X183510000Y-135160000D03*
%TO.P,X10,2*%
%TO.N,~CSB*%
X186050000Y-135160000D03*
D19*
%TO.P,X10,1*%
%TO.N,/~CSA*%
X188590000Y-135160000D03*
%TD*%
D20*
%TO.P,U15,16*%
%TO.N,+5P*%
X172080000Y-99600000D03*
%TO.P,U15,8*%
%TO.N,GND*%
X179700000Y-81820000D03*
%TO.P,U15,15*%
%TO.N,Net-(U15-Pad15)*%
X172080000Y-97060000D03*
%TO.P,U15,7*%
%TO.N,Net-(U15-Pad7)*%
X179700000Y-84360000D03*
%TO.P,U15,14*%
%TO.N,Net-(U15-Pad14)*%
X172080000Y-94520000D03*
%TO.P,U15,6*%
%TO.N,+5P*%
X179700000Y-86900000D03*
%TO.P,U15,13*%
%TO.N,Net-(U15-Pad13)*%
X172080000Y-91980000D03*
%TO.P,U15,5*%
%TO.N,/~CSA*%
X179700000Y-89440000D03*
%TO.P,U15,12*%
%TO.N,Net-(U15-Pad12)*%
X172080000Y-89440000D03*
%TO.P,U15,4*%
%TO.N,/~CSA*%
X179700000Y-91980000D03*
%TO.P,U15,11*%
%TO.N,Net-(U15-Pad11)*%
X172080000Y-86900000D03*
%TO.P,U15,3*%
%TO.N,/A12*%
X179700000Y-94520000D03*
%TO.P,U15,10*%
%TO.N,Net-(U15-Pad10)*%
X172080000Y-84360000D03*
%TO.P,U15,2*%
%TO.N,/A11*%
X179700000Y-97060000D03*
%TO.P,U15,9*%
%TO.N,Net-(U15-Pad9)*%
X172080000Y-81820000D03*
D21*
%TO.P,U15,1*%
%TO.N,/A10*%
X179700000Y-99600000D03*
%TD*%
D20*
%TO.P,U4,18*%
%TO.N,+5P*%
X126360000Y-99600000D03*
%TO.P,U4,9*%
%TO.N,GND*%
X133980000Y-79280000D03*
%TO.P,U4,17*%
%TO.N,/A7*%
X126360000Y-97060000D03*
%TO.P,U4,8*%
%TO.N,Net-(U15-Pad7)*%
X133980000Y-81820000D03*
%TO.P,U4,16*%
%TO.N,/A8*%
X126360000Y-94520000D03*
%TO.P,U4,7*%
%TO.N,/A6*%
X133980000Y-84360000D03*
%TO.P,U4,15*%
%TO.N,/A9*%
X126360000Y-91980000D03*
%TO.P,U4,6*%
%TO.N,/A5*%
X133980000Y-86900000D03*
%TO.P,U4,14*%
%TO.N,/D2*%
X126360000Y-89440000D03*
%TO.P,U4,5*%
%TO.N,/A4*%
X133980000Y-89440000D03*
%TO.P,U4,13*%
%TO.N,/D3*%
X126360000Y-86900000D03*
%TO.P,U4,4*%
%TO.N,/A0*%
X133980000Y-91980000D03*
%TO.P,U4,12*%
%TO.N,/D0*%
X126360000Y-84360000D03*
%TO.P,U4,3*%
%TO.N,/A1*%
X133980000Y-94520000D03*
%TO.P,U4,11*%
%TO.N,/D1*%
X126360000Y-81820000D03*
%TO.P,U4,2*%
%TO.N,/A2*%
X133980000Y-97060000D03*
%TO.P,U4,10*%
%TO.N,R~W*%
X126360000Y-79280000D03*
D21*
%TO.P,U4,1*%
%TO.N,/A3*%
X133980000Y-99600000D03*
%TD*%
D20*
%TO.P,U3,18*%
%TO.N,+5P*%
X156840000Y-79280000D03*
%TO.P,U3,9*%
%TO.N,GND*%
X149220000Y-99600000D03*
%TO.P,U3,17*%
%TO.N,/A7*%
X156840000Y-81820000D03*
%TO.P,U3,8*%
%TO.N,Net-(U15-Pad7)*%
X149220000Y-97060000D03*
%TO.P,U3,16*%
%TO.N,/A8*%
X156840000Y-84360000D03*
%TO.P,U3,7*%
%TO.N,/A3*%
X149220000Y-94520000D03*
%TO.P,U3,15*%
%TO.N,/A9*%
X156840000Y-86900000D03*
%TO.P,U3,6*%
%TO.N,/A2*%
X149220000Y-91980000D03*
%TO.P,U3,14*%
%TO.N,/D7*%
X156840000Y-89440000D03*
%TO.P,U3,5*%
%TO.N,/A1*%
X149220000Y-89440000D03*
%TO.P,U3,13*%
%TO.N,/D6*%
X156840000Y-91980000D03*
%TO.P,U3,4*%
%TO.N,/A0*%
X149220000Y-86900000D03*
%TO.P,U3,12*%
%TO.N,/D5*%
X156840000Y-94520000D03*
%TO.P,U3,3*%
%TO.N,/A4*%
X149220000Y-84360000D03*
%TO.P,U3,11*%
%TO.N,/D4*%
X156840000Y-97060000D03*
%TO.P,U3,2*%
%TO.N,/A5*%
X149220000Y-81820000D03*
%TO.P,U3,10*%
%TO.N,R~W*%
X156840000Y-99600000D03*
D21*
%TO.P,U3,1*%
%TO.N,/A6*%
X149220000Y-79280000D03*
%TD*%
D20*
%TO.P,U2,24*%
%TO.N,+5P*%
X136520000Y-109760000D03*
%TO.P,U2,12*%
%TO.N,GND*%
X164460000Y-125000000D03*
%TO.P,U2,23*%
%TO.N,/A8*%
X139060000Y-109760000D03*
%TO.P,U2,11*%
%TO.N,/D2*%
X161920000Y-125000000D03*
%TO.P,U2,22*%
%TO.N,/A9*%
X141600000Y-109760000D03*
%TO.P,U2,10*%
%TO.N,/D1*%
X159380000Y-125000000D03*
%TO.P,U2,21*%
%TO.N,+5P*%
X144140000Y-109760000D03*
%TO.P,U2,9*%
%TO.N,/D0*%
X156840000Y-125000000D03*
%TO.P,U2,20*%
%TO.N,~CSB*%
X146680000Y-109760000D03*
%TO.P,U2,8*%
%TO.N,/A0*%
X154300000Y-125000000D03*
%TO.P,U2,19*%
%TO.N,/A10*%
X149220000Y-109760000D03*
%TO.P,U2,7*%
%TO.N,/A1*%
X151760000Y-125000000D03*
%TO.P,U2,18*%
%TO.N,~CSB*%
X151760000Y-109760000D03*
%TO.P,U2,6*%
%TO.N,/A2*%
X149220000Y-125000000D03*
%TO.P,U2,17*%
%TO.N,/D7*%
X154300000Y-109760000D03*
%TO.P,U2,5*%
%TO.N,/A3*%
X146680000Y-125000000D03*
%TO.P,U2,16*%
%TO.N,/D6*%
X156840000Y-109760000D03*
%TO.P,U2,4*%
%TO.N,/A4*%
X144140000Y-125000000D03*
%TO.P,U2,15*%
%TO.N,/D5*%
X159380000Y-109760000D03*
%TO.P,U2,3*%
%TO.N,/A5*%
X141600000Y-125000000D03*
%TO.P,U2,14*%
%TO.N,/D4*%
X161920000Y-109760000D03*
%TO.P,U2,2*%
%TO.N,/A6*%
X139060000Y-125000000D03*
%TO.P,U2,13*%
%TO.N,/D3*%
X164460000Y-109760000D03*
D21*
%TO.P,U2,1*%
%TO.N,/A7*%
X136520000Y-125000000D03*
%TD*%
D22*
%TO.N,GND*%
X159300000Y-130700000D03*
X129500000Y-130500000D03*
X166400000Y-71300000D03*
X144100000Y-79100000D03*
%TO.N,+5P*%
X119200000Y-125200000D03*
X139500000Y-105000000D03*
%TO.N,/A8*%
X139300000Y-74400000D03*
X146200000Y-73700000D03*
%TO.N,/D2*%
X128900000Y-120400000D03*
X154200000Y-117800000D03*
%TO.N,/A9*%
X141700000Y-76800000D03*
X147100000Y-76200000D03*
%TO.N,/D0*%
X149000000Y-117900000D03*
X124100000Y-120300000D03*
%TO.N,/D1*%
X121600000Y-117900000D03*
X151600000Y-117800000D03*
%TO.N,~CSB*%
X146400000Y-105200000D03*
X184000000Y-107900000D03*
%TO.N,/A10*%
X177500000Y-105000000D03*
X149200000Y-105200000D03*
%TO.N,/D3*%
X126700000Y-122900000D03*
X156900000Y-117800000D03*
%TO.N,R~W*%
X184100000Y-102800000D03*
X119000000Y-84600000D03*
%TO.N,/~CSA*%
X186300000Y-92800000D03*
%TD*%
D23*
%TO.N,GND*%
X159300000Y-130700000D02*
X164460000Y-125000000D01*
D24*
X166400000Y-71300000D02*
X134800000Y-69400000D01*
D23*
X134800000Y-69400000D02*
X133980000Y-79280000D01*
D25*
X144400000Y-96100000D02*
X149220000Y-99600000D01*
X144100000Y-79100000D02*
X144400000Y-96100000D01*
D23*
X182875000Y-81900000D02*
X179700000Y-81820000D01*
D24*
X118200000Y-118400000D02*
X124474874Y-126970126D01*
X115500000Y-83100000D02*
X118200000Y-118400000D01*
X134800000Y-69400000D02*
X115500000Y-83100000D01*
D23*
%TO.N,+5P*%
X179700000Y-86900000D02*
X176600000Y-89700000D01*
X176600000Y-89700000D02*
X174100000Y-97200000D01*
X174100000Y-97200000D02*
X172080000Y-99600000D01*
X144140000Y-109760000D02*
X142000000Y-112400000D01*
X142000000Y-112400000D02*
X139300000Y-112500000D01*
X139300000Y-112500000D02*
X136520000Y-109760000D01*
X122000000Y-130300000D02*
X119200000Y-125200000D01*
D25*
X136520000Y-109760000D02*
X139500000Y-105000000D01*
D23*
X182875000Y-86900000D02*
X179700000Y-86900000D01*
X158700000Y-80800000D02*
X156840000Y-79280000D01*
X167000000Y-98800000D02*
X165730000Y-97100000D01*
X165730000Y-97100000D02*
X158700000Y-80800000D01*
X172080000Y-99600000D02*
X167000000Y-98800000D01*
X120010000Y-135160000D02*
X119200000Y-125200000D01*
%TO.N,/A8*%
X140500000Y-89000000D02*
X142000000Y-104700000D01*
X142000000Y-104700000D02*
X139060000Y-109760000D01*
X139300000Y-74400000D02*
X140500000Y-89000000D01*
X180300000Y-107900000D02*
X180970000Y-135160000D01*
X185500000Y-88400000D02*
X182100000Y-103100000D01*
X182100000Y-103100000D02*
X180300000Y-107900000D01*
X185500000Y-79400000D02*
X185500000Y-88400000D01*
X158400000Y-74000000D02*
X185500000Y-79400000D01*
X146200000Y-73700000D02*
X158400000Y-74000000D01*
%TO.N,/D2*%
X161920000Y-125000000D02*
X157900000Y-129400000D01*
X157900000Y-129400000D02*
X155570000Y-135160000D01*
X161920000Y-125000000D02*
X154200000Y-117800000D01*
X124400000Y-91300000D02*
X126360000Y-89440000D01*
X126200000Y-113600000D02*
X123500000Y-99000000D01*
X123500000Y-99000000D02*
X124400000Y-91300000D01*
X128900000Y-120400000D02*
X126200000Y-113600000D01*
%TO.N,/A9*%
X141700000Y-76800000D02*
X143400000Y-104800000D01*
X143400000Y-104800000D02*
X141600000Y-109760000D01*
X179100000Y-106300000D02*
X178430000Y-135160000D01*
X181700000Y-99800000D02*
X179100000Y-106300000D01*
X184500000Y-80500000D02*
X184500000Y-87400000D01*
X157900000Y-75300000D02*
X184500000Y-80500000D01*
X184500000Y-87400000D02*
X181700000Y-99800000D01*
X148800000Y-75400000D02*
X157900000Y-75300000D01*
X147100000Y-76200000D02*
X148800000Y-75400000D01*
%TO.N,/D1*%
X153030000Y-135160000D02*
X159380000Y-125000000D01*
%TO.N,/D0*%
X150490000Y-135160000D02*
X156840000Y-125000000D01*
X156840000Y-125000000D02*
X149000000Y-117900000D01*
%TO.N,/A0*%
X147950000Y-135160000D02*
X154300000Y-125000000D01*
%TO.N,/A1*%
X145410000Y-135160000D02*
X151760000Y-125000000D01*
%TO.N,/A2*%
X142870000Y-135160000D02*
X149220000Y-125000000D01*
%TO.N,/A3*%
X140330000Y-135160000D02*
X146680000Y-125000000D01*
%TO.N,/A4*%
X137790000Y-135160000D02*
X144140000Y-125000000D01*
%TO.N,/A5*%
X135250000Y-135160000D02*
X141600000Y-125000000D01*
%TO.N,/A6*%
X132710000Y-135160000D02*
X139060000Y-125000000D01*
%TO.N,/D1*%
X151600000Y-117800000D02*
X159380000Y-125000000D01*
X120200000Y-98800000D02*
X121600000Y-117900000D01*
X121000000Y-88000000D02*
X120200000Y-98800000D01*
X126360000Y-81820000D02*
X121000000Y-88000000D01*
%TO.N,/D0*%
X122100000Y-89200000D02*
X126360000Y-84360000D01*
X121300000Y-99000000D02*
X122100000Y-89200000D01*
X124100000Y-120300000D02*
X121300000Y-99000000D01*
%TO.N,~CSB*%
X146680000Y-109760000D02*
X146400000Y-105200000D01*
X184000000Y-107900000D02*
X186050000Y-135160000D01*
X149200000Y-112500000D02*
X151760000Y-109760000D01*
X146680000Y-109760000D02*
X149200000Y-112500000D01*
%TO.N,/A0*%
X139700000Y-97500000D02*
X133980000Y-91980000D01*
X134900000Y-109200000D02*
X139500000Y-101600000D01*
X134900000Y-110500000D02*
X134900000Y-109200000D01*
X139500000Y-101600000D02*
X139700000Y-97500000D01*
X152100000Y-123300000D02*
X134900000Y-110500000D01*
X154300000Y-125000000D02*
X152100000Y-123300000D01*
%TO.N,/A10*%
X175890000Y-135160000D02*
X177500000Y-105000000D01*
X177500000Y-105000000D02*
X179700000Y-99600000D01*
X149200000Y-105200000D02*
X149220000Y-109760000D01*
%TO.N,/A1*%
X133900000Y-111000000D02*
X151760000Y-125000000D01*
X133800000Y-107600000D02*
X133900000Y-111000000D01*
X138200000Y-101200000D02*
X133800000Y-107600000D01*
X138300000Y-98800000D02*
X138200000Y-101200000D01*
X133980000Y-94520000D02*
X138300000Y-98800000D01*
%TO.N,/A2*%
X135800000Y-98400000D02*
X133980000Y-97060000D01*
X136900000Y-100000000D02*
X135800000Y-98400000D01*
X132700000Y-106200000D02*
X136900000Y-100000000D01*
X132900000Y-111500000D02*
X132700000Y-106200000D01*
X149220000Y-125000000D02*
X132900000Y-111500000D01*
%TO.N,/D7*%
X156840000Y-89440000D02*
X151600000Y-94500000D01*
X151600000Y-94500000D02*
X151700000Y-103300000D01*
X151700000Y-103300000D02*
X154300000Y-109760000D01*
X159300000Y-91700000D02*
X156840000Y-89440000D01*
X169500000Y-108700000D02*
X159300000Y-91700000D01*
X170500000Y-126500000D02*
X169500000Y-108700000D01*
X168270000Y-135160000D02*
X170500000Y-126500000D01*
%TO.N,/A3*%
X131900000Y-112000000D02*
X146680000Y-125000000D01*
X131600000Y-105600000D02*
X131900000Y-112000000D01*
X133980000Y-99600000D02*
X131600000Y-105600000D01*
%TO.N,/D6*%
X156840000Y-109760000D02*
X152800000Y-100800000D01*
X152800000Y-100800000D02*
X153000000Y-96000000D01*
X153000000Y-96000000D02*
X156840000Y-91980000D01*
X159100000Y-94000000D02*
X156840000Y-91980000D01*
X169400000Y-126500000D02*
X168500000Y-109100000D01*
X168500000Y-109100000D02*
X159100000Y-94000000D01*
X165730000Y-135160000D02*
X169400000Y-126500000D01*
%TO.N,/A4*%
X131700000Y-91900000D02*
X133980000Y-89440000D01*
X130500000Y-104800000D02*
X131700000Y-101000000D01*
X130900000Y-112500000D02*
X130500000Y-104800000D01*
X131700000Y-101000000D02*
X131700000Y-91900000D01*
X144140000Y-125000000D02*
X130900000Y-112500000D01*
%TO.N,/D5*%
X156840000Y-94520000D02*
X154300000Y-96900000D01*
X154300000Y-96900000D02*
X154200000Y-99700000D01*
X154200000Y-99700000D02*
X159380000Y-109760000D01*
X159400000Y-97000000D02*
X156840000Y-94520000D01*
X167100000Y-108800000D02*
X159400000Y-97000000D01*
X168300000Y-126500000D02*
X167100000Y-108800000D01*
X163190000Y-135160000D02*
X168300000Y-126500000D01*
%TO.N,/A5*%
X129800000Y-112900000D02*
X141600000Y-125000000D01*
X129400000Y-103800000D02*
X129800000Y-112900000D01*
X130600000Y-101000000D02*
X129400000Y-103800000D01*
X130700000Y-90400000D02*
X130600000Y-101000000D01*
X133980000Y-86900000D02*
X130700000Y-90400000D01*
%TO.N,/D4*%
X159100000Y-99500000D02*
X156840000Y-97060000D01*
X161920000Y-109760000D02*
X164567816Y-107432184D01*
X164567816Y-107432184D02*
X159100000Y-99500000D01*
X166100000Y-109100000D02*
X164567816Y-107432184D01*
X167200000Y-126300000D02*
X166100000Y-109100000D01*
X160650000Y-135160000D02*
X167200000Y-126300000D01*
%TO.N,/A6*%
X129200000Y-89600000D02*
X133980000Y-84360000D01*
X129200000Y-100500000D02*
X129200000Y-89600000D01*
X128200000Y-103000000D02*
X129200000Y-100500000D01*
X128600000Y-113100000D02*
X128200000Y-103000000D01*
X139060000Y-125000000D02*
X128600000Y-113100000D01*
%TO.N,/D3*%
X122400000Y-99000000D02*
X126700000Y-122900000D01*
X123400000Y-90500000D02*
X122400000Y-99000000D01*
X126360000Y-86900000D02*
X123400000Y-90500000D01*
X165200000Y-117600000D02*
X156900000Y-117800000D01*
X166100000Y-125500000D02*
X165200000Y-117600000D01*
X158110000Y-135160000D02*
X166100000Y-125500000D01*
X165200000Y-117600000D02*
X164460000Y-109760000D01*
%TO.N,/A7*%
X130170000Y-135160000D02*
X136520000Y-125000000D01*
X124600000Y-99000000D02*
X126360000Y-97060000D01*
X127400000Y-113200000D02*
X124600000Y-99000000D01*
X136520000Y-125000000D02*
X127400000Y-113200000D01*
%TO.N,Net-(U15-Pad7)*%
X149200000Y-76700000D02*
X146900000Y-78800000D01*
X157600000Y-76600000D02*
X149200000Y-76700000D01*
X172000000Y-79400000D02*
X157600000Y-76600000D01*
X179700000Y-84360000D02*
X172000000Y-79400000D01*
X136700000Y-79300000D02*
X133980000Y-81820000D01*
X136900000Y-73900000D02*
X136700000Y-79300000D01*
X138700000Y-72500000D02*
X136900000Y-73900000D01*
X140300000Y-72500000D02*
X138700000Y-72500000D01*
X146900000Y-78800000D02*
X140300000Y-72500000D01*
X146700000Y-94600000D02*
X146900000Y-78800000D01*
X149220000Y-97060000D02*
X146700000Y-94600000D01*
%TO.N,R~W*%
X181700000Y-107100000D02*
X183510000Y-135160000D01*
X184100000Y-102800000D02*
X181700000Y-107100000D01*
X126360000Y-79280000D02*
X119000000Y-84600000D01*
%TO.N,Net-(U15-Pad15)*%
X168270000Y-97060000D02*
X172080000Y-97060000D01*
%TO.N,Net-(U15-Pad14)*%
X172080000Y-94520000D02*
X168270000Y-94520000D01*
%TO.N,Net-(U15-Pad13)*%
X168270000Y-91980000D02*
X172080000Y-91980000D01*
%TO.N,/~CSA*%
X179700000Y-91980000D02*
X179700000Y-89440000D01*
X188590000Y-135160000D02*
X186300000Y-92800000D01*
%TO.N,Net-(U15-Pad12)*%
X172080000Y-89440000D02*
X168270000Y-89440000D01*
%TO.N,Net-(U15-Pad11)*%
X168270000Y-86900000D02*
X172080000Y-86900000D01*
%TO.N,/A12*%
X172800000Y-104000000D02*
X176200000Y-97600000D01*
X171500000Y-126900000D02*
X172800000Y-104000000D01*
X176200000Y-97600000D02*
X179700000Y-94520000D01*
X170810000Y-135160000D02*
X171500000Y-126900000D01*
%TO.N,Net-(U15-Pad10)*%
X172080000Y-84360000D02*
X168270000Y-84360000D01*
%TO.N,/A11*%
X179700000Y-97060000D02*
X177200000Y-99000000D01*
X177200000Y-99000000D02*
X174400000Y-104500000D01*
X174400000Y-104500000D02*
X173350000Y-135160000D01*
%TO.N,Net-(U15-Pad9)*%
X168270000Y-81820000D02*
X172080000Y-81820000D01*
%TD*%
D26*
%TO.N,GND*%
X146571672Y-71350259D02*
X140103478Y-71173048D01*
X140085331Y-71173850D01*
X135785331Y-71673850D01*
X135761003Y-71679136D01*
X135738172Y-71689066D01*
X135717718Y-71703260D01*
X135700426Y-71721171D01*
X135686961Y-71742111D01*
X135675229Y-71776309D01*
X134502940Y-77950364D01*
X134329040Y-77888091D01*
X134107000Y-78009376D01*
X134107000Y-79153000D01*
X134127000Y-79153000D01*
X134127000Y-79407000D01*
X134107000Y-79407000D01*
X134107000Y-79427000D01*
X133965751Y-79427000D01*
X133833000Y-79373024D01*
X133833000Y-79153000D01*
X133853000Y-79153000D01*
X133853000Y-78009376D01*
X133630960Y-77888091D01*
X133366119Y-77982930D01*
X133124869Y-78127615D01*
X132916481Y-78316586D01*
X132748963Y-78542580D01*
X132628754Y-78796913D01*
X132605405Y-78873893D01*
X125451155Y-75965022D01*
X132551949Y-70420566D01*
X140388277Y-69230238D01*
X146571672Y-71350259D01*
%TA.AperFunction,Conductor*%
D27*
G36*
X146571672Y-71350259D02*
G01*
X140103478Y-71173048D01*
X140085331Y-71173850D01*
X135785331Y-71673850D01*
X135761003Y-71679136D01*
X135738172Y-71689066D01*
X135717718Y-71703260D01*
X135700426Y-71721171D01*
X135686961Y-71742111D01*
X135675229Y-71776309D01*
X134502940Y-77950364D01*
X134329040Y-77888091D01*
X134107000Y-78009376D01*
X134107000Y-79153000D01*
X134127000Y-79153000D01*
X134127000Y-79407000D01*
X134107000Y-79407000D01*
X134107000Y-79427000D01*
X133965751Y-79427000D01*
X133833000Y-79373024D01*
X133833000Y-79153000D01*
X133853000Y-79153000D01*
X133853000Y-78009376D01*
X133630960Y-77888091D01*
X133366119Y-77982930D01*
X133124869Y-78127615D01*
X132916481Y-78316586D01*
X132748963Y-78542580D01*
X132628754Y-78796913D01*
X132605405Y-78873893D01*
X125451155Y-75965022D01*
X132551949Y-70420566D01*
X140388277Y-69230238D01*
X146571672Y-71350259D01*
G37*
%TD.AperFunction*%
%TD*%
D26*
%TO.N,GND*%
X129953923Y-130823975D02*
X128659295Y-134094614D01*
X128630269Y-134062412D01*
X128396920Y-133888359D01*
X128134099Y-133763175D01*
X127986890Y-133718524D01*
X127757000Y-133839845D01*
X127757000Y-135033000D01*
X127777000Y-135033000D01*
X127777000Y-135287000D01*
X127757000Y-135287000D01*
X127757000Y-135307000D01*
X127503000Y-135307000D01*
X127503000Y-135287000D01*
X127483000Y-135287000D01*
X127483000Y-135033000D01*
X127503000Y-135033000D01*
X127503000Y-133839845D01*
X127273110Y-133718524D01*
X127125901Y-133763175D01*
X126863080Y-133888359D01*
X126629731Y-134062412D01*
X126434822Y-134278645D01*
X126400763Y-134335823D01*
X123644244Y-128384249D01*
X123904446Y-128510829D01*
X124093199Y-128568087D01*
X124347874Y-128448843D01*
X124347874Y-127276734D01*
X124460733Y-127163875D01*
X124393984Y-127097126D01*
X124601874Y-127097126D01*
X124601874Y-128448843D01*
X124856549Y-128568087D01*
X125160962Y-128462922D01*
X125439009Y-128300389D01*
X125680005Y-128086735D01*
X125874688Y-127830170D01*
X126015577Y-127540554D01*
X126072835Y-127351801D01*
X125953591Y-127097126D01*
X124601874Y-127097126D01*
X124393984Y-127097126D01*
X124281125Y-126984267D01*
X124168266Y-127097126D01*
X123048103Y-127097126D01*
X122812507Y-126588451D01*
X122876913Y-126588451D01*
X122996157Y-126843126D01*
X124347874Y-126843126D01*
X124347874Y-125491409D01*
X124601874Y-125491409D01*
X124601874Y-126843126D01*
X125953591Y-126843126D01*
X126072835Y-126588451D01*
X125967670Y-126284038D01*
X125805137Y-126005991D01*
X125591483Y-125764995D01*
X125334918Y-125570312D01*
X125045302Y-125429423D01*
X124856549Y-125372165D01*
X124601874Y-125491409D01*
X124347874Y-125491409D01*
X124093199Y-125372165D01*
X123788786Y-125477330D01*
X123510739Y-125639863D01*
X123269743Y-125853517D01*
X123075060Y-126110082D01*
X122934171Y-126399698D01*
X122876913Y-126588451D01*
X122812507Y-126588451D01*
X118510400Y-117299812D01*
X129953923Y-130823975D01*
%TA.AperFunction,Conductor*%
D27*
G36*
X129953923Y-130823975D02*
G01*
X128659295Y-134094614D01*
X128630269Y-134062412D01*
X128396920Y-133888359D01*
X128134099Y-133763175D01*
X127986890Y-133718524D01*
X127757000Y-133839845D01*
X127757000Y-135033000D01*
X127777000Y-135033000D01*
X127777000Y-135287000D01*
X127757000Y-135287000D01*
X127757000Y-135307000D01*
X127503000Y-135307000D01*
X127503000Y-135287000D01*
X127483000Y-135287000D01*
X127483000Y-135033000D01*
X127503000Y-135033000D01*
X127503000Y-133839845D01*
X127273110Y-133718524D01*
X127125901Y-133763175D01*
X126863080Y-133888359D01*
X126629731Y-134062412D01*
X126434822Y-134278645D01*
X126400763Y-134335823D01*
X123644244Y-128384249D01*
X123904446Y-128510829D01*
X124093199Y-128568087D01*
X124347874Y-128448843D01*
X124347874Y-127276734D01*
X124460733Y-127163875D01*
X124393984Y-127097126D01*
X124601874Y-127097126D01*
X124601874Y-128448843D01*
X124856549Y-128568087D01*
X125160962Y-128462922D01*
X125439009Y-128300389D01*
X125680005Y-128086735D01*
X125874688Y-127830170D01*
X126015577Y-127540554D01*
X126072835Y-127351801D01*
X125953591Y-127097126D01*
X124601874Y-127097126D01*
X124393984Y-127097126D01*
X124281125Y-126984267D01*
X124168266Y-127097126D01*
X123048103Y-127097126D01*
X122812507Y-126588451D01*
X122876913Y-126588451D01*
X122996157Y-126843126D01*
X124347874Y-126843126D01*
X124347874Y-125491409D01*
X124601874Y-125491409D01*
X124601874Y-126843126D01*
X125953591Y-126843126D01*
X126072835Y-126588451D01*
X125967670Y-126284038D01*
X125805137Y-126005991D01*
X125591483Y-125764995D01*
X125334918Y-125570312D01*
X125045302Y-125429423D01*
X124856549Y-125372165D01*
X124601874Y-125491409D01*
X124347874Y-125491409D01*
X124093199Y-125372165D01*
X123788786Y-125477330D01*
X123510739Y-125639863D01*
X123269743Y-125853517D01*
X123075060Y-126110082D01*
X122934171Y-126399698D01*
X122876913Y-126588451D01*
X122812507Y-126588451D01*
X118510400Y-117299812D01*
X129953923Y-130823975D01*
G37*
%TD.AperFunction*%
%TD*%
D26*
%TO.N,+5P*%
X119926223Y-125618287D02*
X121360437Y-127769607D01*
X121045936Y-128086825D01*
X121045936Y-128311331D01*
X122000000Y-129265395D01*
X122014143Y-129251253D01*
X122193748Y-129430858D01*
X122179605Y-129445000D01*
X122193748Y-129459143D01*
X122014143Y-129638748D01*
X122000000Y-129624605D01*
X121045936Y-130578669D01*
X121045936Y-130803175D01*
X121548815Y-131310399D01*
X121645506Y-131389752D01*
X121755820Y-131448716D01*
X121875519Y-131485025D01*
X122000000Y-131497286D01*
X122063024Y-131491078D01*
X120784763Y-133894209D01*
X120776920Y-133888359D01*
X120514099Y-133763175D01*
X120366890Y-133718524D01*
X120137000Y-133839845D01*
X120137000Y-134643085D01*
X119883000Y-134693884D01*
X119883000Y-133839845D01*
X119653110Y-133718524D01*
X119509165Y-133762185D01*
X119059459Y-129445000D01*
X119947714Y-129445000D01*
X119959975Y-129569481D01*
X119996284Y-129689180D01*
X120055248Y-129799494D01*
X120134601Y-129896185D01*
X120641825Y-130399064D01*
X120866331Y-130399064D01*
X121820395Y-129445000D01*
X120866331Y-128490936D01*
X120641825Y-128490936D01*
X120134601Y-128993815D01*
X120055248Y-129090506D01*
X119996284Y-129200820D01*
X119959975Y-129320519D01*
X119947714Y-129445000D01*
X119059459Y-129445000D01*
X118643020Y-125447193D01*
X119926223Y-125618287D01*
%TA.AperFunction,Conductor*%
D27*
G36*
X119926223Y-125618287D02*
G01*
X121360437Y-127769607D01*
X121045936Y-128086825D01*
X121045936Y-128311331D01*
X122000000Y-129265395D01*
X122014143Y-129251253D01*
X122193748Y-129430858D01*
X122179605Y-129445000D01*
X122193748Y-129459143D01*
X122014143Y-129638748D01*
X122000000Y-129624605D01*
X121045936Y-130578669D01*
X121045936Y-130803175D01*
X121548815Y-131310399D01*
X121645506Y-131389752D01*
X121755820Y-131448716D01*
X121875519Y-131485025D01*
X122000000Y-131497286D01*
X122063024Y-131491078D01*
X120784763Y-133894209D01*
X120776920Y-133888359D01*
X120514099Y-133763175D01*
X120366890Y-133718524D01*
X120137000Y-133839845D01*
X120137000Y-134643085D01*
X119883000Y-134693884D01*
X119883000Y-133839845D01*
X119653110Y-133718524D01*
X119509165Y-133762185D01*
X119059459Y-129445000D01*
X119947714Y-129445000D01*
X119959975Y-129569481D01*
X119996284Y-129689180D01*
X120055248Y-129799494D01*
X120134601Y-129896185D01*
X120641825Y-130399064D01*
X120866331Y-130399064D01*
X121820395Y-129445000D01*
X120866331Y-128490936D01*
X120641825Y-128490936D01*
X120134601Y-128993815D01*
X120055248Y-129090506D01*
X119996284Y-129200820D01*
X119959975Y-129320519D01*
X119947714Y-129445000D01*
X119059459Y-129445000D01*
X118643020Y-125447193D01*
X119926223Y-125618287D01*
G37*
%TD.AperFunction*%
%TD*%
M02*
