%TF.GenerationSoftware,KiCad,Pcbnew,5.1.10*%
%TF.CreationDate,2021-12-20T20:01:49+01:00*%
%TF.ProjectId,Videoerweiterung,56696465-6f65-4727-9765-69746572756e,1*%
%TF.SameCoordinates,Original*%
%TF.FileFunction,Legend,Top*%
%TF.FilePolarity,Positive*%
%FSLAX46Y46*%
G04 Gerber Fmt 4.6, Leading zero omitted, Abs format (unit mm)*
G04 Created by KiCad (PCBNEW 5.1.10) date 2021-12-20 20:01:49*
%MOMM*%
%LPD*%
G01*
G04 APERTURE LIST*
%ADD10C,0.150000*%
%ADD11C,0.300000*%
%ADD12C,0.120000*%
G04 APERTURE END LIST*
D10*
X47736190Y-169632380D02*
X47831428Y-169632380D01*
X47926666Y-169680000D01*
X47974285Y-169727619D01*
X48021904Y-169822857D01*
X48069523Y-170013333D01*
X48069523Y-170251428D01*
X48021904Y-170441904D01*
X47974285Y-170537142D01*
X47926666Y-170584761D01*
X47831428Y-170632380D01*
X47736190Y-170632380D01*
X47640952Y-170584761D01*
X47593333Y-170537142D01*
X47545714Y-170441904D01*
X47498095Y-170251428D01*
X47498095Y-170013333D01*
X47545714Y-169822857D01*
X47593333Y-169727619D01*
X47640952Y-169680000D01*
X47736190Y-169632380D01*
X48688571Y-169632380D02*
X48783809Y-169632380D01*
X48879047Y-169680000D01*
X48926666Y-169727619D01*
X48974285Y-169822857D01*
X49021904Y-170013333D01*
X49021904Y-170251428D01*
X48974285Y-170441904D01*
X48926666Y-170537142D01*
X48879047Y-170584761D01*
X48783809Y-170632380D01*
X48688571Y-170632380D01*
X48593333Y-170584761D01*
X48545714Y-170537142D01*
X48498095Y-170441904D01*
X48450476Y-170251428D01*
X48450476Y-170013333D01*
X48498095Y-169822857D01*
X48545714Y-169727619D01*
X48593333Y-169680000D01*
X48688571Y-169632380D01*
D11*
X126428571Y-204577142D02*
X127571428Y-204577142D01*
X121348571Y-204577142D02*
X122491428Y-204577142D01*
X121920000Y-205148571D02*
X121920000Y-204005714D01*
X124174285Y-197288571D02*
X123460000Y-197288571D01*
X123388571Y-198002857D01*
X123460000Y-197931428D01*
X123602857Y-197860000D01*
X123960000Y-197860000D01*
X124102857Y-197931428D01*
X124174285Y-198002857D01*
X124245714Y-198145714D01*
X124245714Y-198502857D01*
X124174285Y-198645714D01*
X124102857Y-198717142D01*
X123960000Y-198788571D01*
X123602857Y-198788571D01*
X123460000Y-198717142D01*
X123388571Y-198645714D01*
X124674285Y-197288571D02*
X125174285Y-198788571D01*
X125674285Y-197288571D01*
X124245714Y-203888571D02*
X123388571Y-203888571D01*
X123817142Y-203888571D02*
X123817142Y-202388571D01*
X123674285Y-202602857D01*
X123531428Y-202745714D01*
X123388571Y-202817142D01*
X124817142Y-203460000D02*
X125531428Y-203460000D01*
X124674285Y-203888571D02*
X125174285Y-202388571D01*
X125674285Y-203888571D01*
X142725714Y-204754285D02*
X142725714Y-206040000D01*
X142654285Y-206297142D01*
X142511428Y-206468571D01*
X142297142Y-206554285D01*
X142154285Y-206554285D01*
X143440000Y-204754285D02*
X143440000Y-206211428D01*
X143511428Y-206382857D01*
X143582857Y-206468571D01*
X143725714Y-206554285D01*
X144011428Y-206554285D01*
X144154285Y-206468571D01*
X144225714Y-206382857D01*
X144297142Y-206211428D01*
X144297142Y-204754285D01*
X145011428Y-205868571D02*
X146154285Y-205868571D01*
X145582857Y-206554285D02*
X145582857Y-205182857D01*
X146654285Y-204754285D02*
X147511428Y-204754285D01*
X147082857Y-206554285D02*
X147082857Y-204754285D01*
X148011428Y-205611428D02*
X148511428Y-205611428D01*
X148725714Y-206554285D02*
X148011428Y-206554285D01*
X148011428Y-204754285D01*
X148725714Y-204754285D01*
X150297142Y-204754285D02*
X150797142Y-206554285D01*
X151297142Y-204754285D01*
X151797142Y-206554285D02*
X151797142Y-205354285D01*
X151797142Y-204754285D02*
X151725714Y-204840000D01*
X151797142Y-204925714D01*
X151868571Y-204840000D01*
X151797142Y-204754285D01*
X151797142Y-204925714D01*
X153154285Y-206554285D02*
X153154285Y-204754285D01*
X153154285Y-206468571D02*
X153011428Y-206554285D01*
X152725714Y-206554285D01*
X152582857Y-206468571D01*
X152511428Y-206382857D01*
X152440000Y-206211428D01*
X152440000Y-205697142D01*
X152511428Y-205525714D01*
X152582857Y-205440000D01*
X152725714Y-205354285D01*
X153011428Y-205354285D01*
X153154285Y-205440000D01*
X154440000Y-206468571D02*
X154297142Y-206554285D01*
X154011428Y-206554285D01*
X153868571Y-206468571D01*
X153797142Y-206297142D01*
X153797142Y-205611428D01*
X153868571Y-205440000D01*
X154011428Y-205354285D01*
X154297142Y-205354285D01*
X154440000Y-205440000D01*
X154511428Y-205611428D01*
X154511428Y-205782857D01*
X153797142Y-205954285D01*
X155368571Y-206554285D02*
X155225714Y-206468571D01*
X155154285Y-206382857D01*
X155082857Y-206211428D01*
X155082857Y-205697142D01*
X155154285Y-205525714D01*
X155225714Y-205440000D01*
X155368571Y-205354285D01*
X155582857Y-205354285D01*
X155725714Y-205440000D01*
X155797142Y-205525714D01*
X155868571Y-205697142D01*
X155868571Y-206211428D01*
X155797142Y-206382857D01*
X155725714Y-206468571D01*
X155582857Y-206554285D01*
X155368571Y-206554285D01*
X156511428Y-206554285D02*
X156511428Y-205354285D01*
X156511428Y-205525714D02*
X156582857Y-205440000D01*
X156725714Y-205354285D01*
X156940000Y-205354285D01*
X157082857Y-205440000D01*
X157154285Y-205611428D01*
X157154285Y-206554285D01*
X157154285Y-205611428D02*
X157225714Y-205440000D01*
X157368571Y-205354285D01*
X157582857Y-205354285D01*
X157725714Y-205440000D01*
X157797142Y-205611428D01*
X157797142Y-206554285D01*
X158725714Y-206554285D02*
X158582857Y-206468571D01*
X158511428Y-206382857D01*
X158440000Y-206211428D01*
X158440000Y-205697142D01*
X158511428Y-205525714D01*
X158582857Y-205440000D01*
X158725714Y-205354285D01*
X158940000Y-205354285D01*
X159082857Y-205440000D01*
X159154285Y-205525714D01*
X159225714Y-205697142D01*
X159225714Y-206211428D01*
X159154285Y-206382857D01*
X159082857Y-206468571D01*
X158940000Y-206554285D01*
X158725714Y-206554285D01*
X160511428Y-206554285D02*
X160511428Y-204754285D01*
X160511428Y-206468571D02*
X160368571Y-206554285D01*
X160082857Y-206554285D01*
X159940000Y-206468571D01*
X159868571Y-206382857D01*
X159797142Y-206211428D01*
X159797142Y-205697142D01*
X159868571Y-205525714D01*
X159940000Y-205440000D01*
X160082857Y-205354285D01*
X160368571Y-205354285D01*
X160511428Y-205440000D01*
X161868571Y-205354285D02*
X161868571Y-206554285D01*
X161225714Y-205354285D02*
X161225714Y-206297142D01*
X161297142Y-206468571D01*
X161440000Y-206554285D01*
X161654285Y-206554285D01*
X161797142Y-206468571D01*
X161868571Y-206382857D01*
X162797142Y-206554285D02*
X162654285Y-206468571D01*
X162582857Y-206297142D01*
X162582857Y-204754285D01*
X164725714Y-204754285D02*
X164725714Y-205182857D01*
X164368571Y-205011428D02*
X164725714Y-205182857D01*
X165082857Y-205011428D01*
X164511428Y-205525714D02*
X164725714Y-205182857D01*
X164940000Y-205525714D01*
X167297142Y-205611428D02*
X167511428Y-205697142D01*
X167582857Y-205782857D01*
X167654285Y-205954285D01*
X167654285Y-206211428D01*
X167582857Y-206382857D01*
X167511428Y-206468571D01*
X167368571Y-206554285D01*
X166797142Y-206554285D01*
X166797142Y-204754285D01*
X167297142Y-204754285D01*
X167440000Y-204840000D01*
X167511428Y-204925714D01*
X167582857Y-205097142D01*
X167582857Y-205268571D01*
X167511428Y-205440000D01*
X167440000Y-205525714D01*
X167297142Y-205611428D01*
X166797142Y-205611428D01*
X109720000Y-54161428D02*
X109220000Y-52661428D01*
X108720000Y-54161428D01*
X121812857Y-55987142D02*
X121598571Y-55915714D01*
X121527142Y-55844285D01*
X121455714Y-55701428D01*
X121455714Y-55487142D01*
X121527142Y-55344285D01*
X121598571Y-55272857D01*
X121741428Y-55201428D01*
X122312857Y-55201428D01*
X122312857Y-56701428D01*
X121812857Y-56701428D01*
X121670000Y-56630000D01*
X121598571Y-56558571D01*
X121527142Y-56415714D01*
X121527142Y-56272857D01*
X121598571Y-56130000D01*
X121670000Y-56058571D01*
X121812857Y-55987142D01*
X122312857Y-55987142D01*
X137691714Y-56701428D02*
X137548857Y-56701428D01*
X137406000Y-56630000D01*
X137334571Y-56558571D01*
X137263142Y-56415714D01*
X137191714Y-56130000D01*
X137191714Y-55772857D01*
X137263142Y-55487142D01*
X137334571Y-55344285D01*
X137406000Y-55272857D01*
X137548857Y-55201428D01*
X137691714Y-55201428D01*
X137834571Y-55272857D01*
X137906000Y-55344285D01*
X137977428Y-55487142D01*
X138048857Y-55772857D01*
X138048857Y-56130000D01*
X137977428Y-56415714D01*
X137906000Y-56558571D01*
X137834571Y-56630000D01*
X137691714Y-56701428D01*
X136263142Y-56701428D02*
X136120285Y-56701428D01*
X135977428Y-56630000D01*
X135906000Y-56558571D01*
X135834571Y-56415714D01*
X135763142Y-56130000D01*
X135763142Y-55772857D01*
X135834571Y-55487142D01*
X135906000Y-55344285D01*
X135977428Y-55272857D01*
X136120285Y-55201428D01*
X136263142Y-55201428D01*
X136406000Y-55272857D01*
X136477428Y-55344285D01*
X136548857Y-55487142D01*
X136620285Y-55772857D01*
X136620285Y-56130000D01*
X136548857Y-56415714D01*
X136477428Y-56558571D01*
X136406000Y-56630000D01*
X136263142Y-56701428D01*
X140128571Y-55272857D02*
X139914285Y-55201428D01*
X139557142Y-55201428D01*
X139414285Y-55272857D01*
X139342857Y-55344285D01*
X139271428Y-55487142D01*
X139271428Y-55630000D01*
X139342857Y-55772857D01*
X139414285Y-55844285D01*
X139557142Y-55915714D01*
X139842857Y-55987142D01*
X139985714Y-56058571D01*
X140057142Y-56130000D01*
X140128571Y-56272857D01*
X140128571Y-56415714D01*
X140057142Y-56558571D01*
X139985714Y-56630000D01*
X139842857Y-56701428D01*
X139485714Y-56701428D01*
X139271428Y-56630000D01*
X149467142Y-56630000D02*
X149610000Y-56701428D01*
X149824285Y-56701428D01*
X150038571Y-56630000D01*
X150181428Y-56487142D01*
X150252857Y-56344285D01*
X150324285Y-56058571D01*
X150324285Y-55844285D01*
X150252857Y-55558571D01*
X150181428Y-55415714D01*
X150038571Y-55272857D01*
X149824285Y-55201428D01*
X149681428Y-55201428D01*
X149467142Y-55272857D01*
X149395714Y-55344285D01*
X149395714Y-55844285D01*
X149681428Y-55844285D01*
X162095714Y-55201428D02*
X162595714Y-55915714D01*
X162952857Y-55201428D02*
X162952857Y-56701428D01*
X162381428Y-56701428D01*
X162238571Y-56630000D01*
X162167142Y-56558571D01*
X162095714Y-56415714D01*
X162095714Y-56201428D01*
X162167142Y-56058571D01*
X162238571Y-55987142D01*
X162381428Y-55915714D01*
X162952857Y-55915714D01*
X164421428Y-63060000D02*
X165921428Y-63060000D01*
X164850000Y-63560000D01*
X165921428Y-64060000D01*
X164421428Y-64060000D01*
X164421428Y-64988571D02*
X164492857Y-64845714D01*
X164564285Y-64774285D01*
X164707142Y-64702857D01*
X165135714Y-64702857D01*
X165278571Y-64774285D01*
X165350000Y-64845714D01*
X165421428Y-64988571D01*
X165421428Y-65202857D01*
X165350000Y-65345714D01*
X165278571Y-65417142D01*
X165135714Y-65488571D01*
X164707142Y-65488571D01*
X164564285Y-65417142D01*
X164492857Y-65345714D01*
X164421428Y-65202857D01*
X164421428Y-64988571D01*
X164421428Y-66774285D02*
X165921428Y-66774285D01*
X164492857Y-66774285D02*
X164421428Y-66631428D01*
X164421428Y-66345714D01*
X164492857Y-66202857D01*
X164564285Y-66131428D01*
X164707142Y-66060000D01*
X165135714Y-66060000D01*
X165278571Y-66131428D01*
X165350000Y-66202857D01*
X165421428Y-66345714D01*
X165421428Y-66631428D01*
X165350000Y-66774285D01*
X165421428Y-68131428D02*
X164421428Y-68131428D01*
X165421428Y-67488571D02*
X164635714Y-67488571D01*
X164492857Y-67560000D01*
X164421428Y-67702857D01*
X164421428Y-67917142D01*
X164492857Y-68060000D01*
X164564285Y-68131428D01*
X164421428Y-69060000D02*
X164492857Y-68917142D01*
X164635714Y-68845714D01*
X165921428Y-68845714D01*
X164421428Y-71631428D02*
X165135714Y-71131428D01*
X164421428Y-70774285D02*
X165921428Y-70774285D01*
X165921428Y-71345714D01*
X165850000Y-71488571D01*
X165778571Y-71560000D01*
X165635714Y-71631428D01*
X165421428Y-71631428D01*
X165278571Y-71560000D01*
X165207142Y-71488571D01*
X165135714Y-71345714D01*
X165135714Y-70774285D01*
X136481428Y-60520000D02*
X137981428Y-60520000D01*
X136910000Y-61020000D01*
X137981428Y-61520000D01*
X136481428Y-61520000D01*
X136481428Y-62448571D02*
X136552857Y-62305714D01*
X136624285Y-62234285D01*
X136767142Y-62162857D01*
X137195714Y-62162857D01*
X137338571Y-62234285D01*
X137410000Y-62305714D01*
X137481428Y-62448571D01*
X137481428Y-62662857D01*
X137410000Y-62805714D01*
X137338571Y-62877142D01*
X137195714Y-62948571D01*
X136767142Y-62948571D01*
X136624285Y-62877142D01*
X136552857Y-62805714D01*
X136481428Y-62662857D01*
X136481428Y-62448571D01*
X136481428Y-64234285D02*
X137981428Y-64234285D01*
X136552857Y-64234285D02*
X136481428Y-64091428D01*
X136481428Y-63805714D01*
X136552857Y-63662857D01*
X136624285Y-63591428D01*
X136767142Y-63520000D01*
X137195714Y-63520000D01*
X137338571Y-63591428D01*
X137410000Y-63662857D01*
X137481428Y-63805714D01*
X137481428Y-64091428D01*
X137410000Y-64234285D01*
X137481428Y-65591428D02*
X136481428Y-65591428D01*
X137481428Y-64948571D02*
X136695714Y-64948571D01*
X136552857Y-65020000D01*
X136481428Y-65162857D01*
X136481428Y-65377142D01*
X136552857Y-65520000D01*
X136624285Y-65591428D01*
X136481428Y-66520000D02*
X136552857Y-66377142D01*
X136695714Y-66305714D01*
X137981428Y-66305714D01*
X137910000Y-69020000D02*
X137981428Y-68877142D01*
X137981428Y-68662857D01*
X137910000Y-68448571D01*
X137767142Y-68305714D01*
X137624285Y-68234285D01*
X137338571Y-68162857D01*
X137124285Y-68162857D01*
X136838571Y-68234285D01*
X136695714Y-68305714D01*
X136552857Y-68448571D01*
X136481428Y-68662857D01*
X136481428Y-68805714D01*
X136552857Y-69020000D01*
X136624285Y-69091428D01*
X137124285Y-69091428D01*
X137124285Y-68805714D01*
X80601428Y-63167142D02*
X82101428Y-63167142D01*
X81030000Y-63667142D01*
X82101428Y-64167142D01*
X80601428Y-64167142D01*
X80601428Y-65095714D02*
X80672857Y-64952857D01*
X80744285Y-64881428D01*
X80887142Y-64810000D01*
X81315714Y-64810000D01*
X81458571Y-64881428D01*
X81530000Y-64952857D01*
X81601428Y-65095714D01*
X81601428Y-65310000D01*
X81530000Y-65452857D01*
X81458571Y-65524285D01*
X81315714Y-65595714D01*
X80887142Y-65595714D01*
X80744285Y-65524285D01*
X80672857Y-65452857D01*
X80601428Y-65310000D01*
X80601428Y-65095714D01*
X80601428Y-66881428D02*
X82101428Y-66881428D01*
X80672857Y-66881428D02*
X80601428Y-66738571D01*
X80601428Y-66452857D01*
X80672857Y-66310000D01*
X80744285Y-66238571D01*
X80887142Y-66167142D01*
X81315714Y-66167142D01*
X81458571Y-66238571D01*
X81530000Y-66310000D01*
X81601428Y-66452857D01*
X81601428Y-66738571D01*
X81530000Y-66881428D01*
X81601428Y-68238571D02*
X80601428Y-68238571D01*
X81601428Y-67595714D02*
X80815714Y-67595714D01*
X80672857Y-67667142D01*
X80601428Y-67810000D01*
X80601428Y-68024285D01*
X80672857Y-68167142D01*
X80744285Y-68238571D01*
X80601428Y-69167142D02*
X80672857Y-69024285D01*
X80815714Y-68952857D01*
X82101428Y-68952857D01*
X82101428Y-70667142D02*
X80601428Y-71167142D01*
X82101428Y-71667142D01*
X108541428Y-63060000D02*
X110041428Y-63060000D01*
X108970000Y-63560000D01*
X110041428Y-64060000D01*
X108541428Y-64060000D01*
X108541428Y-64988571D02*
X108612857Y-64845714D01*
X108684285Y-64774285D01*
X108827142Y-64702857D01*
X109255714Y-64702857D01*
X109398571Y-64774285D01*
X109470000Y-64845714D01*
X109541428Y-64988571D01*
X109541428Y-65202857D01*
X109470000Y-65345714D01*
X109398571Y-65417142D01*
X109255714Y-65488571D01*
X108827142Y-65488571D01*
X108684285Y-65417142D01*
X108612857Y-65345714D01*
X108541428Y-65202857D01*
X108541428Y-64988571D01*
X108541428Y-66774285D02*
X110041428Y-66774285D01*
X108612857Y-66774285D02*
X108541428Y-66631428D01*
X108541428Y-66345714D01*
X108612857Y-66202857D01*
X108684285Y-66131428D01*
X108827142Y-66060000D01*
X109255714Y-66060000D01*
X109398571Y-66131428D01*
X109470000Y-66202857D01*
X109541428Y-66345714D01*
X109541428Y-66631428D01*
X109470000Y-66774285D01*
X109541428Y-68131428D02*
X108541428Y-68131428D01*
X109541428Y-67488571D02*
X108755714Y-67488571D01*
X108612857Y-67560000D01*
X108541428Y-67702857D01*
X108541428Y-67917142D01*
X108612857Y-68060000D01*
X108684285Y-68131428D01*
X108541428Y-69060000D02*
X108612857Y-68917142D01*
X108755714Y-68845714D01*
X110041428Y-68845714D01*
X109327142Y-71274285D02*
X109255714Y-71488571D01*
X109184285Y-71560000D01*
X109041428Y-71631428D01*
X108827142Y-71631428D01*
X108684285Y-71560000D01*
X108612857Y-71488571D01*
X108541428Y-71345714D01*
X108541428Y-70774285D01*
X110041428Y-70774285D01*
X110041428Y-71274285D01*
X109970000Y-71417142D01*
X109898571Y-71488571D01*
X109755714Y-71560000D01*
X109612857Y-71560000D01*
X109470000Y-71488571D01*
X109398571Y-71417142D01*
X109327142Y-71274285D01*
X109327142Y-70774285D01*
D10*
X51715000Y-65220952D02*
X51715000Y-66059047D01*
X50347619Y-65411428D02*
X51347619Y-65411428D01*
X50871428Y-65411428D02*
X50871428Y-65868571D01*
X50347619Y-65868571D02*
X51347619Y-65868571D01*
X51715000Y-66059047D02*
X51715000Y-66859047D01*
X50347619Y-66706666D02*
X50823809Y-66440000D01*
X50347619Y-66249523D02*
X51347619Y-66249523D01*
X51347619Y-66554285D01*
X51300000Y-66630476D01*
X51252380Y-66668571D01*
X51157142Y-66706666D01*
X51014285Y-66706666D01*
X50919047Y-66668571D01*
X50871428Y-66630476D01*
X50823809Y-66554285D01*
X50823809Y-66249523D01*
X51347619Y-68370476D02*
X51347619Y-67989523D01*
X50871428Y-67951428D01*
X50919047Y-67989523D01*
X50966666Y-68065714D01*
X50966666Y-68256190D01*
X50919047Y-68332380D01*
X50871428Y-68370476D01*
X50776190Y-68408571D01*
X50538095Y-68408571D01*
X50442857Y-68370476D01*
X50395238Y-68332380D01*
X50347619Y-68256190D01*
X50347619Y-68065714D01*
X50395238Y-67989523D01*
X50442857Y-67951428D01*
X50347619Y-68751428D02*
X51347619Y-68751428D01*
X51347619Y-69056190D01*
X51300000Y-69132380D01*
X51252380Y-69170476D01*
X51157142Y-69208571D01*
X51014285Y-69208571D01*
X50919047Y-69170476D01*
X50871428Y-69132380D01*
X50823809Y-69056190D01*
X50823809Y-68751428D01*
X51715000Y-72955238D02*
X51715000Y-73755238D01*
X50347619Y-73602857D02*
X50823809Y-73336190D01*
X50347619Y-73145714D02*
X51347619Y-73145714D01*
X51347619Y-73450476D01*
X51300000Y-73526666D01*
X51252380Y-73564761D01*
X51157142Y-73602857D01*
X51014285Y-73602857D01*
X50919047Y-73564761D01*
X50871428Y-73526666D01*
X50823809Y-73450476D01*
X50823809Y-73145714D01*
X51715000Y-73755238D02*
X51715000Y-74364761D01*
X51347619Y-73831428D02*
X51347619Y-74288571D01*
X50347619Y-74060000D02*
X51347619Y-74060000D01*
X51347619Y-75780952D02*
X51347619Y-75857142D01*
X51300000Y-75933333D01*
X51252380Y-75971428D01*
X51157142Y-76009523D01*
X50966666Y-76047619D01*
X50728571Y-76047619D01*
X50538095Y-76009523D01*
X50442857Y-75971428D01*
X50395238Y-75933333D01*
X50347619Y-75857142D01*
X50347619Y-75780952D01*
X50395238Y-75704761D01*
X50442857Y-75666666D01*
X50538095Y-75628571D01*
X50728571Y-75590476D01*
X50966666Y-75590476D01*
X51157142Y-75628571D01*
X51252380Y-75666666D01*
X51300000Y-75704761D01*
X51347619Y-75780952D01*
X51347619Y-76542857D02*
X51347619Y-76619047D01*
X51300000Y-76695238D01*
X51252380Y-76733333D01*
X51157142Y-76771428D01*
X50966666Y-76809523D01*
X50728571Y-76809523D01*
X50538095Y-76771428D01*
X50442857Y-76733333D01*
X50395238Y-76695238D01*
X50347619Y-76619047D01*
X50347619Y-76542857D01*
X50395238Y-76466666D01*
X50442857Y-76428571D01*
X50538095Y-76390476D01*
X50728571Y-76352380D01*
X50966666Y-76352380D01*
X51157142Y-76390476D01*
X51252380Y-76428571D01*
X51300000Y-76466666D01*
X51347619Y-76542857D01*
X51903333Y-78168571D02*
X51903333Y-78549523D01*
X51617619Y-78092380D02*
X52617619Y-78359047D01*
X51617619Y-78625714D01*
X52617619Y-78816190D02*
X52617619Y-79349523D01*
X51617619Y-79006666D01*
X51903333Y-80708571D02*
X51903333Y-81089523D01*
X51617619Y-80632380D02*
X52617619Y-80899047D01*
X51617619Y-81165714D01*
X52617619Y-81775238D02*
X52617619Y-81622857D01*
X52570000Y-81546666D01*
X52522380Y-81508571D01*
X52379523Y-81432380D01*
X52189047Y-81394285D01*
X51808095Y-81394285D01*
X51712857Y-81432380D01*
X51665238Y-81470476D01*
X51617619Y-81546666D01*
X51617619Y-81699047D01*
X51665238Y-81775238D01*
X51712857Y-81813333D01*
X51808095Y-81851428D01*
X52046190Y-81851428D01*
X52141428Y-81813333D01*
X52189047Y-81775238D01*
X52236666Y-81699047D01*
X52236666Y-81546666D01*
X52189047Y-81470476D01*
X52141428Y-81432380D01*
X52046190Y-81394285D01*
X51903333Y-83248571D02*
X51903333Y-83629523D01*
X51617619Y-83172380D02*
X52617619Y-83439047D01*
X51617619Y-83705714D01*
X52617619Y-84353333D02*
X52617619Y-83972380D01*
X52141428Y-83934285D01*
X52189047Y-83972380D01*
X52236666Y-84048571D01*
X52236666Y-84239047D01*
X52189047Y-84315238D01*
X52141428Y-84353333D01*
X52046190Y-84391428D01*
X51808095Y-84391428D01*
X51712857Y-84353333D01*
X51665238Y-84315238D01*
X51617619Y-84239047D01*
X51617619Y-84048571D01*
X51665238Y-83972380D01*
X51712857Y-83934285D01*
X51903333Y-85788571D02*
X51903333Y-86169523D01*
X51617619Y-85712380D02*
X52617619Y-85979047D01*
X51617619Y-86245714D01*
X52284285Y-86855238D02*
X51617619Y-86855238D01*
X52665238Y-86664761D02*
X51950952Y-86474285D01*
X51950952Y-86969523D01*
X50633333Y-88328571D02*
X50633333Y-88709523D01*
X50347619Y-88252380D02*
X51347619Y-88519047D01*
X50347619Y-88785714D01*
X51347619Y-88976190D02*
X51347619Y-89471428D01*
X50966666Y-89204761D01*
X50966666Y-89319047D01*
X50919047Y-89395238D01*
X50871428Y-89433333D01*
X50776190Y-89471428D01*
X50538095Y-89471428D01*
X50442857Y-89433333D01*
X50395238Y-89395238D01*
X50347619Y-89319047D01*
X50347619Y-89090476D01*
X50395238Y-89014285D01*
X50442857Y-88976190D01*
X50633333Y-90868571D02*
X50633333Y-91249523D01*
X50347619Y-90792380D02*
X51347619Y-91059047D01*
X50347619Y-91325714D01*
X51252380Y-91554285D02*
X51300000Y-91592380D01*
X51347619Y-91668571D01*
X51347619Y-91859047D01*
X51300000Y-91935238D01*
X51252380Y-91973333D01*
X51157142Y-92011428D01*
X51061904Y-92011428D01*
X50919047Y-91973333D01*
X50347619Y-91516190D01*
X50347619Y-92011428D01*
X50633333Y-93408571D02*
X50633333Y-93789523D01*
X50347619Y-93332380D02*
X51347619Y-93599047D01*
X50347619Y-93865714D01*
X50347619Y-94551428D02*
X50347619Y-94094285D01*
X50347619Y-94322857D02*
X51347619Y-94322857D01*
X51204761Y-94246666D01*
X51109523Y-94170476D01*
X51061904Y-94094285D01*
X50633333Y-95948571D02*
X50633333Y-96329523D01*
X50347619Y-95872380D02*
X51347619Y-96139047D01*
X50347619Y-96405714D01*
X51347619Y-96824761D02*
X51347619Y-96900952D01*
X51300000Y-96977142D01*
X51252380Y-97015238D01*
X51157142Y-97053333D01*
X50966666Y-97091428D01*
X50728571Y-97091428D01*
X50538095Y-97053333D01*
X50442857Y-97015238D01*
X50395238Y-96977142D01*
X50347619Y-96900952D01*
X50347619Y-96824761D01*
X50395238Y-96748571D01*
X50442857Y-96710476D01*
X50538095Y-96672380D01*
X50728571Y-96634285D01*
X50966666Y-96634285D01*
X51157142Y-96672380D01*
X51252380Y-96710476D01*
X51300000Y-96748571D01*
X51347619Y-96824761D01*
X50347619Y-98469523D02*
X51347619Y-98469523D01*
X51347619Y-98660000D01*
X51300000Y-98774285D01*
X51204761Y-98850476D01*
X51109523Y-98888571D01*
X50919047Y-98926666D01*
X50776190Y-98926666D01*
X50585714Y-98888571D01*
X50490476Y-98850476D01*
X50395238Y-98774285D01*
X50347619Y-98660000D01*
X50347619Y-98469523D01*
X51347619Y-99421904D02*
X51347619Y-99498095D01*
X51300000Y-99574285D01*
X51252380Y-99612380D01*
X51157142Y-99650476D01*
X50966666Y-99688571D01*
X50728571Y-99688571D01*
X50538095Y-99650476D01*
X50442857Y-99612380D01*
X50395238Y-99574285D01*
X50347619Y-99498095D01*
X50347619Y-99421904D01*
X50395238Y-99345714D01*
X50442857Y-99307619D01*
X50538095Y-99269523D01*
X50728571Y-99231428D01*
X50966666Y-99231428D01*
X51157142Y-99269523D01*
X51252380Y-99307619D01*
X51300000Y-99345714D01*
X51347619Y-99421904D01*
X50347619Y-101009523D02*
X51347619Y-101009523D01*
X51347619Y-101200000D01*
X51300000Y-101314285D01*
X51204761Y-101390476D01*
X51109523Y-101428571D01*
X50919047Y-101466666D01*
X50776190Y-101466666D01*
X50585714Y-101428571D01*
X50490476Y-101390476D01*
X50395238Y-101314285D01*
X50347619Y-101200000D01*
X50347619Y-101009523D01*
X50347619Y-102228571D02*
X50347619Y-101771428D01*
X50347619Y-102000000D02*
X51347619Y-102000000D01*
X51204761Y-101923809D01*
X51109523Y-101847619D01*
X51061904Y-101771428D01*
X50347619Y-103549523D02*
X51347619Y-103549523D01*
X51347619Y-103740000D01*
X51300000Y-103854285D01*
X51204761Y-103930476D01*
X51109523Y-103968571D01*
X50919047Y-104006666D01*
X50776190Y-104006666D01*
X50585714Y-103968571D01*
X50490476Y-103930476D01*
X50395238Y-103854285D01*
X50347619Y-103740000D01*
X50347619Y-103549523D01*
X51252380Y-104311428D02*
X51300000Y-104349523D01*
X51347619Y-104425714D01*
X51347619Y-104616190D01*
X51300000Y-104692380D01*
X51252380Y-104730476D01*
X51157142Y-104768571D01*
X51061904Y-104768571D01*
X50919047Y-104730476D01*
X50347619Y-104273333D01*
X50347619Y-104768571D01*
X50347619Y-106089523D02*
X51347619Y-106089523D01*
X51347619Y-106280000D01*
X51300000Y-106394285D01*
X51204761Y-106470476D01*
X51109523Y-106508571D01*
X50919047Y-106546666D01*
X50776190Y-106546666D01*
X50585714Y-106508571D01*
X50490476Y-106470476D01*
X50395238Y-106394285D01*
X50347619Y-106280000D01*
X50347619Y-106089523D01*
X51347619Y-106813333D02*
X51347619Y-107308571D01*
X50966666Y-107041904D01*
X50966666Y-107156190D01*
X50919047Y-107232380D01*
X50871428Y-107270476D01*
X50776190Y-107308571D01*
X50538095Y-107308571D01*
X50442857Y-107270476D01*
X50395238Y-107232380D01*
X50347619Y-107156190D01*
X50347619Y-106927619D01*
X50395238Y-106851428D01*
X50442857Y-106813333D01*
X50347619Y-108629523D02*
X51347619Y-108629523D01*
X51347619Y-108820000D01*
X51300000Y-108934285D01*
X51204761Y-109010476D01*
X51109523Y-109048571D01*
X50919047Y-109086666D01*
X50776190Y-109086666D01*
X50585714Y-109048571D01*
X50490476Y-109010476D01*
X50395238Y-108934285D01*
X50347619Y-108820000D01*
X50347619Y-108629523D01*
X51014285Y-109772380D02*
X50347619Y-109772380D01*
X51395238Y-109581904D02*
X50680952Y-109391428D01*
X50680952Y-109886666D01*
X50347619Y-111169523D02*
X51347619Y-111169523D01*
X51347619Y-111360000D01*
X51300000Y-111474285D01*
X51204761Y-111550476D01*
X51109523Y-111588571D01*
X50919047Y-111626666D01*
X50776190Y-111626666D01*
X50585714Y-111588571D01*
X50490476Y-111550476D01*
X50395238Y-111474285D01*
X50347619Y-111360000D01*
X50347619Y-111169523D01*
X51347619Y-112350476D02*
X51347619Y-111969523D01*
X50871428Y-111931428D01*
X50919047Y-111969523D01*
X50966666Y-112045714D01*
X50966666Y-112236190D01*
X50919047Y-112312380D01*
X50871428Y-112350476D01*
X50776190Y-112388571D01*
X50538095Y-112388571D01*
X50442857Y-112350476D01*
X50395238Y-112312380D01*
X50347619Y-112236190D01*
X50347619Y-112045714D01*
X50395238Y-111969523D01*
X50442857Y-111931428D01*
X50347619Y-113709523D02*
X51347619Y-113709523D01*
X51347619Y-113900000D01*
X51300000Y-114014285D01*
X51204761Y-114090476D01*
X51109523Y-114128571D01*
X50919047Y-114166666D01*
X50776190Y-114166666D01*
X50585714Y-114128571D01*
X50490476Y-114090476D01*
X50395238Y-114014285D01*
X50347619Y-113900000D01*
X50347619Y-113709523D01*
X51347619Y-114852380D02*
X51347619Y-114700000D01*
X51300000Y-114623809D01*
X51252380Y-114585714D01*
X51109523Y-114509523D01*
X50919047Y-114471428D01*
X50538095Y-114471428D01*
X50442857Y-114509523D01*
X50395238Y-114547619D01*
X50347619Y-114623809D01*
X50347619Y-114776190D01*
X50395238Y-114852380D01*
X50442857Y-114890476D01*
X50538095Y-114928571D01*
X50776190Y-114928571D01*
X50871428Y-114890476D01*
X50919047Y-114852380D01*
X50966666Y-114776190D01*
X50966666Y-114623809D01*
X50919047Y-114547619D01*
X50871428Y-114509523D01*
X50776190Y-114471428D01*
X50347619Y-116249523D02*
X51347619Y-116249523D01*
X51347619Y-116440000D01*
X51300000Y-116554285D01*
X51204761Y-116630476D01*
X51109523Y-116668571D01*
X50919047Y-116706666D01*
X50776190Y-116706666D01*
X50585714Y-116668571D01*
X50490476Y-116630476D01*
X50395238Y-116554285D01*
X50347619Y-116440000D01*
X50347619Y-116249523D01*
X51347619Y-116973333D02*
X51347619Y-117506666D01*
X50347619Y-117163809D01*
X50633333Y-118427619D02*
X50633333Y-118808571D01*
X50347619Y-118351428D02*
X51347619Y-118618095D01*
X50347619Y-118884761D01*
X50347619Y-119570476D02*
X50347619Y-119113333D01*
X50347619Y-119341904D02*
X51347619Y-119341904D01*
X51204761Y-119265714D01*
X51109523Y-119189523D01*
X51061904Y-119113333D01*
X51252380Y-119875238D02*
X51300000Y-119913333D01*
X51347619Y-119989523D01*
X51347619Y-120180000D01*
X51300000Y-120256190D01*
X51252380Y-120294285D01*
X51157142Y-120332380D01*
X51061904Y-120332380D01*
X50919047Y-120294285D01*
X50347619Y-119837142D01*
X50347619Y-120332380D01*
X50633333Y-120967619D02*
X50633333Y-121348571D01*
X50347619Y-120891428D02*
X51347619Y-121158095D01*
X50347619Y-121424761D01*
X50347619Y-122110476D02*
X50347619Y-121653333D01*
X50347619Y-121881904D02*
X51347619Y-121881904D01*
X51204761Y-121805714D01*
X51109523Y-121729523D01*
X51061904Y-121653333D01*
X50347619Y-122872380D02*
X50347619Y-122415238D01*
X50347619Y-122643809D02*
X51347619Y-122643809D01*
X51204761Y-122567619D01*
X51109523Y-122491428D01*
X51061904Y-122415238D01*
X50633333Y-123507619D02*
X50633333Y-123888571D01*
X50347619Y-123431428D02*
X51347619Y-123698095D01*
X50347619Y-123964761D01*
X50347619Y-124650476D02*
X50347619Y-124193333D01*
X50347619Y-124421904D02*
X51347619Y-124421904D01*
X51204761Y-124345714D01*
X51109523Y-124269523D01*
X51061904Y-124193333D01*
X51347619Y-125145714D02*
X51347619Y-125221904D01*
X51300000Y-125298095D01*
X51252380Y-125336190D01*
X51157142Y-125374285D01*
X50966666Y-125412380D01*
X50728571Y-125412380D01*
X50538095Y-125374285D01*
X50442857Y-125336190D01*
X50395238Y-125298095D01*
X50347619Y-125221904D01*
X50347619Y-125145714D01*
X50395238Y-125069523D01*
X50442857Y-125031428D01*
X50538095Y-124993333D01*
X50728571Y-124955238D01*
X50966666Y-124955238D01*
X51157142Y-124993333D01*
X51252380Y-125031428D01*
X51300000Y-125069523D01*
X51347619Y-125145714D01*
X50633333Y-126428571D02*
X50633333Y-126809523D01*
X50347619Y-126352380D02*
X51347619Y-126619047D01*
X50347619Y-126885714D01*
X50347619Y-127190476D02*
X50347619Y-127342857D01*
X50395238Y-127419047D01*
X50442857Y-127457142D01*
X50585714Y-127533333D01*
X50776190Y-127571428D01*
X51157142Y-127571428D01*
X51252380Y-127533333D01*
X51300000Y-127495238D01*
X51347619Y-127419047D01*
X51347619Y-127266666D01*
X51300000Y-127190476D01*
X51252380Y-127152380D01*
X51157142Y-127114285D01*
X50919047Y-127114285D01*
X50823809Y-127152380D01*
X50776190Y-127190476D01*
X50728571Y-127266666D01*
X50728571Y-127419047D01*
X50776190Y-127495238D01*
X50823809Y-127533333D01*
X50919047Y-127571428D01*
X50633333Y-128968571D02*
X50633333Y-129349523D01*
X50347619Y-128892380D02*
X51347619Y-129159047D01*
X50347619Y-129425714D01*
X50919047Y-129806666D02*
X50966666Y-129730476D01*
X51014285Y-129692380D01*
X51109523Y-129654285D01*
X51157142Y-129654285D01*
X51252380Y-129692380D01*
X51300000Y-129730476D01*
X51347619Y-129806666D01*
X51347619Y-129959047D01*
X51300000Y-130035238D01*
X51252380Y-130073333D01*
X51157142Y-130111428D01*
X51109523Y-130111428D01*
X51014285Y-130073333D01*
X50966666Y-130035238D01*
X50919047Y-129959047D01*
X50919047Y-129806666D01*
X50871428Y-129730476D01*
X50823809Y-129692380D01*
X50728571Y-129654285D01*
X50538095Y-129654285D01*
X50442857Y-129692380D01*
X50395238Y-129730476D01*
X50347619Y-129806666D01*
X50347619Y-129959047D01*
X50395238Y-130035238D01*
X50442857Y-130073333D01*
X50538095Y-130111428D01*
X50728571Y-130111428D01*
X50823809Y-130073333D01*
X50871428Y-130035238D01*
X50919047Y-129959047D01*
X50347619Y-131870476D02*
X50823809Y-131603809D01*
X50347619Y-131413333D02*
X51347619Y-131413333D01*
X51347619Y-131718095D01*
X51300000Y-131794285D01*
X51252380Y-131832380D01*
X51157142Y-131870476D01*
X51014285Y-131870476D01*
X50919047Y-131832380D01*
X50871428Y-131794285D01*
X50823809Y-131718095D01*
X50823809Y-131413333D01*
X51715000Y-132022857D02*
X51715000Y-132937142D01*
X51347619Y-132137142D02*
X50347619Y-132327619D01*
X51061904Y-132480000D01*
X50347619Y-132632380D01*
X51347619Y-132822857D01*
X51715000Y-133458095D02*
X51715000Y-134258095D01*
X50442857Y-134105714D02*
X50395238Y-134067619D01*
X50347619Y-133953333D01*
X50347619Y-133877142D01*
X50395238Y-133762857D01*
X50490476Y-133686666D01*
X50585714Y-133648571D01*
X50776190Y-133610476D01*
X50919047Y-133610476D01*
X51109523Y-133648571D01*
X51204761Y-133686666D01*
X51300000Y-133762857D01*
X51347619Y-133877142D01*
X51347619Y-133953333D01*
X51300000Y-134067619D01*
X51252380Y-134105714D01*
X51715000Y-134258095D02*
X51715000Y-135020000D01*
X50395238Y-134410476D02*
X50347619Y-134524761D01*
X50347619Y-134715238D01*
X50395238Y-134791428D01*
X50442857Y-134829523D01*
X50538095Y-134867619D01*
X50633333Y-134867619D01*
X50728571Y-134829523D01*
X50776190Y-134791428D01*
X50823809Y-134715238D01*
X50871428Y-134562857D01*
X50919047Y-134486666D01*
X50966666Y-134448571D01*
X51061904Y-134410476D01*
X51157142Y-134410476D01*
X51252380Y-134448571D01*
X51300000Y-134486666D01*
X51347619Y-134562857D01*
X51347619Y-134753333D01*
X51300000Y-134867619D01*
X51715000Y-135020000D02*
X51715000Y-135781904D01*
X51347619Y-135134285D02*
X51347619Y-135629523D01*
X50966666Y-135362857D01*
X50966666Y-135477142D01*
X50919047Y-135553333D01*
X50871428Y-135591428D01*
X50776190Y-135629523D01*
X50538095Y-135629523D01*
X50442857Y-135591428D01*
X50395238Y-135553333D01*
X50347619Y-135477142D01*
X50347619Y-135248571D01*
X50395238Y-135172380D01*
X50442857Y-135134285D01*
X81351428Y-165012857D02*
X81303809Y-165155714D01*
X81256190Y-165203333D01*
X81160952Y-165250952D01*
X81018095Y-165250952D01*
X80922857Y-165203333D01*
X80875238Y-165155714D01*
X80827619Y-165060476D01*
X80827619Y-164679523D01*
X81827619Y-164679523D01*
X81827619Y-165012857D01*
X81780000Y-165108095D01*
X81732380Y-165155714D01*
X81637142Y-165203333D01*
X81541904Y-165203333D01*
X81446666Y-165155714D01*
X81399047Y-165108095D01*
X81351428Y-165012857D01*
X81351428Y-164679523D01*
X81827619Y-165679523D02*
X81018095Y-165679523D01*
X80922857Y-165727142D01*
X80875238Y-165774761D01*
X80827619Y-165870000D01*
X80827619Y-166060476D01*
X80875238Y-166155714D01*
X80922857Y-166203333D01*
X81018095Y-166250952D01*
X81827619Y-166250952D01*
X80875238Y-166679523D02*
X80827619Y-166822380D01*
X80827619Y-167060476D01*
X80875238Y-167155714D01*
X80922857Y-167203333D01*
X81018095Y-167250952D01*
X81113333Y-167250952D01*
X81208571Y-167203333D01*
X81256190Y-167155714D01*
X81303809Y-167060476D01*
X81351428Y-166870000D01*
X81399047Y-166774761D01*
X81446666Y-166727142D01*
X81541904Y-166679523D01*
X81637142Y-166679523D01*
X81732380Y-166727142D01*
X81780000Y-166774761D01*
X81827619Y-166870000D01*
X81827619Y-167108095D01*
X81780000Y-167250952D01*
X81303809Y-167870000D02*
X80827619Y-167870000D01*
X81827619Y-167536666D02*
X81303809Y-167870000D01*
X81827619Y-168203333D01*
X63095238Y-168997619D02*
X63047619Y-169092857D01*
X63047619Y-169283333D01*
X63095238Y-169378571D01*
X63190476Y-169426190D01*
X63238095Y-169426190D01*
X63333333Y-169378571D01*
X63380952Y-169283333D01*
X63380952Y-169140476D01*
X63428571Y-169045238D01*
X63523809Y-168997619D01*
X63571428Y-168997619D01*
X63666666Y-169045238D01*
X63714285Y-169140476D01*
X63714285Y-169283333D01*
X63666666Y-169378571D01*
X63095238Y-170235714D02*
X63047619Y-170140476D01*
X63047619Y-169950000D01*
X63095238Y-169854761D01*
X63190476Y-169807142D01*
X63571428Y-169807142D01*
X63666666Y-169854761D01*
X63714285Y-169950000D01*
X63714285Y-170140476D01*
X63666666Y-170235714D01*
X63571428Y-170283333D01*
X63476190Y-170283333D01*
X63380952Y-169807142D01*
X63047619Y-170854761D02*
X63095238Y-170759523D01*
X63190476Y-170711904D01*
X64047619Y-170711904D01*
X63095238Y-171616666D02*
X63047619Y-171521428D01*
X63047619Y-171330952D01*
X63095238Y-171235714D01*
X63190476Y-171188095D01*
X63571428Y-171188095D01*
X63666666Y-171235714D01*
X63714285Y-171330952D01*
X63714285Y-171521428D01*
X63666666Y-171616666D01*
X63571428Y-171664285D01*
X63476190Y-171664285D01*
X63380952Y-171188095D01*
X63095238Y-172521428D02*
X63047619Y-172426190D01*
X63047619Y-172235714D01*
X63095238Y-172140476D01*
X63142857Y-172092857D01*
X63238095Y-172045238D01*
X63523809Y-172045238D01*
X63619047Y-172092857D01*
X63666666Y-172140476D01*
X63714285Y-172235714D01*
X63714285Y-172426190D01*
X63666666Y-172521428D01*
X63714285Y-172807142D02*
X63714285Y-173188095D01*
X64047619Y-172950000D02*
X63190476Y-172950000D01*
X63095238Y-172997619D01*
X63047619Y-173092857D01*
X63047619Y-173188095D01*
X63095238Y-173473809D02*
X63047619Y-173569047D01*
X63047619Y-173759523D01*
X63095238Y-173854761D01*
X63190476Y-173902380D01*
X63238095Y-173902380D01*
X63333333Y-173854761D01*
X63380952Y-173759523D01*
X63380952Y-173616666D01*
X63428571Y-173521428D01*
X63523809Y-173473809D01*
X63571428Y-173473809D01*
X63666666Y-173521428D01*
X63714285Y-173616666D01*
X63714285Y-173759523D01*
X63666666Y-173854761D01*
X47807619Y-159464761D02*
X48807619Y-159464761D01*
X48188571Y-159560000D02*
X47807619Y-159845714D01*
X48474285Y-159845714D02*
X48093333Y-159464761D01*
X47855238Y-160655238D02*
X47807619Y-160560000D01*
X47807619Y-160369523D01*
X47855238Y-160274285D01*
X47950476Y-160226666D01*
X48331428Y-160226666D01*
X48426666Y-160274285D01*
X48474285Y-160369523D01*
X48474285Y-160560000D01*
X48426666Y-160655238D01*
X48331428Y-160702857D01*
X48236190Y-160702857D01*
X48140952Y-160226666D01*
X48474285Y-161036190D02*
X47807619Y-161274285D01*
X48474285Y-161512380D02*
X47807619Y-161274285D01*
X47569523Y-161179047D01*
X47521904Y-161131428D01*
X47474285Y-161036190D01*
X47807619Y-161893333D02*
X48807619Y-161893333D01*
X48426666Y-161893333D02*
X48474285Y-161988571D01*
X48474285Y-162179047D01*
X48426666Y-162274285D01*
X48379047Y-162321904D01*
X48283809Y-162369523D01*
X47998095Y-162369523D01*
X47902857Y-162321904D01*
X47855238Y-162274285D01*
X47807619Y-162179047D01*
X47807619Y-161988571D01*
X47855238Y-161893333D01*
X47807619Y-162940952D02*
X47855238Y-162845714D01*
X47902857Y-162798095D01*
X47998095Y-162750476D01*
X48283809Y-162750476D01*
X48379047Y-162798095D01*
X48426666Y-162845714D01*
X48474285Y-162940952D01*
X48474285Y-163083809D01*
X48426666Y-163179047D01*
X48379047Y-163226666D01*
X48283809Y-163274285D01*
X47998095Y-163274285D01*
X47902857Y-163226666D01*
X47855238Y-163179047D01*
X47807619Y-163083809D01*
X47807619Y-162940952D01*
X47807619Y-164131428D02*
X48331428Y-164131428D01*
X48426666Y-164083809D01*
X48474285Y-163988571D01*
X48474285Y-163798095D01*
X48426666Y-163702857D01*
X47855238Y-164131428D02*
X47807619Y-164036190D01*
X47807619Y-163798095D01*
X47855238Y-163702857D01*
X47950476Y-163655238D01*
X48045714Y-163655238D01*
X48140952Y-163702857D01*
X48188571Y-163798095D01*
X48188571Y-164036190D01*
X48236190Y-164131428D01*
X47807619Y-164607619D02*
X48474285Y-164607619D01*
X48283809Y-164607619D02*
X48379047Y-164655238D01*
X48426666Y-164702857D01*
X48474285Y-164798095D01*
X48474285Y-164893333D01*
X47807619Y-165655238D02*
X48807619Y-165655238D01*
X47855238Y-165655238D02*
X47807619Y-165560000D01*
X47807619Y-165369523D01*
X47855238Y-165274285D01*
X47902857Y-165226666D01*
X47998095Y-165179047D01*
X48283809Y-165179047D01*
X48379047Y-165226666D01*
X48426666Y-165274285D01*
X48474285Y-165369523D01*
X48474285Y-165560000D01*
X48426666Y-165655238D01*
X46712380Y-177252380D02*
X47379047Y-178252380D01*
X47379047Y-177252380D02*
X46712380Y-178252380D01*
X47617142Y-177252380D02*
X48188571Y-177252380D01*
X47902857Y-178252380D02*
X47902857Y-177252380D01*
X48474285Y-177966666D02*
X48950476Y-177966666D01*
X48379047Y-178252380D02*
X48712380Y-177252380D01*
X49045714Y-178252380D01*
X49855238Y-178252380D02*
X49379047Y-178252380D01*
X49379047Y-177252380D01*
X49175000Y-182697619D02*
X49175000Y-183697619D01*
X47902857Y-183507142D02*
X47855238Y-183459523D01*
X47807619Y-183316666D01*
X47807619Y-183221428D01*
X47855238Y-183078571D01*
X47950476Y-182983333D01*
X48045714Y-182935714D01*
X48236190Y-182888095D01*
X48379047Y-182888095D01*
X48569523Y-182935714D01*
X48664761Y-182983333D01*
X48760000Y-183078571D01*
X48807619Y-183221428D01*
X48807619Y-183316666D01*
X48760000Y-183459523D01*
X48712380Y-183507142D01*
X49175000Y-183697619D02*
X49175000Y-184650000D01*
X47855238Y-183888095D02*
X47807619Y-184030952D01*
X47807619Y-184269047D01*
X47855238Y-184364285D01*
X47902857Y-184411904D01*
X47998095Y-184459523D01*
X48093333Y-184459523D01*
X48188571Y-184411904D01*
X48236190Y-184364285D01*
X48283809Y-184269047D01*
X48331428Y-184078571D01*
X48379047Y-183983333D01*
X48426666Y-183935714D01*
X48521904Y-183888095D01*
X48617142Y-183888095D01*
X48712380Y-183935714D01*
X48760000Y-183983333D01*
X48807619Y-184078571D01*
X48807619Y-184316666D01*
X48760000Y-184459523D01*
X49175000Y-184650000D02*
X49175000Y-185602380D01*
X48712380Y-184840476D02*
X48760000Y-184888095D01*
X48807619Y-184983333D01*
X48807619Y-185221428D01*
X48760000Y-185316666D01*
X48712380Y-185364285D01*
X48617142Y-185411904D01*
X48521904Y-185411904D01*
X48379047Y-185364285D01*
X47807619Y-184792857D01*
X47807619Y-185411904D01*
D12*
%TO.C,VD201*%
X72375660Y-208280000D02*
G75*
G03*
X72375660Y-208280000I-1255660J0D01*
G01*
X71120000Y-207024340D02*
X71120000Y-206790000D01*
%TO.C,C18*%
X106910000Y-194510000D02*
X111450000Y-194510000D01*
X106910000Y-196650000D02*
X111450000Y-196650000D01*
X106910000Y-194510000D02*
X106910000Y-194525000D01*
X106910000Y-196635000D02*
X106910000Y-196650000D01*
X111450000Y-194510000D02*
X111450000Y-194525000D01*
X111450000Y-196635000D02*
X111450000Y-196650000D01*
%TO.C,C24*%
X70499000Y-199040000D02*
X69241000Y-199040000D01*
X70499000Y-197200000D02*
X69241000Y-197200000D01*
%TO.C,X202*%
X46820000Y-176590000D02*
X46820000Y-171390000D01*
X46820000Y-171390000D02*
X44160000Y-171390000D01*
X44160000Y-171390000D02*
X44160000Y-176590000D01*
X44160000Y-176590000D02*
X46820000Y-176590000D01*
X44160000Y-175640000D02*
X38160000Y-175640000D01*
X38160000Y-175640000D02*
X38160000Y-174880000D01*
X38160000Y-174880000D02*
X44160000Y-174880000D01*
X44160000Y-175580000D02*
X38160000Y-175580000D01*
X44160000Y-175460000D02*
X38160000Y-175460000D01*
X44160000Y-175340000D02*
X38160000Y-175340000D01*
X44160000Y-175220000D02*
X38160000Y-175220000D01*
X44160000Y-175100000D02*
X38160000Y-175100000D01*
X44160000Y-174980000D02*
X38160000Y-174980000D01*
X47150000Y-175640000D02*
X46820000Y-175640000D01*
X47150000Y-174880000D02*
X46820000Y-174880000D01*
X46820000Y-173990000D02*
X44160000Y-173990000D01*
X44160000Y-173100000D02*
X38160000Y-173100000D01*
X38160000Y-173100000D02*
X38160000Y-172340000D01*
X38160000Y-172340000D02*
X44160000Y-172340000D01*
X47217071Y-173100000D02*
X46820000Y-173100000D01*
X47217071Y-172340000D02*
X46820000Y-172340000D01*
X49530000Y-175260000D02*
X49530000Y-176530000D01*
X49530000Y-176530000D02*
X48260000Y-176530000D01*
%TO.C,X205*%
X80070000Y-166310000D02*
X77410000Y-166310000D01*
X80070000Y-166370000D02*
X80070000Y-166310000D01*
X77410000Y-166370000D02*
X77410000Y-166310000D01*
X80070000Y-166370000D02*
X77410000Y-166370000D01*
X80070000Y-167640000D02*
X80070000Y-168970000D01*
X80070000Y-168970000D02*
X78740000Y-168970000D01*
%TO.C,C22*%
X177570000Y-186490000D02*
X173030000Y-186490000D01*
X177570000Y-184350000D02*
X173030000Y-184350000D01*
X177570000Y-186490000D02*
X177570000Y-186475000D01*
X177570000Y-184365000D02*
X177570000Y-184350000D01*
X173030000Y-186490000D02*
X173030000Y-186475000D01*
X173030000Y-184365000D02*
X173030000Y-184350000D01*
%TO.C,C20*%
X178011425Y-150949652D02*
X177121885Y-151839192D01*
X176710348Y-149648575D02*
X175820808Y-150538115D01*
%TO.C,C23*%
X177570000Y-194110000D02*
X173030000Y-194110000D01*
X177570000Y-191970000D02*
X173030000Y-191970000D01*
X177570000Y-194110000D02*
X177570000Y-194095000D01*
X177570000Y-191985000D02*
X177570000Y-191970000D01*
X173030000Y-194110000D02*
X173030000Y-194095000D01*
X173030000Y-191985000D02*
X173030000Y-191970000D01*
%TO.C,C19*%
X155981647Y-131744186D02*
X158251647Y-135675941D01*
X154128353Y-132814186D02*
X156398353Y-136745941D01*
X155981647Y-131744186D02*
X155968657Y-131751686D01*
X154141343Y-132806686D02*
X154128353Y-132814186D01*
X158251647Y-135675941D02*
X158238657Y-135683441D01*
X156411343Y-136738441D02*
X156398353Y-136745941D01*
%TO.C,C17*%
X61880000Y-183501000D02*
X61880000Y-184759000D01*
X60040000Y-183501000D02*
X60040000Y-184759000D01*
%TO.C,C15*%
X72740000Y-169559000D02*
X72740000Y-168301000D01*
X74580000Y-169559000D02*
X74580000Y-168301000D01*
%TO.C,C14*%
X97141000Y-143860000D02*
X98399000Y-143860000D01*
X97141000Y-145700000D02*
X98399000Y-145700000D01*
%TO.C,C13*%
X154020000Y-90819000D02*
X154020000Y-89561000D01*
X155860000Y-90819000D02*
X155860000Y-89561000D01*
%TO.C,C12*%
X127920000Y-66661000D02*
X127920000Y-67919000D01*
X126080000Y-66661000D02*
X126080000Y-67919000D01*
%TO.C,C10*%
X126080000Y-90819000D02*
X126080000Y-89561000D01*
X127920000Y-90819000D02*
X127920000Y-89561000D01*
%TO.C,C9*%
X62580000Y-90819000D02*
X62580000Y-89561000D01*
X64420000Y-90819000D02*
X64420000Y-89561000D01*
%TO.C,C8*%
X117760000Y-66661000D02*
X117760000Y-67919000D01*
X115920000Y-66661000D02*
X115920000Y-67919000D01*
%TO.C,C7*%
X98140000Y-90819000D02*
X98140000Y-89561000D01*
X99980000Y-90819000D02*
X99980000Y-89561000D01*
%TO.C,C5*%
X176180000Y-66661000D02*
X176180000Y-67919000D01*
X174340000Y-66661000D02*
X174340000Y-67919000D01*
%TO.C,C4*%
X76371425Y-67129652D02*
X75481885Y-68019192D01*
X75070348Y-65828575D02*
X74180808Y-66718115D01*
%TO.C,C3*%
X135690000Y-175490000D02*
X135690000Y-180030000D01*
X133550000Y-175490000D02*
X133550000Y-180030000D01*
X135690000Y-175490000D02*
X135675000Y-175490000D01*
X133565000Y-175490000D02*
X133550000Y-175490000D01*
X135690000Y-180030000D02*
X135675000Y-180030000D01*
X133565000Y-180030000D02*
X133550000Y-180030000D01*
%TO.C,C2*%
X58480000Y-68860000D02*
X58480000Y-70660000D01*
X59380000Y-69760000D02*
X57580000Y-69760000D01*
X61000000Y-70960000D02*
X50760000Y-70960000D01*
X61000000Y-91200000D02*
X50760000Y-91200000D01*
X61000000Y-70960000D02*
X61000000Y-72760000D01*
X61000000Y-72760000D02*
X60100000Y-73660000D01*
X60100000Y-73660000D02*
X61000000Y-74560000D01*
X61000000Y-74560000D02*
X61000000Y-91200000D01*
X50760000Y-70960000D02*
X50760000Y-72760000D01*
X50760000Y-72760000D02*
X51660000Y-73660000D01*
X51660000Y-73660000D02*
X50760000Y-74560000D01*
X50760000Y-74560000D02*
X50760000Y-91200000D01*
X55880000Y-70020000D02*
X55880000Y-70960000D01*
X55880000Y-92140000D02*
X55880000Y-91200000D01*
%TO.C,X405*%
X133290000Y-54670000D02*
X135950000Y-54670000D01*
X133290000Y-54610000D02*
X133290000Y-54670000D01*
X135950000Y-54610000D02*
X135950000Y-54670000D01*
X133290000Y-54610000D02*
X135950000Y-54610000D01*
X133290000Y-53340000D02*
X133290000Y-52010000D01*
X133290000Y-52010000D02*
X134620000Y-52010000D01*
%TO.C,X404*%
X163890000Y-54670000D02*
X163890000Y-52010000D01*
X163830000Y-54670000D02*
X163890000Y-54670000D01*
X163830000Y-52010000D02*
X163890000Y-52010000D01*
X163830000Y-54670000D02*
X163830000Y-52010000D01*
X162560000Y-54670000D02*
X161230000Y-54670000D01*
X161230000Y-54670000D02*
X161230000Y-53340000D01*
%TO.C,X403*%
X151190000Y-54670000D02*
X151190000Y-52010000D01*
X151130000Y-54670000D02*
X151190000Y-54670000D01*
X151130000Y-52010000D02*
X151190000Y-52010000D01*
X151130000Y-54670000D02*
X151130000Y-52010000D01*
X149860000Y-54670000D02*
X148530000Y-54670000D01*
X148530000Y-54670000D02*
X148530000Y-53340000D01*
%TO.C,X402*%
X141030000Y-54670000D02*
X141030000Y-52010000D01*
X140970000Y-54670000D02*
X141030000Y-54670000D01*
X140970000Y-52010000D02*
X141030000Y-52010000D01*
X140970000Y-54670000D02*
X140970000Y-52010000D01*
X139700000Y-54670000D02*
X138370000Y-54670000D01*
X138370000Y-54670000D02*
X138370000Y-53340000D01*
%TO.C,X401*%
X123250000Y-54670000D02*
X123250000Y-52010000D01*
X123190000Y-54670000D02*
X123250000Y-54670000D01*
X123190000Y-52010000D02*
X123250000Y-52010000D01*
X123190000Y-54670000D02*
X123190000Y-52010000D01*
X121920000Y-54670000D02*
X120590000Y-54670000D01*
X120590000Y-54670000D02*
X120590000Y-53340000D01*
%TO.C,X400*%
X113090000Y-54670000D02*
X113090000Y-52010000D01*
X113030000Y-54670000D02*
X113090000Y-54670000D01*
X113030000Y-52010000D02*
X113090000Y-52010000D01*
X113030000Y-54670000D02*
X113030000Y-52010000D01*
X111760000Y-54670000D02*
X110430000Y-54670000D01*
X110430000Y-54670000D02*
X110430000Y-53340000D01*
%TO.C,C202*%
X89020000Y-166470000D02*
X83780000Y-166470000D01*
X89020000Y-163730000D02*
X83780000Y-163730000D01*
X89020000Y-166470000D02*
X89020000Y-166155000D01*
X89020000Y-164045000D02*
X89020000Y-163730000D01*
X83780000Y-166470000D02*
X83780000Y-166155000D01*
X83780000Y-164045000D02*
X83780000Y-163730000D01*
%TO.C,R20*%
X122891380Y-62155225D02*
G75*
G02*
X121120000Y-62046728I-971380J-1344775D01*
G01*
%TO.C,VT400*%
X112450000Y-54080000D02*
X112450000Y-57680000D01*
X113177205Y-58204184D02*
G75*
G02*
X112450000Y-57680000I1122795J2324184D01*
G01*
X115398807Y-58236400D02*
G75*
G03*
X116900000Y-55880000I-1098807J2356400D01*
G01*
X115398807Y-53523600D02*
G75*
G02*
X116900000Y-55880000I-1098807J-2356400D01*
G01*
X113177205Y-53555816D02*
G75*
G03*
X112450000Y-54080000I1122795J-2324184D01*
G01*
%TO.C,VT404*%
X163250000Y-54080000D02*
X163250000Y-57680000D01*
X163977205Y-58204184D02*
G75*
G02*
X163250000Y-57680000I1122795J2324184D01*
G01*
X166198807Y-58236400D02*
G75*
G03*
X167700000Y-55880000I-1098807J2356400D01*
G01*
X166198807Y-53523600D02*
G75*
G02*
X167700000Y-55880000I-1098807J-2356400D01*
G01*
X163977205Y-53555816D02*
G75*
G03*
X163250000Y-54080000I1122795J-2324184D01*
G01*
%TO.C,VT403*%
X150550000Y-54080000D02*
X150550000Y-57680000D01*
X151277205Y-58204184D02*
G75*
G02*
X150550000Y-57680000I1122795J2324184D01*
G01*
X153498807Y-58236400D02*
G75*
G03*
X155000000Y-55880000I-1098807J2356400D01*
G01*
X153498807Y-53523600D02*
G75*
G02*
X155000000Y-55880000I-1098807J-2356400D01*
G01*
X151277205Y-53555816D02*
G75*
G03*
X150550000Y-54080000I1122795J-2324184D01*
G01*
%TO.C,VT402*%
X140390000Y-54080000D02*
X140390000Y-57680000D01*
X141117205Y-58204184D02*
G75*
G02*
X140390000Y-57680000I1122795J2324184D01*
G01*
X143338807Y-58236400D02*
G75*
G03*
X144840000Y-55880000I-1098807J2356400D01*
G01*
X143338807Y-53523600D02*
G75*
G02*
X144840000Y-55880000I-1098807J-2356400D01*
G01*
X141117205Y-53555816D02*
G75*
G03*
X140390000Y-54080000I1122795J-2324184D01*
G01*
%TO.C,VT401*%
X122610000Y-54080000D02*
X122610000Y-57680000D01*
X123337205Y-58204184D02*
G75*
G02*
X122610000Y-57680000I1122795J2324184D01*
G01*
X125558807Y-58236400D02*
G75*
G03*
X127060000Y-55880000I-1098807J2356400D01*
G01*
X125558807Y-53523600D02*
G75*
G02*
X127060000Y-55880000I-1098807J-2356400D01*
G01*
X123337205Y-53555816D02*
G75*
G03*
X122610000Y-54080000I1122795J-2324184D01*
G01*
%TO.C,VT201*%
X64240000Y-207590000D02*
X67840000Y-207590000D01*
X68364184Y-206862795D02*
G75*
G02*
X67840000Y-207590000I-2324184J1122795D01*
G01*
X68396400Y-204641193D02*
G75*
G03*
X66040000Y-203140000I-2356400J-1098807D01*
G01*
X63683600Y-204641193D02*
G75*
G02*
X66040000Y-203140000I2356400J-1098807D01*
G01*
X63715816Y-206862795D02*
G75*
G03*
X64240000Y-207590000I2324184J1122795D01*
G01*
%TO.C,VT200*%
X80540000Y-196270000D02*
X76940000Y-196270000D01*
X76415816Y-196997205D02*
G75*
G02*
X76940000Y-196270000I2324184J-1122795D01*
G01*
X76383600Y-199218807D02*
G75*
G03*
X78740000Y-200720000I2356400J1098807D01*
G01*
X81096400Y-199218807D02*
G75*
G02*
X78740000Y-200720000I-2356400J1098807D01*
G01*
X81064184Y-196997205D02*
G75*
G03*
X80540000Y-196270000I-2324184J-1122795D01*
G01*
%TO.C,VD405*%
X167440000Y-59320000D02*
X168840000Y-59320000D01*
X166440000Y-56020000D02*
X166440000Y-58320000D01*
X168840000Y-55020000D02*
X167440000Y-55020000D01*
X168840000Y-59320000D02*
X168840000Y-55020000D01*
X166440000Y-56020000D02*
G75*
G02*
X167440000Y-55020000I1000000J0D01*
G01*
X167440000Y-59320000D02*
G75*
G02*
X166440000Y-58320000I0J1000000D01*
G01*
%TO.C,VD404*%
X154740000Y-59320000D02*
X156140000Y-59320000D01*
X153740000Y-56020000D02*
X153740000Y-58320000D01*
X156140000Y-55020000D02*
X154740000Y-55020000D01*
X156140000Y-59320000D02*
X156140000Y-55020000D01*
X153740000Y-56020000D02*
G75*
G02*
X154740000Y-55020000I1000000J0D01*
G01*
X154740000Y-59320000D02*
G75*
G02*
X153740000Y-58320000I0J1000000D01*
G01*
%TO.C,VD403*%
X144580000Y-59320000D02*
X145980000Y-59320000D01*
X143580000Y-56020000D02*
X143580000Y-58320000D01*
X145980000Y-55020000D02*
X144580000Y-55020000D01*
X145980000Y-59320000D02*
X145980000Y-55020000D01*
X143580000Y-56020000D02*
G75*
G02*
X144580000Y-55020000I1000000J0D01*
G01*
X144580000Y-59320000D02*
G75*
G02*
X143580000Y-58320000I0J1000000D01*
G01*
%TO.C,VD402*%
X126800000Y-59320000D02*
X128200000Y-59320000D01*
X125800000Y-56020000D02*
X125800000Y-58320000D01*
X128200000Y-55020000D02*
X126800000Y-55020000D01*
X128200000Y-59320000D02*
X128200000Y-55020000D01*
X125800000Y-56020000D02*
G75*
G02*
X126800000Y-55020000I1000000J0D01*
G01*
X126800000Y-59320000D02*
G75*
G02*
X125800000Y-58320000I0J1000000D01*
G01*
%TO.C,VD401*%
X116640000Y-59320000D02*
X118040000Y-59320000D01*
X115640000Y-56020000D02*
X115640000Y-58320000D01*
X118040000Y-55020000D02*
X116640000Y-55020000D01*
X118040000Y-59320000D02*
X118040000Y-55020000D01*
X115640000Y-56020000D02*
G75*
G02*
X116640000Y-55020000I1000000J0D01*
G01*
X116640000Y-59320000D02*
G75*
G02*
X115640000Y-58320000I0J1000000D01*
G01*
%TO.C,VD400*%
X105780000Y-55680000D02*
X105780000Y-57080000D01*
X109080000Y-54680000D02*
X106780000Y-54680000D01*
X110080000Y-57080000D02*
X110080000Y-55680000D01*
X105780000Y-57080000D02*
X110080000Y-57080000D01*
X109080000Y-54680000D02*
G75*
G02*
X110080000Y-55680000I0J-1000000D01*
G01*
X105780000Y-55680000D02*
G75*
G02*
X106780000Y-54680000I1000000J0D01*
G01*
%TO.C,VD202*%
X67680000Y-167440000D02*
X67680000Y-168840000D01*
X70980000Y-166440000D02*
X68680000Y-166440000D01*
X71980000Y-168840000D02*
X71980000Y-167440000D01*
X67680000Y-168840000D02*
X71980000Y-168840000D01*
X70980000Y-166440000D02*
G75*
G02*
X71980000Y-167440000I0J-1000000D01*
G01*
X67680000Y-167440000D02*
G75*
G02*
X68680000Y-166440000I1000000J0D01*
G01*
%TO.C,VD200*%
X76000000Y-204100000D02*
X77400000Y-204100000D01*
X75000000Y-200800000D02*
X75000000Y-203100000D01*
X77400000Y-199800000D02*
X76000000Y-199800000D01*
X77400000Y-204100000D02*
X77400000Y-199800000D01*
X75000000Y-200800000D02*
G75*
G02*
X76000000Y-199800000I1000000J0D01*
G01*
X76000000Y-204100000D02*
G75*
G02*
X75000000Y-203100000I0J1000000D01*
G01*
%TO.C,D21*%
X53610000Y-179010000D02*
X51960000Y-179010000D01*
X51960000Y-179010000D02*
X51960000Y-199450000D01*
X51960000Y-199450000D02*
X57260000Y-199450000D01*
X57260000Y-199450000D02*
X57260000Y-179010000D01*
X57260000Y-179010000D02*
X55610000Y-179010000D01*
X49470000Y-178950000D02*
X49470000Y-199510000D01*
X49470000Y-199510000D02*
X59750000Y-199510000D01*
X59750000Y-199510000D02*
X59750000Y-178950000D01*
X59750000Y-178950000D02*
X49470000Y-178950000D01*
X55610000Y-179010000D02*
G75*
G02*
X53610000Y-179010000I-1000000J0D01*
G01*
%TO.C,D20*%
X53610000Y-153610000D02*
X51960000Y-153610000D01*
X51960000Y-153610000D02*
X51960000Y-174050000D01*
X51960000Y-174050000D02*
X57260000Y-174050000D01*
X57260000Y-174050000D02*
X57260000Y-153610000D01*
X57260000Y-153610000D02*
X55610000Y-153610000D01*
X49470000Y-153550000D02*
X49470000Y-174110000D01*
X49470000Y-174110000D02*
X59750000Y-174110000D01*
X59750000Y-174110000D02*
X59750000Y-153550000D01*
X59750000Y-153550000D02*
X49470000Y-153550000D01*
X55610000Y-153610000D02*
G75*
G02*
X53610000Y-153610000I-1000000J0D01*
G01*
%TO.C,D19*%
X68850000Y-171390000D02*
X67200000Y-171390000D01*
X67200000Y-171390000D02*
X67200000Y-189290000D01*
X67200000Y-189290000D02*
X72500000Y-189290000D01*
X72500000Y-189290000D02*
X72500000Y-171390000D01*
X72500000Y-171390000D02*
X70850000Y-171390000D01*
X64710000Y-171330000D02*
X64710000Y-189350000D01*
X64710000Y-189350000D02*
X74990000Y-189350000D01*
X74990000Y-189350000D02*
X74990000Y-171330000D01*
X74990000Y-171330000D02*
X64710000Y-171330000D01*
X70850000Y-171390000D02*
G75*
G02*
X68850000Y-171390000I-1000000J0D01*
G01*
%TO.C,D18*%
X68850000Y-148530000D02*
X67200000Y-148530000D01*
X67200000Y-148530000D02*
X67200000Y-166430000D01*
X67200000Y-166430000D02*
X72500000Y-166430000D01*
X72500000Y-166430000D02*
X72500000Y-148530000D01*
X72500000Y-148530000D02*
X70850000Y-148530000D01*
X64710000Y-148470000D02*
X64710000Y-166490000D01*
X64710000Y-166490000D02*
X74990000Y-166490000D01*
X74990000Y-166490000D02*
X74990000Y-148470000D01*
X74990000Y-148470000D02*
X64710000Y-148470000D01*
X70850000Y-148530000D02*
G75*
G02*
X68850000Y-148530000I-1000000J0D01*
G01*
%TO.C,D17*%
X63770000Y-120590000D02*
X62120000Y-120590000D01*
X62120000Y-120590000D02*
X62120000Y-146110000D01*
X62120000Y-146110000D02*
X67420000Y-146110000D01*
X67420000Y-146110000D02*
X67420000Y-120590000D01*
X67420000Y-120590000D02*
X65770000Y-120590000D01*
X59630000Y-120530000D02*
X59630000Y-146170000D01*
X59630000Y-146170000D02*
X69910000Y-146170000D01*
X69910000Y-146170000D02*
X69910000Y-120530000D01*
X69910000Y-120530000D02*
X59630000Y-120530000D01*
X65770000Y-120590000D02*
G75*
G02*
X63770000Y-120590000I-1000000J0D01*
G01*
%TO.C,D16*%
X73390000Y-118170000D02*
X75040000Y-118170000D01*
X75040000Y-118170000D02*
X75040000Y-92650000D01*
X75040000Y-92650000D02*
X69740000Y-92650000D01*
X69740000Y-92650000D02*
X69740000Y-118170000D01*
X69740000Y-118170000D02*
X71390000Y-118170000D01*
X77530000Y-118230000D02*
X77530000Y-92590000D01*
X77530000Y-92590000D02*
X67250000Y-92590000D01*
X67250000Y-92590000D02*
X67250000Y-118230000D01*
X67250000Y-118230000D02*
X77530000Y-118230000D01*
X71390000Y-118170000D02*
G75*
G02*
X73390000Y-118170000I1000000J0D01*
G01*
%TO.C,D15*%
X66310000Y-62170000D02*
X64660000Y-62170000D01*
X64660000Y-62170000D02*
X64660000Y-87690000D01*
X64660000Y-87690000D02*
X69960000Y-87690000D01*
X69960000Y-87690000D02*
X69960000Y-62170000D01*
X69960000Y-62170000D02*
X68310000Y-62170000D01*
X62170000Y-62110000D02*
X62170000Y-87750000D01*
X62170000Y-87750000D02*
X72450000Y-87750000D01*
X72450000Y-87750000D02*
X72450000Y-62110000D01*
X72450000Y-62110000D02*
X62170000Y-62110000D01*
X68310000Y-62170000D02*
G75*
G02*
X66310000Y-62170000I-1000000J0D01*
G01*
%TO.C,D14*%
X90110000Y-202930000D02*
X90110000Y-204580000D01*
X90110000Y-204580000D02*
X108010000Y-204580000D01*
X108010000Y-204580000D02*
X108010000Y-199280000D01*
X108010000Y-199280000D02*
X90110000Y-199280000D01*
X90110000Y-199280000D02*
X90110000Y-200930000D01*
X90050000Y-207070000D02*
X108070000Y-207070000D01*
X108070000Y-207070000D02*
X108070000Y-196790000D01*
X108070000Y-196790000D02*
X90050000Y-196790000D01*
X90050000Y-196790000D02*
X90050000Y-207070000D01*
X90110000Y-200930000D02*
G75*
G02*
X90110000Y-202930000I0J-1000000D01*
G01*
%TO.C,D13*%
X77410000Y-178800000D02*
X77410000Y-184260000D01*
X77410000Y-184260000D02*
X128330000Y-184260000D01*
X128330000Y-184260000D02*
X128330000Y-171340000D01*
X128330000Y-171340000D02*
X77410000Y-171340000D01*
X77410000Y-171340000D02*
X77410000Y-176800000D01*
X77350000Y-186750000D02*
X128390000Y-186750000D01*
X128390000Y-186750000D02*
X128390000Y-168850000D01*
X128390000Y-168850000D02*
X77350000Y-168850000D01*
X77350000Y-168850000D02*
X77350000Y-186750000D01*
X77410000Y-176800000D02*
G75*
G02*
X77410000Y-178800000I0J-1000000D01*
G01*
%TO.C,D12*%
X88630000Y-113090000D02*
X90280000Y-113090000D01*
X90280000Y-113090000D02*
X90280000Y-87570000D01*
X90280000Y-87570000D02*
X84980000Y-87570000D01*
X84980000Y-87570000D02*
X84980000Y-113090000D01*
X84980000Y-113090000D02*
X86630000Y-113090000D01*
X92770000Y-113150000D02*
X92770000Y-87510000D01*
X92770000Y-87510000D02*
X82490000Y-87510000D01*
X82490000Y-87510000D02*
X82490000Y-113150000D01*
X82490000Y-113150000D02*
X92770000Y-113150000D01*
X86630000Y-113090000D02*
G75*
G02*
X88630000Y-113090000I1000000J0D01*
G01*
%TO.C,D11*%
X101330000Y-118170000D02*
X102980000Y-118170000D01*
X102980000Y-118170000D02*
X102980000Y-92650000D01*
X102980000Y-92650000D02*
X97680000Y-92650000D01*
X97680000Y-92650000D02*
X97680000Y-118170000D01*
X97680000Y-118170000D02*
X99330000Y-118170000D01*
X105470000Y-118230000D02*
X105470000Y-92590000D01*
X105470000Y-92590000D02*
X95190000Y-92590000D01*
X95190000Y-92590000D02*
X95190000Y-118230000D01*
X95190000Y-118230000D02*
X105470000Y-118230000D01*
X99330000Y-118170000D02*
G75*
G02*
X101330000Y-118170000I1000000J0D01*
G01*
%TO.C,D10*%
X95190000Y-152130000D02*
X95190000Y-153780000D01*
X95190000Y-153780000D02*
X115630000Y-153780000D01*
X115630000Y-153780000D02*
X115630000Y-148480000D01*
X115630000Y-148480000D02*
X95190000Y-148480000D01*
X95190000Y-148480000D02*
X95190000Y-150130000D01*
X95130000Y-156270000D02*
X115690000Y-156270000D01*
X115690000Y-156270000D02*
X115690000Y-145990000D01*
X115690000Y-145990000D02*
X95130000Y-145990000D01*
X95130000Y-145990000D02*
X95130000Y-156270000D01*
X95190000Y-150130000D02*
G75*
G02*
X95190000Y-152130000I0J-1000000D01*
G01*
%TO.C,D9*%
X116570000Y-113090000D02*
X118220000Y-113090000D01*
X118220000Y-113090000D02*
X118220000Y-87570000D01*
X118220000Y-87570000D02*
X112920000Y-87570000D01*
X112920000Y-87570000D02*
X112920000Y-113090000D01*
X112920000Y-113090000D02*
X114570000Y-113090000D01*
X120710000Y-113150000D02*
X120710000Y-87510000D01*
X120710000Y-87510000D02*
X110430000Y-87510000D01*
X110430000Y-87510000D02*
X110430000Y-113150000D01*
X110430000Y-113150000D02*
X120710000Y-113150000D01*
X114570000Y-113090000D02*
G75*
G02*
X116570000Y-113090000I1000000J0D01*
G01*
%TO.C,D8*%
X120590000Y-152130000D02*
X120590000Y-153780000D01*
X120590000Y-153780000D02*
X146110000Y-153780000D01*
X146110000Y-153780000D02*
X146110000Y-148480000D01*
X146110000Y-148480000D02*
X120590000Y-148480000D01*
X120590000Y-148480000D02*
X120590000Y-150130000D01*
X120530000Y-156270000D02*
X146170000Y-156270000D01*
X146170000Y-156270000D02*
X146170000Y-145990000D01*
X146170000Y-145990000D02*
X120530000Y-145990000D01*
X120530000Y-145990000D02*
X120530000Y-156270000D01*
X120590000Y-150130000D02*
G75*
G02*
X120590000Y-152130000I0J-1000000D01*
G01*
%TO.C,D7*%
X129270000Y-118170000D02*
X130920000Y-118170000D01*
X130920000Y-118170000D02*
X130920000Y-92650000D01*
X130920000Y-92650000D02*
X125620000Y-92650000D01*
X125620000Y-92650000D02*
X125620000Y-118170000D01*
X125620000Y-118170000D02*
X127270000Y-118170000D01*
X133410000Y-118230000D02*
X133410000Y-92590000D01*
X133410000Y-92590000D02*
X123130000Y-92590000D01*
X123130000Y-92590000D02*
X123130000Y-118230000D01*
X123130000Y-118230000D02*
X133410000Y-118230000D01*
X127270000Y-118170000D02*
G75*
G02*
X129270000Y-118170000I1000000J0D01*
G01*
%TO.C,D6*%
X168970000Y-192040000D02*
X168970000Y-186580000D01*
X168970000Y-186580000D02*
X138370000Y-186580000D01*
X138370000Y-186580000D02*
X138370000Y-199500000D01*
X138370000Y-199500000D02*
X168970000Y-199500000D01*
X168970000Y-199500000D02*
X168970000Y-194040000D01*
X169030000Y-184090000D02*
X138310000Y-184090000D01*
X138310000Y-184090000D02*
X138310000Y-201990000D01*
X138310000Y-201990000D02*
X169030000Y-201990000D01*
X169030000Y-201990000D02*
X169030000Y-184090000D01*
X168970000Y-194040000D02*
G75*
G02*
X168970000Y-192040000I0J1000000D01*
G01*
%TO.C,D5*%
X138370000Y-171180000D02*
X138370000Y-176640000D01*
X138370000Y-176640000D02*
X168970000Y-176640000D01*
X168970000Y-176640000D02*
X168970000Y-163720000D01*
X168970000Y-163720000D02*
X138370000Y-163720000D01*
X138370000Y-163720000D02*
X138370000Y-169180000D01*
X138310000Y-179130000D02*
X169030000Y-179130000D01*
X169030000Y-179130000D02*
X169030000Y-161230000D01*
X169030000Y-161230000D02*
X138310000Y-161230000D01*
X138310000Y-161230000D02*
X138310000Y-179130000D01*
X138370000Y-169180000D02*
G75*
G02*
X138370000Y-171180000I0J-1000000D01*
G01*
%TO.C,D4*%
X144510000Y-113090000D02*
X146160000Y-113090000D01*
X146160000Y-113090000D02*
X146160000Y-87570000D01*
X146160000Y-87570000D02*
X140860000Y-87570000D01*
X140860000Y-87570000D02*
X140860000Y-113090000D01*
X140860000Y-113090000D02*
X142510000Y-113090000D01*
X148650000Y-113150000D02*
X148650000Y-87510000D01*
X148650000Y-87510000D02*
X138370000Y-87510000D01*
X138370000Y-87510000D02*
X138370000Y-113150000D01*
X138370000Y-113150000D02*
X148650000Y-113150000D01*
X142510000Y-113090000D02*
G75*
G02*
X144510000Y-113090000I1000000J0D01*
G01*
%TO.C,D3*%
X157210000Y-118170000D02*
X158860000Y-118170000D01*
X158860000Y-118170000D02*
X158860000Y-92650000D01*
X158860000Y-92650000D02*
X153560000Y-92650000D01*
X153560000Y-92650000D02*
X153560000Y-118170000D01*
X153560000Y-118170000D02*
X155210000Y-118170000D01*
X161350000Y-118230000D02*
X161350000Y-92590000D01*
X161350000Y-92590000D02*
X151070000Y-92590000D01*
X151070000Y-92590000D02*
X151070000Y-118230000D01*
X151070000Y-118230000D02*
X161350000Y-118230000D01*
X155210000Y-118170000D02*
G75*
G02*
X157210000Y-118170000I1000000J0D01*
G01*
%TO.C,D2*%
X148530000Y-152130000D02*
X148530000Y-153780000D01*
X148530000Y-153780000D02*
X174050000Y-153780000D01*
X174050000Y-153780000D02*
X174050000Y-148480000D01*
X174050000Y-148480000D02*
X148530000Y-148480000D01*
X148530000Y-148480000D02*
X148530000Y-150130000D01*
X148470000Y-156270000D02*
X174110000Y-156270000D01*
X174110000Y-156270000D02*
X174110000Y-145990000D01*
X174110000Y-145990000D02*
X148470000Y-145990000D01*
X148470000Y-145990000D02*
X148470000Y-156270000D01*
X148530000Y-150130000D02*
G75*
G02*
X148530000Y-152130000I0J-1000000D01*
G01*
%TO.C,D1*%
X172450000Y-113090000D02*
X174100000Y-113090000D01*
X174100000Y-113090000D02*
X174100000Y-87570000D01*
X174100000Y-87570000D02*
X168800000Y-87570000D01*
X168800000Y-87570000D02*
X168800000Y-113090000D01*
X168800000Y-113090000D02*
X170450000Y-113090000D01*
X176590000Y-113150000D02*
X176590000Y-87510000D01*
X176590000Y-87510000D02*
X166310000Y-87510000D01*
X166310000Y-87510000D02*
X166310000Y-113150000D01*
X166310000Y-113150000D02*
X176590000Y-113150000D01*
X170450000Y-113090000D02*
G75*
G02*
X172450000Y-113090000I1000000J0D01*
G01*
%TO.C,D0*%
X82490000Y-60690000D02*
X82490000Y-62340000D01*
X82490000Y-62340000D02*
X102930000Y-62340000D01*
X102930000Y-62340000D02*
X102930000Y-57040000D01*
X102930000Y-57040000D02*
X82490000Y-57040000D01*
X82490000Y-57040000D02*
X82490000Y-58690000D01*
X82430000Y-64830000D02*
X102990000Y-64830000D01*
X102990000Y-64830000D02*
X102990000Y-54550000D01*
X102990000Y-54550000D02*
X82430000Y-54550000D01*
X82430000Y-54550000D02*
X82430000Y-64830000D01*
X82490000Y-58690000D02*
G75*
G02*
X82490000Y-60690000I0J-1000000D01*
G01*
%TO.C,R211*%
X117960000Y-132920000D02*
X117480000Y-132920000D01*
X117960000Y-139060000D02*
X117960000Y-132920000D01*
X117480000Y-139060000D02*
X117960000Y-139060000D01*
X115720000Y-132920000D02*
X116200000Y-132920000D01*
X115720000Y-139060000D02*
X115720000Y-132920000D01*
X116200000Y-139060000D02*
X115720000Y-139060000D01*
%TO.C,R210*%
X82700000Y-156640000D02*
X83180000Y-156640000D01*
X82700000Y-150500000D02*
X82700000Y-156640000D01*
X83180000Y-150500000D02*
X82700000Y-150500000D01*
X84940000Y-156640000D02*
X84460000Y-156640000D01*
X84940000Y-150500000D02*
X84940000Y-156640000D01*
X84460000Y-150500000D02*
X84940000Y-150500000D01*
%TO.C,R209*%
X85240000Y-154100000D02*
X85720000Y-154100000D01*
X85240000Y-147960000D02*
X85240000Y-154100000D01*
X85720000Y-147960000D02*
X85240000Y-147960000D01*
X87480000Y-154100000D02*
X87000000Y-154100000D01*
X87480000Y-147960000D02*
X87480000Y-154100000D01*
X87000000Y-147960000D02*
X87480000Y-147960000D01*
%TO.C,R208*%
X92280000Y-141120000D02*
X92280000Y-141600000D01*
X98420000Y-141120000D02*
X92280000Y-141120000D01*
X98420000Y-141600000D02*
X98420000Y-141120000D01*
X92280000Y-143360000D02*
X92280000Y-142880000D01*
X98420000Y-143360000D02*
X92280000Y-143360000D01*
X98420000Y-142880000D02*
X98420000Y-143360000D01*
%TO.C,R207*%
X99900000Y-138580000D02*
X99900000Y-139060000D01*
X106040000Y-138580000D02*
X99900000Y-138580000D01*
X106040000Y-139060000D02*
X106040000Y-138580000D01*
X99900000Y-140820000D02*
X99900000Y-140340000D01*
X106040000Y-140820000D02*
X99900000Y-140820000D01*
X106040000Y-140340000D02*
X106040000Y-140820000D01*
%TO.C,R206*%
X80160000Y-159180000D02*
X80640000Y-159180000D01*
X80160000Y-153040000D02*
X80160000Y-159180000D01*
X80640000Y-153040000D02*
X80160000Y-153040000D01*
X82400000Y-159180000D02*
X81920000Y-159180000D01*
X82400000Y-153040000D02*
X82400000Y-159180000D01*
X81920000Y-153040000D02*
X82400000Y-153040000D01*
%TO.C,R205*%
X88060000Y-191620000D02*
X88060000Y-191140000D01*
X81920000Y-191620000D02*
X88060000Y-191620000D01*
X81920000Y-191140000D02*
X81920000Y-191620000D01*
X88060000Y-189380000D02*
X88060000Y-189860000D01*
X81920000Y-189380000D02*
X88060000Y-189380000D01*
X81920000Y-189860000D02*
X81920000Y-189380000D01*
%TO.C,R204*%
X64620000Y-191140000D02*
X64140000Y-191140000D01*
X64620000Y-197280000D02*
X64620000Y-191140000D01*
X64140000Y-197280000D02*
X64620000Y-197280000D01*
X62380000Y-191140000D02*
X62860000Y-191140000D01*
X62380000Y-197280000D02*
X62380000Y-191140000D01*
X62860000Y-197280000D02*
X62380000Y-197280000D01*
%TO.C,R203*%
X87480000Y-196420000D02*
X87000000Y-196420000D01*
X87480000Y-202560000D02*
X87480000Y-196420000D01*
X87000000Y-202560000D02*
X87480000Y-202560000D01*
X85240000Y-196420000D02*
X85720000Y-196420000D01*
X85240000Y-202560000D02*
X85240000Y-196420000D01*
X85720000Y-202560000D02*
X85240000Y-202560000D01*
%TO.C,R202*%
X82700000Y-204900000D02*
X83180000Y-204900000D01*
X82700000Y-198760000D02*
X82700000Y-204900000D01*
X83180000Y-198760000D02*
X82700000Y-198760000D01*
X84940000Y-204900000D02*
X84460000Y-204900000D01*
X84940000Y-198760000D02*
X84940000Y-204900000D01*
X84460000Y-198760000D02*
X84940000Y-198760000D01*
%TO.C,R201*%
X80440000Y-194160000D02*
X80440000Y-193680000D01*
X74300000Y-194160000D02*
X80440000Y-194160000D01*
X74300000Y-193680000D02*
X74300000Y-194160000D01*
X80440000Y-191920000D02*
X80440000Y-192400000D01*
X74300000Y-191920000D02*
X80440000Y-191920000D01*
X74300000Y-192400000D02*
X74300000Y-191920000D01*
%TO.C,R200*%
X71960000Y-194460000D02*
X71960000Y-194940000D01*
X78100000Y-194460000D02*
X71960000Y-194460000D01*
X78100000Y-194940000D02*
X78100000Y-194460000D01*
X71960000Y-196700000D02*
X71960000Y-196220000D01*
X78100000Y-196700000D02*
X71960000Y-196700000D01*
X78100000Y-196220000D02*
X78100000Y-196700000D01*
%TO.C,R25*%
X112880000Y-59260000D02*
X112400000Y-59260000D01*
X112880000Y-65400000D02*
X112880000Y-59260000D01*
X112400000Y-65400000D02*
X112880000Y-65400000D01*
X110640000Y-59260000D02*
X111120000Y-59260000D01*
X110640000Y-65400000D02*
X110640000Y-59260000D01*
X111120000Y-65400000D02*
X110640000Y-65400000D01*
%TO.C,R15*%
X140820000Y-61800000D02*
X140340000Y-61800000D01*
X140820000Y-67940000D02*
X140820000Y-61800000D01*
X140340000Y-67940000D02*
X140820000Y-67940000D01*
X138580000Y-61800000D02*
X139060000Y-61800000D01*
X138580000Y-67940000D02*
X138580000Y-61800000D01*
X139060000Y-67940000D02*
X138580000Y-67940000D01*
%TO.C,R10*%
X150980000Y-61800000D02*
X150500000Y-61800000D01*
X150980000Y-67940000D02*
X150980000Y-61800000D01*
X150500000Y-67940000D02*
X150980000Y-67940000D01*
X148740000Y-61800000D02*
X149220000Y-61800000D01*
X148740000Y-67940000D02*
X148740000Y-61800000D01*
X149220000Y-67940000D02*
X148740000Y-67940000D01*
%TO.C,R5*%
X161140000Y-61800000D02*
X160660000Y-61800000D01*
X161140000Y-67940000D02*
X161140000Y-61800000D01*
X160660000Y-67940000D02*
X161140000Y-67940000D01*
X158900000Y-61800000D02*
X159380000Y-61800000D01*
X158900000Y-67940000D02*
X158900000Y-61800000D01*
X159380000Y-67940000D02*
X158900000Y-67940000D01*
%TO.C,X303*%
X134620000Y-135950000D02*
X133290000Y-135950000D01*
X133290000Y-135950000D02*
X133290000Y-134620000D01*
X133290000Y-133350000D02*
X133290000Y-62170000D01*
X135950000Y-62170000D02*
X133290000Y-62170000D01*
X135950000Y-133350000D02*
X135950000Y-62170000D01*
X135950000Y-133350000D02*
X133290000Y-133350000D01*
%TO.C,X302*%
X106680000Y-135950000D02*
X105350000Y-135950000D01*
X105350000Y-135950000D02*
X105350000Y-134620000D01*
X105350000Y-133350000D02*
X105350000Y-62170000D01*
X108010000Y-62170000D02*
X105350000Y-62170000D01*
X108010000Y-133350000D02*
X108010000Y-62170000D01*
X108010000Y-133350000D02*
X105350000Y-133350000D01*
%TO.C,X301*%
X162560000Y-135950000D02*
X161230000Y-135950000D01*
X161230000Y-135950000D02*
X161230000Y-134620000D01*
X161230000Y-133350000D02*
X161230000Y-62170000D01*
X163890000Y-62170000D02*
X161230000Y-62170000D01*
X163890000Y-133350000D02*
X163890000Y-62170000D01*
X163890000Y-133350000D02*
X161230000Y-133350000D01*
%TO.C,X300*%
X78740000Y-135950000D02*
X77410000Y-135950000D01*
X77410000Y-135950000D02*
X77410000Y-134620000D01*
X77410000Y-133350000D02*
X77410000Y-62170000D01*
X80070000Y-62170000D02*
X77410000Y-62170000D01*
X80070000Y-133350000D02*
X80070000Y-62170000D01*
X80070000Y-133350000D02*
X77410000Y-133350000D01*
%TO.C,X204*%
X49530000Y-168910000D02*
X48260000Y-168910000D01*
X49530000Y-167640000D02*
X49530000Y-168910000D01*
X47150000Y-167260000D02*
X46820000Y-167260000D01*
X47150000Y-168020000D02*
X46820000Y-168020000D01*
X44160000Y-167360000D02*
X38160000Y-167360000D01*
X44160000Y-167480000D02*
X38160000Y-167480000D01*
X44160000Y-167600000D02*
X38160000Y-167600000D01*
X44160000Y-167720000D02*
X38160000Y-167720000D01*
X44160000Y-167840000D02*
X38160000Y-167840000D01*
X44160000Y-167960000D02*
X38160000Y-167960000D01*
X38160000Y-167260000D02*
X44160000Y-167260000D01*
X38160000Y-168020000D02*
X38160000Y-167260000D01*
X44160000Y-168020000D02*
X38160000Y-168020000D01*
X44160000Y-168970000D02*
X46820000Y-168970000D01*
X44160000Y-166310000D02*
X44160000Y-168970000D01*
X46820000Y-166310000D02*
X44160000Y-166310000D01*
X46820000Y-168970000D02*
X46820000Y-166310000D01*
%TO.C,X203*%
X59630000Y-161230000D02*
X60960000Y-161230000D01*
X59630000Y-162560000D02*
X59630000Y-161230000D01*
X59630000Y-163830000D02*
X62290000Y-163830000D01*
X62290000Y-163830000D02*
X62290000Y-176590000D01*
X59630000Y-163830000D02*
X59630000Y-176590000D01*
X59630000Y-176590000D02*
X62290000Y-176590000D01*
%TO.C,X201*%
X49530000Y-181610000D02*
X48260000Y-181610000D01*
X49530000Y-180340000D02*
X49530000Y-181610000D01*
X47150000Y-179960000D02*
X46820000Y-179960000D01*
X47150000Y-180720000D02*
X46820000Y-180720000D01*
X44160000Y-180060000D02*
X38160000Y-180060000D01*
X44160000Y-180180000D02*
X38160000Y-180180000D01*
X44160000Y-180300000D02*
X38160000Y-180300000D01*
X44160000Y-180420000D02*
X38160000Y-180420000D01*
X44160000Y-180540000D02*
X38160000Y-180540000D01*
X44160000Y-180660000D02*
X38160000Y-180660000D01*
X38160000Y-179960000D02*
X44160000Y-179960000D01*
X38160000Y-180720000D02*
X38160000Y-179960000D01*
X44160000Y-180720000D02*
X38160000Y-180720000D01*
X44160000Y-181670000D02*
X46820000Y-181670000D01*
X44160000Y-179010000D02*
X44160000Y-181670000D01*
X46820000Y-179010000D02*
X44160000Y-179010000D01*
X46820000Y-181670000D02*
X46820000Y-179010000D01*
%TO.C,X200*%
X49530000Y-138430000D02*
X48260000Y-138430000D01*
X49530000Y-137160000D02*
X49530000Y-138430000D01*
X47217071Y-65660000D02*
X46820000Y-65660000D01*
X47217071Y-66420000D02*
X46820000Y-66420000D01*
X38160000Y-65660000D02*
X44160000Y-65660000D01*
X38160000Y-66420000D02*
X38160000Y-65660000D01*
X44160000Y-66420000D02*
X38160000Y-66420000D01*
X46820000Y-67310000D02*
X44160000Y-67310000D01*
X47217071Y-68200000D02*
X46820000Y-68200000D01*
X47217071Y-68960000D02*
X46820000Y-68960000D01*
X38160000Y-68200000D02*
X44160000Y-68200000D01*
X38160000Y-68960000D02*
X38160000Y-68200000D01*
X44160000Y-68960000D02*
X38160000Y-68960000D01*
X46820000Y-69850000D02*
X44160000Y-69850000D01*
X47217071Y-70740000D02*
X46820000Y-70740000D01*
X47217071Y-71500000D02*
X46820000Y-71500000D01*
X38160000Y-70740000D02*
X44160000Y-70740000D01*
X38160000Y-71500000D02*
X38160000Y-70740000D01*
X44160000Y-71500000D02*
X38160000Y-71500000D01*
X46820000Y-72390000D02*
X44160000Y-72390000D01*
X47217071Y-73280000D02*
X46820000Y-73280000D01*
X47217071Y-74040000D02*
X46820000Y-74040000D01*
X38160000Y-73280000D02*
X44160000Y-73280000D01*
X38160000Y-74040000D02*
X38160000Y-73280000D01*
X44160000Y-74040000D02*
X38160000Y-74040000D01*
X46820000Y-74930000D02*
X44160000Y-74930000D01*
X47217071Y-75820000D02*
X46820000Y-75820000D01*
X47217071Y-76580000D02*
X46820000Y-76580000D01*
X38160000Y-75820000D02*
X44160000Y-75820000D01*
X38160000Y-76580000D02*
X38160000Y-75820000D01*
X44160000Y-76580000D02*
X38160000Y-76580000D01*
X46820000Y-77470000D02*
X44160000Y-77470000D01*
X47217071Y-78360000D02*
X46820000Y-78360000D01*
X47217071Y-79120000D02*
X46820000Y-79120000D01*
X38160000Y-78360000D02*
X44160000Y-78360000D01*
X38160000Y-79120000D02*
X38160000Y-78360000D01*
X44160000Y-79120000D02*
X38160000Y-79120000D01*
X46820000Y-80010000D02*
X44160000Y-80010000D01*
X47217071Y-80900000D02*
X46820000Y-80900000D01*
X47217071Y-81660000D02*
X46820000Y-81660000D01*
X38160000Y-80900000D02*
X44160000Y-80900000D01*
X38160000Y-81660000D02*
X38160000Y-80900000D01*
X44160000Y-81660000D02*
X38160000Y-81660000D01*
X46820000Y-82550000D02*
X44160000Y-82550000D01*
X47217071Y-83440000D02*
X46820000Y-83440000D01*
X47217071Y-84200000D02*
X46820000Y-84200000D01*
X38160000Y-83440000D02*
X44160000Y-83440000D01*
X38160000Y-84200000D02*
X38160000Y-83440000D01*
X44160000Y-84200000D02*
X38160000Y-84200000D01*
X46820000Y-85090000D02*
X44160000Y-85090000D01*
X47217071Y-85980000D02*
X46820000Y-85980000D01*
X47217071Y-86740000D02*
X46820000Y-86740000D01*
X38160000Y-85980000D02*
X44160000Y-85980000D01*
X38160000Y-86740000D02*
X38160000Y-85980000D01*
X44160000Y-86740000D02*
X38160000Y-86740000D01*
X46820000Y-87630000D02*
X44160000Y-87630000D01*
X47217071Y-88520000D02*
X46820000Y-88520000D01*
X47217071Y-89280000D02*
X46820000Y-89280000D01*
X38160000Y-88520000D02*
X44160000Y-88520000D01*
X38160000Y-89280000D02*
X38160000Y-88520000D01*
X44160000Y-89280000D02*
X38160000Y-89280000D01*
X46820000Y-90170000D02*
X44160000Y-90170000D01*
X47217071Y-91060000D02*
X46820000Y-91060000D01*
X47217071Y-91820000D02*
X46820000Y-91820000D01*
X38160000Y-91060000D02*
X44160000Y-91060000D01*
X38160000Y-91820000D02*
X38160000Y-91060000D01*
X44160000Y-91820000D02*
X38160000Y-91820000D01*
X46820000Y-92710000D02*
X44160000Y-92710000D01*
X47217071Y-93600000D02*
X46820000Y-93600000D01*
X47217071Y-94360000D02*
X46820000Y-94360000D01*
X38160000Y-93600000D02*
X44160000Y-93600000D01*
X38160000Y-94360000D02*
X38160000Y-93600000D01*
X44160000Y-94360000D02*
X38160000Y-94360000D01*
X46820000Y-95250000D02*
X44160000Y-95250000D01*
X47217071Y-96140000D02*
X46820000Y-96140000D01*
X47217071Y-96900000D02*
X46820000Y-96900000D01*
X38160000Y-96140000D02*
X44160000Y-96140000D01*
X38160000Y-96900000D02*
X38160000Y-96140000D01*
X44160000Y-96900000D02*
X38160000Y-96900000D01*
X46820000Y-97790000D02*
X44160000Y-97790000D01*
X47217071Y-98680000D02*
X46820000Y-98680000D01*
X47217071Y-99440000D02*
X46820000Y-99440000D01*
X38160000Y-98680000D02*
X44160000Y-98680000D01*
X38160000Y-99440000D02*
X38160000Y-98680000D01*
X44160000Y-99440000D02*
X38160000Y-99440000D01*
X46820000Y-100330000D02*
X44160000Y-100330000D01*
X47217071Y-101220000D02*
X46820000Y-101220000D01*
X47217071Y-101980000D02*
X46820000Y-101980000D01*
X38160000Y-101220000D02*
X44160000Y-101220000D01*
X38160000Y-101980000D02*
X38160000Y-101220000D01*
X44160000Y-101980000D02*
X38160000Y-101980000D01*
X46820000Y-102870000D02*
X44160000Y-102870000D01*
X47217071Y-103760000D02*
X46820000Y-103760000D01*
X47217071Y-104520000D02*
X46820000Y-104520000D01*
X38160000Y-103760000D02*
X44160000Y-103760000D01*
X38160000Y-104520000D02*
X38160000Y-103760000D01*
X44160000Y-104520000D02*
X38160000Y-104520000D01*
X46820000Y-105410000D02*
X44160000Y-105410000D01*
X47217071Y-106300000D02*
X46820000Y-106300000D01*
X47217071Y-107060000D02*
X46820000Y-107060000D01*
X38160000Y-106300000D02*
X44160000Y-106300000D01*
X38160000Y-107060000D02*
X38160000Y-106300000D01*
X44160000Y-107060000D02*
X38160000Y-107060000D01*
X46820000Y-107950000D02*
X44160000Y-107950000D01*
X47217071Y-108840000D02*
X46820000Y-108840000D01*
X47217071Y-109600000D02*
X46820000Y-109600000D01*
X38160000Y-108840000D02*
X44160000Y-108840000D01*
X38160000Y-109600000D02*
X38160000Y-108840000D01*
X44160000Y-109600000D02*
X38160000Y-109600000D01*
X46820000Y-110490000D02*
X44160000Y-110490000D01*
X47217071Y-111380000D02*
X46820000Y-111380000D01*
X47217071Y-112140000D02*
X46820000Y-112140000D01*
X38160000Y-111380000D02*
X44160000Y-111380000D01*
X38160000Y-112140000D02*
X38160000Y-111380000D01*
X44160000Y-112140000D02*
X38160000Y-112140000D01*
X46820000Y-113030000D02*
X44160000Y-113030000D01*
X47217071Y-113920000D02*
X46820000Y-113920000D01*
X47217071Y-114680000D02*
X46820000Y-114680000D01*
X38160000Y-113920000D02*
X44160000Y-113920000D01*
X38160000Y-114680000D02*
X38160000Y-113920000D01*
X44160000Y-114680000D02*
X38160000Y-114680000D01*
X46820000Y-115570000D02*
X44160000Y-115570000D01*
X47217071Y-116460000D02*
X46820000Y-116460000D01*
X47217071Y-117220000D02*
X46820000Y-117220000D01*
X38160000Y-116460000D02*
X44160000Y-116460000D01*
X38160000Y-117220000D02*
X38160000Y-116460000D01*
X44160000Y-117220000D02*
X38160000Y-117220000D01*
X46820000Y-118110000D02*
X44160000Y-118110000D01*
X47217071Y-119000000D02*
X46820000Y-119000000D01*
X47217071Y-119760000D02*
X46820000Y-119760000D01*
X38160000Y-119000000D02*
X44160000Y-119000000D01*
X38160000Y-119760000D02*
X38160000Y-119000000D01*
X44160000Y-119760000D02*
X38160000Y-119760000D01*
X46820000Y-120650000D02*
X44160000Y-120650000D01*
X47217071Y-121540000D02*
X46820000Y-121540000D01*
X47217071Y-122300000D02*
X46820000Y-122300000D01*
X38160000Y-121540000D02*
X44160000Y-121540000D01*
X38160000Y-122300000D02*
X38160000Y-121540000D01*
X44160000Y-122300000D02*
X38160000Y-122300000D01*
X46820000Y-123190000D02*
X44160000Y-123190000D01*
X47217071Y-124080000D02*
X46820000Y-124080000D01*
X47217071Y-124840000D02*
X46820000Y-124840000D01*
X38160000Y-124080000D02*
X44160000Y-124080000D01*
X38160000Y-124840000D02*
X38160000Y-124080000D01*
X44160000Y-124840000D02*
X38160000Y-124840000D01*
X46820000Y-125730000D02*
X44160000Y-125730000D01*
X47217071Y-126620000D02*
X46820000Y-126620000D01*
X47217071Y-127380000D02*
X46820000Y-127380000D01*
X38160000Y-126620000D02*
X44160000Y-126620000D01*
X38160000Y-127380000D02*
X38160000Y-126620000D01*
X44160000Y-127380000D02*
X38160000Y-127380000D01*
X46820000Y-128270000D02*
X44160000Y-128270000D01*
X47217071Y-129160000D02*
X46820000Y-129160000D01*
X47217071Y-129920000D02*
X46820000Y-129920000D01*
X38160000Y-129160000D02*
X44160000Y-129160000D01*
X38160000Y-129920000D02*
X38160000Y-129160000D01*
X44160000Y-129920000D02*
X38160000Y-129920000D01*
X46820000Y-130810000D02*
X44160000Y-130810000D01*
X47217071Y-131700000D02*
X46820000Y-131700000D01*
X47217071Y-132460000D02*
X46820000Y-132460000D01*
X38160000Y-131700000D02*
X44160000Y-131700000D01*
X38160000Y-132460000D02*
X38160000Y-131700000D01*
X44160000Y-132460000D02*
X38160000Y-132460000D01*
X46820000Y-133350000D02*
X44160000Y-133350000D01*
X47217071Y-134240000D02*
X46820000Y-134240000D01*
X47217071Y-135000000D02*
X46820000Y-135000000D01*
X38160000Y-134240000D02*
X44160000Y-134240000D01*
X38160000Y-135000000D02*
X38160000Y-134240000D01*
X44160000Y-135000000D02*
X38160000Y-135000000D01*
X46820000Y-135890000D02*
X44160000Y-135890000D01*
X47150000Y-136780000D02*
X46820000Y-136780000D01*
X47150000Y-137540000D02*
X46820000Y-137540000D01*
X44160000Y-136880000D02*
X38160000Y-136880000D01*
X44160000Y-137000000D02*
X38160000Y-137000000D01*
X44160000Y-137120000D02*
X38160000Y-137120000D01*
X44160000Y-137240000D02*
X38160000Y-137240000D01*
X44160000Y-137360000D02*
X38160000Y-137360000D01*
X44160000Y-137480000D02*
X38160000Y-137480000D01*
X38160000Y-136780000D02*
X44160000Y-136780000D01*
X38160000Y-137540000D02*
X38160000Y-136780000D01*
X44160000Y-137540000D02*
X38160000Y-137540000D01*
X44160000Y-138490000D02*
X46820000Y-138490000D01*
X44160000Y-64710000D02*
X44160000Y-138490000D01*
X46820000Y-64710000D02*
X44160000Y-64710000D01*
X46820000Y-138490000D02*
X46820000Y-64710000D01*
%TO.C,R26*%
X105335225Y-52368620D02*
G75*
G02*
X105226728Y-54140000I1344775J-971380D01*
G01*
%TO.C,R24*%
X115868620Y-62304775D02*
G75*
G02*
X117640000Y-62413272I971380J1344775D01*
G01*
%TO.C,R23*%
X120351380Y-62155225D02*
G75*
G02*
X118580000Y-62046728I-971380J-1344775D01*
G01*
%TO.C,R22*%
X120351380Y-57075225D02*
G75*
G02*
X118580000Y-56966728I-971380J-1344775D01*
G01*
%TO.C,R19*%
X126028620Y-62304775D02*
G75*
G02*
X127800000Y-62413272I971380J1344775D01*
G01*
%TO.C,R18*%
X130511380Y-62155225D02*
G75*
G02*
X128740000Y-62046728I-971380J-1344775D01*
G01*
%TO.C,R17*%
X130511380Y-57075225D02*
G75*
G02*
X128740000Y-56966728I-971380J-1344775D01*
G01*
%TO.C,R14*%
X143808620Y-62304775D02*
G75*
G02*
X145580000Y-62413272I971380J1344775D01*
G01*
%TO.C,R13*%
X148291380Y-62155225D02*
G75*
G02*
X146520000Y-62046728I-971380J-1344775D01*
G01*
%TO.C,R12*%
X148291380Y-57075225D02*
G75*
G02*
X146520000Y-56966728I-971380J-1344775D01*
G01*
%TO.C,R9*%
X153968620Y-62304775D02*
G75*
G02*
X155740000Y-62413272I971380J1344775D01*
G01*
%TO.C,R8*%
X158451380Y-62155225D02*
G75*
G02*
X156680000Y-62046728I-971380J-1344775D01*
G01*
%TO.C,R7*%
X158451380Y-57075225D02*
G75*
G02*
X156680000Y-56966728I-971380J-1344775D01*
G01*
%TO.C,R4*%
X166668620Y-62304775D02*
G75*
G02*
X168440000Y-62413272I971380J1344775D01*
G01*
%TO.C,R3*%
X171151380Y-62155225D02*
G75*
G02*
X169380000Y-62046728I-971380J-1344775D01*
G01*
%TO.C,R2*%
X171151380Y-57075225D02*
G75*
G02*
X169380000Y-56966728I-971380J-1344775D01*
G01*
%TO.C,C201*%
X82584775Y-204925000D02*
X82584775Y-204425000D01*
X82834775Y-204675000D02*
X82334775Y-204675000D01*
X77429000Y-203484000D02*
X77429000Y-202916000D01*
X77469000Y-203718000D02*
X77469000Y-202682000D01*
X77509000Y-203877000D02*
X77509000Y-202523000D01*
X77549000Y-204005000D02*
X77549000Y-202395000D01*
X77589000Y-204115000D02*
X77589000Y-202285000D01*
X77629000Y-204211000D02*
X77629000Y-202189000D01*
X77669000Y-204298000D02*
X77669000Y-202102000D01*
X77709000Y-204378000D02*
X77709000Y-202022000D01*
X77749000Y-202160000D02*
X77749000Y-201949000D01*
X77749000Y-204451000D02*
X77749000Y-204240000D01*
X77789000Y-202160000D02*
X77789000Y-201881000D01*
X77789000Y-204519000D02*
X77789000Y-204240000D01*
X77829000Y-202160000D02*
X77829000Y-201817000D01*
X77829000Y-204583000D02*
X77829000Y-204240000D01*
X77869000Y-202160000D02*
X77869000Y-201757000D01*
X77869000Y-204643000D02*
X77869000Y-204240000D01*
X77909000Y-202160000D02*
X77909000Y-201700000D01*
X77909000Y-204700000D02*
X77909000Y-204240000D01*
X77949000Y-202160000D02*
X77949000Y-201646000D01*
X77949000Y-204754000D02*
X77949000Y-204240000D01*
X77989000Y-202160000D02*
X77989000Y-201595000D01*
X77989000Y-204805000D02*
X77989000Y-204240000D01*
X78029000Y-202160000D02*
X78029000Y-201547000D01*
X78029000Y-204853000D02*
X78029000Y-204240000D01*
X78069000Y-202160000D02*
X78069000Y-201501000D01*
X78069000Y-204899000D02*
X78069000Y-204240000D01*
X78109000Y-202160000D02*
X78109000Y-201457000D01*
X78109000Y-204943000D02*
X78109000Y-204240000D01*
X78149000Y-202160000D02*
X78149000Y-201415000D01*
X78149000Y-204985000D02*
X78149000Y-204240000D01*
X78189000Y-202160000D02*
X78189000Y-201374000D01*
X78189000Y-205026000D02*
X78189000Y-204240000D01*
X78229000Y-202160000D02*
X78229000Y-201336000D01*
X78229000Y-205064000D02*
X78229000Y-204240000D01*
X78269000Y-202160000D02*
X78269000Y-201299000D01*
X78269000Y-205101000D02*
X78269000Y-204240000D01*
X78309000Y-202160000D02*
X78309000Y-201263000D01*
X78309000Y-205137000D02*
X78309000Y-204240000D01*
X78349000Y-202160000D02*
X78349000Y-201229000D01*
X78349000Y-205171000D02*
X78349000Y-204240000D01*
X78389000Y-202160000D02*
X78389000Y-201196000D01*
X78389000Y-205204000D02*
X78389000Y-204240000D01*
X78429000Y-202160000D02*
X78429000Y-201165000D01*
X78429000Y-205235000D02*
X78429000Y-204240000D01*
X78469000Y-202160000D02*
X78469000Y-201135000D01*
X78469000Y-205265000D02*
X78469000Y-204240000D01*
X78509000Y-202160000D02*
X78509000Y-201105000D01*
X78509000Y-205295000D02*
X78509000Y-204240000D01*
X78549000Y-202160000D02*
X78549000Y-201078000D01*
X78549000Y-205322000D02*
X78549000Y-204240000D01*
X78589000Y-202160000D02*
X78589000Y-201051000D01*
X78589000Y-205349000D02*
X78589000Y-204240000D01*
X78629000Y-202160000D02*
X78629000Y-201025000D01*
X78629000Y-205375000D02*
X78629000Y-204240000D01*
X78669000Y-202160000D02*
X78669000Y-201000000D01*
X78669000Y-205400000D02*
X78669000Y-204240000D01*
X78709000Y-202160000D02*
X78709000Y-200976000D01*
X78709000Y-205424000D02*
X78709000Y-204240000D01*
X78749000Y-202160000D02*
X78749000Y-200953000D01*
X78749000Y-205447000D02*
X78749000Y-204240000D01*
X78789000Y-202160000D02*
X78789000Y-200932000D01*
X78789000Y-205468000D02*
X78789000Y-204240000D01*
X78829000Y-202160000D02*
X78829000Y-200910000D01*
X78829000Y-205490000D02*
X78829000Y-204240000D01*
X78869000Y-202160000D02*
X78869000Y-200890000D01*
X78869000Y-205510000D02*
X78869000Y-204240000D01*
X78909000Y-202160000D02*
X78909000Y-200871000D01*
X78909000Y-205529000D02*
X78909000Y-204240000D01*
X78949000Y-202160000D02*
X78949000Y-200852000D01*
X78949000Y-205548000D02*
X78949000Y-204240000D01*
X78989000Y-202160000D02*
X78989000Y-200835000D01*
X78989000Y-205565000D02*
X78989000Y-204240000D01*
X79029000Y-202160000D02*
X79029000Y-200818000D01*
X79029000Y-205582000D02*
X79029000Y-204240000D01*
X79069000Y-202160000D02*
X79069000Y-200802000D01*
X79069000Y-205598000D02*
X79069000Y-204240000D01*
X79109000Y-202160000D02*
X79109000Y-200786000D01*
X79109000Y-205614000D02*
X79109000Y-204240000D01*
X79149000Y-202160000D02*
X79149000Y-200772000D01*
X79149000Y-205628000D02*
X79149000Y-204240000D01*
X79189000Y-202160000D02*
X79189000Y-200758000D01*
X79189000Y-205642000D02*
X79189000Y-204240000D01*
X79229000Y-202160000D02*
X79229000Y-200745000D01*
X79229000Y-205655000D02*
X79229000Y-204240000D01*
X79269000Y-202160000D02*
X79269000Y-200732000D01*
X79269000Y-205668000D02*
X79269000Y-204240000D01*
X79309000Y-202160000D02*
X79309000Y-200720000D01*
X79309000Y-205680000D02*
X79309000Y-204240000D01*
X79350000Y-202160000D02*
X79350000Y-200709000D01*
X79350000Y-205691000D02*
X79350000Y-204240000D01*
X79390000Y-202160000D02*
X79390000Y-200699000D01*
X79390000Y-205701000D02*
X79390000Y-204240000D01*
X79430000Y-202160000D02*
X79430000Y-200689000D01*
X79430000Y-205711000D02*
X79430000Y-204240000D01*
X79470000Y-202160000D02*
X79470000Y-200680000D01*
X79470000Y-205720000D02*
X79470000Y-204240000D01*
X79510000Y-202160000D02*
X79510000Y-200672000D01*
X79510000Y-205728000D02*
X79510000Y-204240000D01*
X79550000Y-202160000D02*
X79550000Y-200664000D01*
X79550000Y-205736000D02*
X79550000Y-204240000D01*
X79590000Y-202160000D02*
X79590000Y-200657000D01*
X79590000Y-205743000D02*
X79590000Y-204240000D01*
X79630000Y-202160000D02*
X79630000Y-200650000D01*
X79630000Y-205750000D02*
X79630000Y-204240000D01*
X79670000Y-202160000D02*
X79670000Y-200644000D01*
X79670000Y-205756000D02*
X79670000Y-204240000D01*
X79710000Y-202160000D02*
X79710000Y-200639000D01*
X79710000Y-205761000D02*
X79710000Y-204240000D01*
X79750000Y-202160000D02*
X79750000Y-200635000D01*
X79750000Y-205765000D02*
X79750000Y-204240000D01*
X79790000Y-202160000D02*
X79790000Y-200631000D01*
X79790000Y-205769000D02*
X79790000Y-204240000D01*
X79830000Y-205773000D02*
X79830000Y-200627000D01*
X79870000Y-205776000D02*
X79870000Y-200624000D01*
X79910000Y-205778000D02*
X79910000Y-200622000D01*
X79950000Y-205779000D02*
X79950000Y-200621000D01*
X79990000Y-205780000D02*
X79990000Y-200620000D01*
X80030000Y-205780000D02*
X80030000Y-200620000D01*
X82650000Y-203200000D02*
G75*
G03*
X82650000Y-203200000I-2620000J0D01*
G01*
%TO.C,C200*%
X67095000Y-193150000D02*
X67410000Y-193150000D01*
X64670000Y-193150000D02*
X64985000Y-193150000D01*
X67095000Y-198090000D02*
X67410000Y-198090000D01*
X64670000Y-198090000D02*
X64985000Y-198090000D01*
X67410000Y-198090000D02*
X67410000Y-193150000D01*
X64670000Y-198090000D02*
X64670000Y-193150000D01*
%TO.C,C21*%
X120710000Y-51970000D02*
X120710000Y-54710000D01*
X115470000Y-51970000D02*
X115470000Y-54710000D01*
X115470000Y-54710000D02*
X120710000Y-54710000D01*
X115470000Y-51970000D02*
X120710000Y-51970000D01*
%TO.C,C16*%
X130870000Y-51970000D02*
X130870000Y-54710000D01*
X125630000Y-51970000D02*
X125630000Y-54710000D01*
X125630000Y-54710000D02*
X130870000Y-54710000D01*
X125630000Y-51970000D02*
X130870000Y-51970000D01*
%TO.C,C11*%
X148650000Y-51970000D02*
X148650000Y-54710000D01*
X143410000Y-51970000D02*
X143410000Y-54710000D01*
X143410000Y-54710000D02*
X148650000Y-54710000D01*
X143410000Y-51970000D02*
X148650000Y-51970000D01*
%TO.C,C6*%
X158810000Y-51970000D02*
X158810000Y-54710000D01*
X153570000Y-51970000D02*
X153570000Y-54710000D01*
X153570000Y-54710000D02*
X158810000Y-54710000D01*
X153570000Y-51970000D02*
X158810000Y-51970000D01*
%TO.C,C1*%
X171510000Y-51970000D02*
X171510000Y-54710000D01*
X166270000Y-51970000D02*
X166270000Y-54710000D01*
X166270000Y-54710000D02*
X171510000Y-54710000D01*
X166270000Y-51970000D02*
X171510000Y-51970000D01*
%TO.C,VD201*%
D10*
X72668095Y-208367380D02*
X73001428Y-209367380D01*
X73334761Y-208367380D01*
X73668095Y-209367380D02*
X73668095Y-208367380D01*
X73906190Y-208367380D01*
X74049047Y-208415000D01*
X74144285Y-208510238D01*
X74191904Y-208605476D01*
X74239523Y-208795952D01*
X74239523Y-208938809D01*
X74191904Y-209129285D01*
X74144285Y-209224523D01*
X74049047Y-209319761D01*
X73906190Y-209367380D01*
X73668095Y-209367380D01*
X74620476Y-208462619D02*
X74668095Y-208415000D01*
X74763333Y-208367380D01*
X75001428Y-208367380D01*
X75096666Y-208415000D01*
X75144285Y-208462619D01*
X75191904Y-208557857D01*
X75191904Y-208653095D01*
X75144285Y-208795952D01*
X74572857Y-209367380D01*
X75191904Y-209367380D01*
X75810952Y-208367380D02*
X75906190Y-208367380D01*
X76001428Y-208415000D01*
X76049047Y-208462619D01*
X76096666Y-208557857D01*
X76144285Y-208748333D01*
X76144285Y-208986428D01*
X76096666Y-209176904D01*
X76049047Y-209272142D01*
X76001428Y-209319761D01*
X75906190Y-209367380D01*
X75810952Y-209367380D01*
X75715714Y-209319761D01*
X75668095Y-209272142D01*
X75620476Y-209176904D01*
X75572857Y-208986428D01*
X75572857Y-208748333D01*
X75620476Y-208557857D01*
X75668095Y-208462619D01*
X75715714Y-208415000D01*
X75810952Y-208367380D01*
X77096666Y-209367380D02*
X76525238Y-209367380D01*
X76810952Y-209367380D02*
X76810952Y-208367380D01*
X76715714Y-208510238D01*
X76620476Y-208605476D01*
X76525238Y-208653095D01*
X70858095Y-204442380D02*
X70858095Y-203442380D01*
X71429523Y-204442380D02*
X71000952Y-203870952D01*
X71429523Y-203442380D02*
X70858095Y-204013809D01*
%TO.C,C18*%
X109085142Y-197969142D02*
X109037523Y-198016761D01*
X108894666Y-198064380D01*
X108799428Y-198064380D01*
X108656571Y-198016761D01*
X108561333Y-197921523D01*
X108513714Y-197826285D01*
X108466095Y-197635809D01*
X108466095Y-197492952D01*
X108513714Y-197302476D01*
X108561333Y-197207238D01*
X108656571Y-197112000D01*
X108799428Y-197064380D01*
X108894666Y-197064380D01*
X109037523Y-197112000D01*
X109085142Y-197159619D01*
X110037523Y-198064380D02*
X109466095Y-198064380D01*
X109751809Y-198064380D02*
X109751809Y-197064380D01*
X109656571Y-197207238D01*
X109561333Y-197302476D01*
X109466095Y-197350095D01*
X110608952Y-197492952D02*
X110513714Y-197445333D01*
X110466095Y-197397714D01*
X110418476Y-197302476D01*
X110418476Y-197254857D01*
X110466095Y-197159619D01*
X110513714Y-197112000D01*
X110608952Y-197064380D01*
X110799428Y-197064380D01*
X110894666Y-197112000D01*
X110942285Y-197159619D01*
X110989904Y-197254857D01*
X110989904Y-197302476D01*
X110942285Y-197397714D01*
X110894666Y-197445333D01*
X110799428Y-197492952D01*
X110608952Y-197492952D01*
X110513714Y-197540571D01*
X110466095Y-197588190D01*
X110418476Y-197683428D01*
X110418476Y-197873904D01*
X110466095Y-197969142D01*
X110513714Y-198016761D01*
X110608952Y-198064380D01*
X110799428Y-198064380D01*
X110894666Y-198016761D01*
X110942285Y-197969142D01*
X110989904Y-197873904D01*
X110989904Y-197683428D01*
X110942285Y-197588190D01*
X110894666Y-197540571D01*
X110799428Y-197492952D01*
%TO.C,C24*%
X69969142Y-200527142D02*
X69921523Y-200574761D01*
X69778666Y-200622380D01*
X69683428Y-200622380D01*
X69540571Y-200574761D01*
X69445333Y-200479523D01*
X69397714Y-200384285D01*
X69350095Y-200193809D01*
X69350095Y-200050952D01*
X69397714Y-199860476D01*
X69445333Y-199765238D01*
X69540571Y-199670000D01*
X69683428Y-199622380D01*
X69778666Y-199622380D01*
X69921523Y-199670000D01*
X69969142Y-199717619D01*
X70350095Y-199717619D02*
X70397714Y-199670000D01*
X70492952Y-199622380D01*
X70731047Y-199622380D01*
X70826285Y-199670000D01*
X70873904Y-199717619D01*
X70921523Y-199812857D01*
X70921523Y-199908095D01*
X70873904Y-200050952D01*
X70302476Y-200622380D01*
X70921523Y-200622380D01*
X71778666Y-199955714D02*
X71778666Y-200622380D01*
X71540571Y-199574761D02*
X71302476Y-200289047D01*
X71921523Y-200289047D01*
%TO.C,C22*%
X174657142Y-187977142D02*
X174609523Y-188024761D01*
X174466666Y-188072380D01*
X174371428Y-188072380D01*
X174228571Y-188024761D01*
X174133333Y-187929523D01*
X174085714Y-187834285D01*
X174038095Y-187643809D01*
X174038095Y-187500952D01*
X174085714Y-187310476D01*
X174133333Y-187215238D01*
X174228571Y-187120000D01*
X174371428Y-187072380D01*
X174466666Y-187072380D01*
X174609523Y-187120000D01*
X174657142Y-187167619D01*
X175038095Y-187167619D02*
X175085714Y-187120000D01*
X175180952Y-187072380D01*
X175419047Y-187072380D01*
X175514285Y-187120000D01*
X175561904Y-187167619D01*
X175609523Y-187262857D01*
X175609523Y-187358095D01*
X175561904Y-187500952D01*
X174990476Y-188072380D01*
X175609523Y-188072380D01*
X175990476Y-187167619D02*
X176038095Y-187120000D01*
X176133333Y-187072380D01*
X176371428Y-187072380D01*
X176466666Y-187120000D01*
X176514285Y-187167619D01*
X176561904Y-187262857D01*
X176561904Y-187358095D01*
X176514285Y-187500952D01*
X175942857Y-188072380D01*
X176561904Y-188072380D01*
%TO.C,C20*%
X176649142Y-153773142D02*
X176601523Y-153820761D01*
X176458666Y-153868380D01*
X176363428Y-153868380D01*
X176220571Y-153820761D01*
X176125333Y-153725523D01*
X176077714Y-153630285D01*
X176030095Y-153439809D01*
X176030095Y-153296952D01*
X176077714Y-153106476D01*
X176125333Y-153011238D01*
X176220571Y-152916000D01*
X176363428Y-152868380D01*
X176458666Y-152868380D01*
X176601523Y-152916000D01*
X176649142Y-152963619D01*
X177030095Y-152963619D02*
X177077714Y-152916000D01*
X177172952Y-152868380D01*
X177411047Y-152868380D01*
X177506285Y-152916000D01*
X177553904Y-152963619D01*
X177601523Y-153058857D01*
X177601523Y-153154095D01*
X177553904Y-153296952D01*
X176982476Y-153868380D01*
X177601523Y-153868380D01*
X178220571Y-152868380D02*
X178315809Y-152868380D01*
X178411047Y-152916000D01*
X178458666Y-152963619D01*
X178506285Y-153058857D01*
X178553904Y-153249333D01*
X178553904Y-153487428D01*
X178506285Y-153677904D01*
X178458666Y-153773142D01*
X178411047Y-153820761D01*
X178315809Y-153868380D01*
X178220571Y-153868380D01*
X178125333Y-153820761D01*
X178077714Y-153773142D01*
X178030095Y-153677904D01*
X177982476Y-153487428D01*
X177982476Y-153249333D01*
X178030095Y-153058857D01*
X178077714Y-152963619D01*
X178125333Y-152916000D01*
X178220571Y-152868380D01*
%TO.C,C23*%
X174657142Y-195597142D02*
X174609523Y-195644761D01*
X174466666Y-195692380D01*
X174371428Y-195692380D01*
X174228571Y-195644761D01*
X174133333Y-195549523D01*
X174085714Y-195454285D01*
X174038095Y-195263809D01*
X174038095Y-195120952D01*
X174085714Y-194930476D01*
X174133333Y-194835238D01*
X174228571Y-194740000D01*
X174371428Y-194692380D01*
X174466666Y-194692380D01*
X174609523Y-194740000D01*
X174657142Y-194787619D01*
X175038095Y-194787619D02*
X175085714Y-194740000D01*
X175180952Y-194692380D01*
X175419047Y-194692380D01*
X175514285Y-194740000D01*
X175561904Y-194787619D01*
X175609523Y-194882857D01*
X175609523Y-194978095D01*
X175561904Y-195120952D01*
X174990476Y-195692380D01*
X175609523Y-195692380D01*
X175942857Y-194692380D02*
X176561904Y-194692380D01*
X176228571Y-195073333D01*
X176371428Y-195073333D01*
X176466666Y-195120952D01*
X176514285Y-195168571D01*
X176561904Y-195263809D01*
X176561904Y-195501904D01*
X176514285Y-195597142D01*
X176466666Y-195644761D01*
X176371428Y-195692380D01*
X176085714Y-195692380D01*
X175990476Y-195644761D01*
X175942857Y-195597142D01*
%TO.C,C19*%
X155821142Y-138533142D02*
X155773523Y-138580761D01*
X155630666Y-138628380D01*
X155535428Y-138628380D01*
X155392571Y-138580761D01*
X155297333Y-138485523D01*
X155249714Y-138390285D01*
X155202095Y-138199809D01*
X155202095Y-138056952D01*
X155249714Y-137866476D01*
X155297333Y-137771238D01*
X155392571Y-137676000D01*
X155535428Y-137628380D01*
X155630666Y-137628380D01*
X155773523Y-137676000D01*
X155821142Y-137723619D01*
X156773523Y-138628380D02*
X156202095Y-138628380D01*
X156487809Y-138628380D02*
X156487809Y-137628380D01*
X156392571Y-137771238D01*
X156297333Y-137866476D01*
X156202095Y-137914095D01*
X157249714Y-138628380D02*
X157440190Y-138628380D01*
X157535428Y-138580761D01*
X157583047Y-138533142D01*
X157678285Y-138390285D01*
X157725904Y-138199809D01*
X157725904Y-137818857D01*
X157678285Y-137723619D01*
X157630666Y-137676000D01*
X157535428Y-137628380D01*
X157344952Y-137628380D01*
X157249714Y-137676000D01*
X157202095Y-137723619D01*
X157154476Y-137818857D01*
X157154476Y-138056952D01*
X157202095Y-138152190D01*
X157249714Y-138199809D01*
X157344952Y-138247428D01*
X157535428Y-138247428D01*
X157630666Y-138199809D01*
X157678285Y-138152190D01*
X157725904Y-138056952D01*
%TO.C,C17*%
X60825142Y-187809142D02*
X60777523Y-187856761D01*
X60634666Y-187904380D01*
X60539428Y-187904380D01*
X60396571Y-187856761D01*
X60301333Y-187761523D01*
X60253714Y-187666285D01*
X60206095Y-187475809D01*
X60206095Y-187332952D01*
X60253714Y-187142476D01*
X60301333Y-187047238D01*
X60396571Y-186952000D01*
X60539428Y-186904380D01*
X60634666Y-186904380D01*
X60777523Y-186952000D01*
X60825142Y-186999619D01*
X61777523Y-187904380D02*
X61206095Y-187904380D01*
X61491809Y-187904380D02*
X61491809Y-186904380D01*
X61396571Y-187047238D01*
X61301333Y-187142476D01*
X61206095Y-187190095D01*
X62110857Y-186904380D02*
X62777523Y-186904380D01*
X62348952Y-187904380D01*
%TO.C,C15*%
X75922142Y-169572857D02*
X75969761Y-169620476D01*
X76017380Y-169763333D01*
X76017380Y-169858571D01*
X75969761Y-170001428D01*
X75874523Y-170096666D01*
X75779285Y-170144285D01*
X75588809Y-170191904D01*
X75445952Y-170191904D01*
X75255476Y-170144285D01*
X75160238Y-170096666D01*
X75065000Y-170001428D01*
X75017380Y-169858571D01*
X75017380Y-169763333D01*
X75065000Y-169620476D01*
X75112619Y-169572857D01*
X76017380Y-168620476D02*
X76017380Y-169191904D01*
X76017380Y-168906190D02*
X75017380Y-168906190D01*
X75160238Y-169001428D01*
X75255476Y-169096666D01*
X75303095Y-169191904D01*
X75017380Y-167715714D02*
X75017380Y-168191904D01*
X75493571Y-168239523D01*
X75445952Y-168191904D01*
X75398333Y-168096666D01*
X75398333Y-167858571D01*
X75445952Y-167763333D01*
X75493571Y-167715714D01*
X75588809Y-167668095D01*
X75826904Y-167668095D01*
X75922142Y-167715714D01*
X75969761Y-167763333D01*
X76017380Y-167858571D01*
X76017380Y-168096666D01*
X75969761Y-168191904D01*
X75922142Y-168239523D01*
%TO.C,C14*%
X100957142Y-145645142D02*
X100909523Y-145692761D01*
X100766666Y-145740380D01*
X100671428Y-145740380D01*
X100528571Y-145692761D01*
X100433333Y-145597523D01*
X100385714Y-145502285D01*
X100338095Y-145311809D01*
X100338095Y-145168952D01*
X100385714Y-144978476D01*
X100433333Y-144883238D01*
X100528571Y-144788000D01*
X100671428Y-144740380D01*
X100766666Y-144740380D01*
X100909523Y-144788000D01*
X100957142Y-144835619D01*
X101909523Y-145740380D02*
X101338095Y-145740380D01*
X101623809Y-145740380D02*
X101623809Y-144740380D01*
X101528571Y-144883238D01*
X101433333Y-144978476D01*
X101338095Y-145026095D01*
X102766666Y-145073714D02*
X102766666Y-145740380D01*
X102528571Y-144692761D02*
X102290476Y-145407047D01*
X102909523Y-145407047D01*
%TO.C,C13*%
X154297142Y-87352142D02*
X154249523Y-87399761D01*
X154106666Y-87447380D01*
X154011428Y-87447380D01*
X153868571Y-87399761D01*
X153773333Y-87304523D01*
X153725714Y-87209285D01*
X153678095Y-87018809D01*
X153678095Y-86875952D01*
X153725714Y-86685476D01*
X153773333Y-86590238D01*
X153868571Y-86495000D01*
X154011428Y-86447380D01*
X154106666Y-86447380D01*
X154249523Y-86495000D01*
X154297142Y-86542619D01*
X155249523Y-87447380D02*
X154678095Y-87447380D01*
X154963809Y-87447380D02*
X154963809Y-86447380D01*
X154868571Y-86590238D01*
X154773333Y-86685476D01*
X154678095Y-86733095D01*
X155582857Y-86447380D02*
X156201904Y-86447380D01*
X155868571Y-86828333D01*
X156011428Y-86828333D01*
X156106666Y-86875952D01*
X156154285Y-86923571D01*
X156201904Y-87018809D01*
X156201904Y-87256904D01*
X156154285Y-87352142D01*
X156106666Y-87399761D01*
X156011428Y-87447380D01*
X155725714Y-87447380D01*
X155630476Y-87399761D01*
X155582857Y-87352142D01*
%TO.C,C12*%
X125849142Y-76049142D02*
X125801523Y-76096761D01*
X125658666Y-76144380D01*
X125563428Y-76144380D01*
X125420571Y-76096761D01*
X125325333Y-76001523D01*
X125277714Y-75906285D01*
X125230095Y-75715809D01*
X125230095Y-75572952D01*
X125277714Y-75382476D01*
X125325333Y-75287238D01*
X125420571Y-75192000D01*
X125563428Y-75144380D01*
X125658666Y-75144380D01*
X125801523Y-75192000D01*
X125849142Y-75239619D01*
X126801523Y-76144380D02*
X126230095Y-76144380D01*
X126515809Y-76144380D02*
X126515809Y-75144380D01*
X126420571Y-75287238D01*
X126325333Y-75382476D01*
X126230095Y-75430095D01*
X127182476Y-75239619D02*
X127230095Y-75192000D01*
X127325333Y-75144380D01*
X127563428Y-75144380D01*
X127658666Y-75192000D01*
X127706285Y-75239619D01*
X127753904Y-75334857D01*
X127753904Y-75430095D01*
X127706285Y-75572952D01*
X127134857Y-76144380D01*
X127753904Y-76144380D01*
%TO.C,C10*%
X126357142Y-87352142D02*
X126309523Y-87399761D01*
X126166666Y-87447380D01*
X126071428Y-87447380D01*
X125928571Y-87399761D01*
X125833333Y-87304523D01*
X125785714Y-87209285D01*
X125738095Y-87018809D01*
X125738095Y-86875952D01*
X125785714Y-86685476D01*
X125833333Y-86590238D01*
X125928571Y-86495000D01*
X126071428Y-86447380D01*
X126166666Y-86447380D01*
X126309523Y-86495000D01*
X126357142Y-86542619D01*
X127309523Y-87447380D02*
X126738095Y-87447380D01*
X127023809Y-87447380D02*
X127023809Y-86447380D01*
X126928571Y-86590238D01*
X126833333Y-86685476D01*
X126738095Y-86733095D01*
X127928571Y-86447380D02*
X128023809Y-86447380D01*
X128119047Y-86495000D01*
X128166666Y-86542619D01*
X128214285Y-86637857D01*
X128261904Y-86828333D01*
X128261904Y-87066428D01*
X128214285Y-87256904D01*
X128166666Y-87352142D01*
X128119047Y-87399761D01*
X128023809Y-87447380D01*
X127928571Y-87447380D01*
X127833333Y-87399761D01*
X127785714Y-87352142D01*
X127738095Y-87256904D01*
X127690476Y-87066428D01*
X127690476Y-86828333D01*
X127738095Y-86637857D01*
X127785714Y-86542619D01*
X127833333Y-86495000D01*
X127928571Y-86447380D01*
%TO.C,C9*%
X63333333Y-93702142D02*
X63285714Y-93749761D01*
X63142857Y-93797380D01*
X63047619Y-93797380D01*
X62904761Y-93749761D01*
X62809523Y-93654523D01*
X62761904Y-93559285D01*
X62714285Y-93368809D01*
X62714285Y-93225952D01*
X62761904Y-93035476D01*
X62809523Y-92940238D01*
X62904761Y-92845000D01*
X63047619Y-92797380D01*
X63142857Y-92797380D01*
X63285714Y-92845000D01*
X63333333Y-92892619D01*
X63809523Y-93797380D02*
X64000000Y-93797380D01*
X64095238Y-93749761D01*
X64142857Y-93702142D01*
X64238095Y-93559285D01*
X64285714Y-93368809D01*
X64285714Y-92987857D01*
X64238095Y-92892619D01*
X64190476Y-92845000D01*
X64095238Y-92797380D01*
X63904761Y-92797380D01*
X63809523Y-92845000D01*
X63761904Y-92892619D01*
X63714285Y-92987857D01*
X63714285Y-93225952D01*
X63761904Y-93321190D01*
X63809523Y-93368809D01*
X63904761Y-93416428D01*
X64095238Y-93416428D01*
X64190476Y-93368809D01*
X64238095Y-93321190D01*
X64285714Y-93225952D01*
%TO.C,C8*%
X116673333Y-76049142D02*
X116625714Y-76096761D01*
X116482857Y-76144380D01*
X116387619Y-76144380D01*
X116244761Y-76096761D01*
X116149523Y-76001523D01*
X116101904Y-75906285D01*
X116054285Y-75715809D01*
X116054285Y-75572952D01*
X116101904Y-75382476D01*
X116149523Y-75287238D01*
X116244761Y-75192000D01*
X116387619Y-75144380D01*
X116482857Y-75144380D01*
X116625714Y-75192000D01*
X116673333Y-75239619D01*
X117244761Y-75572952D02*
X117149523Y-75525333D01*
X117101904Y-75477714D01*
X117054285Y-75382476D01*
X117054285Y-75334857D01*
X117101904Y-75239619D01*
X117149523Y-75192000D01*
X117244761Y-75144380D01*
X117435238Y-75144380D01*
X117530476Y-75192000D01*
X117578095Y-75239619D01*
X117625714Y-75334857D01*
X117625714Y-75382476D01*
X117578095Y-75477714D01*
X117530476Y-75525333D01*
X117435238Y-75572952D01*
X117244761Y-75572952D01*
X117149523Y-75620571D01*
X117101904Y-75668190D01*
X117054285Y-75763428D01*
X117054285Y-75953904D01*
X117101904Y-76049142D01*
X117149523Y-76096761D01*
X117244761Y-76144380D01*
X117435238Y-76144380D01*
X117530476Y-76096761D01*
X117578095Y-76049142D01*
X117625714Y-75953904D01*
X117625714Y-75763428D01*
X117578095Y-75668190D01*
X117530476Y-75620571D01*
X117435238Y-75572952D01*
%TO.C,C7*%
X98893333Y-87352142D02*
X98845714Y-87399761D01*
X98702857Y-87447380D01*
X98607619Y-87447380D01*
X98464761Y-87399761D01*
X98369523Y-87304523D01*
X98321904Y-87209285D01*
X98274285Y-87018809D01*
X98274285Y-86875952D01*
X98321904Y-86685476D01*
X98369523Y-86590238D01*
X98464761Y-86495000D01*
X98607619Y-86447380D01*
X98702857Y-86447380D01*
X98845714Y-86495000D01*
X98893333Y-86542619D01*
X99226666Y-86447380D02*
X99893333Y-86447380D01*
X99464761Y-87447380D01*
%TO.C,C5*%
X175093333Y-70842142D02*
X175045714Y-70889761D01*
X174902857Y-70937380D01*
X174807619Y-70937380D01*
X174664761Y-70889761D01*
X174569523Y-70794523D01*
X174521904Y-70699285D01*
X174474285Y-70508809D01*
X174474285Y-70365952D01*
X174521904Y-70175476D01*
X174569523Y-70080238D01*
X174664761Y-69985000D01*
X174807619Y-69937380D01*
X174902857Y-69937380D01*
X175045714Y-69985000D01*
X175093333Y-70032619D01*
X175998095Y-69937380D02*
X175521904Y-69937380D01*
X175474285Y-70413571D01*
X175521904Y-70365952D01*
X175617142Y-70318333D01*
X175855238Y-70318333D01*
X175950476Y-70365952D01*
X175998095Y-70413571D01*
X176045714Y-70508809D01*
X176045714Y-70746904D01*
X175998095Y-70842142D01*
X175950476Y-70889761D01*
X175855238Y-70937380D01*
X175617142Y-70937380D01*
X175521904Y-70889761D01*
X175474285Y-70842142D01*
%TO.C,C4*%
X75017333Y-69953142D02*
X74969714Y-70000761D01*
X74826857Y-70048380D01*
X74731619Y-70048380D01*
X74588761Y-70000761D01*
X74493523Y-69905523D01*
X74445904Y-69810285D01*
X74398285Y-69619809D01*
X74398285Y-69476952D01*
X74445904Y-69286476D01*
X74493523Y-69191238D01*
X74588761Y-69096000D01*
X74731619Y-69048380D01*
X74826857Y-69048380D01*
X74969714Y-69096000D01*
X75017333Y-69143619D01*
X75874476Y-69381714D02*
X75874476Y-70048380D01*
X75636380Y-69000761D02*
X75398285Y-69715047D01*
X76017333Y-69715047D01*
%TO.C,C3*%
X134453333Y-182602142D02*
X134405714Y-182649761D01*
X134262857Y-182697380D01*
X134167619Y-182697380D01*
X134024761Y-182649761D01*
X133929523Y-182554523D01*
X133881904Y-182459285D01*
X133834285Y-182268809D01*
X133834285Y-182125952D01*
X133881904Y-181935476D01*
X133929523Y-181840238D01*
X134024761Y-181745000D01*
X134167619Y-181697380D01*
X134262857Y-181697380D01*
X134405714Y-181745000D01*
X134453333Y-181792619D01*
X134786666Y-181697380D02*
X135405714Y-181697380D01*
X135072380Y-182078333D01*
X135215238Y-182078333D01*
X135310476Y-182125952D01*
X135358095Y-182173571D01*
X135405714Y-182268809D01*
X135405714Y-182506904D01*
X135358095Y-182602142D01*
X135310476Y-182649761D01*
X135215238Y-182697380D01*
X134929523Y-182697380D01*
X134834285Y-182649761D01*
X134786666Y-182602142D01*
%TO.C,C2*%
X57618333Y-93067142D02*
X57570714Y-93114761D01*
X57427857Y-93162380D01*
X57332619Y-93162380D01*
X57189761Y-93114761D01*
X57094523Y-93019523D01*
X57046904Y-92924285D01*
X56999285Y-92733809D01*
X56999285Y-92590952D01*
X57046904Y-92400476D01*
X57094523Y-92305238D01*
X57189761Y-92210000D01*
X57332619Y-92162380D01*
X57427857Y-92162380D01*
X57570714Y-92210000D01*
X57618333Y-92257619D01*
X57999285Y-92257619D02*
X58046904Y-92210000D01*
X58142142Y-92162380D01*
X58380238Y-92162380D01*
X58475476Y-92210000D01*
X58523095Y-92257619D01*
X58570714Y-92352857D01*
X58570714Y-92448095D01*
X58523095Y-92590952D01*
X57951666Y-93162380D01*
X58570714Y-93162380D01*
%TO.C,X403*%
X146982380Y-55101904D02*
X147982380Y-54435238D01*
X146982380Y-54435238D02*
X147982380Y-55101904D01*
X147315714Y-53625714D02*
X147982380Y-53625714D01*
X146934761Y-53863809D02*
X147649047Y-54101904D01*
X147649047Y-53482857D01*
X146982380Y-52911428D02*
X146982380Y-52816190D01*
X147030000Y-52720952D01*
X147077619Y-52673333D01*
X147172857Y-52625714D01*
X147363333Y-52578095D01*
X147601428Y-52578095D01*
X147791904Y-52625714D01*
X147887142Y-52673333D01*
X147934761Y-52720952D01*
X147982380Y-52816190D01*
X147982380Y-52911428D01*
X147934761Y-53006666D01*
X147887142Y-53054285D01*
X147791904Y-53101904D01*
X147601428Y-53149523D01*
X147363333Y-53149523D01*
X147172857Y-53101904D01*
X147077619Y-53054285D01*
X147030000Y-53006666D01*
X146982380Y-52911428D01*
X146982380Y-52244761D02*
X146982380Y-51625714D01*
X147363333Y-51959047D01*
X147363333Y-51816190D01*
X147410952Y-51720952D01*
X147458571Y-51673333D01*
X147553809Y-51625714D01*
X147791904Y-51625714D01*
X147887142Y-51673333D01*
X147934761Y-51720952D01*
X147982380Y-51816190D01*
X147982380Y-52101904D01*
X147934761Y-52197142D01*
X147887142Y-52244761D01*
%TO.C,X401*%
X119042380Y-55101904D02*
X120042380Y-54435238D01*
X119042380Y-54435238D02*
X120042380Y-55101904D01*
X119375714Y-53625714D02*
X120042380Y-53625714D01*
X118994761Y-53863809D02*
X119709047Y-54101904D01*
X119709047Y-53482857D01*
X119042380Y-52911428D02*
X119042380Y-52816190D01*
X119090000Y-52720952D01*
X119137619Y-52673333D01*
X119232857Y-52625714D01*
X119423333Y-52578095D01*
X119661428Y-52578095D01*
X119851904Y-52625714D01*
X119947142Y-52673333D01*
X119994761Y-52720952D01*
X120042380Y-52816190D01*
X120042380Y-52911428D01*
X119994761Y-53006666D01*
X119947142Y-53054285D01*
X119851904Y-53101904D01*
X119661428Y-53149523D01*
X119423333Y-53149523D01*
X119232857Y-53101904D01*
X119137619Y-53054285D01*
X119090000Y-53006666D01*
X119042380Y-52911428D01*
X120042380Y-51625714D02*
X120042380Y-52197142D01*
X120042380Y-51911428D02*
X119042380Y-51911428D01*
X119185238Y-52006666D01*
X119280476Y-52101904D01*
X119328095Y-52197142D01*
%TO.C,C202*%
X85280952Y-167957142D02*
X85233333Y-168004761D01*
X85090476Y-168052380D01*
X84995238Y-168052380D01*
X84852380Y-168004761D01*
X84757142Y-167909523D01*
X84709523Y-167814285D01*
X84661904Y-167623809D01*
X84661904Y-167480952D01*
X84709523Y-167290476D01*
X84757142Y-167195238D01*
X84852380Y-167100000D01*
X84995238Y-167052380D01*
X85090476Y-167052380D01*
X85233333Y-167100000D01*
X85280952Y-167147619D01*
X85661904Y-167147619D02*
X85709523Y-167100000D01*
X85804761Y-167052380D01*
X86042857Y-167052380D01*
X86138095Y-167100000D01*
X86185714Y-167147619D01*
X86233333Y-167242857D01*
X86233333Y-167338095D01*
X86185714Y-167480952D01*
X85614285Y-168052380D01*
X86233333Y-168052380D01*
X86852380Y-167052380D02*
X86947619Y-167052380D01*
X87042857Y-167100000D01*
X87090476Y-167147619D01*
X87138095Y-167242857D01*
X87185714Y-167433333D01*
X87185714Y-167671428D01*
X87138095Y-167861904D01*
X87090476Y-167957142D01*
X87042857Y-168004761D01*
X86947619Y-168052380D01*
X86852380Y-168052380D01*
X86757142Y-168004761D01*
X86709523Y-167957142D01*
X86661904Y-167861904D01*
X86614285Y-167671428D01*
X86614285Y-167433333D01*
X86661904Y-167242857D01*
X86709523Y-167147619D01*
X86757142Y-167100000D01*
X86852380Y-167052380D01*
X87566666Y-167147619D02*
X87614285Y-167100000D01*
X87709523Y-167052380D01*
X87947619Y-167052380D01*
X88042857Y-167100000D01*
X88090476Y-167147619D01*
X88138095Y-167242857D01*
X88138095Y-167338095D01*
X88090476Y-167480952D01*
X87519047Y-168052380D01*
X88138095Y-168052380D01*
%TO.C,R20*%
X122293142Y-74620380D02*
X121959809Y-74144190D01*
X121721714Y-74620380D02*
X121721714Y-73620380D01*
X122102666Y-73620380D01*
X122197904Y-73668000D01*
X122245523Y-73715619D01*
X122293142Y-73810857D01*
X122293142Y-73953714D01*
X122245523Y-74048952D01*
X122197904Y-74096571D01*
X122102666Y-74144190D01*
X121721714Y-74144190D01*
X122674095Y-73715619D02*
X122721714Y-73668000D01*
X122816952Y-73620380D01*
X123055047Y-73620380D01*
X123150285Y-73668000D01*
X123197904Y-73715619D01*
X123245523Y-73810857D01*
X123245523Y-73906095D01*
X123197904Y-74048952D01*
X122626476Y-74620380D01*
X123245523Y-74620380D01*
X123864571Y-73620380D02*
X123959809Y-73620380D01*
X124055047Y-73668000D01*
X124102666Y-73715619D01*
X124150285Y-73810857D01*
X124197904Y-74001333D01*
X124197904Y-74239428D01*
X124150285Y-74429904D01*
X124102666Y-74525142D01*
X124055047Y-74572761D01*
X123959809Y-74620380D01*
X123864571Y-74620380D01*
X123769333Y-74572761D01*
X123721714Y-74525142D01*
X123674095Y-74429904D01*
X123626476Y-74239428D01*
X123626476Y-74001333D01*
X123674095Y-73810857D01*
X123721714Y-73715619D01*
X123769333Y-73668000D01*
X123864571Y-73620380D01*
%TO.C,VT400*%
X113752380Y-66658857D02*
X114752380Y-66325523D01*
X113752380Y-65992190D01*
X113752380Y-65801714D02*
X113752380Y-65230285D01*
X114752380Y-65516000D02*
X113752380Y-65516000D01*
X114085714Y-64468380D02*
X114752380Y-64468380D01*
X113704761Y-64706476D02*
X114419047Y-64944571D01*
X114419047Y-64325523D01*
X113752380Y-63754095D02*
X113752380Y-63658857D01*
X113800000Y-63563619D01*
X113847619Y-63516000D01*
X113942857Y-63468380D01*
X114133333Y-63420761D01*
X114371428Y-63420761D01*
X114561904Y-63468380D01*
X114657142Y-63516000D01*
X114704761Y-63563619D01*
X114752380Y-63658857D01*
X114752380Y-63754095D01*
X114704761Y-63849333D01*
X114657142Y-63896952D01*
X114561904Y-63944571D01*
X114371428Y-63992190D01*
X114133333Y-63992190D01*
X113942857Y-63944571D01*
X113847619Y-63896952D01*
X113800000Y-63849333D01*
X113752380Y-63754095D01*
X113752380Y-62801714D02*
X113752380Y-62706476D01*
X113800000Y-62611238D01*
X113847619Y-62563619D01*
X113942857Y-62516000D01*
X114133333Y-62468380D01*
X114371428Y-62468380D01*
X114561904Y-62516000D01*
X114657142Y-62563619D01*
X114704761Y-62611238D01*
X114752380Y-62706476D01*
X114752380Y-62801714D01*
X114704761Y-62896952D01*
X114657142Y-62944571D01*
X114561904Y-62992190D01*
X114371428Y-63039809D01*
X114133333Y-63039809D01*
X113942857Y-62992190D01*
X113847619Y-62944571D01*
X113800000Y-62896952D01*
X113752380Y-62801714D01*
%TO.C,VT404*%
X162774380Y-61324857D02*
X163774380Y-60991523D01*
X162774380Y-60658190D01*
X162774380Y-60467714D02*
X162774380Y-59896285D01*
X163774380Y-60182000D02*
X162774380Y-60182000D01*
X163107714Y-59134380D02*
X163774380Y-59134380D01*
X162726761Y-59372476D02*
X163441047Y-59610571D01*
X163441047Y-58991523D01*
X162774380Y-58420095D02*
X162774380Y-58324857D01*
X162822000Y-58229619D01*
X162869619Y-58182000D01*
X162964857Y-58134380D01*
X163155333Y-58086761D01*
X163393428Y-58086761D01*
X163583904Y-58134380D01*
X163679142Y-58182000D01*
X163726761Y-58229619D01*
X163774380Y-58324857D01*
X163774380Y-58420095D01*
X163726761Y-58515333D01*
X163679142Y-58562952D01*
X163583904Y-58610571D01*
X163393428Y-58658190D01*
X163155333Y-58658190D01*
X162964857Y-58610571D01*
X162869619Y-58562952D01*
X162822000Y-58515333D01*
X162774380Y-58420095D01*
X163107714Y-57229619D02*
X163774380Y-57229619D01*
X162726761Y-57467714D02*
X163441047Y-57705809D01*
X163441047Y-57086761D01*
%TO.C,VT403*%
X151852380Y-64118857D02*
X152852380Y-63785523D01*
X151852380Y-63452190D01*
X151852380Y-63261714D02*
X151852380Y-62690285D01*
X152852380Y-62976000D02*
X151852380Y-62976000D01*
X152185714Y-61928380D02*
X152852380Y-61928380D01*
X151804761Y-62166476D02*
X152519047Y-62404571D01*
X152519047Y-61785523D01*
X151852380Y-61214095D02*
X151852380Y-61118857D01*
X151900000Y-61023619D01*
X151947619Y-60976000D01*
X152042857Y-60928380D01*
X152233333Y-60880761D01*
X152471428Y-60880761D01*
X152661904Y-60928380D01*
X152757142Y-60976000D01*
X152804761Y-61023619D01*
X152852380Y-61118857D01*
X152852380Y-61214095D01*
X152804761Y-61309333D01*
X152757142Y-61356952D01*
X152661904Y-61404571D01*
X152471428Y-61452190D01*
X152233333Y-61452190D01*
X152042857Y-61404571D01*
X151947619Y-61356952D01*
X151900000Y-61309333D01*
X151852380Y-61214095D01*
X151852380Y-60547428D02*
X151852380Y-59928380D01*
X152233333Y-60261714D01*
X152233333Y-60118857D01*
X152280952Y-60023619D01*
X152328571Y-59976000D01*
X152423809Y-59928380D01*
X152661904Y-59928380D01*
X152757142Y-59976000D01*
X152804761Y-60023619D01*
X152852380Y-60118857D01*
X152852380Y-60404571D01*
X152804761Y-60499809D01*
X152757142Y-60547428D01*
%TO.C,VT402*%
X141692380Y-63864857D02*
X142692380Y-63531523D01*
X141692380Y-63198190D01*
X141692380Y-63007714D02*
X141692380Y-62436285D01*
X142692380Y-62722000D02*
X141692380Y-62722000D01*
X142025714Y-61674380D02*
X142692380Y-61674380D01*
X141644761Y-61912476D02*
X142359047Y-62150571D01*
X142359047Y-61531523D01*
X141692380Y-60960095D02*
X141692380Y-60864857D01*
X141740000Y-60769619D01*
X141787619Y-60722000D01*
X141882857Y-60674380D01*
X142073333Y-60626761D01*
X142311428Y-60626761D01*
X142501904Y-60674380D01*
X142597142Y-60722000D01*
X142644761Y-60769619D01*
X142692380Y-60864857D01*
X142692380Y-60960095D01*
X142644761Y-61055333D01*
X142597142Y-61102952D01*
X142501904Y-61150571D01*
X142311428Y-61198190D01*
X142073333Y-61198190D01*
X141882857Y-61150571D01*
X141787619Y-61102952D01*
X141740000Y-61055333D01*
X141692380Y-60960095D01*
X141787619Y-60245809D02*
X141740000Y-60198190D01*
X141692380Y-60102952D01*
X141692380Y-59864857D01*
X141740000Y-59769619D01*
X141787619Y-59722000D01*
X141882857Y-59674380D01*
X141978095Y-59674380D01*
X142120952Y-59722000D01*
X142692380Y-60293428D01*
X142692380Y-59674380D01*
%TO.C,VT401*%
X123912380Y-63864857D02*
X124912380Y-63531523D01*
X123912380Y-63198190D01*
X123912380Y-63007714D02*
X123912380Y-62436285D01*
X124912380Y-62722000D02*
X123912380Y-62722000D01*
X124245714Y-61674380D02*
X124912380Y-61674380D01*
X123864761Y-61912476D02*
X124579047Y-62150571D01*
X124579047Y-61531523D01*
X123912380Y-60960095D02*
X123912380Y-60864857D01*
X123960000Y-60769619D01*
X124007619Y-60722000D01*
X124102857Y-60674380D01*
X124293333Y-60626761D01*
X124531428Y-60626761D01*
X124721904Y-60674380D01*
X124817142Y-60722000D01*
X124864761Y-60769619D01*
X124912380Y-60864857D01*
X124912380Y-60960095D01*
X124864761Y-61055333D01*
X124817142Y-61102952D01*
X124721904Y-61150571D01*
X124531428Y-61198190D01*
X124293333Y-61198190D01*
X124102857Y-61150571D01*
X124007619Y-61102952D01*
X123960000Y-61055333D01*
X123912380Y-60960095D01*
X124912380Y-59674380D02*
X124912380Y-60245809D01*
X124912380Y-59960095D02*
X123912380Y-59960095D01*
X124055238Y-60055333D01*
X124150476Y-60150571D01*
X124198095Y-60245809D01*
%TO.C,VT201*%
X63897142Y-208367380D02*
X64230476Y-209367380D01*
X64563809Y-208367380D01*
X64754285Y-208367380D02*
X65325714Y-208367380D01*
X65040000Y-209367380D02*
X65040000Y-208367380D01*
X65611428Y-208462619D02*
X65659047Y-208415000D01*
X65754285Y-208367380D01*
X65992380Y-208367380D01*
X66087619Y-208415000D01*
X66135238Y-208462619D01*
X66182857Y-208557857D01*
X66182857Y-208653095D01*
X66135238Y-208795952D01*
X65563809Y-209367380D01*
X66182857Y-209367380D01*
X66801904Y-208367380D02*
X66897142Y-208367380D01*
X66992380Y-208415000D01*
X67040000Y-208462619D01*
X67087619Y-208557857D01*
X67135238Y-208748333D01*
X67135238Y-208986428D01*
X67087619Y-209176904D01*
X67040000Y-209272142D01*
X66992380Y-209319761D01*
X66897142Y-209367380D01*
X66801904Y-209367380D01*
X66706666Y-209319761D01*
X66659047Y-209272142D01*
X66611428Y-209176904D01*
X66563809Y-208986428D01*
X66563809Y-208748333D01*
X66611428Y-208557857D01*
X66659047Y-208462619D01*
X66706666Y-208415000D01*
X66801904Y-208367380D01*
X68087619Y-209367380D02*
X67516190Y-209367380D01*
X67801904Y-209367380D02*
X67801904Y-208367380D01*
X67706666Y-208510238D01*
X67611428Y-208605476D01*
X67516190Y-208653095D01*
%TO.C,VT200*%
X78121142Y-199604380D02*
X78454476Y-200604380D01*
X78787809Y-199604380D01*
X78978285Y-199604380D02*
X79549714Y-199604380D01*
X79264000Y-200604380D02*
X79264000Y-199604380D01*
X79835428Y-199699619D02*
X79883047Y-199652000D01*
X79978285Y-199604380D01*
X80216380Y-199604380D01*
X80311619Y-199652000D01*
X80359238Y-199699619D01*
X80406857Y-199794857D01*
X80406857Y-199890095D01*
X80359238Y-200032952D01*
X79787809Y-200604380D01*
X80406857Y-200604380D01*
X81025904Y-199604380D02*
X81121142Y-199604380D01*
X81216380Y-199652000D01*
X81264000Y-199699619D01*
X81311619Y-199794857D01*
X81359238Y-199985333D01*
X81359238Y-200223428D01*
X81311619Y-200413904D01*
X81264000Y-200509142D01*
X81216380Y-200556761D01*
X81121142Y-200604380D01*
X81025904Y-200604380D01*
X80930666Y-200556761D01*
X80883047Y-200509142D01*
X80835428Y-200413904D01*
X80787809Y-200223428D01*
X80787809Y-199985333D01*
X80835428Y-199794857D01*
X80883047Y-199699619D01*
X80930666Y-199652000D01*
X81025904Y-199604380D01*
X81978285Y-199604380D02*
X82073523Y-199604380D01*
X82168761Y-199652000D01*
X82216380Y-199699619D01*
X82264000Y-199794857D01*
X82311619Y-199985333D01*
X82311619Y-200223428D01*
X82264000Y-200413904D01*
X82216380Y-200509142D01*
X82168761Y-200556761D01*
X82073523Y-200604380D01*
X81978285Y-200604380D01*
X81883047Y-200556761D01*
X81835428Y-200509142D01*
X81787809Y-200413904D01*
X81740190Y-200223428D01*
X81740190Y-199985333D01*
X81787809Y-199794857D01*
X81835428Y-199699619D01*
X81883047Y-199652000D01*
X81978285Y-199604380D01*
%TO.C,VD405*%
X171474095Y-61682380D02*
X171807428Y-62682380D01*
X172140761Y-61682380D01*
X172474095Y-62682380D02*
X172474095Y-61682380D01*
X172712190Y-61682380D01*
X172855047Y-61730000D01*
X172950285Y-61825238D01*
X172997904Y-61920476D01*
X173045523Y-62110952D01*
X173045523Y-62253809D01*
X172997904Y-62444285D01*
X172950285Y-62539523D01*
X172855047Y-62634761D01*
X172712190Y-62682380D01*
X172474095Y-62682380D01*
X173902666Y-62015714D02*
X173902666Y-62682380D01*
X173664571Y-61634761D02*
X173426476Y-62349047D01*
X174045523Y-62349047D01*
X174616952Y-61682380D02*
X174712190Y-61682380D01*
X174807428Y-61730000D01*
X174855047Y-61777619D01*
X174902666Y-61872857D01*
X174950285Y-62063333D01*
X174950285Y-62301428D01*
X174902666Y-62491904D01*
X174855047Y-62587142D01*
X174807428Y-62634761D01*
X174712190Y-62682380D01*
X174616952Y-62682380D01*
X174521714Y-62634761D01*
X174474095Y-62587142D01*
X174426476Y-62491904D01*
X174378857Y-62301428D01*
X174378857Y-62063333D01*
X174426476Y-61872857D01*
X174474095Y-61777619D01*
X174521714Y-61730000D01*
X174616952Y-61682380D01*
X175855047Y-61682380D02*
X175378857Y-61682380D01*
X175331238Y-62158571D01*
X175378857Y-62110952D01*
X175474095Y-62063333D01*
X175712190Y-62063333D01*
X175807428Y-62110952D01*
X175855047Y-62158571D01*
X175902666Y-62253809D01*
X175902666Y-62491904D01*
X175855047Y-62587142D01*
X175807428Y-62634761D01*
X175712190Y-62682380D01*
X175474095Y-62682380D01*
X175378857Y-62634761D01*
X175331238Y-62587142D01*
X167806666Y-54118095D02*
X167806666Y-53641904D01*
X168092380Y-54213333D02*
X167092380Y-53880000D01*
X168092380Y-53546666D01*
%TO.C,VD404*%
X151408095Y-66762380D02*
X151741428Y-67762380D01*
X152074761Y-66762380D01*
X152408095Y-67762380D02*
X152408095Y-66762380D01*
X152646190Y-66762380D01*
X152789047Y-66810000D01*
X152884285Y-66905238D01*
X152931904Y-67000476D01*
X152979523Y-67190952D01*
X152979523Y-67333809D01*
X152931904Y-67524285D01*
X152884285Y-67619523D01*
X152789047Y-67714761D01*
X152646190Y-67762380D01*
X152408095Y-67762380D01*
X153836666Y-67095714D02*
X153836666Y-67762380D01*
X153598571Y-66714761D02*
X153360476Y-67429047D01*
X153979523Y-67429047D01*
X154550952Y-66762380D02*
X154646190Y-66762380D01*
X154741428Y-66810000D01*
X154789047Y-66857619D01*
X154836666Y-66952857D01*
X154884285Y-67143333D01*
X154884285Y-67381428D01*
X154836666Y-67571904D01*
X154789047Y-67667142D01*
X154741428Y-67714761D01*
X154646190Y-67762380D01*
X154550952Y-67762380D01*
X154455714Y-67714761D01*
X154408095Y-67667142D01*
X154360476Y-67571904D01*
X154312857Y-67381428D01*
X154312857Y-67143333D01*
X154360476Y-66952857D01*
X154408095Y-66857619D01*
X154455714Y-66810000D01*
X154550952Y-66762380D01*
X155741428Y-67095714D02*
X155741428Y-67762380D01*
X155503333Y-66714761D02*
X155265238Y-67429047D01*
X155884285Y-67429047D01*
X155106666Y-54118095D02*
X155106666Y-53641904D01*
X155392380Y-54213333D02*
X154392380Y-53880000D01*
X155392380Y-53546666D01*
%TO.C,VD403*%
X141248095Y-66762380D02*
X141581428Y-67762380D01*
X141914761Y-66762380D01*
X142248095Y-67762380D02*
X142248095Y-66762380D01*
X142486190Y-66762380D01*
X142629047Y-66810000D01*
X142724285Y-66905238D01*
X142771904Y-67000476D01*
X142819523Y-67190952D01*
X142819523Y-67333809D01*
X142771904Y-67524285D01*
X142724285Y-67619523D01*
X142629047Y-67714761D01*
X142486190Y-67762380D01*
X142248095Y-67762380D01*
X143676666Y-67095714D02*
X143676666Y-67762380D01*
X143438571Y-66714761D02*
X143200476Y-67429047D01*
X143819523Y-67429047D01*
X144390952Y-66762380D02*
X144486190Y-66762380D01*
X144581428Y-66810000D01*
X144629047Y-66857619D01*
X144676666Y-66952857D01*
X144724285Y-67143333D01*
X144724285Y-67381428D01*
X144676666Y-67571904D01*
X144629047Y-67667142D01*
X144581428Y-67714761D01*
X144486190Y-67762380D01*
X144390952Y-67762380D01*
X144295714Y-67714761D01*
X144248095Y-67667142D01*
X144200476Y-67571904D01*
X144152857Y-67381428D01*
X144152857Y-67143333D01*
X144200476Y-66952857D01*
X144248095Y-66857619D01*
X144295714Y-66810000D01*
X144390952Y-66762380D01*
X145057619Y-66762380D02*
X145676666Y-66762380D01*
X145343333Y-67143333D01*
X145486190Y-67143333D01*
X145581428Y-67190952D01*
X145629047Y-67238571D01*
X145676666Y-67333809D01*
X145676666Y-67571904D01*
X145629047Y-67667142D01*
X145581428Y-67714761D01*
X145486190Y-67762380D01*
X145200476Y-67762380D01*
X145105238Y-67714761D01*
X145057619Y-67667142D01*
X144946666Y-54118095D02*
X144946666Y-53641904D01*
X145232380Y-54213333D02*
X144232380Y-53880000D01*
X145232380Y-53546666D01*
%TO.C,VD402*%
X123214095Y-72096380D02*
X123547428Y-73096380D01*
X123880761Y-72096380D01*
X124214095Y-73096380D02*
X124214095Y-72096380D01*
X124452190Y-72096380D01*
X124595047Y-72144000D01*
X124690285Y-72239238D01*
X124737904Y-72334476D01*
X124785523Y-72524952D01*
X124785523Y-72667809D01*
X124737904Y-72858285D01*
X124690285Y-72953523D01*
X124595047Y-73048761D01*
X124452190Y-73096380D01*
X124214095Y-73096380D01*
X125642666Y-72429714D02*
X125642666Y-73096380D01*
X125404571Y-72048761D02*
X125166476Y-72763047D01*
X125785523Y-72763047D01*
X126356952Y-72096380D02*
X126452190Y-72096380D01*
X126547428Y-72144000D01*
X126595047Y-72191619D01*
X126642666Y-72286857D01*
X126690285Y-72477333D01*
X126690285Y-72715428D01*
X126642666Y-72905904D01*
X126595047Y-73001142D01*
X126547428Y-73048761D01*
X126452190Y-73096380D01*
X126356952Y-73096380D01*
X126261714Y-73048761D01*
X126214095Y-73001142D01*
X126166476Y-72905904D01*
X126118857Y-72715428D01*
X126118857Y-72477333D01*
X126166476Y-72286857D01*
X126214095Y-72191619D01*
X126261714Y-72144000D01*
X126356952Y-72096380D01*
X127071238Y-72191619D02*
X127118857Y-72144000D01*
X127214095Y-72096380D01*
X127452190Y-72096380D01*
X127547428Y-72144000D01*
X127595047Y-72191619D01*
X127642666Y-72286857D01*
X127642666Y-72382095D01*
X127595047Y-72524952D01*
X127023619Y-73096380D01*
X127642666Y-73096380D01*
X127166666Y-54118095D02*
X127166666Y-53641904D01*
X127452380Y-54213333D02*
X126452380Y-53880000D01*
X127452380Y-53546666D01*
%TO.C,VD401*%
X113308095Y-72096380D02*
X113641428Y-73096380D01*
X113974761Y-72096380D01*
X114308095Y-73096380D02*
X114308095Y-72096380D01*
X114546190Y-72096380D01*
X114689047Y-72144000D01*
X114784285Y-72239238D01*
X114831904Y-72334476D01*
X114879523Y-72524952D01*
X114879523Y-72667809D01*
X114831904Y-72858285D01*
X114784285Y-72953523D01*
X114689047Y-73048761D01*
X114546190Y-73096380D01*
X114308095Y-73096380D01*
X115736666Y-72429714D02*
X115736666Y-73096380D01*
X115498571Y-72048761D02*
X115260476Y-72763047D01*
X115879523Y-72763047D01*
X116450952Y-72096380D02*
X116546190Y-72096380D01*
X116641428Y-72144000D01*
X116689047Y-72191619D01*
X116736666Y-72286857D01*
X116784285Y-72477333D01*
X116784285Y-72715428D01*
X116736666Y-72905904D01*
X116689047Y-73001142D01*
X116641428Y-73048761D01*
X116546190Y-73096380D01*
X116450952Y-73096380D01*
X116355714Y-73048761D01*
X116308095Y-73001142D01*
X116260476Y-72905904D01*
X116212857Y-72715428D01*
X116212857Y-72477333D01*
X116260476Y-72286857D01*
X116308095Y-72191619D01*
X116355714Y-72144000D01*
X116450952Y-72096380D01*
X117736666Y-73096380D02*
X117165238Y-73096380D01*
X117450952Y-73096380D02*
X117450952Y-72096380D01*
X117355714Y-72239238D01*
X117260476Y-72334476D01*
X117165238Y-72382095D01*
X117006666Y-54118095D02*
X117006666Y-53641904D01*
X117292380Y-54213333D02*
X116292380Y-53880000D01*
X117292380Y-53546666D01*
%TO.C,VD400*%
X105688095Y-57618380D02*
X106021428Y-58618380D01*
X106354761Y-57618380D01*
X106688095Y-58618380D02*
X106688095Y-57618380D01*
X106926190Y-57618380D01*
X107069047Y-57666000D01*
X107164285Y-57761238D01*
X107211904Y-57856476D01*
X107259523Y-58046952D01*
X107259523Y-58189809D01*
X107211904Y-58380285D01*
X107164285Y-58475523D01*
X107069047Y-58570761D01*
X106926190Y-58618380D01*
X106688095Y-58618380D01*
X108116666Y-57951714D02*
X108116666Y-58618380D01*
X107878571Y-57570761D02*
X107640476Y-58285047D01*
X108259523Y-58285047D01*
X108830952Y-57618380D02*
X108926190Y-57618380D01*
X109021428Y-57666000D01*
X109069047Y-57713619D01*
X109116666Y-57808857D01*
X109164285Y-57999333D01*
X109164285Y-58237428D01*
X109116666Y-58427904D01*
X109069047Y-58523142D01*
X109021428Y-58570761D01*
X108926190Y-58618380D01*
X108830952Y-58618380D01*
X108735714Y-58570761D01*
X108688095Y-58523142D01*
X108640476Y-58427904D01*
X108592857Y-58237428D01*
X108592857Y-57999333D01*
X108640476Y-57808857D01*
X108688095Y-57713619D01*
X108735714Y-57666000D01*
X108830952Y-57618380D01*
X109783333Y-57618380D02*
X109878571Y-57618380D01*
X109973809Y-57666000D01*
X110021428Y-57713619D01*
X110069047Y-57808857D01*
X110116666Y-57999333D01*
X110116666Y-58237428D01*
X110069047Y-58427904D01*
X110021428Y-58523142D01*
X109973809Y-58570761D01*
X109878571Y-58618380D01*
X109783333Y-58618380D01*
X109688095Y-58570761D01*
X109640476Y-58523142D01*
X109592857Y-58427904D01*
X109545238Y-58237428D01*
X109545238Y-57999333D01*
X109592857Y-57808857D01*
X109640476Y-57713619D01*
X109688095Y-57666000D01*
X109783333Y-57618380D01*
X110981904Y-56046666D02*
X111458095Y-56046666D01*
X110886666Y-56332380D02*
X111220000Y-55332380D01*
X111553333Y-56332380D01*
%TO.C,VD202*%
X62508095Y-167092380D02*
X62841428Y-168092380D01*
X63174761Y-167092380D01*
X63508095Y-168092380D02*
X63508095Y-167092380D01*
X63746190Y-167092380D01*
X63889047Y-167140000D01*
X63984285Y-167235238D01*
X64031904Y-167330476D01*
X64079523Y-167520952D01*
X64079523Y-167663809D01*
X64031904Y-167854285D01*
X63984285Y-167949523D01*
X63889047Y-168044761D01*
X63746190Y-168092380D01*
X63508095Y-168092380D01*
X64460476Y-167187619D02*
X64508095Y-167140000D01*
X64603333Y-167092380D01*
X64841428Y-167092380D01*
X64936666Y-167140000D01*
X64984285Y-167187619D01*
X65031904Y-167282857D01*
X65031904Y-167378095D01*
X64984285Y-167520952D01*
X64412857Y-168092380D01*
X65031904Y-168092380D01*
X65650952Y-167092380D02*
X65746190Y-167092380D01*
X65841428Y-167140000D01*
X65889047Y-167187619D01*
X65936666Y-167282857D01*
X65984285Y-167473333D01*
X65984285Y-167711428D01*
X65936666Y-167901904D01*
X65889047Y-167997142D01*
X65841428Y-168044761D01*
X65746190Y-168092380D01*
X65650952Y-168092380D01*
X65555714Y-168044761D01*
X65508095Y-167997142D01*
X65460476Y-167901904D01*
X65412857Y-167711428D01*
X65412857Y-167473333D01*
X65460476Y-167282857D01*
X65508095Y-167187619D01*
X65555714Y-167140000D01*
X65650952Y-167092380D01*
X66365238Y-167187619D02*
X66412857Y-167140000D01*
X66508095Y-167092380D01*
X66746190Y-167092380D01*
X66841428Y-167140000D01*
X66889047Y-167187619D01*
X66936666Y-167282857D01*
X66936666Y-167378095D01*
X66889047Y-167520952D01*
X66317619Y-168092380D01*
X66936666Y-168092380D01*
X72881904Y-167806666D02*
X73358095Y-167806666D01*
X72786666Y-168092380D02*
X73120000Y-167092380D01*
X73453333Y-168092380D01*
%TO.C,VD200*%
X72922095Y-204684380D02*
X73255428Y-205684380D01*
X73588761Y-204684380D01*
X73922095Y-205684380D02*
X73922095Y-204684380D01*
X74160190Y-204684380D01*
X74303047Y-204732000D01*
X74398285Y-204827238D01*
X74445904Y-204922476D01*
X74493523Y-205112952D01*
X74493523Y-205255809D01*
X74445904Y-205446285D01*
X74398285Y-205541523D01*
X74303047Y-205636761D01*
X74160190Y-205684380D01*
X73922095Y-205684380D01*
X74874476Y-204779619D02*
X74922095Y-204732000D01*
X75017333Y-204684380D01*
X75255428Y-204684380D01*
X75350666Y-204732000D01*
X75398285Y-204779619D01*
X75445904Y-204874857D01*
X75445904Y-204970095D01*
X75398285Y-205112952D01*
X74826857Y-205684380D01*
X75445904Y-205684380D01*
X76064952Y-204684380D02*
X76160190Y-204684380D01*
X76255428Y-204732000D01*
X76303047Y-204779619D01*
X76350666Y-204874857D01*
X76398285Y-205065333D01*
X76398285Y-205303428D01*
X76350666Y-205493904D01*
X76303047Y-205589142D01*
X76255428Y-205636761D01*
X76160190Y-205684380D01*
X76064952Y-205684380D01*
X75969714Y-205636761D01*
X75922095Y-205589142D01*
X75874476Y-205493904D01*
X75826857Y-205303428D01*
X75826857Y-205065333D01*
X75874476Y-204874857D01*
X75922095Y-204779619D01*
X75969714Y-204732000D01*
X76064952Y-204684380D01*
X77017333Y-204684380D02*
X77112571Y-204684380D01*
X77207809Y-204732000D01*
X77255428Y-204779619D01*
X77303047Y-204874857D01*
X77350666Y-205065333D01*
X77350666Y-205303428D01*
X77303047Y-205493904D01*
X77255428Y-205589142D01*
X77207809Y-205636761D01*
X77112571Y-205684380D01*
X77017333Y-205684380D01*
X76922095Y-205636761D01*
X76874476Y-205589142D01*
X76826857Y-205493904D01*
X76779238Y-205303428D01*
X76779238Y-205065333D01*
X76826857Y-204874857D01*
X76874476Y-204779619D01*
X76922095Y-204732000D01*
X77017333Y-204684380D01*
X76366666Y-198898095D02*
X76366666Y-198421904D01*
X76652380Y-198993333D02*
X75652380Y-198660000D01*
X76652380Y-198326666D01*
%TO.C,D21*%
X52760714Y-178462380D02*
X52760714Y-177462380D01*
X52998809Y-177462380D01*
X53141666Y-177510000D01*
X53236904Y-177605238D01*
X53284523Y-177700476D01*
X53332142Y-177890952D01*
X53332142Y-178033809D01*
X53284523Y-178224285D01*
X53236904Y-178319523D01*
X53141666Y-178414761D01*
X52998809Y-178462380D01*
X52760714Y-178462380D01*
X53713095Y-177557619D02*
X53760714Y-177510000D01*
X53855952Y-177462380D01*
X54094047Y-177462380D01*
X54189285Y-177510000D01*
X54236904Y-177557619D01*
X54284523Y-177652857D01*
X54284523Y-177748095D01*
X54236904Y-177890952D01*
X53665476Y-178462380D01*
X54284523Y-178462380D01*
X55236904Y-178462380D02*
X54665476Y-178462380D01*
X54951190Y-178462380D02*
X54951190Y-177462380D01*
X54855952Y-177605238D01*
X54760714Y-177700476D01*
X54665476Y-177748095D01*
%TO.C,D20*%
X53395714Y-153062380D02*
X53395714Y-152062380D01*
X53633809Y-152062380D01*
X53776666Y-152110000D01*
X53871904Y-152205238D01*
X53919523Y-152300476D01*
X53967142Y-152490952D01*
X53967142Y-152633809D01*
X53919523Y-152824285D01*
X53871904Y-152919523D01*
X53776666Y-153014761D01*
X53633809Y-153062380D01*
X53395714Y-153062380D01*
X54348095Y-152157619D02*
X54395714Y-152110000D01*
X54490952Y-152062380D01*
X54729047Y-152062380D01*
X54824285Y-152110000D01*
X54871904Y-152157619D01*
X54919523Y-152252857D01*
X54919523Y-152348095D01*
X54871904Y-152490952D01*
X54300476Y-153062380D01*
X54919523Y-153062380D01*
X55538571Y-152062380D02*
X55633809Y-152062380D01*
X55729047Y-152110000D01*
X55776666Y-152157619D01*
X55824285Y-152252857D01*
X55871904Y-152443333D01*
X55871904Y-152681428D01*
X55824285Y-152871904D01*
X55776666Y-152967142D01*
X55729047Y-153014761D01*
X55633809Y-153062380D01*
X55538571Y-153062380D01*
X55443333Y-153014761D01*
X55395714Y-152967142D01*
X55348095Y-152871904D01*
X55300476Y-152681428D01*
X55300476Y-152443333D01*
X55348095Y-152252857D01*
X55395714Y-152157619D01*
X55443333Y-152110000D01*
X55538571Y-152062380D01*
%TO.C,D19*%
X68635714Y-170842380D02*
X68635714Y-169842380D01*
X68873809Y-169842380D01*
X69016666Y-169890000D01*
X69111904Y-169985238D01*
X69159523Y-170080476D01*
X69207142Y-170270952D01*
X69207142Y-170413809D01*
X69159523Y-170604285D01*
X69111904Y-170699523D01*
X69016666Y-170794761D01*
X68873809Y-170842380D01*
X68635714Y-170842380D01*
X70159523Y-170842380D02*
X69588095Y-170842380D01*
X69873809Y-170842380D02*
X69873809Y-169842380D01*
X69778571Y-169985238D01*
X69683333Y-170080476D01*
X69588095Y-170128095D01*
X70635714Y-170842380D02*
X70826190Y-170842380D01*
X70921428Y-170794761D01*
X70969047Y-170747142D01*
X71064285Y-170604285D01*
X71111904Y-170413809D01*
X71111904Y-170032857D01*
X71064285Y-169937619D01*
X71016666Y-169890000D01*
X70921428Y-169842380D01*
X70730952Y-169842380D01*
X70635714Y-169890000D01*
X70588095Y-169937619D01*
X70540476Y-170032857D01*
X70540476Y-170270952D01*
X70588095Y-170366190D01*
X70635714Y-170413809D01*
X70730952Y-170461428D01*
X70921428Y-170461428D01*
X71016666Y-170413809D01*
X71064285Y-170366190D01*
X71111904Y-170270952D01*
%TO.C,D18*%
X68635714Y-147982380D02*
X68635714Y-146982380D01*
X68873809Y-146982380D01*
X69016666Y-147030000D01*
X69111904Y-147125238D01*
X69159523Y-147220476D01*
X69207142Y-147410952D01*
X69207142Y-147553809D01*
X69159523Y-147744285D01*
X69111904Y-147839523D01*
X69016666Y-147934761D01*
X68873809Y-147982380D01*
X68635714Y-147982380D01*
X70159523Y-147982380D02*
X69588095Y-147982380D01*
X69873809Y-147982380D02*
X69873809Y-146982380D01*
X69778571Y-147125238D01*
X69683333Y-147220476D01*
X69588095Y-147268095D01*
X70730952Y-147410952D02*
X70635714Y-147363333D01*
X70588095Y-147315714D01*
X70540476Y-147220476D01*
X70540476Y-147172857D01*
X70588095Y-147077619D01*
X70635714Y-147030000D01*
X70730952Y-146982380D01*
X70921428Y-146982380D01*
X71016666Y-147030000D01*
X71064285Y-147077619D01*
X71111904Y-147172857D01*
X71111904Y-147220476D01*
X71064285Y-147315714D01*
X71016666Y-147363333D01*
X70921428Y-147410952D01*
X70730952Y-147410952D01*
X70635714Y-147458571D01*
X70588095Y-147506190D01*
X70540476Y-147601428D01*
X70540476Y-147791904D01*
X70588095Y-147887142D01*
X70635714Y-147934761D01*
X70730952Y-147982380D01*
X70921428Y-147982380D01*
X71016666Y-147934761D01*
X71064285Y-147887142D01*
X71111904Y-147791904D01*
X71111904Y-147601428D01*
X71064285Y-147506190D01*
X71016666Y-147458571D01*
X70921428Y-147410952D01*
%TO.C,D17*%
X62920714Y-120042380D02*
X62920714Y-119042380D01*
X63158809Y-119042380D01*
X63301666Y-119090000D01*
X63396904Y-119185238D01*
X63444523Y-119280476D01*
X63492142Y-119470952D01*
X63492142Y-119613809D01*
X63444523Y-119804285D01*
X63396904Y-119899523D01*
X63301666Y-119994761D01*
X63158809Y-120042380D01*
X62920714Y-120042380D01*
X64444523Y-120042380D02*
X63873095Y-120042380D01*
X64158809Y-120042380D02*
X64158809Y-119042380D01*
X64063571Y-119185238D01*
X63968333Y-119280476D01*
X63873095Y-119328095D01*
X64777857Y-119042380D02*
X65444523Y-119042380D01*
X65015952Y-120042380D01*
%TO.C,D16*%
X70540714Y-119622380D02*
X70540714Y-118622380D01*
X70778809Y-118622380D01*
X70921666Y-118670000D01*
X71016904Y-118765238D01*
X71064523Y-118860476D01*
X71112142Y-119050952D01*
X71112142Y-119193809D01*
X71064523Y-119384285D01*
X71016904Y-119479523D01*
X70921666Y-119574761D01*
X70778809Y-119622380D01*
X70540714Y-119622380D01*
X72064523Y-119622380D02*
X71493095Y-119622380D01*
X71778809Y-119622380D02*
X71778809Y-118622380D01*
X71683571Y-118765238D01*
X71588333Y-118860476D01*
X71493095Y-118908095D01*
X72921666Y-118622380D02*
X72731190Y-118622380D01*
X72635952Y-118670000D01*
X72588333Y-118717619D01*
X72493095Y-118860476D01*
X72445476Y-119050952D01*
X72445476Y-119431904D01*
X72493095Y-119527142D01*
X72540714Y-119574761D01*
X72635952Y-119622380D01*
X72826428Y-119622380D01*
X72921666Y-119574761D01*
X72969285Y-119527142D01*
X73016904Y-119431904D01*
X73016904Y-119193809D01*
X72969285Y-119098571D01*
X72921666Y-119050952D01*
X72826428Y-119003333D01*
X72635952Y-119003333D01*
X72540714Y-119050952D01*
X72493095Y-119098571D01*
X72445476Y-119193809D01*
%TO.C,D15*%
X66095714Y-61622380D02*
X66095714Y-60622380D01*
X66333809Y-60622380D01*
X66476666Y-60670000D01*
X66571904Y-60765238D01*
X66619523Y-60860476D01*
X66667142Y-61050952D01*
X66667142Y-61193809D01*
X66619523Y-61384285D01*
X66571904Y-61479523D01*
X66476666Y-61574761D01*
X66333809Y-61622380D01*
X66095714Y-61622380D01*
X67619523Y-61622380D02*
X67048095Y-61622380D01*
X67333809Y-61622380D02*
X67333809Y-60622380D01*
X67238571Y-60765238D01*
X67143333Y-60860476D01*
X67048095Y-60908095D01*
X68524285Y-60622380D02*
X68048095Y-60622380D01*
X68000476Y-61098571D01*
X68048095Y-61050952D01*
X68143333Y-61003333D01*
X68381428Y-61003333D01*
X68476666Y-61050952D01*
X68524285Y-61098571D01*
X68571904Y-61193809D01*
X68571904Y-61431904D01*
X68524285Y-61527142D01*
X68476666Y-61574761D01*
X68381428Y-61622380D01*
X68143333Y-61622380D01*
X68048095Y-61574761D01*
X68000476Y-61527142D01*
%TO.C,D14*%
X87895714Y-202382380D02*
X87895714Y-201382380D01*
X88133809Y-201382380D01*
X88276666Y-201430000D01*
X88371904Y-201525238D01*
X88419523Y-201620476D01*
X88467142Y-201810952D01*
X88467142Y-201953809D01*
X88419523Y-202144285D01*
X88371904Y-202239523D01*
X88276666Y-202334761D01*
X88133809Y-202382380D01*
X87895714Y-202382380D01*
X89419523Y-202382380D02*
X88848095Y-202382380D01*
X89133809Y-202382380D02*
X89133809Y-201382380D01*
X89038571Y-201525238D01*
X88943333Y-201620476D01*
X88848095Y-201668095D01*
X90276666Y-201715714D02*
X90276666Y-202382380D01*
X90038571Y-201334761D02*
X89800476Y-202049047D01*
X90419523Y-202049047D01*
%TO.C,D13*%
X76652380Y-179014285D02*
X75652380Y-179014285D01*
X75652380Y-178776190D01*
X75700000Y-178633333D01*
X75795238Y-178538095D01*
X75890476Y-178490476D01*
X76080952Y-178442857D01*
X76223809Y-178442857D01*
X76414285Y-178490476D01*
X76509523Y-178538095D01*
X76604761Y-178633333D01*
X76652380Y-178776190D01*
X76652380Y-179014285D01*
X76652380Y-177490476D02*
X76652380Y-178061904D01*
X76652380Y-177776190D02*
X75652380Y-177776190D01*
X75795238Y-177871428D01*
X75890476Y-177966666D01*
X75938095Y-178061904D01*
X75652380Y-177157142D02*
X75652380Y-176538095D01*
X76033333Y-176871428D01*
X76033333Y-176728571D01*
X76080952Y-176633333D01*
X76128571Y-176585714D01*
X76223809Y-176538095D01*
X76461904Y-176538095D01*
X76557142Y-176585714D01*
X76604761Y-176633333D01*
X76652380Y-176728571D01*
X76652380Y-177014285D01*
X76604761Y-177109523D01*
X76557142Y-177157142D01*
%TO.C,D12*%
X86415714Y-114542380D02*
X86415714Y-113542380D01*
X86653809Y-113542380D01*
X86796666Y-113590000D01*
X86891904Y-113685238D01*
X86939523Y-113780476D01*
X86987142Y-113970952D01*
X86987142Y-114113809D01*
X86939523Y-114304285D01*
X86891904Y-114399523D01*
X86796666Y-114494761D01*
X86653809Y-114542380D01*
X86415714Y-114542380D01*
X87939523Y-114542380D02*
X87368095Y-114542380D01*
X87653809Y-114542380D02*
X87653809Y-113542380D01*
X87558571Y-113685238D01*
X87463333Y-113780476D01*
X87368095Y-113828095D01*
X88320476Y-113637619D02*
X88368095Y-113590000D01*
X88463333Y-113542380D01*
X88701428Y-113542380D01*
X88796666Y-113590000D01*
X88844285Y-113637619D01*
X88891904Y-113732857D01*
X88891904Y-113828095D01*
X88844285Y-113970952D01*
X88272857Y-114542380D01*
X88891904Y-114542380D01*
%TO.C,D11*%
X99750714Y-119622380D02*
X99750714Y-118622380D01*
X99988809Y-118622380D01*
X100131666Y-118670000D01*
X100226904Y-118765238D01*
X100274523Y-118860476D01*
X100322142Y-119050952D01*
X100322142Y-119193809D01*
X100274523Y-119384285D01*
X100226904Y-119479523D01*
X100131666Y-119574761D01*
X99988809Y-119622380D01*
X99750714Y-119622380D01*
X101274523Y-119622380D02*
X100703095Y-119622380D01*
X100988809Y-119622380D02*
X100988809Y-118622380D01*
X100893571Y-118765238D01*
X100798333Y-118860476D01*
X100703095Y-118908095D01*
X102226904Y-119622380D02*
X101655476Y-119622380D01*
X101941190Y-119622380D02*
X101941190Y-118622380D01*
X101845952Y-118765238D01*
X101750714Y-118860476D01*
X101655476Y-118908095D01*
%TO.C,D10*%
X92257714Y-151328380D02*
X92257714Y-150328380D01*
X92495809Y-150328380D01*
X92638666Y-150376000D01*
X92733904Y-150471238D01*
X92781523Y-150566476D01*
X92829142Y-150756952D01*
X92829142Y-150899809D01*
X92781523Y-151090285D01*
X92733904Y-151185523D01*
X92638666Y-151280761D01*
X92495809Y-151328380D01*
X92257714Y-151328380D01*
X93781523Y-151328380D02*
X93210095Y-151328380D01*
X93495809Y-151328380D02*
X93495809Y-150328380D01*
X93400571Y-150471238D01*
X93305333Y-150566476D01*
X93210095Y-150614095D01*
X94400571Y-150328380D02*
X94495809Y-150328380D01*
X94591047Y-150376000D01*
X94638666Y-150423619D01*
X94686285Y-150518857D01*
X94733904Y-150709333D01*
X94733904Y-150947428D01*
X94686285Y-151137904D01*
X94638666Y-151233142D01*
X94591047Y-151280761D01*
X94495809Y-151328380D01*
X94400571Y-151328380D01*
X94305333Y-151280761D01*
X94257714Y-151233142D01*
X94210095Y-151137904D01*
X94162476Y-150947428D01*
X94162476Y-150709333D01*
X94210095Y-150518857D01*
X94257714Y-150423619D01*
X94305333Y-150376000D01*
X94400571Y-150328380D01*
%TO.C,D9*%
X114831904Y-114542380D02*
X114831904Y-113542380D01*
X115070000Y-113542380D01*
X115212857Y-113590000D01*
X115308095Y-113685238D01*
X115355714Y-113780476D01*
X115403333Y-113970952D01*
X115403333Y-114113809D01*
X115355714Y-114304285D01*
X115308095Y-114399523D01*
X115212857Y-114494761D01*
X115070000Y-114542380D01*
X114831904Y-114542380D01*
X115879523Y-114542380D02*
X116070000Y-114542380D01*
X116165238Y-114494761D01*
X116212857Y-114447142D01*
X116308095Y-114304285D01*
X116355714Y-114113809D01*
X116355714Y-113732857D01*
X116308095Y-113637619D01*
X116260476Y-113590000D01*
X116165238Y-113542380D01*
X115974761Y-113542380D01*
X115879523Y-113590000D01*
X115831904Y-113637619D01*
X115784285Y-113732857D01*
X115784285Y-113970952D01*
X115831904Y-114066190D01*
X115879523Y-114113809D01*
X115974761Y-114161428D01*
X116165238Y-114161428D01*
X116260476Y-114113809D01*
X116308095Y-114066190D01*
X116355714Y-113970952D01*
%TO.C,D8*%
X118641904Y-151582380D02*
X118641904Y-150582380D01*
X118880000Y-150582380D01*
X119022857Y-150630000D01*
X119118095Y-150725238D01*
X119165714Y-150820476D01*
X119213333Y-151010952D01*
X119213333Y-151153809D01*
X119165714Y-151344285D01*
X119118095Y-151439523D01*
X119022857Y-151534761D01*
X118880000Y-151582380D01*
X118641904Y-151582380D01*
X119784761Y-151010952D02*
X119689523Y-150963333D01*
X119641904Y-150915714D01*
X119594285Y-150820476D01*
X119594285Y-150772857D01*
X119641904Y-150677619D01*
X119689523Y-150630000D01*
X119784761Y-150582380D01*
X119975238Y-150582380D01*
X120070476Y-150630000D01*
X120118095Y-150677619D01*
X120165714Y-150772857D01*
X120165714Y-150820476D01*
X120118095Y-150915714D01*
X120070476Y-150963333D01*
X119975238Y-151010952D01*
X119784761Y-151010952D01*
X119689523Y-151058571D01*
X119641904Y-151106190D01*
X119594285Y-151201428D01*
X119594285Y-151391904D01*
X119641904Y-151487142D01*
X119689523Y-151534761D01*
X119784761Y-151582380D01*
X119975238Y-151582380D01*
X120070476Y-151534761D01*
X120118095Y-151487142D01*
X120165714Y-151391904D01*
X120165714Y-151201428D01*
X120118095Y-151106190D01*
X120070476Y-151058571D01*
X119975238Y-151010952D01*
%TO.C,D7*%
X127531904Y-119622380D02*
X127531904Y-118622380D01*
X127770000Y-118622380D01*
X127912857Y-118670000D01*
X128008095Y-118765238D01*
X128055714Y-118860476D01*
X128103333Y-119050952D01*
X128103333Y-119193809D01*
X128055714Y-119384285D01*
X128008095Y-119479523D01*
X127912857Y-119574761D01*
X127770000Y-119622380D01*
X127531904Y-119622380D01*
X128436666Y-118622380D02*
X129103333Y-118622380D01*
X128674761Y-119622380D01*
%TO.C,D6*%
X169441904Y-193492380D02*
X169441904Y-192492380D01*
X169680000Y-192492380D01*
X169822857Y-192540000D01*
X169918095Y-192635238D01*
X169965714Y-192730476D01*
X170013333Y-192920952D01*
X170013333Y-193063809D01*
X169965714Y-193254285D01*
X169918095Y-193349523D01*
X169822857Y-193444761D01*
X169680000Y-193492380D01*
X169441904Y-193492380D01*
X170870476Y-192492380D02*
X170680000Y-192492380D01*
X170584761Y-192540000D01*
X170537142Y-192587619D01*
X170441904Y-192730476D01*
X170394285Y-192920952D01*
X170394285Y-193301904D01*
X170441904Y-193397142D01*
X170489523Y-193444761D01*
X170584761Y-193492380D01*
X170775238Y-193492380D01*
X170870476Y-193444761D01*
X170918095Y-193397142D01*
X170965714Y-193301904D01*
X170965714Y-193063809D01*
X170918095Y-192968571D01*
X170870476Y-192920952D01*
X170775238Y-192873333D01*
X170584761Y-192873333D01*
X170489523Y-192920952D01*
X170441904Y-192968571D01*
X170394285Y-193063809D01*
%TO.C,D5*%
X136421904Y-170632380D02*
X136421904Y-169632380D01*
X136660000Y-169632380D01*
X136802857Y-169680000D01*
X136898095Y-169775238D01*
X136945714Y-169870476D01*
X136993333Y-170060952D01*
X136993333Y-170203809D01*
X136945714Y-170394285D01*
X136898095Y-170489523D01*
X136802857Y-170584761D01*
X136660000Y-170632380D01*
X136421904Y-170632380D01*
X137898095Y-169632380D02*
X137421904Y-169632380D01*
X137374285Y-170108571D01*
X137421904Y-170060952D01*
X137517142Y-170013333D01*
X137755238Y-170013333D01*
X137850476Y-170060952D01*
X137898095Y-170108571D01*
X137945714Y-170203809D01*
X137945714Y-170441904D01*
X137898095Y-170537142D01*
X137850476Y-170584761D01*
X137755238Y-170632380D01*
X137517142Y-170632380D01*
X137421904Y-170584761D01*
X137374285Y-170537142D01*
%TO.C,D4*%
X142771904Y-114542380D02*
X142771904Y-113542380D01*
X143010000Y-113542380D01*
X143152857Y-113590000D01*
X143248095Y-113685238D01*
X143295714Y-113780476D01*
X143343333Y-113970952D01*
X143343333Y-114113809D01*
X143295714Y-114304285D01*
X143248095Y-114399523D01*
X143152857Y-114494761D01*
X143010000Y-114542380D01*
X142771904Y-114542380D01*
X144200476Y-113875714D02*
X144200476Y-114542380D01*
X143962380Y-113494761D02*
X143724285Y-114209047D01*
X144343333Y-114209047D01*
%TO.C,D3*%
X155471904Y-119622380D02*
X155471904Y-118622380D01*
X155710000Y-118622380D01*
X155852857Y-118670000D01*
X155948095Y-118765238D01*
X155995714Y-118860476D01*
X156043333Y-119050952D01*
X156043333Y-119193809D01*
X155995714Y-119384285D01*
X155948095Y-119479523D01*
X155852857Y-119574761D01*
X155710000Y-119622380D01*
X155471904Y-119622380D01*
X156376666Y-118622380D02*
X156995714Y-118622380D01*
X156662380Y-119003333D01*
X156805238Y-119003333D01*
X156900476Y-119050952D01*
X156948095Y-119098571D01*
X156995714Y-119193809D01*
X156995714Y-119431904D01*
X156948095Y-119527142D01*
X156900476Y-119574761D01*
X156805238Y-119622380D01*
X156519523Y-119622380D01*
X156424285Y-119574761D01*
X156376666Y-119527142D01*
%TO.C,D2*%
X147982380Y-151868095D02*
X146982380Y-151868095D01*
X146982380Y-151630000D01*
X147030000Y-151487142D01*
X147125238Y-151391904D01*
X147220476Y-151344285D01*
X147410952Y-151296666D01*
X147553809Y-151296666D01*
X147744285Y-151344285D01*
X147839523Y-151391904D01*
X147934761Y-151487142D01*
X147982380Y-151630000D01*
X147982380Y-151868095D01*
X147077619Y-150915714D02*
X147030000Y-150868095D01*
X146982380Y-150772857D01*
X146982380Y-150534761D01*
X147030000Y-150439523D01*
X147077619Y-150391904D01*
X147172857Y-150344285D01*
X147268095Y-150344285D01*
X147410952Y-150391904D01*
X147982380Y-150963333D01*
X147982380Y-150344285D01*
%TO.C,D1*%
X170711904Y-114542380D02*
X170711904Y-113542380D01*
X170950000Y-113542380D01*
X171092857Y-113590000D01*
X171188095Y-113685238D01*
X171235714Y-113780476D01*
X171283333Y-113970952D01*
X171283333Y-114113809D01*
X171235714Y-114304285D01*
X171188095Y-114399523D01*
X171092857Y-114494761D01*
X170950000Y-114542380D01*
X170711904Y-114542380D01*
X172235714Y-114542380D02*
X171664285Y-114542380D01*
X171950000Y-114542380D02*
X171950000Y-113542380D01*
X171854761Y-113685238D01*
X171759523Y-113780476D01*
X171664285Y-113828095D01*
%TO.C,D0*%
X80541904Y-60142380D02*
X80541904Y-59142380D01*
X80780000Y-59142380D01*
X80922857Y-59190000D01*
X81018095Y-59285238D01*
X81065714Y-59380476D01*
X81113333Y-59570952D01*
X81113333Y-59713809D01*
X81065714Y-59904285D01*
X81018095Y-59999523D01*
X80922857Y-60094761D01*
X80780000Y-60142380D01*
X80541904Y-60142380D01*
X81732380Y-59142380D02*
X81827619Y-59142380D01*
X81922857Y-59190000D01*
X81970476Y-59237619D01*
X82018095Y-59332857D01*
X82065714Y-59523333D01*
X82065714Y-59761428D01*
X82018095Y-59951904D01*
X81970476Y-60047142D01*
X81922857Y-60094761D01*
X81827619Y-60142380D01*
X81732380Y-60142380D01*
X81637142Y-60094761D01*
X81589523Y-60047142D01*
X81541904Y-59951904D01*
X81494285Y-59761428D01*
X81494285Y-59523333D01*
X81541904Y-59332857D01*
X81589523Y-59237619D01*
X81637142Y-59190000D01*
X81732380Y-59142380D01*
%TO.C,R211*%
X118768952Y-142692380D02*
X118435619Y-142216190D01*
X118197523Y-142692380D02*
X118197523Y-141692380D01*
X118578476Y-141692380D01*
X118673714Y-141740000D01*
X118721333Y-141787619D01*
X118768952Y-141882857D01*
X118768952Y-142025714D01*
X118721333Y-142120952D01*
X118673714Y-142168571D01*
X118578476Y-142216190D01*
X118197523Y-142216190D01*
X119149904Y-141787619D02*
X119197523Y-141740000D01*
X119292761Y-141692380D01*
X119530857Y-141692380D01*
X119626095Y-141740000D01*
X119673714Y-141787619D01*
X119721333Y-141882857D01*
X119721333Y-141978095D01*
X119673714Y-142120952D01*
X119102285Y-142692380D01*
X119721333Y-142692380D01*
X120673714Y-142692380D02*
X120102285Y-142692380D01*
X120388000Y-142692380D02*
X120388000Y-141692380D01*
X120292761Y-141835238D01*
X120197523Y-141930476D01*
X120102285Y-141978095D01*
X121626095Y-142692380D02*
X121054666Y-142692380D01*
X121340380Y-142692380D02*
X121340380Y-141692380D01*
X121245142Y-141835238D01*
X121149904Y-141930476D01*
X121054666Y-141978095D01*
%TO.C,R210*%
X85240952Y-161488380D02*
X84907619Y-161012190D01*
X84669523Y-161488380D02*
X84669523Y-160488380D01*
X85050476Y-160488380D01*
X85145714Y-160536000D01*
X85193333Y-160583619D01*
X85240952Y-160678857D01*
X85240952Y-160821714D01*
X85193333Y-160916952D01*
X85145714Y-160964571D01*
X85050476Y-161012190D01*
X84669523Y-161012190D01*
X85621904Y-160583619D02*
X85669523Y-160536000D01*
X85764761Y-160488380D01*
X86002857Y-160488380D01*
X86098095Y-160536000D01*
X86145714Y-160583619D01*
X86193333Y-160678857D01*
X86193333Y-160774095D01*
X86145714Y-160916952D01*
X85574285Y-161488380D01*
X86193333Y-161488380D01*
X87145714Y-161488380D02*
X86574285Y-161488380D01*
X86860000Y-161488380D02*
X86860000Y-160488380D01*
X86764761Y-160631238D01*
X86669523Y-160726476D01*
X86574285Y-160774095D01*
X87764761Y-160488380D02*
X87860000Y-160488380D01*
X87955238Y-160536000D01*
X88002857Y-160583619D01*
X88050476Y-160678857D01*
X88098095Y-160869333D01*
X88098095Y-161107428D01*
X88050476Y-161297904D01*
X88002857Y-161393142D01*
X87955238Y-161440761D01*
X87860000Y-161488380D01*
X87764761Y-161488380D01*
X87669523Y-161440761D01*
X87621904Y-161393142D01*
X87574285Y-161297904D01*
X87526666Y-161107428D01*
X87526666Y-160869333D01*
X87574285Y-160678857D01*
X87621904Y-160583619D01*
X87669523Y-160536000D01*
X87764761Y-160488380D01*
%TO.C,R209*%
X86764952Y-159456380D02*
X86431619Y-158980190D01*
X86193523Y-159456380D02*
X86193523Y-158456380D01*
X86574476Y-158456380D01*
X86669714Y-158504000D01*
X86717333Y-158551619D01*
X86764952Y-158646857D01*
X86764952Y-158789714D01*
X86717333Y-158884952D01*
X86669714Y-158932571D01*
X86574476Y-158980190D01*
X86193523Y-158980190D01*
X87145904Y-158551619D02*
X87193523Y-158504000D01*
X87288761Y-158456380D01*
X87526857Y-158456380D01*
X87622095Y-158504000D01*
X87669714Y-158551619D01*
X87717333Y-158646857D01*
X87717333Y-158742095D01*
X87669714Y-158884952D01*
X87098285Y-159456380D01*
X87717333Y-159456380D01*
X88336380Y-158456380D02*
X88431619Y-158456380D01*
X88526857Y-158504000D01*
X88574476Y-158551619D01*
X88622095Y-158646857D01*
X88669714Y-158837333D01*
X88669714Y-159075428D01*
X88622095Y-159265904D01*
X88574476Y-159361142D01*
X88526857Y-159408761D01*
X88431619Y-159456380D01*
X88336380Y-159456380D01*
X88241142Y-159408761D01*
X88193523Y-159361142D01*
X88145904Y-159265904D01*
X88098285Y-159075428D01*
X88098285Y-158837333D01*
X88145904Y-158646857D01*
X88193523Y-158551619D01*
X88241142Y-158504000D01*
X88336380Y-158456380D01*
X89145904Y-159456380D02*
X89336380Y-159456380D01*
X89431619Y-159408761D01*
X89479238Y-159361142D01*
X89574476Y-159218285D01*
X89622095Y-159027809D01*
X89622095Y-158646857D01*
X89574476Y-158551619D01*
X89526857Y-158504000D01*
X89431619Y-158456380D01*
X89241142Y-158456380D01*
X89145904Y-158504000D01*
X89098285Y-158551619D01*
X89050666Y-158646857D01*
X89050666Y-158884952D01*
X89098285Y-158980190D01*
X89145904Y-159027809D01*
X89241142Y-159075428D01*
X89431619Y-159075428D01*
X89526857Y-159027809D01*
X89574476Y-158980190D01*
X89622095Y-158884952D01*
%TO.C,R208*%
X91336952Y-145232380D02*
X91003619Y-144756190D01*
X90765523Y-145232380D02*
X90765523Y-144232380D01*
X91146476Y-144232380D01*
X91241714Y-144280000D01*
X91289333Y-144327619D01*
X91336952Y-144422857D01*
X91336952Y-144565714D01*
X91289333Y-144660952D01*
X91241714Y-144708571D01*
X91146476Y-144756190D01*
X90765523Y-144756190D01*
X91717904Y-144327619D02*
X91765523Y-144280000D01*
X91860761Y-144232380D01*
X92098857Y-144232380D01*
X92194095Y-144280000D01*
X92241714Y-144327619D01*
X92289333Y-144422857D01*
X92289333Y-144518095D01*
X92241714Y-144660952D01*
X91670285Y-145232380D01*
X92289333Y-145232380D01*
X92908380Y-144232380D02*
X93003619Y-144232380D01*
X93098857Y-144280000D01*
X93146476Y-144327619D01*
X93194095Y-144422857D01*
X93241714Y-144613333D01*
X93241714Y-144851428D01*
X93194095Y-145041904D01*
X93146476Y-145137142D01*
X93098857Y-145184761D01*
X93003619Y-145232380D01*
X92908380Y-145232380D01*
X92813142Y-145184761D01*
X92765523Y-145137142D01*
X92717904Y-145041904D01*
X92670285Y-144851428D01*
X92670285Y-144613333D01*
X92717904Y-144422857D01*
X92765523Y-144327619D01*
X92813142Y-144280000D01*
X92908380Y-144232380D01*
X93813142Y-144660952D02*
X93717904Y-144613333D01*
X93670285Y-144565714D01*
X93622666Y-144470476D01*
X93622666Y-144422857D01*
X93670285Y-144327619D01*
X93717904Y-144280000D01*
X93813142Y-144232380D01*
X94003619Y-144232380D01*
X94098857Y-144280000D01*
X94146476Y-144327619D01*
X94194095Y-144422857D01*
X94194095Y-144470476D01*
X94146476Y-144565714D01*
X94098857Y-144613333D01*
X94003619Y-144660952D01*
X93813142Y-144660952D01*
X93717904Y-144708571D01*
X93670285Y-144756190D01*
X93622666Y-144851428D01*
X93622666Y-145041904D01*
X93670285Y-145137142D01*
X93717904Y-145184761D01*
X93813142Y-145232380D01*
X94003619Y-145232380D01*
X94098857Y-145184761D01*
X94146476Y-145137142D01*
X94194095Y-145041904D01*
X94194095Y-144851428D01*
X94146476Y-144756190D01*
X94098857Y-144708571D01*
X94003619Y-144660952D01*
%TO.C,R207*%
X105052952Y-142692380D02*
X104719619Y-142216190D01*
X104481523Y-142692380D02*
X104481523Y-141692380D01*
X104862476Y-141692380D01*
X104957714Y-141740000D01*
X105005333Y-141787619D01*
X105052952Y-141882857D01*
X105052952Y-142025714D01*
X105005333Y-142120952D01*
X104957714Y-142168571D01*
X104862476Y-142216190D01*
X104481523Y-142216190D01*
X105433904Y-141787619D02*
X105481523Y-141740000D01*
X105576761Y-141692380D01*
X105814857Y-141692380D01*
X105910095Y-141740000D01*
X105957714Y-141787619D01*
X106005333Y-141882857D01*
X106005333Y-141978095D01*
X105957714Y-142120952D01*
X105386285Y-142692380D01*
X106005333Y-142692380D01*
X106624380Y-141692380D02*
X106719619Y-141692380D01*
X106814857Y-141740000D01*
X106862476Y-141787619D01*
X106910095Y-141882857D01*
X106957714Y-142073333D01*
X106957714Y-142311428D01*
X106910095Y-142501904D01*
X106862476Y-142597142D01*
X106814857Y-142644761D01*
X106719619Y-142692380D01*
X106624380Y-142692380D01*
X106529142Y-142644761D01*
X106481523Y-142597142D01*
X106433904Y-142501904D01*
X106386285Y-142311428D01*
X106386285Y-142073333D01*
X106433904Y-141882857D01*
X106481523Y-141787619D01*
X106529142Y-141740000D01*
X106624380Y-141692380D01*
X107291047Y-141692380D02*
X107957714Y-141692380D01*
X107529142Y-142692380D01*
%TO.C,R206*%
X82700952Y-163647380D02*
X82367619Y-163171190D01*
X82129523Y-163647380D02*
X82129523Y-162647380D01*
X82510476Y-162647380D01*
X82605714Y-162695000D01*
X82653333Y-162742619D01*
X82700952Y-162837857D01*
X82700952Y-162980714D01*
X82653333Y-163075952D01*
X82605714Y-163123571D01*
X82510476Y-163171190D01*
X82129523Y-163171190D01*
X83081904Y-162742619D02*
X83129523Y-162695000D01*
X83224761Y-162647380D01*
X83462857Y-162647380D01*
X83558095Y-162695000D01*
X83605714Y-162742619D01*
X83653333Y-162837857D01*
X83653333Y-162933095D01*
X83605714Y-163075952D01*
X83034285Y-163647380D01*
X83653333Y-163647380D01*
X84272380Y-162647380D02*
X84367619Y-162647380D01*
X84462857Y-162695000D01*
X84510476Y-162742619D01*
X84558095Y-162837857D01*
X84605714Y-163028333D01*
X84605714Y-163266428D01*
X84558095Y-163456904D01*
X84510476Y-163552142D01*
X84462857Y-163599761D01*
X84367619Y-163647380D01*
X84272380Y-163647380D01*
X84177142Y-163599761D01*
X84129523Y-163552142D01*
X84081904Y-163456904D01*
X84034285Y-163266428D01*
X84034285Y-163028333D01*
X84081904Y-162837857D01*
X84129523Y-162742619D01*
X84177142Y-162695000D01*
X84272380Y-162647380D01*
X85462857Y-162647380D02*
X85272380Y-162647380D01*
X85177142Y-162695000D01*
X85129523Y-162742619D01*
X85034285Y-162885476D01*
X84986666Y-163075952D01*
X84986666Y-163456904D01*
X85034285Y-163552142D01*
X85081904Y-163599761D01*
X85177142Y-163647380D01*
X85367619Y-163647380D01*
X85462857Y-163599761D01*
X85510476Y-163552142D01*
X85558095Y-163456904D01*
X85558095Y-163218809D01*
X85510476Y-163123571D01*
X85462857Y-163075952D01*
X85367619Y-163028333D01*
X85177142Y-163028333D01*
X85081904Y-163075952D01*
X85034285Y-163123571D01*
X84986666Y-163218809D01*
%TO.C,R205*%
X83970952Y-189047380D02*
X83637619Y-188571190D01*
X83399523Y-189047380D02*
X83399523Y-188047380D01*
X83780476Y-188047380D01*
X83875714Y-188095000D01*
X83923333Y-188142619D01*
X83970952Y-188237857D01*
X83970952Y-188380714D01*
X83923333Y-188475952D01*
X83875714Y-188523571D01*
X83780476Y-188571190D01*
X83399523Y-188571190D01*
X84351904Y-188142619D02*
X84399523Y-188095000D01*
X84494761Y-188047380D01*
X84732857Y-188047380D01*
X84828095Y-188095000D01*
X84875714Y-188142619D01*
X84923333Y-188237857D01*
X84923333Y-188333095D01*
X84875714Y-188475952D01*
X84304285Y-189047380D01*
X84923333Y-189047380D01*
X85542380Y-188047380D02*
X85637619Y-188047380D01*
X85732857Y-188095000D01*
X85780476Y-188142619D01*
X85828095Y-188237857D01*
X85875714Y-188428333D01*
X85875714Y-188666428D01*
X85828095Y-188856904D01*
X85780476Y-188952142D01*
X85732857Y-188999761D01*
X85637619Y-189047380D01*
X85542380Y-189047380D01*
X85447142Y-188999761D01*
X85399523Y-188952142D01*
X85351904Y-188856904D01*
X85304285Y-188666428D01*
X85304285Y-188428333D01*
X85351904Y-188237857D01*
X85399523Y-188142619D01*
X85447142Y-188095000D01*
X85542380Y-188047380D01*
X86780476Y-188047380D02*
X86304285Y-188047380D01*
X86256666Y-188523571D01*
X86304285Y-188475952D01*
X86399523Y-188428333D01*
X86637619Y-188428333D01*
X86732857Y-188475952D01*
X86780476Y-188523571D01*
X86828095Y-188618809D01*
X86828095Y-188856904D01*
X86780476Y-188952142D01*
X86732857Y-188999761D01*
X86637619Y-189047380D01*
X86399523Y-189047380D01*
X86304285Y-188999761D01*
X86256666Y-188952142D01*
%TO.C,R204*%
X62380952Y-203144380D02*
X62047619Y-202668190D01*
X61809523Y-203144380D02*
X61809523Y-202144380D01*
X62190476Y-202144380D01*
X62285714Y-202192000D01*
X62333333Y-202239619D01*
X62380952Y-202334857D01*
X62380952Y-202477714D01*
X62333333Y-202572952D01*
X62285714Y-202620571D01*
X62190476Y-202668190D01*
X61809523Y-202668190D01*
X62761904Y-202239619D02*
X62809523Y-202192000D01*
X62904761Y-202144380D01*
X63142857Y-202144380D01*
X63238095Y-202192000D01*
X63285714Y-202239619D01*
X63333333Y-202334857D01*
X63333333Y-202430095D01*
X63285714Y-202572952D01*
X62714285Y-203144380D01*
X63333333Y-203144380D01*
X63952380Y-202144380D02*
X64047619Y-202144380D01*
X64142857Y-202192000D01*
X64190476Y-202239619D01*
X64238095Y-202334857D01*
X64285714Y-202525333D01*
X64285714Y-202763428D01*
X64238095Y-202953904D01*
X64190476Y-203049142D01*
X64142857Y-203096761D01*
X64047619Y-203144380D01*
X63952380Y-203144380D01*
X63857142Y-203096761D01*
X63809523Y-203049142D01*
X63761904Y-202953904D01*
X63714285Y-202763428D01*
X63714285Y-202525333D01*
X63761904Y-202334857D01*
X63809523Y-202239619D01*
X63857142Y-202192000D01*
X63952380Y-202144380D01*
X65142857Y-202477714D02*
X65142857Y-203144380D01*
X64904761Y-202096761D02*
X64666666Y-202811047D01*
X65285714Y-202811047D01*
%TO.C,R203*%
X87145952Y-208097380D02*
X86812619Y-207621190D01*
X86574523Y-208097380D02*
X86574523Y-207097380D01*
X86955476Y-207097380D01*
X87050714Y-207145000D01*
X87098333Y-207192619D01*
X87145952Y-207287857D01*
X87145952Y-207430714D01*
X87098333Y-207525952D01*
X87050714Y-207573571D01*
X86955476Y-207621190D01*
X86574523Y-207621190D01*
X87526904Y-207192619D02*
X87574523Y-207145000D01*
X87669761Y-207097380D01*
X87907857Y-207097380D01*
X88003095Y-207145000D01*
X88050714Y-207192619D01*
X88098333Y-207287857D01*
X88098333Y-207383095D01*
X88050714Y-207525952D01*
X87479285Y-208097380D01*
X88098333Y-208097380D01*
X88717380Y-207097380D02*
X88812619Y-207097380D01*
X88907857Y-207145000D01*
X88955476Y-207192619D01*
X89003095Y-207287857D01*
X89050714Y-207478333D01*
X89050714Y-207716428D01*
X89003095Y-207906904D01*
X88955476Y-208002142D01*
X88907857Y-208049761D01*
X88812619Y-208097380D01*
X88717380Y-208097380D01*
X88622142Y-208049761D01*
X88574523Y-208002142D01*
X88526904Y-207906904D01*
X88479285Y-207716428D01*
X88479285Y-207478333D01*
X88526904Y-207287857D01*
X88574523Y-207192619D01*
X88622142Y-207145000D01*
X88717380Y-207097380D01*
X89384047Y-207097380D02*
X90003095Y-207097380D01*
X89669761Y-207478333D01*
X89812619Y-207478333D01*
X89907857Y-207525952D01*
X89955476Y-207573571D01*
X90003095Y-207668809D01*
X90003095Y-207906904D01*
X89955476Y-208002142D01*
X89907857Y-208049761D01*
X89812619Y-208097380D01*
X89526904Y-208097380D01*
X89431666Y-208049761D01*
X89384047Y-208002142D01*
%TO.C,R202*%
X85240952Y-210002380D02*
X84907619Y-209526190D01*
X84669523Y-210002380D02*
X84669523Y-209002380D01*
X85050476Y-209002380D01*
X85145714Y-209050000D01*
X85193333Y-209097619D01*
X85240952Y-209192857D01*
X85240952Y-209335714D01*
X85193333Y-209430952D01*
X85145714Y-209478571D01*
X85050476Y-209526190D01*
X84669523Y-209526190D01*
X85621904Y-209097619D02*
X85669523Y-209050000D01*
X85764761Y-209002380D01*
X86002857Y-209002380D01*
X86098095Y-209050000D01*
X86145714Y-209097619D01*
X86193333Y-209192857D01*
X86193333Y-209288095D01*
X86145714Y-209430952D01*
X85574285Y-210002380D01*
X86193333Y-210002380D01*
X86812380Y-209002380D02*
X86907619Y-209002380D01*
X87002857Y-209050000D01*
X87050476Y-209097619D01*
X87098095Y-209192857D01*
X87145714Y-209383333D01*
X87145714Y-209621428D01*
X87098095Y-209811904D01*
X87050476Y-209907142D01*
X87002857Y-209954761D01*
X86907619Y-210002380D01*
X86812380Y-210002380D01*
X86717142Y-209954761D01*
X86669523Y-209907142D01*
X86621904Y-209811904D01*
X86574285Y-209621428D01*
X86574285Y-209383333D01*
X86621904Y-209192857D01*
X86669523Y-209097619D01*
X86717142Y-209050000D01*
X86812380Y-209002380D01*
X87526666Y-209097619D02*
X87574285Y-209050000D01*
X87669523Y-209002380D01*
X87907619Y-209002380D01*
X88002857Y-209050000D01*
X88050476Y-209097619D01*
X88098095Y-209192857D01*
X88098095Y-209288095D01*
X88050476Y-209430952D01*
X87479047Y-210002380D01*
X88098095Y-210002380D01*
%TO.C,R201*%
X75080952Y-191460380D02*
X74747619Y-190984190D01*
X74509523Y-191460380D02*
X74509523Y-190460380D01*
X74890476Y-190460380D01*
X74985714Y-190508000D01*
X75033333Y-190555619D01*
X75080952Y-190650857D01*
X75080952Y-190793714D01*
X75033333Y-190888952D01*
X74985714Y-190936571D01*
X74890476Y-190984190D01*
X74509523Y-190984190D01*
X75461904Y-190555619D02*
X75509523Y-190508000D01*
X75604761Y-190460380D01*
X75842857Y-190460380D01*
X75938095Y-190508000D01*
X75985714Y-190555619D01*
X76033333Y-190650857D01*
X76033333Y-190746095D01*
X75985714Y-190888952D01*
X75414285Y-191460380D01*
X76033333Y-191460380D01*
X76652380Y-190460380D02*
X76747619Y-190460380D01*
X76842857Y-190508000D01*
X76890476Y-190555619D01*
X76938095Y-190650857D01*
X76985714Y-190841333D01*
X76985714Y-191079428D01*
X76938095Y-191269904D01*
X76890476Y-191365142D01*
X76842857Y-191412761D01*
X76747619Y-191460380D01*
X76652380Y-191460380D01*
X76557142Y-191412761D01*
X76509523Y-191365142D01*
X76461904Y-191269904D01*
X76414285Y-191079428D01*
X76414285Y-190841333D01*
X76461904Y-190650857D01*
X76509523Y-190555619D01*
X76557142Y-190508000D01*
X76652380Y-190460380D01*
X77938095Y-191460380D02*
X77366666Y-191460380D01*
X77652380Y-191460380D02*
X77652380Y-190460380D01*
X77557142Y-190603238D01*
X77461904Y-190698476D01*
X77366666Y-190746095D01*
%TO.C,R200*%
X72540952Y-198064380D02*
X72207619Y-197588190D01*
X71969523Y-198064380D02*
X71969523Y-197064380D01*
X72350476Y-197064380D01*
X72445714Y-197112000D01*
X72493333Y-197159619D01*
X72540952Y-197254857D01*
X72540952Y-197397714D01*
X72493333Y-197492952D01*
X72445714Y-197540571D01*
X72350476Y-197588190D01*
X71969523Y-197588190D01*
X72921904Y-197159619D02*
X72969523Y-197112000D01*
X73064761Y-197064380D01*
X73302857Y-197064380D01*
X73398095Y-197112000D01*
X73445714Y-197159619D01*
X73493333Y-197254857D01*
X73493333Y-197350095D01*
X73445714Y-197492952D01*
X72874285Y-198064380D01*
X73493333Y-198064380D01*
X74112380Y-197064380D02*
X74207619Y-197064380D01*
X74302857Y-197112000D01*
X74350476Y-197159619D01*
X74398095Y-197254857D01*
X74445714Y-197445333D01*
X74445714Y-197683428D01*
X74398095Y-197873904D01*
X74350476Y-197969142D01*
X74302857Y-198016761D01*
X74207619Y-198064380D01*
X74112380Y-198064380D01*
X74017142Y-198016761D01*
X73969523Y-197969142D01*
X73921904Y-197873904D01*
X73874285Y-197683428D01*
X73874285Y-197445333D01*
X73921904Y-197254857D01*
X73969523Y-197159619D01*
X74017142Y-197112000D01*
X74112380Y-197064380D01*
X75064761Y-197064380D02*
X75160000Y-197064380D01*
X75255238Y-197112000D01*
X75302857Y-197159619D01*
X75350476Y-197254857D01*
X75398095Y-197445333D01*
X75398095Y-197683428D01*
X75350476Y-197873904D01*
X75302857Y-197969142D01*
X75255238Y-198016761D01*
X75160000Y-198064380D01*
X75064761Y-198064380D01*
X74969523Y-198016761D01*
X74921904Y-197969142D01*
X74874285Y-197873904D01*
X74826666Y-197683428D01*
X74826666Y-197445333D01*
X74874285Y-197254857D01*
X74921904Y-197159619D01*
X74969523Y-197112000D01*
X75064761Y-197064380D01*
%TO.C,R25*%
X111117142Y-71318380D02*
X110783809Y-70842190D01*
X110545714Y-71318380D02*
X110545714Y-70318380D01*
X110926666Y-70318380D01*
X111021904Y-70366000D01*
X111069523Y-70413619D01*
X111117142Y-70508857D01*
X111117142Y-70651714D01*
X111069523Y-70746952D01*
X111021904Y-70794571D01*
X110926666Y-70842190D01*
X110545714Y-70842190D01*
X111498095Y-70413619D02*
X111545714Y-70366000D01*
X111640952Y-70318380D01*
X111879047Y-70318380D01*
X111974285Y-70366000D01*
X112021904Y-70413619D01*
X112069523Y-70508857D01*
X112069523Y-70604095D01*
X112021904Y-70746952D01*
X111450476Y-71318380D01*
X112069523Y-71318380D01*
X112974285Y-70318380D02*
X112498095Y-70318380D01*
X112450476Y-70794571D01*
X112498095Y-70746952D01*
X112593333Y-70699333D01*
X112831428Y-70699333D01*
X112926666Y-70746952D01*
X112974285Y-70794571D01*
X113021904Y-70889809D01*
X113021904Y-71127904D01*
X112974285Y-71223142D01*
X112926666Y-71270761D01*
X112831428Y-71318380D01*
X112593333Y-71318380D01*
X112498095Y-71270761D01*
X112450476Y-71223142D01*
%TO.C,R15*%
X139057142Y-73604380D02*
X138723809Y-73128190D01*
X138485714Y-73604380D02*
X138485714Y-72604380D01*
X138866666Y-72604380D01*
X138961904Y-72652000D01*
X139009523Y-72699619D01*
X139057142Y-72794857D01*
X139057142Y-72937714D01*
X139009523Y-73032952D01*
X138961904Y-73080571D01*
X138866666Y-73128190D01*
X138485714Y-73128190D01*
X140009523Y-73604380D02*
X139438095Y-73604380D01*
X139723809Y-73604380D02*
X139723809Y-72604380D01*
X139628571Y-72747238D01*
X139533333Y-72842476D01*
X139438095Y-72890095D01*
X140914285Y-72604380D02*
X140438095Y-72604380D01*
X140390476Y-73080571D01*
X140438095Y-73032952D01*
X140533333Y-72985333D01*
X140771428Y-72985333D01*
X140866666Y-73032952D01*
X140914285Y-73080571D01*
X140961904Y-73175809D01*
X140961904Y-73413904D01*
X140914285Y-73509142D01*
X140866666Y-73556761D01*
X140771428Y-73604380D01*
X140533333Y-73604380D01*
X140438095Y-73556761D01*
X140390476Y-73509142D01*
%TO.C,R10*%
X149217142Y-73604380D02*
X148883809Y-73128190D01*
X148645714Y-73604380D02*
X148645714Y-72604380D01*
X149026666Y-72604380D01*
X149121904Y-72652000D01*
X149169523Y-72699619D01*
X149217142Y-72794857D01*
X149217142Y-72937714D01*
X149169523Y-73032952D01*
X149121904Y-73080571D01*
X149026666Y-73128190D01*
X148645714Y-73128190D01*
X150169523Y-73604380D02*
X149598095Y-73604380D01*
X149883809Y-73604380D02*
X149883809Y-72604380D01*
X149788571Y-72747238D01*
X149693333Y-72842476D01*
X149598095Y-72890095D01*
X150788571Y-72604380D02*
X150883809Y-72604380D01*
X150979047Y-72652000D01*
X151026666Y-72699619D01*
X151074285Y-72794857D01*
X151121904Y-72985333D01*
X151121904Y-73223428D01*
X151074285Y-73413904D01*
X151026666Y-73509142D01*
X150979047Y-73556761D01*
X150883809Y-73604380D01*
X150788571Y-73604380D01*
X150693333Y-73556761D01*
X150645714Y-73509142D01*
X150598095Y-73413904D01*
X150550476Y-73223428D01*
X150550476Y-72985333D01*
X150598095Y-72794857D01*
X150645714Y-72699619D01*
X150693333Y-72652000D01*
X150788571Y-72604380D01*
%TO.C,R5*%
X159853333Y-73604380D02*
X159520000Y-73128190D01*
X159281904Y-73604380D02*
X159281904Y-72604380D01*
X159662857Y-72604380D01*
X159758095Y-72652000D01*
X159805714Y-72699619D01*
X159853333Y-72794857D01*
X159853333Y-72937714D01*
X159805714Y-73032952D01*
X159758095Y-73080571D01*
X159662857Y-73128190D01*
X159281904Y-73128190D01*
X160758095Y-72604380D02*
X160281904Y-72604380D01*
X160234285Y-73080571D01*
X160281904Y-73032952D01*
X160377142Y-72985333D01*
X160615238Y-72985333D01*
X160710476Y-73032952D01*
X160758095Y-73080571D01*
X160805714Y-73175809D01*
X160805714Y-73413904D01*
X160758095Y-73509142D01*
X160710476Y-73556761D01*
X160615238Y-73604380D01*
X160377142Y-73604380D01*
X160281904Y-73556761D01*
X160234285Y-73509142D01*
%TO.C,R26*%
X103751142Y-56078380D02*
X103417809Y-55602190D01*
X103179714Y-56078380D02*
X103179714Y-55078380D01*
X103560666Y-55078380D01*
X103655904Y-55126000D01*
X103703523Y-55173619D01*
X103751142Y-55268857D01*
X103751142Y-55411714D01*
X103703523Y-55506952D01*
X103655904Y-55554571D01*
X103560666Y-55602190D01*
X103179714Y-55602190D01*
X104132095Y-55173619D02*
X104179714Y-55126000D01*
X104274952Y-55078380D01*
X104513047Y-55078380D01*
X104608285Y-55126000D01*
X104655904Y-55173619D01*
X104703523Y-55268857D01*
X104703523Y-55364095D01*
X104655904Y-55506952D01*
X104084476Y-56078380D01*
X104703523Y-56078380D01*
X105560666Y-55078380D02*
X105370190Y-55078380D01*
X105274952Y-55126000D01*
X105227333Y-55173619D01*
X105132095Y-55316476D01*
X105084476Y-55506952D01*
X105084476Y-55887904D01*
X105132095Y-55983142D01*
X105179714Y-56030761D01*
X105274952Y-56078380D01*
X105465428Y-56078380D01*
X105560666Y-56030761D01*
X105608285Y-55983142D01*
X105655904Y-55887904D01*
X105655904Y-55649809D01*
X105608285Y-55554571D01*
X105560666Y-55506952D01*
X105465428Y-55459333D01*
X105274952Y-55459333D01*
X105179714Y-55506952D01*
X105132095Y-55554571D01*
X105084476Y-55649809D01*
%TO.C,R24*%
X115689142Y-74620380D02*
X115355809Y-74144190D01*
X115117714Y-74620380D02*
X115117714Y-73620380D01*
X115498666Y-73620380D01*
X115593904Y-73668000D01*
X115641523Y-73715619D01*
X115689142Y-73810857D01*
X115689142Y-73953714D01*
X115641523Y-74048952D01*
X115593904Y-74096571D01*
X115498666Y-74144190D01*
X115117714Y-74144190D01*
X116070095Y-73715619D02*
X116117714Y-73668000D01*
X116212952Y-73620380D01*
X116451047Y-73620380D01*
X116546285Y-73668000D01*
X116593904Y-73715619D01*
X116641523Y-73810857D01*
X116641523Y-73906095D01*
X116593904Y-74048952D01*
X116022476Y-74620380D01*
X116641523Y-74620380D01*
X117498666Y-73953714D02*
X117498666Y-74620380D01*
X117260571Y-73572761D02*
X117022476Y-74287047D01*
X117641523Y-74287047D01*
%TO.C,R23*%
X118991142Y-74620380D02*
X118657809Y-74144190D01*
X118419714Y-74620380D02*
X118419714Y-73620380D01*
X118800666Y-73620380D01*
X118895904Y-73668000D01*
X118943523Y-73715619D01*
X118991142Y-73810857D01*
X118991142Y-73953714D01*
X118943523Y-74048952D01*
X118895904Y-74096571D01*
X118800666Y-74144190D01*
X118419714Y-74144190D01*
X119372095Y-73715619D02*
X119419714Y-73668000D01*
X119514952Y-73620380D01*
X119753047Y-73620380D01*
X119848285Y-73668000D01*
X119895904Y-73715619D01*
X119943523Y-73810857D01*
X119943523Y-73906095D01*
X119895904Y-74048952D01*
X119324476Y-74620380D01*
X119943523Y-74620380D01*
X120276857Y-73620380D02*
X120895904Y-73620380D01*
X120562571Y-74001333D01*
X120705428Y-74001333D01*
X120800666Y-74048952D01*
X120848285Y-74096571D01*
X120895904Y-74191809D01*
X120895904Y-74429904D01*
X120848285Y-74525142D01*
X120800666Y-74572761D01*
X120705428Y-74620380D01*
X120419714Y-74620380D01*
X120324476Y-74572761D01*
X120276857Y-74525142D01*
%TO.C,R22*%
X118991142Y-73096380D02*
X118657809Y-72620190D01*
X118419714Y-73096380D02*
X118419714Y-72096380D01*
X118800666Y-72096380D01*
X118895904Y-72144000D01*
X118943523Y-72191619D01*
X118991142Y-72286857D01*
X118991142Y-72429714D01*
X118943523Y-72524952D01*
X118895904Y-72572571D01*
X118800666Y-72620190D01*
X118419714Y-72620190D01*
X119372095Y-72191619D02*
X119419714Y-72144000D01*
X119514952Y-72096380D01*
X119753047Y-72096380D01*
X119848285Y-72144000D01*
X119895904Y-72191619D01*
X119943523Y-72286857D01*
X119943523Y-72382095D01*
X119895904Y-72524952D01*
X119324476Y-73096380D01*
X119943523Y-73096380D01*
X120324476Y-72191619D02*
X120372095Y-72144000D01*
X120467333Y-72096380D01*
X120705428Y-72096380D01*
X120800666Y-72144000D01*
X120848285Y-72191619D01*
X120895904Y-72286857D01*
X120895904Y-72382095D01*
X120848285Y-72524952D01*
X120276857Y-73096380D01*
X120895904Y-73096380D01*
%TO.C,R19*%
X125849142Y-74620380D02*
X125515809Y-74144190D01*
X125277714Y-74620380D02*
X125277714Y-73620380D01*
X125658666Y-73620380D01*
X125753904Y-73668000D01*
X125801523Y-73715619D01*
X125849142Y-73810857D01*
X125849142Y-73953714D01*
X125801523Y-74048952D01*
X125753904Y-74096571D01*
X125658666Y-74144190D01*
X125277714Y-74144190D01*
X126801523Y-74620380D02*
X126230095Y-74620380D01*
X126515809Y-74620380D02*
X126515809Y-73620380D01*
X126420571Y-73763238D01*
X126325333Y-73858476D01*
X126230095Y-73906095D01*
X127277714Y-74620380D02*
X127468190Y-74620380D01*
X127563428Y-74572761D01*
X127611047Y-74525142D01*
X127706285Y-74382285D01*
X127753904Y-74191809D01*
X127753904Y-73810857D01*
X127706285Y-73715619D01*
X127658666Y-73668000D01*
X127563428Y-73620380D01*
X127372952Y-73620380D01*
X127277714Y-73668000D01*
X127230095Y-73715619D01*
X127182476Y-73810857D01*
X127182476Y-74048952D01*
X127230095Y-74144190D01*
X127277714Y-74191809D01*
X127372952Y-74239428D01*
X127563428Y-74239428D01*
X127658666Y-74191809D01*
X127706285Y-74144190D01*
X127753904Y-74048952D01*
%TO.C,R18*%
X129151142Y-74620380D02*
X128817809Y-74144190D01*
X128579714Y-74620380D02*
X128579714Y-73620380D01*
X128960666Y-73620380D01*
X129055904Y-73668000D01*
X129103523Y-73715619D01*
X129151142Y-73810857D01*
X129151142Y-73953714D01*
X129103523Y-74048952D01*
X129055904Y-74096571D01*
X128960666Y-74144190D01*
X128579714Y-74144190D01*
X130103523Y-74620380D02*
X129532095Y-74620380D01*
X129817809Y-74620380D02*
X129817809Y-73620380D01*
X129722571Y-73763238D01*
X129627333Y-73858476D01*
X129532095Y-73906095D01*
X130674952Y-74048952D02*
X130579714Y-74001333D01*
X130532095Y-73953714D01*
X130484476Y-73858476D01*
X130484476Y-73810857D01*
X130532095Y-73715619D01*
X130579714Y-73668000D01*
X130674952Y-73620380D01*
X130865428Y-73620380D01*
X130960666Y-73668000D01*
X131008285Y-73715619D01*
X131055904Y-73810857D01*
X131055904Y-73858476D01*
X131008285Y-73953714D01*
X130960666Y-74001333D01*
X130865428Y-74048952D01*
X130674952Y-74048952D01*
X130579714Y-74096571D01*
X130532095Y-74144190D01*
X130484476Y-74239428D01*
X130484476Y-74429904D01*
X130532095Y-74525142D01*
X130579714Y-74572761D01*
X130674952Y-74620380D01*
X130865428Y-74620380D01*
X130960666Y-74572761D01*
X131008285Y-74525142D01*
X131055904Y-74429904D01*
X131055904Y-74239428D01*
X131008285Y-74144190D01*
X130960666Y-74096571D01*
X130865428Y-74048952D01*
%TO.C,R17*%
X129151142Y-73096380D02*
X128817809Y-72620190D01*
X128579714Y-73096380D02*
X128579714Y-72096380D01*
X128960666Y-72096380D01*
X129055904Y-72144000D01*
X129103523Y-72191619D01*
X129151142Y-72286857D01*
X129151142Y-72429714D01*
X129103523Y-72524952D01*
X129055904Y-72572571D01*
X128960666Y-72620190D01*
X128579714Y-72620190D01*
X130103523Y-73096380D02*
X129532095Y-73096380D01*
X129817809Y-73096380D02*
X129817809Y-72096380D01*
X129722571Y-72239238D01*
X129627333Y-72334476D01*
X129532095Y-72382095D01*
X130436857Y-72096380D02*
X131103523Y-72096380D01*
X130674952Y-73096380D01*
%TO.C,R14*%
X143883142Y-69286380D02*
X143549809Y-68810190D01*
X143311714Y-69286380D02*
X143311714Y-68286380D01*
X143692666Y-68286380D01*
X143787904Y-68334000D01*
X143835523Y-68381619D01*
X143883142Y-68476857D01*
X143883142Y-68619714D01*
X143835523Y-68714952D01*
X143787904Y-68762571D01*
X143692666Y-68810190D01*
X143311714Y-68810190D01*
X144835523Y-69286380D02*
X144264095Y-69286380D01*
X144549809Y-69286380D02*
X144549809Y-68286380D01*
X144454571Y-68429238D01*
X144359333Y-68524476D01*
X144264095Y-68572095D01*
X145692666Y-68619714D02*
X145692666Y-69286380D01*
X145454571Y-68238761D02*
X145216476Y-68953047D01*
X145835523Y-68953047D01*
%TO.C,R13*%
X146931142Y-69286380D02*
X146597809Y-68810190D01*
X146359714Y-69286380D02*
X146359714Y-68286380D01*
X146740666Y-68286380D01*
X146835904Y-68334000D01*
X146883523Y-68381619D01*
X146931142Y-68476857D01*
X146931142Y-68619714D01*
X146883523Y-68714952D01*
X146835904Y-68762571D01*
X146740666Y-68810190D01*
X146359714Y-68810190D01*
X147883523Y-69286380D02*
X147312095Y-69286380D01*
X147597809Y-69286380D02*
X147597809Y-68286380D01*
X147502571Y-68429238D01*
X147407333Y-68524476D01*
X147312095Y-68572095D01*
X148216857Y-68286380D02*
X148835904Y-68286380D01*
X148502571Y-68667333D01*
X148645428Y-68667333D01*
X148740666Y-68714952D01*
X148788285Y-68762571D01*
X148835904Y-68857809D01*
X148835904Y-69095904D01*
X148788285Y-69191142D01*
X148740666Y-69238761D01*
X148645428Y-69286380D01*
X148359714Y-69286380D01*
X148264476Y-69238761D01*
X148216857Y-69191142D01*
%TO.C,R12*%
X146931142Y-67762380D02*
X146597809Y-67286190D01*
X146359714Y-67762380D02*
X146359714Y-66762380D01*
X146740666Y-66762380D01*
X146835904Y-66810000D01*
X146883523Y-66857619D01*
X146931142Y-66952857D01*
X146931142Y-67095714D01*
X146883523Y-67190952D01*
X146835904Y-67238571D01*
X146740666Y-67286190D01*
X146359714Y-67286190D01*
X147883523Y-67762380D02*
X147312095Y-67762380D01*
X147597809Y-67762380D02*
X147597809Y-66762380D01*
X147502571Y-66905238D01*
X147407333Y-67000476D01*
X147312095Y-67048095D01*
X148264476Y-66857619D02*
X148312095Y-66810000D01*
X148407333Y-66762380D01*
X148645428Y-66762380D01*
X148740666Y-66810000D01*
X148788285Y-66857619D01*
X148835904Y-66952857D01*
X148835904Y-67048095D01*
X148788285Y-67190952D01*
X148216857Y-67762380D01*
X148835904Y-67762380D01*
%TO.C,R9*%
X154773333Y-69286380D02*
X154440000Y-68810190D01*
X154201904Y-69286380D02*
X154201904Y-68286380D01*
X154582857Y-68286380D01*
X154678095Y-68334000D01*
X154725714Y-68381619D01*
X154773333Y-68476857D01*
X154773333Y-68619714D01*
X154725714Y-68714952D01*
X154678095Y-68762571D01*
X154582857Y-68810190D01*
X154201904Y-68810190D01*
X155249523Y-69286380D02*
X155440000Y-69286380D01*
X155535238Y-69238761D01*
X155582857Y-69191142D01*
X155678095Y-69048285D01*
X155725714Y-68857809D01*
X155725714Y-68476857D01*
X155678095Y-68381619D01*
X155630476Y-68334000D01*
X155535238Y-68286380D01*
X155344761Y-68286380D01*
X155249523Y-68334000D01*
X155201904Y-68381619D01*
X155154285Y-68476857D01*
X155154285Y-68714952D01*
X155201904Y-68810190D01*
X155249523Y-68857809D01*
X155344761Y-68905428D01*
X155535238Y-68905428D01*
X155630476Y-68857809D01*
X155678095Y-68810190D01*
X155725714Y-68714952D01*
%TO.C,R8*%
X157313333Y-69286380D02*
X156980000Y-68810190D01*
X156741904Y-69286380D02*
X156741904Y-68286380D01*
X157122857Y-68286380D01*
X157218095Y-68334000D01*
X157265714Y-68381619D01*
X157313333Y-68476857D01*
X157313333Y-68619714D01*
X157265714Y-68714952D01*
X157218095Y-68762571D01*
X157122857Y-68810190D01*
X156741904Y-68810190D01*
X157884761Y-68714952D02*
X157789523Y-68667333D01*
X157741904Y-68619714D01*
X157694285Y-68524476D01*
X157694285Y-68476857D01*
X157741904Y-68381619D01*
X157789523Y-68334000D01*
X157884761Y-68286380D01*
X158075238Y-68286380D01*
X158170476Y-68334000D01*
X158218095Y-68381619D01*
X158265714Y-68476857D01*
X158265714Y-68524476D01*
X158218095Y-68619714D01*
X158170476Y-68667333D01*
X158075238Y-68714952D01*
X157884761Y-68714952D01*
X157789523Y-68762571D01*
X157741904Y-68810190D01*
X157694285Y-68905428D01*
X157694285Y-69095904D01*
X157741904Y-69191142D01*
X157789523Y-69238761D01*
X157884761Y-69286380D01*
X158075238Y-69286380D01*
X158170476Y-69238761D01*
X158218095Y-69191142D01*
X158265714Y-69095904D01*
X158265714Y-68905428D01*
X158218095Y-68810190D01*
X158170476Y-68762571D01*
X158075238Y-68714952D01*
%TO.C,R7*%
X157313333Y-67762380D02*
X156980000Y-67286190D01*
X156741904Y-67762380D02*
X156741904Y-66762380D01*
X157122857Y-66762380D01*
X157218095Y-66810000D01*
X157265714Y-66857619D01*
X157313333Y-66952857D01*
X157313333Y-67095714D01*
X157265714Y-67190952D01*
X157218095Y-67238571D01*
X157122857Y-67286190D01*
X156741904Y-67286190D01*
X157646666Y-66762380D02*
X158313333Y-66762380D01*
X157884761Y-67762380D01*
%TO.C,R4*%
X174585333Y-64206380D02*
X174252000Y-63730190D01*
X174013904Y-64206380D02*
X174013904Y-63206380D01*
X174394857Y-63206380D01*
X174490095Y-63254000D01*
X174537714Y-63301619D01*
X174585333Y-63396857D01*
X174585333Y-63539714D01*
X174537714Y-63634952D01*
X174490095Y-63682571D01*
X174394857Y-63730190D01*
X174013904Y-63730190D01*
X175442476Y-63539714D02*
X175442476Y-64206380D01*
X175204380Y-63158761D02*
X174966285Y-63873047D01*
X175585333Y-63873047D01*
%TO.C,R3*%
X177125333Y-64206380D02*
X176792000Y-63730190D01*
X176553904Y-64206380D02*
X176553904Y-63206380D01*
X176934857Y-63206380D01*
X177030095Y-63254000D01*
X177077714Y-63301619D01*
X177125333Y-63396857D01*
X177125333Y-63539714D01*
X177077714Y-63634952D01*
X177030095Y-63682571D01*
X176934857Y-63730190D01*
X176553904Y-63730190D01*
X177458666Y-63206380D02*
X178077714Y-63206380D01*
X177744380Y-63587333D01*
X177887238Y-63587333D01*
X177982476Y-63634952D01*
X178030095Y-63682571D01*
X178077714Y-63777809D01*
X178077714Y-64015904D01*
X178030095Y-64111142D01*
X177982476Y-64158761D01*
X177887238Y-64206380D01*
X177601523Y-64206380D01*
X177506285Y-64158761D01*
X177458666Y-64111142D01*
%TO.C,R2*%
X177125333Y-62682380D02*
X176792000Y-62206190D01*
X176553904Y-62682380D02*
X176553904Y-61682380D01*
X176934857Y-61682380D01*
X177030095Y-61730000D01*
X177077714Y-61777619D01*
X177125333Y-61872857D01*
X177125333Y-62015714D01*
X177077714Y-62110952D01*
X177030095Y-62158571D01*
X176934857Y-62206190D01*
X176553904Y-62206190D01*
X177506285Y-61777619D02*
X177553904Y-61730000D01*
X177649142Y-61682380D01*
X177887238Y-61682380D01*
X177982476Y-61730000D01*
X178030095Y-61777619D01*
X178077714Y-61872857D01*
X178077714Y-61968095D01*
X178030095Y-62110952D01*
X177458666Y-62682380D01*
X178077714Y-62682380D01*
%TO.C,C201*%
X78255952Y-207307142D02*
X78208333Y-207354761D01*
X78065476Y-207402380D01*
X77970238Y-207402380D01*
X77827380Y-207354761D01*
X77732142Y-207259523D01*
X77684523Y-207164285D01*
X77636904Y-206973809D01*
X77636904Y-206830952D01*
X77684523Y-206640476D01*
X77732142Y-206545238D01*
X77827380Y-206450000D01*
X77970238Y-206402380D01*
X78065476Y-206402380D01*
X78208333Y-206450000D01*
X78255952Y-206497619D01*
X78636904Y-206497619D02*
X78684523Y-206450000D01*
X78779761Y-206402380D01*
X79017857Y-206402380D01*
X79113095Y-206450000D01*
X79160714Y-206497619D01*
X79208333Y-206592857D01*
X79208333Y-206688095D01*
X79160714Y-206830952D01*
X78589285Y-207402380D01*
X79208333Y-207402380D01*
X79827380Y-206402380D02*
X79922619Y-206402380D01*
X80017857Y-206450000D01*
X80065476Y-206497619D01*
X80113095Y-206592857D01*
X80160714Y-206783333D01*
X80160714Y-207021428D01*
X80113095Y-207211904D01*
X80065476Y-207307142D01*
X80017857Y-207354761D01*
X79922619Y-207402380D01*
X79827380Y-207402380D01*
X79732142Y-207354761D01*
X79684523Y-207307142D01*
X79636904Y-207211904D01*
X79589285Y-207021428D01*
X79589285Y-206783333D01*
X79636904Y-206592857D01*
X79684523Y-206497619D01*
X79732142Y-206450000D01*
X79827380Y-206402380D01*
X81113095Y-207402380D02*
X80541666Y-207402380D01*
X80827380Y-207402380D02*
X80827380Y-206402380D01*
X80732142Y-206545238D01*
X80636904Y-206640476D01*
X80541666Y-206688095D01*
%TO.C,C200*%
X65428952Y-200509142D02*
X65381333Y-200556761D01*
X65238476Y-200604380D01*
X65143238Y-200604380D01*
X65000380Y-200556761D01*
X64905142Y-200461523D01*
X64857523Y-200366285D01*
X64809904Y-200175809D01*
X64809904Y-200032952D01*
X64857523Y-199842476D01*
X64905142Y-199747238D01*
X65000380Y-199652000D01*
X65143238Y-199604380D01*
X65238476Y-199604380D01*
X65381333Y-199652000D01*
X65428952Y-199699619D01*
X65809904Y-199699619D02*
X65857523Y-199652000D01*
X65952761Y-199604380D01*
X66190857Y-199604380D01*
X66286095Y-199652000D01*
X66333714Y-199699619D01*
X66381333Y-199794857D01*
X66381333Y-199890095D01*
X66333714Y-200032952D01*
X65762285Y-200604380D01*
X66381333Y-200604380D01*
X67000380Y-199604380D02*
X67095619Y-199604380D01*
X67190857Y-199652000D01*
X67238476Y-199699619D01*
X67286095Y-199794857D01*
X67333714Y-199985333D01*
X67333714Y-200223428D01*
X67286095Y-200413904D01*
X67238476Y-200509142D01*
X67190857Y-200556761D01*
X67095619Y-200604380D01*
X67000380Y-200604380D01*
X66905142Y-200556761D01*
X66857523Y-200509142D01*
X66809904Y-200413904D01*
X66762285Y-200223428D01*
X66762285Y-199985333D01*
X66809904Y-199794857D01*
X66857523Y-199699619D01*
X66905142Y-199652000D01*
X67000380Y-199604380D01*
X67952761Y-199604380D02*
X68048000Y-199604380D01*
X68143238Y-199652000D01*
X68190857Y-199699619D01*
X68238476Y-199794857D01*
X68286095Y-199985333D01*
X68286095Y-200223428D01*
X68238476Y-200413904D01*
X68190857Y-200509142D01*
X68143238Y-200556761D01*
X68048000Y-200604380D01*
X67952761Y-200604380D01*
X67857523Y-200556761D01*
X67809904Y-200509142D01*
X67762285Y-200413904D01*
X67714666Y-200223428D01*
X67714666Y-199985333D01*
X67762285Y-199794857D01*
X67809904Y-199699619D01*
X67857523Y-199652000D01*
X67952761Y-199604380D01*
%TO.C,C21*%
X116959142Y-71223142D02*
X116911523Y-71270761D01*
X116768666Y-71318380D01*
X116673428Y-71318380D01*
X116530571Y-71270761D01*
X116435333Y-71175523D01*
X116387714Y-71080285D01*
X116340095Y-70889809D01*
X116340095Y-70746952D01*
X116387714Y-70556476D01*
X116435333Y-70461238D01*
X116530571Y-70366000D01*
X116673428Y-70318380D01*
X116768666Y-70318380D01*
X116911523Y-70366000D01*
X116959142Y-70413619D01*
X117340095Y-70413619D02*
X117387714Y-70366000D01*
X117482952Y-70318380D01*
X117721047Y-70318380D01*
X117816285Y-70366000D01*
X117863904Y-70413619D01*
X117911523Y-70508857D01*
X117911523Y-70604095D01*
X117863904Y-70746952D01*
X117292476Y-71318380D01*
X117911523Y-71318380D01*
X118863904Y-71318380D02*
X118292476Y-71318380D01*
X118578190Y-71318380D02*
X118578190Y-70318380D01*
X118482952Y-70461238D01*
X118387714Y-70556476D01*
X118292476Y-70604095D01*
%TO.C,C16*%
X127373142Y-71223142D02*
X127325523Y-71270761D01*
X127182666Y-71318380D01*
X127087428Y-71318380D01*
X126944571Y-71270761D01*
X126849333Y-71175523D01*
X126801714Y-71080285D01*
X126754095Y-70889809D01*
X126754095Y-70746952D01*
X126801714Y-70556476D01*
X126849333Y-70461238D01*
X126944571Y-70366000D01*
X127087428Y-70318380D01*
X127182666Y-70318380D01*
X127325523Y-70366000D01*
X127373142Y-70413619D01*
X128325523Y-71318380D02*
X127754095Y-71318380D01*
X128039809Y-71318380D02*
X128039809Y-70318380D01*
X127944571Y-70461238D01*
X127849333Y-70556476D01*
X127754095Y-70604095D01*
X129182666Y-70318380D02*
X128992190Y-70318380D01*
X128896952Y-70366000D01*
X128849333Y-70413619D01*
X128754095Y-70556476D01*
X128706476Y-70746952D01*
X128706476Y-71127904D01*
X128754095Y-71223142D01*
X128801714Y-71270761D01*
X128896952Y-71318380D01*
X129087428Y-71318380D01*
X129182666Y-71270761D01*
X129230285Y-71223142D01*
X129277904Y-71127904D01*
X129277904Y-70889809D01*
X129230285Y-70794571D01*
X129182666Y-70746952D01*
X129087428Y-70699333D01*
X128896952Y-70699333D01*
X128801714Y-70746952D01*
X128754095Y-70794571D01*
X128706476Y-70889809D01*
%TO.C,C11*%
X145387142Y-66143142D02*
X145339523Y-66190761D01*
X145196666Y-66238380D01*
X145101428Y-66238380D01*
X144958571Y-66190761D01*
X144863333Y-66095523D01*
X144815714Y-66000285D01*
X144768095Y-65809809D01*
X144768095Y-65666952D01*
X144815714Y-65476476D01*
X144863333Y-65381238D01*
X144958571Y-65286000D01*
X145101428Y-65238380D01*
X145196666Y-65238380D01*
X145339523Y-65286000D01*
X145387142Y-65333619D01*
X146339523Y-66238380D02*
X145768095Y-66238380D01*
X146053809Y-66238380D02*
X146053809Y-65238380D01*
X145958571Y-65381238D01*
X145863333Y-65476476D01*
X145768095Y-65524095D01*
X147291904Y-66238380D02*
X146720476Y-66238380D01*
X147006190Y-66238380D02*
X147006190Y-65238380D01*
X146910952Y-65381238D01*
X146815714Y-65476476D01*
X146720476Y-65524095D01*
%TO.C,C6*%
X156043333Y-66143142D02*
X155995714Y-66190761D01*
X155852857Y-66238380D01*
X155757619Y-66238380D01*
X155614761Y-66190761D01*
X155519523Y-66095523D01*
X155471904Y-66000285D01*
X155424285Y-65809809D01*
X155424285Y-65666952D01*
X155471904Y-65476476D01*
X155519523Y-65381238D01*
X155614761Y-65286000D01*
X155757619Y-65238380D01*
X155852857Y-65238380D01*
X155995714Y-65286000D01*
X156043333Y-65333619D01*
X156900476Y-65238380D02*
X156710000Y-65238380D01*
X156614761Y-65286000D01*
X156567142Y-65333619D01*
X156471904Y-65476476D01*
X156424285Y-65666952D01*
X156424285Y-66047904D01*
X156471904Y-66143142D01*
X156519523Y-66190761D01*
X156614761Y-66238380D01*
X156805238Y-66238380D01*
X156900476Y-66190761D01*
X156948095Y-66143142D01*
X156995714Y-66047904D01*
X156995714Y-65809809D01*
X156948095Y-65714571D01*
X156900476Y-65666952D01*
X156805238Y-65619333D01*
X156614761Y-65619333D01*
X156519523Y-65666952D01*
X156471904Y-65714571D01*
X156424285Y-65809809D01*
%TO.C,C1*%
X175855333Y-61063142D02*
X175807714Y-61110761D01*
X175664857Y-61158380D01*
X175569619Y-61158380D01*
X175426761Y-61110761D01*
X175331523Y-61015523D01*
X175283904Y-60920285D01*
X175236285Y-60729809D01*
X175236285Y-60586952D01*
X175283904Y-60396476D01*
X175331523Y-60301238D01*
X175426761Y-60206000D01*
X175569619Y-60158380D01*
X175664857Y-60158380D01*
X175807714Y-60206000D01*
X175855333Y-60253619D01*
X176807714Y-61158380D02*
X176236285Y-61158380D01*
X176522000Y-61158380D02*
X176522000Y-60158380D01*
X176426761Y-60301238D01*
X176331523Y-60396476D01*
X176236285Y-60444095D01*
%TD*%
M02*
