%TF.GenerationSoftware,KiCad,Pcbnew,5.1.10*%
%TF.CreationDate,2021-12-20T20:01:49+01:00*%
%TF.ProjectId,Videoerweiterung,56696465-6f65-4727-9765-69746572756e,1*%
%TF.SameCoordinates,Original*%
%TF.FileFunction,Copper,L2,Bot*%
%TF.FilePolarity,Positive*%
%FSLAX46Y46*%
G04 Gerber Fmt 4.6, Leading zero omitted, Abs format (unit mm)*
G04 Created by KiCad (PCBNEW 5.1.10) date 2021-12-20 20:01:49*
%MOMM*%
%LPD*%
G01*
G04 APERTURE LIST*
%TA.AperFunction,NonConductor*%
%ADD10C,0.300000*%
%TD*%
%TA.AperFunction,EtchedComponent*%
%ADD11C,0.100000*%
%TD*%
%TA.AperFunction,ComponentPad*%
%ADD12O,1.500000X1.500000*%
%TD*%
%TA.AperFunction,ComponentPad*%
%ADD13R,1.500000X1.500000*%
%TD*%
%TA.AperFunction,ComponentPad*%
%ADD14C,2.300000*%
%TD*%
%TA.AperFunction,SMDPad,CuDef*%
%ADD15C,2.000000*%
%TD*%
%TA.AperFunction,SMDPad,CuDef*%
%ADD16R,0.500000X5.080000*%
%TD*%
%TA.AperFunction,SMDPad,CuDef*%
%ADD17R,5.080000X0.500000*%
%TD*%
%TA.AperFunction,SMDPad,CuDef*%
%ADD18C,0.100000*%
%TD*%
%TA.AperFunction,ComponentPad*%
%ADD19C,1.600000*%
%TD*%
%TA.AperFunction,ComponentPad*%
%ADD20O,1.700000X1.700000*%
%TD*%
%TA.AperFunction,ComponentPad*%
%ADD21R,1.700000X1.700000*%
%TD*%
%TA.AperFunction,ComponentPad*%
%ADD22O,2.400000X2.400000*%
%TD*%
%TA.AperFunction,ComponentPad*%
%ADD23R,2.400000X2.400000*%
%TD*%
%TA.AperFunction,ComponentPad*%
%ADD24O,1.600000X1.600000*%
%TD*%
%TA.AperFunction,ComponentPad*%
%ADD25C,1.500000*%
%TD*%
%TA.AperFunction,ComponentPad*%
%ADD26O,1.200000X1.200000*%
%TD*%
%TA.AperFunction,ComponentPad*%
%ADD27R,1.200000X1.200000*%
%TD*%
%TA.AperFunction,SMDPad,CuDef*%
%ADD28C,0.500000*%
%TD*%
%TA.AperFunction,ComponentPad*%
%ADD29R,1.600000X1.600000*%
%TD*%
%TA.AperFunction,ComponentPad*%
%ADD30C,1.800000*%
%TD*%
%TA.AperFunction,ViaPad*%
%ADD31C,1.100000*%
%TD*%
%TA.AperFunction,ViaPad*%
%ADD32C,0.800000*%
%TD*%
%TA.AperFunction,Conductor*%
%ADD33C,0.250000*%
%TD*%
%TA.AperFunction,Conductor*%
%ADD34C,0.400000*%
%TD*%
%TA.AperFunction,Conductor*%
%ADD35C,1.000000*%
%TD*%
%TA.AperFunction,Conductor*%
%ADD36C,0.254000*%
%TD*%
%TA.AperFunction,Conductor*%
%ADD37C,0.100000*%
%TD*%
G04 APERTURE END LIST*
D10*
X107485714Y-180519285D02*
X108200000Y-180519285D01*
X108200000Y-178719285D01*
X104036428Y-178719285D02*
X103536428Y-180519285D01*
X103036428Y-178719285D01*
X102536428Y-180519285D02*
X102536428Y-178719285D01*
X101822142Y-180519285D02*
X101822142Y-178719285D01*
X101465000Y-178719285D01*
X101250714Y-178805000D01*
X101107857Y-178976428D01*
X101036428Y-179147857D01*
X100965000Y-179490714D01*
X100965000Y-179747857D01*
X101036428Y-180090714D01*
X101107857Y-180262142D01*
X101250714Y-180433571D01*
X101465000Y-180519285D01*
X101822142Y-180519285D01*
X100322142Y-179576428D02*
X99822142Y-179576428D01*
X99607857Y-180519285D02*
X100322142Y-180519285D01*
X100322142Y-178719285D01*
X99607857Y-178719285D01*
X98679285Y-178719285D02*
X98393571Y-178719285D01*
X98250714Y-178805000D01*
X98107857Y-178976428D01*
X98036428Y-179319285D01*
X98036428Y-179919285D01*
X98107857Y-180262142D01*
X98250714Y-180433571D01*
X98393571Y-180519285D01*
X98679285Y-180519285D01*
X98822142Y-180433571D01*
X98965000Y-180262142D01*
X99036428Y-179919285D01*
X99036428Y-179319285D01*
X98965000Y-178976428D01*
X98822142Y-178805000D01*
X98679285Y-178719285D01*
X103715000Y-174274285D02*
X103715000Y-175560000D01*
X103786428Y-175817142D01*
X103929285Y-175988571D01*
X104143571Y-176074285D01*
X104286428Y-176074285D01*
X103000714Y-174274285D02*
X103000714Y-175731428D01*
X102929285Y-175902857D01*
X102857857Y-175988571D01*
X102715000Y-176074285D01*
X102429285Y-176074285D01*
X102286428Y-175988571D01*
X102215000Y-175902857D01*
X102143571Y-175731428D01*
X102143571Y-174274285D01*
X101429285Y-175388571D02*
X100286428Y-175388571D01*
X100857857Y-176074285D02*
X100857857Y-174702857D01*
X99786428Y-174274285D02*
X98929285Y-174274285D01*
X99357857Y-176074285D02*
X99357857Y-174274285D01*
X98429285Y-175131428D02*
X97929285Y-175131428D01*
X97715000Y-176074285D02*
X98429285Y-176074285D01*
X98429285Y-174274285D01*
X97715000Y-174274285D01*
D11*
%TO.C,NT1*%
G36*
X76970000Y-58670000D02*
G01*
X77970000Y-58670000D01*
X77970000Y-58170000D01*
X76970000Y-58170000D01*
X76970000Y-58670000D01*
G37*
%TD*%
D12*
%TO.P,VD201,2*%
%TO.N,GND*%
X71120000Y-208280000D03*
D13*
%TO.P,VD201,1*%
%TO.N,/Videoprozessor/~VRT*%
X71120000Y-205740000D03*
%TD*%
D14*
%TO.P,X206,2*%
%TO.N,GND*%
X126720000Y-200660000D03*
%TO.P,X206,1*%
%TO.N,+5V*%
%TA.AperFunction,ComponentPad*%
G36*
G01*
X120770000Y-201560001D02*
X120770000Y-199759999D01*
G75*
G02*
X121019999Y-199510000I249999J0D01*
G01*
X122820001Y-199510000D01*
G75*
G02*
X123070000Y-199759999I0J-249999D01*
G01*
X123070000Y-201560001D01*
G75*
G02*
X122820001Y-201810000I-249999J0D01*
G01*
X121019999Y-201810000D01*
G75*
G02*
X120770000Y-201560001I0J249999D01*
G01*
G37*
%TD.AperFunction*%
%TD*%
D15*
%TO.P,LOGO2,1*%
%TO.N,N/C*%
X92075000Y-177165000D03*
X89535000Y-179705000D03*
X92075000Y-179705000D03*
X94615000Y-179705000D03*
X94615000Y-177165000D03*
X94615000Y-174625000D03*
X92075000Y-174625000D03*
X89535000Y-174625000D03*
X89535000Y-177165000D03*
D16*
%TO.P,LOGO2,2*%
X92075000Y-177165000D03*
D17*
X92075000Y-177165000D03*
%TA.AperFunction,SMDPad,CuDef*%
D18*
G36*
X89423350Y-179463097D02*
G01*
X94373097Y-174513350D01*
X94726650Y-174866903D01*
X89776903Y-179816650D01*
X89423350Y-179463097D01*
G37*
%TD.AperFunction*%
%TA.AperFunction,SMDPad,CuDef*%
G36*
X89776903Y-174513350D02*
G01*
X94726650Y-179463097D01*
X94373097Y-179816650D01*
X89423350Y-174866903D01*
X89776903Y-174513350D01*
G37*
%TD.AperFunction*%
%TD*%
D19*
%TO.P,C18,2*%
%TO.N,GND*%
X111680000Y-195580000D03*
%TO.P,C18,1*%
%TO.N,+5V*%
X106680000Y-195580000D03*
%TD*%
%TO.P,C24,2*%
%TO.N,GND*%
X68620000Y-198120000D03*
%TO.P,C24,1*%
%TO.N,+5V*%
X71120000Y-198120000D03*
%TD*%
D20*
%TO.P,X202,2*%
%TO.N,GND*%
X48260000Y-172720000D03*
D21*
%TO.P,X202,1*%
%TO.N,Net-(D19-Pad1)*%
X48260000Y-175260000D03*
%TD*%
%TO.P,X205,1*%
%TO.N,Net-(D13-Pad40)*%
X78740000Y-167640000D03*
%TD*%
D19*
%TO.P,C22,2*%
%TO.N,GND*%
X172800000Y-185420000D03*
%TO.P,C22,1*%
%TO.N,+5V*%
X177800000Y-185420000D03*
%TD*%
%TO.P,C20,2*%
%TO.N,GND*%
X176032233Y-151627767D03*
%TO.P,C20,1*%
%TO.N,+5V*%
X177800000Y-149860000D03*
%TD*%
%TO.P,C23,2*%
%TO.N,GND*%
X172800000Y-193040000D03*
%TO.P,C23,1*%
%TO.N,+5V*%
X177800000Y-193040000D03*
%TD*%
%TO.P,C19,2*%
%TO.N,GND*%
X157440000Y-136410127D03*
%TO.P,C19,1*%
%TO.N,+5V*%
X154940000Y-132080000D03*
%TD*%
%TO.P,C17,2*%
%TO.N,GND*%
X60960000Y-185380000D03*
%TO.P,C17,1*%
%TO.N,+5V*%
X60960000Y-182880000D03*
%TD*%
%TO.P,C15,2*%
%TO.N,GND*%
X73660000Y-167680000D03*
%TO.P,C15,1*%
%TO.N,+5V*%
X73660000Y-170180000D03*
%TD*%
%TO.P,C14,2*%
%TO.N,GND*%
X99020000Y-144780000D03*
%TO.P,C14,1*%
%TO.N,+5V*%
X96520000Y-144780000D03*
%TD*%
%TO.P,C13,2*%
%TO.N,GND*%
X154940000Y-88940000D03*
%TO.P,C13,1*%
%TO.N,+5V*%
X154940000Y-91440000D03*
%TD*%
%TO.P,C12,2*%
%TO.N,GND*%
X127000000Y-68540000D03*
%TO.P,C12,1*%
%TO.N,+5V*%
X127000000Y-66040000D03*
%TD*%
%TO.P,C10,2*%
%TO.N,GND*%
X127000000Y-88940000D03*
%TO.P,C10,1*%
%TO.N,+5V*%
X127000000Y-91440000D03*
%TD*%
%TO.P,C9,2*%
%TO.N,GND*%
X63500000Y-88940000D03*
%TO.P,C9,1*%
%TO.N,+5V*%
X63500000Y-91440000D03*
%TD*%
%TO.P,C8,2*%
%TO.N,GND*%
X116840000Y-68540000D03*
%TO.P,C8,1*%
%TO.N,+5V*%
X116840000Y-66040000D03*
%TD*%
%TO.P,C7,2*%
%TO.N,GND*%
X99060000Y-88940000D03*
%TO.P,C7,1*%
%TO.N,+5V*%
X99060000Y-91440000D03*
%TD*%
%TO.P,C5,2*%
%TO.N,GND*%
X175260000Y-68540000D03*
%TO.P,C5,1*%
%TO.N,+5V*%
X175260000Y-66040000D03*
%TD*%
%TO.P,C4,2*%
%TO.N,GND*%
X74392233Y-67807767D03*
%TO.P,C4,1*%
%TO.N,+5V*%
X76160000Y-66040000D03*
%TD*%
%TO.P,C3,2*%
%TO.N,GND*%
X134620000Y-180260000D03*
%TO.P,C3,1*%
%TO.N,+5V*%
X134620000Y-175260000D03*
%TD*%
D22*
%TO.P,C2,2*%
%TO.N,GND*%
X55880000Y-96120000D03*
D23*
%TO.P,C2,1*%
%TO.N,+5V*%
X55880000Y-66040000D03*
%TD*%
D21*
%TO.P,X405,1*%
%TO.N,GND*%
X134620000Y-53340000D03*
%TD*%
%TO.P,X404,1*%
%TO.N,Net-(C1-Pad1)*%
X162560000Y-53340000D03*
%TD*%
%TO.P,X403,1*%
%TO.N,Net-(C6-Pad1)*%
X149860000Y-53340000D03*
%TD*%
%TO.P,X402,1*%
%TO.N,Net-(C11-Pad1)*%
X139700000Y-53340000D03*
%TD*%
%TO.P,X401,1*%
%TO.N,Net-(C16-Pad1)*%
X121920000Y-53340000D03*
%TD*%
%TO.P,X400,1*%
%TO.N,Net-(C21-Pad1)*%
X111760000Y-53340000D03*
%TD*%
D19*
%TO.P,C202,2*%
%TO.N,Net-(C202-Pad2)*%
X83900000Y-165100000D03*
%TO.P,C202,1*%
%TO.N,GND*%
X88900000Y-165100000D03*
%TD*%
D24*
%TO.P,R20,2*%
%TO.N,Net-(C16-Pad1)*%
X121920000Y-60960000D03*
D19*
%TO.P,R20,1*%
%TO.N,GND*%
X121920000Y-63500000D03*
%TD*%
D13*
%TO.P,VT400,1*%
%TO.N,Net-(C21-Pad1)*%
X114300000Y-53340000D03*
D25*
%TO.P,VT400,3*%
%TO.N,+5V*%
X114300000Y-58420000D03*
%TO.P,VT400,2*%
%TO.N,Net-(R22-Pad2)*%
X114300000Y-55880000D03*
%TD*%
D13*
%TO.P,VT404,1*%
%TO.N,Net-(C1-Pad1)*%
X165100000Y-53340000D03*
D25*
%TO.P,VT404,3*%
%TO.N,+5V*%
X165100000Y-58420000D03*
%TO.P,VT404,2*%
%TO.N,Net-(R2-Pad2)*%
X165100000Y-55880000D03*
%TD*%
D13*
%TO.P,VT403,1*%
%TO.N,Net-(C6-Pad1)*%
X152400000Y-53340000D03*
D25*
%TO.P,VT403,3*%
%TO.N,+5V*%
X152400000Y-58420000D03*
%TO.P,VT403,2*%
%TO.N,Net-(R7-Pad2)*%
X152400000Y-55880000D03*
%TD*%
D13*
%TO.P,VT402,1*%
%TO.N,Net-(C11-Pad1)*%
X142240000Y-53340000D03*
D25*
%TO.P,VT402,3*%
%TO.N,+5V*%
X142240000Y-58420000D03*
%TO.P,VT402,2*%
%TO.N,Net-(R12-Pad2)*%
X142240000Y-55880000D03*
%TD*%
D13*
%TO.P,VT401,1*%
%TO.N,Net-(C16-Pad1)*%
X124460000Y-53340000D03*
D25*
%TO.P,VT401,3*%
%TO.N,+5V*%
X124460000Y-58420000D03*
%TO.P,VT401,2*%
%TO.N,Net-(R17-Pad2)*%
X124460000Y-55880000D03*
%TD*%
D13*
%TO.P,VT201,1*%
%TO.N,GND*%
X63500000Y-205740000D03*
D25*
%TO.P,VT201,3*%
%TO.N,/Videoprozessor/~VRT*%
X68580000Y-205740000D03*
%TO.P,VT201,2*%
%TO.N,Net-(C200-Pad1)*%
X66040000Y-205740000D03*
%TD*%
D13*
%TO.P,VT200,1*%
%TO.N,Net-(C201-Pad2)*%
X81280000Y-198120000D03*
D25*
%TO.P,VT200,3*%
%TO.N,+5V*%
X76200000Y-198120000D03*
%TO.P,VT200,2*%
%TO.N,Net-(R200-Pad1)*%
X78740000Y-198120000D03*
%TD*%
D26*
%TO.P,VD405,2*%
%TO.N,Net-(R2-Pad2)*%
X167640000Y-55920000D03*
D27*
%TO.P,VD405,1*%
%TO.N,Net-(R4-Pad1)*%
X167640000Y-58420000D03*
%TD*%
D26*
%TO.P,VD404,2*%
%TO.N,Net-(R7-Pad2)*%
X154940000Y-55920000D03*
D27*
%TO.P,VD404,1*%
%TO.N,Net-(R9-Pad1)*%
X154940000Y-58420000D03*
%TD*%
D26*
%TO.P,VD403,2*%
%TO.N,Net-(R12-Pad2)*%
X144780000Y-55920000D03*
D27*
%TO.P,VD403,1*%
%TO.N,Net-(R14-Pad1)*%
X144780000Y-58420000D03*
%TD*%
D26*
%TO.P,VD402,2*%
%TO.N,Net-(R17-Pad2)*%
X127000000Y-55920000D03*
D27*
%TO.P,VD402,1*%
%TO.N,Net-(R19-Pad1)*%
X127000000Y-58420000D03*
%TD*%
D26*
%TO.P,VD401,2*%
%TO.N,Net-(R22-Pad2)*%
X116840000Y-55920000D03*
D27*
%TO.P,VD401,1*%
%TO.N,Net-(R24-Pad1)*%
X116840000Y-58420000D03*
%TD*%
D26*
%TO.P,VD400,2*%
%TO.N,Net-(R22-Pad2)*%
X109180000Y-55880000D03*
D27*
%TO.P,VD400,1*%
%TO.N,Net-(R26-Pad1)*%
X106680000Y-55880000D03*
%TD*%
D26*
%TO.P,VD202,2*%
%TO.N,Net-(C202-Pad2)*%
X71080000Y-167640000D03*
D27*
%TO.P,VD202,1*%
%TO.N,Net-(D19-Pad4)*%
X68580000Y-167640000D03*
%TD*%
D26*
%TO.P,VD200,2*%
%TO.N,+5V*%
X76200000Y-200700000D03*
D27*
%TO.P,VD200,1*%
%TO.N,Net-(C201-Pad1)*%
X76200000Y-203200000D03*
%TD*%
D28*
%TO.P,NT1,2*%
%TO.N,/Videoausgabe/~HR*%
X77970000Y-58420000D03*
%TO.P,NT1,1*%
%TO.N,P3.4*%
X76970000Y-58420000D03*
%TD*%
D24*
%TO.P,D21,16*%
%TO.N,+5V*%
X58420000Y-180340000D03*
%TO.P,D21,8*%
%TO.N,GND*%
X50800000Y-198120000D03*
%TO.P,D21,15*%
X58420000Y-182880000D03*
%TO.P,D21,7*%
%TO.N,Net-(D21-Pad7)*%
X50800000Y-195580000D03*
%TO.P,D21,14*%
%TO.N,Net-(D21-Pad14)*%
X58420000Y-185420000D03*
%TO.P,D21,6*%
%TO.N,Net-(D21-Pad6)*%
X50800000Y-193040000D03*
%TO.P,D21,13*%
%TO.N,Net-(D21-Pad13)*%
X58420000Y-187960000D03*
%TO.P,D21,5*%
%TO.N,Net-(D21-Pad5)*%
X50800000Y-190500000D03*
%TO.P,D21,12*%
%TO.N,Net-(D21-Pad12)*%
X58420000Y-190500000D03*
%TO.P,D21,4*%
%TO.N,DIR*%
X50800000Y-187960000D03*
%TO.P,D21,11*%
%TO.N,Net-(D21-Pad11)*%
X58420000Y-193040000D03*
%TO.P,D21,3*%
%TO.N,+5V*%
X50800000Y-185420000D03*
%TO.P,D21,10*%
%TO.N,Net-(D21-Pad10)*%
X58420000Y-195580000D03*
%TO.P,D21,2*%
%TO.N,R~W*%
X50800000Y-182880000D03*
%TO.P,D21,9*%
%TO.N,Net-(D21-Pad9)*%
X58420000Y-198120000D03*
D29*
%TO.P,D21,1*%
%TO.N,~CS2*%
X50800000Y-180340000D03*
%TD*%
D24*
%TO.P,D20,16*%
%TO.N,+5V*%
X58420000Y-154940000D03*
%TO.P,D20,8*%
%TO.N,GND*%
X50800000Y-172720000D03*
%TO.P,D20,15*%
%TO.N,/Videoprozessor/6000h-63FFh*%
X58420000Y-157480000D03*
%TO.P,D20,7*%
%TO.N,/Videoprozessor/7C00h-7FFFh*%
X50800000Y-170180000D03*
%TO.P,D20,14*%
%TO.N,/Videoprozessor/6400h-67FFh*%
X58420000Y-160020000D03*
%TO.P,D20,6*%
%TO.N,+5V*%
X50800000Y-167640000D03*
%TO.P,D20,13*%
%TO.N,/Videoprozessor/6800h-6BFFh*%
X58420000Y-162560000D03*
%TO.P,D20,5*%
%TO.N,~CS3*%
X50800000Y-165100000D03*
%TO.P,D20,12*%
%TO.N,/Videoprozessor/6C00h-6FFFh*%
X58420000Y-165100000D03*
%TO.P,D20,4*%
%TO.N,~CS3*%
X50800000Y-162560000D03*
%TO.P,D20,11*%
%TO.N,/Videoprozessor/7000h-73FFh*%
X58420000Y-167640000D03*
%TO.P,D20,3*%
%TO.N,/Videoprozessor/A12*%
X50800000Y-160020000D03*
%TO.P,D20,10*%
%TO.N,/Videoprozessor/7400h-77FFh*%
X58420000Y-170180000D03*
%TO.P,D20,2*%
%TO.N,/Videoprozessor/A11*%
X50800000Y-157480000D03*
%TO.P,D20,9*%
%TO.N,/Videoprozessor/7800h-7BFFh*%
X58420000Y-172720000D03*
D29*
%TO.P,D20,1*%
%TO.N,/Videoprozessor/A10*%
X50800000Y-154940000D03*
%TD*%
D24*
%TO.P,D19,14*%
%TO.N,+5V*%
X73660000Y-172720000D03*
%TO.P,D19,7*%
%TO.N,GND*%
X66040000Y-187960000D03*
%TO.P,D19,13*%
%TO.N,T*%
X73660000Y-175260000D03*
%TO.P,D19,6*%
%TO.N,Net-(C200-Pad2)*%
X66040000Y-185420000D03*
%TO.P,D19,12*%
%TO.N,Net-(D13-Pad3)*%
X73660000Y-177800000D03*
%TO.P,D19,5*%
%TO.N,RT*%
X66040000Y-182880000D03*
%TO.P,D19,11*%
%TO.N,~CS2*%
X73660000Y-180340000D03*
%TO.P,D19,4*%
%TO.N,Net-(D19-Pad4)*%
X66040000Y-180340000D03*
%TO.P,D19,10*%
%TO.N,CS2*%
X73660000Y-182880000D03*
%TO.P,D19,3*%
%TO.N,~CS2*%
X66040000Y-177800000D03*
%TO.P,D19,9*%
%TO.N,CS2*%
X73660000Y-185420000D03*
%TO.P,D19,2*%
%TO.N,T*%
X66040000Y-175260000D03*
%TO.P,D19,8*%
%TO.N,~CS2_delay*%
X73660000Y-187960000D03*
D29*
%TO.P,D19,1*%
%TO.N,Net-(D19-Pad1)*%
X66040000Y-172720000D03*
%TD*%
D24*
%TO.P,D18,14*%
%TO.N,+5V*%
X73660000Y-149860000D03*
%TO.P,D18,7*%
%TO.N,GND*%
X66040000Y-165100000D03*
%TO.P,D18,13*%
%TO.N,~EV*%
X73660000Y-152400000D03*
%TO.P,D18,6*%
%TO.N,+5V*%
X66040000Y-162560000D03*
%TO.P,D18,12*%
%TO.N,~EB*%
X73660000Y-154940000D03*
%TO.P,D18,5*%
%TO.N,/Videoprozessor/A7*%
X66040000Y-160020000D03*
%TO.P,D18,11*%
%TO.N,~EG*%
X73660000Y-157480000D03*
%TO.P,D18,4*%
%TO.N,/Videoprozessor/A6*%
X66040000Y-157480000D03*
%TO.P,D18,10*%
%TO.N,~ER*%
X73660000Y-160020000D03*
%TO.P,D18,3*%
%TO.N,/Videoprozessor/A5*%
X66040000Y-154940000D03*
%TO.P,D18,9*%
%TO.N,/Videoprozessor/6000h-63FFh*%
X73660000Y-162560000D03*
%TO.P,D18,2*%
%TO.N,/Videoprozessor/A4*%
X66040000Y-152400000D03*
%TO.P,D18,8*%
%TO.N,Net-(C202-Pad2)*%
X73660000Y-165100000D03*
D29*
%TO.P,D18,1*%
%TO.N,GND*%
X66040000Y-149860000D03*
%TD*%
D24*
%TO.P,D17,20*%
%TO.N,+5V*%
X68580000Y-121920000D03*
%TO.P,D17,10*%
%TO.N,GND*%
X60960000Y-144780000D03*
%TO.P,D17,19*%
%TO.N,~CS2_delay*%
X68580000Y-124460000D03*
%TO.P,D17,9*%
%TO.N,GND*%
X60960000Y-142240000D03*
%TO.P,D17,18*%
%TO.N,VRA12*%
X68580000Y-127000000D03*
%TO.P,D17,8*%
%TO.N,GND*%
X60960000Y-139700000D03*
%TO.P,D17,17*%
%TO.N,VRA11*%
X68580000Y-129540000D03*
%TO.P,D17,7*%
%TO.N,GND*%
X60960000Y-137160000D03*
%TO.P,D17,16*%
%TO.N,VRA10*%
X68580000Y-132080000D03*
%TO.P,D17,6*%
%TO.N,/Videoprozessor/A8*%
X60960000Y-134620000D03*
%TO.P,D17,15*%
%TO.N,VRA9*%
X68580000Y-134620000D03*
%TO.P,D17,5*%
%TO.N,/Videoprozessor/A9*%
X60960000Y-132080000D03*
%TO.P,D17,14*%
%TO.N,VRA8*%
X68580000Y-137160000D03*
%TO.P,D17,4*%
%TO.N,/Videoprozessor/A10*%
X60960000Y-129540000D03*
%TO.P,D17,13*%
%TO.N,Net-(D17-Pad13)*%
X68580000Y-139700000D03*
%TO.P,D17,3*%
%TO.N,/Videoprozessor/A11*%
X60960000Y-127000000D03*
%TO.P,D17,12*%
%TO.N,Net-(D17-Pad12)*%
X68580000Y-142240000D03*
%TO.P,D17,2*%
%TO.N,/Videoprozessor/A12*%
X60960000Y-124460000D03*
%TO.P,D17,11*%
%TO.N,Net-(D17-Pad11)*%
X68580000Y-144780000D03*
D29*
%TO.P,D17,1*%
%TO.N,~CS2*%
X60960000Y-121920000D03*
%TD*%
D24*
%TO.P,D16,20*%
%TO.N,+5V*%
X68580000Y-116840000D03*
%TO.P,D16,10*%
%TO.N,GND*%
X76200000Y-93980000D03*
%TO.P,D16,19*%
%TO.N,D6*%
X68580000Y-114300000D03*
%TO.P,D16,9*%
%TO.N,~EV*%
X76200000Y-96520000D03*
%TO.P,D16,18*%
%TO.N,D4*%
X68580000Y-111760000D03*
%TO.P,D16,8*%
%TO.N,/Steuerung Video-RAM/VVD1*%
X76200000Y-99060000D03*
%TO.P,D16,17*%
%TO.N,D2*%
X68580000Y-109220000D03*
%TO.P,D16,7*%
%TO.N,/Steuerung Video-RAM/VVD3*%
X76200000Y-101600000D03*
%TO.P,D16,16*%
%TO.N,D0*%
X68580000Y-106680000D03*
%TO.P,D16,6*%
%TO.N,/Steuerung Video-RAM/VVD5*%
X76200000Y-104140000D03*
%TO.P,D16,15*%
%TO.N,D7*%
X68580000Y-104140000D03*
%TO.P,D16,5*%
%TO.N,/Steuerung Video-RAM/VVD7*%
X76200000Y-106680000D03*
%TO.P,D16,14*%
%TO.N,D5*%
X68580000Y-101600000D03*
%TO.P,D16,4*%
%TO.N,/Steuerung Video-RAM/VVD0*%
X76200000Y-109220000D03*
%TO.P,D16,13*%
%TO.N,D3*%
X68580000Y-99060000D03*
%TO.P,D16,3*%
%TO.N,/Steuerung Video-RAM/VVD2*%
X76200000Y-111760000D03*
%TO.P,D16,12*%
%TO.N,D1*%
X68580000Y-96520000D03*
%TO.P,D16,2*%
%TO.N,/Steuerung Video-RAM/VVD4*%
X76200000Y-114300000D03*
%TO.P,D16,11*%
%TO.N,DIR*%
X68580000Y-93980000D03*
D29*
%TO.P,D16,1*%
%TO.N,/Steuerung Video-RAM/VVD6*%
X76200000Y-116840000D03*
%TD*%
D24*
%TO.P,D15,20*%
%TO.N,+5V*%
X71120000Y-63500000D03*
%TO.P,D15,10*%
%TO.N,GND*%
X63500000Y-86360000D03*
%TO.P,D15,19*%
%TO.N,~CS2_delay*%
X71120000Y-66040000D03*
%TO.P,D15,9*%
%TO.N,/Videoprozessor/A0*%
X63500000Y-83820000D03*
%TO.P,D15,18*%
%TO.N,VRA7*%
X71120000Y-68580000D03*
%TO.P,D15,8*%
%TO.N,/Videoprozessor/A1*%
X63500000Y-81280000D03*
%TO.P,D15,17*%
%TO.N,VRA6*%
X71120000Y-71120000D03*
%TO.P,D15,7*%
%TO.N,/Videoprozessor/A2*%
X63500000Y-78740000D03*
%TO.P,D15,16*%
%TO.N,VRA5*%
X71120000Y-73660000D03*
%TO.P,D15,6*%
%TO.N,/Videoprozessor/A3*%
X63500000Y-76200000D03*
%TO.P,D15,15*%
%TO.N,VRA4*%
X71120000Y-76200000D03*
%TO.P,D15,5*%
%TO.N,/Videoprozessor/A4*%
X63500000Y-73660000D03*
%TO.P,D15,14*%
%TO.N,VRA3*%
X71120000Y-78740000D03*
%TO.P,D15,4*%
%TO.N,/Videoprozessor/A5*%
X63500000Y-71120000D03*
%TO.P,D15,13*%
%TO.N,VRA2*%
X71120000Y-81280000D03*
%TO.P,D15,3*%
%TO.N,/Videoprozessor/A6*%
X63500000Y-68580000D03*
%TO.P,D15,12*%
%TO.N,VRA1*%
X71120000Y-83820000D03*
%TO.P,D15,2*%
%TO.N,/Videoprozessor/A7*%
X63500000Y-66040000D03*
%TO.P,D15,11*%
%TO.N,VRA0*%
X71120000Y-86360000D03*
D29*
%TO.P,D15,1*%
%TO.N,~CS2*%
X63500000Y-63500000D03*
%TD*%
D24*
%TO.P,D14,14*%
%TO.N,+5V*%
X91440000Y-198120000D03*
%TO.P,D14,7*%
%TO.N,GND*%
X106680000Y-205740000D03*
%TO.P,D14,13*%
%TO.N,Net-(D14-Pad13)*%
X93980000Y-198120000D03*
%TO.P,D14,6*%
%TO.N,/Videoprozessor/~VDS*%
X104140000Y-205740000D03*
%TO.P,D14,12*%
%TO.N,Net-(D14-Pad12)*%
X96520000Y-198120000D03*
%TO.P,D14,5*%
%TO.N,GND*%
X101600000Y-205740000D03*
%TO.P,D14,11*%
%TO.N,Net-(D14-Pad11)*%
X99060000Y-198120000D03*
%TO.P,D14,4*%
%TO.N,GND*%
X99060000Y-205740000D03*
%TO.P,D14,10*%
%TO.N,S1*%
X101600000Y-198120000D03*
%TO.P,D14,3*%
%TO.N,GND*%
X96520000Y-205740000D03*
%TO.P,D14,9*%
%TO.N,T*%
X104140000Y-198120000D03*
%TO.P,D14,2*%
%TO.N,/Videoprozessor/VP3.7*%
X93980000Y-205740000D03*
%TO.P,D14,8*%
%TO.N,+5V*%
X106680000Y-198120000D03*
D29*
%TO.P,D14,1*%
%TO.N,GND*%
X91440000Y-205740000D03*
%TD*%
D24*
%TO.P,D13,40*%
%TO.N,Net-(D13-Pad40)*%
X78740000Y-170180000D03*
%TO.P,D13,20*%
%TO.N,Net-(D13-Pad20)*%
X127000000Y-185420000D03*
%TO.P,D13,39*%
%TO.N,CS2*%
X81280000Y-170180000D03*
%TO.P,D13,19*%
%TO.N,Net-(D13-Pad19)*%
X124460000Y-185420000D03*
%TO.P,D13,38*%
%TO.N,~CS2_delay*%
X83820000Y-170180000D03*
%TO.P,D13,18*%
%TO.N,Net-(D13-Pad18)*%
X121920000Y-185420000D03*
%TO.P,D13,37*%
%TO.N,/Videoprozessor/~VDS*%
X86360000Y-170180000D03*
%TO.P,D13,17*%
%TO.N,Net-(D13-Pad17)*%
X119380000Y-185420000D03*
%TO.P,D13,36*%
%TO.N,/Videoprozessor/xA12*%
X88900000Y-170180000D03*
%TO.P,D13,16*%
%TO.N,Net-(D13-Pad16)*%
X116840000Y-185420000D03*
%TO.P,D13,35*%
%TO.N,/Videoprozessor/xA11*%
X91440000Y-170180000D03*
%TO.P,D13,15*%
%TO.N,/Videoprozessor/VA10*%
X114300000Y-185420000D03*
%TO.P,D13,34*%
%TO.N,/Videoprozessor/xA10*%
X93980000Y-170180000D03*
%TO.P,D13,14*%
%TO.N,/Videoprozessor/VA9*%
X111760000Y-185420000D03*
%TO.P,D13,33*%
%TO.N,/Videoprozessor/xA9*%
X96520000Y-170180000D03*
%TO.P,D13,13*%
%TO.N,/Videoprozessor/VA8*%
X109220000Y-185420000D03*
%TO.P,D13,32*%
%TO.N,/Videoprozessor/xA8*%
X99060000Y-170180000D03*
%TO.P,D13,12*%
%TO.N,GND*%
X106680000Y-185420000D03*
%TO.P,D13,31*%
%TO.N,/Videoprozessor/xA7*%
X101600000Y-170180000D03*
%TO.P,D13,11*%
%TO.N,GND*%
X104140000Y-185420000D03*
%TO.P,D13,30*%
%TO.N,Net-(D13-Pad30)*%
X104140000Y-170180000D03*
%TO.P,D13,10*%
%TO.N,~SYN*%
X101600000Y-185420000D03*
%TO.P,D13,29*%
%TO.N,Net-(D13-Pad29)*%
X106680000Y-170180000D03*
%TO.P,D13,9*%
%TO.N,/Videoprozessor/~VAS*%
X99060000Y-185420000D03*
%TO.P,D13,28*%
%TO.N,/Videoprozessor/VAD7*%
X109220000Y-170180000D03*
%TO.P,D13,8*%
%TO.N,/Videoprozessor/~VDS*%
X96520000Y-185420000D03*
%TO.P,D13,27*%
%TO.N,/Videoprozessor/VAD6*%
X111760000Y-170180000D03*
%TO.P,D13,7*%
%TO.N,Net-(D13-Pad7)*%
X93980000Y-185420000D03*
%TO.P,D13,26*%
%TO.N,/Videoprozessor/VAD5*%
X114300000Y-170180000D03*
%TO.P,D13,6*%
%TO.N,/Videoprozessor/~VRT*%
X91440000Y-185420000D03*
%TO.P,D13,25*%
%TO.N,/Videoprozessor/VAD4*%
X116840000Y-170180000D03*
%TO.P,D13,5*%
%TO.N,Net-(D13-Pad5)*%
X88900000Y-185420000D03*
%TO.P,D13,24*%
%TO.N,/Videoprozessor/VAD3*%
X119380000Y-170180000D03*
%TO.P,D13,4*%
%TO.N,/Videoprozessor/VP3.7*%
X86360000Y-185420000D03*
%TO.P,D13,23*%
%TO.N,/Videoprozessor/VAD2*%
X121920000Y-170180000D03*
%TO.P,D13,3*%
%TO.N,Net-(D13-Pad3)*%
X83820000Y-185420000D03*
%TO.P,D13,22*%
%TO.N,/Videoprozessor/VAD1*%
X124460000Y-170180000D03*
%TO.P,D13,2*%
%TO.N,Net-(D13-Pad2)*%
X81280000Y-185420000D03*
%TO.P,D13,21*%
%TO.N,/Videoprozessor/VAD0*%
X127000000Y-170180000D03*
D29*
%TO.P,D13,1*%
%TO.N,+5V*%
X78740000Y-185420000D03*
%TD*%
D24*
%TO.P,D12,20*%
%TO.N,+5V*%
X83820000Y-111760000D03*
%TO.P,D12,10*%
%TO.N,GND*%
X91440000Y-88900000D03*
%TO.P,D12,19*%
%TO.N,S1*%
X83820000Y-109220000D03*
%TO.P,D12,9*%
%TO.N,+5V*%
X91440000Y-91440000D03*
%TO.P,D12,18*%
X83820000Y-106680000D03*
%TO.P,D12,8*%
%TO.N,Net-(D12-Pad8)*%
X91440000Y-93980000D03*
%TO.P,D12,17*%
%TO.N,YV*%
X83820000Y-104140000D03*
%TO.P,D12,7*%
%TO.N,/Steuerung Video-RAM/VVD0*%
X91440000Y-96520000D03*
%TO.P,D12,16*%
%TO.N,/Steuerung Video-RAM/VVD7*%
X83820000Y-101600000D03*
%TO.P,D12,6*%
%TO.N,/Steuerung Video-RAM/VVD2*%
X91440000Y-99060000D03*
%TO.P,D12,15*%
%TO.N,/Steuerung Video-RAM/VVD5*%
X83820000Y-99060000D03*
%TO.P,D12,5*%
%TO.N,/Steuerung Video-RAM/VVD4*%
X91440000Y-101600000D03*
%TO.P,D12,14*%
%TO.N,/Steuerung Video-RAM/VVD3*%
X83820000Y-96520000D03*
%TO.P,D12,4*%
%TO.N,/Steuerung Video-RAM/VVD6*%
X91440000Y-104140000D03*
%TO.P,D12,13*%
%TO.N,/Steuerung Video-RAM/VVD1*%
X83820000Y-93980000D03*
%TO.P,D12,3*%
%TO.N,+5V*%
X91440000Y-106680000D03*
%TO.P,D12,12*%
%TO.N,T*%
X83820000Y-91440000D03*
%TO.P,D12,2*%
%TO.N,+5V*%
X91440000Y-109220000D03*
%TO.P,D12,11*%
%TO.N,GND*%
X83820000Y-88900000D03*
D29*
%TO.P,D12,1*%
%TO.N,+5V*%
X91440000Y-111760000D03*
%TD*%
D24*
%TO.P,D11,20*%
%TO.N,+5V*%
X96520000Y-116840000D03*
%TO.P,D11,10*%
%TO.N,GND*%
X104140000Y-93980000D03*
%TO.P,D11,19*%
%TO.N,D6*%
X96520000Y-114300000D03*
%TO.P,D11,9*%
%TO.N,~EB*%
X104140000Y-96520000D03*
%TO.P,D11,18*%
%TO.N,D4*%
X96520000Y-111760000D03*
%TO.P,D11,8*%
%TO.N,/Steuerung Video-RAM/VBD1*%
X104140000Y-99060000D03*
%TO.P,D11,17*%
%TO.N,D2*%
X96520000Y-109220000D03*
%TO.P,D11,7*%
%TO.N,/Steuerung Video-RAM/VBD3*%
X104140000Y-101600000D03*
%TO.P,D11,16*%
%TO.N,D0*%
X96520000Y-106680000D03*
%TO.P,D11,6*%
%TO.N,/Steuerung Video-RAM/VBD5*%
X104140000Y-104140000D03*
%TO.P,D11,15*%
%TO.N,D7*%
X96520000Y-104140000D03*
%TO.P,D11,5*%
%TO.N,/Steuerung Video-RAM/VBD7*%
X104140000Y-106680000D03*
%TO.P,D11,14*%
%TO.N,D5*%
X96520000Y-101600000D03*
%TO.P,D11,4*%
%TO.N,/Steuerung Video-RAM/VBD0*%
X104140000Y-109220000D03*
%TO.P,D11,13*%
%TO.N,D3*%
X96520000Y-99060000D03*
%TO.P,D11,3*%
%TO.N,/Steuerung Video-RAM/VBD2*%
X104140000Y-111760000D03*
%TO.P,D11,12*%
%TO.N,D1*%
X96520000Y-96520000D03*
%TO.P,D11,2*%
%TO.N,/Steuerung Video-RAM/VBD4*%
X104140000Y-114300000D03*
%TO.P,D11,11*%
%TO.N,DIR*%
X96520000Y-93980000D03*
D29*
%TO.P,D11,1*%
%TO.N,/Steuerung Video-RAM/VBD6*%
X104140000Y-116840000D03*
%TD*%
D24*
%TO.P,D10,16*%
%TO.N,+5V*%
X96520000Y-147320000D03*
%TO.P,D10,8*%
%TO.N,GND*%
X114300000Y-154940000D03*
%TO.P,D10,15*%
X99060000Y-147320000D03*
%TO.P,D10,7*%
%TO.N,~SR*%
X111760000Y-154940000D03*
%TO.P,D10,14*%
%TO.N,~EB*%
X101600000Y-147320000D03*
%TO.P,D10,6*%
%TO.N,/Videoprozessor/~VDS*%
X109220000Y-154940000D03*
%TO.P,D10,13*%
X104140000Y-147320000D03*
%TO.P,D10,5*%
%TO.N,~ER*%
X106680000Y-154940000D03*
%TO.P,D10,12*%
%TO.N,~SB*%
X106680000Y-147320000D03*
%TO.P,D10,4*%
%TO.N,~SV*%
X104140000Y-154940000D03*
%TO.P,D10,11*%
%TO.N,~EG*%
X109220000Y-147320000D03*
%TO.P,D10,3*%
%TO.N,/Videoprozessor/~VDS*%
X101600000Y-154940000D03*
%TO.P,D10,10*%
X111760000Y-147320000D03*
%TO.P,D10,2*%
%TO.N,~EV*%
X99060000Y-154940000D03*
%TO.P,D10,9*%
%TO.N,~SG*%
X114300000Y-147320000D03*
D29*
%TO.P,D10,1*%
%TO.N,~CS2*%
X96520000Y-154940000D03*
%TD*%
D24*
%TO.P,D9,20*%
%TO.N,+5V*%
X111760000Y-111760000D03*
%TO.P,D9,10*%
%TO.N,GND*%
X119380000Y-88900000D03*
%TO.P,D9,19*%
%TO.N,S1*%
X111760000Y-109220000D03*
%TO.P,D9,9*%
%TO.N,+5V*%
X119380000Y-91440000D03*
%TO.P,D9,18*%
X111760000Y-106680000D03*
%TO.P,D9,8*%
%TO.N,Net-(D9-Pad8)*%
X119380000Y-93980000D03*
%TO.P,D9,17*%
%TO.N,YB*%
X111760000Y-104140000D03*
%TO.P,D9,7*%
%TO.N,/Steuerung Video-RAM/VBD0*%
X119380000Y-96520000D03*
%TO.P,D9,16*%
%TO.N,/Steuerung Video-RAM/VBD7*%
X111760000Y-101600000D03*
%TO.P,D9,6*%
%TO.N,/Steuerung Video-RAM/VBD2*%
X119380000Y-99060000D03*
%TO.P,D9,15*%
%TO.N,/Steuerung Video-RAM/VBD5*%
X111760000Y-99060000D03*
%TO.P,D9,5*%
%TO.N,/Steuerung Video-RAM/VBD4*%
X119380000Y-101600000D03*
%TO.P,D9,14*%
%TO.N,/Steuerung Video-RAM/VBD3*%
X111760000Y-96520000D03*
%TO.P,D9,4*%
%TO.N,/Steuerung Video-RAM/VBD6*%
X119380000Y-104140000D03*
%TO.P,D9,13*%
%TO.N,/Steuerung Video-RAM/VBD1*%
X111760000Y-93980000D03*
%TO.P,D9,3*%
%TO.N,+5V*%
X119380000Y-106680000D03*
%TO.P,D9,12*%
%TO.N,T*%
X111760000Y-91440000D03*
%TO.P,D9,2*%
%TO.N,+5V*%
X119380000Y-109220000D03*
%TO.P,D9,11*%
%TO.N,GND*%
X111760000Y-88900000D03*
D29*
%TO.P,D9,1*%
%TO.N,+5V*%
X119380000Y-111760000D03*
%TD*%
D24*
%TO.P,D8,20*%
%TO.N,+5V*%
X121920000Y-147320000D03*
%TO.P,D8,10*%
%TO.N,GND*%
X144780000Y-154940000D03*
%TO.P,D8,19*%
%TO.N,CS2*%
X124460000Y-147320000D03*
%TO.P,D8,9*%
%TO.N,GND*%
X142240000Y-154940000D03*
%TO.P,D8,18*%
%TO.N,VRA12*%
X127000000Y-147320000D03*
%TO.P,D8,8*%
%TO.N,GND*%
X139700000Y-154940000D03*
%TO.P,D8,17*%
%TO.N,VRA11*%
X129540000Y-147320000D03*
%TO.P,D8,7*%
%TO.N,/Videoprozessor/xA7*%
X137160000Y-154940000D03*
%TO.P,D8,16*%
%TO.N,VRA10*%
X132080000Y-147320000D03*
%TO.P,D8,6*%
%TO.N,/Videoprozessor/xA8*%
X134620000Y-154940000D03*
%TO.P,D8,15*%
%TO.N,VRA9*%
X134620000Y-147320000D03*
%TO.P,D8,5*%
%TO.N,/Videoprozessor/xA9*%
X132080000Y-154940000D03*
%TO.P,D8,14*%
%TO.N,VRA8*%
X137160000Y-147320000D03*
%TO.P,D8,4*%
%TO.N,/Videoprozessor/xA10*%
X129540000Y-154940000D03*
%TO.P,D8,13*%
%TO.N,VRA7*%
X139700000Y-147320000D03*
%TO.P,D8,3*%
%TO.N,/Videoprozessor/xA11*%
X127000000Y-154940000D03*
%TO.P,D8,12*%
%TO.N,Net-(D8-Pad12)*%
X142240000Y-147320000D03*
%TO.P,D8,2*%
%TO.N,/Videoprozessor/xA12*%
X124460000Y-154940000D03*
%TO.P,D8,11*%
%TO.N,Net-(D8-Pad11)*%
X144780000Y-147320000D03*
D29*
%TO.P,D8,1*%
%TO.N,CS2*%
X121920000Y-154940000D03*
%TD*%
D24*
%TO.P,D7,20*%
%TO.N,+5V*%
X124460000Y-116840000D03*
%TO.P,D7,10*%
%TO.N,GND*%
X132080000Y-93980000D03*
%TO.P,D7,19*%
%TO.N,D6*%
X124460000Y-114300000D03*
%TO.P,D7,9*%
%TO.N,~EG*%
X132080000Y-96520000D03*
%TO.P,D7,18*%
%TO.N,D4*%
X124460000Y-111760000D03*
%TO.P,D7,8*%
%TO.N,/Steuerung Video-RAM/VGD1*%
X132080000Y-99060000D03*
%TO.P,D7,17*%
%TO.N,D2*%
X124460000Y-109220000D03*
%TO.P,D7,7*%
%TO.N,/Steuerung Video-RAM/VGD3*%
X132080000Y-101600000D03*
%TO.P,D7,16*%
%TO.N,D0*%
X124460000Y-106680000D03*
%TO.P,D7,6*%
%TO.N,/Steuerung Video-RAM/VGD5*%
X132080000Y-104140000D03*
%TO.P,D7,15*%
%TO.N,D7*%
X124460000Y-104140000D03*
%TO.P,D7,5*%
%TO.N,/Steuerung Video-RAM/VGD7*%
X132080000Y-106680000D03*
%TO.P,D7,14*%
%TO.N,D5*%
X124460000Y-101600000D03*
%TO.P,D7,4*%
%TO.N,/Steuerung Video-RAM/VGD0*%
X132080000Y-109220000D03*
%TO.P,D7,13*%
%TO.N,D3*%
X124460000Y-99060000D03*
%TO.P,D7,3*%
%TO.N,/Steuerung Video-RAM/VGD2*%
X132080000Y-111760000D03*
%TO.P,D7,12*%
%TO.N,D1*%
X124460000Y-96520000D03*
%TO.P,D7,2*%
%TO.N,/Steuerung Video-RAM/VGD4*%
X132080000Y-114300000D03*
%TO.P,D7,11*%
%TO.N,DIR*%
X124460000Y-93980000D03*
D29*
%TO.P,D7,1*%
%TO.N,/Steuerung Video-RAM/VGD6*%
X132080000Y-116840000D03*
%TD*%
D24*
%TO.P,D6,24*%
%TO.N,+5V*%
X167640000Y-200660000D03*
%TO.P,D6,12*%
%TO.N,GND*%
X139700000Y-185420000D03*
%TO.P,D6,23*%
%TO.N,/Videoprozessor/VA8*%
X165100000Y-200660000D03*
%TO.P,D6,11*%
%TO.N,/Videoprozessor/VAD2*%
X142240000Y-185420000D03*
%TO.P,D6,22*%
%TO.N,/Videoprozessor/VA9*%
X162560000Y-200660000D03*
%TO.P,D6,10*%
%TO.N,/Videoprozessor/VAD1*%
X144780000Y-185420000D03*
%TO.P,D6,21*%
%TO.N,+5V*%
X160020000Y-200660000D03*
%TO.P,D6,9*%
%TO.N,/Videoprozessor/VAD0*%
X147320000Y-185420000D03*
%TO.P,D6,20*%
%TO.N,/Videoprozessor/~VDS*%
X157480000Y-200660000D03*
%TO.P,D6,8*%
%TO.N,/Videoprozessor/VA0*%
X149860000Y-185420000D03*
%TO.P,D6,19*%
%TO.N,/Videoprozessor/VA10*%
X154940000Y-200660000D03*
%TO.P,D6,7*%
%TO.N,/Videoprozessor/VA1*%
X152400000Y-185420000D03*
%TO.P,D6,18*%
%TO.N,/Videoprozessor/~VDS*%
X152400000Y-200660000D03*
%TO.P,D6,6*%
%TO.N,/Videoprozessor/VA2*%
X154940000Y-185420000D03*
%TO.P,D6,17*%
%TO.N,/Videoprozessor/VAD7*%
X149860000Y-200660000D03*
%TO.P,D6,5*%
%TO.N,/Videoprozessor/VA3*%
X157480000Y-185420000D03*
%TO.P,D6,16*%
%TO.N,/Videoprozessor/VAD6*%
X147320000Y-200660000D03*
%TO.P,D6,4*%
%TO.N,/Videoprozessor/VA4*%
X160020000Y-185420000D03*
%TO.P,D6,15*%
%TO.N,/Videoprozessor/VAD5*%
X144780000Y-200660000D03*
%TO.P,D6,3*%
%TO.N,/Videoprozessor/VA5*%
X162560000Y-185420000D03*
%TO.P,D6,14*%
%TO.N,/Videoprozessor/VAD4*%
X142240000Y-200660000D03*
%TO.P,D6,2*%
%TO.N,/Videoprozessor/VA6*%
X165100000Y-185420000D03*
%TO.P,D6,13*%
%TO.N,/Videoprozessor/VAD3*%
X139700000Y-200660000D03*
D29*
%TO.P,D6,1*%
%TO.N,/Videoprozessor/VA7*%
X167640000Y-185420000D03*
%TD*%
D24*
%TO.P,D5,24*%
%TO.N,+5V*%
X139700000Y-162560000D03*
%TO.P,D5,12*%
%TO.N,GND*%
X167640000Y-177800000D03*
%TO.P,D5,23*%
%TO.N,Net-(D5-Pad23)*%
X142240000Y-162560000D03*
%TO.P,D5,11*%
%TO.N,GND*%
X165100000Y-177800000D03*
%TO.P,D5,22*%
%TO.N,/Videoprozessor/VAD4*%
X144780000Y-162560000D03*
%TO.P,D5,10*%
%TO.N,/Videoprozessor/VA3*%
X162560000Y-177800000D03*
%TO.P,D5,21*%
%TO.N,/Videoprozessor/VA4*%
X147320000Y-162560000D03*
%TO.P,D5,9*%
%TO.N,/Videoprozessor/VAD3*%
X160020000Y-177800000D03*
%TO.P,D5,20*%
%TO.N,/Videoprozessor/VAD5*%
X149860000Y-162560000D03*
%TO.P,D5,8*%
%TO.N,/Videoprozessor/VA2*%
X157480000Y-177800000D03*
%TO.P,D5,19*%
%TO.N,/Videoprozessor/VA5*%
X152400000Y-162560000D03*
%TO.P,D5,7*%
%TO.N,/Videoprozessor/VAD2*%
X154940000Y-177800000D03*
%TO.P,D5,18*%
%TO.N,/Videoprozessor/VAD6*%
X154940000Y-162560000D03*
%TO.P,D5,6*%
%TO.N,/Videoprozessor/VA1*%
X152400000Y-177800000D03*
%TO.P,D5,17*%
%TO.N,/Videoprozessor/VA6*%
X157480000Y-162560000D03*
%TO.P,D5,5*%
%TO.N,/Videoprozessor/VAD1*%
X149860000Y-177800000D03*
%TO.P,D5,16*%
%TO.N,/Videoprozessor/VAD7*%
X160020000Y-162560000D03*
%TO.P,D5,4*%
%TO.N,/Videoprozessor/VA0*%
X147320000Y-177800000D03*
%TO.P,D5,15*%
%TO.N,/Videoprozessor/VA7*%
X162560000Y-162560000D03*
%TO.P,D5,3*%
%TO.N,/Videoprozessor/VAD0*%
X144780000Y-177800000D03*
%TO.P,D5,14*%
%TO.N,+5V*%
X165100000Y-162560000D03*
%TO.P,D5,2*%
X142240000Y-177800000D03*
%TO.P,D5,13*%
X167640000Y-162560000D03*
D29*
%TO.P,D5,1*%
%TO.N,/Videoprozessor/~VAS*%
X139700000Y-177800000D03*
%TD*%
D24*
%TO.P,D4,20*%
%TO.N,+5V*%
X139700000Y-111760000D03*
%TO.P,D4,10*%
%TO.N,GND*%
X147320000Y-88900000D03*
%TO.P,D4,19*%
%TO.N,S1*%
X139700000Y-109220000D03*
%TO.P,D4,9*%
%TO.N,+5V*%
X147320000Y-91440000D03*
%TO.P,D4,18*%
X139700000Y-106680000D03*
%TO.P,D4,8*%
%TO.N,Net-(D4-Pad8)*%
X147320000Y-93980000D03*
%TO.P,D4,17*%
%TO.N,YG*%
X139700000Y-104140000D03*
%TO.P,D4,7*%
%TO.N,/Steuerung Video-RAM/VGD0*%
X147320000Y-96520000D03*
%TO.P,D4,16*%
%TO.N,/Steuerung Video-RAM/VGD7*%
X139700000Y-101600000D03*
%TO.P,D4,6*%
%TO.N,/Steuerung Video-RAM/VGD2*%
X147320000Y-99060000D03*
%TO.P,D4,15*%
%TO.N,/Steuerung Video-RAM/VGD5*%
X139700000Y-99060000D03*
%TO.P,D4,5*%
%TO.N,/Steuerung Video-RAM/VGD4*%
X147320000Y-101600000D03*
%TO.P,D4,14*%
%TO.N,/Steuerung Video-RAM/VGD3*%
X139700000Y-96520000D03*
%TO.P,D4,4*%
%TO.N,/Steuerung Video-RAM/VGD6*%
X147320000Y-104140000D03*
%TO.P,D4,13*%
%TO.N,/Steuerung Video-RAM/VGD1*%
X139700000Y-93980000D03*
%TO.P,D4,3*%
%TO.N,+5V*%
X147320000Y-106680000D03*
%TO.P,D4,12*%
%TO.N,T*%
X139700000Y-91440000D03*
%TO.P,D4,2*%
%TO.N,+5V*%
X147320000Y-109220000D03*
%TO.P,D4,11*%
%TO.N,GND*%
X139700000Y-88900000D03*
D29*
%TO.P,D4,1*%
%TO.N,+5V*%
X147320000Y-111760000D03*
%TD*%
D24*
%TO.P,D3,20*%
%TO.N,+5V*%
X152400000Y-116840000D03*
%TO.P,D3,10*%
%TO.N,GND*%
X160020000Y-93980000D03*
%TO.P,D3,19*%
%TO.N,D6*%
X152400000Y-114300000D03*
%TO.P,D3,9*%
%TO.N,~ER*%
X160020000Y-96520000D03*
%TO.P,D3,18*%
%TO.N,D4*%
X152400000Y-111760000D03*
%TO.P,D3,8*%
%TO.N,/Steuerung Video-RAM/VRD1*%
X160020000Y-99060000D03*
%TO.P,D3,17*%
%TO.N,D2*%
X152400000Y-109220000D03*
%TO.P,D3,7*%
%TO.N,/Steuerung Video-RAM/VRD3*%
X160020000Y-101600000D03*
%TO.P,D3,16*%
%TO.N,D0*%
X152400000Y-106680000D03*
%TO.P,D3,6*%
%TO.N,/Steuerung Video-RAM/VRD5*%
X160020000Y-104140000D03*
%TO.P,D3,15*%
%TO.N,D7*%
X152400000Y-104140000D03*
%TO.P,D3,5*%
%TO.N,/Steuerung Video-RAM/VRD7*%
X160020000Y-106680000D03*
%TO.P,D3,14*%
%TO.N,D5*%
X152400000Y-101600000D03*
%TO.P,D3,4*%
%TO.N,/Steuerung Video-RAM/VRD0*%
X160020000Y-109220000D03*
%TO.P,D3,13*%
%TO.N,D3*%
X152400000Y-99060000D03*
%TO.P,D3,3*%
%TO.N,/Steuerung Video-RAM/VRD2*%
X160020000Y-111760000D03*
%TO.P,D3,12*%
%TO.N,D1*%
X152400000Y-96520000D03*
%TO.P,D3,2*%
%TO.N,/Steuerung Video-RAM/VRD4*%
X160020000Y-114300000D03*
%TO.P,D3,11*%
%TO.N,DIR*%
X152400000Y-93980000D03*
D29*
%TO.P,D3,1*%
%TO.N,/Steuerung Video-RAM/VRD6*%
X160020000Y-116840000D03*
%TD*%
D24*
%TO.P,D2,20*%
%TO.N,+5V*%
X149860000Y-147320000D03*
%TO.P,D2,10*%
%TO.N,GND*%
X172720000Y-154940000D03*
%TO.P,D2,19*%
%TO.N,CS2*%
X152400000Y-147320000D03*
%TO.P,D2,9*%
%TO.N,/Videoprozessor/VA3*%
X170180000Y-154940000D03*
%TO.P,D2,18*%
%TO.N,Net-(D2-Pad18)*%
X154940000Y-147320000D03*
%TO.P,D2,8*%
%TO.N,/Videoprozessor/VA2*%
X167640000Y-154940000D03*
%TO.P,D2,17*%
%TO.N,VRA4*%
X157480000Y-147320000D03*
%TO.P,D2,7*%
%TO.N,/Videoprozessor/VA1*%
X165100000Y-154940000D03*
%TO.P,D2,16*%
%TO.N,VRA5*%
X160020000Y-147320000D03*
%TO.P,D2,6*%
%TO.N,/Videoprozessor/VA0*%
X162560000Y-154940000D03*
%TO.P,D2,15*%
%TO.N,VRA6*%
X162560000Y-147320000D03*
%TO.P,D2,5*%
%TO.N,/Videoprozessor/VA6*%
X160020000Y-154940000D03*
%TO.P,D2,14*%
%TO.N,VRA0*%
X165100000Y-147320000D03*
%TO.P,D2,4*%
%TO.N,/Videoprozessor/VA5*%
X157480000Y-154940000D03*
%TO.P,D2,13*%
%TO.N,VRA1*%
X167640000Y-147320000D03*
%TO.P,D2,3*%
%TO.N,/Videoprozessor/VA4*%
X154940000Y-154940000D03*
%TO.P,D2,12*%
%TO.N,VRA2*%
X170180000Y-147320000D03*
%TO.P,D2,2*%
%TO.N,GND*%
X152400000Y-154940000D03*
%TO.P,D2,11*%
%TO.N,VRA3*%
X172720000Y-147320000D03*
D29*
%TO.P,D2,1*%
%TO.N,CS2*%
X149860000Y-154940000D03*
%TD*%
D24*
%TO.P,D1,20*%
%TO.N,+5V*%
X167640000Y-111760000D03*
%TO.P,D1,10*%
%TO.N,GND*%
X175260000Y-88900000D03*
%TO.P,D1,19*%
%TO.N,S1*%
X167640000Y-109220000D03*
%TO.P,D1,9*%
%TO.N,+5V*%
X175260000Y-91440000D03*
%TO.P,D1,18*%
X167640000Y-106680000D03*
%TO.P,D1,8*%
%TO.N,Net-(D1-Pad8)*%
X175260000Y-93980000D03*
%TO.P,D1,17*%
%TO.N,YR*%
X167640000Y-104140000D03*
%TO.P,D1,7*%
%TO.N,/Steuerung Video-RAM/VRD0*%
X175260000Y-96520000D03*
%TO.P,D1,16*%
%TO.N,/Steuerung Video-RAM/VRD7*%
X167640000Y-101600000D03*
%TO.P,D1,6*%
%TO.N,/Steuerung Video-RAM/VRD2*%
X175260000Y-99060000D03*
%TO.P,D1,15*%
%TO.N,/Steuerung Video-RAM/VRD5*%
X167640000Y-99060000D03*
%TO.P,D1,5*%
%TO.N,/Steuerung Video-RAM/VRD4*%
X175260000Y-101600000D03*
%TO.P,D1,14*%
%TO.N,/Steuerung Video-RAM/VRD3*%
X167640000Y-96520000D03*
%TO.P,D1,4*%
%TO.N,/Steuerung Video-RAM/VRD6*%
X175260000Y-104140000D03*
%TO.P,D1,13*%
%TO.N,/Steuerung Video-RAM/VRD1*%
X167640000Y-93980000D03*
%TO.P,D1,3*%
%TO.N,+5V*%
X175260000Y-106680000D03*
%TO.P,D1,12*%
%TO.N,T*%
X167640000Y-91440000D03*
%TO.P,D1,2*%
%TO.N,+5V*%
X175260000Y-109220000D03*
%TO.P,D1,11*%
%TO.N,GND*%
X167640000Y-88900000D03*
D29*
%TO.P,D1,1*%
%TO.N,+5V*%
X175260000Y-111760000D03*
%TD*%
D24*
%TO.P,D0,16*%
%TO.N,+5V*%
X83820000Y-55880000D03*
%TO.P,D0,8*%
%TO.N,GND*%
X101600000Y-63500000D03*
%TO.P,D0,15*%
X86360000Y-55880000D03*
%TO.P,D0,7*%
%TO.N,/Videoausgabe/v*%
X99060000Y-63500000D03*
%TO.P,D0,14*%
%TO.N,T*%
X88900000Y-55880000D03*
%TO.P,D0,6*%
%TO.N,YV*%
X96520000Y-63500000D03*
%TO.P,D0,13*%
%TO.N,YB*%
X91440000Y-55880000D03*
%TO.P,D0,5*%
X93980000Y-63500000D03*
%TO.P,D0,12*%
X93980000Y-55880000D03*
%TO.P,D0,4*%
%TO.N,YV*%
X91440000Y-63500000D03*
%TO.P,D0,11*%
%TO.N,YB*%
X96520000Y-55880000D03*
%TO.P,D0,3*%
%TO.N,YV*%
X88900000Y-63500000D03*
%TO.P,D0,10*%
X99060000Y-55880000D03*
%TO.P,D0,2*%
%TO.N,/Videoausgabe/~HR*%
X86360000Y-63500000D03*
%TO.P,D0,9*%
%TO.N,/Videoausgabe/b*%
X101600000Y-55880000D03*
D29*
%TO.P,D0,1*%
%TO.N,GND*%
X83820000Y-63500000D03*
%TD*%
D30*
%TO.P,R211,2*%
%TO.N,DIR*%
X116840000Y-129740000D03*
%TO.P,R211,1*%
%TO.N,+5V*%
X116840000Y-142240000D03*
%TD*%
%TO.P,R210,2*%
%TO.N,~ER*%
X83820000Y-159820000D03*
%TO.P,R210,1*%
%TO.N,+5V*%
X83820000Y-147320000D03*
%TD*%
%TO.P,R209,2*%
%TO.N,~EG*%
X86360000Y-157280000D03*
%TO.P,R209,1*%
%TO.N,+5V*%
X86360000Y-144780000D03*
%TD*%
%TO.P,R208,2*%
%TO.N,~EB*%
X89100000Y-142240000D03*
%TO.P,R208,1*%
%TO.N,+5V*%
X101600000Y-142240000D03*
%TD*%
%TO.P,R207,2*%
%TO.N,~EV*%
X96720000Y-139700000D03*
%TO.P,R207,1*%
%TO.N,+5V*%
X109220000Y-139700000D03*
%TD*%
%TO.P,R206,2*%
%TO.N,Net-(C202-Pad2)*%
X81280000Y-162360000D03*
%TO.P,R206,1*%
%TO.N,+5V*%
X81280000Y-149860000D03*
%TD*%
%TO.P,R205,2*%
%TO.N,Net-(D13-Pad3)*%
X91240000Y-190500000D03*
%TO.P,R205,1*%
%TO.N,+5V*%
X78740000Y-190500000D03*
%TD*%
%TO.P,R204,2*%
%TO.N,Net-(C200-Pad2)*%
X63500000Y-187960000D03*
%TO.P,R204,1*%
%TO.N,Net-(C200-Pad1)*%
X63500000Y-200460000D03*
%TD*%
%TO.P,R203,2*%
%TO.N,Net-(C201-Pad1)*%
X86360000Y-193240000D03*
%TO.P,R203,1*%
%TO.N,/Videoprozessor/~VRT*%
X86360000Y-205740000D03*
%TD*%
%TO.P,R202,2*%
%TO.N,GND*%
X83820000Y-208080000D03*
%TO.P,R202,1*%
%TO.N,Net-(C201-Pad2)*%
X83820000Y-195580000D03*
%TD*%
%TO.P,R201,2*%
%TO.N,Net-(R200-Pad1)*%
X83620000Y-193040000D03*
%TO.P,R201,1*%
%TO.N,+5V*%
X71120000Y-193040000D03*
%TD*%
%TO.P,R200,2*%
%TO.N,Net-(C200-Pad2)*%
X68780000Y-195580000D03*
%TO.P,R200,1*%
%TO.N,Net-(R200-Pad1)*%
X81280000Y-195580000D03*
%TD*%
%TO.P,R25,2*%
%TO.N,Net-(C21-Pad1)*%
X111760000Y-56080000D03*
%TO.P,R25,1*%
%TO.N,GND*%
X111760000Y-68580000D03*
%TD*%
%TO.P,R15,2*%
%TO.N,Net-(C11-Pad1)*%
X139700000Y-58620000D03*
%TO.P,R15,1*%
%TO.N,GND*%
X139700000Y-71120000D03*
%TD*%
%TO.P,R10,2*%
%TO.N,Net-(C6-Pad1)*%
X149860000Y-58620000D03*
%TO.P,R10,1*%
%TO.N,GND*%
X149860000Y-71120000D03*
%TD*%
%TO.P,R5,2*%
%TO.N,Net-(C1-Pad1)*%
X160020000Y-58620000D03*
%TO.P,R5,1*%
%TO.N,GND*%
X160020000Y-71120000D03*
%TD*%
D20*
%TO.P,X303,29*%
%TO.N,Net-(X303-Pad29)*%
X134620000Y-63500000D03*
%TO.P,X303,28*%
%TO.N,+5V*%
X134620000Y-66040000D03*
%TO.P,X303,27*%
X134620000Y-68580000D03*
%TO.P,X303,26*%
X134620000Y-71120000D03*
%TO.P,X303,25*%
%TO.N,GND*%
X134620000Y-73660000D03*
%TO.P,X303,24*%
%TO.N,VRA7*%
X134620000Y-76200000D03*
%TO.P,X303,23*%
%TO.N,VRA6*%
X134620000Y-78740000D03*
%TO.P,X303,22*%
%TO.N,VRA5*%
X134620000Y-81280000D03*
%TO.P,X303,21*%
%TO.N,VRA4*%
X134620000Y-83820000D03*
%TO.P,X303,20*%
%TO.N,VRA3*%
X134620000Y-86360000D03*
%TO.P,X303,19*%
%TO.N,VRA2*%
X134620000Y-88900000D03*
%TO.P,X303,18*%
%TO.N,VRA1*%
X134620000Y-91440000D03*
%TO.P,X303,17*%
%TO.N,VRA0*%
X134620000Y-93980000D03*
%TO.P,X303,16*%
%TO.N,/Steuerung Video-RAM/VGD1*%
X134620000Y-96520000D03*
%TO.P,X303,15*%
%TO.N,/Steuerung Video-RAM/VGD3*%
X134620000Y-99060000D03*
%TO.P,X303,14*%
%TO.N,/Steuerung Video-RAM/VGD5*%
X134620000Y-101600000D03*
%TO.P,X303,13*%
%TO.N,/Steuerung Video-RAM/VGD7*%
X134620000Y-104140000D03*
%TO.P,X303,12*%
%TO.N,/Steuerung Video-RAM/VGD0*%
X134620000Y-106680000D03*
%TO.P,X303,11*%
%TO.N,/Steuerung Video-RAM/VGD2*%
X134620000Y-109220000D03*
%TO.P,X303,10*%
%TO.N,/Steuerung Video-RAM/VGD4*%
X134620000Y-111760000D03*
%TO.P,X303,9*%
%TO.N,/Steuerung Video-RAM/VGD6*%
X134620000Y-114300000D03*
%TO.P,X303,8*%
%TO.N,VRA12*%
X134620000Y-116840000D03*
%TO.P,X303,7*%
%TO.N,VRA11*%
X134620000Y-119380000D03*
%TO.P,X303,6*%
%TO.N,VRA10*%
X134620000Y-121920000D03*
%TO.P,X303,5*%
%TO.N,VRA9*%
X134620000Y-124460000D03*
%TO.P,X303,4*%
%TO.N,VRA8*%
X134620000Y-127000000D03*
%TO.P,X303,3*%
%TO.N,DIR*%
X134620000Y-129540000D03*
%TO.P,X303,2*%
%TO.N,+5V*%
X134620000Y-132080000D03*
D21*
%TO.P,X303,1*%
%TO.N,~SG*%
X134620000Y-134620000D03*
%TD*%
D20*
%TO.P,X302,29*%
%TO.N,Net-(X302-Pad29)*%
X106680000Y-63500000D03*
%TO.P,X302,28*%
%TO.N,+5V*%
X106680000Y-66040000D03*
%TO.P,X302,27*%
X106680000Y-68580000D03*
%TO.P,X302,26*%
X106680000Y-71120000D03*
%TO.P,X302,25*%
%TO.N,GND*%
X106680000Y-73660000D03*
%TO.P,X302,24*%
%TO.N,VRA7*%
X106680000Y-76200000D03*
%TO.P,X302,23*%
%TO.N,VRA6*%
X106680000Y-78740000D03*
%TO.P,X302,22*%
%TO.N,VRA5*%
X106680000Y-81280000D03*
%TO.P,X302,21*%
%TO.N,VRA4*%
X106680000Y-83820000D03*
%TO.P,X302,20*%
%TO.N,VRA3*%
X106680000Y-86360000D03*
%TO.P,X302,19*%
%TO.N,VRA2*%
X106680000Y-88900000D03*
%TO.P,X302,18*%
%TO.N,VRA1*%
X106680000Y-91440000D03*
%TO.P,X302,17*%
%TO.N,VRA0*%
X106680000Y-93980000D03*
%TO.P,X302,16*%
%TO.N,/Steuerung Video-RAM/VBD1*%
X106680000Y-96520000D03*
%TO.P,X302,15*%
%TO.N,/Steuerung Video-RAM/VBD3*%
X106680000Y-99060000D03*
%TO.P,X302,14*%
%TO.N,/Steuerung Video-RAM/VBD5*%
X106680000Y-101600000D03*
%TO.P,X302,13*%
%TO.N,/Steuerung Video-RAM/VBD7*%
X106680000Y-104140000D03*
%TO.P,X302,12*%
%TO.N,/Steuerung Video-RAM/VBD0*%
X106680000Y-106680000D03*
%TO.P,X302,11*%
%TO.N,/Steuerung Video-RAM/VBD2*%
X106680000Y-109220000D03*
%TO.P,X302,10*%
%TO.N,/Steuerung Video-RAM/VBD4*%
X106680000Y-111760000D03*
%TO.P,X302,9*%
%TO.N,/Steuerung Video-RAM/VBD6*%
X106680000Y-114300000D03*
%TO.P,X302,8*%
%TO.N,VRA12*%
X106680000Y-116840000D03*
%TO.P,X302,7*%
%TO.N,VRA11*%
X106680000Y-119380000D03*
%TO.P,X302,6*%
%TO.N,VRA10*%
X106680000Y-121920000D03*
%TO.P,X302,5*%
%TO.N,VRA9*%
X106680000Y-124460000D03*
%TO.P,X302,4*%
%TO.N,VRA8*%
X106680000Y-127000000D03*
%TO.P,X302,3*%
%TO.N,DIR*%
X106680000Y-129540000D03*
%TO.P,X302,2*%
%TO.N,+5V*%
X106680000Y-132080000D03*
D21*
%TO.P,X302,1*%
%TO.N,~SB*%
X106680000Y-134620000D03*
%TD*%
D20*
%TO.P,X301,29*%
%TO.N,Net-(X301-Pad29)*%
X162560000Y-63500000D03*
%TO.P,X301,28*%
%TO.N,+5V*%
X162560000Y-66040000D03*
%TO.P,X301,27*%
X162560000Y-68580000D03*
%TO.P,X301,26*%
X162560000Y-71120000D03*
%TO.P,X301,25*%
%TO.N,GND*%
X162560000Y-73660000D03*
%TO.P,X301,24*%
%TO.N,VRA7*%
X162560000Y-76200000D03*
%TO.P,X301,23*%
%TO.N,VRA6*%
X162560000Y-78740000D03*
%TO.P,X301,22*%
%TO.N,VRA5*%
X162560000Y-81280000D03*
%TO.P,X301,21*%
%TO.N,VRA4*%
X162560000Y-83820000D03*
%TO.P,X301,20*%
%TO.N,VRA3*%
X162560000Y-86360000D03*
%TO.P,X301,19*%
%TO.N,VRA2*%
X162560000Y-88900000D03*
%TO.P,X301,18*%
%TO.N,VRA1*%
X162560000Y-91440000D03*
%TO.P,X301,17*%
%TO.N,VRA0*%
X162560000Y-93980000D03*
%TO.P,X301,16*%
%TO.N,/Steuerung Video-RAM/VRD1*%
X162560000Y-96520000D03*
%TO.P,X301,15*%
%TO.N,/Steuerung Video-RAM/VRD3*%
X162560000Y-99060000D03*
%TO.P,X301,14*%
%TO.N,/Steuerung Video-RAM/VRD5*%
X162560000Y-101600000D03*
%TO.P,X301,13*%
%TO.N,/Steuerung Video-RAM/VRD7*%
X162560000Y-104140000D03*
%TO.P,X301,12*%
%TO.N,/Steuerung Video-RAM/VRD0*%
X162560000Y-106680000D03*
%TO.P,X301,11*%
%TO.N,/Steuerung Video-RAM/VRD2*%
X162560000Y-109220000D03*
%TO.P,X301,10*%
%TO.N,/Steuerung Video-RAM/VRD4*%
X162560000Y-111760000D03*
%TO.P,X301,9*%
%TO.N,/Steuerung Video-RAM/VRD6*%
X162560000Y-114300000D03*
%TO.P,X301,8*%
%TO.N,VRA12*%
X162560000Y-116840000D03*
%TO.P,X301,7*%
%TO.N,VRA11*%
X162560000Y-119380000D03*
%TO.P,X301,6*%
%TO.N,VRA10*%
X162560000Y-121920000D03*
%TO.P,X301,5*%
%TO.N,VRA9*%
X162560000Y-124460000D03*
%TO.P,X301,4*%
%TO.N,VRA8*%
X162560000Y-127000000D03*
%TO.P,X301,3*%
%TO.N,DIR*%
X162560000Y-129540000D03*
%TO.P,X301,2*%
%TO.N,+5V*%
X162560000Y-132080000D03*
D21*
%TO.P,X301,1*%
%TO.N,~SR*%
X162560000Y-134620000D03*
%TD*%
D20*
%TO.P,X300,29*%
%TO.N,Net-(X300-Pad29)*%
X78740000Y-63500000D03*
%TO.P,X300,28*%
%TO.N,+5V*%
X78740000Y-66040000D03*
%TO.P,X300,27*%
X78740000Y-68580000D03*
%TO.P,X300,26*%
X78740000Y-71120000D03*
%TO.P,X300,25*%
%TO.N,GND*%
X78740000Y-73660000D03*
%TO.P,X300,24*%
%TO.N,VRA7*%
X78740000Y-76200000D03*
%TO.P,X300,23*%
%TO.N,VRA6*%
X78740000Y-78740000D03*
%TO.P,X300,22*%
%TO.N,VRA5*%
X78740000Y-81280000D03*
%TO.P,X300,21*%
%TO.N,VRA4*%
X78740000Y-83820000D03*
%TO.P,X300,20*%
%TO.N,VRA3*%
X78740000Y-86360000D03*
%TO.P,X300,19*%
%TO.N,VRA2*%
X78740000Y-88900000D03*
%TO.P,X300,18*%
%TO.N,VRA1*%
X78740000Y-91440000D03*
%TO.P,X300,17*%
%TO.N,VRA0*%
X78740000Y-93980000D03*
%TO.P,X300,16*%
%TO.N,/Steuerung Video-RAM/VVD1*%
X78740000Y-96520000D03*
%TO.P,X300,15*%
%TO.N,/Steuerung Video-RAM/VVD3*%
X78740000Y-99060000D03*
%TO.P,X300,14*%
%TO.N,/Steuerung Video-RAM/VVD5*%
X78740000Y-101600000D03*
%TO.P,X300,13*%
%TO.N,/Steuerung Video-RAM/VVD7*%
X78740000Y-104140000D03*
%TO.P,X300,12*%
%TO.N,/Steuerung Video-RAM/VVD0*%
X78740000Y-106680000D03*
%TO.P,X300,11*%
%TO.N,/Steuerung Video-RAM/VVD2*%
X78740000Y-109220000D03*
%TO.P,X300,10*%
%TO.N,/Steuerung Video-RAM/VVD4*%
X78740000Y-111760000D03*
%TO.P,X300,9*%
%TO.N,/Steuerung Video-RAM/VVD6*%
X78740000Y-114300000D03*
%TO.P,X300,8*%
%TO.N,VRA12*%
X78740000Y-116840000D03*
%TO.P,X300,7*%
%TO.N,VRA11*%
X78740000Y-119380000D03*
%TO.P,X300,6*%
%TO.N,VRA10*%
X78740000Y-121920000D03*
%TO.P,X300,5*%
%TO.N,VRA9*%
X78740000Y-124460000D03*
%TO.P,X300,4*%
%TO.N,VRA8*%
X78740000Y-127000000D03*
%TO.P,X300,3*%
%TO.N,DIR*%
X78740000Y-129540000D03*
%TO.P,X300,2*%
%TO.N,+5V*%
X78740000Y-132080000D03*
D21*
%TO.P,X300,1*%
%TO.N,~SV*%
X78740000Y-134620000D03*
%TD*%
%TO.P,X204,1*%
%TO.N,/Videoprozessor/7C00h-7FFFh*%
X48260000Y-167640000D03*
%TD*%
D20*
%TO.P,X203,6*%
%TO.N,/Videoprozessor/7800h-7BFFh*%
X60960000Y-175260000D03*
%TO.P,X203,5*%
%TO.N,/Videoprozessor/7400h-77FFh*%
X60960000Y-172720000D03*
%TO.P,X203,4*%
%TO.N,/Videoprozessor/7000h-73FFh*%
X60960000Y-170180000D03*
%TO.P,X203,3*%
%TO.N,/Videoprozessor/6C00h-6FFFh*%
X60960000Y-167640000D03*
%TO.P,X203,2*%
%TO.N,/Videoprozessor/6800h-6BFFh*%
X60960000Y-165100000D03*
D21*
%TO.P,X203,1*%
%TO.N,/Videoprozessor/6400h-67FFh*%
X60960000Y-162560000D03*
%TD*%
%TO.P,X201,1*%
%TO.N,~CS2*%
X48260000Y-180340000D03*
%TD*%
D20*
%TO.P,X200,29*%
%TO.N,P3.4*%
X48260000Y-66040000D03*
%TO.P,X200,28*%
%TO.N,+5V*%
X48260000Y-68580000D03*
%TO.P,X200,27*%
%TO.N,Net-(X200-Pad27)*%
X48260000Y-71120000D03*
%TO.P,X200,26*%
%TO.N,RT*%
X48260000Y-73660000D03*
%TO.P,X200,25*%
%TO.N,GND*%
X48260000Y-76200000D03*
%TO.P,X200,24*%
%TO.N,/Videoprozessor/A7*%
X48260000Y-78740000D03*
%TO.P,X200,23*%
%TO.N,/Videoprozessor/A6*%
X48260000Y-81280000D03*
%TO.P,X200,22*%
%TO.N,/Videoprozessor/A5*%
X48260000Y-83820000D03*
%TO.P,X200,21*%
%TO.N,/Videoprozessor/A4*%
X48260000Y-86360000D03*
%TO.P,X200,20*%
%TO.N,/Videoprozessor/A3*%
X48260000Y-88900000D03*
%TO.P,X200,19*%
%TO.N,/Videoprozessor/A2*%
X48260000Y-91440000D03*
%TO.P,X200,18*%
%TO.N,/Videoprozessor/A1*%
X48260000Y-93980000D03*
%TO.P,X200,17*%
%TO.N,/Videoprozessor/A0*%
X48260000Y-96520000D03*
%TO.P,X200,16*%
%TO.N,D0*%
X48260000Y-99060000D03*
%TO.P,X200,15*%
%TO.N,D1*%
X48260000Y-101600000D03*
%TO.P,X200,14*%
%TO.N,D2*%
X48260000Y-104140000D03*
%TO.P,X200,13*%
%TO.N,D3*%
X48260000Y-106680000D03*
%TO.P,X200,12*%
%TO.N,D4*%
X48260000Y-109220000D03*
%TO.P,X200,11*%
%TO.N,D5*%
X48260000Y-111760000D03*
%TO.P,X200,10*%
%TO.N,D6*%
X48260000Y-114300000D03*
%TO.P,X200,9*%
%TO.N,D7*%
X48260000Y-116840000D03*
%TO.P,X200,8*%
%TO.N,/Videoprozessor/A12*%
X48260000Y-119380000D03*
%TO.P,X200,7*%
%TO.N,/Videoprozessor/A11*%
X48260000Y-121920000D03*
%TO.P,X200,6*%
%TO.N,/Videoprozessor/A10*%
X48260000Y-124460000D03*
%TO.P,X200,5*%
%TO.N,/Videoprozessor/A9*%
X48260000Y-127000000D03*
%TO.P,X200,4*%
%TO.N,/Videoprozessor/A8*%
X48260000Y-129540000D03*
%TO.P,X200,3*%
%TO.N,R~W*%
X48260000Y-132080000D03*
%TO.P,X200,2*%
%TO.N,~CS3*%
X48260000Y-134620000D03*
D21*
%TO.P,X200,1*%
%TO.N,Net-(X200-Pad1)*%
X48260000Y-137160000D03*
%TD*%
D24*
%TO.P,R26,2*%
%TO.N,/Videoausgabe/v*%
X104140000Y-53340000D03*
D19*
%TO.P,R26,1*%
%TO.N,Net-(R26-Pad1)*%
X106680000Y-53340000D03*
%TD*%
D24*
%TO.P,R24,2*%
%TO.N,~SYN*%
X116840000Y-63500000D03*
D19*
%TO.P,R24,1*%
%TO.N,Net-(R24-Pad1)*%
X116840000Y-60960000D03*
%TD*%
D24*
%TO.P,R23,2*%
%TO.N,Net-(C21-Pad2)*%
X119380000Y-60960000D03*
D19*
%TO.P,R23,1*%
%TO.N,+5V*%
X119380000Y-63500000D03*
%TD*%
D24*
%TO.P,R22,2*%
%TO.N,Net-(R22-Pad2)*%
X119380000Y-55880000D03*
D19*
%TO.P,R22,1*%
%TO.N,Net-(C21-Pad2)*%
X119380000Y-58420000D03*
%TD*%
D24*
%TO.P,R19,2*%
%TO.N,/Videoausgabe/b*%
X127000000Y-63500000D03*
D19*
%TO.P,R19,1*%
%TO.N,Net-(R19-Pad1)*%
X127000000Y-60960000D03*
%TD*%
D24*
%TO.P,R18,2*%
%TO.N,Net-(C16-Pad2)*%
X129540000Y-60960000D03*
D19*
%TO.P,R18,1*%
%TO.N,+5V*%
X129540000Y-63500000D03*
%TD*%
D24*
%TO.P,R17,2*%
%TO.N,Net-(R17-Pad2)*%
X129540000Y-55880000D03*
D19*
%TO.P,R17,1*%
%TO.N,Net-(C16-Pad2)*%
X129540000Y-58420000D03*
%TD*%
D24*
%TO.P,R14,2*%
%TO.N,~SYN*%
X144780000Y-63500000D03*
D19*
%TO.P,R14,1*%
%TO.N,Net-(R14-Pad1)*%
X144780000Y-60960000D03*
%TD*%
D24*
%TO.P,R13,2*%
%TO.N,Net-(C11-Pad2)*%
X147320000Y-60960000D03*
D19*
%TO.P,R13,1*%
%TO.N,+5V*%
X147320000Y-63500000D03*
%TD*%
D24*
%TO.P,R12,2*%
%TO.N,Net-(R12-Pad2)*%
X147320000Y-55880000D03*
D19*
%TO.P,R12,1*%
%TO.N,Net-(C11-Pad2)*%
X147320000Y-58420000D03*
%TD*%
D24*
%TO.P,R9,2*%
%TO.N,YG*%
X154940000Y-63500000D03*
D19*
%TO.P,R9,1*%
%TO.N,Net-(R9-Pad1)*%
X154940000Y-60960000D03*
%TD*%
D24*
%TO.P,R8,2*%
%TO.N,Net-(C6-Pad2)*%
X157480000Y-60960000D03*
D19*
%TO.P,R8,1*%
%TO.N,+5V*%
X157480000Y-63500000D03*
%TD*%
D24*
%TO.P,R7,2*%
%TO.N,Net-(R7-Pad2)*%
X157480000Y-55880000D03*
D19*
%TO.P,R7,1*%
%TO.N,Net-(C6-Pad2)*%
X157480000Y-58420000D03*
%TD*%
D24*
%TO.P,R4,2*%
%TO.N,YR*%
X167640000Y-63500000D03*
D19*
%TO.P,R4,1*%
%TO.N,Net-(R4-Pad1)*%
X167640000Y-60960000D03*
%TD*%
D24*
%TO.P,R3,2*%
%TO.N,Net-(C1-Pad2)*%
X170180000Y-60960000D03*
D19*
%TO.P,R3,1*%
%TO.N,+5V*%
X170180000Y-63500000D03*
%TD*%
D24*
%TO.P,R2,2*%
%TO.N,Net-(R2-Pad2)*%
X170180000Y-55880000D03*
D19*
%TO.P,R2,1*%
%TO.N,Net-(C1-Pad2)*%
X170180000Y-58420000D03*
%TD*%
%TO.P,C201,2*%
%TO.N,Net-(C201-Pad2)*%
X78780000Y-203200000D03*
D29*
%TO.P,C201,1*%
%TO.N,Net-(C201-Pad1)*%
X81280000Y-203200000D03*
%TD*%
D19*
%TO.P,C200,2*%
%TO.N,Net-(C200-Pad2)*%
X66040000Y-193120000D03*
%TO.P,C200,1*%
%TO.N,Net-(C200-Pad1)*%
X66040000Y-198120000D03*
%TD*%
%TO.P,C21,2*%
%TO.N,Net-(C21-Pad2)*%
X119340000Y-53340000D03*
%TO.P,C21,1*%
%TO.N,Net-(C21-Pad1)*%
X116840000Y-53340000D03*
%TD*%
%TO.P,C16,2*%
%TO.N,Net-(C16-Pad2)*%
X129500000Y-53340000D03*
%TO.P,C16,1*%
%TO.N,Net-(C16-Pad1)*%
X127000000Y-53340000D03*
%TD*%
%TO.P,C11,2*%
%TO.N,Net-(C11-Pad2)*%
X147280000Y-53340000D03*
%TO.P,C11,1*%
%TO.N,Net-(C11-Pad1)*%
X144780000Y-53340000D03*
%TD*%
%TO.P,C6,2*%
%TO.N,Net-(C6-Pad2)*%
X157440000Y-53340000D03*
%TO.P,C6,1*%
%TO.N,Net-(C6-Pad1)*%
X154940000Y-53340000D03*
%TD*%
%TO.P,C1,2*%
%TO.N,Net-(C1-Pad2)*%
X170140000Y-53340000D03*
%TO.P,C1,1*%
%TO.N,Net-(C1-Pad1)*%
X167640000Y-53340000D03*
%TD*%
D31*
%TO.N,GND*%
X58420000Y-68580000D03*
X81280000Y-60960000D03*
X175260000Y-76200000D03*
X71120000Y-88900000D03*
X99060000Y-152400000D03*
X139700000Y-195580000D03*
X60960000Y-88900000D03*
%TO.N,+5V*%
X114300000Y-60960000D03*
X101600000Y-142240000D03*
X81280000Y-55880000D03*
X167640000Y-119380000D03*
D32*
%TO.N,T*%
X124460000Y-119380000D03*
D31*
X88900000Y-83820000D03*
X116840000Y-83820000D03*
X144780000Y-83820000D03*
X121920000Y-86360000D03*
X104140000Y-137160000D03*
X83820000Y-137160000D03*
X73660000Y-190500000D03*
%TO.N,YV*%
X93980000Y-83820000D03*
%TO.N,YB*%
X119380000Y-81280000D03*
%TO.N,/Videoausgabe/~HR*%
X81280000Y-58420000D03*
%TO.N,/Videoausgabe/b*%
X132080000Y-60960000D03*
%TO.N,S1*%
X119380000Y-86360000D03*
X91440000Y-86360000D03*
X147320000Y-86360000D03*
X152400000Y-83820000D03*
X170180000Y-91440000D03*
X139700000Y-142240000D03*
X152400000Y-120650000D03*
%TO.N,VRA4*%
X170180000Y-76200000D03*
%TO.N,VRA5*%
X172720000Y-121920000D03*
%TO.N,VRA6*%
X175260000Y-121920000D03*
%TO.N,VRA0*%
X172720000Y-83820000D03*
%TO.N,VRA1*%
X172720000Y-81280000D03*
%TO.N,VRA2*%
X172720000Y-78740000D03*
%TO.N,VRA3*%
X172720000Y-76200000D03*
%TO.N,D6*%
X63500000Y-111760000D03*
%TO.N,~ER*%
X154940000Y-120650000D03*
X149860000Y-134620000D03*
X114300000Y-137160000D03*
%TO.N,D4*%
X63500000Y-106680000D03*
%TO.N,D2*%
X63500000Y-101600000D03*
%TO.N,D0*%
X63500000Y-96520000D03*
%TO.N,DIR*%
X71120000Y-142240000D03*
X99060000Y-119380000D03*
X55880000Y-187960000D03*
D32*
X55880000Y-177800000D03*
D31*
X66040000Y-170180000D03*
%TO.N,YG*%
X149860000Y-83820000D03*
%TO.N,/Videoprozessor/VA8*%
X157480000Y-193040000D03*
%TO.N,/Videoprozessor/VA9*%
X154940000Y-193040000D03*
%TO.N,/Videoprozessor/~VDS*%
X86360000Y-162560000D03*
X149860000Y-193040000D03*
%TO.N,/Videoprozessor/VA10*%
X152400000Y-193040000D03*
%TO.N,~EG*%
X129540000Y-119380000D03*
X88900000Y-144780000D03*
%TO.N,VRA12*%
X132080000Y-119380000D03*
%TO.N,VRA11*%
X132080000Y-121920000D03*
%TO.N,VRA10*%
X132080000Y-124460000D03*
%TO.N,VRA9*%
X132080000Y-127000000D03*
%TO.N,VRA8*%
X132080000Y-129540000D03*
%TO.N,VRA7*%
X147320000Y-142240000D03*
X170180000Y-127000000D03*
X157480000Y-142240000D03*
%TO.N,~SR*%
X114300000Y-139700000D03*
%TO.N,~EB*%
X99060000Y-121920000D03*
X91440000Y-157480000D03*
%TO.N,~SB*%
X104140000Y-134620000D03*
%TO.N,~SV*%
X91440000Y-134620000D03*
%TO.N,~EV*%
X73660000Y-119380000D03*
X76200000Y-137160000D03*
%TO.N,~SG*%
X114300000Y-134620000D03*
%TO.N,~CS2*%
X78740000Y-144780000D03*
X78740000Y-152400000D03*
X78740000Y-165100000D03*
D32*
%TO.N,~SYN*%
X127000000Y-119380000D03*
D31*
X121920000Y-83820000D03*
X121920000Y-139700000D03*
X180340000Y-146050000D03*
X104140000Y-190500000D03*
%TO.N,/Videoprozessor/VP3.7*%
X88900000Y-198120000D03*
%TO.N,/Videoprozessor/A4*%
X50800000Y-139700000D03*
X50800000Y-86360000D03*
%TO.N,/Videoprozessor/A5*%
X50800000Y-83820000D03*
X50800000Y-142240000D03*
%TO.N,/Videoprozessor/A6*%
X50800000Y-81280000D03*
X50800000Y-144780000D03*
%TO.N,/Videoprozessor/A7*%
X50800000Y-78740000D03*
X50800000Y-147320000D03*
%TO.N,RT*%
X66040000Y-119380000D03*
X60960000Y-195580000D03*
%TD*%
D33*
%TO.N,*%
X87630000Y-172720000D02*
X105410000Y-172720000D01*
X105410000Y-172720000D02*
X105410000Y-181610000D01*
X105410000Y-181610000D02*
X87630000Y-181610000D01*
X87630000Y-181610000D02*
X87630000Y-172720000D01*
X106680000Y-181610000D02*
X106680000Y-177165000D01*
X109220000Y-181610000D02*
X106680000Y-181610000D01*
X109220000Y-177165000D02*
X109220000Y-181610000D01*
X106680000Y-177165000D02*
X109220000Y-177165000D01*
D34*
%TO.N,Net-(C1-Pad2)*%
X170180000Y-58420000D02*
X170180000Y-60960000D01*
D33*
X172085000Y-55245000D02*
X172085000Y-56515000D01*
X170180000Y-53340000D02*
X172085000Y-55245000D01*
X172085000Y-56515000D02*
X170180000Y-58420000D01*
D34*
%TO.N,Net-(C6-Pad2)*%
X157480000Y-58420000D02*
X157480000Y-60960000D01*
D33*
X157480000Y-53340000D02*
X159385000Y-55245000D01*
X159385000Y-55245000D02*
X159385000Y-56515000D01*
X159385000Y-56515000D02*
X157480000Y-58420000D01*
D34*
%TO.N,Net-(C11-Pad2)*%
X147320000Y-58420000D02*
X147320000Y-60960000D01*
D33*
X147320000Y-53340000D02*
X149225000Y-55245000D01*
X149225000Y-55245000D02*
X149225000Y-56515000D01*
X149225000Y-56515000D02*
X147320000Y-58420000D01*
D34*
%TO.N,Net-(C16-Pad2)*%
X129540000Y-58420000D02*
X129540000Y-60960000D01*
D33*
X131445000Y-55245000D02*
X131445000Y-56515000D01*
X129540000Y-53340000D02*
X131445000Y-55245000D01*
X131445000Y-56515000D02*
X129540000Y-58420000D01*
%TO.N,Net-(C21-Pad2)*%
X121285000Y-55245000D02*
X121285000Y-56515000D01*
X121285000Y-56515000D02*
X119380000Y-58420000D01*
X119380000Y-53340000D02*
X121285000Y-55245000D01*
X119380000Y-58420000D02*
X119380000Y-60960000D01*
D34*
%TO.N,Net-(C200-Pad2)*%
X66040000Y-185420000D02*
X63500000Y-187960000D01*
X66040000Y-193120000D02*
X66040000Y-193040000D01*
X66040000Y-193040000D02*
X63500000Y-190500000D01*
X63500000Y-187960000D02*
X63500000Y-190500000D01*
X66320000Y-193120000D02*
X68780000Y-195580000D01*
X66040000Y-193120000D02*
X66320000Y-193120000D01*
%TO.N,Net-(C200-Pad1)*%
X66040000Y-205740000D02*
X66040000Y-198120000D01*
X65840000Y-198120000D02*
X63500000Y-200460000D01*
X66040000Y-198120000D02*
X65840000Y-198120000D01*
X63500000Y-203200000D02*
X66040000Y-205740000D01*
X63500000Y-200460000D02*
X63500000Y-203200000D01*
%TO.N,Net-(C201-Pad2)*%
X81280000Y-198120000D02*
X83820000Y-195580000D01*
X81280000Y-198200000D02*
X81280000Y-198120000D01*
X78780000Y-200700000D02*
X81280000Y-198200000D01*
X78780000Y-203200000D02*
X78780000Y-200700000D01*
%TO.N,Net-(C201-Pad1)*%
X86360000Y-193240000D02*
X86360000Y-195580000D01*
X86360000Y-195580000D02*
X81280000Y-200660000D01*
X81280000Y-200660000D02*
X81280000Y-203200000D01*
X81280000Y-203200000D02*
X79756000Y-204724000D01*
X79756000Y-204724000D02*
X77724000Y-204724000D01*
X77724000Y-204724000D02*
X76200000Y-203200000D01*
%TO.N,Net-(C202-Pad2)*%
X76400000Y-162360000D02*
X73660000Y-165100000D01*
X81280000Y-162360000D02*
X76400000Y-162360000D01*
X81280000Y-162480000D02*
X83900000Y-165100000D01*
X81280000Y-162360000D02*
X81280000Y-162480000D01*
X71120000Y-167640000D02*
X73660000Y-165100000D01*
X71080000Y-167640000D02*
X71120000Y-167640000D01*
D35*
%TO.N,GND*%
X60960000Y-137160000D02*
X60960000Y-139700000D01*
X60960000Y-139700000D02*
X60960000Y-142240000D01*
X60960000Y-142240000D02*
X60960000Y-144780000D01*
X60960000Y-144780000D02*
X66040000Y-149860000D01*
X78740000Y-73660000D02*
X81280000Y-71120000D01*
X81280000Y-71120000D02*
X104140000Y-71120000D01*
X104140000Y-71120000D02*
X106680000Y-73660000D01*
X50800000Y-76200000D02*
X58420000Y-68580000D01*
X48260000Y-76200000D02*
X50800000Y-76200000D01*
X99060000Y-88900000D02*
X104140000Y-93980000D01*
X91440000Y-88900000D02*
X99060000Y-88900000D01*
X83820000Y-63500000D02*
X81280000Y-60960000D01*
X111760000Y-68580000D02*
X106680000Y-73660000D01*
X111760000Y-68580000D02*
X116840000Y-68580000D01*
X116840000Y-68580000D02*
X127000000Y-68580000D01*
X127000000Y-68580000D02*
X129540000Y-68580000D01*
X129540000Y-68580000D02*
X134620000Y-73660000D01*
X99060000Y-147320000D02*
X99060000Y-144780000D01*
D34*
X105410000Y-163830000D02*
X114300000Y-154940000D01*
X88900000Y-165100000D02*
X90170000Y-163830000D01*
X90170000Y-163830000D02*
X105410000Y-163830000D01*
D35*
X167640000Y-177800000D02*
X165100000Y-177800000D01*
X167640000Y-88900000D02*
X175260000Y-88900000D01*
X175260000Y-88900000D02*
X175260000Y-76200000D01*
X165100000Y-71120000D02*
X162560000Y-73660000D01*
X137160000Y-71120000D02*
X134620000Y-73660000D01*
X162560000Y-73660000D02*
X160020000Y-71120000D01*
X142240000Y-71120000D02*
X139700000Y-71120000D01*
X142240000Y-71120000D02*
X137160000Y-71120000D01*
X160020000Y-71120000D02*
X157480000Y-71120000D01*
X152400000Y-71120000D02*
X149860000Y-71120000D01*
X157480000Y-71120000D02*
X152400000Y-71120000D01*
X152400000Y-71120000D02*
X142240000Y-71120000D01*
X76200000Y-93980000D02*
X71120000Y-88900000D01*
X63500000Y-86360000D02*
X63500000Y-88900000D01*
X55880000Y-96120000D02*
X55880000Y-93980000D01*
X60960000Y-88900000D02*
X60960000Y-88900000D01*
X74392233Y-69312233D02*
X74392233Y-67807767D01*
X78740000Y-73660000D02*
X74392233Y-69312233D01*
X167680000Y-68540000D02*
X175260000Y-68540000D01*
X165100000Y-71120000D02*
X167680000Y-68540000D01*
X127040000Y-88940000D02*
X132080000Y-93980000D01*
X127000000Y-88940000D02*
X127040000Y-88940000D01*
X154980000Y-88940000D02*
X160020000Y-93980000D01*
X154940000Y-88940000D02*
X154980000Y-88940000D01*
X144780000Y-154940000D02*
X144780000Y-152400000D01*
X144780000Y-152400000D02*
X139700000Y-152400000D01*
X139700000Y-152400000D02*
X139700000Y-154940000D01*
X142240000Y-154940000D02*
X142240000Y-152400000D01*
X144780000Y-152400000D02*
X152400000Y-152400000D01*
X152400000Y-152400000D02*
X152400000Y-154940000D01*
X152400000Y-152400000D02*
X172720000Y-152400000D01*
X172720000Y-152400000D02*
X172720000Y-154940000D01*
X175260000Y-152400000D02*
X176032233Y-151627767D01*
X172720000Y-152400000D02*
X175260000Y-152400000D01*
X139700000Y-152400000D02*
X114300000Y-152400000D01*
X114300000Y-152400000D02*
X114300000Y-154940000D01*
X58420000Y-182880000D02*
X60960000Y-185420000D01*
X50800000Y-172720000D02*
X48260000Y-172720000D01*
D34*
X83820000Y-208080000D02*
X83620000Y-208280000D01*
X68580000Y-208280000D02*
X66040000Y-208280000D01*
X66040000Y-208280000D02*
X63500000Y-205740000D01*
X73660000Y-208280000D02*
X68580000Y-208280000D01*
X83620000Y-208280000D02*
X77470000Y-208280000D01*
X77470000Y-208280000D02*
X73660000Y-208280000D01*
D35*
X66040000Y-195580000D02*
X66080000Y-195580000D01*
D34*
X69088000Y-175260000D02*
X69088000Y-184912000D01*
X73660000Y-167680000D02*
X73620000Y-167680000D01*
X73620000Y-167680000D02*
X69850000Y-171450000D01*
X69850000Y-171450000D02*
X69850000Y-174498000D01*
X69850000Y-174498000D02*
X69088000Y-175260000D01*
X69088000Y-184912000D02*
X66040000Y-187960000D01*
D35*
X139700000Y-185420000D02*
X139700000Y-187960000D01*
X139700000Y-187960000D02*
X172800000Y-187960000D01*
X172800000Y-191690000D02*
X139780000Y-191690000D01*
X172800000Y-191690000D02*
X172800000Y-187960000D01*
X139780000Y-191690000D02*
X139700000Y-191770000D01*
X139700000Y-191770000D02*
X139700000Y-195580000D01*
X104140000Y-185420000D02*
X104140000Y-188040000D01*
X106680000Y-190500000D02*
X106640000Y-190540000D01*
X106680000Y-185420000D02*
X106680000Y-190500000D01*
X106640000Y-190540000D02*
X111680000Y-195580000D01*
X104140000Y-188040000D02*
X106640000Y-190540000D01*
D34*
X63500000Y-195580000D02*
X66040000Y-195580000D01*
X60960000Y-200660000D02*
X60960000Y-203200000D01*
X60960000Y-203200000D02*
X63500000Y-205740000D01*
X60960000Y-200660000D02*
X60960000Y-198120000D01*
X60960000Y-198120000D02*
X63500000Y-195580000D01*
X66040000Y-195620000D02*
X66040000Y-195580000D01*
X68620000Y-198120000D02*
X68540000Y-198120000D01*
X68540000Y-198120000D02*
X66040000Y-195620000D01*
X66040000Y-187960000D02*
X66040000Y-190500000D01*
X66040000Y-190500000D02*
X70485000Y-194945000D01*
X68620000Y-198080000D02*
X70485000Y-196215000D01*
X70485000Y-196215000D02*
X70485000Y-194945000D01*
X68620000Y-198120000D02*
X68620000Y-198080000D01*
D35*
X126720000Y-200660000D02*
X126720000Y-200380000D01*
X121920000Y-195580000D02*
X111680000Y-195580000D01*
X126720000Y-200380000D02*
X121920000Y-195580000D01*
X60960000Y-88900000D02*
X63500000Y-88900000D01*
X61000000Y-88940000D02*
X60960000Y-88900000D01*
X63500000Y-88940000D02*
X61000000Y-88940000D01*
X60960000Y-88900000D02*
X55880000Y-93980000D01*
D34*
X108204000Y-151384000D02*
X100076000Y-151384000D01*
X100076000Y-151384000D02*
X99060000Y-152400000D01*
D35*
X109220000Y-152400000D02*
X108204000Y-151384000D01*
X114300000Y-152400000D02*
X109220000Y-152400000D01*
D34*
X77724000Y-163576000D02*
X73660000Y-167640000D01*
X88900000Y-165100000D02*
X86868000Y-167132000D01*
X86868000Y-167132000D02*
X83312000Y-167132000D01*
X83312000Y-167132000D02*
X79756000Y-163576000D01*
X79756000Y-163576000D02*
X77724000Y-163576000D01*
D35*
%TO.N,+5V*%
X114300000Y-58420000D02*
X114300000Y-60960000D01*
X78740000Y-132080000D02*
X106680000Y-132080000D01*
X134620000Y-132080000D02*
X162560000Y-132080000D01*
D34*
X81788000Y-109728000D02*
X81788000Y-108712000D01*
X83820000Y-111760000D02*
X81788000Y-109728000D01*
X81788000Y-108712000D02*
X83820000Y-106680000D01*
X111760000Y-111760000D02*
X109728000Y-109728000D01*
X109728000Y-109728000D02*
X109728000Y-108712000D01*
X109728000Y-108712000D02*
X111760000Y-106680000D01*
X137668000Y-109728000D02*
X137668000Y-108712000D01*
X137668000Y-108712000D02*
X139700000Y-106680000D01*
X139700000Y-111760000D02*
X137668000Y-109728000D01*
X165608000Y-108712000D02*
X167640000Y-106680000D01*
X165608000Y-109728000D02*
X165608000Y-108712000D01*
X167640000Y-111760000D02*
X165608000Y-109728000D01*
D35*
X78740000Y-68580000D02*
X106680000Y-68580000D01*
D34*
X66040000Y-162560000D02*
X68580000Y-160020000D01*
X68580000Y-154940000D02*
X73660000Y-149860000D01*
X68580000Y-160020000D02*
X68580000Y-154940000D01*
X66040000Y-162560000D02*
X58420000Y-154940000D01*
D35*
X106680000Y-71120000D02*
X106680000Y-68580000D01*
X106680000Y-68580000D02*
X106680000Y-66040000D01*
X134620000Y-71120000D02*
X134620000Y-68580000D01*
X134620000Y-68580000D02*
X134620000Y-66040000D01*
X134620000Y-71120000D02*
X129540000Y-66040000D01*
X129540000Y-66040000D02*
X127000000Y-66040000D01*
X109220000Y-66040000D02*
X106680000Y-68580000D01*
X114300000Y-60960000D02*
X109220000Y-66040000D01*
X114300000Y-66040000D02*
X114300000Y-60960000D01*
X116840000Y-66040000D02*
X114300000Y-66040000D01*
X114300000Y-66040000D02*
X109220000Y-66040000D01*
X124460000Y-66040000D02*
X124460000Y-58420000D01*
X127000000Y-66040000D02*
X124460000Y-66040000D01*
X119380000Y-66040000D02*
X119380000Y-63500000D01*
X124460000Y-66040000D02*
X119380000Y-66040000D01*
X119380000Y-66040000D02*
X116840000Y-66040000D01*
X96520000Y-147320000D02*
X96520000Y-144780000D01*
X96520000Y-144780000D02*
X99060000Y-142240000D01*
X99060000Y-142240000D02*
X101600000Y-142240000D01*
X162560000Y-71120000D02*
X162560000Y-68580000D01*
X162560000Y-68580000D02*
X162560000Y-66040000D01*
X91440000Y-198120000D02*
X91440000Y-195580000D01*
X91440000Y-195580000D02*
X106680000Y-195580000D01*
X91440000Y-106680000D02*
X91440000Y-109220000D01*
X91440000Y-109220000D02*
X91440000Y-111760000D01*
X119380000Y-106680000D02*
X119380000Y-109220000D01*
X119380000Y-111760000D02*
X119380000Y-109220000D01*
X147320000Y-106680000D02*
X147320000Y-109220000D01*
X147320000Y-111760000D02*
X147320000Y-109220000D01*
X175260000Y-106680000D02*
X175260000Y-109220000D01*
X175260000Y-109220000D02*
X175260000Y-111760000D01*
X134620000Y-66040000D02*
X129540000Y-66040000D01*
X162560000Y-66040000D02*
X165100000Y-66040000D01*
X165100000Y-66040000D02*
X165100000Y-58420000D01*
X152400000Y-58420000D02*
X152400000Y-66040000D01*
X152400000Y-66040000D02*
X162560000Y-66040000D01*
X142240000Y-58420000D02*
X142240000Y-66040000D01*
X165100000Y-66040000D02*
X170180000Y-66040000D01*
X170180000Y-66040000D02*
X170180000Y-63500000D01*
X157480000Y-63500000D02*
X157480000Y-66040000D01*
X147320000Y-63500000D02*
X147320000Y-66040000D01*
X147320000Y-66040000D02*
X152400000Y-66040000D01*
X134620000Y-66040000D02*
X147320000Y-66040000D01*
X129540000Y-63500000D02*
X129540000Y-66040000D01*
X83820000Y-55880000D02*
X81280000Y-55880000D01*
X53340000Y-68580000D02*
X48260000Y-68580000D01*
X55880000Y-66040000D02*
X53340000Y-68580000D01*
X78740000Y-71120000D02*
X78740000Y-68580000D01*
X78740000Y-66040000D02*
X78740000Y-68580000D01*
X91440000Y-91440000D02*
X93980000Y-91440000D01*
X93980000Y-116840000D02*
X96520000Y-116840000D01*
X93980000Y-111760000D02*
X93980000Y-116840000D01*
X91440000Y-111760000D02*
X93980000Y-111760000D01*
X93980000Y-91440000D02*
X93980000Y-111760000D01*
X93980000Y-91440000D02*
X99060000Y-91440000D01*
X119380000Y-91440000D02*
X121920000Y-91440000D01*
X121920000Y-91440000D02*
X121920000Y-111760000D01*
X121920000Y-116840000D02*
X124460000Y-116840000D01*
X121920000Y-111760000D02*
X121920000Y-116840000D01*
X119380000Y-111760000D02*
X120650000Y-111760000D01*
X120650000Y-111760000D02*
X121920000Y-111760000D01*
X147320000Y-91440000D02*
X149860000Y-91440000D01*
X149860000Y-91440000D02*
X149860000Y-111760000D01*
X149860000Y-111760000D02*
X147320000Y-111760000D01*
X149860000Y-111760000D02*
X149860000Y-116840000D01*
X149860000Y-116840000D02*
X152400000Y-116840000D01*
X73660000Y-63500000D02*
X71120000Y-63500000D01*
X76200000Y-66040000D02*
X73660000Y-63500000D01*
X78740000Y-66040000D02*
X76200000Y-66040000D01*
X170180000Y-66040000D02*
X175260000Y-66040000D01*
D34*
X176784000Y-92964000D02*
X175260000Y-91440000D01*
X176784000Y-105156000D02*
X176784000Y-92964000D01*
X175260000Y-106680000D02*
X176784000Y-105156000D01*
D35*
X175260000Y-111760000D02*
X175260000Y-114300000D01*
X175260000Y-114300000D02*
X170180000Y-119380000D01*
X170180000Y-119380000D02*
X167640000Y-119380000D01*
X167640000Y-119380000D02*
X167640000Y-129540000D01*
X167640000Y-129540000D02*
X165100000Y-132080000D01*
X165100000Y-132080000D02*
X162560000Y-132080000D01*
X106680000Y-132080000D02*
X111760000Y-132080000D01*
X111760000Y-132080000D02*
X111760000Y-139700000D01*
X111760000Y-132080000D02*
X134620000Y-132080000D01*
X116840000Y-144780000D02*
X116840000Y-149860000D01*
X116840000Y-149860000D02*
X96520000Y-149860000D01*
X96520000Y-149860000D02*
X81280000Y-149860000D01*
X73660000Y-149860000D02*
X81280000Y-149860000D01*
X81280000Y-149860000D02*
X83820000Y-147320000D01*
X83820000Y-147320000D02*
X86360000Y-144780000D01*
X109220000Y-139700000D02*
X111760000Y-139700000D01*
X116840000Y-149860000D02*
X121920000Y-149860000D01*
X121920000Y-149860000D02*
X121920000Y-147320000D01*
X121920000Y-149860000D02*
X149860000Y-149860000D01*
X149860000Y-149860000D02*
X149860000Y-147320000D01*
X149860000Y-149860000D02*
X175260000Y-149860000D01*
X175260000Y-149860000D02*
X177800000Y-149860000D01*
X177800000Y-149860000D02*
X177800000Y-185420000D01*
X116840000Y-142240000D02*
X121920000Y-147320000D01*
X116840000Y-142240000D02*
X114300000Y-142240000D01*
X114300000Y-142240000D02*
X116840000Y-144780000D01*
X111760000Y-139700000D02*
X114300000Y-142240000D01*
X96520000Y-147320000D02*
X96520000Y-149860000D01*
X53340000Y-185420000D02*
X58420000Y-180340000D01*
X50800000Y-185420000D02*
X53340000Y-185420000D01*
X58420000Y-180340000D02*
X60960000Y-182880000D01*
X76200000Y-195580000D02*
X76200000Y-198160000D01*
X76160000Y-198120000D02*
X76200000Y-198160000D01*
X71120000Y-198120000D02*
X76160000Y-198120000D01*
X73660000Y-172720000D02*
X73660000Y-170180000D01*
X76200000Y-195580000D02*
X76200000Y-191770000D01*
X165100000Y-162560000D02*
X167640000Y-162560000D01*
X106680000Y-198120000D02*
X106680000Y-195580000D01*
D34*
X50800000Y-167640000D02*
X53340000Y-165100000D01*
X53340000Y-160020000D02*
X58420000Y-154940000D01*
X53340000Y-165100000D02*
X53340000Y-160020000D01*
D35*
X77470000Y-191770000D02*
X76200000Y-191770000D01*
X78740000Y-190500000D02*
X77470000Y-191770000D01*
X78740000Y-185420000D02*
X78740000Y-190500000D01*
D34*
X70485000Y-175895000D02*
X73660000Y-172720000D01*
X71120000Y-193040000D02*
X70485000Y-192405000D01*
X70485000Y-192405000D02*
X70485000Y-175895000D01*
D35*
X76200000Y-193040000D02*
X76200000Y-191770000D01*
X71120000Y-193040000D02*
X76200000Y-193040000D01*
X72390000Y-194310000D02*
X71120000Y-193040000D01*
X72390000Y-196850000D02*
X72390000Y-194310000D01*
X71120000Y-198120000D02*
X72390000Y-196850000D01*
X76200000Y-200700000D02*
X76200000Y-198120000D01*
X111760000Y-200660000D02*
X106680000Y-195580000D01*
X121920000Y-200660000D02*
X111760000Y-200660000D01*
X74676000Y-135382000D02*
X74676000Y-138176000D01*
X77978000Y-132080000D02*
X74676000Y-135382000D01*
X74676000Y-138176000D02*
X76200000Y-139700000D01*
X78740000Y-132080000D02*
X77978000Y-132080000D01*
X177800000Y-193040000D02*
X177800000Y-187960000D01*
X170180000Y-200660000D02*
X177800000Y-193040000D01*
X177800000Y-187960000D02*
X177800000Y-185420000D01*
X167640000Y-200660000D02*
X170180000Y-200660000D01*
X78740000Y-142240000D02*
X83820000Y-142240000D01*
X76200000Y-139700000D02*
X78740000Y-142240000D01*
X83820000Y-142240000D02*
X86360000Y-144780000D01*
D34*
X165735000Y-202565000D02*
X167640000Y-200660000D01*
X161925000Y-202565000D02*
X165735000Y-202565000D01*
X160020000Y-200660000D02*
X161925000Y-202565000D01*
%TO.N,/Videoausgabe/v*%
X99060000Y-63500000D02*
X104140000Y-58420000D01*
X104140000Y-58420000D02*
X104140000Y-53340000D01*
%TO.N,T*%
X83820000Y-91440000D02*
X86360000Y-88900000D01*
X111760000Y-91440000D02*
X114300000Y-88900000D01*
X139700000Y-91440000D02*
X142240000Y-88900000D01*
X86360000Y-86360000D02*
X88900000Y-83820000D01*
X86360000Y-88900000D02*
X86360000Y-86360000D01*
X114300000Y-86360000D02*
X116840000Y-83820000D01*
X114300000Y-88900000D02*
X114300000Y-86360000D01*
X142240000Y-86360000D02*
X144780000Y-83820000D01*
X142240000Y-88900000D02*
X142240000Y-86360000D01*
X104140000Y-137160000D02*
X83820000Y-137160000D01*
X127000000Y-116840000D02*
X124460000Y-119380000D01*
X127000000Y-94488000D02*
X127000000Y-116840000D01*
X121920000Y-89408000D02*
X127000000Y-94488000D01*
X121920000Y-86360000D02*
X121920000Y-89408000D01*
X73660000Y-175260000D02*
X71755000Y-177165000D01*
X71755000Y-177165000D02*
X71755000Y-187960000D01*
X71755000Y-188595000D02*
X73660000Y-190500000D01*
X71755000Y-187960000D02*
X71755000Y-188595000D01*
%TO.N,YV*%
X83820000Y-104140000D02*
X83820000Y-103632000D01*
X85852000Y-101600000D02*
X85852000Y-99060000D01*
X83820000Y-103632000D02*
X85852000Y-101600000D01*
X87630000Y-97282000D02*
X87630000Y-88900000D01*
X85852000Y-99060000D02*
X87630000Y-97282000D01*
X96520000Y-63500000D02*
X94488000Y-65532000D01*
X93472000Y-65532000D02*
X91440000Y-63500000D01*
X94488000Y-65532000D02*
X93472000Y-65532000D01*
X88900000Y-63500000D02*
X91440000Y-63500000D01*
X99060000Y-60960000D02*
X96520000Y-63500000D01*
X99060000Y-55880000D02*
X99060000Y-60960000D01*
X87630000Y-88900000D02*
X87630000Y-87630000D01*
X91440000Y-83820000D02*
X93980000Y-83820000D01*
X87630000Y-87630000D02*
X91440000Y-83820000D01*
%TO.N,YB*%
X115570000Y-97282000D02*
X115570000Y-88900000D01*
X111760000Y-103632000D02*
X113792000Y-101600000D01*
X111760000Y-104140000D02*
X111760000Y-103632000D01*
X113792000Y-101600000D02*
X113792000Y-99060000D01*
X113792000Y-99060000D02*
X115570000Y-97282000D01*
X91440000Y-55880000D02*
X93980000Y-55880000D01*
X96520000Y-55880000D02*
X93980000Y-55880000D01*
X93980000Y-55880000D02*
X93980000Y-63500000D01*
X115570000Y-88900000D02*
X115570000Y-87630000D01*
X119380000Y-83820000D02*
X119380000Y-81280000D01*
X115570000Y-87630000D02*
X119380000Y-83820000D01*
%TO.N,/Videoausgabe/~HR*%
X86360000Y-63500000D02*
X81280000Y-58420000D01*
X80010000Y-58420000D02*
X81280000Y-58420000D01*
X77970000Y-58420000D02*
X80010000Y-58420000D01*
%TO.N,/Videoausgabe/b*%
X101600000Y-53340000D02*
X101600000Y-55880000D01*
X103632000Y-51308000D02*
X101600000Y-53340000D01*
X130048000Y-51308000D02*
X103632000Y-51308000D01*
X132080000Y-53340000D02*
X130048000Y-51308000D01*
X132080000Y-60960000D02*
X132080000Y-53340000D01*
%TO.N,S1*%
X116840000Y-97536000D02*
X116840000Y-88900000D01*
X113792000Y-103124000D02*
X115316000Y-101600000D01*
X111760000Y-109220000D02*
X113792000Y-107188000D01*
X115316000Y-99060000D02*
X116840000Y-97536000D01*
X115316000Y-101600000D02*
X115316000Y-99060000D01*
X113792000Y-107188000D02*
X113792000Y-103124000D01*
X116840000Y-88900000D02*
X119380000Y-86360000D01*
X88900000Y-97536000D02*
X88900000Y-88900000D01*
X86868000Y-99568000D02*
X88900000Y-97536000D01*
X85852000Y-103124000D02*
X86868000Y-102108000D01*
X86868000Y-102108000D02*
X86868000Y-99568000D01*
X85852000Y-107188000D02*
X85852000Y-103124000D01*
X83820000Y-109220000D02*
X85852000Y-107188000D01*
X88900000Y-88900000D02*
X91440000Y-86360000D01*
X144780000Y-97536000D02*
X144780000Y-88900000D01*
X139700000Y-109220000D02*
X141732000Y-107188000D01*
X141732000Y-103124000D02*
X143256000Y-101600000D01*
X143256000Y-99060000D02*
X144780000Y-97536000D01*
X141732000Y-107188000D02*
X141732000Y-103124000D01*
X143256000Y-101600000D02*
X143256000Y-99060000D01*
X144780000Y-88900000D02*
X147320000Y-86360000D01*
X149860000Y-86360000D02*
X152400000Y-83820000D01*
X147320000Y-86360000D02*
X149860000Y-86360000D01*
X169672000Y-107188000D02*
X167640000Y-109220000D01*
X169672000Y-103124000D02*
X169672000Y-107188000D01*
X170180000Y-102616000D02*
X169672000Y-103124000D01*
X170180000Y-91440000D02*
X170180000Y-102616000D01*
X154940000Y-118110000D02*
X154940000Y-93980000D01*
X152400000Y-120650000D02*
X154940000Y-118110000D01*
X140970000Y-143510000D02*
X139700000Y-142240000D01*
X151130000Y-143510000D02*
X140970000Y-143510000D01*
X180340000Y-149860000D02*
X175260000Y-144780000D01*
X152400000Y-144780000D02*
X151130000Y-143510000D01*
X175260000Y-144780000D02*
X152400000Y-144780000D01*
X180340000Y-195580000D02*
X180340000Y-149860000D01*
X167640000Y-208280000D02*
X180340000Y-195580000D01*
X111760000Y-208280000D02*
X167640000Y-208280000D01*
X101600000Y-198120000D02*
X111760000Y-208280000D01*
X149860000Y-86360000D02*
X149860000Y-88900000D01*
X149860000Y-88900000D02*
X147320000Y-86360000D01*
X154940000Y-93980000D02*
X149860000Y-88900000D01*
%TO.N,/Steuerung Video-RAM/VRD0*%
X160020000Y-109220000D02*
X162560000Y-106680000D01*
X172212000Y-102108000D02*
X172212000Y-99568000D01*
X167132000Y-113792000D02*
X168148000Y-113792000D01*
X168148000Y-113792000D02*
X170688000Y-111252000D01*
X170688000Y-103632000D02*
X172212000Y-102108000D01*
X164592000Y-108712000D02*
X164592000Y-110236000D01*
X172212000Y-99568000D02*
X175260000Y-96520000D01*
X165608000Y-112268000D02*
X167132000Y-113792000D01*
X162560000Y-106680000D02*
X164592000Y-108712000D01*
X170688000Y-111252000D02*
X170688000Y-103632000D01*
X164592000Y-110236000D02*
X165608000Y-111252000D01*
X165608000Y-111252000D02*
X165608000Y-112268000D01*
%TO.N,/Steuerung Video-RAM/VRD7*%
X165100000Y-101600000D02*
X162560000Y-104140000D01*
X167640000Y-101600000D02*
X165100000Y-101600000D01*
X160020000Y-106680000D02*
X162560000Y-104140000D01*
%TO.N,/Steuerung Video-RAM/VRD2*%
X160020000Y-111760000D02*
X162560000Y-109220000D01*
X171704000Y-111506000D02*
X171704000Y-104140000D01*
X164592000Y-111760000D02*
X164592000Y-112776000D01*
X173228000Y-102616000D02*
X173228000Y-101092000D01*
X166624000Y-114808000D02*
X168402000Y-114808000D01*
X162560000Y-109728000D02*
X164592000Y-111760000D01*
X162560000Y-109220000D02*
X162560000Y-109728000D01*
X164592000Y-112776000D02*
X166624000Y-114808000D01*
X171704000Y-104140000D02*
X173228000Y-102616000D01*
X173228000Y-101092000D02*
X175260000Y-99060000D01*
X168402000Y-114808000D02*
X171704000Y-111506000D01*
%TO.N,/Steuerung Video-RAM/VRD5*%
X167640000Y-99060000D02*
X165100000Y-99060000D01*
X165100000Y-99060000D02*
X162560000Y-101600000D01*
X160020000Y-104140000D02*
X162560000Y-101600000D01*
%TO.N,/Steuerung Video-RAM/VRD4*%
X160020000Y-114300000D02*
X162560000Y-111760000D01*
X162560000Y-111760000D02*
X162560000Y-112268000D01*
X162560000Y-112268000D02*
X166116000Y-115824000D01*
X166116000Y-115824000D02*
X168783000Y-115824000D01*
X168783000Y-115824000D02*
X172720000Y-111887000D01*
X175260000Y-102108000D02*
X175260000Y-101600000D01*
X172720000Y-104648000D02*
X175260000Y-102108000D01*
X172720000Y-111887000D02*
X172720000Y-104648000D01*
%TO.N,/Steuerung Video-RAM/VRD3*%
X167640000Y-96520000D02*
X165100000Y-96520000D01*
X165100000Y-96520000D02*
X162560000Y-99060000D01*
X160020000Y-101600000D02*
X162560000Y-99060000D01*
%TO.N,/Steuerung Video-RAM/VRD6*%
X160020000Y-116840000D02*
X162560000Y-114300000D01*
X173736000Y-105664000D02*
X173736000Y-112268000D01*
X165100000Y-116840000D02*
X162560000Y-114300000D01*
X173736000Y-112268000D02*
X169164000Y-116840000D01*
X175260000Y-104140000D02*
X173736000Y-105664000D01*
X169164000Y-116840000D02*
X165100000Y-116840000D01*
%TO.N,/Steuerung Video-RAM/VRD1*%
X167640000Y-93980000D02*
X165100000Y-93980000D01*
X165100000Y-93980000D02*
X162560000Y-96520000D01*
X160020000Y-99060000D02*
X162560000Y-96520000D01*
%TO.N,CS2*%
X127000000Y-144780000D02*
X124460000Y-147320000D01*
X149860000Y-144780000D02*
X127000000Y-144780000D01*
X152400000Y-147320000D02*
X149860000Y-144780000D01*
X81280000Y-175260000D02*
X73660000Y-182880000D01*
X81280000Y-170180000D02*
X81280000Y-175260000D01*
X73660000Y-185420000D02*
X73660000Y-182880000D01*
X82804000Y-168656000D02*
X81280000Y-170180000D01*
X87884000Y-168656000D02*
X82804000Y-168656000D01*
X91440000Y-165100000D02*
X87884000Y-168656000D01*
X106680000Y-165100000D02*
X91440000Y-165100000D01*
X116840000Y-154940000D02*
X106680000Y-165100000D01*
X121920000Y-154940000D02*
X116840000Y-154940000D01*
%TO.N,/Videoprozessor/VA3*%
X157480000Y-182880000D02*
X157480000Y-185420000D01*
X162560000Y-177800000D02*
X157480000Y-182880000D01*
%TO.N,/Videoprozessor/VA2*%
X154940000Y-180340000D02*
X154940000Y-185420000D01*
X157480000Y-177800000D02*
X154940000Y-180340000D01*
%TO.N,VRA4*%
X71120000Y-76200000D02*
X78740000Y-83820000D01*
X100330000Y-77470000D02*
X106680000Y-83820000D01*
X78740000Y-83820000D02*
X85090000Y-77470000D01*
X85090000Y-77470000D02*
X100330000Y-77470000D01*
X134620000Y-83820000D02*
X140970000Y-77470000D01*
X156210000Y-77470000D02*
X162560000Y-83820000D01*
X140970000Y-77470000D02*
X156210000Y-77470000D01*
X125730000Y-74930000D02*
X134620000Y-83820000D01*
X115570000Y-74930000D02*
X125730000Y-74930000D01*
X106680000Y-83820000D02*
X115570000Y-74930000D01*
X170180000Y-76200000D02*
X162560000Y-83820000D01*
%TO.N,/Videoprozessor/VA1*%
X152400000Y-177800000D02*
X152400000Y-185420000D01*
%TO.N,VRA5*%
X71120000Y-73660000D02*
X78740000Y-81280000D01*
X101600000Y-76200000D02*
X106680000Y-81280000D01*
X78740000Y-81280000D02*
X83820000Y-76200000D01*
X83820000Y-76200000D02*
X101600000Y-76200000D01*
X139700000Y-76200000D02*
X157480000Y-76200000D01*
X134620000Y-81280000D02*
X139700000Y-76200000D01*
X157480000Y-76200000D02*
X162560000Y-81280000D01*
X127000000Y-73660000D02*
X134620000Y-81280000D01*
X114300000Y-73660000D02*
X127000000Y-73660000D01*
X106680000Y-81280000D02*
X114300000Y-73660000D01*
X168910000Y-74930000D02*
X162560000Y-81280000D01*
X179070000Y-78105000D02*
X175895000Y-74930000D01*
X179070000Y-115570000D02*
X179070000Y-78105000D01*
X175895000Y-74930000D02*
X168910000Y-74930000D01*
X172720000Y-121920000D02*
X179070000Y-115570000D01*
%TO.N,/Videoprozessor/VA0*%
X149860000Y-180340000D02*
X149860000Y-185420000D01*
X147320000Y-177800000D02*
X149860000Y-180340000D01*
%TO.N,VRA6*%
X71120000Y-71120000D02*
X78740000Y-78740000D01*
X102870000Y-74930000D02*
X106680000Y-78740000D01*
X78740000Y-78740000D02*
X82550000Y-74930000D01*
X82550000Y-74930000D02*
X102870000Y-74930000D01*
X134620000Y-78740000D02*
X138430000Y-74930000D01*
X138430000Y-74930000D02*
X158750000Y-74930000D01*
X158750000Y-74930000D02*
X162560000Y-78740000D01*
X113030000Y-72390000D02*
X128270000Y-72390000D01*
X128270000Y-72390000D02*
X134620000Y-78740000D01*
X106680000Y-78740000D02*
X113030000Y-72390000D01*
X180340000Y-116840000D02*
X175260000Y-121920000D01*
X180340000Y-76835000D02*
X180340000Y-116840000D01*
X177165000Y-73660000D02*
X180340000Y-76835000D01*
X167640000Y-73660000D02*
X177165000Y-73660000D01*
X162560000Y-78740000D02*
X167640000Y-73660000D01*
%TO.N,/Videoprozessor/VA6*%
X167640000Y-172720000D02*
X157480000Y-162560000D01*
X170180000Y-172720000D02*
X167640000Y-172720000D01*
X172720000Y-175260000D02*
X170180000Y-172720000D01*
X172720000Y-180340000D02*
X172720000Y-175260000D01*
X170180000Y-182880000D02*
X172720000Y-180340000D01*
X167640000Y-182880000D02*
X170180000Y-182880000D01*
X165100000Y-185420000D02*
X167640000Y-182880000D01*
%TO.N,VRA0*%
X71120000Y-86360000D02*
X78740000Y-93980000D01*
X78740000Y-93980000D02*
X80010000Y-93980000D01*
X88265000Y-82550000D02*
X95250000Y-82550000D01*
X95250000Y-82550000D02*
X106680000Y-93980000D01*
X81915000Y-88900000D02*
X88265000Y-82550000D01*
X81915000Y-92075000D02*
X81915000Y-88900000D01*
X80010000Y-93980000D02*
X81915000Y-92075000D01*
X118745000Y-80010000D02*
X120650000Y-80010000D01*
X109855000Y-88900000D02*
X118745000Y-80010000D01*
X109855000Y-92075000D02*
X109855000Y-88900000D01*
X120650000Y-80010000D02*
X134620000Y-93980000D01*
X107950000Y-93980000D02*
X109855000Y-92075000D01*
X106680000Y-93980000D02*
X107950000Y-93980000D01*
X154940000Y-86360000D02*
X162560000Y-93980000D01*
X144145000Y-82550000D02*
X153670000Y-82550000D01*
X137795000Y-88900000D02*
X144145000Y-82550000D01*
X154940000Y-83820000D02*
X154940000Y-86360000D01*
X153670000Y-82550000D02*
X154940000Y-83820000D01*
X137795000Y-92075000D02*
X137795000Y-88900000D01*
X135890000Y-93980000D02*
X137795000Y-92075000D01*
X134620000Y-93980000D02*
X135890000Y-93980000D01*
X165735000Y-88265000D02*
X167640000Y-86360000D01*
X167640000Y-86360000D02*
X170180000Y-86360000D01*
X165735000Y-90805000D02*
X165735000Y-88265000D01*
X170180000Y-86360000D02*
X172720000Y-83820000D01*
X162560000Y-93980000D02*
X165735000Y-90805000D01*
%TO.N,/Videoprozessor/VA5*%
X168910000Y-173990000D02*
X163830000Y-173990000D01*
X171450000Y-176530000D02*
X168910000Y-173990000D01*
X168910000Y-181610000D02*
X171450000Y-179070000D01*
X163830000Y-173990000D02*
X152400000Y-162560000D01*
X166370000Y-181610000D02*
X168910000Y-181610000D01*
X171450000Y-179070000D02*
X171450000Y-176530000D01*
X162560000Y-185420000D02*
X166370000Y-181610000D01*
%TO.N,VRA1*%
X71120000Y-83820000D02*
X78740000Y-91440000D01*
X96520000Y-81280000D02*
X106680000Y-91440000D01*
X87884000Y-81280000D02*
X96520000Y-81280000D01*
X80645000Y-88519000D02*
X87884000Y-81280000D01*
X80645000Y-89535000D02*
X80645000Y-88519000D01*
X78740000Y-91440000D02*
X80645000Y-89535000D01*
X121920000Y-78740000D02*
X134620000Y-91440000D01*
X118364000Y-78740000D02*
X121920000Y-78740000D01*
X108585000Y-88519000D02*
X118364000Y-78740000D01*
X108585000Y-89535000D02*
X108585000Y-88519000D01*
X106680000Y-91440000D02*
X108585000Y-89535000D01*
X156210000Y-85090000D02*
X162560000Y-91440000D01*
X156210000Y-83820000D02*
X156210000Y-85090000D01*
X153670000Y-81280000D02*
X156210000Y-83820000D01*
X143764000Y-81280000D02*
X153670000Y-81280000D01*
X136525000Y-88519000D02*
X143764000Y-81280000D01*
X136525000Y-89535000D02*
X136525000Y-88519000D01*
X134620000Y-91440000D02*
X136525000Y-89535000D01*
X169227500Y-84772500D02*
X172720000Y-81280000D01*
X167957500Y-84772500D02*
X169227500Y-84772500D01*
X164465000Y-89535000D02*
X164465000Y-88265000D01*
X164465000Y-88265000D02*
X167957500Y-84772500D01*
X162560000Y-91440000D02*
X164465000Y-89535000D01*
%TO.N,/Videoprozessor/VA4*%
X167640000Y-175260000D02*
X160020000Y-175260000D01*
X160020000Y-175260000D02*
X147320000Y-162560000D01*
X170180000Y-177800000D02*
X167640000Y-175260000D01*
X167640000Y-180340000D02*
X170180000Y-177800000D01*
X165100000Y-180340000D02*
X167640000Y-180340000D01*
X160020000Y-185420000D02*
X165100000Y-180340000D01*
%TO.N,VRA2*%
X71120000Y-81280000D02*
X78740000Y-88900000D01*
X97790000Y-80010000D02*
X106680000Y-88900000D01*
X78740000Y-88900000D02*
X87630000Y-80010000D01*
X87630000Y-80010000D02*
X97790000Y-80010000D01*
X123190000Y-77470000D02*
X134620000Y-88900000D01*
X118110000Y-77470000D02*
X123190000Y-77470000D01*
X106680000Y-88900000D02*
X118110000Y-77470000D01*
X154940000Y-81280000D02*
X162560000Y-88900000D01*
X143510000Y-80010000D02*
X153670000Y-80010000D01*
X153670000Y-80010000D02*
X154940000Y-81280000D01*
X134620000Y-88900000D02*
X143510000Y-80010000D01*
X162560000Y-88900000D02*
X172720000Y-78740000D01*
%TO.N,VRA3*%
X71120000Y-78740000D02*
X78740000Y-86360000D01*
X99060000Y-78740000D02*
X106680000Y-86360000D01*
X78740000Y-86360000D02*
X86360000Y-78740000D01*
X86360000Y-78740000D02*
X99060000Y-78740000D01*
X154940000Y-78740000D02*
X162560000Y-86360000D01*
X142240000Y-78740000D02*
X154940000Y-78740000D01*
X134620000Y-86360000D02*
X142240000Y-78740000D01*
X124460000Y-76200000D02*
X134620000Y-86360000D01*
X116840000Y-76200000D02*
X124460000Y-76200000D01*
X106680000Y-86360000D02*
X116840000Y-76200000D01*
X162560000Y-86360000D02*
X172720000Y-76200000D01*
%TO.N,D6*%
X60960000Y-114300000D02*
X63500000Y-111760000D01*
X48260000Y-114300000D02*
X60960000Y-114300000D01*
%TO.N,~ER*%
X160020000Y-96520000D02*
X157480000Y-99060000D01*
X157480000Y-99060000D02*
X157480000Y-109220000D01*
X157480000Y-118110000D02*
X154940000Y-120650000D01*
X157480000Y-109220000D02*
X157480000Y-118110000D01*
X73660000Y-160020000D02*
X83820000Y-160020000D01*
X101600000Y-160020000D02*
X106680000Y-154940000D01*
X83820000Y-160020000D02*
X101600000Y-160020000D01*
X149860000Y-134620000D02*
X147320000Y-137160000D01*
X147320000Y-137160000D02*
X114300000Y-137160000D01*
%TO.N,D4*%
X60960000Y-109220000D02*
X63500000Y-106680000D01*
X48260000Y-109220000D02*
X60960000Y-109220000D01*
%TO.N,D2*%
X60960000Y-104140000D02*
X63500000Y-101600000D01*
X48260000Y-104140000D02*
X60960000Y-104140000D01*
%TO.N,D0*%
X60960000Y-99060000D02*
X63500000Y-96520000D01*
X48260000Y-99060000D02*
X60960000Y-99060000D01*
%TO.N,D7*%
X48260000Y-116840000D02*
X60960000Y-116840000D01*
X60960000Y-116840000D02*
X66040000Y-111760000D01*
X66040000Y-106680000D02*
X68580000Y-104140000D01*
X66040000Y-111760000D02*
X66040000Y-106680000D01*
%TO.N,D5*%
X64770000Y-105410000D02*
X68580000Y-101600000D01*
X64770000Y-107950000D02*
X64770000Y-105410000D01*
X60960000Y-111760000D02*
X64770000Y-107950000D01*
X48260000Y-111760000D02*
X60960000Y-111760000D01*
%TO.N,D3*%
X60960000Y-106680000D02*
X68580000Y-99060000D01*
X48260000Y-106680000D02*
X60960000Y-106680000D01*
%TO.N,D1*%
X68580000Y-96520000D02*
X66040000Y-96520000D01*
X66040000Y-96520000D02*
X60960000Y-101600000D01*
X60960000Y-101600000D02*
X48260000Y-101600000D01*
%TO.N,DIR*%
X134620000Y-129540000D02*
X162560000Y-129540000D01*
X129540000Y-129540000D02*
X106680000Y-129540000D01*
X130810000Y-130810000D02*
X129540000Y-129540000D01*
X133350000Y-130810000D02*
X130810000Y-130810000D01*
X134620000Y-129540000D02*
X133350000Y-130810000D01*
X105410000Y-129540000D02*
X106680000Y-129540000D01*
X78740000Y-129540000D02*
X105410000Y-129540000D01*
X78740000Y-129540000D02*
X71120000Y-137160000D01*
X71120000Y-137160000D02*
X71120000Y-142240000D01*
X96520000Y-93980000D02*
X99060000Y-96520000D01*
X99060000Y-96520000D02*
X99060000Y-119380000D01*
X50800000Y-187960000D02*
X55880000Y-187960000D01*
X64135000Y-172085000D02*
X66040000Y-170180000D01*
X62230000Y-179070000D02*
X64135000Y-177165000D01*
X60769500Y-179070000D02*
X62230000Y-179070000D01*
X64135000Y-177165000D02*
X64135000Y-172085000D01*
X59499500Y-177800000D02*
X60769500Y-179070000D01*
X55880000Y-177800000D02*
X59499500Y-177800000D01*
%TO.N,YG*%
X141732000Y-101600000D02*
X141732000Y-99060000D01*
X139700000Y-103632000D02*
X141732000Y-101600000D01*
X139700000Y-104140000D02*
X139700000Y-103632000D01*
X143510000Y-97282000D02*
X143510000Y-88900000D01*
X141732000Y-99060000D02*
X143510000Y-97282000D01*
X143510000Y-88900000D02*
X143510000Y-87630000D01*
X147320000Y-83820000D02*
X149860000Y-83820000D01*
X143510000Y-87630000D02*
X147320000Y-83820000D01*
%TO.N,/Steuerung Video-RAM/VGD0*%
X132080000Y-109220000D02*
X134620000Y-106680000D01*
X136652000Y-110236000D02*
X137668000Y-111252000D01*
X142748000Y-111252000D02*
X142748000Y-103632000D01*
X142748000Y-103632000D02*
X144272000Y-102108000D01*
X144272000Y-99568000D02*
X147320000Y-96520000D01*
X137668000Y-111252000D02*
X137668000Y-112268000D01*
X140208000Y-113792000D02*
X142748000Y-111252000D01*
X139192000Y-113792000D02*
X140208000Y-113792000D01*
X137668000Y-112268000D02*
X139192000Y-113792000D01*
X136652000Y-108712000D02*
X136652000Y-110236000D01*
X134620000Y-106680000D02*
X136652000Y-108712000D01*
X144272000Y-102108000D02*
X144272000Y-99568000D01*
%TO.N,/Steuerung Video-RAM/VGD7*%
X139700000Y-101600000D02*
X137160000Y-101600000D01*
X137160000Y-101600000D02*
X134620000Y-104140000D01*
X132080000Y-106680000D02*
X134620000Y-104140000D01*
%TO.N,/Steuerung Video-RAM/VGD2*%
X132080000Y-111760000D02*
X134620000Y-109220000D01*
X134620000Y-109728000D02*
X136652000Y-111760000D01*
X145288000Y-102616000D02*
X145288000Y-101092000D01*
X134620000Y-109220000D02*
X134620000Y-109728000D01*
X136652000Y-112776000D02*
X138684000Y-114808000D01*
X136652000Y-111760000D02*
X136652000Y-112776000D01*
X143764000Y-104140000D02*
X145288000Y-102616000D01*
X138684000Y-114808000D02*
X140462000Y-114808000D01*
X143764000Y-111506000D02*
X143764000Y-104140000D01*
X140462000Y-114808000D02*
X143764000Y-111506000D01*
X145288000Y-101092000D02*
X147320000Y-99060000D01*
%TO.N,/Steuerung Video-RAM/VGD5*%
X139700000Y-99060000D02*
X137160000Y-99060000D01*
X137160000Y-99060000D02*
X134620000Y-101600000D01*
X132080000Y-104140000D02*
X134620000Y-101600000D01*
%TO.N,/Steuerung Video-RAM/VGD4*%
X132080000Y-114300000D02*
X134620000Y-111760000D01*
X144780000Y-104648000D02*
X147320000Y-102108000D01*
X140843000Y-115824000D02*
X144780000Y-111887000D01*
X134620000Y-111760000D02*
X134620000Y-112268000D01*
X134620000Y-112268000D02*
X138176000Y-115824000D01*
X144780000Y-111887000D02*
X144780000Y-104648000D01*
X138176000Y-115824000D02*
X140843000Y-115824000D01*
X147320000Y-102108000D02*
X147320000Y-101600000D01*
%TO.N,/Steuerung Video-RAM/VGD3*%
X139700000Y-96520000D02*
X137160000Y-96520000D01*
X137160000Y-96520000D02*
X134620000Y-99060000D01*
X132080000Y-101600000D02*
X134620000Y-99060000D01*
%TO.N,/Steuerung Video-RAM/VGD6*%
X132080000Y-116840000D02*
X134620000Y-114300000D01*
X145796000Y-105664000D02*
X145796000Y-112268000D01*
X137160000Y-116840000D02*
X134620000Y-114300000D01*
X141224000Y-116840000D02*
X137160000Y-116840000D01*
X145796000Y-112268000D02*
X141224000Y-116840000D01*
X147320000Y-104140000D02*
X145796000Y-105664000D01*
%TO.N,/Steuerung Video-RAM/VGD1*%
X137160000Y-93980000D02*
X134620000Y-96520000D01*
X139700000Y-93980000D02*
X137160000Y-93980000D01*
X132080000Y-99060000D02*
X134620000Y-96520000D01*
%TO.N,/Videoprozessor/VAD4*%
X142240000Y-165100000D02*
X144780000Y-162560000D01*
X133350000Y-165100000D02*
X142240000Y-165100000D01*
X132080000Y-163830000D02*
X133350000Y-165100000D01*
X123190000Y-163830000D02*
X132080000Y-163830000D01*
X116840000Y-170180000D02*
X123190000Y-163830000D01*
X139700000Y-203200000D02*
X142240000Y-200660000D01*
X138430000Y-203200000D02*
X139700000Y-203200000D01*
X126365000Y-176530000D02*
X135890000Y-186055000D01*
X135890000Y-186055000D02*
X135890000Y-200660000D01*
X123190000Y-176530000D02*
X126365000Y-176530000D01*
X135890000Y-200660000D02*
X138430000Y-203200000D01*
X116840000Y-170180000D02*
X123190000Y-176530000D01*
%TO.N,/Videoprozessor/VAD3*%
X154940000Y-172720000D02*
X160020000Y-177800000D01*
X140970000Y-166370000D02*
X147320000Y-172720000D01*
X132080000Y-166370000D02*
X140970000Y-166370000D01*
X130810000Y-165100000D02*
X132080000Y-166370000D01*
X147320000Y-172720000D02*
X154940000Y-172720000D01*
X124460000Y-165100000D02*
X130810000Y-165100000D01*
X119380000Y-170180000D02*
X124460000Y-165100000D01*
X124460000Y-175260000D02*
X119380000Y-170180000D01*
X127000000Y-175260000D02*
X124460000Y-175260000D01*
X137160000Y-185420000D02*
X127000000Y-175260000D01*
X137160000Y-198120000D02*
X137160000Y-185420000D01*
X139700000Y-200660000D02*
X137160000Y-198120000D01*
%TO.N,/Videoprozessor/VAD5*%
X121920000Y-162560000D02*
X114300000Y-170180000D01*
X137160000Y-162560000D02*
X121920000Y-162560000D01*
X139700000Y-160020000D02*
X137160000Y-162560000D01*
X147320000Y-160020000D02*
X139700000Y-160020000D01*
X149860000Y-162560000D02*
X147320000Y-160020000D01*
X140970000Y-204470000D02*
X144780000Y-200660000D01*
X137160000Y-204470000D02*
X140970000Y-204470000D01*
X134620000Y-201930000D02*
X137160000Y-204470000D01*
X134620000Y-186690000D02*
X134620000Y-201930000D01*
X125730000Y-177800000D02*
X134620000Y-186690000D01*
X121920000Y-177800000D02*
X125730000Y-177800000D01*
X114300000Y-170180000D02*
X121920000Y-177800000D01*
%TO.N,/Videoprozessor/VAD2*%
X151130000Y-173990000D02*
X154940000Y-177800000D01*
X146050000Y-173990000D02*
X151130000Y-173990000D01*
X130810000Y-167640000D02*
X139700000Y-167640000D01*
X139700000Y-167640000D02*
X146050000Y-173990000D01*
X129540000Y-166370000D02*
X130810000Y-167640000D01*
X125730000Y-166370000D02*
X129540000Y-166370000D01*
X121920000Y-170180000D02*
X125730000Y-166370000D01*
X121920000Y-170180000D02*
X125730000Y-173990000D01*
X135636000Y-178816000D02*
X133096000Y-178816000D01*
X135636000Y-178816000D02*
X142240000Y-185420000D01*
X133096000Y-178816000D02*
X128270000Y-173990000D01*
X125730000Y-173990000D02*
X128270000Y-173990000D01*
%TO.N,/Videoprozessor/VAD6*%
X120650000Y-161290000D02*
X111760000Y-170180000D01*
X137160000Y-161290000D02*
X120650000Y-161290000D01*
X139700000Y-158750000D02*
X137160000Y-161290000D01*
X151130000Y-158750000D02*
X139700000Y-158750000D01*
X154940000Y-162560000D02*
X151130000Y-158750000D01*
X142240000Y-205740000D02*
X147320000Y-200660000D01*
X133350000Y-203200000D02*
X135890000Y-205740000D01*
X133350000Y-187325000D02*
X133350000Y-203200000D01*
X125095000Y-179070000D02*
X133350000Y-187325000D01*
X135890000Y-205740000D02*
X142240000Y-205740000D01*
X120650000Y-179070000D02*
X125095000Y-179070000D01*
X111760000Y-170180000D02*
X120650000Y-179070000D01*
%TO.N,/Videoprozessor/VAD1*%
X147320000Y-175260000D02*
X149860000Y-177800000D01*
X144780000Y-175260000D02*
X147320000Y-175260000D01*
X138430000Y-168910000D02*
X144780000Y-175260000D01*
X129540000Y-168910000D02*
X138430000Y-168910000D01*
X128270000Y-167640000D02*
X129540000Y-168910000D01*
X127000000Y-167640000D02*
X128270000Y-167640000D01*
X124460000Y-170180000D02*
X127000000Y-167640000D01*
X129540000Y-172720000D02*
X127000000Y-172720000D01*
X134112000Y-177292000D02*
X129540000Y-172720000D01*
X136652000Y-177292000D02*
X134112000Y-177292000D01*
X127000000Y-172720000D02*
X124460000Y-170180000D01*
X144780000Y-185420000D02*
X136652000Y-177292000D01*
%TO.N,/Videoprozessor/VAD7*%
X137160000Y-160020000D02*
X119380000Y-160020000D01*
X139700000Y-157480000D02*
X137160000Y-160020000D01*
X119380000Y-160020000D02*
X109220000Y-170180000D01*
X154940000Y-157480000D02*
X139700000Y-157480000D01*
X160020000Y-162560000D02*
X154940000Y-157480000D01*
X143510000Y-207010000D02*
X149860000Y-200660000D01*
X132080000Y-187960000D02*
X132080000Y-204470000D01*
X132080000Y-204470000D02*
X134620000Y-207010000D01*
X124460000Y-180340000D02*
X132080000Y-187960000D01*
X134620000Y-207010000D02*
X143510000Y-207010000D01*
X119380000Y-180340000D02*
X124460000Y-180340000D01*
X109220000Y-170180000D02*
X119380000Y-180340000D01*
%TO.N,/Videoprozessor/VA7*%
X167640000Y-185420000D02*
X170180000Y-185420000D01*
X170180000Y-185420000D02*
X173990000Y-181610000D01*
X173990000Y-181610000D02*
X173990000Y-173990000D01*
X173990000Y-173990000D02*
X171450000Y-171450000D01*
X171450000Y-171450000D02*
X162560000Y-162560000D01*
%TO.N,/Videoprozessor/VAD0*%
X137160000Y-170180000D02*
X144780000Y-177800000D01*
X127000000Y-170180000D02*
X137160000Y-170180000D01*
X147320000Y-180340000D02*
X147320000Y-185420000D01*
X144780000Y-177800000D02*
X147320000Y-180340000D01*
%TO.N,/Videoprozessor/VA8*%
X165100000Y-200660000D02*
X157480000Y-193040000D01*
%TO.N,/Videoprozessor/VA9*%
X162560000Y-200660000D02*
X154940000Y-193040000D01*
%TO.N,/Videoprozessor/~VDS*%
X109220000Y-154940000D02*
X101600000Y-162560000D01*
X101600000Y-162560000D02*
X86360000Y-162560000D01*
X155575000Y-202565000D02*
X157480000Y-200660000D01*
X154305000Y-202565000D02*
X155575000Y-202565000D01*
X152400000Y-200660000D02*
X154305000Y-202565000D01*
X96520000Y-185420000D02*
X93980000Y-182880000D01*
X93980000Y-182880000D02*
X87630000Y-182880000D01*
X87630000Y-182880000D02*
X86360000Y-181610000D01*
X86360000Y-181610000D02*
X86360000Y-170180000D01*
X103632000Y-152908000D02*
X101600000Y-154940000D01*
X107188000Y-152908000D02*
X103632000Y-152908000D01*
X109220000Y-154940000D02*
X107188000Y-152908000D01*
X149860000Y-198120000D02*
X152400000Y-200660000D01*
X149860000Y-193040000D02*
X149860000Y-198120000D01*
%TO.N,/Videoprozessor/VA10*%
X152400000Y-198120000D02*
X152400000Y-193040000D01*
X154940000Y-200660000D02*
X152400000Y-198120000D01*
%TO.N,~EG*%
X132080000Y-96520000D02*
X129540000Y-99060000D01*
X129540000Y-99060000D02*
X129540000Y-116840000D01*
X129540000Y-116840000D02*
X129540000Y-119380000D01*
X73660000Y-157480000D02*
X86360000Y-157480000D01*
X101600000Y-139700000D02*
X109220000Y-147320000D01*
X99060000Y-139700000D02*
X101600000Y-139700000D01*
X93980000Y-144780000D02*
X99060000Y-139700000D01*
X88900000Y-144780000D02*
X93980000Y-144780000D01*
%TO.N,VRA12*%
X68580000Y-127000000D02*
X78740000Y-116840000D01*
X139700000Y-121920000D02*
X134620000Y-116840000D01*
X157480000Y-121920000D02*
X139700000Y-121920000D01*
X162560000Y-116840000D02*
X157480000Y-121920000D01*
X134620000Y-116840000D02*
X132080000Y-119380000D01*
X110490000Y-120650000D02*
X106680000Y-116840000D01*
X130810000Y-120650000D02*
X110490000Y-120650000D01*
X132080000Y-119380000D02*
X130810000Y-120650000D01*
X85090000Y-123190000D02*
X78740000Y-116840000D01*
X100330000Y-123190000D02*
X85090000Y-123190000D01*
X106680000Y-116840000D02*
X100330000Y-123190000D01*
%TO.N,VRA11*%
X68580000Y-129540000D02*
X78740000Y-119380000D01*
X138176000Y-122936000D02*
X134620000Y-119380000D01*
X159004000Y-122936000D02*
X138176000Y-122936000D01*
X162560000Y-119380000D02*
X159004000Y-122936000D01*
X134620000Y-119380000D02*
X132080000Y-121920000D01*
X109220000Y-121920000D02*
X106680000Y-119380000D01*
X132080000Y-121920000D02*
X109220000Y-121920000D01*
X83820000Y-124460000D02*
X78740000Y-119380000D01*
X101600000Y-124460000D02*
X83820000Y-124460000D01*
X106680000Y-119380000D02*
X101600000Y-124460000D01*
%TO.N,VRA10*%
X68580000Y-132080000D02*
X78740000Y-121920000D01*
X160528000Y-123952000D02*
X162560000Y-121920000D01*
X136652000Y-123952000D02*
X160528000Y-123952000D01*
X134620000Y-121920000D02*
X136652000Y-123952000D01*
X134620000Y-121920000D02*
X132080000Y-124460000D01*
X108204000Y-123444000D02*
X106680000Y-121920000D01*
X131064000Y-123444000D02*
X108204000Y-123444000D01*
X132080000Y-124460000D02*
X131064000Y-123444000D01*
X102870000Y-125730000D02*
X106680000Y-121920000D01*
X82550000Y-125730000D02*
X102870000Y-125730000D01*
X78740000Y-121920000D02*
X82550000Y-125730000D01*
%TO.N,VRA9*%
X68580000Y-134620000D02*
X78740000Y-124460000D01*
X162052000Y-124968000D02*
X162560000Y-124460000D01*
X135128000Y-124968000D02*
X162052000Y-124968000D01*
X134620000Y-124460000D02*
X135128000Y-124968000D01*
X134620000Y-124460000D02*
X132080000Y-127000000D01*
X130175000Y-125095000D02*
X132080000Y-127000000D01*
X107315000Y-125095000D02*
X130175000Y-125095000D01*
X106680000Y-124460000D02*
X107315000Y-125095000D01*
X104140000Y-127000000D02*
X106680000Y-124460000D01*
X81280000Y-127000000D02*
X104140000Y-127000000D01*
X78740000Y-124460000D02*
X81280000Y-127000000D01*
%TO.N,VRA8*%
X68580000Y-137160000D02*
X78740000Y-127000000D01*
X162560000Y-127000000D02*
X134620000Y-127000000D01*
X134620000Y-127000000D02*
X132080000Y-129540000D01*
X129540000Y-127000000D02*
X132080000Y-129540000D01*
X106680000Y-127000000D02*
X129540000Y-127000000D01*
X105410000Y-128270000D02*
X106680000Y-127000000D01*
X80010000Y-128270000D02*
X105410000Y-128270000D01*
X78740000Y-127000000D02*
X80010000Y-128270000D01*
%TO.N,VRA7*%
X71120000Y-68580000D02*
X78740000Y-76200000D01*
X104140000Y-73660000D02*
X106680000Y-76200000D01*
X78740000Y-76200000D02*
X81280000Y-73660000D01*
X81280000Y-73660000D02*
X104140000Y-73660000D01*
X137160000Y-73660000D02*
X160020000Y-73660000D01*
X134620000Y-76200000D02*
X137160000Y-73660000D01*
X160020000Y-73660000D02*
X162560000Y-76200000D01*
X129540000Y-71120000D02*
X134620000Y-76200000D01*
X111760000Y-71120000D02*
X129540000Y-71120000D01*
X106680000Y-76200000D02*
X111760000Y-71120000D01*
X157480000Y-142240000D02*
X147320000Y-142240000D01*
X172720000Y-127000000D02*
X170180000Y-127000000D01*
X181610000Y-118110000D02*
X172720000Y-127000000D01*
X181610000Y-75565000D02*
X181610000Y-118110000D01*
X178435000Y-72390000D02*
X181610000Y-75565000D01*
X166370000Y-72390000D02*
X178435000Y-72390000D01*
X162560000Y-76200000D02*
X166370000Y-72390000D01*
%TO.N,/Videoprozessor/xA11*%
X93980000Y-167640000D02*
X91440000Y-170180000D01*
X118110000Y-158750000D02*
X109220000Y-167640000D01*
X123190000Y-158750000D02*
X118110000Y-158750000D01*
X109220000Y-167640000D02*
X93980000Y-167640000D01*
X127000000Y-154940000D02*
X123190000Y-158750000D01*
%TO.N,/Videoprozessor/xA12*%
X92710000Y-166370000D02*
X88900000Y-170180000D01*
X107950000Y-166370000D02*
X92710000Y-166370000D01*
X116840000Y-157480000D02*
X107950000Y-166370000D01*
X121920000Y-157480000D02*
X116840000Y-157480000D01*
X124460000Y-154940000D02*
X121920000Y-157480000D01*
%TO.N,/Steuerung Video-RAM/VBD0*%
X104140000Y-109220000D02*
X106680000Y-106680000D01*
X111252000Y-113792000D02*
X112268000Y-113792000D01*
X109728000Y-111252000D02*
X109728000Y-112268000D01*
X114808000Y-103632000D02*
X116332000Y-102108000D01*
X108712000Y-110236000D02*
X109728000Y-111252000D01*
X116332000Y-99568000D02*
X119380000Y-96520000D01*
X109728000Y-112268000D02*
X111252000Y-113792000D01*
X116332000Y-102108000D02*
X116332000Y-99568000D01*
X106680000Y-106680000D02*
X108712000Y-108712000D01*
X108712000Y-108712000D02*
X108712000Y-110236000D01*
X114808000Y-111252000D02*
X114808000Y-103632000D01*
X112268000Y-113792000D02*
X114808000Y-111252000D01*
%TO.N,/Steuerung Video-RAM/VBD7*%
X111760000Y-101600000D02*
X109220000Y-101600000D01*
X109220000Y-101600000D02*
X106680000Y-104140000D01*
X104140000Y-106680000D02*
X106680000Y-104140000D01*
%TO.N,/Steuerung Video-RAM/VBD2*%
X104140000Y-111760000D02*
X106680000Y-109220000D01*
X117348000Y-102616000D02*
X117348000Y-101092000D01*
X106680000Y-109728000D02*
X108712000Y-111760000D01*
X115824000Y-111506000D02*
X115824000Y-104140000D01*
X106680000Y-109220000D02*
X106680000Y-109728000D01*
X110744000Y-114808000D02*
X112522000Y-114808000D01*
X108712000Y-111760000D02*
X108712000Y-112776000D01*
X112522000Y-114808000D02*
X115824000Y-111506000D01*
X108712000Y-112776000D02*
X110744000Y-114808000D01*
X115824000Y-104140000D02*
X117348000Y-102616000D01*
X117348000Y-101092000D02*
X119380000Y-99060000D01*
%TO.N,/Steuerung Video-RAM/VBD5*%
X109220000Y-99060000D02*
X106680000Y-101600000D01*
X111760000Y-99060000D02*
X109220000Y-99060000D01*
X104140000Y-104140000D02*
X106680000Y-101600000D01*
%TO.N,/Steuerung Video-RAM/VBD4*%
X104140000Y-114300000D02*
X106680000Y-111760000D01*
X112903000Y-115824000D02*
X116840000Y-111887000D01*
X110236000Y-115824000D02*
X112903000Y-115824000D01*
X116840000Y-111887000D02*
X116840000Y-104648000D01*
X119380000Y-102108000D02*
X119380000Y-101600000D01*
X106680000Y-111760000D02*
X106680000Y-112268000D01*
X106680000Y-112268000D02*
X110236000Y-115824000D01*
X116840000Y-104648000D02*
X119380000Y-102108000D01*
%TO.N,/Steuerung Video-RAM/VBD3*%
X109220000Y-96520000D02*
X106680000Y-99060000D01*
X111760000Y-96520000D02*
X109220000Y-96520000D01*
X104140000Y-101600000D02*
X106680000Y-99060000D01*
%TO.N,/Steuerung Video-RAM/VBD6*%
X104140000Y-116840000D02*
X106680000Y-114300000D01*
X117856000Y-112268000D02*
X113284000Y-116840000D01*
X119380000Y-104140000D02*
X117856000Y-105664000D01*
X109220000Y-116840000D02*
X106680000Y-114300000D01*
X113284000Y-116840000D02*
X109220000Y-116840000D01*
X117856000Y-105664000D02*
X117856000Y-112268000D01*
%TO.N,/Steuerung Video-RAM/VBD1*%
X111760000Y-93980000D02*
X109220000Y-93980000D01*
X109220000Y-93980000D02*
X106680000Y-96520000D01*
X104140000Y-99060000D02*
X106680000Y-96520000D01*
%TO.N,~SR*%
X153670000Y-134620000D02*
X162560000Y-134620000D01*
X149860000Y-138430000D02*
X153670000Y-134620000D01*
X115570000Y-138430000D02*
X149860000Y-138430000D01*
X114300000Y-139700000D02*
X115570000Y-138430000D01*
%TO.N,~EB*%
X101600000Y-99060000D02*
X104140000Y-96520000D01*
X99060000Y-121920000D02*
X101600000Y-119380000D01*
X101600000Y-119380000D02*
X101600000Y-99060000D01*
X88900000Y-154940000D02*
X91440000Y-157480000D01*
X86360000Y-154940000D02*
X88900000Y-154940000D01*
X85090000Y-156210000D02*
X86360000Y-154940000D01*
X74930000Y-156210000D02*
X85090000Y-156210000D01*
X73660000Y-154940000D02*
X74930000Y-156210000D01*
%TO.N,~SB*%
X104140000Y-134620000D02*
X106680000Y-134620000D01*
%TO.N,~SV*%
X91440000Y-134620000D02*
X78740000Y-134620000D01*
%TO.N,~EV*%
X74295000Y-118745000D02*
X73660000Y-119380000D01*
X74295000Y-98425000D02*
X74295000Y-118745000D01*
X76200000Y-96520000D02*
X74295000Y-98425000D01*
X73660000Y-152400000D02*
X76200000Y-152400000D01*
X76200000Y-152400000D02*
X78740000Y-154940000D01*
X78740000Y-154940000D02*
X83820000Y-154940000D01*
X83820000Y-154940000D02*
X85090000Y-153670000D01*
X85090000Y-153670000D02*
X90170000Y-153670000D01*
X90170000Y-153670000D02*
X93980000Y-157480000D01*
X93980000Y-157480000D02*
X96520000Y-157480000D01*
X96520000Y-157480000D02*
X99060000Y-154940000D01*
X78740000Y-139700000D02*
X76200000Y-137160000D01*
X96720000Y-139700000D02*
X78740000Y-139700000D01*
%TO.N,~SG*%
X114300000Y-134620000D02*
X134620000Y-134620000D01*
%TO.N,~CS2*%
X73152000Y-144780000D02*
X78740000Y-144780000D01*
X71120000Y-146812000D02*
X73152000Y-144780000D01*
X68072000Y-146812000D02*
X71120000Y-146812000D01*
X66040000Y-144780000D02*
X68072000Y-146812000D01*
X63500000Y-134620000D02*
X66040000Y-137160000D01*
X63500000Y-124460000D02*
X63500000Y-134620000D01*
X66040000Y-137160000D02*
X66040000Y-144780000D01*
X60960000Y-121920000D02*
X63500000Y-124460000D01*
X96520000Y-154940000D02*
X93980000Y-152400000D01*
X93980000Y-152400000D02*
X78740000Y-152400000D01*
X65024000Y-117856000D02*
X60960000Y-121920000D01*
X66548000Y-117856000D02*
X65024000Y-117856000D01*
X67056000Y-118364000D02*
X66548000Y-117856000D01*
X69596000Y-118364000D02*
X67056000Y-118364000D01*
X70485000Y-93345000D02*
X70485000Y-117475000D01*
X66040000Y-88900000D02*
X70485000Y-93345000D01*
X70485000Y-117475000D02*
X69596000Y-118364000D01*
X66040000Y-66040000D02*
X66040000Y-88900000D01*
X63500000Y-63500000D02*
X66040000Y-66040000D01*
X78740000Y-165100000D02*
X76200000Y-167640000D01*
X76200000Y-167640000D02*
X76200000Y-177800000D01*
X76200000Y-177800000D02*
X73660000Y-180340000D01*
X50800000Y-180340000D02*
X48260000Y-180340000D01*
X63500000Y-180340000D02*
X66040000Y-177800000D01*
X60452000Y-180340000D02*
X63500000Y-180340000D01*
X58928000Y-178816000D02*
X60452000Y-180340000D01*
X57404000Y-178816000D02*
X58928000Y-178816000D01*
X55880000Y-180340000D02*
X57404000Y-178816000D01*
X50800000Y-180340000D02*
X55880000Y-180340000D01*
%TO.N,/Steuerung Video-RAM/VVD0*%
X76200000Y-109220000D02*
X78740000Y-106680000D01*
X84328000Y-113792000D02*
X86868000Y-111252000D01*
X83312000Y-113792000D02*
X84328000Y-113792000D01*
X81788000Y-112268000D02*
X83312000Y-113792000D01*
X81788000Y-111252000D02*
X81788000Y-112268000D01*
X87884000Y-100076000D02*
X91440000Y-96520000D01*
X86868000Y-111252000D02*
X86868000Y-103632000D01*
X80772000Y-110236000D02*
X81788000Y-111252000D01*
X80772000Y-108712000D02*
X80772000Y-110236000D01*
X87884000Y-102616000D02*
X87884000Y-100076000D01*
X86868000Y-103632000D02*
X87884000Y-102616000D01*
X78740000Y-106680000D02*
X80772000Y-108712000D01*
%TO.N,/Steuerung Video-RAM/VVD7*%
X76200000Y-106680000D02*
X78740000Y-104140000D01*
X81280000Y-101600000D02*
X78740000Y-104140000D01*
X83820000Y-101600000D02*
X81280000Y-101600000D01*
%TO.N,/Steuerung Video-RAM/VVD2*%
X76200000Y-111760000D02*
X78740000Y-109220000D01*
X88900000Y-101600000D02*
X91440000Y-99060000D01*
X88900000Y-103124000D02*
X88900000Y-101600000D01*
X87884000Y-104140000D02*
X88900000Y-103124000D01*
X87884000Y-111506000D02*
X87884000Y-104140000D01*
X84582000Y-114808000D02*
X87884000Y-111506000D01*
X82804000Y-114808000D02*
X84582000Y-114808000D01*
X80772000Y-111760000D02*
X80772000Y-112776000D01*
X80772000Y-112776000D02*
X82804000Y-114808000D01*
X78740000Y-109728000D02*
X80772000Y-111760000D01*
X78740000Y-109220000D02*
X78740000Y-109728000D01*
%TO.N,/Steuerung Video-RAM/VVD5*%
X76200000Y-104140000D02*
X78740000Y-101600000D01*
X81280000Y-99060000D02*
X78740000Y-101600000D01*
X83820000Y-99060000D02*
X81280000Y-99060000D01*
%TO.N,/Steuerung Video-RAM/VVD4*%
X76200000Y-114300000D02*
X78740000Y-111760000D01*
X91440000Y-102108000D02*
X91440000Y-101600000D01*
X78740000Y-111760000D02*
X78740000Y-112268000D01*
X84963000Y-115824000D02*
X88900000Y-111887000D01*
X88900000Y-104648000D02*
X91440000Y-102108000D01*
X78740000Y-112268000D02*
X82296000Y-115824000D01*
X82296000Y-115824000D02*
X84963000Y-115824000D01*
X88900000Y-111887000D02*
X88900000Y-104648000D01*
%TO.N,/Steuerung Video-RAM/VVD3*%
X76200000Y-101600000D02*
X78740000Y-99060000D01*
X81280000Y-96520000D02*
X78740000Y-99060000D01*
X83820000Y-96520000D02*
X81280000Y-96520000D01*
%TO.N,/Steuerung Video-RAM/VVD6*%
X76200000Y-116840000D02*
X78740000Y-114300000D01*
X85344000Y-116840000D02*
X81280000Y-116840000D01*
X91440000Y-104140000D02*
X89916000Y-105664000D01*
X89916000Y-105664000D02*
X89916000Y-112268000D01*
X81280000Y-116840000D02*
X78740000Y-114300000D01*
X89916000Y-112268000D02*
X85344000Y-116840000D01*
%TO.N,/Steuerung Video-RAM/VVD1*%
X76200000Y-99060000D02*
X78740000Y-96520000D01*
X81280000Y-93980000D02*
X78740000Y-96520000D01*
X83820000Y-93980000D02*
X81280000Y-93980000D01*
%TO.N,Net-(D13-Pad40)*%
X78740000Y-170180000D02*
X78740000Y-167640000D01*
%TO.N,~SYN*%
X157480000Y-139700000D02*
X121920000Y-139700000D01*
X160020000Y-142240000D02*
X157480000Y-139700000D01*
X176530000Y-142240000D02*
X160020000Y-142240000D01*
X180340000Y-146050000D02*
X176530000Y-142240000D01*
X128270000Y-118110000D02*
X127000000Y-119380000D01*
X124460000Y-90932000D02*
X128270000Y-94742000D01*
X124460000Y-86360000D02*
X124460000Y-90932000D01*
X128270000Y-94742000D02*
X128270000Y-118110000D01*
X121920000Y-83820000D02*
X124460000Y-86360000D01*
X101600000Y-187960000D02*
X101600000Y-185420000D01*
X104140000Y-190500000D02*
X101600000Y-187960000D01*
%TO.N,/Videoprozessor/~VRT*%
X76200000Y-205740000D02*
X86360000Y-205740000D01*
X76200000Y-205740000D02*
X73660000Y-205740000D01*
X71120000Y-205740000D02*
X73660000Y-205740000D01*
X86360000Y-198120000D02*
X93345000Y-191135000D01*
X93345000Y-187325000D02*
X91440000Y-185420000D01*
X93345000Y-191135000D02*
X93345000Y-187325000D01*
X86360000Y-205740000D02*
X86360000Y-198120000D01*
X71120000Y-205740000D02*
X68580000Y-205740000D01*
%TO.N,/Videoprozessor/VP3.7*%
X88900000Y-200660000D02*
X88900000Y-198120000D01*
X93980000Y-205740000D02*
X88900000Y-200660000D01*
%TO.N,Net-(D13-Pad3)*%
X90170000Y-190500000D02*
X91240000Y-190500000D01*
X88900000Y-190500000D02*
X90170000Y-190500000D01*
X83820000Y-185420000D02*
X88900000Y-190500000D01*
%TO.N,~CS2_delay*%
X72136000Y-120904000D02*
X68580000Y-124460000D01*
X72136000Y-118872000D02*
X72136000Y-120904000D01*
X73025000Y-93345000D02*
X73025000Y-117983000D01*
X68580000Y-88900000D02*
X73025000Y-93345000D01*
X68580000Y-68580000D02*
X68580000Y-88900000D01*
X73025000Y-117983000D02*
X72136000Y-118872000D01*
X71120000Y-66040000D02*
X68580000Y-68580000D01*
X73660000Y-187960000D02*
X80010000Y-181610000D01*
X80010000Y-181610000D02*
X83820000Y-177800000D01*
X83820000Y-177800000D02*
X83820000Y-170180000D01*
%TO.N,/Videoprozessor/A0*%
X48260000Y-96520000D02*
X50800000Y-96520000D01*
X50800000Y-96520000D02*
X63500000Y-83820000D01*
%TO.N,/Videoprozessor/A1*%
X48260000Y-93980000D02*
X50800000Y-93980000D01*
X50800000Y-93980000D02*
X63500000Y-81280000D01*
%TO.N,/Videoprozessor/A2*%
X48260000Y-91440000D02*
X50800000Y-91440000D01*
X50800000Y-91440000D02*
X63500000Y-78740000D01*
%TO.N,/Videoprozessor/A3*%
X48260000Y-88900000D02*
X50800000Y-88900000D01*
X50800000Y-88900000D02*
X63500000Y-76200000D01*
%TO.N,/Videoprozessor/A4*%
X48260000Y-86360000D02*
X50800000Y-86360000D01*
X50800000Y-86360000D02*
X63500000Y-73660000D01*
X53340000Y-139700000D02*
X50800000Y-139700000D01*
X66040000Y-152400000D02*
X53340000Y-139700000D01*
%TO.N,/Videoprozessor/A5*%
X48260000Y-83820000D02*
X50800000Y-83820000D01*
X50800000Y-83820000D02*
X63500000Y-71120000D01*
X66040000Y-154940000D02*
X53340000Y-142240000D01*
X53340000Y-142240000D02*
X50800000Y-142240000D01*
%TO.N,/Videoprozessor/A6*%
X48260000Y-81280000D02*
X50800000Y-81280000D01*
X50800000Y-81280000D02*
X63500000Y-68580000D01*
X66040000Y-157480000D02*
X53340000Y-144780000D01*
X53340000Y-144780000D02*
X50800000Y-144780000D01*
%TO.N,/Videoprozessor/A7*%
X48260000Y-78740000D02*
X50800000Y-78740000D01*
X50800000Y-78740000D02*
X63500000Y-66040000D01*
X66040000Y-160020000D02*
X53340000Y-147320000D01*
X53340000Y-147320000D02*
X50800000Y-147320000D01*
%TO.N,/Videoprozessor/A8*%
X55880000Y-129540000D02*
X60960000Y-134620000D01*
X48260000Y-129540000D02*
X55880000Y-129540000D01*
%TO.N,/Videoprozessor/A9*%
X55880000Y-127000000D02*
X60960000Y-132080000D01*
X48260000Y-127000000D02*
X55880000Y-127000000D01*
%TO.N,/Videoprozessor/A10*%
X55880000Y-124460000D02*
X60960000Y-129540000D01*
X48260000Y-124460000D02*
X55880000Y-124460000D01*
%TO.N,/Videoprozessor/A11*%
X55880000Y-121920000D02*
X60960000Y-127000000D01*
X48260000Y-121920000D02*
X55880000Y-121920000D01*
%TO.N,/Videoprozessor/A12*%
X55880000Y-119380000D02*
X60960000Y-124460000D01*
X48260000Y-119380000D02*
X55880000Y-119380000D01*
%TO.N,/Videoprozessor/6000h-63FFh*%
X71120000Y-162560000D02*
X73660000Y-162560000D01*
X66040000Y-167640000D02*
X71120000Y-162560000D01*
X64770000Y-167640000D02*
X66040000Y-167640000D01*
X63500000Y-162560000D02*
X63500000Y-166370000D01*
X63500000Y-166370000D02*
X64770000Y-167640000D01*
X58420000Y-157480000D02*
X63500000Y-162560000D01*
%TO.N,RT*%
X71755000Y-117729000D02*
X70104000Y-119380000D01*
X71755000Y-93345000D02*
X71755000Y-117729000D01*
X67310000Y-88900000D02*
X71755000Y-93345000D01*
X67310000Y-63500000D02*
X67310000Y-88900000D01*
X64770000Y-60960000D02*
X67310000Y-63500000D01*
X70104000Y-119380000D02*
X66040000Y-119380000D01*
X63500000Y-60960000D02*
X64770000Y-60960000D01*
X57785000Y-66675000D02*
X63500000Y-60960000D01*
X57150000Y-67945000D02*
X57785000Y-67310000D01*
X57785000Y-67310000D02*
X57785000Y-66675000D01*
X56515000Y-67945000D02*
X57150000Y-67945000D01*
X50800000Y-73660000D02*
X56515000Y-67945000D01*
X48260000Y-73660000D02*
X50800000Y-73660000D01*
X60960000Y-187960000D02*
X66040000Y-182880000D01*
X60960000Y-195580000D02*
X60960000Y-187960000D01*
%TO.N,Net-(D19-Pad4)*%
X68580000Y-172212000D02*
X68580000Y-167640000D01*
X67818000Y-178562000D02*
X67818000Y-172974000D01*
X67818000Y-172974000D02*
X68580000Y-172212000D01*
X66040000Y-180340000D02*
X67818000Y-178562000D01*
%TO.N,Net-(D19-Pad1)*%
X60325000Y-177165000D02*
X58420000Y-175260000D01*
X61595000Y-177165000D02*
X60325000Y-177165000D01*
X62865000Y-170815000D02*
X62865000Y-175895000D01*
X64770000Y-168910000D02*
X62865000Y-170815000D01*
X66357500Y-168910000D02*
X64770000Y-168910000D01*
X67310000Y-169862500D02*
X66357500Y-168910000D01*
X62865000Y-175895000D02*
X61595000Y-177165000D01*
X67310000Y-171450000D02*
X67310000Y-169862500D01*
X58420000Y-175260000D02*
X48260000Y-175260000D01*
X66040000Y-172720000D02*
X67310000Y-171450000D01*
%TO.N,/Videoprozessor/7C00h-7FFFh*%
X50800000Y-170180000D02*
X48260000Y-167640000D01*
%TO.N,/Videoprozessor/6400h-67FFh*%
X60960000Y-162560000D02*
X58420000Y-160020000D01*
%TO.N,/Videoprozessor/6800h-6BFFh*%
X60960000Y-165100000D02*
X58420000Y-162560000D01*
%TO.N,~CS3*%
X50800000Y-162560000D02*
X50800000Y-165100000D01*
X48260000Y-160020000D02*
X50800000Y-162560000D01*
X48260000Y-139700000D02*
X48260000Y-160020000D01*
X46736000Y-138176000D02*
X48260000Y-139700000D01*
X46736000Y-136144000D02*
X46736000Y-138176000D01*
X48260000Y-134620000D02*
X46736000Y-136144000D01*
%TO.N,/Videoprozessor/6C00h-6FFFh*%
X60960000Y-167640000D02*
X58420000Y-165100000D01*
%TO.N,/Videoprozessor/7000h-73FFh*%
X60960000Y-170180000D02*
X58420000Y-167640000D01*
%TO.N,/Videoprozessor/7400h-77FFh*%
X60960000Y-172720000D02*
X58420000Y-170180000D01*
%TO.N,/Videoprozessor/7800h-7BFFh*%
X60960000Y-175260000D02*
X58420000Y-172720000D01*
%TO.N,R~W*%
X45720000Y-134620000D02*
X48260000Y-132080000D01*
X45720000Y-180340000D02*
X45720000Y-134620000D01*
X48260000Y-182880000D02*
X45720000Y-180340000D01*
X50800000Y-182880000D02*
X48260000Y-182880000D01*
%TO.N,P3.4*%
X52070000Y-66040000D02*
X48260000Y-66040000D01*
X60960000Y-58420000D02*
X55880000Y-63500000D01*
X76970000Y-58420000D02*
X60960000Y-58420000D01*
X55880000Y-63500000D02*
X55245000Y-64135000D01*
X55245000Y-64135000D02*
X54610000Y-64135000D01*
X54610000Y-64135000D02*
X53975000Y-64770000D01*
X53975000Y-64770000D02*
X53975000Y-65405000D01*
X53975000Y-65405000D02*
X53340000Y-66040000D01*
X53340000Y-66040000D02*
X52070000Y-66040000D01*
%TO.N,Net-(R2-Pad2)*%
X165100000Y-55880000D02*
X167640000Y-55880000D01*
X167640000Y-55880000D02*
X170180000Y-55880000D01*
%TO.N,Net-(R4-Pad1)*%
X167640000Y-58420000D02*
X167640000Y-60960000D01*
%TO.N,Net-(R7-Pad2)*%
X152400000Y-55880000D02*
X154940000Y-55880000D01*
X154940000Y-55880000D02*
X157480000Y-55880000D01*
%TO.N,Net-(R9-Pad1)*%
X154940000Y-60960000D02*
X154940000Y-58420000D01*
%TO.N,Net-(R12-Pad2)*%
X142240000Y-55880000D02*
X144780000Y-55880000D01*
X144780000Y-55880000D02*
X147320000Y-55880000D01*
%TO.N,Net-(R14-Pad1)*%
X144780000Y-58420000D02*
X144780000Y-60960000D01*
%TO.N,Net-(R17-Pad2)*%
X124460000Y-55880000D02*
X127000000Y-55880000D01*
X127000000Y-55880000D02*
X129540000Y-55880000D01*
%TO.N,Net-(R19-Pad1)*%
X127000000Y-58420000D02*
X127000000Y-60960000D01*
%TO.N,Net-(R22-Pad2)*%
X109180000Y-55880000D02*
X109220000Y-55880000D01*
X114300000Y-55880000D02*
X116840000Y-55880000D01*
X116840000Y-55880000D02*
X119380000Y-55880000D01*
X111125000Y-57785000D02*
X112395000Y-57785000D01*
X112395000Y-57785000D02*
X114300000Y-55880000D01*
X109220000Y-55880000D02*
X111125000Y-57785000D01*
%TO.N,Net-(R24-Pad1)*%
X116840000Y-58420000D02*
X116840000Y-60960000D01*
%TO.N,Net-(R26-Pad1)*%
X106680000Y-53340000D02*
X106680000Y-55880000D01*
%TO.N,Net-(R200-Pad1)*%
X83620000Y-193040000D02*
X81280000Y-195380000D01*
X81280000Y-195580000D02*
X78740000Y-198120000D01*
%TO.N,Net-(C1-Pad1)*%
X167640000Y-53340000D02*
X165100000Y-53340000D01*
X165100000Y-53340000D02*
X162560000Y-53340000D01*
X162560000Y-56080000D02*
X160020000Y-58620000D01*
X162560000Y-53340000D02*
X162560000Y-56080000D01*
%TO.N,Net-(C6-Pad1)*%
X154940000Y-53340000D02*
X152400000Y-53340000D01*
X152400000Y-53340000D02*
X149860000Y-53340000D01*
X149860000Y-53340000D02*
X149860000Y-58620000D01*
%TO.N,Net-(C11-Pad1)*%
X144780000Y-53340000D02*
X142240000Y-53340000D01*
X139700000Y-58620000D02*
X139700000Y-53340000D01*
X142240000Y-53340000D02*
X139700000Y-53340000D01*
%TO.N,Net-(C16-Pad1)*%
X127000000Y-53340000D02*
X124460000Y-53340000D01*
D33*
X121920000Y-53340000D02*
X124460000Y-53340000D01*
X121920000Y-60960000D02*
X121920000Y-58420000D01*
X123190000Y-54610000D02*
X124460000Y-53340000D01*
X123190000Y-57150000D02*
X123190000Y-54610000D01*
X121920000Y-58420000D02*
X123190000Y-57150000D01*
%TO.N,Net-(C21-Pad1)*%
X116840000Y-53340000D02*
X114300000Y-53340000D01*
X114300000Y-53340000D02*
X111760000Y-53340000D01*
D34*
X111760000Y-56080000D02*
X111760000Y-53340000D01*
%TD*%
D36*
%TO.N,+5V*%
X93005854Y-66229636D02*
X93150913Y-66307172D01*
X93308311Y-66354918D01*
X93472000Y-66371040D01*
X93513018Y-66367000D01*
X94446982Y-66367000D01*
X94488000Y-66371040D01*
X94529018Y-66367000D01*
X94529019Y-66367000D01*
X94651689Y-66354918D01*
X94809087Y-66307172D01*
X94954146Y-66229636D01*
X95030468Y-66167000D01*
X105195000Y-66167000D01*
X105195000Y-66167002D01*
X105359844Y-66167002D01*
X105238524Y-66396890D01*
X105283175Y-66544099D01*
X105408359Y-66806920D01*
X105582412Y-67040269D01*
X105798645Y-67235178D01*
X105924255Y-67310000D01*
X105798645Y-67384822D01*
X105582412Y-67579731D01*
X105408359Y-67813080D01*
X105283175Y-68075901D01*
X105238524Y-68223110D01*
X105359845Y-68453000D01*
X106553000Y-68453000D01*
X106553000Y-68707000D01*
X105359845Y-68707000D01*
X105238524Y-68936890D01*
X105283175Y-69084099D01*
X105408359Y-69346920D01*
X105582412Y-69580269D01*
X105798645Y-69775178D01*
X105924255Y-69850000D01*
X105798645Y-69924822D01*
X105582412Y-70119731D01*
X105408359Y-70353080D01*
X105283175Y-70615901D01*
X105273367Y-70648236D01*
X104981996Y-70356865D01*
X104946449Y-70313551D01*
X104773623Y-70171716D01*
X104576447Y-70066324D01*
X104362499Y-70001423D01*
X104195752Y-69985000D01*
X104195751Y-69985000D01*
X104140000Y-69979509D01*
X104084249Y-69985000D01*
X81335741Y-69985000D01*
X81279999Y-69979510D01*
X81224257Y-69985000D01*
X81224248Y-69985000D01*
X81057501Y-70001423D01*
X80843553Y-70066324D01*
X80646377Y-70171716D01*
X80473551Y-70313551D01*
X80438009Y-70356859D01*
X80146633Y-70648236D01*
X80136825Y-70615901D01*
X80011641Y-70353080D01*
X79837588Y-70119731D01*
X79621355Y-69924822D01*
X79495745Y-69850000D01*
X79621355Y-69775178D01*
X79837588Y-69580269D01*
X80011641Y-69346920D01*
X80136825Y-69084099D01*
X80181476Y-68936890D01*
X80060155Y-68707000D01*
X78867000Y-68707000D01*
X78867000Y-68453000D01*
X80060155Y-68453000D01*
X80181476Y-68223110D01*
X80136825Y-68075901D01*
X80011641Y-67813080D01*
X79837588Y-67579731D01*
X79621355Y-67384822D01*
X79495745Y-67310000D01*
X79621355Y-67235178D01*
X79837588Y-67040269D01*
X80011641Y-66806920D01*
X80136825Y-66544099D01*
X80181476Y-66396890D01*
X80060156Y-66167002D01*
X80225000Y-66167002D01*
X80225000Y-66167000D01*
X92929531Y-66167000D01*
X93005854Y-66229636D01*
%TA.AperFunction,Conductor*%
D37*
G36*
X93005854Y-66229636D02*
G01*
X93150913Y-66307172D01*
X93308311Y-66354918D01*
X93472000Y-66371040D01*
X93513018Y-66367000D01*
X94446982Y-66367000D01*
X94488000Y-66371040D01*
X94529018Y-66367000D01*
X94529019Y-66367000D01*
X94651689Y-66354918D01*
X94809087Y-66307172D01*
X94954146Y-66229636D01*
X95030468Y-66167000D01*
X105195000Y-66167000D01*
X105195000Y-66167002D01*
X105359844Y-66167002D01*
X105238524Y-66396890D01*
X105283175Y-66544099D01*
X105408359Y-66806920D01*
X105582412Y-67040269D01*
X105798645Y-67235178D01*
X105924255Y-67310000D01*
X105798645Y-67384822D01*
X105582412Y-67579731D01*
X105408359Y-67813080D01*
X105283175Y-68075901D01*
X105238524Y-68223110D01*
X105359845Y-68453000D01*
X106553000Y-68453000D01*
X106553000Y-68707000D01*
X105359845Y-68707000D01*
X105238524Y-68936890D01*
X105283175Y-69084099D01*
X105408359Y-69346920D01*
X105582412Y-69580269D01*
X105798645Y-69775178D01*
X105924255Y-69850000D01*
X105798645Y-69924822D01*
X105582412Y-70119731D01*
X105408359Y-70353080D01*
X105283175Y-70615901D01*
X105273367Y-70648236D01*
X104981996Y-70356865D01*
X104946449Y-70313551D01*
X104773623Y-70171716D01*
X104576447Y-70066324D01*
X104362499Y-70001423D01*
X104195752Y-69985000D01*
X104195751Y-69985000D01*
X104140000Y-69979509D01*
X104084249Y-69985000D01*
X81335741Y-69985000D01*
X81279999Y-69979510D01*
X81224257Y-69985000D01*
X81224248Y-69985000D01*
X81057501Y-70001423D01*
X80843553Y-70066324D01*
X80646377Y-70171716D01*
X80473551Y-70313551D01*
X80438009Y-70356859D01*
X80146633Y-70648236D01*
X80136825Y-70615901D01*
X80011641Y-70353080D01*
X79837588Y-70119731D01*
X79621355Y-69924822D01*
X79495745Y-69850000D01*
X79621355Y-69775178D01*
X79837588Y-69580269D01*
X80011641Y-69346920D01*
X80136825Y-69084099D01*
X80181476Y-68936890D01*
X80060155Y-68707000D01*
X78867000Y-68707000D01*
X78867000Y-68453000D01*
X80060155Y-68453000D01*
X80181476Y-68223110D01*
X80136825Y-68075901D01*
X80011641Y-67813080D01*
X79837588Y-67579731D01*
X79621355Y-67384822D01*
X79495745Y-67310000D01*
X79621355Y-67235178D01*
X79837588Y-67040269D01*
X80011641Y-66806920D01*
X80136825Y-66544099D01*
X80181476Y-66396890D01*
X80060156Y-66167002D01*
X80225000Y-66167002D01*
X80225000Y-66167000D01*
X92929531Y-66167000D01*
X93005854Y-66229636D01*
G37*
%TD.AperFunction*%
%TD*%
D36*
%TO.N,+5V*%
X161075000Y-66167002D02*
X161239844Y-66167002D01*
X161118524Y-66396890D01*
X161163175Y-66544099D01*
X161288359Y-66806920D01*
X161462412Y-67040269D01*
X161678645Y-67235178D01*
X161804255Y-67310000D01*
X161678645Y-67384822D01*
X161462412Y-67579731D01*
X161288359Y-67813080D01*
X161163175Y-68075901D01*
X161118524Y-68223110D01*
X161239845Y-68453000D01*
X162433000Y-68453000D01*
X162433000Y-68707000D01*
X161239845Y-68707000D01*
X161118524Y-68936890D01*
X161163175Y-69084099D01*
X161288359Y-69346920D01*
X161462412Y-69580269D01*
X161678645Y-69775178D01*
X161804255Y-69850000D01*
X161678645Y-69924822D01*
X161462412Y-70119731D01*
X161322819Y-70306880D01*
X161212312Y-70141495D01*
X160998505Y-69927688D01*
X160747095Y-69759701D01*
X160467743Y-69643989D01*
X160171184Y-69585000D01*
X159868816Y-69585000D01*
X159572257Y-69643989D01*
X159292905Y-69759701D01*
X159041495Y-69927688D01*
X158984183Y-69985000D01*
X150895817Y-69985000D01*
X150838505Y-69927688D01*
X150587095Y-69759701D01*
X150307743Y-69643989D01*
X150011184Y-69585000D01*
X149708816Y-69585000D01*
X149412257Y-69643989D01*
X149132905Y-69759701D01*
X148881495Y-69927688D01*
X148824183Y-69985000D01*
X140735817Y-69985000D01*
X140678505Y-69927688D01*
X140427095Y-69759701D01*
X140147743Y-69643989D01*
X139851184Y-69585000D01*
X139548816Y-69585000D01*
X139252257Y-69643989D01*
X138972905Y-69759701D01*
X138721495Y-69927688D01*
X138664183Y-69985000D01*
X137215741Y-69985000D01*
X137159999Y-69979510D01*
X137104257Y-69985000D01*
X137104248Y-69985000D01*
X136937501Y-70001423D01*
X136723553Y-70066324D01*
X136526377Y-70171716D01*
X136353551Y-70313551D01*
X136318009Y-70356859D01*
X136026633Y-70648236D01*
X136016825Y-70615901D01*
X135891641Y-70353080D01*
X135717588Y-70119731D01*
X135501355Y-69924822D01*
X135375745Y-69850000D01*
X135501355Y-69775178D01*
X135717588Y-69580269D01*
X135891641Y-69346920D01*
X136016825Y-69084099D01*
X136061476Y-68936890D01*
X135940155Y-68707000D01*
X134747000Y-68707000D01*
X134747000Y-68453000D01*
X135940155Y-68453000D01*
X136061476Y-68223110D01*
X136016825Y-68075901D01*
X135891641Y-67813080D01*
X135717588Y-67579731D01*
X135501355Y-67384822D01*
X135375745Y-67310000D01*
X135501355Y-67235178D01*
X135717588Y-67040269D01*
X135891641Y-66806920D01*
X136016825Y-66544099D01*
X136061476Y-66396890D01*
X135940156Y-66167002D01*
X136105000Y-66167002D01*
X136105000Y-66167000D01*
X161075000Y-66167000D01*
X161075000Y-66167002D01*
%TA.AperFunction,Conductor*%
D37*
G36*
X161075000Y-66167002D02*
G01*
X161239844Y-66167002D01*
X161118524Y-66396890D01*
X161163175Y-66544099D01*
X161288359Y-66806920D01*
X161462412Y-67040269D01*
X161678645Y-67235178D01*
X161804255Y-67310000D01*
X161678645Y-67384822D01*
X161462412Y-67579731D01*
X161288359Y-67813080D01*
X161163175Y-68075901D01*
X161118524Y-68223110D01*
X161239845Y-68453000D01*
X162433000Y-68453000D01*
X162433000Y-68707000D01*
X161239845Y-68707000D01*
X161118524Y-68936890D01*
X161163175Y-69084099D01*
X161288359Y-69346920D01*
X161462412Y-69580269D01*
X161678645Y-69775178D01*
X161804255Y-69850000D01*
X161678645Y-69924822D01*
X161462412Y-70119731D01*
X161322819Y-70306880D01*
X161212312Y-70141495D01*
X160998505Y-69927688D01*
X160747095Y-69759701D01*
X160467743Y-69643989D01*
X160171184Y-69585000D01*
X159868816Y-69585000D01*
X159572257Y-69643989D01*
X159292905Y-69759701D01*
X159041495Y-69927688D01*
X158984183Y-69985000D01*
X150895817Y-69985000D01*
X150838505Y-69927688D01*
X150587095Y-69759701D01*
X150307743Y-69643989D01*
X150011184Y-69585000D01*
X149708816Y-69585000D01*
X149412257Y-69643989D01*
X149132905Y-69759701D01*
X148881495Y-69927688D01*
X148824183Y-69985000D01*
X140735817Y-69985000D01*
X140678505Y-69927688D01*
X140427095Y-69759701D01*
X140147743Y-69643989D01*
X139851184Y-69585000D01*
X139548816Y-69585000D01*
X139252257Y-69643989D01*
X138972905Y-69759701D01*
X138721495Y-69927688D01*
X138664183Y-69985000D01*
X137215741Y-69985000D01*
X137159999Y-69979510D01*
X137104257Y-69985000D01*
X137104248Y-69985000D01*
X136937501Y-70001423D01*
X136723553Y-70066324D01*
X136526377Y-70171716D01*
X136353551Y-70313551D01*
X136318009Y-70356859D01*
X136026633Y-70648236D01*
X136016825Y-70615901D01*
X135891641Y-70353080D01*
X135717588Y-70119731D01*
X135501355Y-69924822D01*
X135375745Y-69850000D01*
X135501355Y-69775178D01*
X135717588Y-69580269D01*
X135891641Y-69346920D01*
X136016825Y-69084099D01*
X136061476Y-68936890D01*
X135940155Y-68707000D01*
X134747000Y-68707000D01*
X134747000Y-68453000D01*
X135940155Y-68453000D01*
X136061476Y-68223110D01*
X136016825Y-68075901D01*
X135891641Y-67813080D01*
X135717588Y-67579731D01*
X135501355Y-67384822D01*
X135375745Y-67310000D01*
X135501355Y-67235178D01*
X135717588Y-67040269D01*
X135891641Y-66806920D01*
X136016825Y-66544099D01*
X136061476Y-66396890D01*
X135940156Y-66167002D01*
X136105000Y-66167002D01*
X136105000Y-66167000D01*
X161075000Y-66167000D01*
X161075000Y-66167002D01*
G37*
%TD.AperFunction*%
%TD*%
D36*
%TO.N,+5V*%
X133135000Y-66167002D02*
X133299844Y-66167002D01*
X133178524Y-66396890D01*
X133223175Y-66544099D01*
X133348359Y-66806920D01*
X133522412Y-67040269D01*
X133738645Y-67235178D01*
X133864255Y-67310000D01*
X133738645Y-67384822D01*
X133522412Y-67579731D01*
X133348359Y-67813080D01*
X133223175Y-68075901D01*
X133178524Y-68223110D01*
X133299845Y-68453000D01*
X134493000Y-68453000D01*
X134493000Y-68707000D01*
X133299845Y-68707000D01*
X133178524Y-68936890D01*
X133223175Y-69084099D01*
X133348359Y-69346920D01*
X133522412Y-69580269D01*
X133738645Y-69775178D01*
X133864255Y-69850000D01*
X133741490Y-69923127D01*
X130454878Y-66167000D01*
X133135000Y-66167000D01*
X133135000Y-66167002D01*
%TA.AperFunction,Conductor*%
D37*
G36*
X133135000Y-66167002D02*
G01*
X133299844Y-66167002D01*
X133178524Y-66396890D01*
X133223175Y-66544099D01*
X133348359Y-66806920D01*
X133522412Y-67040269D01*
X133738645Y-67235178D01*
X133864255Y-67310000D01*
X133738645Y-67384822D01*
X133522412Y-67579731D01*
X133348359Y-67813080D01*
X133223175Y-68075901D01*
X133178524Y-68223110D01*
X133299845Y-68453000D01*
X134493000Y-68453000D01*
X134493000Y-68707000D01*
X133299845Y-68707000D01*
X133178524Y-68936890D01*
X133223175Y-69084099D01*
X133348359Y-69346920D01*
X133522412Y-69580269D01*
X133738645Y-69775178D01*
X133864255Y-69850000D01*
X133741490Y-69923127D01*
X130454878Y-66167000D01*
X133135000Y-66167000D01*
X133135000Y-66167002D01*
G37*
%TD.AperFunction*%
%TD*%
D36*
%TO.N,+5V*%
X107631944Y-69988450D02*
X107561355Y-69924822D01*
X107435745Y-69850000D01*
X107561355Y-69775178D01*
X107777588Y-69580269D01*
X107951641Y-69346920D01*
X108076825Y-69084099D01*
X108121476Y-68936890D01*
X108000155Y-68707000D01*
X106807000Y-68707000D01*
X106807000Y-68453000D01*
X108000155Y-68453000D01*
X108121476Y-68223110D01*
X108076825Y-68075901D01*
X107951641Y-67813080D01*
X107777588Y-67579731D01*
X107561355Y-67384822D01*
X107435745Y-67310000D01*
X107561355Y-67235178D01*
X107777588Y-67040269D01*
X107951641Y-66806920D01*
X108076825Y-66544099D01*
X108121476Y-66396890D01*
X108000156Y-66167002D01*
X108165000Y-66167002D01*
X108165000Y-66167000D01*
X111453394Y-66167000D01*
X107631944Y-69988450D01*
%TA.AperFunction,Conductor*%
D37*
G36*
X107631944Y-69988450D02*
G01*
X107561355Y-69924822D01*
X107435745Y-69850000D01*
X107561355Y-69775178D01*
X107777588Y-69580269D01*
X107951641Y-69346920D01*
X108076825Y-69084099D01*
X108121476Y-68936890D01*
X108000155Y-68707000D01*
X106807000Y-68707000D01*
X106807000Y-68453000D01*
X108000155Y-68453000D01*
X108121476Y-68223110D01*
X108076825Y-68075901D01*
X107951641Y-67813080D01*
X107777588Y-67579731D01*
X107561355Y-67384822D01*
X107435745Y-67310000D01*
X107561355Y-67235178D01*
X107777588Y-67040269D01*
X107951641Y-66806920D01*
X108076825Y-66544099D01*
X108121476Y-66396890D01*
X108000156Y-66167002D01*
X108165000Y-66167002D01*
X108165000Y-66167000D01*
X111453394Y-66167000D01*
X107631944Y-69988450D01*
G37*
%TD.AperFunction*%
%TD*%
D36*
%TO.N,+5V*%
X178150129Y-151258788D02*
X178416291Y-151163604D01*
X178658770Y-151018323D01*
X178868247Y-150828528D01*
X179036671Y-150601513D01*
X179157571Y-150346002D01*
X179198788Y-150210129D01*
X179076893Y-149987000D01*
X179286131Y-149987000D01*
X179505001Y-150205870D01*
X179505000Y-195234132D01*
X178016132Y-196723000D01*
X175387000Y-196723000D01*
X175387000Y-194032702D01*
X176986903Y-194032702D01*
X177058486Y-194276671D01*
X177313996Y-194397571D01*
X177588184Y-194466300D01*
X177870512Y-194480217D01*
X178150130Y-194438787D01*
X178416292Y-194343603D01*
X178541514Y-194276671D01*
X178613097Y-194032702D01*
X177800000Y-193219605D01*
X176986903Y-194032702D01*
X175387000Y-194032702D01*
X175387000Y-193110512D01*
X176359783Y-193110512D01*
X176401213Y-193390130D01*
X176496397Y-193656292D01*
X176563329Y-193781514D01*
X176807298Y-193853097D01*
X177620395Y-193040000D01*
X177979605Y-193040000D01*
X178792702Y-193853097D01*
X179036671Y-193781514D01*
X179157571Y-193526004D01*
X179226300Y-193251816D01*
X179240217Y-192969488D01*
X179198787Y-192689870D01*
X179103603Y-192423708D01*
X179036671Y-192298486D01*
X178792702Y-192226903D01*
X177979605Y-193040000D01*
X177620395Y-193040000D01*
X176807298Y-192226903D01*
X176563329Y-192298486D01*
X176442429Y-192553996D01*
X176373700Y-192828184D01*
X176359783Y-193110512D01*
X175387000Y-193110512D01*
X175387000Y-192047298D01*
X176986903Y-192047298D01*
X177800000Y-192860395D01*
X178613097Y-192047298D01*
X178541514Y-191803329D01*
X178286004Y-191682429D01*
X178011816Y-191613700D01*
X177729488Y-191599783D01*
X177449870Y-191641213D01*
X177183708Y-191736397D01*
X177058486Y-191803329D01*
X176986903Y-192047298D01*
X175387000Y-192047298D01*
X175387000Y-186412702D01*
X176986903Y-186412702D01*
X177058486Y-186656671D01*
X177313996Y-186777571D01*
X177588184Y-186846300D01*
X177870512Y-186860217D01*
X178150130Y-186818787D01*
X178416292Y-186723603D01*
X178541514Y-186656671D01*
X178613097Y-186412702D01*
X177800000Y-185599605D01*
X176986903Y-186412702D01*
X175387000Y-186412702D01*
X175387000Y-185490512D01*
X176359783Y-185490512D01*
X176401213Y-185770130D01*
X176496397Y-186036292D01*
X176563329Y-186161514D01*
X176807298Y-186233097D01*
X177620395Y-185420000D01*
X177979605Y-185420000D01*
X178792702Y-186233097D01*
X179036671Y-186161514D01*
X179157571Y-185906004D01*
X179226300Y-185631816D01*
X179240217Y-185349488D01*
X179198787Y-185069870D01*
X179103603Y-184803708D01*
X179036671Y-184678486D01*
X178792702Y-184606903D01*
X177979605Y-185420000D01*
X177620395Y-185420000D01*
X176807298Y-184606903D01*
X176563329Y-184678486D01*
X176442429Y-184933996D01*
X176373700Y-185208184D01*
X176359783Y-185490512D01*
X175387000Y-185490512D01*
X175387000Y-184427298D01*
X176986903Y-184427298D01*
X177800000Y-185240395D01*
X178613097Y-184427298D01*
X178541514Y-184183329D01*
X178286004Y-184062429D01*
X178011816Y-183993700D01*
X177729488Y-183979783D01*
X177449870Y-184021213D01*
X177183708Y-184116397D01*
X177058486Y-184183329D01*
X176986903Y-184427298D01*
X175387000Y-184427298D01*
X175387000Y-170815000D01*
X175384560Y-170790224D01*
X175377333Y-170766399D01*
X175365597Y-170744443D01*
X175353320Y-170728858D01*
X168698131Y-163519070D01*
X168792385Y-163415131D01*
X168937070Y-163173881D01*
X169031909Y-162909040D01*
X168910624Y-162687000D01*
X167930066Y-162687000D01*
X167816085Y-162563521D01*
X167946606Y-162433000D01*
X168910624Y-162433000D01*
X169031909Y-162210960D01*
X168937070Y-161946119D01*
X168792385Y-161704869D01*
X168736435Y-161643171D01*
X177254803Y-153124803D01*
X177270597Y-153105557D01*
X177282333Y-153083601D01*
X177289560Y-153059776D01*
X177292000Y-153035000D01*
X177292000Y-152325323D01*
X177303913Y-152307494D01*
X177412086Y-152046341D01*
X177467233Y-151769102D01*
X177467233Y-151486432D01*
X177420158Y-151249775D01*
X177449871Y-151258788D01*
X177673000Y-151136893D01*
X177673000Y-150166608D01*
X177785859Y-150053749D01*
X177719110Y-149987000D01*
X177927000Y-149987000D01*
X177927000Y-151136893D01*
X178150129Y-151258788D01*
%TA.AperFunction,Conductor*%
D37*
G36*
X178150129Y-151258788D02*
G01*
X178416291Y-151163604D01*
X178658770Y-151018323D01*
X178868247Y-150828528D01*
X179036671Y-150601513D01*
X179157571Y-150346002D01*
X179198788Y-150210129D01*
X179076893Y-149987000D01*
X179286131Y-149987000D01*
X179505001Y-150205870D01*
X179505000Y-195234132D01*
X178016132Y-196723000D01*
X175387000Y-196723000D01*
X175387000Y-194032702D01*
X176986903Y-194032702D01*
X177058486Y-194276671D01*
X177313996Y-194397571D01*
X177588184Y-194466300D01*
X177870512Y-194480217D01*
X178150130Y-194438787D01*
X178416292Y-194343603D01*
X178541514Y-194276671D01*
X178613097Y-194032702D01*
X177800000Y-193219605D01*
X176986903Y-194032702D01*
X175387000Y-194032702D01*
X175387000Y-193110512D01*
X176359783Y-193110512D01*
X176401213Y-193390130D01*
X176496397Y-193656292D01*
X176563329Y-193781514D01*
X176807298Y-193853097D01*
X177620395Y-193040000D01*
X177979605Y-193040000D01*
X178792702Y-193853097D01*
X179036671Y-193781514D01*
X179157571Y-193526004D01*
X179226300Y-193251816D01*
X179240217Y-192969488D01*
X179198787Y-192689870D01*
X179103603Y-192423708D01*
X179036671Y-192298486D01*
X178792702Y-192226903D01*
X177979605Y-193040000D01*
X177620395Y-193040000D01*
X176807298Y-192226903D01*
X176563329Y-192298486D01*
X176442429Y-192553996D01*
X176373700Y-192828184D01*
X176359783Y-193110512D01*
X175387000Y-193110512D01*
X175387000Y-192047298D01*
X176986903Y-192047298D01*
X177800000Y-192860395D01*
X178613097Y-192047298D01*
X178541514Y-191803329D01*
X178286004Y-191682429D01*
X178011816Y-191613700D01*
X177729488Y-191599783D01*
X177449870Y-191641213D01*
X177183708Y-191736397D01*
X177058486Y-191803329D01*
X176986903Y-192047298D01*
X175387000Y-192047298D01*
X175387000Y-186412702D01*
X176986903Y-186412702D01*
X177058486Y-186656671D01*
X177313996Y-186777571D01*
X177588184Y-186846300D01*
X177870512Y-186860217D01*
X178150130Y-186818787D01*
X178416292Y-186723603D01*
X178541514Y-186656671D01*
X178613097Y-186412702D01*
X177800000Y-185599605D01*
X176986903Y-186412702D01*
X175387000Y-186412702D01*
X175387000Y-185490512D01*
X176359783Y-185490512D01*
X176401213Y-185770130D01*
X176496397Y-186036292D01*
X176563329Y-186161514D01*
X176807298Y-186233097D01*
X177620395Y-185420000D01*
X177979605Y-185420000D01*
X178792702Y-186233097D01*
X179036671Y-186161514D01*
X179157571Y-185906004D01*
X179226300Y-185631816D01*
X179240217Y-185349488D01*
X179198787Y-185069870D01*
X179103603Y-184803708D01*
X179036671Y-184678486D01*
X178792702Y-184606903D01*
X177979605Y-185420000D01*
X177620395Y-185420000D01*
X176807298Y-184606903D01*
X176563329Y-184678486D01*
X176442429Y-184933996D01*
X176373700Y-185208184D01*
X176359783Y-185490512D01*
X175387000Y-185490512D01*
X175387000Y-184427298D01*
X176986903Y-184427298D01*
X177800000Y-185240395D01*
X178613097Y-184427298D01*
X178541514Y-184183329D01*
X178286004Y-184062429D01*
X178011816Y-183993700D01*
X177729488Y-183979783D01*
X177449870Y-184021213D01*
X177183708Y-184116397D01*
X177058486Y-184183329D01*
X176986903Y-184427298D01*
X175387000Y-184427298D01*
X175387000Y-170815000D01*
X175384560Y-170790224D01*
X175377333Y-170766399D01*
X175365597Y-170744443D01*
X175353320Y-170728858D01*
X168698131Y-163519070D01*
X168792385Y-163415131D01*
X168937070Y-163173881D01*
X169031909Y-162909040D01*
X168910624Y-162687000D01*
X167930066Y-162687000D01*
X167816085Y-162563521D01*
X167946606Y-162433000D01*
X168910624Y-162433000D01*
X169031909Y-162210960D01*
X168937070Y-161946119D01*
X168792385Y-161704869D01*
X168736435Y-161643171D01*
X177254803Y-153124803D01*
X177270597Y-153105557D01*
X177282333Y-153083601D01*
X177289560Y-153059776D01*
X177292000Y-153035000D01*
X177292000Y-152325323D01*
X177303913Y-152307494D01*
X177412086Y-152046341D01*
X177467233Y-151769102D01*
X177467233Y-151486432D01*
X177420158Y-151249775D01*
X177449871Y-151258788D01*
X177673000Y-151136893D01*
X177673000Y-150166608D01*
X177785859Y-150053749D01*
X177719110Y-149987000D01*
X177927000Y-149987000D01*
X177927000Y-151136893D01*
X178150129Y-151258788D01*
G37*
%TD.AperFunction*%
%TD*%
D36*
%TO.N,GND*%
X172993748Y-185405858D02*
X172979605Y-185420000D01*
X172993748Y-185434143D01*
X172814143Y-185613748D01*
X172800000Y-185599605D01*
X171986903Y-186412702D01*
X172058486Y-186656671D01*
X172313996Y-186777571D01*
X172588184Y-186846300D01*
X172870512Y-186860217D01*
X173150130Y-186818787D01*
X173228000Y-186790939D01*
X173228000Y-191667889D01*
X173011816Y-191613700D01*
X172729488Y-191599783D01*
X172449870Y-191641213D01*
X172183708Y-191736397D01*
X172058486Y-191803329D01*
X171986903Y-192047298D01*
X172800000Y-192860395D01*
X172814143Y-192846253D01*
X172993748Y-193025858D01*
X172979605Y-193040000D01*
X172993748Y-193054143D01*
X172814143Y-193233748D01*
X172800000Y-193219605D01*
X172785858Y-193233748D01*
X172606253Y-193054143D01*
X172620395Y-193040000D01*
X171807298Y-192226903D01*
X171563329Y-192298486D01*
X171442429Y-192553996D01*
X171382537Y-192792931D01*
X170269803Y-191680197D01*
X170250557Y-191664403D01*
X170228601Y-191652667D01*
X170204776Y-191645440D01*
X170180000Y-191643000D01*
X143510000Y-191643000D01*
X143485224Y-191645440D01*
X143461399Y-191652667D01*
X143439443Y-191664403D01*
X143420197Y-191680197D01*
X139192000Y-195908394D01*
X139192000Y-186759471D01*
X139216913Y-186771246D01*
X139350961Y-186811904D01*
X139573000Y-186689915D01*
X139573000Y-185547000D01*
X139647394Y-185547000D01*
X139827000Y-185726606D01*
X139827000Y-186689915D01*
X140049039Y-186811904D01*
X140183087Y-186771246D01*
X140437420Y-186651037D01*
X140617757Y-186517363D01*
X142150197Y-188049803D01*
X142169443Y-188065597D01*
X142191399Y-188077333D01*
X142215224Y-188084560D01*
X142240000Y-188087000D01*
X169545000Y-188087000D01*
X169569776Y-188084560D01*
X169593601Y-188077333D01*
X169615557Y-188065597D01*
X169634803Y-188049803D01*
X171549313Y-186135293D01*
X171563329Y-186161514D01*
X171807298Y-186233097D01*
X172620395Y-185420000D01*
X172606253Y-185405858D01*
X172785858Y-185226253D01*
X172800000Y-185240395D01*
X172814143Y-185226253D01*
X172993748Y-185405858D01*
%TA.AperFunction,Conductor*%
D37*
G36*
X172993748Y-185405858D02*
G01*
X172979605Y-185420000D01*
X172993748Y-185434143D01*
X172814143Y-185613748D01*
X172800000Y-185599605D01*
X171986903Y-186412702D01*
X172058486Y-186656671D01*
X172313996Y-186777571D01*
X172588184Y-186846300D01*
X172870512Y-186860217D01*
X173150130Y-186818787D01*
X173228000Y-186790939D01*
X173228000Y-191667889D01*
X173011816Y-191613700D01*
X172729488Y-191599783D01*
X172449870Y-191641213D01*
X172183708Y-191736397D01*
X172058486Y-191803329D01*
X171986903Y-192047298D01*
X172800000Y-192860395D01*
X172814143Y-192846253D01*
X172993748Y-193025858D01*
X172979605Y-193040000D01*
X172993748Y-193054143D01*
X172814143Y-193233748D01*
X172800000Y-193219605D01*
X172785858Y-193233748D01*
X172606253Y-193054143D01*
X172620395Y-193040000D01*
X171807298Y-192226903D01*
X171563329Y-192298486D01*
X171442429Y-192553996D01*
X171382537Y-192792931D01*
X170269803Y-191680197D01*
X170250557Y-191664403D01*
X170228601Y-191652667D01*
X170204776Y-191645440D01*
X170180000Y-191643000D01*
X143510000Y-191643000D01*
X143485224Y-191645440D01*
X143461399Y-191652667D01*
X143439443Y-191664403D01*
X143420197Y-191680197D01*
X139192000Y-195908394D01*
X139192000Y-186759471D01*
X139216913Y-186771246D01*
X139350961Y-186811904D01*
X139573000Y-186689915D01*
X139573000Y-185547000D01*
X139647394Y-185547000D01*
X139827000Y-185726606D01*
X139827000Y-186689915D01*
X140049039Y-186811904D01*
X140183087Y-186771246D01*
X140437420Y-186651037D01*
X140617757Y-186517363D01*
X142150197Y-188049803D01*
X142169443Y-188065597D01*
X142191399Y-188077333D01*
X142215224Y-188084560D01*
X142240000Y-188087000D01*
X169545000Y-188087000D01*
X169569776Y-188084560D01*
X169593601Y-188077333D01*
X169615557Y-188065597D01*
X169634803Y-188049803D01*
X171549313Y-186135293D01*
X171563329Y-186161514D01*
X171807298Y-186233097D01*
X172620395Y-185420000D01*
X172606253Y-185405858D01*
X172785858Y-185226253D01*
X172800000Y-185240395D01*
X172814143Y-185226253D01*
X172993748Y-185405858D01*
G37*
%TD.AperFunction*%
%TD*%
D36*
%TO.N,GND*%
X122883394Y-196088000D02*
X113027163Y-196088000D01*
X113037571Y-196066004D01*
X113106300Y-195791816D01*
X113120217Y-195509488D01*
X113078787Y-195229870D01*
X112983603Y-194963708D01*
X112916671Y-194838486D01*
X112672702Y-194766903D01*
X111859605Y-195580000D01*
X111873748Y-195594143D01*
X111694143Y-195773748D01*
X111680000Y-195759605D01*
X111665858Y-195773748D01*
X111486253Y-195594143D01*
X111500395Y-195580000D01*
X110687298Y-194766903D01*
X110535924Y-194811318D01*
X110311904Y-194587298D01*
X110866903Y-194587298D01*
X111680000Y-195400395D01*
X112493097Y-194587298D01*
X112421514Y-194343329D01*
X112166004Y-194222429D01*
X111891816Y-194153700D01*
X111609488Y-194139783D01*
X111329870Y-194181213D01*
X111063708Y-194276397D01*
X110938486Y-194343329D01*
X110866903Y-194587298D01*
X110311904Y-194587298D01*
X103811606Y-188087000D01*
X114882394Y-188087000D01*
X122883394Y-196088000D01*
%TA.AperFunction,Conductor*%
D37*
G36*
X122883394Y-196088000D02*
G01*
X113027163Y-196088000D01*
X113037571Y-196066004D01*
X113106300Y-195791816D01*
X113120217Y-195509488D01*
X113078787Y-195229870D01*
X112983603Y-194963708D01*
X112916671Y-194838486D01*
X112672702Y-194766903D01*
X111859605Y-195580000D01*
X111873748Y-195594143D01*
X111694143Y-195773748D01*
X111680000Y-195759605D01*
X111665858Y-195773748D01*
X111486253Y-195594143D01*
X111500395Y-195580000D01*
X110687298Y-194766903D01*
X110535924Y-194811318D01*
X110311904Y-194587298D01*
X110866903Y-194587298D01*
X111680000Y-195400395D01*
X112493097Y-194587298D01*
X112421514Y-194343329D01*
X112166004Y-194222429D01*
X111891816Y-194153700D01*
X111609488Y-194139783D01*
X111329870Y-194181213D01*
X111063708Y-194276397D01*
X110938486Y-194343329D01*
X110866903Y-194587298D01*
X110311904Y-194587298D01*
X103811606Y-188087000D01*
X114882394Y-188087000D01*
X122883394Y-196088000D01*
G37*
%TD.AperFunction*%
%TD*%
D36*
%TO.N,+5V*%
X107672702Y-196393097D02*
X107885928Y-196330534D01*
X112723394Y-201168000D01*
X109272606Y-201168000D01*
X107439371Y-199334765D01*
X107643414Y-199183519D01*
X107832385Y-198975131D01*
X107977070Y-198733881D01*
X108071909Y-198469040D01*
X107950624Y-198247000D01*
X106807000Y-198247000D01*
X106807000Y-197993000D01*
X107950624Y-197993000D01*
X108071909Y-197770960D01*
X107977070Y-197506119D01*
X107832385Y-197264869D01*
X107643414Y-197056481D01*
X107417420Y-196888963D01*
X107347814Y-196856064D01*
X107421514Y-196816671D01*
X107493097Y-196572702D01*
X106807000Y-195886605D01*
X106807000Y-195707000D01*
X106986605Y-195707000D01*
X107672702Y-196393097D01*
%TA.AperFunction,Conductor*%
D37*
G36*
X107672702Y-196393097D02*
G01*
X107885928Y-196330534D01*
X112723394Y-201168000D01*
X109272606Y-201168000D01*
X107439371Y-199334765D01*
X107643414Y-199183519D01*
X107832385Y-198975131D01*
X107977070Y-198733881D01*
X108071909Y-198469040D01*
X107950624Y-198247000D01*
X106807000Y-198247000D01*
X106807000Y-197993000D01*
X107950624Y-197993000D01*
X108071909Y-197770960D01*
X107977070Y-197506119D01*
X107832385Y-197264869D01*
X107643414Y-197056481D01*
X107417420Y-196888963D01*
X107347814Y-196856064D01*
X107421514Y-196816671D01*
X107493097Y-196572702D01*
X106807000Y-195886605D01*
X106807000Y-195707000D01*
X106986605Y-195707000D01*
X107672702Y-196393097D01*
G37*
%TD.AperFunction*%
%TD*%
D36*
%TO.N,+5V*%
X72520539Y-190845652D02*
X72609866Y-191061308D01*
X72739550Y-191255394D01*
X72904606Y-191420450D01*
X73098692Y-191550134D01*
X73314348Y-191639461D01*
X73543288Y-191685000D01*
X73776712Y-191685000D01*
X74005652Y-191639461D01*
X74221308Y-191550134D01*
X74415394Y-191420450D01*
X74580450Y-191255394D01*
X74710134Y-191061308D01*
X74799461Y-190845652D01*
X74842954Y-190627000D01*
X76708000Y-190627000D01*
X76708000Y-196828473D01*
X76664884Y-196808240D01*
X76400040Y-196742750D01*
X76127508Y-196730188D01*
X75857762Y-196771035D01*
X75601168Y-196863723D01*
X75488137Y-196924140D01*
X75422612Y-197163007D01*
X76200000Y-197940395D01*
X76214143Y-197926253D01*
X76280890Y-197993000D01*
X75893395Y-197993000D01*
X75243007Y-197342612D01*
X75004140Y-197408137D01*
X74888240Y-197655116D01*
X74822750Y-197919960D01*
X74819383Y-197993000D01*
X72551847Y-197993000D01*
X72518787Y-197769870D01*
X72423603Y-197503708D01*
X72356671Y-197378486D01*
X72112702Y-197306903D01*
X71426605Y-197993000D01*
X71039110Y-197993000D01*
X71105858Y-197926253D01*
X71120000Y-197940395D01*
X71933097Y-197127298D01*
X71861514Y-196883329D01*
X71606004Y-196762429D01*
X71331816Y-196693700D01*
X71178534Y-196686144D01*
X71182636Y-196681146D01*
X71260172Y-196536087D01*
X71307918Y-196378689D01*
X71320000Y-196256019D01*
X71320000Y-196256009D01*
X71324039Y-196215001D01*
X71320000Y-196173993D01*
X71320000Y-194986007D01*
X71324039Y-194944999D01*
X71320000Y-194903991D01*
X71320000Y-194903981D01*
X71307918Y-194781311D01*
X71260172Y-194623913D01*
X71233648Y-194574290D01*
X71485907Y-194538397D01*
X71771199Y-194438222D01*
X71920792Y-194358261D01*
X72004475Y-194104080D01*
X71120000Y-193219605D01*
X71105858Y-193233748D01*
X70926253Y-193054143D01*
X70940395Y-193040000D01*
X71299605Y-193040000D01*
X72184080Y-193924475D01*
X72438261Y-193840792D01*
X72569158Y-193568225D01*
X72644365Y-193275358D01*
X72660991Y-192973447D01*
X72618397Y-192674093D01*
X72518222Y-192388801D01*
X72438261Y-192239208D01*
X72184080Y-192155525D01*
X71299605Y-193040000D01*
X70940395Y-193040000D01*
X70926253Y-193025858D01*
X71105858Y-192846253D01*
X71120000Y-192860395D01*
X72004475Y-191975920D01*
X71920792Y-191721739D01*
X71648225Y-191590842D01*
X71355358Y-191515635D01*
X71053447Y-191499009D01*
X70754093Y-191541603D01*
X70612000Y-191591496D01*
X70612000Y-190627000D01*
X72477046Y-190627000D01*
X72520539Y-190845652D01*
%TA.AperFunction,Conductor*%
D37*
G36*
X72520539Y-190845652D02*
G01*
X72609866Y-191061308D01*
X72739550Y-191255394D01*
X72904606Y-191420450D01*
X73098692Y-191550134D01*
X73314348Y-191639461D01*
X73543288Y-191685000D01*
X73776712Y-191685000D01*
X74005652Y-191639461D01*
X74221308Y-191550134D01*
X74415394Y-191420450D01*
X74580450Y-191255394D01*
X74710134Y-191061308D01*
X74799461Y-190845652D01*
X74842954Y-190627000D01*
X76708000Y-190627000D01*
X76708000Y-196828473D01*
X76664884Y-196808240D01*
X76400040Y-196742750D01*
X76127508Y-196730188D01*
X75857762Y-196771035D01*
X75601168Y-196863723D01*
X75488137Y-196924140D01*
X75422612Y-197163007D01*
X76200000Y-197940395D01*
X76214143Y-197926253D01*
X76280890Y-197993000D01*
X75893395Y-197993000D01*
X75243007Y-197342612D01*
X75004140Y-197408137D01*
X74888240Y-197655116D01*
X74822750Y-197919960D01*
X74819383Y-197993000D01*
X72551847Y-197993000D01*
X72518787Y-197769870D01*
X72423603Y-197503708D01*
X72356671Y-197378486D01*
X72112702Y-197306903D01*
X71426605Y-197993000D01*
X71039110Y-197993000D01*
X71105858Y-197926253D01*
X71120000Y-197940395D01*
X71933097Y-197127298D01*
X71861514Y-196883329D01*
X71606004Y-196762429D01*
X71331816Y-196693700D01*
X71178534Y-196686144D01*
X71182636Y-196681146D01*
X71260172Y-196536087D01*
X71307918Y-196378689D01*
X71320000Y-196256019D01*
X71320000Y-196256009D01*
X71324039Y-196215001D01*
X71320000Y-196173993D01*
X71320000Y-194986007D01*
X71324039Y-194944999D01*
X71320000Y-194903991D01*
X71320000Y-194903981D01*
X71307918Y-194781311D01*
X71260172Y-194623913D01*
X71233648Y-194574290D01*
X71485907Y-194538397D01*
X71771199Y-194438222D01*
X71920792Y-194358261D01*
X72004475Y-194104080D01*
X71120000Y-193219605D01*
X71105858Y-193233748D01*
X70926253Y-193054143D01*
X70940395Y-193040000D01*
X71299605Y-193040000D01*
X72184080Y-193924475D01*
X72438261Y-193840792D01*
X72569158Y-193568225D01*
X72644365Y-193275358D01*
X72660991Y-192973447D01*
X72618397Y-192674093D01*
X72518222Y-192388801D01*
X72438261Y-192239208D01*
X72184080Y-192155525D01*
X71299605Y-193040000D01*
X70940395Y-193040000D01*
X70926253Y-193025858D01*
X71105858Y-192846253D01*
X71120000Y-192860395D01*
X72004475Y-191975920D01*
X71920792Y-191721739D01*
X71648225Y-191590842D01*
X71355358Y-191515635D01*
X71053447Y-191499009D01*
X70754093Y-191541603D01*
X70612000Y-191591496D01*
X70612000Y-190627000D01*
X72477046Y-190627000D01*
X72520539Y-190845652D01*
G37*
%TD.AperFunction*%
%TD*%
D36*
%TO.N,+5V*%
X85179971Y-143779577D02*
X85179970Y-143779578D01*
X85295917Y-143895525D01*
X85041739Y-143979208D01*
X84910842Y-144251775D01*
X84835635Y-144544642D01*
X84819009Y-144846553D01*
X84861603Y-145145907D01*
X84961778Y-145431199D01*
X85041739Y-145580792D01*
X85295920Y-145664475D01*
X86180395Y-144780001D01*
X86360000Y-144959606D01*
X85475525Y-145844080D01*
X85559208Y-146098261D01*
X85831775Y-146229158D01*
X86124642Y-146304365D01*
X86426553Y-146320991D01*
X86725907Y-146278397D01*
X87011199Y-146178222D01*
X87160792Y-146098261D01*
X87244475Y-145844083D01*
X87360422Y-145960030D01*
X87360423Y-145960029D01*
X87503000Y-146102606D01*
X87503000Y-147320000D01*
X87505440Y-147344776D01*
X87512667Y-147368601D01*
X87524403Y-147390557D01*
X87540197Y-147409803D01*
X89863394Y-149733000D01*
X82812390Y-149733000D01*
X82778397Y-149494093D01*
X82678222Y-149208801D01*
X82598261Y-149059208D01*
X82344080Y-148975525D01*
X81586605Y-149733000D01*
X80973395Y-149733000D01*
X80215920Y-148975525D01*
X79961739Y-149059208D01*
X79830842Y-149331775D01*
X79755635Y-149624642D01*
X79749668Y-149733000D01*
X79046606Y-149733000D01*
X79983686Y-148795920D01*
X80395525Y-148795920D01*
X81280000Y-149680395D01*
X82164475Y-148795920D01*
X82080792Y-148541739D01*
X81808225Y-148410842D01*
X81704010Y-148384080D01*
X82935525Y-148384080D01*
X83019208Y-148638261D01*
X83291775Y-148769158D01*
X83584642Y-148844365D01*
X83886553Y-148860991D01*
X84185907Y-148818397D01*
X84471199Y-148718222D01*
X84620792Y-148638261D01*
X84704475Y-148384080D01*
X83820000Y-147499605D01*
X82935525Y-148384080D01*
X81704010Y-148384080D01*
X81515358Y-148335635D01*
X81213447Y-148319009D01*
X80914093Y-148361603D01*
X80628801Y-148461778D01*
X80479208Y-148541739D01*
X80395525Y-148795920D01*
X79983686Y-148795920D01*
X81393053Y-147386553D01*
X82279009Y-147386553D01*
X82321603Y-147685907D01*
X82421778Y-147971199D01*
X82501739Y-148120792D01*
X82755920Y-148204475D01*
X83640395Y-147320000D01*
X83999605Y-147320000D01*
X84884080Y-148204475D01*
X85138261Y-148120792D01*
X85269158Y-147848225D01*
X85344365Y-147555358D01*
X85360991Y-147253447D01*
X85318397Y-146954093D01*
X85218222Y-146668801D01*
X85138261Y-146519208D01*
X84884080Y-146435525D01*
X83999605Y-147320000D01*
X83640395Y-147320000D01*
X82755920Y-146435525D01*
X82501739Y-146519208D01*
X82370842Y-146791775D01*
X82295635Y-147084642D01*
X82279009Y-147386553D01*
X81393053Y-147386553D01*
X82523686Y-146255920D01*
X82935525Y-146255920D01*
X83820000Y-147140395D01*
X84704475Y-146255920D01*
X84620792Y-146001739D01*
X84348225Y-145870842D01*
X84055358Y-145795635D01*
X83753447Y-145779009D01*
X83454093Y-145821603D01*
X83168801Y-145921778D01*
X83019208Y-146001739D01*
X82935525Y-146255920D01*
X82523686Y-146255920D01*
X82639803Y-146139803D01*
X82655597Y-146120557D01*
X82667333Y-146098601D01*
X82674560Y-146074776D01*
X82677000Y-146050000D01*
X82677000Y-144145000D01*
X82674560Y-144120224D01*
X82667333Y-144096399D01*
X82655597Y-144074443D01*
X82639803Y-144055197D01*
X80951606Y-142367000D01*
X83767394Y-142367000D01*
X85179971Y-143779577D01*
%TA.AperFunction,Conductor*%
D37*
G36*
X85179971Y-143779577D02*
G01*
X85179970Y-143779578D01*
X85295917Y-143895525D01*
X85041739Y-143979208D01*
X84910842Y-144251775D01*
X84835635Y-144544642D01*
X84819009Y-144846553D01*
X84861603Y-145145907D01*
X84961778Y-145431199D01*
X85041739Y-145580792D01*
X85295920Y-145664475D01*
X86180395Y-144780001D01*
X86360000Y-144959606D01*
X85475525Y-145844080D01*
X85559208Y-146098261D01*
X85831775Y-146229158D01*
X86124642Y-146304365D01*
X86426553Y-146320991D01*
X86725907Y-146278397D01*
X87011199Y-146178222D01*
X87160792Y-146098261D01*
X87244475Y-145844083D01*
X87360422Y-145960030D01*
X87360423Y-145960029D01*
X87503000Y-146102606D01*
X87503000Y-147320000D01*
X87505440Y-147344776D01*
X87512667Y-147368601D01*
X87524403Y-147390557D01*
X87540197Y-147409803D01*
X89863394Y-149733000D01*
X82812390Y-149733000D01*
X82778397Y-149494093D01*
X82678222Y-149208801D01*
X82598261Y-149059208D01*
X82344080Y-148975525D01*
X81586605Y-149733000D01*
X80973395Y-149733000D01*
X80215920Y-148975525D01*
X79961739Y-149059208D01*
X79830842Y-149331775D01*
X79755635Y-149624642D01*
X79749668Y-149733000D01*
X79046606Y-149733000D01*
X79983686Y-148795920D01*
X80395525Y-148795920D01*
X81280000Y-149680395D01*
X82164475Y-148795920D01*
X82080792Y-148541739D01*
X81808225Y-148410842D01*
X81704010Y-148384080D01*
X82935525Y-148384080D01*
X83019208Y-148638261D01*
X83291775Y-148769158D01*
X83584642Y-148844365D01*
X83886553Y-148860991D01*
X84185907Y-148818397D01*
X84471199Y-148718222D01*
X84620792Y-148638261D01*
X84704475Y-148384080D01*
X83820000Y-147499605D01*
X82935525Y-148384080D01*
X81704010Y-148384080D01*
X81515358Y-148335635D01*
X81213447Y-148319009D01*
X80914093Y-148361603D01*
X80628801Y-148461778D01*
X80479208Y-148541739D01*
X80395525Y-148795920D01*
X79983686Y-148795920D01*
X81393053Y-147386553D01*
X82279009Y-147386553D01*
X82321603Y-147685907D01*
X82421778Y-147971199D01*
X82501739Y-148120792D01*
X82755920Y-148204475D01*
X83640395Y-147320000D01*
X83999605Y-147320000D01*
X84884080Y-148204475D01*
X85138261Y-148120792D01*
X85269158Y-147848225D01*
X85344365Y-147555358D01*
X85360991Y-147253447D01*
X85318397Y-146954093D01*
X85218222Y-146668801D01*
X85138261Y-146519208D01*
X84884080Y-146435525D01*
X83999605Y-147320000D01*
X83640395Y-147320000D01*
X82755920Y-146435525D01*
X82501739Y-146519208D01*
X82370842Y-146791775D01*
X82295635Y-147084642D01*
X82279009Y-147386553D01*
X81393053Y-147386553D01*
X82523686Y-146255920D01*
X82935525Y-146255920D01*
X83820000Y-147140395D01*
X84704475Y-146255920D01*
X84620792Y-146001739D01*
X84348225Y-145870842D01*
X84055358Y-145795635D01*
X83753447Y-145779009D01*
X83454093Y-145821603D01*
X83168801Y-145921778D01*
X83019208Y-146001739D01*
X82935525Y-146255920D01*
X82523686Y-146255920D01*
X82639803Y-146139803D01*
X82655597Y-146120557D01*
X82667333Y-146098601D01*
X82674560Y-146074776D01*
X82677000Y-146050000D01*
X82677000Y-144145000D01*
X82674560Y-144120224D01*
X82667333Y-144096399D01*
X82655597Y-144074443D01*
X82639803Y-144055197D01*
X80951606Y-142367000D01*
X83767394Y-142367000D01*
X85179971Y-143779577D01*
G37*
%TD.AperFunction*%
%TD*%
D36*
%TO.N,+5V*%
X115341603Y-142605907D02*
X115441778Y-142891199D01*
X115521739Y-143040792D01*
X115775920Y-143124475D01*
X116533395Y-142367000D01*
X116787394Y-142367000D01*
X116840000Y-142419606D01*
X115955525Y-143304080D01*
X116039208Y-143558261D01*
X116311775Y-143689158D01*
X116604642Y-143764365D01*
X116906553Y-143780991D01*
X117205907Y-143738397D01*
X117491199Y-143638222D01*
X117640792Y-143558261D01*
X117724475Y-143304083D01*
X117840422Y-143420030D01*
X117840423Y-143420029D01*
X120823565Y-146403171D01*
X120767615Y-146464869D01*
X120622930Y-146706119D01*
X120528091Y-146970960D01*
X120649376Y-147193000D01*
X121613394Y-147193000D01*
X121793000Y-147372606D01*
X121793000Y-147447000D01*
X120649376Y-147447000D01*
X120528091Y-147669040D01*
X120622930Y-147933881D01*
X120767615Y-148175131D01*
X120956586Y-148383519D01*
X121182580Y-148551037D01*
X121436913Y-148671246D01*
X121570961Y-148711904D01*
X121792998Y-148589916D01*
X121792998Y-148755000D01*
X121793000Y-148755000D01*
X121793000Y-149733000D01*
X116967000Y-149733000D01*
X116967000Y-144780000D01*
X116964560Y-144755224D01*
X116957333Y-144731399D01*
X116945597Y-144709443D01*
X116929803Y-144690197D01*
X114606606Y-142367000D01*
X115307610Y-142367000D01*
X115341603Y-142605907D01*
%TA.AperFunction,Conductor*%
D37*
G36*
X115341603Y-142605907D02*
G01*
X115441778Y-142891199D01*
X115521739Y-143040792D01*
X115775920Y-143124475D01*
X116533395Y-142367000D01*
X116787394Y-142367000D01*
X116840000Y-142419606D01*
X115955525Y-143304080D01*
X116039208Y-143558261D01*
X116311775Y-143689158D01*
X116604642Y-143764365D01*
X116906553Y-143780991D01*
X117205907Y-143738397D01*
X117491199Y-143638222D01*
X117640792Y-143558261D01*
X117724475Y-143304083D01*
X117840422Y-143420030D01*
X117840423Y-143420029D01*
X120823565Y-146403171D01*
X120767615Y-146464869D01*
X120622930Y-146706119D01*
X120528091Y-146970960D01*
X120649376Y-147193000D01*
X121613394Y-147193000D01*
X121793000Y-147372606D01*
X121793000Y-147447000D01*
X120649376Y-147447000D01*
X120528091Y-147669040D01*
X120622930Y-147933881D01*
X120767615Y-148175131D01*
X120956586Y-148383519D01*
X121182580Y-148551037D01*
X121436913Y-148671246D01*
X121570961Y-148711904D01*
X121792998Y-148589916D01*
X121792998Y-148755000D01*
X121793000Y-148755000D01*
X121793000Y-149733000D01*
X116967000Y-149733000D01*
X116967000Y-144780000D01*
X116964560Y-144755224D01*
X116957333Y-144731399D01*
X116945597Y-144709443D01*
X116929803Y-144690197D01*
X114606606Y-142367000D01*
X115307610Y-142367000D01*
X115341603Y-142605907D01*
G37*
%TD.AperFunction*%
%TD*%
D36*
%TO.N,+5V*%
X93853000Y-113993394D02*
X92771778Y-112912172D01*
X92829502Y-112804180D01*
X92865812Y-112684482D01*
X92878072Y-112560000D01*
X92875000Y-112045750D01*
X92716250Y-111887000D01*
X91746606Y-111887000D01*
X91567000Y-111707394D01*
X91567000Y-111633000D01*
X92716250Y-111633000D01*
X92875000Y-111474250D01*
X92878072Y-110960000D01*
X92865812Y-110835518D01*
X92829502Y-110715820D01*
X92770537Y-110605506D01*
X92691185Y-110508815D01*
X92594494Y-110429463D01*
X92484180Y-110370498D01*
X92364482Y-110334188D01*
X92339920Y-110331769D01*
X92503519Y-110183414D01*
X92671037Y-109957420D01*
X92791246Y-109703087D01*
X92831904Y-109569039D01*
X92709915Y-109347000D01*
X91567000Y-109347000D01*
X91567000Y-109093000D01*
X92709915Y-109093000D01*
X92831904Y-108870961D01*
X92791246Y-108736913D01*
X92671037Y-108482580D01*
X92503519Y-108256586D01*
X92295131Y-108067615D01*
X92099018Y-107950000D01*
X92295131Y-107832385D01*
X92503519Y-107643414D01*
X92671037Y-107417420D01*
X92791246Y-107163087D01*
X92831904Y-107029039D01*
X92709915Y-106807000D01*
X91567000Y-106807000D01*
X91567000Y-106553000D01*
X92709915Y-106553000D01*
X92831904Y-106330961D01*
X92791246Y-106196913D01*
X92779471Y-106172000D01*
X93853000Y-106172000D01*
X93853000Y-113993394D01*
%TA.AperFunction,Conductor*%
D37*
G36*
X93853000Y-113993394D02*
G01*
X92771778Y-112912172D01*
X92829502Y-112804180D01*
X92865812Y-112684482D01*
X92878072Y-112560000D01*
X92875000Y-112045750D01*
X92716250Y-111887000D01*
X91746606Y-111887000D01*
X91567000Y-111707394D01*
X91567000Y-111633000D01*
X92716250Y-111633000D01*
X92875000Y-111474250D01*
X92878072Y-110960000D01*
X92865812Y-110835518D01*
X92829502Y-110715820D01*
X92770537Y-110605506D01*
X92691185Y-110508815D01*
X92594494Y-110429463D01*
X92484180Y-110370498D01*
X92364482Y-110334188D01*
X92339920Y-110331769D01*
X92503519Y-110183414D01*
X92671037Y-109957420D01*
X92791246Y-109703087D01*
X92831904Y-109569039D01*
X92709915Y-109347000D01*
X91567000Y-109347000D01*
X91567000Y-109093000D01*
X92709915Y-109093000D01*
X92831904Y-108870961D01*
X92791246Y-108736913D01*
X92671037Y-108482580D01*
X92503519Y-108256586D01*
X92295131Y-108067615D01*
X92099018Y-107950000D01*
X92295131Y-107832385D01*
X92503519Y-107643414D01*
X92671037Y-107417420D01*
X92791246Y-107163087D01*
X92831904Y-107029039D01*
X92709915Y-106807000D01*
X91567000Y-106807000D01*
X91567000Y-106553000D01*
X92709915Y-106553000D01*
X92831904Y-106330961D01*
X92791246Y-106196913D01*
X92779471Y-106172000D01*
X93853000Y-106172000D01*
X93853000Y-113993394D01*
G37*
%TD.AperFunction*%
%TD*%
D36*
%TO.N,+5V*%
X121793000Y-114139599D02*
X120646241Y-112992840D01*
X120710537Y-112914494D01*
X120769502Y-112804180D01*
X120805812Y-112684482D01*
X120818072Y-112560000D01*
X120815000Y-112045750D01*
X120656250Y-111887000D01*
X119540401Y-111887000D01*
X119507000Y-111853599D01*
X119507000Y-111633000D01*
X120656250Y-111633000D01*
X120815000Y-111474250D01*
X120818072Y-110960000D01*
X120805812Y-110835518D01*
X120769502Y-110715820D01*
X120710537Y-110605506D01*
X120631185Y-110508815D01*
X120534494Y-110429463D01*
X120424180Y-110370498D01*
X120304482Y-110334188D01*
X120279920Y-110331769D01*
X120443519Y-110183414D01*
X120611037Y-109957420D01*
X120731246Y-109703087D01*
X120771904Y-109569039D01*
X120649915Y-109347000D01*
X119507000Y-109347000D01*
X119507000Y-109093000D01*
X120649915Y-109093000D01*
X120771904Y-108870961D01*
X120731246Y-108736913D01*
X120611037Y-108482580D01*
X120443519Y-108256586D01*
X120235131Y-108067615D01*
X120039018Y-107950000D01*
X120235131Y-107832385D01*
X120443519Y-107643414D01*
X120611037Y-107417420D01*
X120731246Y-107163087D01*
X120771904Y-107029039D01*
X120649915Y-106807000D01*
X119507000Y-106807000D01*
X119507000Y-106553000D01*
X120649915Y-106553000D01*
X120771904Y-106330961D01*
X120731246Y-106196913D01*
X120719471Y-106172000D01*
X121793000Y-106172000D01*
X121793000Y-114139599D01*
%TA.AperFunction,Conductor*%
D37*
G36*
X121793000Y-114139599D02*
G01*
X120646241Y-112992840D01*
X120710537Y-112914494D01*
X120769502Y-112804180D01*
X120805812Y-112684482D01*
X120818072Y-112560000D01*
X120815000Y-112045750D01*
X120656250Y-111887000D01*
X119540401Y-111887000D01*
X119507000Y-111853599D01*
X119507000Y-111633000D01*
X120656250Y-111633000D01*
X120815000Y-111474250D01*
X120818072Y-110960000D01*
X120805812Y-110835518D01*
X120769502Y-110715820D01*
X120710537Y-110605506D01*
X120631185Y-110508815D01*
X120534494Y-110429463D01*
X120424180Y-110370498D01*
X120304482Y-110334188D01*
X120279920Y-110331769D01*
X120443519Y-110183414D01*
X120611037Y-109957420D01*
X120731246Y-109703087D01*
X120771904Y-109569039D01*
X120649915Y-109347000D01*
X119507000Y-109347000D01*
X119507000Y-109093000D01*
X120649915Y-109093000D01*
X120771904Y-108870961D01*
X120731246Y-108736913D01*
X120611037Y-108482580D01*
X120443519Y-108256586D01*
X120235131Y-108067615D01*
X120039018Y-107950000D01*
X120235131Y-107832385D01*
X120443519Y-107643414D01*
X120611037Y-107417420D01*
X120731246Y-107163087D01*
X120771904Y-107029039D01*
X120649915Y-106807000D01*
X119507000Y-106807000D01*
X119507000Y-106553000D01*
X120649915Y-106553000D01*
X120771904Y-106330961D01*
X120731246Y-106196913D01*
X120719471Y-106172000D01*
X121793000Y-106172000D01*
X121793000Y-114139599D01*
G37*
%TD.AperFunction*%
%TD*%
D36*
%TO.N,+5V*%
X149733000Y-114073310D02*
X148616121Y-112956431D01*
X148650537Y-112914494D01*
X148709502Y-112804180D01*
X148745812Y-112684482D01*
X148758072Y-112560000D01*
X148755000Y-112045750D01*
X148596250Y-111887000D01*
X147546690Y-111887000D01*
X147447000Y-111787310D01*
X147447000Y-111633000D01*
X148596250Y-111633000D01*
X148755000Y-111474250D01*
X148758072Y-110960000D01*
X148745812Y-110835518D01*
X148709502Y-110715820D01*
X148650537Y-110605506D01*
X148571185Y-110508815D01*
X148474494Y-110429463D01*
X148364180Y-110370498D01*
X148244482Y-110334188D01*
X148219920Y-110331769D01*
X148383519Y-110183414D01*
X148551037Y-109957420D01*
X148671246Y-109703087D01*
X148711904Y-109569039D01*
X148589915Y-109347000D01*
X147447000Y-109347000D01*
X147447000Y-109093000D01*
X148589915Y-109093000D01*
X148711904Y-108870961D01*
X148671246Y-108736913D01*
X148551037Y-108482580D01*
X148383519Y-108256586D01*
X148175131Y-108067615D01*
X147979018Y-107950000D01*
X148175131Y-107832385D01*
X148383519Y-107643414D01*
X148551037Y-107417420D01*
X148671246Y-107163087D01*
X148711904Y-107029039D01*
X148589915Y-106807000D01*
X147447000Y-106807000D01*
X147447000Y-106553000D01*
X148589915Y-106553000D01*
X148711904Y-106330961D01*
X148671246Y-106196913D01*
X148659471Y-106172000D01*
X149733000Y-106172000D01*
X149733000Y-114073310D01*
%TA.AperFunction,Conductor*%
D37*
G36*
X149733000Y-114073310D02*
G01*
X148616121Y-112956431D01*
X148650537Y-112914494D01*
X148709502Y-112804180D01*
X148745812Y-112684482D01*
X148758072Y-112560000D01*
X148755000Y-112045750D01*
X148596250Y-111887000D01*
X147546690Y-111887000D01*
X147447000Y-111787310D01*
X147447000Y-111633000D01*
X148596250Y-111633000D01*
X148755000Y-111474250D01*
X148758072Y-110960000D01*
X148745812Y-110835518D01*
X148709502Y-110715820D01*
X148650537Y-110605506D01*
X148571185Y-110508815D01*
X148474494Y-110429463D01*
X148364180Y-110370498D01*
X148244482Y-110334188D01*
X148219920Y-110331769D01*
X148383519Y-110183414D01*
X148551037Y-109957420D01*
X148671246Y-109703087D01*
X148711904Y-109569039D01*
X148589915Y-109347000D01*
X147447000Y-109347000D01*
X147447000Y-109093000D01*
X148589915Y-109093000D01*
X148711904Y-108870961D01*
X148671246Y-108736913D01*
X148551037Y-108482580D01*
X148383519Y-108256586D01*
X148175131Y-108067615D01*
X147979018Y-107950000D01*
X148175131Y-107832385D01*
X148383519Y-107643414D01*
X148551037Y-107417420D01*
X148671246Y-107163087D01*
X148711904Y-107029039D01*
X148589915Y-106807000D01*
X147447000Y-106807000D01*
X147447000Y-106553000D01*
X148589915Y-106553000D01*
X148711904Y-106330961D01*
X148671246Y-106196913D01*
X148659471Y-106172000D01*
X149733000Y-106172000D01*
X149733000Y-114073310D01*
G37*
%TD.AperFunction*%
%TD*%
M02*
