%TF.GenerationSoftware,KiCad,Pcbnew,5.1.10*%
%TF.CreationDate,2022-02-01T20:50:29+01:00*%
%TF.ProjectId,Videoerweiterung,56696465-6f65-4727-9765-69746572756e,3*%
%TF.SameCoordinates,Original*%
%TF.FileFunction,Soldermask,Top*%
%TF.FilePolarity,Negative*%
%FSLAX46Y46*%
G04 Gerber Fmt 4.6, Leading zero omitted, Abs format (unit mm)*
G04 Created by KiCad (PCBNEW 5.1.10) date 2022-02-01 20:50:29*
%MOMM*%
%LPD*%
G01*
G04 APERTURE LIST*
%ADD10C,2.550000*%
%ADD11R,3.500000X0.500000*%
%ADD12R,0.500000X3.500000*%
%ADD13C,0.100000*%
%ADD14C,2.000000*%
%ADD15C,1.600000*%
%ADD16R,1.600000X1.600000*%
%ADD17C,2.300000*%
%ADD18R,2.300000X2.300000*%
%ADD19O,1.200000X1.200000*%
%ADD20R,1.200000X1.200000*%
%ADD21C,1.800000*%
%ADD22R,1.700000X1.700000*%
%ADD23C,3.200000*%
%ADD24O,1.600000X1.600000*%
%ADD25O,1.700000X1.700000*%
%ADD26O,1.500000X1.500000*%
%ADD27R,1.500000X1.500000*%
%ADD28O,2.400000X2.400000*%
%ADD29R,2.400000X2.400000*%
G04 APERTURE END LIST*
D10*
%TO.C,X206*%
X126720000Y-200660000D03*
G36*
G01*
X120645000Y-201685001D02*
X120645000Y-199634999D01*
G75*
G02*
X120894999Y-199385000I249999J0D01*
G01*
X122945001Y-199385000D01*
G75*
G02*
X123195000Y-199634999I0J-249999D01*
G01*
X123195000Y-201685001D01*
G75*
G02*
X122945001Y-201935000I-249999J0D01*
G01*
X120894999Y-201935000D01*
G75*
G02*
X120645000Y-201685001I0J249999D01*
G01*
G37*
%TD*%
D11*
%TO.C,LOGO1*%
X88900000Y-71120000D03*
D12*
X88900000Y-71120000D03*
D13*
G36*
X91021320Y-69352233D02*
G01*
X87132233Y-73241320D01*
X86778680Y-72887767D01*
X90667767Y-68998680D01*
X91021320Y-69352233D01*
G37*
D14*
X88900000Y-71120000D03*
D13*
G36*
X90667767Y-73241320D02*
G01*
X86778680Y-69352233D01*
X87132233Y-68998680D01*
X91021320Y-72887767D01*
X90667767Y-73241320D01*
G37*
D14*
X86360000Y-68580000D03*
X88900000Y-68580000D03*
X91440000Y-68580000D03*
X91440000Y-71120000D03*
X91440000Y-73660000D03*
X88900000Y-73660000D03*
X86360000Y-73660000D03*
X86360000Y-71120000D03*
%TD*%
D15*
%TO.C,C23*%
X172800000Y-193040000D03*
D16*
X177800000Y-193040000D03*
%TD*%
D17*
%TO.C,X401*%
X180800000Y-81000000D03*
X180800000Y-71000000D03*
X183300000Y-71000000D03*
X183300000Y-81000000D03*
D18*
X173300000Y-68500000D03*
D17*
X170800000Y-71000000D03*
X173300000Y-76000000D03*
X170800000Y-81000000D03*
X173300000Y-83500000D03*
X183300000Y-73500000D03*
X183300000Y-78500000D03*
X178300000Y-68500000D03*
X178300000Y-83500000D03*
%TD*%
D19*
%TO.C,VT404*%
X162560000Y-53380000D03*
D20*
X162560000Y-58380000D03*
D19*
X162560000Y-55880000D03*
%TD*%
%TO.C,VT403*%
X152400000Y-53380000D03*
D20*
X152400000Y-58380000D03*
D19*
X152400000Y-55880000D03*
%TD*%
%TO.C,VT402*%
X142240000Y-53380000D03*
D20*
X142240000Y-58380000D03*
D19*
X142240000Y-55880000D03*
%TD*%
%TO.C,VT401*%
X124460000Y-53380000D03*
D20*
X124460000Y-58380000D03*
D19*
X124460000Y-55880000D03*
%TD*%
%TO.C,VT400*%
X114300000Y-53380000D03*
D20*
X114300000Y-58380000D03*
D19*
X114300000Y-55880000D03*
%TD*%
%TO.C,VT201*%
X63540000Y-205740000D03*
D20*
X68540000Y-205740000D03*
D19*
X66040000Y-205740000D03*
%TD*%
%TO.C,VT200*%
X76260000Y-198120000D03*
D20*
X81260000Y-198120000D03*
D19*
X78760000Y-198120000D03*
%TD*%
%TO.C,VD203*%
X81240000Y-144780000D03*
D20*
X78740000Y-144780000D03*
%TD*%
D21*
%TO.C,R212*%
X81080000Y-147320000D03*
X68580000Y-147320000D03*
%TD*%
D22*
%TO.C,TP201*%
X172720000Y-205740000D03*
%TD*%
D23*
%TO.C,H3*%
X179860000Y-55480000D03*
%TD*%
D22*
%TO.C,X205*%
X48260000Y-180340000D03*
%TD*%
D24*
%TO.C,R409*%
X175260000Y-58420000D03*
D15*
X175260000Y-55880000D03*
%TD*%
D24*
%TO.C,R408*%
X175260000Y-53340000D03*
D15*
X172720000Y-53340000D03*
%TD*%
D24*
%TO.C,R407*%
X172720000Y-55880000D03*
D15*
X172720000Y-58420000D03*
%TD*%
D24*
%TO.C,R406*%
X170180000Y-58420000D03*
D15*
X170180000Y-55880000D03*
%TD*%
D24*
%TO.C,R405*%
X182880000Y-60960000D03*
D15*
X182880000Y-63500000D03*
%TD*%
D24*
%TO.C,R404*%
X180340000Y-63500000D03*
D15*
X180340000Y-60960000D03*
%TD*%
D24*
%TO.C,R403*%
X175260000Y-63500000D03*
D15*
X175260000Y-60960000D03*
%TD*%
D24*
%TO.C,R402*%
X177800000Y-60960000D03*
D15*
X177800000Y-63500000D03*
%TD*%
D24*
%TO.C,R401*%
X172720000Y-60960000D03*
D15*
X172720000Y-63500000D03*
%TD*%
D22*
%TO.C,TP404*%
X160020000Y-53340000D03*
%TD*%
%TO.C,TP403*%
X149860000Y-53340000D03*
%TD*%
%TO.C,TP402*%
X139700000Y-53340000D03*
%TD*%
%TO.C,TP401*%
X121920000Y-53340000D03*
%TD*%
%TO.C,TP400*%
X111760000Y-53340000D03*
%TD*%
D24*
%TO.C,R501*%
X109220000Y-60960000D03*
D15*
X109220000Y-58420000D03*
%TD*%
D25*
%TO.C,JP507*%
X99060000Y-52070000D03*
D22*
X96520000Y-52070000D03*
%TD*%
D25*
%TO.C,JP506*%
X122000000Y-72940000D03*
D22*
X122000000Y-70400000D03*
%TD*%
D25*
%TO.C,JP505*%
X104140000Y-60960000D03*
D22*
X104140000Y-58420000D03*
%TD*%
D25*
%TO.C,JP504*%
X81280000Y-60960000D03*
D22*
X81280000Y-58420000D03*
%TD*%
D25*
%TO.C,JP503*%
X78740000Y-58420000D03*
D22*
X81280000Y-58420000D03*
%TD*%
D25*
%TO.C,JP502*%
X99060000Y-67310000D03*
D22*
X96520000Y-67310000D03*
%TD*%
D25*
%TO.C,JP501*%
X81280000Y-58420000D03*
D22*
X81280000Y-55880000D03*
%TD*%
D26*
%TO.C,VD201*%
X71120000Y-208280000D03*
D27*
X71120000Y-205740000D03*
%TD*%
D15*
%TO.C,C18*%
X111680000Y-195580000D03*
X106680000Y-195580000D03*
%TD*%
%TO.C,C24*%
X68620000Y-198120000D03*
X71120000Y-198120000D03*
%TD*%
D25*
%TO.C,X202*%
X48260000Y-172720000D03*
D22*
X48260000Y-175260000D03*
%TD*%
D15*
%TO.C,C22*%
X172800000Y-185420000D03*
X177800000Y-185420000D03*
%TD*%
%TO.C,C20*%
X176032233Y-151627767D03*
X177800000Y-149860000D03*
%TD*%
%TO.C,C19*%
X157440000Y-136410127D03*
X154940000Y-132080000D03*
%TD*%
%TO.C,C17*%
X60960000Y-185380000D03*
X60960000Y-182880000D03*
%TD*%
%TO.C,C15*%
X73660000Y-167680000D03*
X73660000Y-170180000D03*
%TD*%
%TO.C,C14*%
X99020000Y-144780000D03*
X96520000Y-144780000D03*
%TD*%
%TO.C,C13*%
X154940000Y-88940000D03*
X154940000Y-91440000D03*
%TD*%
%TO.C,C12*%
X127000000Y-68540000D03*
X127000000Y-66040000D03*
%TD*%
%TO.C,C10*%
X127000000Y-88940000D03*
X127000000Y-91440000D03*
%TD*%
%TO.C,C9*%
X63500000Y-88940000D03*
X63500000Y-91440000D03*
%TD*%
%TO.C,C8*%
X116840000Y-68540000D03*
X116840000Y-66040000D03*
%TD*%
%TO.C,C7*%
X99060000Y-88940000D03*
X99060000Y-91440000D03*
%TD*%
%TO.C,C5*%
X170180000Y-63460000D03*
X170180000Y-60960000D03*
%TD*%
%TO.C,C4*%
X74392233Y-67807767D03*
X76160000Y-66040000D03*
%TD*%
%TO.C,C3*%
X134620000Y-180260000D03*
X134620000Y-175260000D03*
%TD*%
D28*
%TO.C,C2*%
X55880000Y-96120000D03*
D29*
X55880000Y-66040000D03*
%TD*%
D22*
%TO.C,X405*%
X134620000Y-53340000D03*
%TD*%
D15*
%TO.C,C202*%
X83900000Y-165100000D03*
X88900000Y-165100000D03*
%TD*%
D24*
%TO.C,R20*%
X121920000Y-60960000D03*
D15*
X121920000Y-63500000D03*
%TD*%
D19*
%TO.C,VD405*%
X165100000Y-55920000D03*
D20*
X165100000Y-58420000D03*
%TD*%
D19*
%TO.C,VD404*%
X154940000Y-55920000D03*
D20*
X154940000Y-58420000D03*
%TD*%
D19*
%TO.C,VD403*%
X144780000Y-55920000D03*
D20*
X144780000Y-58420000D03*
%TD*%
D19*
%TO.C,VD402*%
X127000000Y-55920000D03*
D20*
X127000000Y-58420000D03*
%TD*%
D19*
%TO.C,VD401*%
X116840000Y-55920000D03*
D20*
X116840000Y-58420000D03*
%TD*%
D19*
%TO.C,VD400*%
X109180000Y-55880000D03*
D20*
X106680000Y-55880000D03*
%TD*%
D19*
%TO.C,VD202*%
X71080000Y-167640000D03*
D20*
X68580000Y-167640000D03*
%TD*%
D19*
%TO.C,VD200*%
X76200000Y-200700000D03*
D20*
X76200000Y-203200000D03*
%TD*%
D24*
%TO.C,D21*%
X58420000Y-180340000D03*
X50800000Y-198120000D03*
X58420000Y-182880000D03*
X50800000Y-195580000D03*
X58420000Y-185420000D03*
X50800000Y-193040000D03*
X58420000Y-187960000D03*
X50800000Y-190500000D03*
X58420000Y-190500000D03*
X50800000Y-187960000D03*
X58420000Y-193040000D03*
X50800000Y-185420000D03*
X58420000Y-195580000D03*
X50800000Y-182880000D03*
X58420000Y-198120000D03*
D16*
X50800000Y-180340000D03*
%TD*%
D24*
%TO.C,D20*%
X58420000Y-154940000D03*
X50800000Y-172720000D03*
X58420000Y-157480000D03*
X50800000Y-170180000D03*
X58420000Y-160020000D03*
X50800000Y-167640000D03*
X58420000Y-162560000D03*
X50800000Y-165100000D03*
X58420000Y-165100000D03*
X50800000Y-162560000D03*
X58420000Y-167640000D03*
X50800000Y-160020000D03*
X58420000Y-170180000D03*
X50800000Y-157480000D03*
X58420000Y-172720000D03*
D16*
X50800000Y-154940000D03*
%TD*%
D24*
%TO.C,D19*%
X73660000Y-172720000D03*
X66040000Y-187960000D03*
X73660000Y-175260000D03*
X66040000Y-185420000D03*
X73660000Y-177800000D03*
X66040000Y-182880000D03*
X73660000Y-180340000D03*
X66040000Y-180340000D03*
X73660000Y-182880000D03*
X66040000Y-177800000D03*
X73660000Y-185420000D03*
X66040000Y-175260000D03*
X73660000Y-187960000D03*
D16*
X66040000Y-172720000D03*
%TD*%
D24*
%TO.C,D18*%
X73660000Y-149860000D03*
X66040000Y-165100000D03*
X73660000Y-152400000D03*
X66040000Y-162560000D03*
X73660000Y-154940000D03*
X66040000Y-160020000D03*
X73660000Y-157480000D03*
X66040000Y-157480000D03*
X73660000Y-160020000D03*
X66040000Y-154940000D03*
X73660000Y-162560000D03*
X66040000Y-152400000D03*
X73660000Y-165100000D03*
D16*
X66040000Y-149860000D03*
%TD*%
D24*
%TO.C,D17*%
X68580000Y-121920000D03*
X60960000Y-144780000D03*
X68580000Y-124460000D03*
X60960000Y-142240000D03*
X68580000Y-127000000D03*
X60960000Y-139700000D03*
X68580000Y-129540000D03*
X60960000Y-137160000D03*
X68580000Y-132080000D03*
X60960000Y-134620000D03*
X68580000Y-134620000D03*
X60960000Y-132080000D03*
X68580000Y-137160000D03*
X60960000Y-129540000D03*
X68580000Y-139700000D03*
X60960000Y-127000000D03*
X68580000Y-142240000D03*
X60960000Y-124460000D03*
X68580000Y-144780000D03*
D16*
X60960000Y-121920000D03*
%TD*%
D24*
%TO.C,D16*%
X68580000Y-116840000D03*
X76200000Y-93980000D03*
X68580000Y-114300000D03*
X76200000Y-96520000D03*
X68580000Y-111760000D03*
X76200000Y-99060000D03*
X68580000Y-109220000D03*
X76200000Y-101600000D03*
X68580000Y-106680000D03*
X76200000Y-104140000D03*
X68580000Y-104140000D03*
X76200000Y-106680000D03*
X68580000Y-101600000D03*
X76200000Y-109220000D03*
X68580000Y-99060000D03*
X76200000Y-111760000D03*
X68580000Y-96520000D03*
X76200000Y-114300000D03*
X68580000Y-93980000D03*
D16*
X76200000Y-116840000D03*
%TD*%
D24*
%TO.C,D15*%
X71120000Y-63500000D03*
X63500000Y-86360000D03*
X71120000Y-66040000D03*
X63500000Y-83820000D03*
X71120000Y-68580000D03*
X63500000Y-81280000D03*
X71120000Y-71120000D03*
X63500000Y-78740000D03*
X71120000Y-73660000D03*
X63500000Y-76200000D03*
X71120000Y-76200000D03*
X63500000Y-73660000D03*
X71120000Y-78740000D03*
X63500000Y-71120000D03*
X71120000Y-81280000D03*
X63500000Y-68580000D03*
X71120000Y-83820000D03*
X63500000Y-66040000D03*
X71120000Y-86360000D03*
D16*
X63500000Y-63500000D03*
%TD*%
D24*
%TO.C,D14*%
X91440000Y-198120000D03*
X106680000Y-205740000D03*
X93980000Y-198120000D03*
X104140000Y-205740000D03*
X96520000Y-198120000D03*
X101600000Y-205740000D03*
X99060000Y-198120000D03*
X99060000Y-205740000D03*
X101600000Y-198120000D03*
X96520000Y-205740000D03*
X104140000Y-198120000D03*
X93980000Y-205740000D03*
X106680000Y-198120000D03*
D16*
X91440000Y-205740000D03*
%TD*%
D24*
%TO.C,D13*%
X78740000Y-170180000D03*
X127000000Y-185420000D03*
X81280000Y-170180000D03*
X124460000Y-185420000D03*
X83820000Y-170180000D03*
X121920000Y-185420000D03*
X86360000Y-170180000D03*
X119380000Y-185420000D03*
X88900000Y-170180000D03*
X116840000Y-185420000D03*
X91440000Y-170180000D03*
X114300000Y-185420000D03*
X93980000Y-170180000D03*
X111760000Y-185420000D03*
X96520000Y-170180000D03*
X109220000Y-185420000D03*
X99060000Y-170180000D03*
X106680000Y-185420000D03*
X101600000Y-170180000D03*
X104140000Y-185420000D03*
X104140000Y-170180000D03*
X101600000Y-185420000D03*
X106680000Y-170180000D03*
X99060000Y-185420000D03*
X109220000Y-170180000D03*
X96520000Y-185420000D03*
X111760000Y-170180000D03*
X93980000Y-185420000D03*
X114300000Y-170180000D03*
X91440000Y-185420000D03*
X116840000Y-170180000D03*
X88900000Y-185420000D03*
X119380000Y-170180000D03*
X86360000Y-185420000D03*
X121920000Y-170180000D03*
X83820000Y-185420000D03*
X124460000Y-170180000D03*
X81280000Y-185420000D03*
X127000000Y-170180000D03*
D16*
X78740000Y-185420000D03*
%TD*%
D24*
%TO.C,D12*%
X83820000Y-111760000D03*
X91440000Y-88900000D03*
X83820000Y-109220000D03*
X91440000Y-91440000D03*
X83820000Y-106680000D03*
X91440000Y-93980000D03*
X83820000Y-104140000D03*
X91440000Y-96520000D03*
X83820000Y-101600000D03*
X91440000Y-99060000D03*
X83820000Y-99060000D03*
X91440000Y-101600000D03*
X83820000Y-96520000D03*
X91440000Y-104140000D03*
X83820000Y-93980000D03*
X91440000Y-106680000D03*
X83820000Y-91440000D03*
X91440000Y-109220000D03*
X83820000Y-88900000D03*
D16*
X91440000Y-111760000D03*
%TD*%
D24*
%TO.C,D11*%
X96520000Y-116840000D03*
X104140000Y-93980000D03*
X96520000Y-114300000D03*
X104140000Y-96520000D03*
X96520000Y-111760000D03*
X104140000Y-99060000D03*
X96520000Y-109220000D03*
X104140000Y-101600000D03*
X96520000Y-106680000D03*
X104140000Y-104140000D03*
X96520000Y-104140000D03*
X104140000Y-106680000D03*
X96520000Y-101600000D03*
X104140000Y-109220000D03*
X96520000Y-99060000D03*
X104140000Y-111760000D03*
X96520000Y-96520000D03*
X104140000Y-114300000D03*
X96520000Y-93980000D03*
D16*
X104140000Y-116840000D03*
%TD*%
D24*
%TO.C,D10*%
X96520000Y-147320000D03*
X114300000Y-154940000D03*
X99060000Y-147320000D03*
X111760000Y-154940000D03*
X101600000Y-147320000D03*
X109220000Y-154940000D03*
X104140000Y-147320000D03*
X106680000Y-154940000D03*
X106680000Y-147320000D03*
X104140000Y-154940000D03*
X109220000Y-147320000D03*
X101600000Y-154940000D03*
X111760000Y-147320000D03*
X99060000Y-154940000D03*
X114300000Y-147320000D03*
D16*
X96520000Y-154940000D03*
%TD*%
D24*
%TO.C,D9*%
X111760000Y-111760000D03*
X119380000Y-88900000D03*
X111760000Y-109220000D03*
X119380000Y-91440000D03*
X111760000Y-106680000D03*
X119380000Y-93980000D03*
X111760000Y-104140000D03*
X119380000Y-96520000D03*
X111760000Y-101600000D03*
X119380000Y-99060000D03*
X111760000Y-99060000D03*
X119380000Y-101600000D03*
X111760000Y-96520000D03*
X119380000Y-104140000D03*
X111760000Y-93980000D03*
X119380000Y-106680000D03*
X111760000Y-91440000D03*
X119380000Y-109220000D03*
X111760000Y-88900000D03*
D16*
X119380000Y-111760000D03*
%TD*%
D24*
%TO.C,D8*%
X121920000Y-147320000D03*
X144780000Y-154940000D03*
X124460000Y-147320000D03*
X142240000Y-154940000D03*
X127000000Y-147320000D03*
X139700000Y-154940000D03*
X129540000Y-147320000D03*
X137160000Y-154940000D03*
X132080000Y-147320000D03*
X134620000Y-154940000D03*
X134620000Y-147320000D03*
X132080000Y-154940000D03*
X137160000Y-147320000D03*
X129540000Y-154940000D03*
X139700000Y-147320000D03*
X127000000Y-154940000D03*
X142240000Y-147320000D03*
X124460000Y-154940000D03*
X144780000Y-147320000D03*
D16*
X121920000Y-154940000D03*
%TD*%
D24*
%TO.C,D7*%
X124460000Y-116840000D03*
X132080000Y-93980000D03*
X124460000Y-114300000D03*
X132080000Y-96520000D03*
X124460000Y-111760000D03*
X132080000Y-99060000D03*
X124460000Y-109220000D03*
X132080000Y-101600000D03*
X124460000Y-106680000D03*
X132080000Y-104140000D03*
X124460000Y-104140000D03*
X132080000Y-106680000D03*
X124460000Y-101600000D03*
X132080000Y-109220000D03*
X124460000Y-99060000D03*
X132080000Y-111760000D03*
X124460000Y-96520000D03*
X132080000Y-114300000D03*
X124460000Y-93980000D03*
D16*
X132080000Y-116840000D03*
%TD*%
D24*
%TO.C,D6*%
X167640000Y-200660000D03*
X139700000Y-185420000D03*
X165100000Y-200660000D03*
X142240000Y-185420000D03*
X162560000Y-200660000D03*
X144780000Y-185420000D03*
X160020000Y-200660000D03*
X147320000Y-185420000D03*
X157480000Y-200660000D03*
X149860000Y-185420000D03*
X154940000Y-200660000D03*
X152400000Y-185420000D03*
X152400000Y-200660000D03*
X154940000Y-185420000D03*
X149860000Y-200660000D03*
X157480000Y-185420000D03*
X147320000Y-200660000D03*
X160020000Y-185420000D03*
X144780000Y-200660000D03*
X162560000Y-185420000D03*
X142240000Y-200660000D03*
X165100000Y-185420000D03*
X139700000Y-200660000D03*
D16*
X167640000Y-185420000D03*
%TD*%
D24*
%TO.C,D5*%
X139700000Y-162560000D03*
X167640000Y-177800000D03*
X142240000Y-162560000D03*
X165100000Y-177800000D03*
X144780000Y-162560000D03*
X162560000Y-177800000D03*
X147320000Y-162560000D03*
X160020000Y-177800000D03*
X149860000Y-162560000D03*
X157480000Y-177800000D03*
X152400000Y-162560000D03*
X154940000Y-177800000D03*
X154940000Y-162560000D03*
X152400000Y-177800000D03*
X157480000Y-162560000D03*
X149860000Y-177800000D03*
X160020000Y-162560000D03*
X147320000Y-177800000D03*
X162560000Y-162560000D03*
X144780000Y-177800000D03*
X165100000Y-162560000D03*
X142240000Y-177800000D03*
X167640000Y-162560000D03*
D16*
X139700000Y-177800000D03*
%TD*%
D24*
%TO.C,D4*%
X139700000Y-111760000D03*
X147320000Y-88900000D03*
X139700000Y-109220000D03*
X147320000Y-91440000D03*
X139700000Y-106680000D03*
X147320000Y-93980000D03*
X139700000Y-104140000D03*
X147320000Y-96520000D03*
X139700000Y-101600000D03*
X147320000Y-99060000D03*
X139700000Y-99060000D03*
X147320000Y-101600000D03*
X139700000Y-96520000D03*
X147320000Y-104140000D03*
X139700000Y-93980000D03*
X147320000Y-106680000D03*
X139700000Y-91440000D03*
X147320000Y-109220000D03*
X139700000Y-88900000D03*
D16*
X147320000Y-111760000D03*
%TD*%
D24*
%TO.C,D3*%
X152400000Y-116840000D03*
X160020000Y-93980000D03*
X152400000Y-114300000D03*
X160020000Y-96520000D03*
X152400000Y-111760000D03*
X160020000Y-99060000D03*
X152400000Y-109220000D03*
X160020000Y-101600000D03*
X152400000Y-106680000D03*
X160020000Y-104140000D03*
X152400000Y-104140000D03*
X160020000Y-106680000D03*
X152400000Y-101600000D03*
X160020000Y-109220000D03*
X152400000Y-99060000D03*
X160020000Y-111760000D03*
X152400000Y-96520000D03*
X160020000Y-114300000D03*
X152400000Y-93980000D03*
D16*
X160020000Y-116840000D03*
%TD*%
D24*
%TO.C,D2*%
X149860000Y-147320000D03*
X172720000Y-154940000D03*
X152400000Y-147320000D03*
X170180000Y-154940000D03*
X154940000Y-147320000D03*
X167640000Y-154940000D03*
X157480000Y-147320000D03*
X165100000Y-154940000D03*
X160020000Y-147320000D03*
X162560000Y-154940000D03*
X162560000Y-147320000D03*
X160020000Y-154940000D03*
X165100000Y-147320000D03*
X157480000Y-154940000D03*
X167640000Y-147320000D03*
X154940000Y-154940000D03*
X170180000Y-147320000D03*
X152400000Y-154940000D03*
X172720000Y-147320000D03*
D16*
X149860000Y-154940000D03*
%TD*%
D24*
%TO.C,D1*%
X167640000Y-111760000D03*
X175260000Y-88900000D03*
X167640000Y-109220000D03*
X175260000Y-91440000D03*
X167640000Y-106680000D03*
X175260000Y-93980000D03*
X167640000Y-104140000D03*
X175260000Y-96520000D03*
X167640000Y-101600000D03*
X175260000Y-99060000D03*
X167640000Y-99060000D03*
X175260000Y-101600000D03*
X167640000Y-96520000D03*
X175260000Y-104140000D03*
X167640000Y-93980000D03*
X175260000Y-106680000D03*
X167640000Y-91440000D03*
X175260000Y-109220000D03*
X167640000Y-88900000D03*
D16*
X175260000Y-111760000D03*
%TD*%
D24*
%TO.C,D0*%
X83820000Y-55880000D03*
X101600000Y-63500000D03*
X86360000Y-55880000D03*
X99060000Y-63500000D03*
X88900000Y-55880000D03*
X96520000Y-63500000D03*
X91440000Y-55880000D03*
X93980000Y-63500000D03*
X93980000Y-55880000D03*
X91440000Y-63500000D03*
X96520000Y-55880000D03*
X88900000Y-63500000D03*
X99060000Y-55880000D03*
X86360000Y-63500000D03*
X101600000Y-55880000D03*
D16*
X83820000Y-63500000D03*
%TD*%
D23*
%TO.C,H4*%
X179860000Y-203480000D03*
%TD*%
%TO.C,H2*%
X49860000Y-203480000D03*
%TD*%
%TO.C,H1*%
X49860000Y-55480000D03*
%TD*%
D21*
%TO.C,R211*%
X116840000Y-129740000D03*
X116840000Y-142240000D03*
%TD*%
%TO.C,R210*%
X83820000Y-159820000D03*
X83820000Y-147320000D03*
%TD*%
%TO.C,R209*%
X86360000Y-157280000D03*
X86360000Y-144780000D03*
%TD*%
%TO.C,R208*%
X89100000Y-142240000D03*
X101600000Y-142240000D03*
%TD*%
%TO.C,R207*%
X96720000Y-139700000D03*
X109220000Y-139700000D03*
%TD*%
%TO.C,R206*%
X81280000Y-162360000D03*
X81280000Y-149860000D03*
%TD*%
%TO.C,R205*%
X91240000Y-190500000D03*
X78740000Y-190500000D03*
%TD*%
%TO.C,R204*%
X63500000Y-187960000D03*
X63500000Y-200460000D03*
%TD*%
%TO.C,R203*%
X86360000Y-193240000D03*
X86360000Y-205740000D03*
%TD*%
%TO.C,R202*%
X83820000Y-208080000D03*
X83820000Y-195580000D03*
%TD*%
%TO.C,R201*%
X83620000Y-193040000D03*
X71120000Y-193040000D03*
%TD*%
%TO.C,R200*%
X68780000Y-195580000D03*
X81280000Y-195580000D03*
%TD*%
%TO.C,R25*%
X111760000Y-56080000D03*
X111760000Y-68580000D03*
%TD*%
%TO.C,R15*%
X139700000Y-58620000D03*
X139700000Y-71120000D03*
%TD*%
%TO.C,R10*%
X149860000Y-58620000D03*
X149860000Y-71120000D03*
%TD*%
%TO.C,R5*%
X160020000Y-58620000D03*
X160020000Y-71120000D03*
%TD*%
D25*
%TO.C,X303*%
X134620000Y-63500000D03*
X134620000Y-66040000D03*
X134620000Y-68580000D03*
X134620000Y-71120000D03*
X134620000Y-73660000D03*
X134620000Y-76200000D03*
X134620000Y-78740000D03*
X134620000Y-81280000D03*
X134620000Y-83820000D03*
X134620000Y-86360000D03*
X134620000Y-88900000D03*
X134620000Y-91440000D03*
X134620000Y-93980000D03*
X134620000Y-96520000D03*
X134620000Y-99060000D03*
X134620000Y-101600000D03*
X134620000Y-104140000D03*
X134620000Y-106680000D03*
X134620000Y-109220000D03*
X134620000Y-111760000D03*
X134620000Y-114300000D03*
X134620000Y-116840000D03*
X134620000Y-119380000D03*
X134620000Y-121920000D03*
X134620000Y-124460000D03*
X134620000Y-127000000D03*
X134620000Y-129540000D03*
X134620000Y-132080000D03*
D22*
X134620000Y-134620000D03*
%TD*%
D25*
%TO.C,X302*%
X106680000Y-63500000D03*
X106680000Y-66040000D03*
X106680000Y-68580000D03*
X106680000Y-71120000D03*
X106680000Y-73660000D03*
X106680000Y-76200000D03*
X106680000Y-78740000D03*
X106680000Y-81280000D03*
X106680000Y-83820000D03*
X106680000Y-86360000D03*
X106680000Y-88900000D03*
X106680000Y-91440000D03*
X106680000Y-93980000D03*
X106680000Y-96520000D03*
X106680000Y-99060000D03*
X106680000Y-101600000D03*
X106680000Y-104140000D03*
X106680000Y-106680000D03*
X106680000Y-109220000D03*
X106680000Y-111760000D03*
X106680000Y-114300000D03*
X106680000Y-116840000D03*
X106680000Y-119380000D03*
X106680000Y-121920000D03*
X106680000Y-124460000D03*
X106680000Y-127000000D03*
X106680000Y-129540000D03*
X106680000Y-132080000D03*
D22*
X106680000Y-134620000D03*
%TD*%
D25*
%TO.C,X301*%
X162560000Y-63500000D03*
X162560000Y-66040000D03*
X162560000Y-68580000D03*
X162560000Y-71120000D03*
X162560000Y-73660000D03*
X162560000Y-76200000D03*
X162560000Y-78740000D03*
X162560000Y-81280000D03*
X162560000Y-83820000D03*
X162560000Y-86360000D03*
X162560000Y-88900000D03*
X162560000Y-91440000D03*
X162560000Y-93980000D03*
X162560000Y-96520000D03*
X162560000Y-99060000D03*
X162560000Y-101600000D03*
X162560000Y-104140000D03*
X162560000Y-106680000D03*
X162560000Y-109220000D03*
X162560000Y-111760000D03*
X162560000Y-114300000D03*
X162560000Y-116840000D03*
X162560000Y-119380000D03*
X162560000Y-121920000D03*
X162560000Y-124460000D03*
X162560000Y-127000000D03*
X162560000Y-129540000D03*
X162560000Y-132080000D03*
D22*
X162560000Y-134620000D03*
%TD*%
D25*
%TO.C,X300*%
X78740000Y-63500000D03*
X78740000Y-66040000D03*
X78740000Y-68580000D03*
X78740000Y-71120000D03*
X78740000Y-73660000D03*
X78740000Y-76200000D03*
X78740000Y-78740000D03*
X78740000Y-81280000D03*
X78740000Y-83820000D03*
X78740000Y-86360000D03*
X78740000Y-88900000D03*
X78740000Y-91440000D03*
X78740000Y-93980000D03*
X78740000Y-96520000D03*
X78740000Y-99060000D03*
X78740000Y-101600000D03*
X78740000Y-104140000D03*
X78740000Y-106680000D03*
X78740000Y-109220000D03*
X78740000Y-111760000D03*
X78740000Y-114300000D03*
X78740000Y-116840000D03*
X78740000Y-119380000D03*
X78740000Y-121920000D03*
X78740000Y-124460000D03*
X78740000Y-127000000D03*
X78740000Y-129540000D03*
X78740000Y-132080000D03*
D22*
X78740000Y-134620000D03*
%TD*%
%TO.C,X204*%
X48260000Y-170180000D03*
%TD*%
D25*
%TO.C,X203*%
X60960000Y-175260000D03*
X60960000Y-172720000D03*
X60960000Y-170180000D03*
X60960000Y-167640000D03*
X60960000Y-165100000D03*
D22*
X60960000Y-162560000D03*
%TD*%
%TO.C,X201*%
X48260000Y-177800000D03*
%TD*%
D25*
%TO.C,X200*%
X48260000Y-66040000D03*
X48260000Y-68580000D03*
X48260000Y-71120000D03*
X48260000Y-73660000D03*
X48260000Y-76200000D03*
X48260000Y-78740000D03*
X48260000Y-81280000D03*
X48260000Y-83820000D03*
X48260000Y-86360000D03*
X48260000Y-88900000D03*
X48260000Y-91440000D03*
X48260000Y-93980000D03*
X48260000Y-96520000D03*
X48260000Y-99060000D03*
X48260000Y-101600000D03*
X48260000Y-104140000D03*
X48260000Y-106680000D03*
X48260000Y-109220000D03*
X48260000Y-111760000D03*
X48260000Y-114300000D03*
X48260000Y-116840000D03*
X48260000Y-119380000D03*
X48260000Y-121920000D03*
X48260000Y-124460000D03*
X48260000Y-127000000D03*
X48260000Y-129540000D03*
X48260000Y-132080000D03*
X48260000Y-134620000D03*
D22*
X48260000Y-137160000D03*
%TD*%
D24*
%TO.C,R26*%
X104140000Y-53340000D03*
D15*
X106680000Y-53340000D03*
%TD*%
D24*
%TO.C,R24*%
X116840000Y-63500000D03*
D15*
X116840000Y-60960000D03*
%TD*%
D24*
%TO.C,R23*%
X119380000Y-60960000D03*
D15*
X119380000Y-63500000D03*
%TD*%
D24*
%TO.C,R22*%
X119380000Y-55880000D03*
D15*
X119380000Y-58420000D03*
%TD*%
D24*
%TO.C,R19*%
X127000000Y-63500000D03*
D15*
X127000000Y-60960000D03*
%TD*%
D24*
%TO.C,R18*%
X129540000Y-60960000D03*
D15*
X129540000Y-63500000D03*
%TD*%
D24*
%TO.C,R17*%
X129540000Y-55880000D03*
D15*
X129540000Y-58420000D03*
%TD*%
D24*
%TO.C,R14*%
X144780000Y-63500000D03*
D15*
X144780000Y-60960000D03*
%TD*%
D24*
%TO.C,R13*%
X147320000Y-60960000D03*
D15*
X147320000Y-63500000D03*
%TD*%
D24*
%TO.C,R12*%
X147320000Y-55880000D03*
D15*
X147320000Y-58420000D03*
%TD*%
D24*
%TO.C,R9*%
X154940000Y-63500000D03*
D15*
X154940000Y-60960000D03*
%TD*%
D24*
%TO.C,R8*%
X157480000Y-60960000D03*
D15*
X157480000Y-63500000D03*
%TD*%
D24*
%TO.C,R7*%
X157480000Y-55880000D03*
D15*
X157480000Y-58420000D03*
%TD*%
D24*
%TO.C,R4*%
X165100000Y-63500000D03*
D15*
X165100000Y-60960000D03*
%TD*%
D24*
%TO.C,R3*%
X167640000Y-60960000D03*
D15*
X167640000Y-63500000D03*
%TD*%
D24*
%TO.C,R2*%
X167640000Y-55880000D03*
D15*
X167640000Y-58420000D03*
%TD*%
%TO.C,C201*%
X78780000Y-203200000D03*
D16*
X81280000Y-203200000D03*
%TD*%
D15*
%TO.C,C200*%
X66040000Y-193120000D03*
X66040000Y-198120000D03*
%TD*%
%TO.C,C21*%
X119340000Y-53340000D03*
X116840000Y-53340000D03*
%TD*%
%TO.C,C16*%
X129500000Y-53340000D03*
X127000000Y-53340000D03*
%TD*%
%TO.C,C11*%
X147280000Y-53340000D03*
X144780000Y-53340000D03*
%TD*%
%TO.C,C6*%
X157440000Y-53340000D03*
X154940000Y-53340000D03*
%TD*%
%TO.C,C1*%
X167600000Y-53340000D03*
X165100000Y-53340000D03*
%TD*%
M02*
