%TF.GenerationSoftware,KiCad,Pcbnew,5.1.10*%
%TF.CreationDate,2022-02-01T20:50:29+01:00*%
%TF.ProjectId,Videoerweiterung,56696465-6f65-4727-9765-69746572756e,3*%
%TF.SameCoordinates,Original*%
%TF.FileFunction,Other,User*%
%FSLAX46Y46*%
G04 Gerber Fmt 4.6, Leading zero omitted, Abs format (unit mm)*
G04 Created by KiCad (PCBNEW 5.1.10) date 2022-02-01 20:50:29*
%MOMM*%
%LPD*%
G01*
G04 APERTURE LIST*
%ADD10C,0.050000*%
%ADD11C,0.120000*%
G04 APERTURE END LIST*
D10*
%TO.C,X206*%
X120020000Y-198880000D02*
X120020000Y-202440000D01*
X120020000Y-202440000D02*
X123820000Y-202440000D01*
X123820000Y-202440000D02*
X123820000Y-198880000D01*
X123820000Y-198880000D02*
X120020000Y-198880000D01*
X124820000Y-198880000D02*
X124820000Y-202440000D01*
X124820000Y-202440000D02*
X128620000Y-202440000D01*
X128620000Y-202440000D02*
X128620000Y-198880000D01*
X128620000Y-198880000D02*
X124820000Y-198880000D01*
%TO.C,C23*%
X179550000Y-193040000D02*
G75*
G03*
X179550000Y-193040000I-4250000J0D01*
G01*
D11*
%TO.C,X401*%
X166800000Y-86600000D02*
X185800000Y-86600000D01*
X166800000Y-65400000D02*
X166800000Y-86600000D01*
X185800000Y-65400000D02*
X166800000Y-65400000D01*
X185800000Y-65400000D02*
X185800000Y-86600000D01*
D10*
%TO.C,VT404*%
X161310000Y-52630000D02*
X161310000Y-59130000D01*
X163860000Y-52630000D02*
X161310000Y-52630000D01*
X163860000Y-59130000D02*
X163860000Y-52630000D01*
X161310000Y-59130000D02*
X163860000Y-59130000D01*
%TO.C,VT403*%
X151150000Y-52630000D02*
X151150000Y-59130000D01*
X153700000Y-52630000D02*
X151150000Y-52630000D01*
X153700000Y-59130000D02*
X153700000Y-52630000D01*
X151150000Y-59130000D02*
X153700000Y-59130000D01*
%TO.C,VT402*%
X140990000Y-52630000D02*
X140990000Y-59130000D01*
X143540000Y-52630000D02*
X140990000Y-52630000D01*
X143540000Y-59130000D02*
X143540000Y-52630000D01*
X140990000Y-59130000D02*
X143540000Y-59130000D01*
%TO.C,VT401*%
X123210000Y-52630000D02*
X123210000Y-59130000D01*
X125760000Y-52630000D02*
X123210000Y-52630000D01*
X125760000Y-59130000D02*
X125760000Y-52630000D01*
X123210000Y-59130000D02*
X125760000Y-59130000D01*
%TO.C,VT400*%
X113050000Y-52630000D02*
X113050000Y-59130000D01*
X115600000Y-52630000D02*
X113050000Y-52630000D01*
X115600000Y-59130000D02*
X115600000Y-52630000D01*
X113050000Y-59130000D02*
X115600000Y-59130000D01*
%TO.C,VT201*%
X62790000Y-206990000D02*
X69290000Y-206990000D01*
X62790000Y-204440000D02*
X62790000Y-206990000D01*
X69290000Y-204440000D02*
X62790000Y-204440000D01*
X69290000Y-206990000D02*
X69290000Y-204440000D01*
%TO.C,VT200*%
X75510000Y-199370000D02*
X82010000Y-199370000D01*
X75510000Y-196820000D02*
X75510000Y-199370000D01*
X82010000Y-196820000D02*
X75510000Y-196820000D01*
X82010000Y-199370000D02*
X82010000Y-196820000D01*
%TO.C,VD203*%
X82240000Y-143530000D02*
X77740000Y-143530000D01*
X82240000Y-146080000D02*
X82240000Y-143530000D01*
X77740000Y-146080000D02*
X82240000Y-146080000D01*
X77740000Y-143530000D02*
X77740000Y-146080000D01*
%TO.C,R212*%
X67330000Y-146070000D02*
X67330000Y-148570000D01*
X67330000Y-148570000D02*
X82530000Y-148570000D01*
X82530000Y-148570000D02*
X82530000Y-146070000D01*
X82530000Y-146070000D02*
X67330000Y-146070000D01*
%TO.C,TP201*%
X174520000Y-203940000D02*
X170920000Y-203940000D01*
X174520000Y-207540000D02*
X174520000Y-203940000D01*
X170920000Y-207540000D02*
X174520000Y-207540000D01*
X170920000Y-203940000D02*
X170920000Y-207540000D01*
%TO.C,H3*%
X182910000Y-55480000D02*
G75*
G03*
X182910000Y-55480000I-3050000J0D01*
G01*
%TO.C,X205*%
X50060000Y-182140000D02*
X50060000Y-178540000D01*
X50060000Y-178540000D02*
X37710000Y-178540000D01*
X37710000Y-178540000D02*
X37710000Y-182140000D01*
X37710000Y-182140000D02*
X50060000Y-182140000D01*
%TO.C,R409*%
X177110000Y-59470000D02*
X177110000Y-54030000D01*
X173410000Y-59470000D02*
X177110000Y-59470000D01*
X173410000Y-54030000D02*
X173410000Y-59470000D01*
X177110000Y-54030000D02*
X173410000Y-54030000D01*
%TO.C,R408*%
X176310000Y-51490000D02*
X170870000Y-51490000D01*
X176310000Y-55190000D02*
X176310000Y-51490000D01*
X170870000Y-55190000D02*
X176310000Y-55190000D01*
X170870000Y-51490000D02*
X170870000Y-55190000D01*
%TO.C,R407*%
X170870000Y-54830000D02*
X170870000Y-60270000D01*
X174570000Y-54830000D02*
X170870000Y-54830000D01*
X174570000Y-60270000D02*
X174570000Y-54830000D01*
X170870000Y-60270000D02*
X174570000Y-60270000D01*
%TO.C,R406*%
X172030000Y-59470000D02*
X172030000Y-54030000D01*
X168330000Y-59470000D02*
X172030000Y-59470000D01*
X168330000Y-54030000D02*
X168330000Y-59470000D01*
X172030000Y-54030000D02*
X168330000Y-54030000D01*
%TO.C,R405*%
X181030000Y-59910000D02*
X181030000Y-65350000D01*
X184730000Y-59910000D02*
X181030000Y-59910000D01*
X184730000Y-65350000D02*
X184730000Y-59910000D01*
X181030000Y-65350000D02*
X184730000Y-65350000D01*
%TO.C,R404*%
X182190000Y-64550000D02*
X182190000Y-59110000D01*
X178490000Y-64550000D02*
X182190000Y-64550000D01*
X178490000Y-59110000D02*
X178490000Y-64550000D01*
X182190000Y-59110000D02*
X178490000Y-59110000D01*
%TO.C,R403*%
X177110000Y-64550000D02*
X177110000Y-59110000D01*
X173410000Y-64550000D02*
X177110000Y-64550000D01*
X173410000Y-59110000D02*
X173410000Y-64550000D01*
X177110000Y-59110000D02*
X173410000Y-59110000D01*
%TO.C,R402*%
X175950000Y-59910000D02*
X175950000Y-65350000D01*
X179650000Y-59910000D02*
X175950000Y-59910000D01*
X179650000Y-65350000D02*
X179650000Y-59910000D01*
X175950000Y-65350000D02*
X179650000Y-65350000D01*
%TO.C,R401*%
X170870000Y-59910000D02*
X170870000Y-65350000D01*
X174570000Y-59910000D02*
X170870000Y-59910000D01*
X174570000Y-65350000D02*
X174570000Y-59910000D01*
X170870000Y-65350000D02*
X174570000Y-65350000D01*
%TO.C,TP404*%
X161820000Y-51540000D02*
X158220000Y-51540000D01*
X161820000Y-55140000D02*
X161820000Y-51540000D01*
X158220000Y-55140000D02*
X161820000Y-55140000D01*
X158220000Y-51540000D02*
X158220000Y-55140000D01*
%TO.C,TP403*%
X151660000Y-51540000D02*
X148060000Y-51540000D01*
X151660000Y-55140000D02*
X151660000Y-51540000D01*
X148060000Y-55140000D02*
X151660000Y-55140000D01*
X148060000Y-51540000D02*
X148060000Y-55140000D01*
%TO.C,TP402*%
X141500000Y-51540000D02*
X137900000Y-51540000D01*
X141500000Y-55140000D02*
X141500000Y-51540000D01*
X137900000Y-55140000D02*
X141500000Y-55140000D01*
X137900000Y-51540000D02*
X137900000Y-55140000D01*
%TO.C,TP401*%
X123720000Y-51540000D02*
X120120000Y-51540000D01*
X123720000Y-55140000D02*
X123720000Y-51540000D01*
X120120000Y-55140000D02*
X123720000Y-55140000D01*
X120120000Y-51540000D02*
X120120000Y-55140000D01*
%TO.C,TP400*%
X113560000Y-51540000D02*
X109960000Y-51540000D01*
X113560000Y-55140000D02*
X113560000Y-51540000D01*
X109960000Y-55140000D02*
X113560000Y-55140000D01*
X109960000Y-51540000D02*
X109960000Y-55140000D01*
%TO.C,R501*%
X111070000Y-62010000D02*
X111070000Y-56570000D01*
X107370000Y-62010000D02*
X111070000Y-62010000D01*
X107370000Y-56570000D02*
X107370000Y-62010000D01*
X111070000Y-56570000D02*
X107370000Y-56570000D01*
%TO.C,JP507*%
X94720000Y-50270000D02*
X94720000Y-53870000D01*
X100870000Y-50270000D02*
X94720000Y-50270000D01*
X100870000Y-53870000D02*
X100870000Y-50270000D01*
X94720000Y-53870000D02*
X100870000Y-53870000D01*
%TO.C,JP506*%
X123800000Y-68600000D02*
X120200000Y-68600000D01*
X123800000Y-74750000D02*
X123800000Y-68600000D01*
X120200000Y-74750000D02*
X123800000Y-74750000D01*
X120200000Y-68600000D02*
X120200000Y-74750000D01*
%TO.C,JP505*%
X105940000Y-56620000D02*
X102340000Y-56620000D01*
X105940000Y-62770000D02*
X105940000Y-56620000D01*
X102340000Y-62770000D02*
X105940000Y-62770000D01*
X102340000Y-56620000D02*
X102340000Y-62770000D01*
%TO.C,JP504*%
X83080000Y-56620000D02*
X79480000Y-56620000D01*
X83080000Y-62770000D02*
X83080000Y-56620000D01*
X79480000Y-62770000D02*
X83080000Y-62770000D01*
X79480000Y-56620000D02*
X79480000Y-62770000D01*
%TO.C,JP503*%
X83080000Y-60220000D02*
X83080000Y-56620000D01*
X76930000Y-60220000D02*
X83080000Y-60220000D01*
X76930000Y-56620000D02*
X76930000Y-60220000D01*
X83080000Y-56620000D02*
X76930000Y-56620000D01*
%TO.C,JP502*%
X94720000Y-65510000D02*
X94720000Y-69110000D01*
X100870000Y-65510000D02*
X94720000Y-65510000D01*
X100870000Y-69110000D02*
X100870000Y-65510000D01*
X94720000Y-69110000D02*
X100870000Y-69110000D01*
%TO.C,JP501*%
X83080000Y-54080000D02*
X79480000Y-54080000D01*
X83080000Y-60230000D02*
X83080000Y-54080000D01*
X79480000Y-60230000D02*
X83080000Y-60230000D01*
X79480000Y-54080000D02*
X79480000Y-60230000D01*
%TO.C,VD201*%
X72170000Y-204740000D02*
X70070000Y-204740000D01*
X70070000Y-204740000D02*
X70070000Y-209330000D01*
X70070000Y-209330000D02*
X72170000Y-209330000D01*
X72170000Y-209330000D02*
X72170000Y-204740000D01*
%TO.C,C18*%
X105630000Y-194380000D02*
X105630000Y-196780000D01*
X105630000Y-196780000D02*
X112730000Y-196780000D01*
X112730000Y-196780000D02*
X112730000Y-194380000D01*
X112730000Y-194380000D02*
X105630000Y-194380000D01*
%TO.C,C24*%
X72170000Y-199170000D02*
X72170000Y-197070000D01*
X72170000Y-197070000D02*
X67570000Y-197070000D01*
X67570000Y-197070000D02*
X67570000Y-199170000D01*
X67570000Y-199170000D02*
X72170000Y-199170000D01*
%TO.C,X202*%
X50060000Y-177060000D02*
X50060000Y-170910000D01*
X50060000Y-170910000D02*
X37710000Y-170910000D01*
X37710000Y-170910000D02*
X37710000Y-177060000D01*
X37710000Y-177060000D02*
X50060000Y-177060000D01*
%TO.C,C22*%
X178850000Y-186620000D02*
X178850000Y-184220000D01*
X178850000Y-184220000D02*
X171750000Y-184220000D01*
X171750000Y-184220000D02*
X171750000Y-186620000D01*
X171750000Y-186620000D02*
X178850000Y-186620000D01*
%TO.C,C20*%
X179284924Y-149860000D02*
X177800000Y-148375076D01*
X177800000Y-148375076D02*
X174547309Y-151627767D01*
X174547309Y-151627767D02*
X176032233Y-153112691D01*
X176032233Y-153112691D02*
X179284924Y-149860000D01*
%TO.C,C19*%
X155454230Y-130570673D02*
X153375770Y-131770673D01*
X153375770Y-131770673D02*
X156925770Y-137919454D01*
X156925770Y-137919454D02*
X159004230Y-136719454D01*
X159004230Y-136719454D02*
X155454230Y-130570673D01*
%TO.C,C17*%
X62010000Y-181830000D02*
X59910000Y-181830000D01*
X59910000Y-181830000D02*
X59910000Y-186430000D01*
X59910000Y-186430000D02*
X62010000Y-186430000D01*
X62010000Y-186430000D02*
X62010000Y-181830000D01*
%TO.C,C15*%
X72610000Y-171230000D02*
X74710000Y-171230000D01*
X74710000Y-171230000D02*
X74710000Y-166630000D01*
X74710000Y-166630000D02*
X72610000Y-166630000D01*
X72610000Y-166630000D02*
X72610000Y-171230000D01*
%TO.C,C14*%
X95470000Y-143730000D02*
X95470000Y-145830000D01*
X95470000Y-145830000D02*
X100070000Y-145830000D01*
X100070000Y-145830000D02*
X100070000Y-143730000D01*
X100070000Y-143730000D02*
X95470000Y-143730000D01*
%TO.C,C13*%
X153890000Y-92490000D02*
X155990000Y-92490000D01*
X155990000Y-92490000D02*
X155990000Y-87890000D01*
X155990000Y-87890000D02*
X153890000Y-87890000D01*
X153890000Y-87890000D02*
X153890000Y-92490000D01*
%TO.C,C12*%
X128050000Y-64990000D02*
X125950000Y-64990000D01*
X125950000Y-64990000D02*
X125950000Y-69590000D01*
X125950000Y-69590000D02*
X128050000Y-69590000D01*
X128050000Y-69590000D02*
X128050000Y-64990000D01*
%TO.C,C10*%
X125950000Y-92490000D02*
X128050000Y-92490000D01*
X128050000Y-92490000D02*
X128050000Y-87890000D01*
X128050000Y-87890000D02*
X125950000Y-87890000D01*
X125950000Y-87890000D02*
X125950000Y-92490000D01*
%TO.C,C9*%
X62450000Y-92490000D02*
X64550000Y-92490000D01*
X64550000Y-92490000D02*
X64550000Y-87890000D01*
X64550000Y-87890000D02*
X62450000Y-87890000D01*
X62450000Y-87890000D02*
X62450000Y-92490000D01*
%TO.C,C8*%
X117890000Y-64990000D02*
X115790000Y-64990000D01*
X115790000Y-64990000D02*
X115790000Y-69590000D01*
X115790000Y-69590000D02*
X117890000Y-69590000D01*
X117890000Y-69590000D02*
X117890000Y-64990000D01*
%TO.C,C7*%
X98010000Y-92490000D02*
X100110000Y-92490000D01*
X100110000Y-92490000D02*
X100110000Y-87890000D01*
X100110000Y-87890000D02*
X98010000Y-87890000D01*
X98010000Y-87890000D02*
X98010000Y-92490000D01*
%TO.C,C5*%
X171230000Y-59910000D02*
X169130000Y-59910000D01*
X169130000Y-59910000D02*
X169130000Y-64510000D01*
X169130000Y-64510000D02*
X171230000Y-64510000D01*
X171230000Y-64510000D02*
X171230000Y-59910000D01*
%TO.C,C4*%
X77644924Y-66040000D02*
X76160000Y-64555076D01*
X76160000Y-64555076D02*
X72907309Y-67807767D01*
X72907309Y-67807767D02*
X74392233Y-69292691D01*
X74392233Y-69292691D02*
X77644924Y-66040000D01*
%TO.C,C3*%
X135820000Y-174210000D02*
X133420000Y-174210000D01*
X133420000Y-174210000D02*
X133420000Y-181310000D01*
X133420000Y-181310000D02*
X135820000Y-181310000D01*
X135820000Y-181310000D02*
X135820000Y-174210000D01*
%TO.C,C2*%
X61130000Y-64590000D02*
X50630000Y-64590000D01*
X50630000Y-64590000D02*
X50630000Y-97570000D01*
X50630000Y-97570000D02*
X61130000Y-97570000D01*
X61130000Y-97570000D02*
X61130000Y-64590000D01*
%TO.C,X405*%
X132820000Y-51540000D02*
X132820000Y-55140000D01*
X132820000Y-55140000D02*
X136420000Y-55140000D01*
X136420000Y-55140000D02*
X136420000Y-51540000D01*
X136420000Y-51540000D02*
X132820000Y-51540000D01*
%TO.C,C202*%
X89950000Y-166600000D02*
X89950000Y-163600000D01*
X89950000Y-163600000D02*
X82850000Y-163600000D01*
X82850000Y-163600000D02*
X82850000Y-166600000D01*
X82850000Y-166600000D02*
X89950000Y-166600000D01*
%TO.C,R20*%
X120070000Y-65350000D02*
X123770000Y-65350000D01*
X123770000Y-65350000D02*
X123770000Y-59910000D01*
X123770000Y-59910000D02*
X120070000Y-59910000D01*
X120070000Y-59910000D02*
X120070000Y-65350000D01*
%TO.C,VD405*%
X163850000Y-59420000D02*
X166400000Y-59420000D01*
X166400000Y-59420000D02*
X166400000Y-54920000D01*
X166400000Y-54920000D02*
X163850000Y-54920000D01*
X163850000Y-54920000D02*
X163850000Y-59420000D01*
%TO.C,VD404*%
X153690000Y-59420000D02*
X156240000Y-59420000D01*
X156240000Y-59420000D02*
X156240000Y-54920000D01*
X156240000Y-54920000D02*
X153690000Y-54920000D01*
X153690000Y-54920000D02*
X153690000Y-59420000D01*
%TO.C,VD403*%
X143530000Y-59420000D02*
X146080000Y-59420000D01*
X146080000Y-59420000D02*
X146080000Y-54920000D01*
X146080000Y-54920000D02*
X143530000Y-54920000D01*
X143530000Y-54920000D02*
X143530000Y-59420000D01*
%TO.C,VD402*%
X125750000Y-59420000D02*
X128300000Y-59420000D01*
X128300000Y-59420000D02*
X128300000Y-54920000D01*
X128300000Y-54920000D02*
X125750000Y-54920000D01*
X125750000Y-54920000D02*
X125750000Y-59420000D01*
%TO.C,VD401*%
X115590000Y-59420000D02*
X118140000Y-59420000D01*
X118140000Y-59420000D02*
X118140000Y-54920000D01*
X118140000Y-54920000D02*
X115590000Y-54920000D01*
X115590000Y-54920000D02*
X115590000Y-59420000D01*
%TO.C,VD400*%
X105680000Y-54630000D02*
X105680000Y-57180000D01*
X105680000Y-57180000D02*
X110180000Y-57180000D01*
X110180000Y-57180000D02*
X110180000Y-54630000D01*
X110180000Y-54630000D02*
X105680000Y-54630000D01*
%TO.C,VD202*%
X67580000Y-166390000D02*
X67580000Y-168940000D01*
X67580000Y-168940000D02*
X72080000Y-168940000D01*
X72080000Y-168940000D02*
X72080000Y-166390000D01*
X72080000Y-166390000D02*
X67580000Y-166390000D01*
%TO.C,VD200*%
X74950000Y-204200000D02*
X77500000Y-204200000D01*
X77500000Y-204200000D02*
X77500000Y-199700000D01*
X77500000Y-199700000D02*
X74950000Y-199700000D01*
X74950000Y-199700000D02*
X74950000Y-204200000D01*
%TO.C,D21*%
X49250000Y-178740000D02*
X49250000Y-199740000D01*
X49250000Y-199740000D02*
X59950000Y-199740000D01*
X59950000Y-199740000D02*
X59950000Y-178740000D01*
X59950000Y-178740000D02*
X49250000Y-178740000D01*
%TO.C,D20*%
X49250000Y-153340000D02*
X49250000Y-174340000D01*
X49250000Y-174340000D02*
X59950000Y-174340000D01*
X59950000Y-174340000D02*
X59950000Y-153340000D01*
X59950000Y-153340000D02*
X49250000Y-153340000D01*
%TO.C,D19*%
X64490000Y-171120000D02*
X64490000Y-189570000D01*
X64490000Y-189570000D02*
X75190000Y-189570000D01*
X75190000Y-189570000D02*
X75190000Y-171120000D01*
X75190000Y-171120000D02*
X64490000Y-171120000D01*
%TO.C,D18*%
X64490000Y-148260000D02*
X64490000Y-166710000D01*
X64490000Y-166710000D02*
X75190000Y-166710000D01*
X75190000Y-166710000D02*
X75190000Y-148260000D01*
X75190000Y-148260000D02*
X64490000Y-148260000D01*
%TO.C,D17*%
X59410000Y-120320000D02*
X59410000Y-146370000D01*
X59410000Y-146370000D02*
X70110000Y-146370000D01*
X70110000Y-146370000D02*
X70110000Y-120320000D01*
X70110000Y-120320000D02*
X59410000Y-120320000D01*
%TO.C,D16*%
X77750000Y-118440000D02*
X77750000Y-92390000D01*
X77750000Y-92390000D02*
X67050000Y-92390000D01*
X67050000Y-92390000D02*
X67050000Y-118440000D01*
X67050000Y-118440000D02*
X77750000Y-118440000D01*
%TO.C,D15*%
X61950000Y-61900000D02*
X61950000Y-87950000D01*
X61950000Y-87950000D02*
X72650000Y-87950000D01*
X72650000Y-87950000D02*
X72650000Y-61900000D01*
X72650000Y-61900000D02*
X61950000Y-61900000D01*
%TO.C,D14*%
X89840000Y-207290000D02*
X108290000Y-207290000D01*
X108290000Y-207290000D02*
X108290000Y-196590000D01*
X108290000Y-196590000D02*
X89840000Y-196590000D01*
X89840000Y-196590000D02*
X89840000Y-207290000D01*
%TO.C,D13*%
X77140000Y-186970000D02*
X128590000Y-186970000D01*
X128590000Y-186970000D02*
X128590000Y-168620000D01*
X128590000Y-168620000D02*
X77140000Y-168620000D01*
X77140000Y-168620000D02*
X77140000Y-186970000D01*
%TO.C,D12*%
X92990000Y-113360000D02*
X92990000Y-87310000D01*
X92990000Y-87310000D02*
X82290000Y-87310000D01*
X82290000Y-87310000D02*
X82290000Y-113360000D01*
X82290000Y-113360000D02*
X92990000Y-113360000D01*
%TO.C,D11*%
X105690000Y-118440000D02*
X105690000Y-92390000D01*
X105690000Y-92390000D02*
X94990000Y-92390000D01*
X94990000Y-92390000D02*
X94990000Y-118440000D01*
X94990000Y-118440000D02*
X105690000Y-118440000D01*
%TO.C,D10*%
X94920000Y-156490000D02*
X115920000Y-156490000D01*
X115920000Y-156490000D02*
X115920000Y-145790000D01*
X115920000Y-145790000D02*
X94920000Y-145790000D01*
X94920000Y-145790000D02*
X94920000Y-156490000D01*
%TO.C,D9*%
X120930000Y-113360000D02*
X120930000Y-87310000D01*
X120930000Y-87310000D02*
X110230000Y-87310000D01*
X110230000Y-87310000D02*
X110230000Y-113360000D01*
X110230000Y-113360000D02*
X120930000Y-113360000D01*
%TO.C,D8*%
X120320000Y-156490000D02*
X146370000Y-156490000D01*
X146370000Y-156490000D02*
X146370000Y-145790000D01*
X146370000Y-145790000D02*
X120320000Y-145790000D01*
X120320000Y-145790000D02*
X120320000Y-156490000D01*
%TO.C,D7*%
X133630000Y-118440000D02*
X133630000Y-92390000D01*
X133630000Y-92390000D02*
X122930000Y-92390000D01*
X122930000Y-92390000D02*
X122930000Y-118440000D01*
X122930000Y-118440000D02*
X133630000Y-118440000D01*
%TO.C,D6*%
X169240000Y-183870000D02*
X138090000Y-183870000D01*
X138090000Y-183870000D02*
X138090000Y-202220000D01*
X138090000Y-202220000D02*
X169240000Y-202220000D01*
X169240000Y-202220000D02*
X169240000Y-183870000D01*
%TO.C,D5*%
X138100000Y-179350000D02*
X169250000Y-179350000D01*
X169250000Y-179350000D02*
X169250000Y-161000000D01*
X169250000Y-161000000D02*
X138100000Y-161000000D01*
X138100000Y-161000000D02*
X138100000Y-179350000D01*
%TO.C,D4*%
X148870000Y-113360000D02*
X148870000Y-87310000D01*
X148870000Y-87310000D02*
X138170000Y-87310000D01*
X138170000Y-87310000D02*
X138170000Y-113360000D01*
X138170000Y-113360000D02*
X148870000Y-113360000D01*
%TO.C,D3*%
X161570000Y-118440000D02*
X161570000Y-92390000D01*
X161570000Y-92390000D02*
X150870000Y-92390000D01*
X150870000Y-92390000D02*
X150870000Y-118440000D01*
X150870000Y-118440000D02*
X161570000Y-118440000D01*
%TO.C,D2*%
X148260000Y-156490000D02*
X174310000Y-156490000D01*
X174310000Y-156490000D02*
X174310000Y-145790000D01*
X174310000Y-145790000D02*
X148260000Y-145790000D01*
X148260000Y-145790000D02*
X148260000Y-156490000D01*
%TO.C,D1*%
X176810000Y-113360000D02*
X176810000Y-87310000D01*
X176810000Y-87310000D02*
X166110000Y-87310000D01*
X166110000Y-87310000D02*
X166110000Y-113360000D01*
X166110000Y-113360000D02*
X176810000Y-113360000D01*
%TO.C,D0*%
X82220000Y-65050000D02*
X103220000Y-65050000D01*
X103220000Y-65050000D02*
X103220000Y-54350000D01*
X103220000Y-54350000D02*
X82220000Y-54350000D01*
X82220000Y-54350000D02*
X82220000Y-65050000D01*
%TO.C,H4*%
X182910000Y-203480000D02*
G75*
G03*
X182910000Y-203480000I-3050000J0D01*
G01*
%TO.C,H2*%
X52910000Y-203480000D02*
G75*
G03*
X52910000Y-203480000I-3050000J0D01*
G01*
%TO.C,H1*%
X52910000Y-55480000D02*
G75*
G03*
X52910000Y-55480000I-3050000J0D01*
G01*
%TO.C,R211*%
X115590000Y-128290000D02*
X115590000Y-143490000D01*
X118090000Y-128290000D02*
X115590000Y-128290000D01*
X118090000Y-143490000D02*
X118090000Y-128290000D01*
X115590000Y-143490000D02*
X118090000Y-143490000D01*
%TO.C,R210*%
X85070000Y-161270000D02*
X85070000Y-146070000D01*
X82570000Y-161270000D02*
X85070000Y-161270000D01*
X82570000Y-146070000D02*
X82570000Y-161270000D01*
X85070000Y-146070000D02*
X82570000Y-146070000D01*
%TO.C,R209*%
X87610000Y-158730000D02*
X87610000Y-143530000D01*
X85110000Y-158730000D02*
X87610000Y-158730000D01*
X85110000Y-143530000D02*
X85110000Y-158730000D01*
X87610000Y-143530000D02*
X85110000Y-143530000D01*
%TO.C,R208*%
X87650000Y-143490000D02*
X102850000Y-143490000D01*
X87650000Y-140990000D02*
X87650000Y-143490000D01*
X102850000Y-140990000D02*
X87650000Y-140990000D01*
X102850000Y-143490000D02*
X102850000Y-140990000D01*
%TO.C,R207*%
X95270000Y-140950000D02*
X110470000Y-140950000D01*
X95270000Y-138450000D02*
X95270000Y-140950000D01*
X110470000Y-138450000D02*
X95270000Y-138450000D01*
X110470000Y-140950000D02*
X110470000Y-138450000D01*
%TO.C,R206*%
X82530000Y-163810000D02*
X82530000Y-148610000D01*
X80030000Y-163810000D02*
X82530000Y-163810000D01*
X80030000Y-148610000D02*
X80030000Y-163810000D01*
X82530000Y-148610000D02*
X80030000Y-148610000D01*
%TO.C,R205*%
X92690000Y-189250000D02*
X77490000Y-189250000D01*
X92690000Y-191750000D02*
X92690000Y-189250000D01*
X77490000Y-191750000D02*
X92690000Y-191750000D01*
X77490000Y-189250000D02*
X77490000Y-191750000D01*
%TO.C,R204*%
X62250000Y-186510000D02*
X62250000Y-201710000D01*
X64750000Y-186510000D02*
X62250000Y-186510000D01*
X64750000Y-201710000D02*
X64750000Y-186510000D01*
X62250000Y-201710000D02*
X64750000Y-201710000D01*
%TO.C,R203*%
X85110000Y-191790000D02*
X85110000Y-206990000D01*
X87610000Y-191790000D02*
X85110000Y-191790000D01*
X87610000Y-206990000D02*
X87610000Y-191790000D01*
X85110000Y-206990000D02*
X87610000Y-206990000D01*
%TO.C,R202*%
X85070000Y-209530000D02*
X85070000Y-194330000D01*
X82570000Y-209530000D02*
X85070000Y-209530000D01*
X82570000Y-194330000D02*
X82570000Y-209530000D01*
X85070000Y-194330000D02*
X82570000Y-194330000D01*
%TO.C,R201*%
X85070000Y-191790000D02*
X69870000Y-191790000D01*
X85070000Y-194290000D02*
X85070000Y-191790000D01*
X69870000Y-194290000D02*
X85070000Y-194290000D01*
X69870000Y-191790000D02*
X69870000Y-194290000D01*
%TO.C,R200*%
X67330000Y-196830000D02*
X82530000Y-196830000D01*
X67330000Y-194330000D02*
X67330000Y-196830000D01*
X82530000Y-194330000D02*
X67330000Y-194330000D01*
X82530000Y-196830000D02*
X82530000Y-194330000D01*
%TO.C,R25*%
X110510000Y-54630000D02*
X110510000Y-69830000D01*
X113010000Y-54630000D02*
X110510000Y-54630000D01*
X113010000Y-69830000D02*
X113010000Y-54630000D01*
X110510000Y-69830000D02*
X113010000Y-69830000D01*
%TO.C,R15*%
X138450000Y-57170000D02*
X138450000Y-72370000D01*
X140950000Y-57170000D02*
X138450000Y-57170000D01*
X140950000Y-72370000D02*
X140950000Y-57170000D01*
X138450000Y-72370000D02*
X140950000Y-72370000D01*
%TO.C,R10*%
X148610000Y-57170000D02*
X148610000Y-72370000D01*
X151110000Y-57170000D02*
X148610000Y-57170000D01*
X151110000Y-72370000D02*
X151110000Y-57170000D01*
X148610000Y-72370000D02*
X151110000Y-72370000D01*
%TO.C,R5*%
X158770000Y-57170000D02*
X158770000Y-72370000D01*
X161270000Y-57170000D02*
X158770000Y-57170000D01*
X161270000Y-72370000D02*
X161270000Y-57170000D01*
X158770000Y-72370000D02*
X161270000Y-72370000D01*
%TO.C,X303*%
X136420000Y-61720000D02*
X136420000Y-136420000D01*
X132870000Y-61720000D02*
X136420000Y-61720000D01*
X132870000Y-136420000D02*
X132870000Y-61720000D01*
X136420000Y-136420000D02*
X132870000Y-136420000D01*
%TO.C,X302*%
X108480000Y-61720000D02*
X108480000Y-136420000D01*
X104930000Y-61720000D02*
X108480000Y-61720000D01*
X104930000Y-136420000D02*
X104930000Y-61720000D01*
X108480000Y-136420000D02*
X104930000Y-136420000D01*
%TO.C,X301*%
X164360000Y-61720000D02*
X164360000Y-136420000D01*
X160810000Y-61720000D02*
X164360000Y-61720000D01*
X160810000Y-136420000D02*
X160810000Y-61720000D01*
X164360000Y-136420000D02*
X160810000Y-136420000D01*
%TO.C,X300*%
X80540000Y-61720000D02*
X80540000Y-136420000D01*
X76990000Y-61720000D02*
X80540000Y-61720000D01*
X76990000Y-136420000D02*
X76990000Y-61720000D01*
X80540000Y-136420000D02*
X76990000Y-136420000D01*
%TO.C,X204*%
X37710000Y-171980000D02*
X50060000Y-171980000D01*
X37710000Y-168380000D02*
X37710000Y-171980000D01*
X50060000Y-168380000D02*
X37710000Y-168380000D01*
X50060000Y-171980000D02*
X50060000Y-168380000D01*
%TO.C,X203*%
X62760000Y-160760000D02*
X59160000Y-160760000D01*
X62760000Y-177060000D02*
X62760000Y-160760000D01*
X59160000Y-177060000D02*
X62760000Y-177060000D01*
X59160000Y-160760000D02*
X59160000Y-177060000D01*
%TO.C,X201*%
X37710000Y-179600000D02*
X50060000Y-179600000D01*
X37710000Y-176000000D02*
X37710000Y-179600000D01*
X50060000Y-176000000D02*
X37710000Y-176000000D01*
X50060000Y-179600000D02*
X50060000Y-176000000D01*
%TO.C,X200*%
X37710000Y-138960000D02*
X50060000Y-138960000D01*
X37710000Y-64260000D02*
X37710000Y-138960000D01*
X50060000Y-64260000D02*
X37710000Y-64260000D01*
X50060000Y-138960000D02*
X50060000Y-64260000D01*
%TO.C,R26*%
X103090000Y-55190000D02*
X108530000Y-55190000D01*
X103090000Y-51490000D02*
X103090000Y-55190000D01*
X108530000Y-51490000D02*
X103090000Y-51490000D01*
X108530000Y-55190000D02*
X108530000Y-51490000D01*
%TO.C,R24*%
X118690000Y-64550000D02*
X118690000Y-59110000D01*
X114990000Y-64550000D02*
X118690000Y-64550000D01*
X114990000Y-59110000D02*
X114990000Y-64550000D01*
X118690000Y-59110000D02*
X114990000Y-59110000D01*
%TO.C,R23*%
X117530000Y-59910000D02*
X117530000Y-65350000D01*
X121230000Y-59910000D02*
X117530000Y-59910000D01*
X121230000Y-65350000D02*
X121230000Y-59910000D01*
X117530000Y-65350000D02*
X121230000Y-65350000D01*
%TO.C,R22*%
X117530000Y-54830000D02*
X117530000Y-60270000D01*
X121230000Y-54830000D02*
X117530000Y-54830000D01*
X121230000Y-60270000D02*
X121230000Y-54830000D01*
X117530000Y-60270000D02*
X121230000Y-60270000D01*
%TO.C,R19*%
X128850000Y-64550000D02*
X128850000Y-59110000D01*
X125150000Y-64550000D02*
X128850000Y-64550000D01*
X125150000Y-59110000D02*
X125150000Y-64550000D01*
X128850000Y-59110000D02*
X125150000Y-59110000D01*
%TO.C,R18*%
X127690000Y-59910000D02*
X127690000Y-65350000D01*
X131390000Y-59910000D02*
X127690000Y-59910000D01*
X131390000Y-65350000D02*
X131390000Y-59910000D01*
X127690000Y-65350000D02*
X131390000Y-65350000D01*
%TO.C,R17*%
X127690000Y-54830000D02*
X127690000Y-60270000D01*
X131390000Y-54830000D02*
X127690000Y-54830000D01*
X131390000Y-60270000D02*
X131390000Y-54830000D01*
X127690000Y-60270000D02*
X131390000Y-60270000D01*
%TO.C,R14*%
X146630000Y-64550000D02*
X146630000Y-59110000D01*
X142930000Y-64550000D02*
X146630000Y-64550000D01*
X142930000Y-59110000D02*
X142930000Y-64550000D01*
X146630000Y-59110000D02*
X142930000Y-59110000D01*
%TO.C,R13*%
X145470000Y-59910000D02*
X145470000Y-65350000D01*
X149170000Y-59910000D02*
X145470000Y-59910000D01*
X149170000Y-65350000D02*
X149170000Y-59910000D01*
X145470000Y-65350000D02*
X149170000Y-65350000D01*
%TO.C,R12*%
X145470000Y-54830000D02*
X145470000Y-60270000D01*
X149170000Y-54830000D02*
X145470000Y-54830000D01*
X149170000Y-60270000D02*
X149170000Y-54830000D01*
X145470000Y-60270000D02*
X149170000Y-60270000D01*
%TO.C,R9*%
X156790000Y-64550000D02*
X156790000Y-59110000D01*
X153090000Y-64550000D02*
X156790000Y-64550000D01*
X153090000Y-59110000D02*
X153090000Y-64550000D01*
X156790000Y-59110000D02*
X153090000Y-59110000D01*
%TO.C,R8*%
X155630000Y-59910000D02*
X155630000Y-65350000D01*
X159330000Y-59910000D02*
X155630000Y-59910000D01*
X159330000Y-65350000D02*
X159330000Y-59910000D01*
X155630000Y-65350000D02*
X159330000Y-65350000D01*
%TO.C,R7*%
X155630000Y-54830000D02*
X155630000Y-60270000D01*
X159330000Y-54830000D02*
X155630000Y-54830000D01*
X159330000Y-60270000D02*
X159330000Y-54830000D01*
X155630000Y-60270000D02*
X159330000Y-60270000D01*
%TO.C,R4*%
X166950000Y-64550000D02*
X166950000Y-59110000D01*
X163250000Y-64550000D02*
X166950000Y-64550000D01*
X163250000Y-59110000D02*
X163250000Y-64550000D01*
X166950000Y-59110000D02*
X163250000Y-59110000D01*
%TO.C,R3*%
X165790000Y-59910000D02*
X165790000Y-65350000D01*
X169490000Y-59910000D02*
X165790000Y-59910000D01*
X169490000Y-65350000D02*
X169490000Y-59910000D01*
X165790000Y-65350000D02*
X169490000Y-65350000D01*
%TO.C,R2*%
X165790000Y-54830000D02*
X165790000Y-60270000D01*
X169490000Y-54830000D02*
X165790000Y-54830000D01*
X169490000Y-60270000D02*
X169490000Y-54830000D01*
X165790000Y-60270000D02*
X169490000Y-60270000D01*
%TO.C,C201*%
X82780000Y-203200000D02*
G75*
G03*
X82780000Y-203200000I-2750000J0D01*
G01*
%TO.C,C200*%
X64540000Y-192070000D02*
X64540000Y-199170000D01*
X67540000Y-192070000D02*
X64540000Y-192070000D01*
X67540000Y-199170000D02*
X67540000Y-192070000D01*
X64540000Y-199170000D02*
X67540000Y-199170000D01*
%TO.C,C21*%
X120840000Y-51840000D02*
X115340000Y-51840000D01*
X120840000Y-54840000D02*
X120840000Y-51840000D01*
X115340000Y-54840000D02*
X120840000Y-54840000D01*
X115340000Y-51840000D02*
X115340000Y-54840000D01*
%TO.C,C16*%
X131000000Y-51840000D02*
X125500000Y-51840000D01*
X131000000Y-54840000D02*
X131000000Y-51840000D01*
X125500000Y-54840000D02*
X131000000Y-54840000D01*
X125500000Y-51840000D02*
X125500000Y-54840000D01*
%TO.C,C11*%
X148780000Y-51840000D02*
X143280000Y-51840000D01*
X148780000Y-54840000D02*
X148780000Y-51840000D01*
X143280000Y-54840000D02*
X148780000Y-54840000D01*
X143280000Y-51840000D02*
X143280000Y-54840000D01*
%TO.C,C6*%
X158940000Y-51840000D02*
X153440000Y-51840000D01*
X158940000Y-54840000D02*
X158940000Y-51840000D01*
X153440000Y-54840000D02*
X158940000Y-54840000D01*
X153440000Y-51840000D02*
X153440000Y-54840000D01*
%TO.C,C1*%
X169100000Y-51840000D02*
X163600000Y-51840000D01*
X169100000Y-54840000D02*
X169100000Y-51840000D01*
X163600000Y-54840000D02*
X169100000Y-54840000D01*
X163600000Y-51840000D02*
X163600000Y-54840000D01*
%TD*%
M02*
